<svg xmlns="http://www.w3.org/2000/svg" width="187" height="267.002" viewBox="0 0 187 267.002"><defs><style>.a{fill:#ec5358;opacity:0.4;}</style></defs><path class="a" d="M5319,9169.5a1.5,1.5,0,1,1,1.5,1.5A1.5,1.5,0,0,1,5319,9169.5Zm-23,0a1.5,1.5,0,1,1,1.5,1.5A1.5,1.5,0,0,1,5296,9169.5Zm-23,0a1.5,1.5,0,1,1,1.5,1.5A1.5,1.5,0,0,1,5273,9169.5Zm-23,0a1.5,1.5,0,1,1,1.5,1.5A1.5,1.5,0,0,1,5250,9169.5Zm-23,0a1.5,1.5,0,1,1,1.5,1.5A1.5,1.5,0,0,1,5227,9169.5Zm-23,0a1.5,1.5,0,1,1,1.5,1.5A1.5,1.5,0,0,1,5204,9169.5Zm-23,0a1.5,1.5,0,1,1,1.5,1.5A1.5,1.5,0,0,1,5181,9169.5Zm-23,0a1.5,1.5,0,1,1,1.5,1.5A1.5,1.5,0,0,1,5158,9169.5Zm-23,0a1.5,1.5,0,1,1,1.5,1.5A1.5,1.5,0,0,1,5135,9169.5Zm184-22a1.5,1.5,0,1,1,1.5,1.5A1.5,1.5,0,0,1,5319,9147.5Zm-23,0a1.5,1.5,0,1,1,1.5,1.5A1.5,1.5,0,0,1,5296,9147.5Zm-23,0a1.5,1.5,0,1,1,1.5,1.5A1.5,1.5,0,0,1,5273,9147.5Zm-23,0a1.5,1.5,0,1,1,1.5,1.5A1.5,1.5,0,0,1,5250,9147.5Zm-23,0a1.5,1.5,0,1,1,1.5,1.5A1.5,1.5,0,0,1,5227,9147.5Zm-23,0a1.5,1.5,0,1,1,1.5,1.5A1.5,1.5,0,0,1,5204,9147.5Zm-23,0a1.5,1.5,0,1,1,1.5,1.5A1.5,1.5,0,0,1,5181,9147.5Zm-23,0a1.5,1.5,0,1,1,1.5,1.5A1.5,1.5,0,0,1,5158,9147.5Zm-23,0a1.5,1.5,0,1,1,1.5,1.5A1.5,1.5,0,0,1,5135,9147.5Zm184-22a1.5,1.5,0,1,1,1.5,1.5A1.5,1.5,0,0,1,5319,9125.5Zm-23,0a1.5,1.5,0,1,1,1.5,1.5A1.5,1.5,0,0,1,5296,9125.5Zm-23,0a1.5,1.5,0,1,1,1.5,1.5A1.5,1.5,0,0,1,5273,9125.5Zm-23,0a1.5,1.5,0,1,1,1.5,1.5A1.5,1.5,0,0,1,5250,9125.5Zm-23,0a1.5,1.5,0,1,1,1.5,1.5A1.5,1.5,0,0,1,5227,9125.5Zm-23,0a1.5,1.5,0,1,1,1.5,1.5A1.5,1.5,0,0,1,5204,9125.5Zm-23,0a1.5,1.5,0,1,1,1.5,1.5A1.5,1.5,0,0,1,5181,9125.5Zm-23,0a1.5,1.5,0,1,1,1.5,1.5A1.5,1.5,0,0,1,5158,9125.5Zm-23,0a1.5,1.5,0,1,1,1.5,1.5A1.5,1.5,0,0,1,5135,9125.5Zm184-22a1.5,1.5,0,1,1,1.5,1.5A1.5,1.5,0,0,1,5319,9103.5Zm-23,0a1.5,1.5,0,1,1,1.5,1.5A1.5,1.5,0,0,1,5296,9103.5Zm-23,0a1.5,1.5,0,1,1,1.5,1.5A1.5,1.5,0,0,1,5273,9103.5Zm-23,0a1.5,1.5,0,1,1,1.5,1.5A1.5,1.5,0,0,1,5250,9103.5Zm-23,0a1.5,1.5,0,1,1,1.5,1.5A1.5,1.5,0,0,1,5227,9103.5Zm-23,0a1.5,1.5,0,1,1,1.5,1.5A1.5,1.5,0,0,1,5204,9103.5Zm-23,0a1.5,1.5,0,1,1,1.5,1.5A1.5,1.5,0,0,1,5181,9103.5Zm-23,0a1.5,1.5,0,1,1,1.5,1.5A1.5,1.5,0,0,1,5158,9103.5Zm-23,0a1.5,1.5,0,1,1,1.5,1.5A1.5,1.5,0,0,1,5135,9103.5Zm184-22a1.5,1.5,0,1,1,1.5,1.5A1.5,1.5,0,0,1,5319,9081.5Zm-23,0a1.5,1.5,0,1,1,1.5,1.5A1.5,1.5,0,0,1,5296,9081.5Zm-23,0a1.5,1.5,0,1,1,1.5,1.5A1.5,1.5,0,0,1,5273,9081.5Zm-23,0a1.5,1.5,0,1,1,1.5,1.5A1.5,1.5,0,0,1,5250,9081.5Zm-23,0a1.5,1.5,0,1,1,1.5,1.5A1.5,1.5,0,0,1,5227,9081.5Zm-23,0a1.5,1.5,0,1,1,1.5,1.5A1.5,1.5,0,0,1,5204,9081.5Zm-23,0a1.5,1.5,0,1,1,1.5,1.5A1.5,1.5,0,0,1,5181,9081.5Zm-23,0a1.5,1.5,0,1,1,1.5,1.5A1.5,1.5,0,0,1,5158,9081.5Zm-23,0a1.5,1.5,0,1,1,1.5,1.5A1.5,1.5,0,0,1,5135,9081.5Zm184-22a1.5,1.5,0,1,1,1.5,1.5A1.5,1.5,0,0,1,5319,9059.5Zm-23,0a1.5,1.5,0,1,1,1.5,1.5A1.5,1.5,0,0,1,5296,9059.5Zm-23,0a1.5,1.5,0,1,1,1.5,1.5A1.5,1.5,0,0,1,5273,9059.5Zm-23,0a1.5,1.5,0,1,1,1.5,1.5A1.5,1.5,0,0,1,5250,9059.5Zm-23,0a1.5,1.5,0,1,1,1.5,1.5A1.5,1.5,0,0,1,5227,9059.5Zm-23,0a1.5,1.5,0,1,1,1.5,1.5A1.5,1.5,0,0,1,5204,9059.5Zm-23,0a1.5,1.5,0,1,1,1.5,1.5A1.5,1.5,0,0,1,5181,9059.5Zm-23,0a1.5,1.5,0,1,1,1.5,1.5A1.5,1.5,0,0,1,5158,9059.5Zm-23,0a1.5,1.5,0,1,1,1.5,1.5A1.5,1.5,0,0,1,5135,9059.5Zm184-22a1.5,1.5,0,1,1,1.5,1.5A1.5,1.5,0,0,1,5319,9037.5Zm-23,0a1.5,1.5,0,1,1,1.5,1.5A1.5,1.5,0,0,1,5296,9037.5Zm-23,0a1.5,1.5,0,1,1,1.5,1.5A1.5,1.5,0,0,1,5273,9037.5Zm-23,0a1.5,1.5,0,1,1,1.5,1.5A1.5,1.5,0,0,1,5250,9037.5Zm-23,0a1.5,1.5,0,1,1,1.5,1.5A1.5,1.5,0,0,1,5227,9037.5Zm-23,0a1.5,1.5,0,1,1,1.5,1.5A1.5,1.5,0,0,1,5204,9037.5Zm-23,0a1.5,1.5,0,1,1,1.5,1.5A1.5,1.5,0,0,1,5181,9037.5Zm-23,0a1.5,1.5,0,1,1,1.5,1.5A1.5,1.5,0,0,1,5158,9037.5Zm-23,0a1.5,1.5,0,1,1,1.5,1.5A1.5,1.5,0,0,1,5135,9037.5Zm184-22a1.5,1.5,0,1,1,1.5,1.5A1.5,1.5,0,0,1,5319,9015.5Zm-23,0a1.5,1.5,0,1,1,1.5,1.5A1.5,1.5,0,0,1,5296,9015.5Zm-23,0a1.5,1.5,0,1,1,1.5,1.5A1.5,1.5,0,0,1,5273,9015.5Zm-23,0a1.5,1.5,0,1,1,1.5,1.5A1.5,1.5,0,0,1,5250,9015.5Zm-23,0a1.5,1.5,0,1,1,1.5,1.5A1.5,1.5,0,0,1,5227,9015.5Zm-23,0a1.5,1.5,0,1,1,1.5,1.5A1.5,1.5,0,0,1,5204,9015.5Zm-23,0a1.5,1.5,0,1,1,1.5,1.5A1.5,1.5,0,0,1,5181,9015.5Zm-23,0a1.5,1.5,0,1,1,1.5,1.5A1.5,1.5,0,0,1,5158,9015.5Zm-23,0a1.5,1.5,0,1,1,1.5,1.5A1.5,1.5,0,0,1,5135,9015.5Zm184-22a1.5,1.5,0,1,1,1.5,1.5A1.5,1.5,0,0,1,5319,8993.5Zm-23,0a1.5,1.5,0,1,1,1.5,1.5A1.5,1.5,0,0,1,5296,8993.5Zm-23,0a1.5,1.5,0,1,1,1.5,1.5A1.5,1.5,0,0,1,5273,8993.5Zm-23,0a1.5,1.5,0,1,1,1.5,1.5A1.5,1.5,0,0,1,5250,8993.5Zm-23,0a1.5,1.5,0,1,1,1.5,1.5A1.5,1.5,0,0,1,5227,8993.5Zm-23,0a1.5,1.5,0,1,1,1.5,1.5A1.5,1.5,0,0,1,5204,8993.5Zm-23,0a1.5,1.5,0,1,1,1.5,1.5A1.5,1.5,0,0,1,5181,8993.5Zm-23,0a1.5,1.5,0,1,1,1.5,1.5A1.5,1.5,0,0,1,5158,8993.5Zm-23,0a1.5,1.5,0,1,1,1.5,1.5A1.5,1.5,0,0,1,5135,8993.5Zm184-22a1.5,1.5,0,1,1,1.5,1.5A1.5,1.5,0,0,1,5319,8971.5Zm-23,0a1.5,1.5,0,1,1,1.5,1.5A1.5,1.5,0,0,1,5296,8971.5Zm-23,0a1.5,1.5,0,1,1,1.5,1.5A1.5,1.5,0,0,1,5273,8971.5Zm-23,0a1.5,1.5,0,1,1,1.5,1.5A1.5,1.5,0,0,1,5250,8971.5Zm-23,0a1.5,1.5,0,1,1,1.5,1.5A1.5,1.5,0,0,1,5227,8971.5Zm-23,0a1.5,1.5,0,1,1,1.5,1.5A1.5,1.5,0,0,1,5204,8971.5Zm-23,0a1.5,1.5,0,1,1,1.5,1.5A1.5,1.5,0,0,1,5181,8971.5Zm-23,0a1.5,1.5,0,1,1,1.5,1.5A1.5,1.5,0,0,1,5158,8971.5Zm-23,0a1.5,1.5,0,1,1,1.5,1.5A1.5,1.5,0,0,1,5135,8971.5Zm184-22a1.5,1.5,0,1,1,1.5,1.5A1.5,1.5,0,0,1,5319,8949.5Zm-23,0a1.5,1.5,0,1,1,1.5,1.5A1.5,1.5,0,0,1,5296,8949.5Zm-23,0a1.5,1.5,0,1,1,1.5,1.5A1.5,1.5,0,0,1,5273,8949.5Zm-23,0a1.5,1.5,0,1,1,1.5,1.5A1.5,1.5,0,0,1,5250,8949.5Zm-23,0a1.5,1.5,0,1,1,1.5,1.5A1.5,1.5,0,0,1,5227,8949.5Zm-23,0a1.5,1.5,0,1,1,1.5,1.5A1.5,1.5,0,0,1,5204,8949.5Zm-23,0a1.5,1.5,0,1,1,1.5,1.5A1.5,1.5,0,0,1,5181,8949.5Zm-23,0a1.5,1.5,0,1,1,1.5,1.5A1.5,1.5,0,0,1,5158,8949.5Zm-23,0a1.5,1.5,0,1,1,1.5,1.5A1.5,1.5,0,0,1,5135,8949.5Zm184-22a1.5,1.5,0,1,1,1.5,1.5A1.5,1.5,0,0,1,5319,8927.5Zm-23,0a1.5,1.5,0,1,1,1.5,1.5A1.5,1.5,0,0,1,5296,8927.5Zm-23,0a1.5,1.5,0,1,1,1.5,1.5A1.5,1.5,0,0,1,5273,8927.5Zm-23,0a1.5,1.5,0,1,1,1.5,1.5A1.5,1.5,0,0,1,5250,8927.5Zm-23,0a1.5,1.5,0,1,1,1.5,1.5A1.5,1.5,0,0,1,5227,8927.5Zm-23,0a1.5,1.5,0,1,1,1.5,1.5A1.5,1.5,0,0,1,5204,8927.5Zm-23,0a1.5,1.5,0,1,1,1.5,1.5A1.5,1.5,0,0,1,5181,8927.5Zm-23,0a1.5,1.5,0,1,1,1.5,1.5A1.5,1.5,0,0,1,5158,8927.5Zm-23,0a1.5,1.5,0,1,1,1.5,1.5A1.5,1.5,0,0,1,5135,8927.5Zm184-22a1.5,1.5,0,1,1,1.5,1.5A1.5,1.5,0,0,1,5319,8905.5Zm-23,0a1.5,1.5,0,1,1,1.5,1.5A1.5,1.5,0,0,1,5296,8905.5Zm-23,0a1.5,1.5,0,1,1,1.5,1.5A1.5,1.5,0,0,1,5273,8905.5Zm-23,0a1.5,1.5,0,1,1,1.5,1.5A1.5,1.5,0,0,1,5250,8905.5Zm-23,0a1.5,1.5,0,1,1,1.5,1.5A1.5,1.5,0,0,1,5227,8905.5Zm-23,0a1.5,1.5,0,1,1,1.5,1.5A1.5,1.5,0,0,1,5204,8905.5Zm-23,0a1.5,1.5,0,1,1,1.5,1.5A1.5,1.5,0,0,1,5181,8905.5Zm-23,0a1.5,1.5,0,1,1,1.5,1.5A1.5,1.5,0,0,1,5158,8905.5Zm-23,0a1.5,1.5,0,1,1,1.5,1.5A1.5,1.5,0,0,1,5135,8905.5Z" transform="translate(-5135 -8903.999)"/></svg>