<svg xmlns="http://www.w3.org/2000/svg" width="37" height="37" viewBox="0 0 37 37"><defs><style>.a,.d{fill:none;}.a{stroke:#ec5358;}.b{fill:#ec5358;}.c{stroke:none;}</style></defs><g transform="translate(-807.191 -1003.191)"><g class="a" transform="translate(807.191 1003.191)"><circle class="c" cx="18.5" cy="18.5" r="18.5"/><circle class="d" cx="18.5" cy="18.5" r="18"/></g><path class="b" d="M18.843,8.114,11.989,1.156a.528.528,0,0,0-.751,0l-.622.631a.539.539,0,0,0-.157.381.513.513,0,0,0,.151.364l4.92,4.976H1.545A.569.569,0,0,0,1,8.083v.888a.554.554,0,0,0,.53.529V9.494H15.482L10.614,14.44a.561.561,0,0,0,0,.776l.623.627a.528.528,0,0,0,.751,0l6.855-6.958A.556.556,0,0,0,18.843,8.114Z" transform="translate(816.19 1013.19)"/></g></svg>