<svg xmlns="http://www.w3.org/2000/svg" width="8" height="5" viewBox="0 0 8 5">
    <path fill="#202020" fill-rule="nonzero" stroke="#202020" stroke-width=".5" d="M6.564 1.078l-.274.274-.655.656-1.477 1.477c-.11.11-.224.22-.333.333l-.005.004h.36l-.273-.273-.655-.656-.793-.792-.685-.685c-.11-.11-.22-.223-.333-.333l-.004-.005c-.095-.094-.268-.1-.36 0a.26.26 0 0 0 0 .36l2.405 2.407c.111.11.22.224.334.333l.004.005a.259.259 0 0 0 .36 0l.275-.274.655-.655.792-.792.685-.685c.11-.111.223-.22.333-.333l.005-.005c.094-.094.101-.268 0-.36a.259.259 0 0 0-.36 0z"/>
</svg>
