<svg xmlns="http://www.w3.org/2000/svg" width="108" height="108" viewBox="0 0 108 108"><defs><style>.a{fill:#ec5358;}</style></defs><g transform="translate(-0.375 0)"><path class="a" d="M-2596.625-78.5a1.5,1.5,0,0,1,1.5-1.5,1.5,1.5,0,0,1,1.5,1.5,1.5,1.5,0,0,1-1.5,1.5A1.5,1.5,0,0,1-2596.625-78.5Zm-21,0a1.5,1.5,0,0,1,1.5-1.5,1.5,1.5,0,0,1,1.5,1.5,1.5,1.5,0,0,1-1.5,1.5A1.5,1.5,0,0,1-2617.625-78.5Zm-21,0a1.5,1.5,0,0,1,1.5-1.5,1.5,1.5,0,0,1,1.5,1.5,1.5,1.5,0,0,1-1.5,1.5A1.5,1.5,0,0,1-2638.625-78.5Zm-21,0a1.5,1.5,0,0,1,1.5-1.5,1.5,1.5,0,0,1,1.5,1.5,1.5,1.5,0,0,1-1.5,1.5A1.5,1.5,0,0,1-2659.625-78.5Zm-21,0a1.5,1.5,0,0,1,1.5-1.5,1.5,1.5,0,0,1,1.5,1.5,1.5,1.5,0,0,1-1.5,1.5A1.5,1.5,0,0,1-2680.625-78.5Zm-21,0a1.5,1.5,0,0,1,1.5-1.5,1.5,1.5,0,0,1,1.5,1.5,1.5,1.5,0,0,1-1.5,1.5A1.5,1.5,0,0,1-2701.625-78.5Zm105-21a1.5,1.5,0,0,1,1.5-1.5,1.5,1.5,0,0,1,1.5,1.5,1.5,1.5,0,0,1-1.5,1.5A1.5,1.5,0,0,1-2596.625-99.5Zm-21,0a1.5,1.5,0,0,1,1.5-1.5,1.5,1.5,0,0,1,1.5,1.5,1.5,1.5,0,0,1-1.5,1.5A1.5,1.5,0,0,1-2617.625-99.5Zm-21,0a1.5,1.5,0,0,1,1.5-1.5,1.5,1.5,0,0,1,1.5,1.5,1.5,1.5,0,0,1-1.5,1.5A1.5,1.5,0,0,1-2638.625-99.5Zm-21,0a1.5,1.5,0,0,1,1.5-1.5,1.5,1.5,0,0,1,1.5,1.5,1.5,1.5,0,0,1-1.5,1.5A1.5,1.5,0,0,1-2659.625-99.5Zm-21,0a1.5,1.5,0,0,1,1.5-1.5,1.5,1.5,0,0,1,1.5,1.5,1.5,1.5,0,0,1-1.5,1.5A1.5,1.5,0,0,1-2680.625-99.5Zm-21,0a1.5,1.5,0,0,1,1.5-1.5,1.5,1.5,0,0,1,1.5,1.5,1.5,1.5,0,0,1-1.5,1.5A1.5,1.5,0,0,1-2701.625-99.5Zm105-21a1.5,1.5,0,0,1,1.5-1.5,1.5,1.5,0,0,1,1.5,1.5,1.5,1.5,0,0,1-1.5,1.5A1.5,1.5,0,0,1-2596.625-120.5Zm-21,0a1.5,1.5,0,0,1,1.5-1.5,1.5,1.5,0,0,1,1.5,1.5,1.5,1.5,0,0,1-1.5,1.5A1.5,1.5,0,0,1-2617.625-120.5Zm-21,0a1.5,1.5,0,0,1,1.5-1.5,1.5,1.5,0,0,1,1.5,1.5,1.5,1.5,0,0,1-1.5,1.5A1.5,1.5,0,0,1-2638.625-120.5Zm-21,0a1.5,1.5,0,0,1,1.5-1.5,1.5,1.5,0,0,1,1.5,1.5,1.5,1.5,0,0,1-1.5,1.5A1.5,1.5,0,0,1-2659.625-120.5Zm-21,0a1.5,1.5,0,0,1,1.5-1.5,1.5,1.5,0,0,1,1.5,1.5,1.5,1.5,0,0,1-1.5,1.5A1.5,1.5,0,0,1-2680.625-120.5Zm-21,0a1.5,1.5,0,0,1,1.5-1.5,1.5,1.5,0,0,1,1.5,1.5,1.5,1.5,0,0,1-1.5,1.5A1.5,1.5,0,0,1-2701.625-120.5Zm105-21a1.5,1.5,0,0,1,1.5-1.5,1.5,1.5,0,0,1,1.5,1.5,1.5,1.5,0,0,1-1.5,1.5A1.5,1.5,0,0,1-2596.625-141.5Zm-21,0a1.5,1.5,0,0,1,1.5-1.5,1.5,1.5,0,0,1,1.5,1.5,1.5,1.5,0,0,1-1.5,1.5A1.5,1.5,0,0,1-2617.625-141.5Zm-21,0a1.5,1.5,0,0,1,1.5-1.5,1.5,1.5,0,0,1,1.5,1.5,1.5,1.5,0,0,1-1.5,1.5A1.5,1.5,0,0,1-2638.625-141.5Zm-21,0a1.5,1.5,0,0,1,1.5-1.5,1.5,1.5,0,0,1,1.5,1.5,1.5,1.5,0,0,1-1.5,1.5A1.5,1.5,0,0,1-2659.625-141.5Zm-21,0a1.5,1.5,0,0,1,1.5-1.5,1.5,1.5,0,0,1,1.5,1.5,1.5,1.5,0,0,1-1.5,1.5A1.5,1.5,0,0,1-2680.625-141.5Zm-21,0a1.5,1.5,0,0,1,1.5-1.5,1.5,1.5,0,0,1,1.5,1.5,1.5,1.5,0,0,1-1.5,1.5A1.5,1.5,0,0,1-2701.625-141.5Zm105-21a1.5,1.5,0,0,1,1.5-1.5,1.5,1.5,0,0,1,1.5,1.5,1.5,1.5,0,0,1-1.5,1.5A1.5,1.5,0,0,1-2596.625-162.5Zm-21,0a1.5,1.5,0,0,1,1.5-1.5,1.5,1.5,0,0,1,1.5,1.5,1.5,1.5,0,0,1-1.5,1.5A1.5,1.5,0,0,1-2617.625-162.5Zm-21,0a1.5,1.5,0,0,1,1.5-1.5,1.5,1.5,0,0,1,1.5,1.5,1.5,1.5,0,0,1-1.5,1.5A1.5,1.5,0,0,1-2638.625-162.5Zm-21,0a1.5,1.5,0,0,1,1.5-1.5,1.5,1.5,0,0,1,1.5,1.5,1.5,1.5,0,0,1-1.5,1.5A1.5,1.5,0,0,1-2659.625-162.5Zm-21,0a1.5,1.5,0,0,1,1.5-1.5,1.5,1.5,0,0,1,1.5,1.5,1.5,1.5,0,0,1-1.5,1.5A1.5,1.5,0,0,1-2680.625-162.5Zm-21,0a1.5,1.5,0,0,1,1.5-1.5,1.5,1.5,0,0,1,1.5,1.5,1.5,1.5,0,0,1-1.5,1.5A1.5,1.5,0,0,1-2701.625-162.5Zm105-21a1.5,1.5,0,0,1,1.5-1.5,1.5,1.5,0,0,1,1.5,1.5,1.5,1.5,0,0,1-1.5,1.5A1.5,1.5,0,0,1-2596.625-183.5Zm-21,0a1.5,1.5,0,0,1,1.5-1.5,1.5,1.5,0,0,1,1.5,1.5,1.5,1.5,0,0,1-1.5,1.5A1.5,1.5,0,0,1-2617.625-183.5Zm-21,0a1.5,1.5,0,0,1,1.5-1.5,1.5,1.5,0,0,1,1.5,1.5,1.5,1.5,0,0,1-1.5,1.5A1.5,1.5,0,0,1-2638.625-183.5Zm-21,0a1.5,1.5,0,0,1,1.5-1.5,1.5,1.5,0,0,1,1.5,1.5,1.5,1.5,0,0,1-1.5,1.5A1.5,1.5,0,0,1-2659.625-183.5Zm-21,0a1.5,1.5,0,0,1,1.5-1.5,1.5,1.5,0,0,1,1.5,1.5,1.5,1.5,0,0,1-1.5,1.5A1.5,1.5,0,0,1-2680.625-183.5Zm-21,0a1.5,1.5,0,0,1,1.5-1.5,1.5,1.5,0,0,1,1.5,1.5,1.5,1.5,0,0,1-1.5,1.5A1.5,1.5,0,0,1-2701.625-183.5Z" transform="translate(2702 185)"/></g></svg>