<svg xmlns="http://www.w3.org/2000/svg" width="22.635" height="22.652" viewBox="0 0 22.635 22.652"><defs><style>.a{fill:#4a4a4a;stroke:#fff;stroke-width:0.5px;}</style></defs><g transform="translate(-0.71 0.25)"><g transform="translate(0.96)"><path class="a" d="M22.217,17.337l-3.635-3.621a9.959,9.959,0,0,0,1.1-4.389,9.362,9.362,0,1,0-9.362,9.327,10.057,10.057,0,0,0,4.406-1.1l3.635,3.621a2.669,2.669,0,0,0,3.855,0A2.852,2.852,0,0,0,22.217,17.337Zm-11.895-.878a7.132,7.132,0,1,1,7.159-7.132A7.131,7.131,0,0,1,10.322,16.459Z" transform="translate(-0.96)"/></g></g></svg>