<?xml version="1.0" encoding="UTF-8"?>
<svg width="94px" height="21px" viewBox="0 0 94 21" version="1.1" xmlns="http://www.w3.org/2000/svg" xmlns:xlink="http://www.w3.org/1999/xlink">
    <!-- Generator: Sketch 64 (93537) - https://sketch.com -->
    <desc>Created with Sketch.</desc>
    <g id="Page-1" stroke="none" stroke-width="1" fill="none" fill-rule="evenodd">
        <g id="logos-versions-04" fill-rule="nonzero">
            <g id="Group" transform="translate(24.206398, 4.639560)" fill="#EF3835">
                <path d="M3.15691778,9.43040936 C2.9430946,9.43040936 2.73532301,9.40620296 2.52956863,9.35980736 C2.32381424,9.31341176 2.15840385,9.25491297 2.02930306,9.18632817 L2.02930306,12.2343172 L0.14725559,12.2343172 L0.14725559,3.14279739 L1.55526109,3.14279739 L1.73479188,3.79637014 C1.98290746,3.54825456 2.27136704,3.35460337 2.60017062,3.21339938 C2.9289742,3.07219539 3.29005298,3.00159339 3.68138975,3.00159339 C4.07474372,3.00159339 4.4317881,3.07421259 4.75655727,3.21945098 C5.08132645,3.36468937 5.35364843,3.57246096 5.57554042,3.84074854 C5.7974324,4.10903612 5.97091159,4.4358225 6.09396078,4.82110767 C6.21700998,5.20437564 6.27954317,5.63202202 6.27954317,6.10202958 C6.27954317,6.63053595 6.19885518,7.10256071 6.03546199,7.51608669 C5.874086,7.92961266 5.65219401,8.27858823 5.36978603,8.55897902 C5.08737805,8.8393698 4.75655727,9.05722738 4.3773237,9.20650017 C4.00010733,9.35375576 3.59263295,9.43040936 3.15691778,9.43040936 Z M3.14481459,4.4095989 C2.8886302,4.4095989 2.66270382,4.47011489 2.46703543,4.58912969 C2.27136704,4.70814448 2.12612865,4.82715927 2.03132026,4.94819126 L2.03132026,7.76621947 C2.24514345,7.95381906 2.53965463,8.04862745 2.9148538,8.04862745 C3.08631579,8.04862745 3.25576058,8.01433505 3.42722257,7.94575026 C3.59868455,7.87716546 3.74997454,7.76823667 3.88109253,7.61896388 C4.01422773,7.46969109 4.12315652,7.2760399 4.20787891,7.03599312 C4.29260131,6.79796354 4.3369797,6.50345236 4.3369797,6.15245958 C4.3369797,5.66631441 4.23410251,5.25480564 4.03036532,4.91591606 C3.82259374,4.57904369 3.52808256,4.4095989 3.14481459,4.4095989 Z" id="Shape"></path>
                <path d="M6.93513313,3.67937255 C7.2841087,3.47361816 7.67947988,3.31022497 8.11922945,3.18717578 C8.55897902,3.06412659 9.00881458,3.00159339 9.47075335,3.00159339 C10.2312377,3.00159339 10.8404321,3.18515858 11.3023708,3.55228896 C11.7643096,3.91941933 11.9942704,4.50440729 11.9942704,5.30725284 L11.9942704,9.28920537 L10.5479381,9.28920537 L10.3805105,8.67395941 L10.3300805,8.67395941 C10.1586185,8.89585139 9.92260612,9.07739938 9.62002614,9.21860337 C9.31744616,9.35980736 8.96040179,9.43040936 8.55091022,9.43040936 C8.19991744,9.43040936 7.89532026,9.37997936 7.63510148,9.27710217 C7.3748827,9.17422497 7.15904231,9.03907258 6.98758032,8.86761059 C6.81611833,8.69614861 6.68701754,8.49442862 6.59624355,8.26043344 C6.50546956,8.02643825 6.46109116,7.77630547 6.46109116,7.51205229 C6.46109116,7.15299071 6.53976195,6.84637633 6.69710354,6.59019195 C6.85444513,6.33400757 7.06826832,6.12421878 7.3365559,5.96284279 C7.60484348,5.8014668 7.92154386,5.68043481 8.28463983,5.60378122 C8.64773581,5.52712762 9.03302098,5.48880082 9.44452975,5.48880082 L10.0859993,5.48880082 L10.0859993,5.15596285 C10.0859993,4.92600206 10.0053113,4.74848848 9.84191813,4.62543928 C9.68054214,4.50239009 9.44856415,4.4398569 9.15001857,4.4398569 C8.89383419,4.4398569 8.64168421,4.47818369 8.39356863,4.55483729 C8.14545304,4.63149088 7.87313106,4.75454008 7.57458548,4.92600206 L6.93513313,3.67937255 Z M10.0981025,6.63860475 L9.67650774,6.65070795 C9.43646096,6.65877675 9.23675817,6.68500034 9.07538218,6.72736154 C8.91400619,6.76972274 8.7828882,6.82418713 8.68404541,6.88672033 C8.58520261,6.95127073 8.51460062,7.02792432 8.47223942,7.11668111 C8.42987822,7.20543791 8.40768903,7.2982291 8.40768903,7.39102029 C8.40768903,7.65527348 8.48635982,7.83682146 8.64370141,7.93566426 C8.801043,8.03450705 8.98259099,8.08291985 9.18834537,8.08291985 C9.39409976,8.08291985 9.57968215,8.02240385 9.74509253,7.90338906 C9.91050292,7.78437427 10.0295177,7.65123908 10.0981025,7.50600069 L10.0981025,6.63860475 Z" id="Shape"></path>
                <path d="M15.7462621,9.43040936 C15.5324389,9.43040936 15.3246674,9.40620296 15.118913,9.35980736 C14.9131586,9.31341176 14.7477482,9.25491297 14.6186474,9.18632817 L14.6186474,12.2343172 L12.7365999,12.2343172 L12.7365999,3.14279739 L14.1446054,3.14279739 L14.3241362,3.79637014 C14.5722518,3.54825456 14.8607114,3.35460337 15.189515,3.21339938 C15.5183185,3.07219539 15.8793973,3.00159339 16.2707341,3.00159339 C16.6640881,3.00159339 17.0211324,3.07421259 17.3459016,3.21945098 C17.6706708,3.36468937 17.9429928,3.57246096 18.1648848,3.84074854 C18.3867767,4.10903612 18.5602559,4.4358225 18.6833051,4.82110767 C18.8063543,5.20437564 18.8688875,5.63202202 18.8688875,6.10202958 C18.8688875,6.63053595 18.7881995,7.10256071 18.6248063,7.51608669 C18.4634303,7.92961266 18.2415384,8.27858823 17.9591304,8.55897902 C17.6767224,8.8393698 17.3459016,9.05722738 16.966668,9.20650017 C16.5894517,9.35375576 16.1819773,9.43040936 15.7462621,9.43040936 Z M15.7321417,4.4095989 C15.4759573,4.4095989 15.250031,4.47011489 15.0543626,4.58912969 C14.8586942,4.70814448 14.7134558,4.82715927 14.6186474,4.94819126 L14.6186474,7.76621947 C14.8324706,7.95381906 15.1269818,8.04862745 15.5021809,8.04862745 C15.6736429,8.04862745 15.8430877,8.01433505 16.0145497,7.94575026 C16.1860117,7.87716546 16.3373017,7.76823667 16.4684197,7.61896388 C16.6015549,7.46969109 16.7104837,7.2760399 16.7952061,7.03599312 C16.8799284,6.79796354 16.9243068,6.50345236 16.9243068,6.15245958 C16.9243068,5.66631441 16.8214297,5.25480564 16.6176925,4.91591606 C16.4119381,4.57904369 16.1174269,4.4095989 15.7321417,4.4095989 Z" id="Shape"></path>
                <path d="M19.5244775,3.67937255 C19.873453,3.47361816 20.2688242,3.31022497 20.7085738,3.18717578 C21.1483234,3.06412659 21.5981589,3.00159339 22.0600977,3.00159339 C22.820582,3.00159339 23.4297764,3.18515858 23.8917152,3.55228896 C24.3536539,3.91941933 24.5836147,4.50440729 24.5836147,5.30725284 L24.5836147,9.28920537 L23.1372824,9.28920537 L22.9698548,8.67395941 L22.9194248,8.67395941 C22.7479628,8.89585139 22.5119505,9.07739938 22.2093705,9.21860337 C21.9067905,9.35980736 21.5497461,9.43040936 21.1402546,9.43040936 C20.7892618,9.43040936 20.4846646,9.37997936 20.2244458,9.27710217 C19.964227,9.17422497 19.7483867,9.03907258 19.5769247,8.86761059 C19.4054627,8.69614861 19.2763619,8.49442862 19.1855879,8.26043344 C19.0948139,8.02643825 19.0504355,7.77630547 19.0504355,7.51205229 C19.0504355,7.15299071 19.1291063,6.84637633 19.2864479,6.59019195 C19.4437895,6.33400757 19.6576127,6.12421878 19.9259002,5.96284279 C20.1941878,5.8014668 20.5108882,5.68043481 20.8739842,5.60378122 C21.2370801,5.52712762 21.6223653,5.48880082 22.0338741,5.48880082 L22.6733265,5.48880082 L22.6733265,5.15596285 C22.6733265,4.92600206 22.5926385,4.74848848 22.4292453,4.62543928 C22.2678693,4.50239009 22.0358913,4.4398569 21.7373457,4.4398569 C21.4811613,4.4398569 21.2290113,4.47818369 20.9808958,4.55483729 C20.7327802,4.63149088 20.4604582,4.75454008 20.1619126,4.92600206 L19.5244775,3.67937255 Z M22.6874468,6.63860475 L22.2658521,6.65070795 C22.0258053,6.65877675 21.8261025,6.68500034 21.6647265,6.72736154 C21.5033505,6.76972274 21.3722325,6.82418713 21.2733897,6.88672033 C21.174547,6.95127073 21.103945,7.02792432 21.0615838,7.11668111 C21.0192226,7.20543791 20.9970334,7.2982291 20.9970334,7.39102029 C20.9970334,7.65527348 21.0757042,7.83682146 21.2330457,7.93566426 C21.3903873,8.03450705 21.5719353,8.08291985 21.7776897,8.08291985 C21.9834441,8.08291985 22.1690265,8.02240385 22.3344369,7.90338906 C22.4998473,7.78437427 22.6188621,7.65123908 22.6874468,7.50600069 L22.6874468,6.63860475 Z" id="Shape"></path>
                <path d="M24.5311675,3.14078019 L26.604849,3.14078019 L27.6174833,5.8801376 L28.0269749,7.3789171 L28.0774049,7.3789171 L28.4606729,5.8559312 L29.3442064,3.14078019 L31.2787011,3.14078019 L29.0638156,9.40216856 C28.9448008,9.75114413 28.8035968,10.0940681 28.6422208,10.4269061 C28.4808449,10.7597441 28.2811421,11.0703928 28.0471469,11.3608696 C27.8111345,11.6513464 27.5287265,11.9155996 27.1958885,12.1556464 C26.8630506,12.393676 26.4616278,12.5913615 25.9916202,12.7446687 L25.2109639,11.2721128 C25.7152638,11.092582 26.130807,10.8363977 26.4596106,10.5035597 C26.7884142,10.1707217 27.008289,9.78543653 27.1192349,9.35173856 L27.1454585,9.24886137 L24.5311675,3.14078019 Z" id="Path"></path>
                <path d="M31.4461287,3.67937255 C31.7951042,3.47361816 32.1904754,3.31022497 32.630225,3.18717578 C33.0699745,3.06412659 33.5198101,3.00159339 33.9817489,3.00159339 C34.7422332,3.00159339 35.3514276,3.18515858 35.8133664,3.55228896 C36.2753051,3.91941933 36.5052659,4.50440729 36.5052659,5.30725284 L36.5052659,9.28920537 L35.0589336,9.28920537 L34.891506,8.67395941 L34.841076,8.67395941 C34.669614,8.89585139 34.4336016,9.07739938 34.1310217,9.21860337 C33.8284417,9.35980736 33.4713973,9.43040936 33.0619057,9.43040936 C32.710913,9.43040936 32.4063158,9.37997936 32.146097,9.27710217 C31.8858782,9.17422497 31.6700378,9.03907258 31.4985758,8.86761059 C31.3271139,8.69614861 31.1980131,8.49442862 31.1072391,8.26043344 C31.0164651,8.02643825 30.9720867,7.77630547 30.9720867,7.51205229 C30.9720867,7.15299071 31.0507575,6.84637633 31.2080991,6.59019195 C31.3654407,6.33400757 31.5792638,6.12421878 31.8475514,5.96284279 C32.115839,5.8014668 32.4325394,5.68043481 32.7956354,5.60378122 C33.1587313,5.52712762 33.5440165,5.48880082 33.9555253,5.48880082 L34.5949776,5.48880082 L34.5949776,5.15596285 C34.5949776,4.92600206 34.5142896,4.74848848 34.3508965,4.62543928 C34.1895205,4.50239009 33.9575425,4.4398569 33.6589969,4.4398569 C33.4028125,4.4398569 33.1506625,4.47818369 32.902547,4.55483729 C32.6544314,4.63149088 32.3821094,4.75454008 32.0835638,4.92600206 L31.4461287,3.67937255 Z M34.609098,6.63860475 L34.1875033,6.65070795 C33.9474565,6.65877675 33.7477537,6.68500034 33.5863777,6.72736154 C33.4250017,6.76972274 33.2938837,6.82418713 33.1950409,6.88672033 C33.0961981,6.95127073 33.0255961,7.02792432 32.9832349,7.11668111 C32.9408737,7.20543791 32.9186846,7.2982291 32.9186846,7.39102029 C32.9186846,7.65527348 32.9973553,7.83682146 33.1546969,7.93566426 C33.3120385,8.03450705 33.4935865,8.08291985 33.6993409,8.08291985 C33.9050953,8.08291985 34.0906777,8.02240385 34.2560881,7.90338906 C34.4214984,7.78437427 34.5405132,7.65123908 34.609098,7.50600069 L34.609098,6.63860475 Z" id="Shape"></path>
                <path d="M37.2213719,5.25480564 C37.2213719,4.92196766 37.2899567,4.61737048 37.4271262,4.3389969 C37.5642958,4.06062332 37.7539126,3.82259374 37.9959766,3.62087375 C38.2400578,3.42117097 38.524483,3.26786378 38.8532865,3.15893498 C39.1820901,3.05202339 39.5431689,2.9995762 39.9345057,2.9995762 C40.0797441,2.9995762 40.2451545,3.01167939 40.4347712,3.03790299 C40.6223708,3.06412659 40.7938328,3.09841899 40.94714,3.14078019 L43.5594138,3.14078019 L43.5594138,4.30672171 L42.9703915,4.30672171 L42.2542855,4.19174131 C42.3470767,4.3188249 42.4277647,4.48221809 42.4902979,4.67788648 C42.5548483,4.87355487 42.5871235,5.07124045 42.5871235,5.26690884 C42.5871235,5.59167802 42.5266075,5.8861892 42.4075927,6.15044238 C42.2885779,6.41469556 42.1130815,6.64667355 41.8831207,6.84234193 C41.65316,7.03801032 41.370752,7.19131751 41.037914,7.2962119 C40.705076,7.40312349 40.3298768,7.45557069 39.9102993,7.45557069 C39.8154909,7.45557069 39.7267341,7.45153629 39.6420117,7.44346749 C39.5572893,7.43539869 39.4705497,7.42127829 39.3858273,7.40514069 C39.3253113,7.43943309 39.2708469,7.48582869 39.2183997,7.54634468 C39.1659525,7.60686068 39.1417461,7.68351428 39.1417461,7.77630547 C39.1417461,7.88725146 39.1820901,7.97802545 39.2627781,8.04459305 C39.3434661,8.11317785 39.5088765,8.14747024 39.7549749,8.14747024 L41.048,8.14747024 C41.380838,8.14747024 41.6874524,8.18176264 41.9698603,8.25034744 C42.2522683,8.31893223 42.4923151,8.42987822 42.6940351,8.58318541 C42.8937379,8.7364926 43.0510795,8.93619539 43.1620255,9.17825937 C43.2729714,9.42032336 43.329453,9.71483454 43.329453,10.0557413 C43.329453,10.3885793 43.248765,10.6951937 43.0853719,10.9776016 C42.9219787,11.2600096 42.6940351,11.5020736 42.3995239,11.707828 C42.1050127,11.9135824 41.7459511,12.0729412 41.3243564,12.1879216 C40.9007444,12.302902 40.4347712,12.3614008 39.9224025,12.3614008 C38.9662497,12.3614008 38.2158514,12.1939732 37.6691902,11.8611352 C37.1225291,11.5282972 36.8502071,11.0542552 36.8502071,10.4390093 C36.8502071,10.1646701 36.9409811,9.92462332 37.1265635,9.71483454 C37.3101287,9.50504575 37.5683302,9.34165256 37.9011682,9.22263777 C37.798291,9.15405297 37.6833106,9.03705538 37.556227,8.86962779 C37.4291434,8.70220021 37.364593,8.49644582 37.364593,8.24833024 C37.364593,7.95785346 37.4513326,7.70772067 37.626829,7.49994909 C37.8023254,7.2901603 38.0222002,7.12273271 38.2864534,6.99363192 C38.1755074,6.93513313 38.0585098,6.85041073 37.9334434,6.74349914 C37.808377,6.63658755 37.6954138,6.51152116 37.5885022,6.36628277 C37.4815906,6.22104437 37.394851,6.05765119 37.3262662,5.874086 C37.2556643,5.69253801 37.2213719,5.48476643 37.2213719,5.25480564 Z M38.9501121,9.55749295 C38.8472349,9.60792294 38.7584782,9.68457654 38.6818246,9.78745373 C38.605171,9.89033092 38.5668442,10.0174145 38.5668442,10.1707217 C38.5668442,10.3845449 38.6677042,10.5681101 38.8674069,10.7214173 C39.0671097,10.8747245 39.4382745,10.9513781 39.9748497,10.9513781 C40.4791496,10.9513781 40.8523316,10.8686729 41.0964128,10.7012453 C41.340494,10.5338177 41.461526,10.3401665 41.461526,10.1182745 C41.461526,9.92260612 41.3929412,9.77938493 41.2557716,9.68861094 C41.118602,9.59783694 40.8886412,9.55345855 40.563872,9.55345855 L38.9501121,9.55345855 L38.9501121,9.55749295 Z M40.7434028,5.22858204 C40.7434028,4.93003646 40.664732,4.70209288 40.5073904,4.54273409 C40.3500488,4.3853925 40.1503461,4.30672171 39.9123165,4.30672171 C39.6642009,4.30672171 39.4644981,4.3853925 39.3111909,4.54273409 C39.1578837,4.70007568 39.0812301,4.93003646 39.0812301,5.22858204 C39.0812301,5.52712762 39.1599009,5.75507121 39.3172425,5.91443 C39.4745841,6.07177159 39.6742869,6.15044238 39.9123165,6.15044238 C40.1604321,6.15044238 40.3601348,6.07177159 40.513442,5.91443 C40.6667492,5.75708841 40.7434028,5.52712762 40.7434028,5.22858204 Z" id="Shape"></path>
                <polygon id="Path" points="44.0717826 9.28920537 44.0717826 0.133135191 45.9417269 0.133135191 45.9417269 9.28920537"></polygon>
                <path d="M52.9212384,6.17666598 C52.9212384,6.68096594 52.8385332,7.13281871 52.6711056,7.53424149 C52.503678,7.93566426 52.2757344,8.27657103 51.9852576,8.55897902 C51.6947809,8.841387 51.3538741,9.05722738 50.9605201,9.20650017 C50.5671661,9.35577296 50.1455714,9.43040936 49.6917014,9.43040936 C49.2378314,9.43040936 48.8182539,9.35980736 48.4309515,9.21860337 C48.0416319,9.07739938 47.7067767,8.87567939 47.426386,8.60940901 C47.143978,8.34515583 46.922086,8.01836945 46.76071,7.62904988 C46.599334,7.24174751 46.5166288,6.79796354 46.5166288,6.30374957 C46.5166288,5.783312 46.599334,5.31733884 46.7667616,4.90784726 C46.9341892,4.49835569 47.1621328,4.15139732 47.4526096,3.87100654 C47.7430863,3.58859855 48.0839931,3.37477537 48.4773471,3.22348538 C48.8707011,3.07421259 49.2922958,2.9995762 49.7441486,2.9995762 C50.1960014,2.9995762 50.6175961,3.06816099 51.0048985,3.20533058 C51.3922009,3.34250017 51.7290733,3.54422016 52.009464,3.81452494 C52.291872,4.08281252 52.513764,4.4136333 52.67514,4.80698727 C52.8405504,5.19832404 52.9212384,5.65622841 52.9212384,6.17666598 Z M50.9746405,6.24121637 C50.9746405,5.9083784 50.9403481,5.62395322 50.8717633,5.38995803 C50.8031785,5.15596285 50.7103873,4.96231166 50.5893553,4.81303887 C50.4703406,4.66376608 50.333171,4.55483729 50.1798638,4.48625249 C50.0265566,4.4176677 49.8671978,4.3833753 49.7058218,4.3833753 C49.5444458,4.3833753 49.3871042,4.4136333 49.2378314,4.47213209 C49.0885586,4.53264809 48.9554235,4.63350808 48.8404431,4.77874647 C48.7254627,4.92398486 48.6326715,5.11360165 48.5661039,5.34961403 C48.4975191,5.58360922 48.4632267,5.8801376 48.4632267,6.23919917 C48.4632267,6.86251393 48.5903103,7.3184011 48.8464947,7.60887788 C49.102679,7.89935466 49.3971902,8.04459305 49.7300282,8.04459305 C49.8914042,8.04459305 50.0487458,8.01231785 50.1980186,7.94776746 C50.3472914,7.88321706 50.4804266,7.78033987 50.5954069,7.64115308 C50.7103873,7.49994909 50.8031785,7.3143667 50.8697461,7.08440592 C50.9363137,6.85444513 50.9746405,6.57405435 50.9746405,6.24121637 Z" id="Shape"></path>
                <path d="M59.6707891,6.24121637 C59.6707891,6.73744754 59.5961527,7.18123151 59.4468799,7.57256828 C59.2976071,7.96592226 59.0918528,8.30077743 58.831634,8.57713381 C58.5714152,8.85550739 58.2627836,9.06529618 57.9097736,9.21053457 C57.5547465,9.35577296 57.1694613,9.42839216 56.7498837,9.42839216 C56.3484609,9.42839216 56.0075542,9.36585896 55.7251462,9.24280977 C55.4427382,9.11976058 55.2047086,8.94628139 55.0090402,8.7243894 L54.9586102,8.7243894 L54.8436299,9.28718817 L53.4739511,9.28718817 L53.4739511,0.131117991 L55.3559986,0.131117991 L55.3559986,3.56237496 C55.551667,3.40099897 55.783645,3.26584658 56.0478982,3.15893498 C56.3121514,3.05202339 56.6066625,2.9995762 56.9314317,2.9995762 C57.7847073,2.9995762 58.4544176,3.28400138 58.94258,3.85083454 C59.4267079,4.4196849 59.6707891,5.21647884 59.6707891,6.24121637 Z M57.7241913,6.29164637 C57.7241913,5.66833161 57.6051765,5.20235844 57.3651297,4.89574407 C57.1250829,4.58912969 56.7882105,4.4338053 56.3524953,4.4338053 C56.146741,4.4338053 55.9530898,4.48826969 55.7695246,4.59316409 C55.5859594,4.70007568 55.450807,4.80497007 55.3660846,4.90784726 L55.3660846,7.67342828 C55.4588758,7.78437427 55.5839422,7.87313106 55.7372494,7.94171586 C55.8905566,8.01030065 56.0539498,8.04459305 56.2233946,8.04459305 C56.4190629,8.04459305 56.6086797,8.01030065 56.7861933,7.94171586 C56.9637069,7.87313106 57.1250829,7.76621947 57.2662869,7.62098108 C57.4074909,7.47574269 57.5184369,7.2921775 57.5991249,7.07028552 C57.6838473,6.85041073 57.7241913,6.59019195 57.7241913,6.29164637 Z" id="Shape"></path>
                <path d="M60.3243619,3.67937255 C60.6733375,3.47361816 61.0687086,3.31022497 61.5084582,3.18717578 C61.9482078,3.06412659 62.3980433,3.00159339 62.8599821,3.00159339 C63.6204665,3.00159339 64.2296608,3.18515858 64.6915996,3.55228896 C65.1535383,3.91941933 65.3834991,4.50440729 65.3834991,5.30725284 L65.3834991,9.28920537 L63.9371668,9.28920537 L63.7697392,8.67395941 L63.7193092,8.67395941 C63.5478473,8.89585139 63.3118349,9.07739938 63.0092549,9.21860337 C62.7066749,9.35980736 62.3496305,9.43040936 61.940139,9.43040936 C61.5891462,9.43040936 61.284549,9.37997936 61.0243302,9.27710217 C60.7641114,9.17422497 60.5482711,9.03907258 60.3768091,8.86761059 C60.2053471,8.69614861 60.0762463,8.49442862 59.9854723,8.26043344 C59.8946983,8.02643825 59.8503199,7.77630547 59.8503199,7.51205229 C59.8503199,7.15299071 59.9289907,6.84637633 60.0863323,6.59019195 C60.2436739,6.33400757 60.4574971,6.12421878 60.7257847,5.96284279 C60.9940722,5.8014668 61.3107726,5.68043481 61.6738686,5.60378122 C62.0369646,5.52712762 62.4222497,5.48880082 62.8337585,5.48880082 L63.4732109,5.48880082 L63.4732109,5.15596285 C63.4732109,4.92600206 63.3925229,4.74848848 63.2291297,4.62543928 C63.0677537,4.50239009 62.8357757,4.4398569 62.5372301,4.4398569 C62.2810457,4.4398569 62.0288958,4.47818369 61.7807802,4.55483729 C61.5326646,4.63149088 61.2603426,4.75454008 60.961797,4.92600206 L60.3243619,3.67937255 Z M63.4873313,6.63860475 L63.0637193,6.65070795 C62.8256897,6.65877675 62.6239697,6.68500034 62.4625937,6.72736154 C62.3012177,6.76972274 62.1700998,6.82418713 62.071257,6.88672033 C61.9724142,6.94925353 61.9018122,7.02792432 61.859451,7.11668111 C61.8170898,7.20543791 61.7949006,7.2982291 61.7949006,7.39102029 C61.7949006,7.65527348 61.8735714,7.83682146 62.030913,7.93566426 C62.1882546,8.03450705 62.3698025,8.08291985 62.5755569,8.08291985 C62.7813113,8.08291985 62.9668937,8.02240385 63.1323041,7.90338906 C63.2977145,7.78437427 63.4167293,7.65123908 63.4853141,7.50600069 L63.4853141,6.63860475 L63.4873313,6.63860475 Z" id="Shape"></path>
                <polygon id="Path" points="66.2912391 9.28920537 66.2912391 0.133135191 68.1611833 0.133135191 68.1611833 9.28920537"></polygon>
            </g>
            <path d="M10,0 L10,20.609731 C15.6905208,20.609731 20.3058741,15.9963949 20.3058741,10.3038569 C20.3038569,4.61535328 15.6905208,0 10,0" id="Path" fill="#F26B6C"></path>
            <path d="M0,10.3058741 C0,15.9963949 4.61333608,20.609731 10.3038569,20.609731 L10.3038569,0 C4.61535328,0 0,4.61535328 0,10.3058741" id="Path" fill="#EF3835"></path>
        </g>
    </g>
</svg>