<svg width="471" height="189" viewBox="0 0 471 189" fill="none" xmlns="http://www.w3.org/2000/svg">
<path d="M377 1C352.07 1 328.16 10.9035 310.532 28.532C292.904 46.1604 283 70.0696 283 95C283 119.93 292.904 143.84 310.532 161.468C328.16 179.096 352.07 189 377 189L377 1Z" fill="url(#paint0_linear_3816_74510)"/>
<path d="M283 1C258.07 1 234.16 10.9035 216.532 28.532C198.904 46.1604 189 70.0696 189 95C189 119.93 198.904 143.84 216.532 161.468C234.16 179.096 258.07 189 283 189L283 1Z" fill="url(#paint1_linear_3816_74510)"/>
<path d="M471 1C446.07 1 422.16 10.9035 404.532 28.532C386.904 46.1604 377 70.0696 377 95C377 119.93 386.904 143.84 404.532 161.468C422.16 179.096 446.07 189 471 189L471 1Z" fill="url(#paint2_linear_3816_74510)"/>
<ellipse cx="94.5" cy="94.5" rx="94.5" ry="94.5" transform="rotate(90 94.5 94.5)" fill="url(#paint3_linear_3816_74510)"/>
<defs>
<linearGradient id="paint0_linear_3816_74510" x1="285.242" y1="13.3636" x2="448.262" y2="128.194" gradientUnits="userSpaceOnUse">
<stop stop-color="#D4DEFF"/>
<stop offset="1" stop-color="white" stop-opacity="0"/>
</linearGradient>
<linearGradient id="paint1_linear_3816_74510" x1="191.242" y1="13.3636" x2="354.262" y2="128.194" gradientUnits="userSpaceOnUse">
<stop stop-color="#D4DEFF"/>
<stop offset="1" stop-color="white" stop-opacity="0"/>
</linearGradient>
<linearGradient id="paint2_linear_3816_74510" x1="379.242" y1="13.3636" x2="542.262" y2="128.194" gradientUnits="userSpaceOnUse">
<stop stop-color="#D4DEFF"/>
<stop offset="1" stop-color="white" stop-opacity="0"/>
</linearGradient>
<linearGradient id="paint3_linear_3816_74510" x1="4.50849" y1="12.4293" x2="168.815" y2="243.904" gradientUnits="userSpaceOnUse">
<stop stop-color="#D4DEFF"/>
<stop offset="1" stop-color="white" stop-opacity="0"/>
</linearGradient>
</defs>
</svg>
