<?xml version="1.0" encoding="UTF-8"?>
<svg width="38px" height="38px" viewBox="0 0 38 38" version="1.1" xmlns="http://www.w3.org/2000/svg" xmlns:xlink="http://www.w3.org/1999/xlink">
    <!-- Generator: Sketch 51.2 (57519) - http://www.bohemiancoding.com/sketch -->
    <defs></defs>
    <g id="Group-1" stroke="none" stroke-width="1" fill="none" fill-rule="evenodd">
        <g id="Group-2" transform="translate(-482.000000, -314.000000)" fill="#2D3E51">
            <g id="Group-3" transform="translate(203.000000, 289.000000)">
                <g id="Group-4" transform="translate(279.000000, 25.000000)">
                    <path d="M9.77580677,2.95426004 L14.0728133,7.41780633 C15.2759752,8.44785547 15.2759752,10.5079538 14.0728133,11.5380029 L10.6352081,14.9715 C13.0415317,20.1217458 18.0260593,25.1003166 23.0105869,27.3320898 L26.4481922,23.8985926 C27.651354,22.6968686 29.5420369,22.6968686 30.7451987,23.8985926 L35.0422053,28.1904641 C36.2453671,29.3921881 36.2453671,31.2806115 35.0422053,32.4823355 L30.7451987,36.7742069 C23.1824672,44.3279006 -6.20905757,14.7998252 1.18179368,7.41780633 L5.47880023,2.95426004 C6.68196206,1.9242109 8.57264494,1.9242109 9.77580677,2.95426004 Z M21.4636646,2.26756061 C20.0886225,1.9242109 20.6042633,-0.307562245 22.1511856,0.0357874696 C29.8857974,2.09588576 35.9016066,8.27618062 37.9641697,16.0015492 C38.3079302,17.374948 36.0734868,17.8899726 35.7297263,16.5165738 C33.8390434,9.64957947 28.5107553,4.15598404 21.4636646,2.26756061 Z M20.0886225,7.58948119 C18.7135804,7.24613147 19.2292212,5.01435833 20.6042633,5.35770804 C26.4481922,6.90278176 31.0889592,11.5380029 32.6358816,17.374948 C32.9796421,18.7483469 30.917079,19.4350463 30.4014382,17.8899726 C29.0263961,12.9114018 25.0731501,8.96288005 20.0886225,7.58948119 Z" id="Shape"></path>
                </g>
            </g>
        </g>
    </g>
</svg>
