<?xml version="1.0" encoding="UTF-8"?>
<svg width="35px" height="48px" viewBox="0 0 35 48" version="1.1" xmlns="http://www.w3.org/2000/svg" xmlns:xlink="http://www.w3.org/1999/xlink">
    <!-- Generator: Sketch 51.2 (57519) - http://www.bohemiancoding.com/sketch -->
    <title>Group 15</title>
    <desc>Created with Sketch.</desc>
    <defs></defs>
    <g id="Department-of-the-Treasury-002" stroke="none" stroke-width="1" fill="none" fill-rule="evenodd">
        <g id="07-copy-4" transform="translate(-286.000000, -308.000000)" fill="#2D3E51" fill-rule="nonzero">
            <g id="Group-5" transform="translate(203.000000, 289.000000)">
                <g id="Group-15" transform="translate(83.000000, 19.000000)">
                    <path d="M3.13043478,0 C1.3961687,0 0,1.45963025 0,3.27272579 L0,44.7272742 C0,46.5403643 1.3961687,48 3.13043478,48 L20.8695652,48 C22.6038313,48 24,46.5403643 24,44.7272742 L24,3.27272579 C24,1.45963025 22.6038313,0 20.8695652,0 L3.13043478,0 Z M2.08695652,5.45454298 L21.9130435,5.45454298 L21.9130435,40.3636398 L2.08695652,40.3636398 L2.08695652,5.45454298 Z M12,42.545457 C12.8644435,42.545457 13.5652174,43.2781112 13.5652174,44.1818199 C13.5652174,45.0855831 12.8644435,45.8181828 12,45.8181828 C11.1355513,45.8181828 10.4347826,45.0855831 10.4347826,44.1818199 C10.4347826,43.2781112 11.1355513,42.545457 12,42.545457 Z" id="Shape"></path>
                    <path d="M24.6884807,25.5000028 L18.6943619,31.3185236 L19.3021899,25.5000028 L17.5428571,25.5000028 C16.4150733,25.5000028 15.5,24.6103477 15.5,23.5000036 L15.5,13.5000092 C15.5,12.3896643 16.4150743,11.5 17.5428571,11.5 L32.4571429,11.5 C33.5849257,11.5 34.5,12.3896643 34.5,13.5000092 L34.5,23.5000036 C34.5,24.6103477 33.5849267,25.5000028 32.4571429,25.5000028 L24.6884807,25.5000028 Z M19.8571429,17.7500071 C19.4200943,17.7500071 19.0714286,18.0889837 19.0714286,18.5000064 C19.0714286,18.9110143 19.4201047,19.2500057 19.8571429,19.2500057 C20.294181,19.2500057 20.6428571,18.9110143 20.6428571,18.5000064 C20.6428571,18.0889837 20.2941914,17.7500071 19.8571429,17.7500071 Z M25.0080357,17.7500071 C24.5709872,17.7500071 24.2223214,18.0889837 24.2223214,18.5000064 C24.2223214,18.9110143 24.5709976,19.2500057 25.0080357,19.2500057 C25.4450739,19.2500057 25.79375,18.9110143 25.79375,18.5000064 C25.79375,18.0889837 25.4450843,17.7500071 25.0080357,17.7500071 Z M30.1428571,17.7500071 C29.7058086,17.7500071 29.3571429,18.0889837 29.3571429,18.5000064 C29.3571429,18.9110143 29.705819,19.2500057 30.1428571,19.2500057 C30.5798953,19.2500057 30.9285714,18.9110143 30.9285714,18.5000064 C30.9285714,18.0889837 30.5799057,17.7500071 30.1428571,17.7500071 Z" id="Shape" stroke="#FFFFFF"></path>
                </g>
            </g>
        </g>
    </g>
</svg>
