<?xml version="1.0" encoding="UTF-8"?>
<svg width="58px" height="88px" viewBox="0 0 58 88" version="1.1" xmlns="http://www.w3.org/2000/svg" xmlns:xlink="http://www.w3.org/1999/xlink">
    <!-- Generator: Sketch 51.2 (57519) - http://www.bohemiancoding.com/sketch -->
    <defs></defs>
    <g id="Group-1" stroke="none" stroke-width="1" fill="none" fill-rule="evenodd">
        <g id="Group-2" transform="translate(0.000000, -1.000000)" fill="#2D3E51" fill-rule="nonzero">
            <g id="Group-3" transform="translate(0.000000, 0.637820)">
                <path d="M10,0.36218 C4.49463,0.36218 0,4.85681 0,10.36218 L0,78.36218 C0,83.86758 4.49463,88.36218 10,88.36218 L38,88.36218 C43.50537,88.36218 48,83.86758 48,78.36218 L48,53.36218 L52,53.36218 C55.269641,53.36218 58,50.70298 58,47.36218 L58,31.36218 C58,28.02149 55.26977,25.36218 52,25.36218 L48,25.36218 L48,10.36218 C48,4.85681 43.50537,0.36218 38,0.36218 L10,0.36218 Z M10,4.36218 L38,4.36218 C41.358559,4.36218 44,7.00362 44,10.36218 L44,13.36218 L4,13.36218 L4,10.36218 C4,7.00362 6.641441,4.36218 10,4.36218 Z M4,17.36218 L44,17.36218 L44,25.36218 L18,25.36218 C14.730188,25.36218 12,28.02155 12,31.36218 L12,47.36218 C12,50.70288 14.730317,53.36218 18,53.36218 L19,53.36218 L19,61.36218 C19.0065497,62.166081 19.4937603,62.887941 20.236852,63.1947219 C20.9799436,63.5015029 21.8344952,63.3335814 22.40625,62.76843 L31.8125,53.36218 L44,53.36218 L44,71.36218 L4,71.36218 L4,17.36218 Z M18,29.36218 L52,29.36218 C52.87403,29.36218 54,30.42567 54,31.36218 L54,47.36218 C54,48.29898 52.874159,49.36218 52,49.36218 L31,49.36218 C30.4756388,49.3580983 29.9706449,49.5600959 29.59375,49.92468 L23,56.51843 L23,51.36218 C22.9998896,50.2576562 22.1045238,49.3622904 21,49.36218 L18,49.36218 C17.125683,49.36218 16,48.29908 16,47.36218 L16,31.36218 C16,30.42561 17.125812,29.36218 18,29.36218 Z M24,36.36218 C22.3431,36.36218 21,37.70538 21,39.36218 C21,41.01908 22.3431,42.36218 24,42.36218 C25.6568,42.36218 27,41.01908 27,39.36218 C27,37.70538 25.6568,36.36218 24,36.36218 Z M35,36.36218 C33.3431,36.36218 32,37.70538 32,39.36218 C32,41.01908 33.3431,42.36218 35,42.36218 C36.656796,42.36218 38,41.01908 38,39.36218 C38,37.70538 36.656796,36.36218 35,36.36218 Z M46,36.36218 C44.3431,36.36218 43,37.70538 43,39.36218 C43,41.01908 44.3431,42.36218 46,42.36218 C47.6569,42.36218 49,41.01908 49,39.36218 C49,37.70538 47.6569,36.36218 46,36.36218 Z M4,75.36218 L44,75.36218 L44,78.36218 C44,81.72078 41.358559,84.36218 38,84.36218 L10,84.36218 C6.641441,84.36218 4,81.72078 4,78.36218 L4,75.36218 Z" id="Shape"></path>
            </g>
        </g>
    </g>
</svg>
