<svg width="17" height="18" viewBox="0 0 17 18" fill="none" xmlns="http://www.w3.org/2000/svg">
<path d="M14.7902 5.99917L5.13021 0.459172C4.6075 0.157331 4.01421 -0.000790498 3.41061 0.000867396C2.807 0.00252529 2.21459 0.163903 1.69354 0.468611C1.17249 0.773318 0.741368 1.2105 0.443959 1.73575C0.14655 2.261 -0.00654797 2.8556 0.000214711 3.45917V14.5792C0.000214711 15.4862 0.360535 16.3561 1.00191 16.9975C1.64328 17.6389 2.51317 17.9992 3.42021 17.9992C4.02065 17.9982 4.6103 17.8395 5.13021 17.5392L14.7902 11.9992C15.3093 11.6988 15.7402 11.2671 16.0398 10.7476C16.3394 10.2281 16.4971 9.63889 16.4971 9.03917C16.4971 8.43945 16.3394 7.85027 16.0398 7.33074C15.7402 6.8112 15.3093 6.37958 14.7902 6.07917V5.99917ZM13.7902 10.1892L4.13021 15.8092C3.9137 15.9319 3.66908 15.9964 3.42021 15.9964C3.17135 15.9964 2.92673 15.9319 2.71021 15.8092C2.49431 15.6845 2.31503 15.5052 2.1904 15.2893C2.06576 15.0734 2.00017 14.8285 2.00021 14.5792V3.41917C2.00017 3.16987 2.06576 2.92495 2.1904 2.70903C2.31503 2.49312 2.49431 2.31382 2.71021 2.18917C2.92762 2.06833 3.17151 2.00306 3.42021 1.99917C3.66875 2.00427 3.91235 2.06946 4.13021 2.18917L13.7902 7.76917C14.0062 7.89377 14.1856 8.07304 14.3103 8.28896C14.435 8.50488 14.5006 8.74983 14.5006 8.99917C14.5006 9.24852 14.435 9.49347 14.3103 9.70938C14.1856 9.9253 14.0062 10.1046 13.7902 10.2292V10.1892Z" fill="#FAFAFA"/>
</svg>
