<svg xmlns="http://www.w3.org/2000/svg" viewBox="0 0 1920 186.96"><defs><style>.cls-1{fill:#f5f5eb;}</style></defs><g id="Layer_2" data-name="Layer 2"><g id="Layer_1-2" data-name="Layer 1"><path class="cls-1" d="M96,141.42c48,0,48,45.54,96,45.54s48-45.54,96-45.54S336,187,384,187s48-45.54,96-45.54S528,187,576,187s48-45.54,96-45.54S720,187,768,187s48-45.54,96-45.54S912,187,960,187s48-45.54,96-45.54S1104,187,1152,187s48-45.54,96-45.54S1296,187,1344,187s48-45.54,96-45.54S1488,187,1536,187s48-45.54,96-45.54S1680,187,1728,187s48-45.54,96-45.54S1872,187,1920,187V0H0V187c48,0,48-45.54,96-45.54"/></g></g></svg>