<svg xmlns="http://www.w3.org/2000/svg" viewBox="0 0 911 35.77"><defs><style>.cls-1{fill:#f6c8df;}</style></defs><g id="Layer_2" data-name="Layer 2"><g id="GRAPHIC"><path class="cls-1" d="M759.17,0H0V35.76c12.61,0,12.61-12,25.23-12s12.6,12,25.22,12,12.61-12,25.22-12,12.62,12,25.22,12,12.62-12,25.23-12c12.77,0,12.61,12.28,25.71,12,12.62,0,12.62-12,25.23-12s12.6,12,25.23,12,12.61-12,25.21-12,12.62,12,25.23,12,12.61-12,25.22-12c12.78,0,12.62,12.28,25.72,12,12.61,0,12.61-12,25.22-12s12.61,12,25.23,12,12.61-12,25.21-12,12.63,12,25.23,12,12.61-12,25.23-12,12.61,12.28,25.71,12c12.61,0,12.61-12,25.23-12s12.6,12,25.22,12,12.61-12,25.22-12,12.62,12,25.22,12,12.62-12,25.23-12c12.77,0,12.61,12.28,25.71,12,12.62,0,12.62-12,25.23-12s12.6,12,25.23,12,12.61-12,25.21-12,12.62,12,25.23,12,12.61-12,25.22-12c12.78,0,12.62,12.28,25.72,12,12.61,0,12.61-12,25.22-12s12.61,12,25.23,12,12.61-12,25.21-12,12.63,12,25.23,12,12.61-12,25.23-12,12.61,12.28,25.71,12V0Z"/></g></g></svg>