<svg xmlns="http://www.w3.org/2000/svg" viewBox="0 0 1921.08 156.64"><defs><style>.cls-1{fill:#fbee71;}</style></defs><g id="Layer_2" data-name="Layer 2"><g id="TEXT"><path class="cls-1" d="M1921.08.74v155.9H0V0C40.21,0,40.21,38.16,80.42,38.16S120.63,0,160.85,0s40.21,38.16,80.42,38.16S281.48,0,321.69,0s40.22,38.16,80.43,38.16S442.34,0,482.55,0,522.77,38.16,563,38.16,603.2,0,643.41,0s40.22,38.16,80.44,38.16S764.06,0,804.28,0s40.21,38.16,80.42,38.16S924.91,0,965.13,0s40.21,38.16,80.42,38.16S1085.76,0,1126,0s40.22,38.16,80.43,38.16S1246.62,0,1286.83,0s40.22,38.16,80.43,38.16S1407.48,0,1447.69,0s40.22,38.16,80.44,38.16S1568.34,0,1608.56,0s40.21,38.16,80.42,38.16S1729.19,0,1769.4,0s40.22,38.16,80.43,38.16C1886.72,38.16,1889.77,6,1921.08.74Z"/></g></g></svg>