<?xml version="1.0" encoding="utf-8"?>
<!-- Generator: Adobe Illustrator 24.0.0, SVG Export Plug-In . SVG Version: 6.00 Build 0)  -->
<svg version="1.1" id="Layer_1" xmlns="http://www.w3.org/2000/svg" xmlns:xlink="http://www.w3.org/1999/xlink" x="0px" y="0px"
	 viewBox="0 0 911 35.8" style="enable-background:new 0 0 911 35.8;" xml:space="preserve">
<style type="text/css">
	.st0{fill:#9ED0AC;}
</style>
<g id="Layer_2_1_">
	<g id="GRAPHIC">
		<path class="st0" d="M151,35.8h759.2V0c-12.6,0-12.6,12-25.2,12c-12.6,0-12.6-12-25.2-12c-12.6,0-12.6,12-25.2,12
			C822,12,822,0,809.4,0c-12.6,0-12.6,12-25.2,12c-12.8,0-12.6-12.3-25.7-12c-12.6,0-12.6,12-25.2,12c-12.6,0-12.6-12-25.2-12
			c-12.6,0-12.6,12-25.2,12S670.3,0,657.7,0c-12.6,0-12.6,12-25.2,12c-12.8,0-12.6-12.3-25.7-12c-12.6,0-12.6,12-25.2,12
			C569,12,569,0,556.4,0c-12.6,0-12.6,12-25.2,12C518.6,12,518.6,0,506,0s-12.6,12-25.2,12S468.2-0.3,455.1,0
			c-12.6,0-12.6,12-25.2,12S417.3,0,404.7,0s-12.6,12-25.2,12S366.9,0,354.3,0s-12.6,12-25.2,12c-12.8,0-12.6-12.3-25.7-12
			c-12.6,0-12.6,12-25.2,12S265.6,0,253,0s-12.6,12-25.2,12S215.2,0,202.6,0S190,12,177.4,12c-12.8,0-12.6-12.3-25.7-12
			c-12.6,0-12.6,12-25.2,12S113.9,0,101.3,0S88.7,12,76.1,12S63.5,0,50.9,0S38.3,12,25.7,12S13.1-0.3,0,0v35.8H151z"/>
	</g>
</g>
</svg>
