<svg width="16" height="16" viewBox="0 0 16 16" fill="none" xmlns="http://www.w3.org/2000/svg">
<path fill-rule="evenodd" clip-rule="evenodd" d="M9.97854 9.50521H10.5052L13.8319 12.8385L12.8385 13.8319L9.50521 10.5052V9.97854L9.32521 9.79188C8.56521 10.4452 7.57854 10.8385 6.50521 10.8385C4.11188 10.8385 2.17188 8.89854 2.17188 6.50521C2.17188 4.11188 4.11188 2.17188 6.50521 2.17188C8.89854 2.17188 10.8385 4.11188 10.8385 6.50521C10.8385 7.57854 10.4452 8.56521 9.79188 9.32521L9.97854 9.50521ZM3.50391 6.50391C3.50391 8.16391 4.84391 9.50391 6.50391 9.50391C8.16391 9.50391 9.50391 8.16391 9.50391 6.50391C9.50391 4.84391 8.16391 3.50391 6.50391 3.50391C4.84391 3.50391 3.50391 4.84391 3.50391 6.50391Z" fill="#1F4637"/>
</svg>
