<svg width="36" height="38" viewBox="0 0 36 38" fill="none" xmlns="http://www.w3.org/2000/svg">
<path d="M35.5 18.8664C35.5 28.7009 27.6574 36.6596 18 36.6596C8.3426 36.6596 0.5 28.7009 0.5 18.8664C0.5 9.03187 8.3426 1.07324 18 1.07324C27.6574 1.07324 35.5 9.03187 35.5 18.8664Z" fill="#97E4B2" stroke="#323232"/>
<path fill-rule="evenodd" clip-rule="evenodd" d="M26.3917 13.1524C27.2028 13.9767 27.2028 15.3132 26.3917 16.1375L18.084 24.5805C17.2729 25.4047 15.9579 25.4047 15.1468 24.5805L9.60832 18.9518C8.79723 18.1275 8.79723 16.791 9.60832 15.9667C10.4194 15.1424 11.7344 15.1424 12.5455 15.9667L16.6154 20.1029L23.4545 13.1524C24.2656 12.3281 25.5806 12.3281 26.3917 13.1524Z" fill="white" stroke="#323232" stroke-linecap="round" stroke-linejoin="round"/>
</svg>
