<svg width="15" height="16" viewBox="0 0 15 16" fill="none" xmlns="http://www.w3.org/2000/svg">
<path fill-rule="evenodd" clip-rule="evenodd" d="M13.0301 10.1157C12.6889 10.8401 12.5183 11.2023 12.5639 11.4633C12.6094 11.7243 12.8407 11.9557 13.3035 12.4184L14.6524 13.7673C14.819 13.9339 14.8272 14.1957 14.6551 14.3678L14.0684 14.9545C13.9033 15.1196 13.6416 15.1256 13.4679 14.9519L12.119 13.6029C11.6562 13.1402 11.4249 12.9088 11.1638 12.8633C10.9028 12.8178 10.5406 12.9884 9.81625 13.3295C8.95102 13.737 7.98449 13.9648 6.96475 13.9648C3.26412 13.9648 0.26416 10.9648 0.26416 7.26419C0.26416 3.56355 3.26412 0.563599 6.96475 0.563599C10.6654 0.563599 13.6653 3.56355 13.6653 7.26419C13.6653 8.28393 13.4375 9.25046 13.0301 10.1157ZM6.96475 12.2896C9.74022 12.2896 11.9902 10.0397 11.9902 7.26419C11.9902 4.48871 9.74022 2.23875 6.96475 2.23875C4.18927 2.23875 1.93931 4.48871 1.93931 7.26419C1.93931 10.0397 4.18927 12.2896 6.96475 12.2896Z" fill="#AEAEAE"/>
</svg>
