<svg width="137" height="25" viewBox="0 0 137 25" fill="none" xmlns="http://www.w3.org/2000/svg">
<path fill-rule="evenodd" clip-rule="evenodd" d="M11.4255 17.9908L5.40352 11.9412C4.38025 10.9131 2.72121 10.9131 1.69762 11.9412C0.67436 12.9691 0.67436 14.6357 1.69762 15.664L9.57257 23.5751C10.5958 24.603 12.2552 24.603 13.2785 23.5751L20.6906 16.1287L16.985 12.4058L11.4255 17.9908Z" fill="#0B0B0B"/>
<path fill-rule="evenodd" clip-rule="evenodd" d="M34.1239 6.35717L22.5441 17.9901L10.9629 6.35586C9.93932 5.32757 8.28027 5.32757 7.25701 6.35586C6.23375 7.38382 6.23375 9.05047 7.25701 10.0788L20.6911 23.5745C21.7144 24.6025 23.3735 24.6025 24.397 23.5745L37.8299 10.0801C38.8531 9.05179 38.8531 7.38514 37.8299 6.35717C36.8062 5.32921 35.1471 5.32921 34.1239 6.35717Z" fill="#0B0B0B"/>
<path fill-rule="evenodd" clip-rule="evenodd" d="M43.3891 15.6648L35.5154 23.5745C34.4922 24.6026 32.8331 24.6026 31.8098 23.5745L12.8162 4.49379C11.7929 3.46583 11.7929 1.79918 12.8162 0.771217C13.8398 -0.257072 15.4988 -0.257072 16.5221 0.771217L33.6625 17.9902L39.6831 11.9419C40.7067 10.9139 42.3657 10.9139 43.3891 11.9419C44.4123 12.9702 44.4123 14.6369 43.3891 15.6648Z" fill="#0B0B0B"/>
<path fill-rule="evenodd" clip-rule="evenodd" d="M32.2704 0.77271C31.2471 -0.255251 29.5882 -0.255251 28.5645 0.77271L16.9847 12.4057L20.6906 16.1286L32.2704 4.49561C33.2937 3.46732 33.2937 1.80067 32.2704 0.77271Z" fill="#0B0B0B"/>
<path fill-rule="evenodd" clip-rule="evenodd" d="M57.7221 2.59029H54.4998V21.606H66.3066V18.7343H57.7221V2.59029ZM73.2807 8.30795C75.24 8.30795 76.5547 9.10997 77.2766 10.0931L77.4312 8.56666H80.2154V21.606H77.4312L77.2766 20.0796C76.5547 21.0627 75.24 21.8647 73.2807 21.8647C69.7489 21.8647 67.3515 18.993 67.3515 15.0863C67.3515 11.1538 69.7489 8.30795 73.2807 8.30795ZM73.951 11.0504C71.9402 11.0504 70.4965 12.6286 70.4965 15.0863C70.4965 17.5442 71.9402 19.1224 73.951 19.1224C75.4977 19.1224 76.4258 18.2944 77.1219 17.1819V12.9907C76.4258 11.8783 75.4977 11.0504 73.951 11.0504ZM88.0144 4.19433H84.9209V8.56666H82.4718V11.2056H84.9209V17.0009C84.9209 20.1572 86.8028 21.8647 89.7674 21.8647C91.0563 21.8647 92.0102 21.5026 92.6547 21.0886L91.8297 18.6567C91.443 18.8895 90.8759 19.0706 90.051 19.0706C88.8393 19.0706 88.0144 18.2944 88.0144 16.9749V11.2056H91.9328V8.56666H88.0144V4.19433ZM98.6749 4.19433H95.5814V8.56666H93.1323V11.2056H95.5814V17.0009C95.5814 20.1572 97.4633 21.8647 100.428 21.8647C101.717 21.8647 102.671 21.5026 103.315 21.0886L102.49 18.6567C102.104 18.8895 101.536 19.0706 100.711 19.0706C99.4998 19.0706 98.6749 18.2944 98.6749 16.9749V11.2056H102.593V8.56666H98.6749V4.19433ZM108.485 8.56666H105.391V21.606H108.485V8.56666ZM106.938 2.4868C105.855 2.4868 105.03 3.28882 105.03 4.40131C105.03 5.5138 105.855 6.31582 106.938 6.31582C108.047 6.31582 108.871 5.5138 108.871 4.40131C108.871 3.28882 108.047 2.4868 106.938 2.4868ZM117.831 8.30795C113.835 8.30795 111.18 11.1538 111.18 15.0863C111.18 18.993 113.861 21.8647 117.856 21.8647C120.202 21.8647 121.98 20.804 123.141 18.993L120.924 17.2596C120.305 18.2944 119.3 19.1482 117.882 19.1482C115.588 19.1482 114.324 17.3631 114.324 15.0863C114.324 12.7837 115.536 11.0245 117.856 11.0245C119.3 11.0245 120.254 11.8523 120.846 12.8873L123.089 11.1798C121.929 9.36869 120.202 8.30795 117.831 8.30795ZM130.708 8.30795C134.704 8.30795 136.663 11.3091 136.663 14.957V16.0436H127.485C127.563 18.1133 128.8 19.2517 130.966 19.2517C132.486 19.2517 133.595 18.579 134.188 17.7512L136.328 19.5104C135.038 21.0627 133.338 21.8647 130.94 21.8647C126.919 21.8647 124.341 19.0188 124.341 15.1122C124.341 11.1798 126.97 8.30795 130.708 8.30795ZM130.657 10.7916C128.827 10.7916 127.588 12.0076 127.485 13.8186H133.622C133.544 12.0335 132.513 10.7916 130.657 10.7916Z" fill="#0B0B0B"/>
</svg>
