<svg width="35" height="31" viewBox="0 0 35 31" fill="none" xmlns="http://www.w3.org/2000/svg">
<path d="M26.4 4H9.6C8.64522 4 7.72955 4.37928 7.05442 5.05442C6.37928 5.72955 6 6.64522 6 7.6V19.6C6 20.5548 6.37928 21.4705 7.05442 22.1456C7.72955 22.8207 8.64522 23.2 9.6 23.2H13.2V25.6H9.6C9.28174 25.6 8.97652 25.7264 8.75147 25.9515C8.52643 26.1765 8.4 26.4817 8.4 26.8C8.4 27.1183 8.52643 27.4235 8.75147 27.6485C8.97652 27.8736 9.28174 28 9.6 28H26.4C26.7183 28 27.0235 27.8736 27.2485 27.6485C27.4736 27.4235 27.6 27.1183 27.6 26.8C27.6 26.4817 27.4736 26.1765 27.2485 25.9515C27.0235 25.7264 26.7183 25.6 26.4 25.6H22.8V23.2H26.4C27.3548 23.2 28.2705 22.8207 28.9456 22.1456C29.6207 21.4705 30 20.5548 30 19.6V7.6C30 6.64522 29.6207 5.72955 28.9456 5.05442C28.2705 4.37928 27.3548 4 26.4 4ZM20.4 25.6H15.6V23.2H20.4V25.6ZM27.6 19.6C27.6 19.9183 27.4736 20.2235 27.2485 20.4485C27.0235 20.6736 26.7183 20.8 26.4 20.8H9.6C9.28174 20.8 8.97652 20.6736 8.75147 20.4485C8.52643 20.2235 8.4 19.9183 8.4 19.6V18.4H27.6V19.6ZM27.6 16H8.4V7.6C8.4 7.28174 8.52643 6.97652 8.75147 6.75147C8.97652 6.52643 9.28174 6.4 9.6 6.4H26.4C26.7183 6.4 27.0235 6.52643 27.2485 6.75147C27.4736 6.97652 27.6 7.28174 27.6 7.6V16Z" fill="#F87F5B"/>
</svg>
