<svg width="185" height="23" viewBox="0 0 185 23" fill="none" xmlns="http://www.w3.org/2000/svg">
<path fill-rule="evenodd" clip-rule="evenodd" d="M60.4179 18.4343L56.2555 9.81159L52.1794 18.3872L46.457 4.98289H49.2555L52.391 12.8217L56.3104 4.41066L60.2298 12.7903L63.2399 4.95153H66.007L60.4179 18.4343ZM77.6084 17.8542H74.8022L73.6342 15.5026H67.5748L66.4146 17.8542H63.624L70.6162 4.40282L77.6084 17.8542ZM72.6308 13.4566L70.6006 9.38046L68.6017 13.4566H72.6308ZM89.2569 12.9863H85.8627V10.8698H91.8751C91.8751 16.357 88.5828 18.1599 85.4237 18.1599C81.3084 18.1599 77.9534 15.236 77.9534 11.5048C77.9534 7.58537 81.0889 4.69285 85.1807 4.69285C87.0505 4.62372 88.8841 5.22101 90.3543 6.3782L89.1158 8.1968C88.0184 7.28519 86.6218 6.81314 85.1964 6.87204C84.5855 6.84295 83.9752 6.94185 83.4047 7.16241C82.8342 7.38297 82.3161 7.7203 81.8836 8.1528C81.4511 8.58529 81.1138 9.10339 80.8932 9.67387C80.6727 10.2444 80.5738 10.8546 80.6029 11.4656C80.6087 12.0761 80.7394 12.679 80.987 13.2372C81.2343 13.7964 81.5915 14.3002 82.0374 14.7187C82.4931 15.1379 83.0254 15.4653 83.6051 15.6829C84.1854 15.9025 84.8037 16.0038 85.4237 15.9807C87.4853 15.9807 89.108 14.656 89.2569 12.9863ZM102.889 17.8542H94.3913V4.98289H102.348V7.16208H96.9076V9.94485H101.282V12.1319H96.9076V15.6437H102.889V17.8542ZM105.099 16.3256L106.408 14.5854C107.353 15.4491 108.577 15.9443 109.857 15.9807C111.213 15.9807 111.942 15.3693 111.942 14.413C111.942 11.6851 106.008 12.1162 106.008 8.14193C106.008 5.84516 108.125 4.61446 110.375 4.61446C111.785 4.63041 113.141 5.16312 114.184 6.11168L112.969 7.92244C112.291 7.24281 111.388 6.83558 110.43 6.77797C109.528 6.77797 108.658 7.15424 108.658 8.02434C108.658 10.2819 114.647 9.78024 114.647 14.2954C114.647 16.2943 112.828 18.058 109.701 18.058C107.997 18.0062 106.368 17.3537 105.099 16.2159V16.3256ZM122.854 17.8934H120.346V7.16208H116.426V4.98289H126.828V7.16208H122.909L122.854 17.8934ZM140.617 17.8934H137.183L132.167 13.0961H131.9V17.8934H129.345V4.98289H132.104C134.683 4.98289 138.124 5.47673 138.124 8.94932C138.124 11.3872 136.658 12.4219 134.91 12.8687L140.617 17.8934ZM131.9 10.8385H132.747C134.644 10.8385 135.522 10.2114 135.522 8.93365C135.522 7.85973 134.738 7.1464 132.817 7.1464H131.9V10.8385ZM151.293 17.8542H142.772V4.98289H150.721V7.16208H145.312V9.94485H149.725V12.1319H145.344V15.6437H151.293V17.8542ZM167.245 17.8542H164.439L163.271 15.5026H157.196L156.028 17.8542H153.253L160.253 4.40282L167.245 17.8542ZM162.205 13.4096L160.182 9.32559L158.184 13.4096H162.205ZM185 17.9248H182.311L181.629 11.3872L177.052 18.4421L172.497 11.4577L171.847 17.9326H169.142L170.961 4.72421L177.091 14.0445L183.181 4.72421L185 17.9248Z" fill="#0B0B0B"/>
<path fill-rule="evenodd" clip-rule="evenodd" d="M11.3783 11.2224L16.3246 0.585134C16.3741 0.42123 16.476 0.278064 16.6146 0.177516C16.7507 0.070765 16.9199 0.015268 17.0928 0.0207402H17.5161C17.7017 0.00999918 17.885 0.0655643 18.0334 0.177516C18.1766 0.271628 18.2821 0.41317 18.3313 0.577295L23.3481 11.2459C22.3061 12.1514 21.0654 12.7986 19.7266 13.1351C19.7266 13.1351 18.9427 11.5673 17.4142 8.47881C17.4142 8.4161 17.3593 8.39259 17.3279 8.39259C17.2966 8.39259 17.2731 8.39258 17.2417 8.47881C15.7471 11.6143 15.0024 13.1664 15.0077 13.1351C13.6804 12.7869 12.4499 12.1408 11.4096 11.2459L11.3783 11.2224ZM2.7556 7.13054L0.0512106 0.804621C0.00783218 0.714519 -0.00850437 0.613777 0.00417773 0.514585C0.0161488 0.416071 0.0570682 0.32332 0.12176 0.248066C0.183712 0.169121 0.264602 0.107105 0.356924 0.067773C0.447287 0.025233 0.547784 0.00893615 0.64696 0.0207402H4.36255C4.48839 0.0348405 4.60782 0.0836975 4.70746 0.161839C4.81551 0.240416 4.89745 0.349661 4.94263 0.475391L8.31331 8.88643C6.62735 7.83803 4.69983 7.24141 2.7164 7.15405L2.7556 7.13054ZM32.01 7.13054C30.0261 7.22166 28.0989 7.82088 26.4131 8.87075L29.7289 0.459713C29.7746 0.336382 29.8566 0.229793 29.9641 0.154C30.069 0.0703716 30.1984 0.0235468 30.3325 0.0207402H34.0403C34.135 -0.0069134 34.2356 -0.0069134 34.3303 0.0207402C34.4234 0.0548732 34.5049 0.114663 34.5655 0.193194C34.6267 0.270586 34.6672 0.362318 34.6831 0.459713C34.6943 0.558147 34.6808 0.657834 34.6439 0.749749L32.01 7.13054ZM9.02664 22.1732L4.14307 10.5561C5.77354 10.9716 6.98855 11.7162 9.23045 13.574C10.5151 14.7077 12.0281 15.5525 13.6672 16.0511L10.7982 22.1967C10.6022 22.5103 10.3906 22.7533 10.0692 22.7533H9.80268C9.63034 22.7493 9.46324 22.6932 9.32334 22.5925C9.18344 22.4917 9.07728 22.3511 9.0188 22.1889L9.02664 22.1732ZM25.6606 22.1732C25.609 22.3382 25.5042 22.4815 25.3627 22.5808C25.2236 22.6838 25.0574 22.7437 24.8845 22.7533H24.618C24.2966 22.7533 24.0693 22.5103 23.889 22.1967L21.02 16.0511C22.6592 15.5525 24.1722 14.7077 25.4568 13.574C27.6908 11.7241 28.9137 10.9951 30.5755 10.5639C30.5755 10.5639 28.9372 14.4337 25.6606 22.1732Z" fill="#0B0B0B"/>
</svg>
