<svg width="501" height="584" viewBox="0 0 501 584" fill="none" xmlns="http://www.w3.org/2000/svg">
<path d="M788.885 -13.9883V350.421C788.885 355.168 786.487 357.317 781.68 356.452C771.74 354.663 762.407 351.031 753.363 346.634C736.468 338.425 721.923 326.892 707.998 314.502C686.909 295.745 667.898 274.957 648.71 254.326C635.006 239.594 621.154 224.977 604.608 213.321C599.087 209.433 593.052 206.241 587.101 203.01C585.068 201.905 582.609 201.4 580.281 201.054C572.313 199.882 566.865 204.523 566.589 212.558C566.385 218.283 567.784 223.951 570.629 228.926C576.826 239.82 583.308 250.562 589.946 261.195C605.707 286.443 621.239 311.846 637.571 336.727C666.316 380.527 695.364 424.13 724.714 467.537C733.617 480.77 743.52 493.362 755.247 504.268C762.117 510.659 769.68 516.329 777.105 522.101C780.393 524.655 784.172 526.499 788.888 526.414V529.756C788.888 579.935 788.803 630.117 789 680.298C789.023 686.282 787.592 691.503 784.463 696.338C782.146 699.983 779.576 703.46 776.77 706.745C760.753 725.186 748.118 745.819 736.723 767.299C730.846 778.378 724.735 789.343 718.532 800.249C717.089 802.785 715.029 805.054 712.934 807.126C708.982 811.037 705.033 810.82 702.209 805.998C699.148 800.826 696.579 795.381 694.534 789.733C685.901 765.505 679.628 740.586 673.454 715.658C660.041 661.503 647.94 607.056 638.364 552.09C633.766 525.704 630.137 499.152 625.714 472.737C620.813 443.482 615.557 414.285 610.341 385.08C606.815 365.253 599.175 347.235 585.703 331.993C582.904 328.812 579.783 325.927 576.391 323.385C570.711 319.161 565.713 319.131 560.348 323.699C556.433 327.067 552.937 330.891 549.934 335.089C542.159 345.889 536.585 357.912 531.76 370.269C516.816 408.522 507.245 448.161 501.301 488.709C496.035 524.643 495.368 560.829 495.891 597.035C496.535 641.272 497.884 685.499 498.633 729.733C499.059 754.983 498.903 780.243 499.009 805.499C499.009 806.851 499.009 808.202 499.009 809.947H496.053C471.762 809.947 447.461 809.957 423.149 809.979C421.415 809.979 420.578 809.595 419.896 807.783C408.078 776.429 393.801 746.341 373.905 719.141C358.878 698.598 341.048 680.735 321.461 664.611C309.807 655.016 297.757 645.898 285.801 636.675C283.879 635.191 281.552 634.209 279.336 633.157C278.666 632.84 277.741 633.066 276.933 633.042C276.933 633.922 276.592 634.957 276.95 635.64C278.605 638.78 280.147 642.049 282.278 644.86C291.845 657.507 301.517 670.076 311.294 682.565C333.179 710.674 350.895 741.067 361.781 775.107C365.046 785.315 367.435 795.804 370.123 806.183C371.005 809.651 370.667 809.944 367.082 809.944C358.422 809.944 349.77 809.944 341.127 809.944C333.549 776.103 317.538 746.484 296.858 719.164C284.058 702.254 269.61 686.766 255.098 671.325C240.994 656.311 226.889 641.283 213.223 625.863C194.385 604.582 180.02 580.46 168.91 554.329C161.928 537.93 154.653 521.632 144.815 506.654C142.546 503.195 139.82 500.029 137.31 496.722C136.611 495.801 135.92 494.869 135.227 493.942L134.39 494.678C134.757 495.376 135.083 496.097 135.494 496.766C146.916 515.235 155.508 535.068 162.859 555.4C175.062 589.135 193.956 618.665 217.872 645.215C232.628 661.6 247.399 677.98 261.947 694.558C281.893 717.308 299.558 741.618 311.864 769.457C317.092 781.254 321.055 793.569 323.685 806.197C323.917 807.308 323.838 808.487 323.911 809.794H263.196C260.052 790.964 252.797 773.802 243.638 757.364C232.599 737.557 218.877 719.659 203.75 702.852C190.988 688.666 177.81 674.851 164.763 660.929C163.447 659.522 161.825 658.372 160.235 657.252C159.692 656.868 158.54 656.581 158.179 656.874C157.653 657.299 157.232 658.387 157.397 659.035C158.12 661.896 158.702 664.898 159.997 667.499C165.639 678.888 171.504 690.164 177.301 701.474C185.544 717.549 194.785 733.154 200.785 750.29C206.183 765.716 210.587 781.416 212.045 797.783C212.339 801.111 211.977 804.526 211.71 807.865C211.604 809.187 210.752 810.023 209.095 810C202.898 809.906 196.698 809.961 190.609 809.961C194.882 797.598 193.098 785.042 191.938 772.617C189.754 749.305 180.507 728.39 169.068 708.279C160.147 692.597 151.035 677.012 142.599 661.078C131.833 640.732 124.866 618.918 119.025 596.722C115.137 581.958 110.841 567.326 104.254 553.453C95.5678 535.174 82.7535 520.706 65.2585 510.407C57.2132 505.672 49.1768 500.932 41.1873 496.106C40.0825 495.441 39.2715 494.285 38.3254 493.356L38.7456 492.477C40.1384 492.477 41.5517 492.33 42.9269 492.5C56.7695 494.192 70.4183 496.73 83.3471 502.21C99.7168 509.149 111.497 521.119 119.466 536.616C126.421 550.14 132.753 564.016 138.721 578.009C149.91 604.262 164.799 628.164 183.616 649.568C197.332 665.171 211.633 680.257 225.488 695.74C236.457 707.997 247.141 720.513 257.957 732.908C259.817 735.036 261.712 737.135 263.59 739.246L264.304 738.777C263.945 737.81 263.751 736.725 263.205 735.892C257.604 727.211 252.556 718.088 246.18 710.011C232.843 693.113 218.806 676.763 205.043 660.205C186.693 638.132 168.995 615.608 157.509 589.006C151.588 575.288 146.219 561.333 140.39 547.575C135.027 534.916 128.604 522.811 120.097 511.92C109.56 498.434 96.0203 488.912 80.0767 482.99C67.5681 478.346 54.7744 474.488 42.1365 470.169C30.7797 466.297 19.8048 461.541 10.4814 453.834C7.35145 451.24 4.56506 448.259 2.1893 444.963C-1.33675 440.09 -0.569834 435.986 4.24616 432.4C7.35789 430.084 10.7664 428.12 14.1837 426.244C30.1038 417.563 45.8212 408.454 62.1027 400.492C79.2128 392.122 96.8754 384.877 114.3 377.147C132.28 369.169 149.925 360.583 166.127 349.296C177.833 341.148 188.779 332.078 199.195 322.362C223.366 299.82 245.16 275.036 267.18 250.465C290.321 224.643 313.469 198.828 336.626 173.022C355.59 151.884 374.698 130.876 393.501 109.594C412.894 87.6536 431.309 64.9417 446.956 40.1367C457.734 23.0508 467.325 5.33453 474.559 -13.5749C474.636 -13.7263 474.73 -13.8688 474.838 -14H496.25C490.961 -2.75695 486.215 8.79686 480.218 19.6559C470.648 36.9734 460.728 54.1414 450.026 70.7787C440.917 84.9271 430.865 98.5096 420.596 111.858C401.969 136.062 381.116 158.363 359.804 180.207C334.305 206.344 308.643 232.322 282.818 258.14C267.026 273.991 251.065 289.677 234.938 305.197C223.805 315.851 212.377 326.195 200.653 336.229C180.563 353.362 157.985 366.698 134.246 378.152C119.833 385.106 105.32 391.864 91.0515 399.09C84.9293 402.187 79.0968 405.824 73.624 409.958C68.2644 414.024 68.0852 421.805 72.7425 425.813C74.767 427.572 77.1178 429.278 79.6183 430.049C88.6068 432.82 97.6276 435.619 106.813 437.604C124.737 441.459 142.294 446.258 158.637 454.784C159.241 455.094 159.867 455.361 160.509 455.584C162.375 456.25 163.447 455.484 163.262 453.602C163.073 451.327 162.632 449.079 161.949 446.9C160.547 442.729 158.846 438.656 157.279 434.537C153.865 425.555 155.311 417.396 161.505 410.072C162.818 408.519 164.076 406.848 165.648 405.596C174.26 398.724 182.69 391.585 191.688 385.244C209.867 372.427 228.071 359.639 244.913 345.1C267.964 325.202 290.851 305.114 313.574 284.836C332.051 268.34 349.94 251.183 366.541 232.796C378.358 219.715 389.817 206.314 400.92 192.594C410.423 180.808 419.406 168.571 428.074 156.156C436.539 144.03 444.464 131.529 452.362 119.014C464.668 99.5211 476.768 79.8992 488.925 60.3097C497.208 46.9617 505.418 33.5667 513.692 20.2099C520.477 9.26299 527.065 -1.77777 531.431 -13.9824H546.217C545.72 -11.5872 545.335 -9.15977 544.707 -6.80269C542.356 1.91617 537.813 9.52978 532.556 16.7681C522.428 30.7142 511.97 44.4345 502.253 58.662C493.121 72.0335 484.661 85.874 476.101 99.6237C464.254 118.65 452.812 137.932 440.768 156.833C431.291 171.705 421.407 186.331 411.255 200.752C402.83 212.72 393.962 224.397 384.912 235.901C366.268 259.6 345.564 281.477 324.144 302.667C303.995 322.602 283.45 342.122 263.363 362.11C251.766 373.652 240.353 385.429 229.546 397.701C218.086 410.717 212.145 426.253 211.66 443.714C211.366 454.614 212.491 465.388 214.545 476.068C215.703 482.092 217.114 488.067 218.409 494.063C218.915 493.769 218.997 493.532 218.979 493.312C218.897 491.791 218.812 490.266 218.686 488.747C217.789 476.892 218.547 465.2 222.185 453.802C226.648 439.817 235.035 428.296 245.104 417.885C257.108 405.458 270.704 394.848 284.082 383.995C307.354 365.124 330.687 346.335 352.722 325.997C380.619 300.248 404.082 270.761 426.29 240.157C442.968 217.179 459.259 193.883 478.455 172.84C484.814 165.871 491.546 159.287 499.482 154.077C509.525 147.481 520.248 145.039 531.969 148.982C532.535 149.121 533.112 149.213 533.694 149.257C533.062 146.167 532.242 143.315 531.931 140.412C531.002 131.91 533.035 123.892 536.558 116.235C543.143 101.916 553.413 91.9925 569.486 89.0579C572.909 88.4334 576.306 87.6418 579.682 86.8063C588.362 84.6603 593.763 79.0959 596.531 70.723C598.808 63.7761 599.817 56.4777 599.51 49.1751C599.075 37.8587 598.352 26.5248 597.045 15.2818C595.905 5.46938 593.789 -4.2316 592.103 -13.9824H611.981C613.294 -5.87334 614.578 2.23865 615.924 10.3507C619.529 32.0804 623.173 53.8101 623.564 75.9092C623.752 86.5249 623.331 97.0995 620.19 107.375C617.751 115.352 613.171 121.591 605.707 125.596C604.07 126.489 602.498 127.498 601.006 128.615C598.147 130.729 596.971 133.661 597.647 137.117C598.1 139.424 598.699 141.808 599.763 143.86C601.81 147.951 604.111 151.911 606.653 155.716C616.206 169.694 627.627 182.145 639.014 194.616C654.399 211.474 669.549 228.56 686.504 243.907C695.136 251.723 704.134 259.081 714.486 264.596C719.161 267.088 724.035 269.046 729.41 269.407C737.067 269.92 742.926 266.639 745.914 259.594C747.426 256.007 748.506 252.252 749.129 248.41C750.857 237.797 750.266 227.105 749.423 216.455C747.548 193.142 745.597 169.835 743.57 146.534C742.488 134.13 741.724 121.661 739.826 109.374C734.91 77.5128 724.203 47.7298 704.86 21.623C695.751 9.3099 685.466 -2.13836 675.72 -13.9795L788.885 -13.9883ZM245.669 488.97C245.669 489.557 245.648 490.158 245.669 490.75C246.932 520.571 268.685 551.758 296.344 563.21C314.573 570.76 331.345 568.263 346.657 555.719C354.426 549.346 360.544 541.556 366.051 533.262C378.471 514.543 388.488 494.505 397.662 474.083C415.292 434.875 432.546 395.514 449.897 356.185C465.988 319.709 482.971 283.672 502.929 249.108C510.433 236.109 518.17 223.247 525.628 210.225C529.048 204.25 531.866 197.967 532.574 190.978C534.043 176.293 522.863 167.671 509.337 173.476C504.501 175.555 499.893 178.583 495.821 181.952C481.388 193.904 469.963 208.63 459.115 223.708C442.863 246.282 427.104 269.208 411.137 291.987C397.544 311.377 383.193 330.169 367.144 347.633C348.253 368.19 327.023 386.167 305.42 403.755C291.93 414.74 278.326 425.61 266.816 438.78C254.228 453.204 245.821 469.36 245.669 488.97Z" fill="#FFF89A" fill-opacity="0.5"/>
</svg>
