<svg width="88" height="24" viewBox="0 0 88 24" fill="none" xmlns="http://www.w3.org/2000/svg">
<path d="M12.5293 18.7141C11.6853 17.0774 10.6954 15.4242 8.76423 15.4242C8.39507 15.4242 8.02636 15.4845 7.688 15.6367L7.03197 14.3429C7.83144 13.667 9.12326 13.1312 10.7838 13.1312C13.367 13.1312 14.6927 14.3573 15.7452 15.9224C16.37 14.5862 16.667 12.7817 16.667 10.545C16.667 4.95946 14.8942 2.09148 10.7534 2.09148C6.67294 2.09148 4.90989 4.95946 4.90989 10.545C4.90989 16.101 6.67294 18.9395 10.7534 18.9395C11.402 18.9395 11.9894 18.8693 12.5293 18.7141ZM13.5408 20.6633C12.6463 20.8996 11.6959 21.0301 10.7534 21.0301C5.31996 21.0301 0 16.7579 0 10.545C0 4.27314 5.31996 0 10.7534 0C16.278 0 21.5469 4.24236 21.5469 10.545C21.5469 14.0507 19.8868 16.8996 17.4739 18.7409C18.2536 19.892 19.0561 20.6564 20.1737 20.6564C21.3934 20.6564 21.8853 19.7277 21.9676 18.9993H23.5559C23.6488 19.9692 23.1564 24 18.7173 24C16.0285 24 14.6069 22.4643 13.5408 20.6633ZM25.04 15.3336V8.15131C25.04 7.33319 24.7333 6.96987 23.7799 6.96987H22.7648V5.06135H29.3968V15.243C29.3968 16.9595 30.3397 17.7165 31.7754 17.7165C32.9537 17.7165 34.1325 17.2027 34.7683 16.0299V8.15131C34.7683 7.33319 34.4607 6.96987 33.5077 6.96987H32.4315V5.06135H39.1255V15.7264C39.1255 16.7886 39.525 17.2729 40.7548 17.2729H40.9704V19.2426L34.9839 20.1817V18.1517H34.8607C33.7026 19.5448 32.0729 20.4847 29.7458 20.4847C27.1318 20.4847 25.04 19.1823 25.04 15.3336ZM49.6796 18.5762C52.0376 18.5762 52.9334 16.555 52.9805 12.4852C53.0262 8.50423 52.0376 6.57706 49.6796 6.57706C47.6196 6.57706 46.3278 8.50509 46.3278 12.4852C46.3278 16.5558 47.5985 18.5762 49.6796 18.5762ZM49.6796 20.4847C45.4157 20.4847 41.5706 17.2721 41.5706 12.4852C41.5706 7.78799 45.3228 4.66681 49.6796 4.66681C54.2208 4.66681 57.86 7.84782 57.86 12.4852C57.86 17.2721 54.2208 20.4847 49.6796 20.4847ZM57.9955 20.1817V18.2727H58.6414C60.2408 18.2727 60.3944 17.8183 60.3944 16.4548V8.15131C60.3944 7.33319 59.9641 6.96987 58.9802 6.96987H58.1192V5.06135H64.1972L64.5048 8.18253H64.6284C65.3051 5.9393 67.1192 4.75742 68.8202 4.75742C70.2247 4.75742 71.3212 5.54563 71.3212 7.14199C71.3212 8.25276 70.7791 9.43507 69.2616 9.43507C67.8976 9.43507 67.6318 8.52547 66.5037 8.52547C65.4996 8.52547 64.7199 9.46542 64.7199 10.8485V16.4548C64.7199 17.8183 65.0587 18.2727 66.6273 18.2727H67.5187V20.1817H57.9955ZM78.2308 17.9597C80.1686 17.9597 80.9676 16.1517 80.9676 14.3347V11.9094C79.5534 13.3531 76.2623 13.4039 76.2623 15.9796C76.2623 17.2421 77.0217 17.9597 78.2308 17.9597ZM81.0604 17.9493C80.2605 19.4641 78.6198 20.4847 76.3243 20.4847C73.6593 20.4847 71.9372 19.09 71.9372 16.636C71.9372 11.6978 78.9177 13.0102 80.9676 9.73813V9.38391C80.9676 6.86928 79.9631 6.47561 78.8561 6.47561C75.7501 6.47561 77.1643 9.76675 74.3043 9.76675C72.9311 9.76675 72.3978 8.94992 72.3978 8.03078C72.3978 6.17212 74.6532 4.66681 78.8873 4.66681C82.8943 4.66681 85.3552 5.75807 85.3552 9.6874V15.9597C85.3552 16.9291 85.7142 17.455 86.5753 17.455C86.944 17.455 87.2516 17.354 87.487 17.1923L88 18.4236C87.5794 19.0605 86.4618 20.1817 84.3397 20.1817C82.4952 20.1817 81.3367 19.3332 81.1827 17.9493H81.0604Z" fill="#0B0B0B"/>
</svg>
