<svg width="49" height="25" viewBox="0 0 49 25" fill="none" xmlns="http://www.w3.org/2000/svg">
<path d="M27.1956 5.07845C24.3813 5.07845 22.526 6.88617 21.8742 10.1418C21.8722 10.1643 21.8613 10.1851 21.844 10.1996C21.8266 10.214 21.8042 10.221 21.7817 10.219C21.7592 10.217 21.7384 10.2061 21.7239 10.1888C21.7095 10.1714 21.7025 10.149 21.7045 10.1265V5.37379H17.9176V13.2972C17.7954 15.5582 16.7719 17.1011 14.5415 17.1011C12.0548 17.1011 11.2061 15.6549 11.2061 13.3023V5.36361H7.43787V14.4379C7.43787 17.8497 9.22013 20.1259 12.6064 20.1259C15.3817 20.1259 17.1249 18.3164 17.7496 15.1118C17.7518 15.0893 17.7629 15.0686 17.7804 15.0542C17.7979 15.0399 17.8204 15.0331 17.8429 15.0354C17.8654 15.0376 17.8861 15.0487 17.9004 15.0662C17.9148 15.0837 17.9215 15.1062 17.9193 15.1287V19.7813H21.7096V11.8477C21.8556 9.62238 22.9487 8.10321 25.157 8.10321C27.642 8.10321 28.5688 9.55448 28.5688 11.9071V19.7389L32.3506 19.7813L32.3421 10.7664C32.3387 7.35466 30.5819 5.07845 27.1956 5.07845Z" fill="#0B0B0B"/>
<path d="M4.4216 4.51503C5.66841 4.51503 6.67914 3.5043 6.67914 2.25749C6.67914 1.01069 5.66841 -4.57764e-05 4.4216 -4.57764e-05C3.1748 -4.57764e-05 2.16406 1.01069 2.16406 2.25749C2.16406 3.5043 3.1748 4.51503 4.4216 4.51503Z" fill="#0B0B0B"/>
<path d="M6.20549 5.36568H2.58155V20.4148C2.58155 20.8578 2.49498 21.1871 2.32354 21.3993C2.22087 21.5154 2.09466 21.6083 1.95329 21.6718C1.81193 21.7353 1.65867 21.768 1.5037 21.7676C1.16422 21.7676 0.82474 21.732 0.536182 21.4383C0.458102 21.3569 0.424154 21.3008 0.366442 21.2991C0.266296 21.2991 0.172939 21.3738 0.108438 21.5317C0.0440517 21.6738 0.00829159 21.8272 0.00319915 21.9832C-0.035841 22.6706 0.271388 23.2291 0.814555 23.6806C1.35772 24.1321 2.05875 24.346 2.90405 24.346C4.00057 24.346 4.82664 24.0116 5.38225 23.3428C5.93787 22.674 6.21737 21.6828 6.22077 20.369V5.38095C6.22077 5.3769 6.21916 5.37302 6.21629 5.37015C6.21343 5.36729 6.20954 5.36568 6.20549 5.36568Z" fill="#0B0B0B"/>
<path d="M40.7136 5.01056C39.2175 5.01022 37.755 5.45358 36.5109 6.28455C35.2668 7.11552 34.2971 8.29678 33.7244 9.67891C33.1517 11.061 33.0018 12.582 33.2936 14.0493C33.5854 15.5167 34.3058 16.8645 35.3636 17.9224C36.4215 18.9803 37.7694 19.7007 39.2368 19.9925C40.7041 20.2843 42.225 20.1344 43.6072 19.5617C44.9893 18.989 46.1706 18.0193 47.0015 16.7752C47.8325 15.5311 48.2759 14.0685 48.2755 12.5725C48.2755 10.5669 47.4788 8.64352 46.0607 7.22539C44.6426 5.80726 42.7192 5.01056 40.7136 5.01056ZM42.5383 18.0296C41.4129 18.403 40.3062 18.3589 39.2352 16.9416C38.6818 16.21 37.9689 14.5975 37.6244 13.579C37.2798 12.5606 36.8894 10.8309 36.8945 9.91434C36.8945 8.13717 37.7635 7.43784 38.8872 7.06441C40.0109 6.69098 41.1193 6.73512 42.1904 8.15074C42.7437 8.87384 43.4566 10.483 43.7961 11.515C44.1356 12.547 44.5311 14.2614 44.526 15.1797C44.5226 16.9551 43.662 17.6528 42.5383 18.0296Z" fill="#0B0B0B"/>
</svg>
