<svg width="35" height="31" viewBox="0 0 35 31" fill="none" xmlns="http://www.w3.org/2000/svg">
<path d="M16.6005 15.8794V21.9997C16.6005 22.318 16.7269 22.6232 16.952 22.8483C17.177 23.0733 17.4823 23.1998 17.8006 23.1998C18.1188 23.1998 18.4241 23.0733 18.6491 22.8483C18.8742 22.6232 19.0006 22.318 19.0006 21.9997V15.8794C20.4575 15.582 21.7521 14.7542 22.6334 13.5566C23.5147 12.3589 23.9199 10.8767 23.7705 9.39722C23.621 7.91778 22.9276 6.54654 21.8245 5.54933C20.7215 4.55212 19.2875 4 17.8006 4C16.3136 4 14.8796 4.55212 13.7766 5.54933C12.6735 6.54654 11.9801 7.91778 11.8306 9.39722C11.6812 10.8767 12.0864 12.3589 12.9677 13.5566C13.849 14.7542 15.1436 15.582 16.6005 15.8794ZM17.8006 6.3989C18.5126 6.3989 19.2087 6.61005 19.8007 7.00564C20.3928 7.40123 20.8542 7.9635 21.1267 8.62135C21.3992 9.2792 21.4705 10.0031 21.3316 10.7014C21.1926 11.3998 20.8498 12.0413 20.3463 12.5448C19.8428 13.0483 19.2013 13.3912 18.5029 13.5301C17.8045 13.669 17.0807 13.5977 16.4228 13.3252C15.765 13.0527 15.2027 12.5913 14.8071 11.9992C14.4115 11.4072 14.2004 10.7111 14.2004 9.99908C14.2004 9.04425 14.5797 8.12853 15.2548 7.45337C15.93 6.7782 16.8457 6.3989 17.8006 6.3989V6.3989ZM22.8528 18.9035C22.6952 18.8704 22.5326 18.8687 22.3744 18.8984C22.2161 18.9282 22.0653 18.9888 21.9304 19.0768C21.7956 19.1649 21.6794 19.2786 21.5885 19.4115C21.4976 19.5445 21.4338 19.694 21.4007 19.8516C21.3676 20.0092 21.3659 20.1717 21.3956 20.33C21.4254 20.4883 21.486 20.6391 21.574 20.774C21.6621 20.9088 21.7758 21.025 21.9087 21.1159C22.0417 21.2068 22.1912 21.2706 22.3488 21.3037C25.0729 21.8437 26.201 22.8157 26.201 23.1998C26.201 23.8958 23.2608 25.5999 17.8006 25.5999C12.3403 25.5999 9.40012 23.8958 9.40012 23.1998C9.40012 22.8157 10.5282 21.8437 13.2523 21.2557C13.4099 21.2226 13.5594 21.1588 13.6924 21.0679C13.8253 20.977 13.939 20.8608 14.0271 20.726C14.1151 20.5911 14.1757 20.4403 14.2055 20.282C14.2352 20.1237 14.2335 19.9612 14.2004 19.8036C14.1673 19.646 14.1035 19.4965 14.0126 19.3635C13.9217 19.2306 13.8055 19.1169 13.6707 19.0288C13.5358 18.9408 13.385 18.8802 13.2267 18.8504C13.0685 18.8207 12.9059 18.8224 12.7483 18.8555C9.10011 19.6956 7 21.2677 7 23.1998C7 26.3559 12.4363 28 17.8006 28C23.1648 28 28.6011 26.3559 28.6011 23.1998C28.6011 21.2677 26.501 19.6956 22.8528 18.9035Z" fill="black"/>
</svg>
