<svg width="74" height="24" viewBox="0 0 74 24" fill="none" xmlns="http://www.w3.org/2000/svg">
<path fill-rule="evenodd" clip-rule="evenodd" d="M9.20905 4.22764H14.6664V0.756797H0V4.22764H5.45735V18.0963H9.2109V4.22764H9.20905ZM14.8912 6.2809V13.6966C14.887 14.2917 14.9826 14.8833 15.1742 15.4475C15.3587 15.9854 15.6408 16.4855 16.0067 16.9236C16.3923 17.3759 16.8824 17.7299 17.4358 17.9557C18.0715 18.2165 18.7547 18.3452 19.443 18.3338C20.119 18.362 20.7911 18.22 21.3962 17.9212C22.0013 17.6224 22.5196 17.1767 22.9024 16.6258H22.9366V18.0954H26.5089V6.2809H22.8913V12.8645C22.9136 13.4575 22.7114 14.0374 22.3243 14.4912C22.1135 14.7122 21.8556 14.8842 21.5693 14.9948C21.2829 15.1054 20.9753 15.1518 20.6686 15.1306C20.3689 15.1538 20.0678 15.1106 19.7873 15.0041C19.5067 14.8976 19.2538 14.7304 19.0471 14.515C18.6724 14.0456 18.483 13.4578 18.5143 12.8609V6.27724L14.8912 6.2809ZM36.5402 6.1512C35.8871 6.14291 35.2422 6.29515 34.6635 6.5942C34.0795 6.91146 33.6128 7.4037 33.3306 7.99989H33.2963V6.2809H29.8601V18.0963H33.4101V12.9184C33.3502 12.0206 33.6378 11.1339 34.2149 10.4377C34.487 10.1481 34.8196 9.92031 35.1896 9.77002C35.5597 9.61974 35.9583 9.55056 36.358 9.56724C36.7453 9.56215 37.1322 9.59116 37.5142 9.65399V6.27451C37.1955 6.19521 36.868 6.15532 36.5393 6.15577L36.5402 6.1512ZM41.4731 4.29158C41.7711 4.29795 42.0673 4.24583 42.3447 4.13828C42.6221 4.03072 42.8751 3.86985 43.0891 3.665C43.2986 3.46982 43.4656 3.2344 43.5797 2.9732C43.6939 2.712 43.7527 2.43054 43.7527 2.14607C43.7527 1.86159 43.6939 1.5801 43.5797 1.3189C43.4656 1.05771 43.2986 0.822287 43.0891 0.6271C42.8751 0.422251 42.6221 0.261385 42.3447 0.153827C42.0673 0.0462692 41.7711 -0.00584467 41.4731 0.000520033C41.1827 -0.00312319 40.8945 0.0509587 40.6256 0.159541C40.3567 0.268124 40.1127 0.429004 39.9081 0.632591C39.7002 0.82819 39.5347 1.06344 39.4217 1.32406C39.3086 1.58469 39.2503 1.86526 39.2503 2.1488C39.2503 2.43233 39.3086 2.71291 39.4217 2.97353C39.5347 3.23416 39.7002 3.4694 39.9081 3.665C40.1135 3.86714 40.3578 4.02669 40.6265 4.13429C40.8953 4.24189 41.1831 4.29538 41.4731 4.29158ZM43.3231 6.2809V18.0963H39.6944V6.2809H43.3231ZM58.2929 18.0963V10.7455C58.2971 10.1463 58.2073 9.55009 58.0265 8.9781C57.8546 8.43795 57.5858 7.93274 57.2329 7.48656C56.8587 7.02639 56.3755 6.66437 55.826 6.43253C55.187 6.16247 54.4971 6.02983 53.8021 6.04344C53.5912 6.04688 53.3809 6.06673 53.1732 6.10281C52.8606 6.15839 52.5517 6.23249 52.2482 6.32474C51.8556 6.44311 51.4871 6.6286 51.1595 6.87277C50.8105 7.12535 50.5171 7.44544 50.2974 7.81355H50.2632V6.27816H46.6798V18.0936H50.2872V11.5319C50.2682 10.9368 50.4721 10.3557 50.8598 9.89969C51.0695 9.6735 51.328 9.49679 51.6162 9.38263C51.9044 9.26848 52.2149 9.21982 52.5247 9.24025C52.8245 9.21813 53.1254 9.26295 53.4051 9.37143C53.6849 9.4799 53.9363 9.64922 54.1407 9.8668C54.5183 10.3392 54.7096 10.9308 54.679 11.5319V18.0936L58.2929 18.0963ZM70.4277 6.2809V7.7076H70.3823C70.0959 7.37623 69.7614 7.08846 69.3898 6.85359C69.0548 6.63726 68.69 6.46961 68.3067 6.35579C68.0056 6.26692 67.6987 6.19826 67.3882 6.15028C67.1403 6.11506 66.8903 6.09706 66.6399 6.0964C65.8036 6.08915 64.9763 6.26639 64.2183 6.61519C63.5066 6.93597 62.8724 7.40306 62.3582 7.98525C61.861 8.55767 61.4676 9.21059 61.1955 9.91522C60.9182 10.62 60.7762 11.3695 60.7765 12.1256C60.763 13.1757 61.0175 14.2123 61.5164 15.1397C62.0056 16.0414 62.7402 16.7903 63.6374 17.3017C64.5862 17.8432 65.6662 18.1198 66.762 18.1018C67.4414 18.1363 68.1194 18.0112 68.7403 17.7369C69.3613 17.4625 69.9075 17.0467 70.3342 16.5235H70.3796V17.8744C70.3894 18.358 70.2968 18.8384 70.1076 19.2846C69.9465 19.666 69.6922 20.0021 69.3676 20.2629C69.0508 20.508 68.6912 20.6937 68.3067 20.8109C67.899 20.9349 67.4744 20.9965 67.0478 20.9935C66.3437 21.0252 65.6524 20.8003 65.1053 20.3615C64.6269 19.9685 64.3002 19.4246 64.1804 18.8216L60.8347 19.7404C60.946 20.308 61.1739 20.847 61.5044 21.3242C61.8598 21.8418 62.297 22.2998 62.7994 22.6806C63.3791 23.1114 64.0319 23.437 64.727 23.6423C65.5258 23.886 66.3579 24.0064 67.1939 23.9995C68.1184 24.0097 69.0382 23.869 69.9161 23.583C70.7068 23.3244 71.4373 22.9126 72.0648 22.3718C72.6964 21.8094 73.1842 21.1074 73.4884 20.3231C73.8416 19.4164 74.015 18.4511 73.999 17.4798V6.2809H70.4277ZM69.6109 14.2592C69.3259 14.5327 68.9884 14.7471 68.6183 14.89C68.2482 15.0329 67.8529 15.1013 67.4557 15.0913C67.0606 15.1021 66.6674 15.0346 66.2992 14.8926C65.9311 14.7506 65.5956 14.5371 65.3125 14.2647C64.7574 13.6906 64.4485 12.9268 64.4506 12.133C64.4527 11.3392 64.7655 10.5769 65.3236 10.0056C65.9053 9.46787 66.6721 9.16818 67.4689 9.16716C68.2658 9.16615 69.0333 9.46389 69.6164 10.0002C70.174 10.5727 70.4851 11.3365 70.484 12.1308C70.483 12.9251 70.17 13.6881 69.6109 14.2592Z" fill="#0B0B0B"/>
</svg>
