<svg width="80" height="21" viewBox="0 0 80 21" fill="none" xmlns="http://www.w3.org/2000/svg">
<path d="M76.2543 3.1501C74.6298 3.1501 73.3598 4.06675 72.8412 5.50166L72.4654 3.43215H68.4172V15.5689H73.3121V8.48959C73.3121 6.93657 73.8307 6.16094 74.6545 6.16094C75.6423 6.16094 76.0427 7.52534 75.5488 9.45383L79.9956 7.64345C80.0891 4.84414 78.678 3.1501 76.2543 3.1501ZM59.8728 5.15086C60.9559 5.15086 61.8025 6.32664 62.2259 7.69104L58.9785 9.50143C58.7192 8.6077 58.5552 7.71396 58.5552 7.03176C58.5552 5.83307 59.0491 5.15086 59.8728 5.15086ZM63.8504 10.3952C64.0145 11.9006 63.4747 13.5699 62.2259 13.5699C61.1675 13.5699 60.2027 12.3942 59.543 10.9363L66.9796 7.9255C66.4381 5.17378 63.9898 3.10427 60.6489 3.10427C57.0717 3.10427 54.036 5.48051 54.036 9.50143C54.036 13.3355 56.7895 15.8986 60.8853 15.8986C65.0746 15.8986 67.052 13.1945 67.4524 10.7706L63.8504 10.3952ZM52.9776 11.8301C52.5543 13.0059 51.8717 13.7356 51.1185 13.7356C50.4835 13.7356 50.083 13.3355 50.083 12.3942V5.94941H53.3304L54.1312 3.43215H50.083V0.139259H48.7407C48.0581 2.16118 46.4106 3.57317 44.7401 3.59609C45.0223 4.48982 45.1158 5.21962 45.1158 6.37072V11.8741C45.1158 14.4619 46.9521 15.8968 49.9649 15.8968C52.1063 15.8968 53.7785 15.167 54.507 14.0864L52.9776 11.8301ZM44.0328 11.548C44.0328 9.2423 42.597 8.25514 40.5737 7.71396L37.3722 6.86782C36.8307 6.7268 36.5714 6.39716 36.5714 6.0446C36.5714 5.43291 37.2064 5.08035 38.3829 5.08035C39.9599 5.08035 41.3252 5.83307 41.8896 7.29089L43.7717 5.00984C42.6181 3.92749 40.4062 3.10427 37.9578 3.10427C34.5447 3.10427 32.1916 4.75071 32.1916 7.38432C32.1916 9.28989 33.4157 10.5362 36.0052 11.2184L38.5946 11.9006C39.1838 12.0645 39.4889 12.3942 39.4889 12.8648C39.4889 13.4289 38.9245 13.8291 37.7232 13.8291C35.7706 13.8291 33.675 12.7714 32.8037 10.8887L31.6042 14.0406C32.9924 15.1688 35.3702 15.8986 37.8167 15.8986C41.6321 15.8986 44.0328 14.1358 44.0328 11.548ZM26.6881 12.7238L24.0281 3.43391H18.7805L22.6646 15.3821H25.748C25.0653 16.6055 24.0528 17.1466 22.5465 17.1466C21.2747 17.1466 20.2163 16.7236 19.4631 16.0643V19.3343C20.1228 19.8525 21.1335 20.1575 22.4053 20.1575C25.1112 20.1575 26.5717 18.9588 27.7236 15.9003L32.4315 3.43391H29.3958L26.6881 12.7238ZM9.36643 13.711C11.2256 13.711 12.5909 12.3466 12.5909 10.4657C12.5909 8.58478 11.2256 7.22038 9.36643 7.22038C7.50725 7.22038 6.14198 8.58478 6.14198 10.4657C6.14198 12.3466 7.50725 13.711 9.36643 13.711ZM9.36643 0C14.8505 0 18.7328 3.29289 18.7328 7.95017C18.7328 12.6075 14.8487 15.9003 9.36643 15.9003C3.88416 15.9003 6.00545e-07 12.6075 6.00545e-07 7.95017C-0.00176332 3.29289 3.88239 0 9.36643 0Z" fill="#1E4637"/>
</svg>
