<svg width="35" height="31" viewBox="0 0 35 31" fill="none" xmlns="http://www.w3.org/2000/svg">
<path d="M28.067 12.5542C27.9059 10.8673 27.3412 9.24394 26.4205 7.82131C25.4998 6.39867 24.2502 5.21857 22.7773 4.38072C21.3043 3.54288 19.6513 3.0719 17.958 3.0076C16.2646 2.9433 14.5807 3.28757 13.0484 4.01131C11.5162 4.73505 10.1806 5.81699 9.15471 7.16571C8.12878 8.51442 7.44258 10.0903 7.1541 11.7601C6.86563 13.43 6.98335 15.1447 7.49732 16.7594C8.01129 18.3742 8.9064 19.8415 10.107 21.0374L16.6898 27.6326C16.8053 27.749 16.9427 27.8414 17.094 27.9045C17.2454 27.9675 17.4077 28 17.5717 28C17.7357 28 17.898 27.9675 18.0494 27.9045C18.2007 27.8414 18.3381 27.749 18.4536 27.6326L25.0115 21.0374C26.1184 19.9387 26.9669 18.6075 27.4954 17.1402C28.0239 15.6729 28.2191 14.1063 28.067 12.5542ZM23.2727 19.2861L17.5593 24.9995L11.8459 19.2861C11.0039 18.444 10.3589 17.4259 9.95732 16.3049C9.55572 15.1838 9.40748 13.9878 9.52326 12.8026C9.63979 11.5992 10.0223 10.4367 10.6431 9.39922C11.2638 8.36172 12.1074 7.47513 13.1128 6.80355C14.4305 5.9282 15.9773 5.46127 17.5593 5.46127C19.1413 5.46127 20.6881 5.9282 22.0058 6.80355C23.0081 7.47253 23.8498 8.35521 24.4704 9.38816C25.0911 10.4211 25.4752 11.5787 25.5953 12.7778C25.7148 13.9669 25.5685 15.1678 25.1668 16.2934C24.7651 17.4191 24.1181 18.4413 23.2727 19.2861ZM19.7825 8.3561C19.6671 8.23969 19.5297 8.14729 19.3783 8.08423C19.227 8.02117 19.0646 7.98871 18.9007 7.98871C18.7367 7.98871 18.5744 8.02117 18.423 8.08423C18.2717 8.14729 18.1343 8.23969 18.0188 8.3561L13.5723 12.8026C13.3429 13.034 13.2135 13.3462 13.2121 13.672V16.7399C13.2121 17.0693 13.343 17.3852 13.5759 17.6181C13.8088 17.8511 14.1248 17.9819 14.4542 17.9819H17.4599C17.6234 17.9829 17.7854 17.9515 17.9367 17.8897C18.0881 17.8279 18.2257 17.7369 18.3418 17.6217L22.7883 13.1752C23.0196 12.9425 23.1495 12.6277 23.1495 12.2996C23.1495 11.9715 23.0196 11.6567 22.7883 11.4239L19.7825 8.3561ZM16.9507 15.4978H15.7086V14.2558L18.9131 11.0513L20.1551 12.2934L16.9507 15.4978Z" fill="black"/>
</svg>
