<svg width="35" height="31" viewBox="0 0 35 31" fill="none" xmlns="http://www.w3.org/2000/svg">
<path d="M28.3409 11.6247C28.3409 11.6247 28.3409 11.6247 28.3409 11.567C27.5282 9.34821 26.0536 7.43254 24.1166 6.07916C22.1797 4.72578 19.8737 4 17.5108 4C15.1478 4 12.8419 4.72578 10.9049 6.07916C8.96789 7.43254 7.49333 9.34821 6.68067 11.567C6.68067 11.567 6.68067 11.567 6.68067 11.6247C5.77311 14.1285 5.77311 16.8715 6.68067 19.3753C6.68067 19.3753 6.68067 19.3753 6.68067 19.433C7.49333 21.6518 8.96789 23.5675 10.9049 24.9208C12.8419 26.2742 15.1478 27 17.5108 27C19.8737 27 22.1797 26.2742 24.1166 24.9208C26.0536 23.5675 27.5282 21.6518 28.3409 19.433C28.3409 19.433 28.3409 19.433 28.3409 19.3753C29.2484 16.8715 29.2484 14.1285 28.3409 11.6247ZM8.56065 17.8067C8.16069 16.2949 8.16069 14.7051 8.56065 13.1933H10.7059C10.5214 14.7256 10.5214 16.2744 10.7059 17.8067H8.56065ZM9.50641 20.1135H11.1211C11.3918 21.1421 11.7788 22.1365 12.2745 23.0776C11.1434 22.3071 10.1978 21.2946 9.50641 20.1135ZM11.1211 10.8865H9.50641C10.1879 9.70905 11.1213 8.69684 12.2399 7.92239C11.7561 8.86497 11.3808 9.85938 11.1211 10.8865ZM16.3343 24.3809C14.9177 23.3414 13.9228 21.8265 13.5317 20.1135H16.3343V24.3809ZM16.3343 17.8067H13.0357C12.8205 16.2764 12.8205 14.7236 13.0357 13.1933H16.3343V17.8067ZM16.3343 10.8865H13.5317C13.9228 9.17353 14.9177 7.65864 16.3343 6.61909V10.8865ZM25.469 10.8865H23.8543C23.5835 9.85792 23.1966 8.86347 22.7009 7.92239C23.832 8.69292 24.7775 9.70543 25.469 10.8865ZM18.6411 6.61909C20.0577 7.65864 21.0526 9.17353 21.4437 10.8865H18.6411V6.61909ZM18.6411 24.3809V20.1135H21.4437C21.0526 21.8265 20.0577 23.3414 18.6411 24.3809ZM21.9397 17.8067H18.6411V13.1933H21.9397C22.1549 14.7236 22.1549 16.2764 21.9397 17.8067ZM22.7355 23.0776C23.2312 22.1365 23.6181 21.1421 23.8889 20.1135H25.5036C24.8121 21.2946 23.8666 22.3071 22.7355 23.0776ZM26.4147 17.8067H24.2695C24.3633 17.0414 24.4095 16.271 24.4079 15.5C24.4091 14.729 24.3629 13.9586 24.2695 13.1933H26.4147C26.8147 14.7051 26.8147 16.2949 26.4147 17.8067Z" fill="#F87F5B"/>
</svg>
