<svg width="114" height="25" viewBox="0 0 114 25" fill="none" xmlns="http://www.w3.org/2000/svg">
<path d="M0.901354 12.0743C1.55796 12.2383 1.92959 12.3788 2.47448 13.3718C4.36908 16.9469 6.27621 20.8663 8.10925 24.7588C8.34408 24.9625 8.60512 25 9.01322 25C9.39739 25 9.65729 24.9614 9.90466 24.7588L14.1031 16.7057C15.2658 18.9072 17.2721 22.9004 18.0781 24.7588C18.3015 24.9625 18.574 25 18.9558 25C19.3377 25 19.625 24.9614 19.8473 24.7588C21.4694 21.1204 23.2409 17.3544 25.0227 13.8426C25.6416 12.5826 25.9141 12.2383 27.1886 11.9982L27.7334 11.9092C28.0435 11.5907 27.9569 10.853 27.6217 10.7007C26.7668 10.7769 25.7636 10.8026 24.6499 10.8026C23.6844 10.8026 22.769 10.7769 21.4922 10.7007C21.1081 10.853 21.1081 11.6551 21.344 11.9092L22.0007 12.038C22.6698 12.1786 22.9662 12.3566 22.9662 12.5217C22.9662 12.7629 22.8545 13.2336 22.6071 13.8449C21.9881 15.4352 21.3931 17.1144 20.4412 19.0993C19.5862 17.4458 18.5215 15.2185 17.8159 13.5779C17.5925 13.0041 17.5058 12.7887 17.5058 12.5217C17.5058 12.3437 18.0382 12.1786 18.9422 12.0123L19.5121 11.9233C19.7857 11.7828 19.8222 10.7523 19.4004 10.7148C16.9359 10.7909 15.0037 10.8167 12.5642 10.8167H4.76122C3.13907 10.8167 1.91135 10.7909 0.31542 10.7148C-0.0812816 10.8787 -0.0812812 11.6434 0.190026 11.9233L0.901354 12.0743ZM9.65615 12.0743C10.3629 12.0743 10.9808 12.1001 11.5143 12.2031C12.2826 12.3437 12.9506 13.4503 12.9506 13.9831C12.9506 14.2501 12.9506 14.5569 12.8389 15.0136C12.6405 15.701 11.3399 18.1683 10.795 19.0969C10.1384 18.0032 8.5903 14.9117 8.05909 13.7149C7.82426 13.2055 7.71254 12.7863 7.71254 12.5826C7.68746 12.2008 8.41931 12.0732 9.6573 12.0732L9.65615 12.0743ZM33.1254 25C35.4418 25 38.3008 24.0082 39.8876 21.0947C39.8876 20.5092 39.3062 20.2281 38.8844 20.2937C37.8436 21.8839 36.3708 22.0736 35.2936 22.0736C31.7027 22.0736 29.8446 19.5677 29.8446 17.0102C29.8446 16.4633 29.9313 16.3872 30.8102 16.3872H38.1925C39.394 16.3872 39.5798 15.9036 39.5798 15.2548C39.5798 12.62 37.4139 10.319 33.4013 10.319C28.5839 10.319 25.066 13.6775 25.066 18.0032C25.1036 21.7434 27.9158 25 33.1163 25H33.1254ZM33.1744 11.9081C34.4876 11.9081 35.2183 12.6575 35.2183 13.791C35.2183 14.1342 35.1317 14.4913 34.9584 14.5803C34.5253 14.8215 33.9177 14.8848 33.3739 14.8848H31.9376C30.6996 14.8848 30.1547 14.859 30.1547 14.3754C30.1661 13.2688 31.5546 11.9069 33.1756 11.9069L33.1744 11.9081ZM40.7665 12.072C41.4356 12.2359 41.8072 12.3765 42.351 13.3695C44.2456 16.9446 46.1413 20.864 47.9858 24.7564C48.2206 24.9602 48.4816 24.9977 48.8772 24.9977C49.2614 24.9977 49.5213 24.959 49.7686 24.7564L53.9796 16.7034C55.1196 18.9049 57.1373 22.898 57.9546 24.7564C58.1894 24.9602 58.4505 24.9977 58.8324 24.9977C59.2143 24.9977 59.5015 24.959 59.7238 24.7564C61.346 21.1181 63.1174 17.3521 64.8992 13.8402C65.5182 12.5802 65.7769 12.2359 67.0651 11.9959L67.61 11.9069C67.92 11.5884 67.8334 10.8506 67.4846 10.6984C66.6296 10.7745 65.6265 10.8003 64.5127 10.8003C63.5472 10.8003 62.6318 10.7745 61.3551 10.6984C60.9709 10.8506 60.9709 11.6528 61.2069 11.9069L61.8635 12.0357C62.5201 12.1762 62.829 12.3542 62.829 12.5193C62.829 12.7606 62.7173 13.2313 62.4825 13.8426C61.8635 15.4328 61.2445 17.112 60.3166 19.0969C59.4616 17.4434 58.3969 15.2162 57.6913 13.5756C57.4565 13.0018 57.3812 12.7863 57.3812 12.5193C57.3812 12.3413 57.9136 12.1762 58.8176 12.0099L59.3875 11.9209C59.6611 11.7804 59.709 10.7499 59.2758 10.7124C56.8112 10.7886 54.879 10.8143 52.4395 10.8143H44.6332C43.011 10.8143 41.7833 10.7886 40.1874 10.7124C39.8032 10.8764 39.8032 11.6411 40.0757 11.9209L40.7665 12.072ZM49.535 12.072C50.2417 12.072 50.8596 12.0978 51.3931 12.2008C52.1614 12.3413 52.8294 13.4479 52.8294 13.9807C52.8294 14.2477 52.8294 14.5545 52.7177 15.0112C52.5193 15.6986 51.2187 18.166 50.6738 19.0946C50.0046 18.0008 48.4691 14.9094 47.9379 13.7126C47.7145 13.2032 47.5913 12.784 47.5913 12.5802C47.5663 12.1985 48.2981 12.0708 49.5361 12.0708L49.535 12.072ZM73.8215 24.9977C78.5637 24.9977 82.6904 22.6322 82.6904 17.6203C82.6904 12.7863 78.5911 10.3178 74.0461 10.3178C69.4886 10.3178 65.1294 13.0275 65.1545 17.9259C65.2035 22.6591 69.2048 24.9988 73.8113 24.9988L73.8215 24.9977ZM73.8215 11.9057C76.0137 11.9057 77.0909 14.7806 77.1411 18.1004C77.1662 21.1919 76.4343 23.4168 74.2308 23.4168C72.0011 23.4168 70.7254 20.7703 70.7254 17.1706C70.7254 13.4433 72.1253 11.9034 73.8215 11.9034V11.9057ZM89.2793 13.2664C89.5141 13.2664 89.8606 13.2922 90.7407 13.9538C91.2365 14.3754 91.7062 14.5768 92.2397 14.5768C93.4777 14.5768 94.7168 13.9281 94.7168 12.3519C94.7168 11.0544 93.627 10.3295 92.5851 10.3295C90.9629 10.3295 89.8492 11.4619 88.8073 12.0474C88.4972 11.9842 88.4231 11.8835 88.4231 11.6399C88.4231 11.3354 88.5098 10.8506 88.5713 10.1644C88.4231 9.96065 88.1872 9.84589 87.8896 9.84589C86.6881 10.5462 84.0138 11.4619 82.2423 11.9186C81.9824 12.1223 81.9824 12.7324 82.2423 12.9491L82.8009 13.2535C83.5305 13.6611 83.5305 14.0674 83.5305 15.4551V20.6333C83.5305 23.0245 83.3823 23.343 82.0942 23.4437L81.3646 23.507C81.0545 23.7236 81.0545 24.4988 81.4022 24.7154C82.6789 24.6393 84.374 24.6136 85.9597 24.6136C87.7677 24.6136 89.3157 24.6393 91.1738 24.7154C91.5204 24.4988 91.5204 23.7236 91.1989 23.507L89.9609 23.418C88.6842 23.3161 88.5246 23.0362 88.5246 20.6309V15.3497C88.536 14.0264 88.7355 13.2629 89.2804 13.2629L89.2793 13.2664ZM104.389 23.3044L103.893 23.4062C103.572 23.7107 103.659 24.425 104.042 24.6007C105.131 24.5375 106.506 24.4988 108.797 24.4988C111.039 24.4988 112.464 24.5246 113.654 24.6007C114.038 24.4719 114.124 23.6463 113.802 23.4062L113.232 23.3044C112.229 23.1404 111.499 22.9613 110.966 22.5151C110 21.7258 106.594 17.0582 105.912 15.9633C105.701 15.6963 105.627 15.4925 105.627 15.3895C105.627 15.2864 105.665 15.1483 105.851 14.9328C106.396 14.462 106.991 13.9409 108.438 12.9479C109.467 12.2359 110.296 11.8917 111.026 11.7535L112.253 11.5122C112.526 11.2453 112.487 10.4818 112.104 10.3178C109.684 10.6229 107.248 10.7843 104.81 10.8014H103.893C103.509 10.9537 103.46 11.6914 103.807 11.9959L104.772 12.1481C105.119 12.1739 105.502 12.3121 105.502 12.4783C105.502 12.695 105.316 13.0521 104.585 13.8391L102.963 15.5441C102.673 15.8525 102.325 16.0964 101.939 16.2605C101.554 16.4247 101.139 16.5057 100.722 16.4984C100.3 16.4984 100.177 16.3966 100.177 16.0148V5.25317C100.177 3.09031 100.226 1.6523 100.303 0.241228C100.154 0.0632341 99.8694 0 99.6334 0C97.6647 0.74945 95.3107 1.57736 93.7262 1.90875C93.4526 2.12539 93.4526 2.73549 93.7262 2.93925L94.3828 3.28235C95.1511 3.68987 95.1511 4.07162 95.1511 5.44522V20.522C95.1511 22.9132 95.0029 23.1943 93.5894 23.3325L92.8598 23.3957C92.5498 23.5995 92.5498 24.3876 92.8974 24.5901C94.2471 24.5269 95.8328 24.4883 97.6031 24.4883C99.386 24.4883 100.997 24.514 102.235 24.5901C102.569 24.3864 102.569 23.5983 102.26 23.3957L101.641 23.3325C100.279 23.1802 100.13 22.9109 100.13 20.522V18.5372C100.13 17.8884 100.329 17.7233 100.589 17.7233C100.973 17.7233 101.282 17.8638 101.554 18.2327L104.316 21.9355C104.626 22.343 104.973 22.8898 104.973 23.0421C105.011 23.1826 104.787 23.2458 104.392 23.3091L104.389 23.3044Z" fill="#0B0B0B"/>
</svg>
