<svg width="83" height="25" viewBox="0 0 83 25" fill="none" xmlns="http://www.w3.org/2000/svg">
<path d="M11.344 19.9767V12.186H4.97396V19.9767H0.00012207V0.500046H4.97396V7.81717H11.344V0.500046H16.3179V19.9767H11.344Z" fill="#0B0B0B"/>
<path d="M24.9642 19.9769V5.36945H29.0701V6.92271H29.1225C29.8857 5.36945 31.0957 4.86914 32.7804 4.86914V9.26477C30.1754 9.29155 29.3367 10.2642 29.3367 11.9294V19.983L24.9642 19.9769Z" fill="#0B0B0B"/>
<path d="M37.5268 13.9988C37.7703 15.6568 39.1592 16.762 40.9486 16.762C42.1331 16.762 42.8963 16.3153 43.6072 15.3938H48.0832C46.6869 18.5819 44.0284 20.4504 40.9486 20.4504C39.9324 20.4509 38.9259 20.2511 37.9869 19.8623C37.0479 19.4736 36.1948 18.9036 35.4762 18.1849C34.7576 17.4663 34.1878 16.613 33.7992 15.6739C33.4106 14.7349 33.2109 13.7284 33.2115 12.7121C33.2115 8.50153 36.5798 4.86914 40.8695 4.86914C45.2384 4.86914 48.581 8.31772 48.581 12.8436C48.5867 13.2325 48.5516 13.6209 48.4764 14.0025L37.5268 13.9988ZM44.2122 11.0542C43.8701 9.55448 42.5542 8.55387 40.8695 8.55387C39.287 8.55387 37.9225 9.50214 37.5828 11.0542H44.2122Z" fill="#0B0B0B"/>
<path d="M61.4269 19.9767V18.3942H61.3734C60.5578 19.7332 59.0836 20.4478 57.0045 20.4478C52.5833 20.4478 49.6886 17.0527 49.6886 12.6315C49.6886 8.26148 52.6624 4.86646 56.9254 4.86646C58.6101 4.86646 59.9783 5.36677 61.2163 6.60353V0.500046H65.5852V19.9767H61.4269ZM61.4525 12.6072C61.4525 10.5804 59.9004 8.94803 57.7422 8.94803C55.6886 8.94803 54.0574 10.4757 54.0574 12.6072C54.0574 14.8178 55.6095 16.3711 57.7154 16.3711C59.8469 16.3711 61.4525 14.7654 61.4525 12.6072Z" fill="#0B0B0B"/>
<path d="M18.3873 19.9767V5.3692H22.7562V19.9767H18.3873Z" fill="#0B0B0B"/>
<path d="M20.5674 4.37005C21.7741 4.37005 22.7524 3.39178 22.7524 2.18502C22.7524 0.978257 21.7741 -1.52588e-05 20.5674 -1.52588e-05C19.3606 -1.52588e-05 18.3823 0.978257 18.3823 2.18502C18.3823 3.39178 19.3606 4.37005 20.5674 4.37005Z" fill="#0B0B0B"/>
<path d="M82.3996 24.3459H67.7921V19.9771H82.3996V24.3459Z" fill="#0B0B0B"/>
</svg>
