<svg width="35" height="31" viewBox="0 0 35 31" fill="none" xmlns="http://www.w3.org/2000/svg">
<path d="M29.15 6.56287L21.65 4.06287H21.5625C21.5043 4.05703 21.4457 4.05703 21.3875 4.06287H21.1H20.9375H20.85L13.75 6.50037L6.65 4.06287C6.46202 4.00089 6.26201 3.98443 6.06642 4.01485C5.87084 4.04528 5.68527 4.12172 5.525 4.23787C5.36345 4.35289 5.23159 4.5047 5.1403 4.68076C5.04901 4.85681 5.00092 5.05206 5 5.25037V22.7504C4.99933 23.0124 5.08103 23.2681 5.23356 23.4812C5.38609 23.6942 5.60173 23.854 5.85 23.9379L13.35 26.4379C13.6018 26.52 13.8732 26.52 14.125 26.4379V26.4379L21.25 24.0629L28.35 26.5004C28.4827 26.5184 28.6173 26.5184 28.75 26.5004C29.0114 26.504 29.2665 26.4205 29.475 26.2629C29.6365 26.1478 29.7684 25.996 29.8597 25.82C29.951 25.6439 29.9991 25.4487 30 25.2504V7.75037C30.0007 7.48832 29.919 7.23268 29.7664 7.01959C29.6139 6.80649 29.3983 6.64673 29.15 6.56287V6.56287ZM12.5 23.5129L7.5 21.8504V6.98787L12.5 8.65037V23.5129ZM20 21.8504L15 23.5129V8.65037L20 6.98787V21.8504ZM27.5 23.5129L22.5 21.8504V6.98787L27.5 8.65037V23.5129Z" fill="#F87F5B"/>
</svg>
