<svg width="115" height="25" viewBox="0 0 115 25" fill="none" xmlns="http://www.w3.org/2000/svg">
<g clip-path="url(#clip0_478_3371)">
<path d="M21.4739 15.5361H17.6777H15.1559H14.5331L10.7369 19.367L6.94077 15.5361H6.31789H3.79615H0V19.367H5.36819L8.05255 22.0764L10.7369 24.7858L13.4213 22.0764L16.1052 19.367H21.4739V15.5361Z" fill="#0B0B0B"/>
<path d="M21.4739 7.87158H0V11.7031H21.4739V7.87158Z" fill="#0B0B0B"/>
<path d="M21.4739 0.209473H0V4.041H21.4739V0.209473Z" fill="#0B0B0B"/>
<path d="M30.01 0.209473H33.4251V19.0109H30.01V0.209473Z" fill="#0B0B0B"/>
<path d="M38.7421 18.475C37.6637 17.8743 36.81 17.0519 36.1809 16.0071C35.5506 14.9628 35.2363 13.8133 35.2363 12.5602C35.2363 11.307 35.5506 10.1581 36.1809 9.11323C36.81 8.06892 37.6637 7.24611 38.7421 6.64532C39.8195 6.04452 40.9887 5.74413 42.248 5.74413C43.5068 5.74413 44.6753 6.04452 45.7538 6.64532C46.8311 7.24611 47.6849 8.06839 48.315 9.11323C48.9442 10.1575 49.2596 11.307 49.2596 12.5602C49.2596 13.8133 48.9447 14.9622 48.315 16.0071C47.6849 17.0513 46.8311 17.8743 45.7538 18.475C44.6753 19.0759 43.5068 19.3762 42.248 19.3762C40.9887 19.3762 39.8201 19.0759 38.7421 18.475ZM44.0462 15.7335C44.5893 15.429 45.0246 14.9981 45.3524 14.4409C45.6797 13.8838 45.8445 13.2573 45.8445 12.5606C45.8445 11.8647 45.6803 11.2381 45.3524 10.6805C45.0246 10.1233 44.5893 9.69243 44.0462 9.38779C43.5031 9.08323 42.9032 8.93064 42.248 8.93064C41.5923 8.93064 40.9933 9.08323 40.4498 9.38779C39.9066 9.69243 39.4709 10.1233 39.143 10.6805C38.8147 11.2375 38.6514 11.8647 38.6514 12.5606C38.6514 13.2573 38.8147 13.8838 39.143 14.4409C39.4704 14.9981 39.906 15.429 40.4498 15.7335C40.9929 16.0381 41.5918 16.1907 42.248 16.1907C42.9032 16.1901 43.5026 16.0381 44.0462 15.7335Z" fill="#0B0B0B"/>
<path d="M51.0684 0.209473H54.4833V11.4121L58.9331 6.11116H62.9946L57.9756 12.0912L63.3568 19.0109H58.9847L54.4833 13.0308V19.0109H51.0684V0.209473Z" fill="#0B0B0B"/>
<path d="M66.5775 18.5412C65.6199 17.984 64.8438 17.1875 64.2491 16.1516C63.6538 15.1163 63.3562 13.9189 63.3562 12.561C63.3562 11.3252 63.6409 10.1847 64.21 9.14042C64.7791 8.09614 65.5554 7.26911 66.5389 6.65992C67.5219 6.0507 68.5994 5.74609 69.7726 5.74609C70.6004 5.74609 71.355 5.88551 72.0359 6.1638C72.7171 6.44211 73.2388 6.81668 73.601 7.28648V6.1112H77.0162V19.0109H73.601V17.8358C73.0663 18.3408 72.497 18.7233 71.8936 18.9846C71.2894 19.2456 70.5133 19.3766 69.5647 19.3766C68.5305 19.3771 67.5349 19.0983 66.5775 18.5412ZM72.7994 15.1468C73.4375 14.4508 73.757 13.5891 73.757 12.5616C73.757 11.5347 73.4375 10.6729 72.7994 9.9764C72.1614 9.28033 71.316 8.93211 70.2642 8.93211C69.2118 8.93211 68.3663 9.28086 67.7283 9.9764C67.0903 10.6729 66.7713 11.5347 66.7713 12.5616C66.7713 13.5891 67.0903 14.4508 67.7283 15.1468C68.3663 15.8434 69.2112 16.1912 70.2642 16.1912C71.316 16.1912 72.1614 15.8434 72.7994 15.1468Z" fill="#0B0B0B"/>
<path d="M79.5007 0.209473H82.9159V19.0109H79.5007V0.209473Z" fill="#0B0B0B"/>
<path d="M85.5833 3.70788C85.1694 3.29018 84.9624 2.78513 84.9624 2.19328C84.9624 1.58406 85.1694 1.06638 85.5833 0.639726C85.9971 0.213593 86.4975 0 87.0839 0C87.6871 0 88.2005 0.213593 88.623 0.639726C89.045 1.06638 89.2574 1.58406 89.2574 2.19328C89.2574 2.78513 89.0459 3.29018 88.623 3.70788C88.2005 4.1256 87.6871 4.33447 87.0839 4.33447C86.4975 4.33499 85.9971 4.1256 85.5833 3.70788ZM85.4018 6.11054H88.8169V19.0103H85.4018V6.11054Z" fill="#0B0B0B"/>
<path d="M91.1477 18.1204L91.9244 14.8825H92.0792C93.2 15.7532 94.3474 16.1882 95.5204 16.1882C96.0034 16.1882 96.3952 16.0966 96.6977 15.9141C96.9994 15.7316 97.1507 15.4665 97.1507 15.1176C97.1507 14.7521 96.9729 14.4563 96.6199 14.2302C96.266 14.0039 95.6062 13.7256 94.641 13.3942C93.6582 13.0638 92.8949 12.5845 92.3517 11.9579C91.8085 11.3313 91.536 10.5917 91.536 9.73837C91.536 8.53729 91.9801 7.57085 92.8682 6.83959C93.7564 6.10832 94.8817 5.74269 96.2449 5.74269C96.9349 5.74269 97.547 5.80793 98.0822 5.9384C98.6165 6.06887 99.1252 6.28246 99.6082 6.57812L99.7382 9.86828H99.5569C98.9359 9.46793 98.3839 9.1681 97.9009 8.96766C97.4179 8.76772 96.8747 8.66722 96.2714 8.66722C95.8397 8.66722 95.4859 8.75456 95.2107 8.92818C94.9347 9.10229 94.7967 9.32909 94.7967 9.60738C94.7967 9.97302 94.9692 10.2734 95.3142 10.5085C95.6584 10.7437 96.3059 11.0268 97.2542 11.3571C98.3405 11.7228 99.164 12.1668 99.7249 12.6892C100.286 13.211 100.566 14.0207 100.566 15.1176C100.566 16.0229 100.342 16.7979 99.893 17.4419C99.4445 18.0863 98.8535 18.5694 98.1202 18.8913C97.3877 19.2132 96.581 19.3743 95.7017 19.3743C93.9245 19.3743 92.4065 18.9565 91.1477 18.1204Z" fill="#0B0B0B"/>
<path d="M105.376 18.4609C104.306 17.8516 103.466 17.0204 102.854 15.9672C102.241 14.9138 101.935 13.7433 101.935 12.4549C101.935 11.2018 102.224 10.0655 102.801 9.04743C103.38 8.02893 104.182 7.22401 105.209 6.63217C106.234 6.04032 107.394 5.74413 108.688 5.74413C109.998 5.74413 111.133 6.05346 112.09 6.6711C113.046 7.28926 113.771 8.11154 114.263 9.13895C114.754 10.1664 115 11.2717 115 12.4555V13.4739H105.194C105.401 14.4493 105.845 15.1891 106.527 15.6935C107.209 16.1985 108.109 16.4506 109.231 16.4506C110.938 16.4506 112.43 15.885 113.706 14.7534H114.069L113.939 18.0172C113.163 18.4703 112.344 18.8096 111.481 19.0359C110.619 19.2621 109.791 19.3751 108.997 19.3751C107.653 19.3746 106.445 19.07 105.376 18.4609ZM111.586 11.1229C111.499 10.3395 111.175 9.72555 110.615 9.28208C110.054 8.8386 109.369 8.61605 108.559 8.61605C107.765 8.61605 107.071 8.82964 106.475 9.25573C105.881 9.68243 105.479 10.3048 105.272 11.1229H111.586Z" fill="#0B0B0B"/>
</g>
<defs>
<clipPath id="clip0_478_3371">
<rect width="115" height="25" fill="white"/>
</clipPath>
</defs>
</svg>
