<svg width="42" height="42" viewBox="0 0 42 42" fill="none" xmlns="http://www.w3.org/2000/svg">
<path fill-rule="evenodd" clip-rule="evenodd" d="M37.109 11.171C37.6058 12.4909 37.8737 13.8859 37.901 15.296C38 16.913 38 17.441 38 21.5C38 23.9787 37.9631 25.1283 37.9343 26.0235C37.916 26.5943 37.901 27.0616 37.901 27.704C37.8737 29.114 37.6058 30.5091 37.109 31.829C36.6483 33.0301 35.9401 34.1209 35.0305 35.0305C34.1209 35.9401 33.0301 36.6483 31.829 37.109C30.5091 37.6058 29.114 37.8737 27.704 37.901C26.1035 38 25.5755 38 21.5 38C19.0093 38 17.862 37.963 16.9698 37.9343C16.4021 37.916 15.9376 37.901 15.296 37.901C13.8859 37.8737 12.4909 37.6058 11.171 37.109C9.96991 36.6483 8.87914 35.9401 7.9695 35.0305C7.05987 34.1209 6.35171 33.0301 5.891 31.829C5.39418 30.5091 5.12634 29.114 5.099 27.704C5 26.087 5 25.559 5 21.5C5 17.441 5 16.913 5.099 15.296C5.12634 13.8859 5.39418 12.4909 5.891 11.171C6.35171 9.96991 7.05987 8.87914 7.9695 7.9695C8.87914 7.05987 9.96991 6.35171 11.171 5.891C12.4909 5.39418 13.8859 5.12634 15.296 5.099C16.8965 5 17.4245 5 21.5 5C25.5755 5 26.1035 5 27.704 5.099C29.114 5.12634 30.5091 5.39418 31.829 5.891C33.0301 6.35171 34.1209 7.05987 35.0305 7.9695C35.9401 8.87914 36.6483 9.96991 37.109 11.171ZM16.8908 14.2086C18.2475 13.3021 19.8426 12.8182 21.4743 12.8182C23.6623 12.8182 25.7607 13.6874 27.3079 15.2346C28.8551 16.7817 29.7243 18.8802 29.7243 21.0682C29.7243 22.6999 29.2404 24.2949 28.3339 25.6517C27.4274 27.0084 26.1389 28.0658 24.6314 28.6902C23.1239 29.3146 21.4651 29.478 19.8648 29.1597C18.2644 28.8414 16.7944 28.0556 15.6406 26.9018C14.4869 25.748 13.7011 24.278 13.3828 22.6777C13.0645 21.0774 13.2278 19.4186 13.8523 17.9111C14.4767 16.4036 15.5341 15.1151 16.8908 14.2086ZM18.7242 25.184C19.5382 25.7279 20.4953 26.0182 21.4743 26.0182C22.7871 26.0182 24.0461 25.4967 24.9744 24.5684C25.9028 23.6401 26.4243 22.381 26.4243 21.0682C26.4243 20.0892 26.134 19.1322 25.59 18.3181C25.0461 17.5041 24.273 16.8696 23.3686 16.495C22.4641 16.1203 21.4688 16.0223 20.5086 16.2133C19.5484 16.4043 18.6664 16.8758 17.9741 17.568C17.2818 18.2603 16.8104 19.1423 16.6194 20.1025C16.4284 21.0627 16.5264 22.058 16.9011 22.9625C17.2757 23.867 17.9102 24.6401 18.7242 25.184ZM28.8076 11.4463C29.0789 11.265 29.3979 11.1682 29.7243 11.1682C30.1619 11.1682 30.5816 11.342 30.891 11.6515C31.2004 11.9609 31.3743 12.3806 31.3743 12.8182C31.3743 13.1445 31.2775 13.4636 31.0962 13.7349C30.9149 14.0062 30.6572 14.2177 30.3557 14.3426C30.0542 14.4675 29.7224 14.5002 29.4024 14.4365C29.0823 14.3728 28.7883 14.2157 28.5575 13.9849C28.3268 13.7542 28.1696 13.4602 28.106 13.1401C28.0423 12.82 28.075 12.4883 28.1999 12.1868C28.3248 11.8853 28.5362 11.6276 28.8076 11.4463Z" fill="#1E4637"/>
</svg>
