<svg width="42" height="42" viewBox="0 0 42 42" fill="none" xmlns="http://www.w3.org/2000/svg">
<path d="M25.4309 4.50005C23.1196 4.50013 21.1222 5.20715 19.7012 6.61054C18.2784 8.01557 17.4887 10.0639 17.4887 12.6375V16.395H13C12.7239 16.395 12.5 16.6189 12.5 16.895V22.68C12.5 22.9562 12.7239 23.18 13 23.18H17.4887V37.5C17.4887 37.7761 17.7126 38 17.9887 38H23.9687C24.2449 38 24.4687 37.7761 24.4687 37.5V23.18H28.9412C29.1926 23.18 29.4049 22.9934 29.4371 22.7441L30.1846 16.9591C30.203 16.8165 30.1592 16.6729 30.0642 16.5649C29.9693 16.4569 29.8325 16.395 29.6887 16.395H24.4687V13.2063C24.4687 12.3709 24.587 11.8282 24.8785 11.4839C25.1539 11.1585 25.6878 10.895 26.8287 10.895H29.8837C30.1599 10.895 30.3837 10.6712 30.3837 10.395V5.22755C30.3837 4.97143 30.1902 4.75672 29.9354 4.73023C28.439 4.57462 26.9354 4.49779 25.4309 4.50005ZM25.4309 4.50005C25.431 4.50005 25.4311 4.50005 25.4312 4.50005V5.00005L25.4305 4.50005C25.4306 4.50005 25.4307 4.50005 25.4309 4.50005ZM17.9887 16.395V16.895H17.4887L17.9887 16.395Z" fill="#1E4637" stroke="#1E4637" stroke-linejoin="round"/>
</svg>
