<svg width="42" height="42" viewBox="0 0 42 42" fill="none" xmlns="http://www.w3.org/2000/svg">
<path d="M41.5375 8.95362C40.014 9.61458 38.4028 10.0515 36.7541 10.2508C38.4935 9.21169 39.797 7.57693 40.4227 5.64982C38.7881 6.62284 36.9988 7.3084 35.1326 7.67669C33.8851 6.3239 32.2239 5.42341 30.4096 5.11645C28.5952 4.80949 26.7302 5.11342 25.1072 5.98058C23.4842 6.84774 22.1949 8.22908 21.4415 9.90795C20.6881 11.5868 20.5133 13.4683 20.9444 15.2572C17.6395 15.09 14.4066 14.2295 11.4559 12.7314C8.50525 11.2334 5.9027 9.13136 3.81736 6.56191C3.08593 7.83918 2.7016 9.28567 2.70257 10.7575C2.69998 12.1244 3.03542 13.4707 3.67903 14.6766C4.32264 15.8825 5.25445 16.9105 6.39149 17.6692C5.06992 17.6332 3.77659 17.2786 2.6215 16.6355V16.7368C2.6314 18.652 3.30252 20.505 4.52132 21.9823C5.74012 23.4596 7.43179 24.4706 9.31019 24.8443C8.58711 25.0644 7.8364 25.1804 7.08062 25.1889C6.55747 25.1828 6.03561 25.1353 5.51993 25.047C6.05484 26.6945 7.08999 28.1342 8.48135 29.1659C9.8727 30.1976 11.5511 30.77 13.2829 30.8033C10.3585 33.1044 6.74798 34.3602 3.02687 34.3706C2.34936 34.3729 1.67239 34.3322 1 34.249C4.79923 36.7021 9.22671 38.0043 13.749 37.9987C16.8698 38.0311 19.9657 37.4414 22.856 36.2639C25.7463 35.0864 28.373 33.3448 30.5826 31.1408C32.7923 28.9368 34.5406 26.3146 35.7255 23.4273C36.9104 20.5401 37.5081 17.4457 37.4837 14.3248C37.4837 13.9803 37.4837 13.6154 37.4837 13.2506C39.0742 12.0645 40.446 10.6104 41.5375 8.95362V8.95362Z" fill="#1E4637"/>
</svg>
