<svg width="42" height="42" viewBox="0 0 42 42" fill="none" xmlns="http://www.w3.org/2000/svg">
<path d="M29.5232 16.4744C28.1434 16.4738 26.7849 16.8142 25.5692 17.4654C25.4583 17.1739 25.2611 16.923 25.0038 16.746C24.7466 16.5689 24.4414 16.4742 24.1288 16.4744H17.9639C17.7615 16.4742 17.561 16.5139 17.374 16.5912C17.1869 16.6684 17.017 16.7816 16.8738 16.9244C16.7307 17.0672 16.6172 17.2368 16.5397 17.4234C16.4623 17.61 16.4225 17.81 16.4227 18.0119V36.4625C16.4225 36.6644 16.4623 36.8644 16.5397 37.051C16.6171 37.2376 16.7307 37.4071 16.8738 37.5499C17.017 37.6927 17.1869 37.806 17.3739 37.8832C17.561 37.9604 17.7615 38.0001 17.9639 38H24.1288C24.3313 38.0001 24.5317 37.9604 24.7188 37.8832C24.9058 37.806 25.0758 37.6927 25.2189 37.5499C25.3621 37.4071 25.4756 37.2376 25.553 37.051C25.6304 36.8644 25.6702 36.6644 25.6701 36.4625V28.006C25.6701 27.5982 25.8325 27.2071 26.1215 26.9187C26.4105 26.6304 26.8026 26.4684 27.2113 26.4684C27.6201 26.4684 28.0121 26.6304 28.3011 26.9187C28.5902 27.2071 28.7526 27.5982 28.7526 28.006V36.4625C28.7524 36.6644 28.7922 36.8644 28.8696 37.051C28.9471 37.2376 29.0606 37.4071 29.2037 37.5499C29.3469 37.6927 29.5168 37.806 29.7039 37.8832C29.8909 37.9604 30.0914 38.0001 30.2938 38H36.4588C36.6612 38.0001 36.8617 37.9604 37.0487 37.8832C37.2358 37.806 37.4057 37.6927 37.5488 37.5499C37.692 37.4071 37.8055 37.2376 37.8829 37.051C37.9603 36.8644 38.0001 36.6644 38 36.4625V24.9309C37.9972 22.6889 37.1032 20.5396 35.5141 18.9543C33.925 17.369 31.7705 16.4771 29.5232 16.4744ZM13.3402 16.4744H7.17522C6.97279 16.4742 6.77232 16.5139 6.58528 16.5912C6.39824 16.6684 6.22829 16.7816 6.08515 16.9244C5.94201 17.0672 5.82848 17.2368 5.75107 17.4234C5.67366 17.61 5.63387 17.81 5.63399 18.0119V36.4625C5.63387 36.6644 5.67365 36.8644 5.75107 37.051C5.82848 37.2376 5.942 37.4071 6.08514 37.5499C6.22828 37.6927 6.39823 37.806 6.58528 37.8832C6.77232 37.9604 6.97279 38.0001 7.17522 38H13.3402C13.5426 38.0001 13.7431 37.9604 13.9301 37.8832C14.1172 37.806 14.2871 37.6927 14.4303 37.5499C14.5734 37.4071 14.6869 37.2376 14.7643 37.051C14.8417 36.8644 14.8815 36.6644 14.8814 36.4625V18.0119C14.8815 17.81 14.8417 17.61 14.7643 17.4234C14.6869 17.2368 14.5734 17.0672 14.4303 16.9244C14.2871 16.7816 14.1172 16.6684 13.9301 16.5912C13.7431 16.5139 13.5426 16.4742 13.3402 16.4744ZM10.2803 5.00888C9.60577 4.9686 8.9301 5.06561 8.29436 5.29401C7.65861 5.52241 7.07608 5.87742 6.58218 6.33746C6.08828 6.7975 5.69335 7.35296 5.42138 7.97004C5.14942 8.58713 5.00612 9.25295 5.00019 9.92702C4.99426 10.6011 5.12583 11.2693 5.3869 11.8911C5.64797 12.5128 6.03308 13.0751 6.51881 13.5437C7.00454 14.0123 7.58074 14.3775 8.21237 14.617C8.844 14.8565 9.51786 14.9653 10.193 14.9368H10.2366C10.9129 14.9769 11.5903 14.879 12.2274 14.6491C12.8644 14.4192 13.4478 14.0621 13.9419 13.5996C14.436 13.1372 14.8303 12.5791 15.1009 11.9595C15.3715 11.3399 15.5125 10.6717 15.5155 9.99585C15.5185 9.32 15.3833 8.65064 15.1182 8.02867C14.8531 7.4067 14.4636 6.84519 13.9737 6.37844C13.4837 5.9117 12.9034 5.54952 12.2684 5.31404C11.6334 5.07856 10.9569 4.97473 10.2803 5.00888Z" fill="#F87F5B"/>
</svg>
