<svg width="42" height="42" viewBox="0 0 42 42" fill="none" xmlns="http://www.w3.org/2000/svg">
<path fill-rule="evenodd" clip-rule="evenodd" d="M30.6467 5.50696C24.5988 4.83101 18.3472 4.83101 12.2993 5.50696C8.78898 5.89929 5.95511 8.66455 5.54241 12.1931C4.8192 18.3766 4.8192 24.6234 5.54241 30.8069C5.95511 34.3354 8.78898 37.1007 12.2993 37.493C18.3472 38.169 24.5988 38.169 30.6467 37.493C34.157 37.1007 36.9909 34.3354 37.4036 30.8069C38.1268 24.6234 38.1268 18.3766 37.4036 12.1931C36.9909 8.66455 34.157 5.89929 30.6467 5.50696ZM28.7907 14.6146C29.3493 14.5619 29.4885 13.9755 29.3808 13.3741L25.1247 13.4966C24.5051 13.5366 24.0015 14.0499 24.1059 14.7775L25.7025 15.0326L25.4608 24.1415L19.4511 13.6272L14.885 13.8005C14.0239 13.8364 13.6917 14.6815 13.7995 15.2828L15.3355 15.469L14.9906 28.4658L13.8743 28.7592C13.4378 28.8714 13.2966 29.5299 13.4132 29.7993L17.6691 29.6821C19.2087 29.7356 19.2402 28.5478 19.2402 28.5478L17.3422 28.0169L17.6031 18.1847L23.3695 28.5584C24.0796 29.572 24.3181 29.9124 25.3067 29.9468C25.9197 29.9681 26.6624 29.7286 27.4786 29.2921L27.8638 14.7819L28.7907 14.6146Z" fill="#1E4637"/>
</svg>
