<svg width="5" height="8" viewBox="0 0 5 8" fill="none" xmlns="http://www.w3.org/2000/svg">
<path fill-rule="evenodd" clip-rule="evenodd" d="M0.183535 0.167842C0.241566 0.114638 0.310505 0.0724268 0.386403 0.0436257C0.4623 0.0148246 0.543665 0 0.625837 0C0.70801 0 0.789374 0.0148246 0.865272 0.0436257C0.941169 0.0724268 1.01011 0.114638 1.06814 0.167842L4.81646 3.59567C4.87464 3.64874 4.9208 3.71178 4.95229 3.78119C4.98379 3.8506 5 3.925 5 4.00015C5 4.0753 4.98379 4.1497 4.95229 4.21911C4.9208 4.28852 4.87464 4.35156 4.81646 4.40463L1.06814 7.83246C0.950834 7.93973 0.791733 8 0.625837 8C0.459942 8 0.300841 7.93973 0.183535 7.83246C0.066229 7.72518 0.000327083 7.57969 0.000327083 7.42797C0.000327083 7.27626 0.066229 7.13077 0.183535 7.02349L3.49081 4.00015L0.183535 0.976809C0.125357 0.923739 0.0791993 0.860695 0.0477053 0.791287C0.0162113 0.72188 0 0.647471 0 0.572325C0 0.497179 0.0162113 0.422771 0.0477053 0.353363C0.0791993 0.283955 0.125357 0.220911 0.183535 0.167842Z" fill="#1F4637"/>
</svg>
