<svg width="16" height="16" viewBox="0 0 16 16" fill="none" xmlns="http://www.w3.org/2000/svg">
<path fill-rule="evenodd" clip-rule="evenodd" d="M10.9167 9.66667H10.2583L10.025 9.44167C10.8417 8.49167 11.3333 7.25833 11.3333 5.91667C11.3333 2.925 8.90833 0.5 5.91667 0.5C2.925 0.5 0.5 2.925 0.5 5.91667C0.5 8.90833 2.925 11.3333 5.91667 11.3333C7.25833 11.3333 8.49167 10.8417 9.44167 10.025L9.66667 10.2583V10.9167L13.8333 15.075L15.075 13.8333L10.9167 9.66667ZM5.91602 9.66699C3.84102 9.66699 2.16602 7.99199 2.16602 5.91699C2.16602 3.84199 3.84102 2.16699 5.91602 2.16699C7.99101 2.16699 9.66601 3.84199 9.66601 5.91699C9.66601 7.99199 7.99101 9.66699 5.91602 9.66699Z" fill="#1E4637"/>
</svg>
