<svg width="112" height="96" viewBox="0 0 112 96" fill="none" xmlns="http://www.w3.org/2000/svg">
<path d="M44.4865 14.8273L55.0089 17.6073L65.3802 11.5117L72.389 17.8661L84.322 15.4192L86.4296 24.0876L97.5642 25.7773L94.3527 35.0435L102.481 40.5301L94.5867 48.562L98.1011 56.7616L87.0862 61.9631L85.2911 71.2517L73.3366 72.5971L66.586 81.1341L56.0635 78.3541L45.6923 84.4497L38.6834 78.0953L26.7505 80.5422L24.6429 71.8738L13.5083 70.1841L16.7197 60.9179L8.59128 55.4313L16.4857 47.3994L12.9714 39.1998L23.9862 33.9984L25.7814 24.7097L37.7359 23.3643L44.4865 14.8273Z" fill="#F87F5B"/>
<path d="M46.059 53.773C46.0945 54.8444 45.9092 55.8117 45.5029 56.6748C45.0967 57.538 44.5204 58.2717 43.7739 58.8759C43.0275 59.4801 42.144 59.9523 41.1233 60.2925C39.6305 60.79 38.2316 60.9093 36.9267 60.6503C35.637 60.3862 34.5021 59.7743 33.5222 58.8146C32.5575 57.8498 31.806 56.5601 31.2679 54.9454C30.7297 53.3307 30.5571 51.848 30.7501 50.4974C30.9583 49.1416 31.4991 47.9713 32.3725 46.9862C33.2612 45.9961 34.4367 45.2574 35.899 44.77C36.9349 44.4247 37.9199 44.2572 38.8542 44.2674C39.7834 44.2624 40.6365 44.4604 41.4133 44.8616C42.2004 45.2424 42.8757 45.8213 43.4392 46.5982L40.9867 48.7612C40.4231 47.9335 39.8112 47.4181 39.1512 47.215C38.486 46.9966 37.7345 47.027 36.8967 47.3063C36.0741 47.5804 35.4165 48.0196 34.924 48.6239C34.4467 49.223 34.1699 49.9669 34.0937 50.8554C34.0124 51.7288 34.1596 52.7291 34.5354 53.8563C34.906 54.9684 35.3731 55.862 35.9367 56.5374C36.5155 57.2077 37.1756 57.6393 37.9169 57.8323C38.6582 58.0252 39.4707 57.9745 40.3542 57.68C41.1768 57.4059 41.8115 56.9489 42.2583 56.3091C42.7204 55.6643 42.9236 54.8519 42.8677 53.8719L46.059 53.773ZM53.4385 47.8353C53.2202 47.1803 52.8597 46.7335 52.357 46.4948C51.8695 46.2511 51.3212 46.2307 50.7118 46.4338C50.1482 46.6217 49.7014 46.9314 49.3713 47.363C49.0412 47.7946 48.8889 48.3785 48.9143 49.1147L45.9667 49.1832C45.8906 48.0915 46.1851 47.0963 46.8503 46.1976C47.5307 45.2938 48.6098 44.5956 50.0874 44.1032C51.0928 43.7681 52.022 43.6361 52.875 43.7072C53.723 43.7631 54.4567 44.0348 55.0761 44.5223C55.7108 45.0047 56.1855 45.7181 56.5003 46.6625L58.0463 51.301C58.2392 51.8799 58.6099 52.0779 59.1583 51.8951C59.4172 51.8088 59.6483 51.6895 59.8514 51.5372L60.3159 53.5403C59.9859 53.8704 59.5238 54.1344 58.9297 54.3324C58.3965 54.5101 57.8862 54.5786 57.3988 54.538C56.9113 54.4973 56.4848 54.3348 56.1192 54.0505C55.7486 53.7509 55.4693 53.3193 55.2815 52.7556L55.251 52.6642L55.7689 52.3901C55.8705 52.9994 55.7841 53.5782 55.5099 54.1266C55.2306 54.6598 54.8295 55.132 54.3065 55.5432C53.7987 55.9494 53.2325 56.2566 52.608 56.4648C51.8311 56.7237 51.1227 56.8328 50.483 56.7922C49.8381 56.7363 49.2872 56.5306 48.8302 56.1752C48.3732 55.8197 48.0331 55.3069 47.8097 54.6366C47.5253 53.7836 47.5685 52.9991 47.9392 52.2831C48.3048 51.552 48.965 50.9173 49.9196 50.3791L53.9259 48.0791L54.5504 50.0289L51.9912 51.4912C51.5088 51.7704 51.161 52.0472 50.9477 52.3213C50.7446 52.5752 50.7091 52.9002 50.8411 53.2962C50.968 53.6771 51.2015 53.9208 51.5417 54.0274C51.8972 54.129 52.2729 54.1138 52.669 53.9818C52.9889 53.8752 53.2885 53.733 53.5677 53.5553C53.847 53.3776 54.0806 53.1643 54.2685 52.9155C54.4564 52.6668 54.5706 52.3748 54.6112 52.0397C54.6519 51.7045 54.6037 51.3313 54.4666 50.92L53.4385 47.8353ZM62.0194 53.0741L58.2116 41.6493L60.9307 40.743L61.8827 42.9138C61.9233 42.0201 62.162 41.2635 62.5987 40.6441C63.0506 40.0196 63.7184 39.5601 64.6019 39.2656C64.8608 39.1793 65.1046 39.1234 65.3331 39.0981C65.5616 39.0727 65.757 39.0752 65.9195 39.1057L66.4297 41.8552C66.2571 41.8451 66.0514 41.8629 65.8128 41.9085C65.5894 41.9492 65.3025 42.0278 64.9521 42.1446C64.4951 42.2969 64.0915 42.5584 63.7411 42.9291C63.3856 43.2845 63.147 43.7364 63.0251 44.2848C62.8981 44.8179 62.9489 45.4272 63.1774 46.1127L65.1498 52.0308L62.0194 53.0741ZM76.3562 48.5496C75.1528 48.9507 74.023 49.0649 72.9669 48.8923C71.926 48.7145 71.0146 48.2651 70.2326 47.544C69.4507 46.823 68.8516 45.8379 68.4353 44.5888C68.0189 43.3397 67.9073 42.1921 68.1003 41.1461C68.2933 40.1002 68.7452 39.1964 69.4561 38.4347C70.1822 37.668 71.1089 37.0968 72.2362 36.7211C73.3939 36.3353 74.4551 36.2439 75.4198 36.4471C76.3795 36.635 77.2071 37.0615 77.9028 37.7267C78.5933 38.3767 79.1086 39.212 79.4488 40.2326C79.5503 40.5373 79.6392 40.8292 79.7153 41.1085C79.7915 41.3878 79.8499 41.6391 79.8905 41.8625L70.7735 44.9012L70.05 42.7304L77.796 40.1487L76.4707 41.1998C76.1509 40.2401 75.6838 39.5749 75.0694 39.2042C74.4702 38.8284 73.7746 38.7726 72.9825 39.0366C72.4036 39.2295 71.9466 39.5341 71.6115 39.9505C71.2916 40.3618 71.1164 40.8771 71.0859 41.4966C71.0503 42.1008 71.1696 42.8143 71.4438 43.6368C71.7129 44.4442 72.0505 45.0764 72.4567 45.5334C72.8731 45.9701 73.3377 46.2468 73.8505 46.3636C74.3786 46.4754 74.9473 46.4297 75.5566 46.2266C76.2268 46.0032 76.7245 45.6935 77.0494 45.2974C77.3744 44.9014 77.575 44.4368 77.6512 43.9037L80.4617 44.0332C80.4159 44.7086 80.2128 45.3433 79.8523 45.9373C79.507 46.5263 79.0296 47.0493 78.4203 47.5063C77.8211 47.9429 77.1331 48.2907 76.3562 48.5496Z" fill="white"/>
</svg>
