<svg width="102" height="81" viewBox="0 0 102 81" fill="none" xmlns="http://www.w3.org/2000/svg">
<path d="M54.6327 5.3373L62.9982 12.2992L74.9733 11.1512L78.6448 19.8703L90.4953 22.6892L88.7469 31.4371L98.1276 37.6691L91.3049 44.7136L96.3576 53.1186L85.8105 57.0675L85.5353 65.9842L73.3542 66.0499L67.8059 73.7127L56.4008 69.8862L46.6775 74.7757L38.3119 67.8138L26.3369 68.9618L22.6654 60.2428L10.8148 57.4238L12.5633 48.6759L3.18257 42.444L10.0053 35.3995L4.95255 26.9945L15.4996 23.0456L15.7749 14.1288L27.956 14.0631L33.5042 6.40029L44.9094 10.2269L54.6327 5.3373Z" fill="#F87F5B"/>
<path d="M39.0941 30.0137C40.3065 30.1526 41.3196 30.4788 42.1336 30.9923C42.9493 31.4898 43.5446 32.1479 43.9195 32.9666C44.3122 33.7712 44.4473 34.7079 44.3249 35.7767C44.2024 36.8455 43.858 37.7354 43.2917 38.4463C42.7432 39.1431 42.0145 39.6495 41.1055 39.9656C40.1984 40.2657 39.1386 40.3463 37.9263 40.2074L34.6001 39.8263L33.9587 45.4257L30.6565 45.0474L32.4658 29.2544L39.0941 30.0137ZM37.7226 37.5416C38.7116 37.6549 39.4772 37.5325 40.0192 37.1744C40.5631 36.8003 40.8816 36.2065 40.9748 35.3929C41.0699 34.5634 40.8939 33.9129 40.4469 33.4415C39.9999 32.9701 39.2818 32.6777 38.2928 32.5644L35.4692 32.2409L34.899 37.2181L37.7226 37.5416ZM53.0067 39.8745C53.0853 39.1885 52.9471 38.6312 52.5922 38.2027C52.2532 37.776 51.7646 37.526 51.1265 37.4529C50.5363 37.3853 50.0005 37.4775 49.5191 37.7294C49.0377 37.9813 48.6531 38.4464 48.3653 39.1245L45.6643 37.9423C46.0561 36.9205 46.7432 36.1427 47.7256 35.6087C48.724 35.0766 49.9968 34.8992 51.5442 35.0765C52.5971 35.1971 53.4952 35.4697 54.2385 35.8943C54.9836 36.3029 55.5341 36.8589 55.8898 37.5623C56.2616 38.2675 56.3908 39.1147 56.2775 40.1037L55.721 44.9613C55.6515 45.5675 55.904 45.9034 56.4782 45.9692C56.7494 46.0003 57.0092 45.9897 57.2577 45.9373L56.8332 47.9493C56.3947 48.1092 55.8644 48.1535 55.2422 48.0822C54.6839 48.0183 54.1923 47.865 53.7676 47.6224C53.3429 47.3798 53.0248 47.0524 52.8134 46.6403C52.6039 46.2123 52.5329 45.7031 52.6005 45.1129L52.6115 45.0171L53.1967 44.9872C53.0316 45.5825 52.709 46.0708 52.2289 46.4521C51.7507 46.8176 51.1877 47.0763 50.5399 47.2284C49.9082 47.3822 49.2652 47.4217 48.6112 47.3468C47.7976 47.2536 47.1094 47.0535 46.5466 46.7466C45.9856 46.4237 45.573 46.0048 45.3087 45.4896C45.0445 44.9745 44.9526 44.366 45.033 43.6641C45.1354 42.7707 45.5057 42.0778 46.1439 41.5852C46.784 41.0767 47.6504 40.78 48.7429 40.6951L53.3457 40.3012L53.0888 42.3324L50.1515 42.5777C49.5963 42.6272 49.1642 42.7313 48.8551 42.8898C48.5638 43.0342 48.3944 43.3138 48.3469 43.7286C48.3012 44.1274 48.4101 44.4469 48.6735 44.6872C48.9528 44.9293 49.2999 45.0741 49.7146 45.1216C50.0496 45.16 50.3812 45.1576 50.7094 45.1144C51.0376 45.0712 51.3394 44.9765 51.6147 44.8302C51.89 44.684 52.1169 44.4675 52.2952 44.1809C52.4735 43.8942 52.5873 43.5356 52.6366 43.1048L53.0067 39.8745ZM70.4438 37.4842L64.1545 49.6366C63.6473 50.6775 63.1179 51.4896 62.5662 52.0729C62.0305 52.658 61.4351 53.0585 60.7801 53.2743C60.141 53.492 59.3987 53.5524 58.5532 53.4556C57.9311 53.3843 57.3659 53.2387 56.8577 53.0189C56.3637 52.8169 55.939 52.5742 55.5835 52.2911L56.5489 50.0016C56.8245 50.2757 57.1244 50.4797 57.4484 50.6138C57.7706 50.7639 58.1471 50.8636 58.5778 50.9129C59.0245 50.9641 59.4183 50.9122 59.7593 50.7573C60.1162 50.6043 60.4393 50.2534 60.7284 49.7047L61.2531 48.7224L60.2934 45.4608L57.6658 36.0203L61.303 36.437L62.7538 43.876L63.1018 46.3402L64.1342 43.8887L67.1177 37.1031L70.4438 37.4842Z" fill="white"/>
</svg>
