<svg width="105" height="86" viewBox="0 0 105 86" fill="none" xmlns="http://www.w3.org/2000/svg">
<path d="M46.145 8.33784L56.1641 12.5886L67.298 8.03269L73.3301 15.3208L85.4899 14.5989L86.341 23.4792L97.1213 26.7379L92.6225 35.452L99.8864 42.0407L90.9282 48.8661L93.2385 57.4827L81.595 61.0618L78.4949 70L66.4706 69.6285L58.5727 77.1167L48.5536 72.866L37.4197 77.4219L31.3876 70.1338L19.2278 70.8557L18.3767 61.9754L7.59636 58.7166L12.0952 50.0025L4.8313 43.4138L13.7895 36.5885L11.4792 27.9719L23.1227 24.3928L26.2228 15.4546L38.2471 15.826L46.145 8.33784Z" fill="#F87F5B"/>
<path d="M42.966 35.0738L45.7926 50.7168L42.5218 51.3078L39.6952 35.6648L42.966 35.0738ZM32.7981 36.911L35.6246 52.554L32.3538 53.145L29.5273 37.502L32.7981 36.911ZM42.5623 41.7795L43.0377 44.4104L32.7987 46.2605L32.3233 43.6296L42.5623 41.7795ZM48.2552 36.2719C47.5758 36.3947 47.0445 36.3438 46.6613 36.1193C46.2752 35.8791 46.0308 35.4745 45.928 34.9057C45.8223 34.3211 45.9097 33.8566 46.1902 33.5122C46.4677 33.152 46.9463 32.9105 47.6257 32.7878C48.3051 32.665 48.8379 32.7237 49.224 32.964C49.6072 33.1885 49.8516 33.593 49.9572 34.1776C50.06 34.7465 49.9726 35.211 49.6951 35.5712C49.4146 35.9155 48.9347 36.1491 48.2552 36.2719ZM50.1753 37.6872L52.3166 49.5379L49.0695 50.1247L46.9282 38.2739L50.1753 37.6872ZM55.2847 49.0016L53.1434 37.1509L55.9638 36.6412L56.5968 38.9254C56.7644 38.0467 57.1084 37.3319 57.6289 36.7809C58.1652 36.2272 58.8916 35.8675 59.8081 35.7019C60.0767 35.6533 60.3259 35.6328 60.5557 35.6402C60.7854 35.6477 60.9786 35.678 61.1351 35.7313L61.2483 38.5255C61.0789 38.4909 60.8728 38.4792 60.6301 38.4904C60.4032 38.4988 60.108 38.5358 59.7446 38.6014C59.2705 38.6871 58.8337 38.8884 58.4341 39.2054C58.0317 39.5065 57.7311 39.9198 57.5323 40.4452C57.3307 40.9548 57.2941 41.5652 57.4226 42.2762L58.5318 48.4149L55.2847 49.0016ZM70.1198 46.5658C68.8716 46.7914 67.737 46.7435 66.7163 46.4221C65.7113 46.0978 64.8732 45.5232 64.202 44.6981C63.5307 43.873 63.0781 42.8126 62.844 41.5169C62.6098 40.2212 62.6628 39.0695 63.0028 38.0617C63.3429 37.0538 63.919 36.2236 64.7311 35.5711C65.5591 34.9156 66.5577 34.4823 67.727 34.271C68.9278 34.054 69.9913 34.1148 70.9172 34.4533C71.8403 34.776 72.5988 35.3161 73.1925 36.0736C73.7834 36.8153 74.1745 37.7155 74.3658 38.7742C74.4229 39.0902 74.4692 39.3919 74.5048 39.6791C74.5404 39.9664 74.5624 40.2235 74.5708 40.4504L65.1138 42.1592L64.707 39.9076L72.7418 38.4557L71.2803 39.3072C71.1004 38.3118 70.7328 37.5868 70.1775 37.1324C69.638 36.6751 68.9575 36.5207 68.1358 36.6691C67.5354 36.7776 67.0396 37.0141 66.6486 37.3784C66.2734 37.7399 66.0265 38.2251 65.9081 38.8339C65.7868 39.4269 65.8032 40.15 65.9574 41.0033C66.1087 41.8407 66.3529 42.5146 66.6898 43.0248C67.0397 43.5163 67.4601 43.8565 67.9511 44.0451C68.4579 44.2309 69.0273 44.2668 69.6593 44.1525C70.3546 44.0269 70.8912 43.7913 71.2693 43.4456C71.6474 43.0999 71.9121 42.6686 72.0635 42.1517L74.8268 42.6804C74.6854 43.3423 74.3939 43.9416 73.9524 44.4782C73.5267 45.012 72.9797 45.4617 72.3115 45.8272C71.6563 46.174 70.9257 46.4202 70.1198 46.5658Z" fill="white"/>
</svg>
