<svg width="363" height="295" viewBox="0 0 363 295" fill="none" xmlns="http://www.w3.org/2000/svg">
<path d="M331.303 180.287C339.359 155.731 326.508 127.387 299.761 102.763C278.701 83.3667 249.013 66.2236 214.158 55.1701C135.056 29.967 59.258 45.1312 44.8465 89.0186C32.6802 126.074 68.161 171.757 127.093 200.261C114.297 195.651 101.044 192.383 87.5501 190.508C26.4627 182.17 -26.996 202.833 -31.8314 236.748C-34.6059 255.746 -21.4103 274.834 1.42434 289.422" stroke="black" stroke-width="4.13002" stroke-miterlimit="10" stroke-linecap="round"/>
<path d="M353.146 168.313C353.146 168.313 333.536 168.385 328.659 189.254C333.523 168.388 316.052 159.299 316.052 159.299" stroke="black" stroke-width="4.13002" stroke-linecap="round" stroke-linejoin="round"/>
</svg>
