<svg width="114" height="86" viewBox="0 0 114 86" fill="none" xmlns="http://www.w3.org/2000/svg">
<path d="M26.775 85.3C21.0917 85.3 16.2333 83.925 12.2 81.175C8.35 78.2417 5.41667 74.3917 3.4 69.625C1.38333 64.8583 0.375 59.725 0.375 54.225C0.375 46.525 1.93333 39.2833 5.05 32.5C8.16667 25.5333 12.2917 19.3 17.425 13.8C22.7417 8.29999 28.7917 3.99166 35.575 0.874986L51.8 13.8C46.85 15.6333 42.2667 18.1083 38.05 21.225C34.0167 24.1583 30.5333 27.4583 27.6 31.125C24.85 34.7917 22.7417 38.55 21.275 42.4L22.65 43.225C23.5667 42.4917 24.6667 41.9417 25.95 41.575C27.2333 41.2083 29.0667 41.025 31.45 41.025C34.3833 41.025 37.3167 41.85 40.25 43.5C43.1833 44.9667 45.6583 47.2583 47.675 50.375C49.6917 53.3083 50.7 57.0667 50.7 61.65C50.7 66.6 49.6 70.8167 47.4 74.3C45.2 77.7833 42.2667 80.5333 38.6 82.55C35.1167 84.3833 31.175 85.3 26.775 85.3ZM88.375 85.3C82.6917 85.3 77.8333 83.925 73.8 81.175C69.95 78.2417 67.0167 74.3917 65 69.625C62.9833 64.8583 61.975 59.725 61.975 54.225C61.975 46.525 63.5333 39.2833 66.65 32.5C69.7667 25.5333 73.8917 19.3 79.025 13.8C84.3417 8.29999 90.3917 3.99166 97.175 0.874986L113.675 13.8C108.725 15.6333 104.142 18.1083 99.925 21.225C95.7083 24.1583 92.1333 27.4583 89.2 31.125C86.45 34.7917 84.3417 38.55 82.875 42.4L84.25 43.225C85.1667 42.4917 86.2667 41.9417 87.55 41.575C88.8333 41.2083 90.6667 41.025 93.05 41.025C95.9833 41.025 98.9167 41.85 101.85 43.5C104.783 44.9667 107.258 47.2583 109.275 50.375C111.292 53.3083 112.3 57.0667 112.3 61.65C112.3 66.6 111.2 70.8167 109 74.3C106.983 77.7833 104.142 80.5333 100.475 82.55C96.8083 84.3833 92.775 85.3 88.375 85.3Z" fill="#4B1937"/>
</svg>
