<svg width="214" height="58" viewBox="0 0 214 58" fill="none" xmlns="http://www.w3.org/2000/svg">
<g clip-path="url(#clip0_578_5155)">
<path d="M4 58C1.79086 58 -7.8281e-08 56.2091 -1.74846e-07 54L-2.36041e-06 4.00001C-2.45698e-06 1.79087 1.79086 7.55111e-06 4 7.45455e-06L214 -1.72484e-06L214 58L4 58Z" fill="#FAC8E1"/>
<path d="M-127.912 169.824L-127.607 165.879L-80.2626 141.184L-24.5434 127.065L-1.78214 116.414L22.6281 101.334L30.0232 79.7584L41.6724 52.8317L48.1288 15.7421L58.5123 -17.5004L65.0756 -48.6071L100.967 -76.5638L121.971 -81.3288L160.389 -76.3811L221.305 -83.9118L229.646 -82.6613L246.18 -85.8066L239.16 -83.6792L179.337 -71.5448L140.445 -74.747L112.083 -70.3329L89.9556 -65.7801L72.3227 -39.8614L59.1193 -11.6728L54.4061 22.5967L38.5808 69.6182L32.7604 95.9522L7.46835 118.801L-2.55846 126.099L-37.2482 131.616L-101.618 156.976L-127.912 169.824Z" fill="#1E4637"/>
<path d="M-121.964 173.943L-128.006 170.799L-129.809 170.844L-126.749 172.697L-56.8936 140.421L-8.8047 132.608L10.2859 123.766L35.5074 102.587L38.9814 84.4252L49.3581 57.7774L56.7387 16.7571L66.7929 -9.77171L74.6698 -37.6837L110.379 -62.9195L125.172 -68.6153L155.189 -66.5598L209.426 -73.2098L249.743 -79.3672L250.951 -75.5791L247.691 -77.0282L191.684 -63.5054L150.893 -64.2967L122.291 -58.2242L99.9709 -53.3568L80.1602 -26.8735L65.6341 1.58575L59.0373 39.3083L45.3118 81.1714L39.886 107.904L16.5101 128.166L-0.197708 136.376L-36.8043 139.473L-120.292 173.025L-121.964 173.943Z" fill="#1E4637"/>
<path d="M-108.341 173.897L-115.662 170.777L-115.563 170.277L-76.7296 156.957L-6.06162 138.698L15.2782 138.312L29.1866 127.84L45.0825 110.002L49.2235 84.1119L71.1075 10.4571L80.276 -21.6993L102.609 -43.078L121.646 -55.1274L153.608 -56.5023L198.087 -63.3016L236.988 -66.5357L249.571 -73L247.821 -66.9033L249.063 -64.8743L189.42 -57.8416L148.673 -50.5981L122.632 -48.4789L95.9267 -27.1328L75.7191 2.75127L62.9186 58.7064L52.8053 91.7548L49.1666 117.084L23.5711 139.459L5.19302 146.124L-19.9275 144.84L-99.4377 169.605L-108.341 173.897Z" fill="#1E4637"/>
<path d="M249.881 -63.668L247.827 -57.672L248.893 -55.6264L204.715 -51.1615L161.028 -42.2832L131.806 -38.9536L88.2964 7.75255L76.5326 30.904L68.9349 72.7345L60.2467 106.974L57.6742 131.595L41.0832 148.33L32.8633 154.8L10.7797 153.28L-20.5422 156.264L-93.5672 170.384L-93.7061 173.947L-101.75 170.772L-101.654 170.377L-89.4922 168.548L-33.8025 150.199L1.08527 151.089L24.3413 145.845L40.6879 141.833L50.5872 121.142L59.6745 97.5246L62.6295 64.12L76.9264 23.8493L83.0793 -2.10802L128.407 -40.9834L153.76 -49.6563L201.638 -52.024L240.356 -61.7216L249.881 -63.668Z" fill="#1E4637"/>
<path d="M249.744 -54.6758L247.827 -48.4047L248.764 -46.4993L198.133 -41.8479L161.719 -32.7271L134.011 -27.7597L96.8879 13.5842L84.6187 35.8095L77.4649 74.9517L70.0789 110.284L69.918 137.739L63.1179 150.851L48.6457 168.147L40.2239 166.018L12.5217 166.907L-15.7625 161.044L-68.1784 171.371L-76.5129 170.784L-86.2051 173.948L-84.7101 173.419L-69.3098 164.847L0.899063 160.553L27.2125 158.815L42.0391 160.14L58.2347 140.321L65.7967 123.96L66.9691 92.374L81.625 39.5408L90.3617 7.35789L122.001 -24.7773L146.016 -37.7885L186.543 -41.5766L237.524 -52.3338L249.744 -54.6758Z" fill="#1E4637"/>
<path d="M91.2037 -85.8398L90.1648 -85.4806L64.5905 -55.9421L53.4322 -30.4539L48.813 8.24028L34.8516 50.1268L28.7336 78.7566L14.5111 97.5963L-4.84663 115.723L-34.493 122.603L-92.6368 146.246L-128.142 159.121L-129.959 161.41L-126.87 157.464L-128.277 155.35L-101.717 146.515L-41.5807 120.475L-9.16302 111.566L5.68556 98.0434L24.3194 75.5188L30.1755 49.5258L43.7674 10.5004L48.1308 -31.8568L58.3504 -60.5662L68.6246 -84.8326L70.1643 -82.6566L91.2037 -85.8398Z" fill="#1E4637"/>
<path d="M61.6895 173.942L64.4874 172.166L67.4894 162.261L75.0264 144.564L74.4246 114.645L81.2437 77.6172L89.1776 35.9444L101.706 14.6377L135.887 -22.9538L166.215 -29.1407L204.353 -38.7163L248.656 -42.1853L250.956 -44.1816L247.826 -39.3802L248.747 -37.3558L217.819 -36.1742L170.834 -25.2093L139.642 -18.4706L106.217 17.6027L85.6998 62.6164L83.3579 103.803L78.5331 143.504L77.668 173.35L61.6895 173.942Z" fill="#1E4637"/>
<path d="M47.6461 -84.9668L57.4217 -83.313L56.4291 -75.6012L47.3046 -54.1679L42.9951 -8.58035L27.6934 43.8694L21.1885 71.006L2.28986 93.9127L-13.6287 108.4L-46.5579 118.355L-114.417 148.892L-128.71 152.258L-129.979 149.398L-126.662 150.844L-101.492 136.049L-45.5258 117.069L-16.8546 100.634L18.0142 65.4459L22.1978 45.6611L34.9405 12.7718L38.8388 -35.4176L47.6461 -84.9668Z" fill="#1E4637"/>
<path d="M250.209 -35.959L248.923 -31.3569L225.216 -25.4095L176.344 -20.4693L147.906 -7.48612L118.478 11.7014L107.976 35.7033L92.4262 71.9449L92.0263 109.496L90.0669 159.152L93.5766 173.099L86.2301 171.96L83.8223 146.475L87.6765 101.811L88.9802 66.4408L106.287 27.567L127.776 -5.34727L156.567 -16.6805L197.85 -29.2211L242.869 -32.2452L250.209 -35.959Z" fill="#1E4637"/>
<path d="M105.565 172.356L99.5761 171.844L94.4258 149.222L96.5354 97.2517L98.9364 62.175L114.322 32.6987L136.288 1.32295L163.146 -8.82715L208.648 -22.3326L240.072 -22.9313L250.04 -26.7793L248.102 -21.2601L245.777 -18.5286L188.073 -14.0553L155.533 -0.143623L125.279 19.4062L113.375 45.9979L98.4493 88.7827L101.117 128.917L105.565 172.356Z" fill="#1E4637"/>
<path d="M33.7817 -84.7559L41.7315 -82.6754L43.4739 -82.9747L36.8688 -58.8008L34.0868 -5.83421L10.997 62.1931L-7.25887 92.081L-28.9281 101.979L-62.7732 120.148L-129.03 144.985L-129.979 142.029L-126.671 143.511L-103.457 129.816L-48.1333 109.689L-21.3243 91.8142L9.38821 61.1449L12.7037 45.8023L30.31 -9.92017L31.3701 -57.5563L33.7817 -84.7559Z" fill="#1E4637"/>
<path d="M115.6 172.41L110.259 171.543L105.467 160.923L104.572 106.745L104.309 76.2642L125.59 32.451L144.436 8.02396L165.641 0.406842L206.604 -13.3313L249.268 -14.2324L249.566 -9.00958L195.62 -6.62743L164.183 6.51646L136.08 22.2464L114.18 68.5251L105.774 105.037L111.363 145.2L115.6 172.41Z" fill="#1E4637"/>
<path d="M22.7094 -84.5527L29.2599 -82.7451L31.3118 -82.2668L27.1912 -65.1204L27.0326 -15.0354L18.0136 18.6308L7.63846 54.5919L-22.9162 87.3584L-45.1675 104.133L-91.3244 121.203L-127.936 140.608L-127.439 136.3L-118.323 129.059L-59.4227 106.519L-31.1871 87.1909L-3.34528 63.7779L6.80296 36.9392L20.9754 -0.954681L21.9005 -52.1182L22.7094 -84.5527Z" fill="#1E4637"/>
<path d="M123.536 173.802L118.492 170.775L116.654 172.212L113.147 122.774L110.357 92.365L125.027 52.5763L154.887 13.0113L185.307 3.54482L249.556 -7.42383L249.266 -1.96224L210.269 3.09614L170.442 10.6943L130.306 52.9545L116.734 80.0071L117.457 122.589L121.012 170.708L123.536 173.802Z" fill="#1E4637"/>
<path d="M13.7475 -85.5723L19.184 -82.6982L21.2177 -83.0681L17.9759 -64.7832L19.3593 -18.2604L11.2653 12.3043L4.6344 39.519L-33.9604 83.984L-62.4669 104.139L-125.42 128.61L-129.367 132.783L-126.898 127.88L-127.838 125.62L-89.5931 112.636L-51.8019 90.1823L-22.787 72.0809L-1.69676 34.4765L13.2406 -2.89584L13.167 -37.6003L16.3223 -81.0513L13.7475 -85.5723Z" fill="#1E4637"/>
<path d="M250.52 3.72337L248.308 9.62835L243.669 11.6459L204.018 10.4825L171.744 24.4942L125.788 80.0484L125.306 114.468L127.108 158.836L133.104 172.55L127.504 170.851L125.138 171.029L124.368 149.392L117.963 102.238L130.013 63.4946L148.853 30.2158L177.253 16.2731L242.899 2.69336L250.52 3.72337Z" fill="#1E4637"/>
<path d="M250.434 28.5907L249.378 36.2867L232.282 33.9947L191.344 35.1847L147.576 83.9706L138.941 114.091L144.629 147.874L145.868 172.38L141.978 173.202L142.838 162.144L134.373 118.239L140.56 89.0866L174.491 36.7649L231.832 27.2871L250.434 28.5907Z" fill="#1E4637"/>
<path d="M250.34 43.9602L250.001 52.5611L204.435 47.2723L163.119 71.0332L151.267 112.228L148.715 140.819L156.922 172.26L152.727 171.902L143.24 128.527L147.998 99.387L172.421 51.8767L203.254 40.7246L250.34 43.9602Z" fill="#1E4637"/>
<path d="M141.18 172.47L136.707 171.691L130.446 156.256L129.174 111.408L130.732 78.1865L175.618 27.8051L207.21 14.5937L244.581 17.1169L250.764 15.4381L248.292 22.0002L243.392 23.2833L211.046 19.4369L176.332 33.5365L134.301 83.1327L133.541 114.93L134.802 156.859L141.18 172.47Z" fill="#1E4637"/>
<path d="M4.60724 -84.5664L8.96461 -83.8145L12.5783 -67.3229L8.69597 -23.3869L8.62389 1.52295L-6.26114 34.2796L-40.6519 81.9059L-65.6722 93.7393L-114.299 119.882L-128.601 122.305L-129.189 118.448L-92.0031 106.032L-54.7188 82.4493L-9.56521 37.2597L-1.43935 10.8082L8.1754 -29.6724L5.14906 -65.8071L4.60724 -84.5664Z" fill="#1E4637"/>
<path d="M-128.318 117.635L-126.88 112.126L-127.983 109.988L-105.774 104.436L-65.0477 79.5949L-15.756 30.0222L-5.67985 -6.01394L0.693069 -35.2955L-2.9783 -74.9386L-0.229706 -83.6411L2.82924 -85.7891L0.795502 -83.1333L4.68997 -64.0177L0.658142 -20.8184L-9.4066 27.9076L-37.8213 63.5853L-65.7496 88.6354L-115.582 109.312L-128.318 117.635Z" fill="#1E4637"/>
</g>
<defs>
<clipPath id="clip0_578_5155">
<path d="M4 58C1.79086 58 -7.8281e-08 56.2091 -1.74846e-07 54L-2.36041e-06 4.00001C-2.45698e-06 1.79087 1.79086 7.55111e-06 4 7.45455e-06L214 -1.72484e-06L214 58L4 58Z" fill="white"/>
</clipPath>
</defs>
</svg>
