<svg width="313" height="300" viewBox="0 0 313 300" fill="none" xmlns="http://www.w3.org/2000/svg">
<path d="M268.65 94.4991C242.356 71.6961 203.89 62.6955 170.144 70.7786C137.568 78.5776 106.841 104.515 96.0832 136.601C86.5264 165.088 95.1275 196.542 119.858 214.277C139.152 228.108 166.86 237.815 190.776 233.834C205.047 231.451 218.93 222.639 224.062 209.118C228.439 197.595 225.973 184.514 221.246 173.137C209.3 144.374 183.3 122.603 153.858 112.452C99.5113 93.7087 41.7446 113.007 -6.99897 138.243" stroke="black" stroke-width="4.13" stroke-linecap="round" stroke-linejoin="round"/>
<path d="M251.186 64.6533C251.813 71.0662 254.034 77.2205 257.647 82.556C261.497 88.2118 265.772 92.7234 268.662 94.4916C266.896 93.194 263.081 89.0159 256.45 87.999C246.092 86.3571 238.696 93.4258 237.811 94.2866" stroke="black" stroke-width="4.13" stroke-linecap="round" stroke-linejoin="round"/>
</svg>
