<svg width="147" height="147" viewBox="0 0 147 147" fill="none" xmlns="http://www.w3.org/2000/svg">
<path d="M49.8495 23.2381L63.2879 33.0186L70.695 18.1397L79.3676 32.3183L91.9048 21.4066L94.4913 37.8248L110.25 32.5414L106.357 48.6997L122.937 49.8491L113.157 63.2875L128.036 70.6946L113.857 79.3672L124.769 91.9044L108.351 94.4909L113.634 110.25L97.4758 106.356L96.3265 122.937L82.8881 113.157L75.481 128.035L66.8084 113.857L54.2712 124.769L51.6847 108.35L35.926 113.634L39.8195 97.4754L23.2385 96.3261L33.019 82.8877L18.1401 75.4806L32.3188 66.808L21.407 54.2707L37.8252 51.6843L32.5418 35.9256L48.7001 39.819L49.8495 23.2381Z" fill="#F87F5B"/>
<path d="M49.1521 80.4018L43.2148 73.9943L39.9157 75.5323L44.0564 84.4146L45.909 83.5509L42.3539 75.9249L48.4341 82.3738L51.1368 81.1139L50.1068 72.3107L53.6619 79.9367L55.5272 79.0672L51.3865 70.1849L48.0747 71.7288L49.1521 80.4018ZM59.3169 77.3005L55.1762 68.4182L53.311 69.2878L57.4516 78.1701L59.3169 77.3005ZM65.0839 74.7666C67.1776 73.7905 68.1196 72.1002 67.4039 70.5649C65.8541 67.2403 60.6764 71.0442 59.7655 69.0901C59.4638 68.443 59.8337 67.7454 60.8234 67.284C62.2319 66.6274 63.6543 67.061 64.4783 68.5304L65.6174 66.9645C64.412 65.2404 62.2588 64.9621 60.1905 65.9263C58.1476 66.8786 57.2436 68.5512 57.9594 70.0866C59.6038 73.6141 64.7282 69.696 65.5919 71.5486C65.8876 72.183 65.505 72.8866 64.5407 73.3361C63.0434 74.0341 61.4298 73.7205 60.4416 72.2967L59.2958 73.8812C60.7262 75.6241 62.9903 75.7426 65.0839 74.7666ZM73.758 70.7229C75.8517 69.7469 76.7937 68.0566 76.078 66.5212C74.5282 63.1967 69.3505 67.0006 68.4396 65.0465C68.1379 64.3994 68.5078 63.7017 69.4975 63.2404C70.906 62.5838 72.3284 63.0174 73.1524 64.4868L74.2915 62.9209C73.0861 61.1967 70.9329 60.9184 68.8646 61.8826C66.8217 62.835 65.9177 64.5076 66.6335 66.0429C68.2779 69.5705 73.4023 65.6524 74.2659 67.505C74.5617 68.1394 74.1791 68.8429 73.2148 69.2925C71.7175 69.9905 70.1039 69.6769 69.1157 68.2531L67.9699 69.8376C69.4003 71.5805 71.6643 71.6989 73.758 70.7229ZM80.4569 67.4456L76.3163 58.5633L74.451 59.4329L78.5917 68.3151L80.4569 67.4456ZM86.5919 64.7401C89.3074 63.4742 90.2946 60.8206 89.0287 58.1052C87.7392 55.339 85.0484 54.3382 82.3329 55.6041C79.6175 56.8699 78.6539 59.5743 79.9434 62.3405C81.2093 65.0559 83.8765 66.006 86.5919 64.7401ZM85.8703 63.1921C84.1953 63.9729 82.6537 63.3168 81.796 61.4769C80.9087 59.5735 81.3797 57.9329 83.0546 57.1521C84.7295 56.3713 86.2889 57.0655 87.1762 58.9688C88.0339 60.8087 87.5452 62.4112 85.8703 63.1921ZM98.6904 56.9067L91.4351 51.5154L88.4658 52.8995L92.6065 61.7818L94.4718 60.9123L91.0764 53.6288L98.3419 59.1081L101.349 57.7062L97.2085 48.8239L95.3433 49.6935L98.6904 56.9067ZM51.07 89.0889L55.2107 97.9712L58.4464 96.4628C61.6059 94.9899 62.5914 92.3989 61.3501 89.7029C60.1087 87.0069 57.4779 86.1017 54.2676 87.5983L51.07 89.0889ZM56.3543 95.5536L53.6569 89.7674L55.1923 89.0517C57.0576 88.1821 58.6744 88.834 59.4907 90.5851C60.3011 92.3235 59.7676 93.9624 57.9404 94.8142L56.3543 95.5536ZM68.7502 87.7978C70.2646 86.7057 70.7439 85.2156 70.0282 83.6802C69.206 81.9165 67.5603 81.4016 65.6062 82.3125L60.8098 84.5485L64.9504 93.4308L66.8157 92.5612L65.4375 89.6047L67.3154 88.7292C68.6731 88.0963 69.194 88.5177 70.6478 90.7748L72.8176 89.7633C71.2597 87.6474 70.5275 87.1701 68.7502 87.7978ZM63.3967 85.227L65.9345 84.044C66.9877 83.553 67.7953 83.7944 68.1975 84.6572C68.5998 85.5201 68.1486 86.4409 67.0827 86.9378L64.7099 88.044L63.3967 85.227ZM76.2457 88.1652L72.105 79.283L70.2397 80.1525L74.3804 89.0348L76.2457 88.1652ZM81.1075 84.1533L75.2116 77.8347L73.1306 78.8048L80.3294 86.2615L83.2098 84.9188L82.1271 74.6109L80.0461 75.581L81.1075 84.1533ZM87.4665 78.4858L91.9965 76.3741L91.2748 74.826L86.7448 76.9377L85.7511 74.806L90.6744 72.5109L89.9527 70.9628L83.1641 74.1275L87.3048 83.0098L94.2203 79.786L93.4986 78.2379L88.4484 80.5922L87.4665 78.4858ZM101.902 74.1661L94.6464 68.7748L91.6772 70.159L95.8178 79.0412L97.6831 78.1717L94.2878 70.8882L101.553 76.3675L104.561 74.9656L100.42 66.0833L98.5546 66.9529L101.902 74.1661Z" fill="white"/>
</svg>
