<svg width="1316" height="531" viewBox="0 0 1316 531" fill="none" xmlns="http://www.w3.org/2000/svg">
<path d="M232.813 -42.5488C258.453 -19.3283 284.807 2.93424 314.14 21.5178C336.277 35.5426 358.374 49.5524 381.747 61.487C407.285 74.5238 427.713 93.735 445.979 115.544C464.966 138.206 482.778 161.97 505.584 181.19C520.398 193.674 534.959 206.465 550.019 218.655C588.048 249.461 623.976 282.538 657.803 317.886C679.636 340.852 701.132 364.134 722.293 387.733C730.933 397.37 737.779 408.599 746.224 418.435C769.453 445.487 793.163 472.128 816.497 499.091C819.677 502.767 822.601 507.067 824.249 511.587C828.287 522.669 820.535 532.243 808.787 531.225C805.632 530.951 802.356 530.507 799.438 529.366C790.641 525.93 781.46 523.017 773.386 518.275C748.728 503.785 724.448 488.64 700.154 473.552C678.414 460.038 660.523 442.223 643.875 422.99C621.717 397.382 602.947 369.255 583.228 341.83C563.04 313.753 541.726 286.572 518.978 260.528C506.176 245.87 491.443 233.274 475.912 221.649C445.482 198.909 416.553 174.226 389.307 147.753C359.713 118.959 326.135 95.4198 291.566 73.1573C264.581 55.781 238.689 36.9752 215.835 14.2952C202.303 0.871056 189.009 -12.8354 180.005 -29.8994C177.975 -33.7495 177.303 -38.3083 176.006 -42.5518L232.813 -42.5488Z" fill="#4B1937"/>
<path d="M717.648 -42.5483C752.337 -0.176643 783.514 44.4174 801.756 96.6185C810.31 121.097 817.467 146.087 824.718 171.001C842.537 232.23 866.726 290.978 893.522 348.701C899.258 361.089 905.873 373.05 913.317 384.493C925.236 402.755 932.249 422.958 938.626 443.454C946.757 469.582 956.271 495.07 969.914 518.942C978.452 533.88 985.379 549.637 989.588 566.392C993.383 581.51 993.458 596.769 988.924 611.74C987.403 616.67 984.981 621.275 981.779 625.32C975.669 632.981 966.866 633.603 959.886 626.747C955.4 622.338 951.509 617.065 948.366 611.596C928.671 577.315 910.236 542.46 896.308 505.284C877.901 456.104 861.166 406.425 846.908 355.87C827.591 287.362 799.438 222.616 761.942 162.057C744.705 134.227 725.067 108.067 704.732 82.4435C681.344 52.9764 660.133 22.0498 642.134 -11.0031C636.826 -20.7543 632.361 -30.9651 627.53 -40.9747C627.302 -41.4462 627.281 -42.0168 627.164 -42.5393L717.648 -42.5483Z" fill="#4B1937"/>
<path d="M477.212 -42.5484C500.153 -11.865 523.007 18.8184 550.658 45.6577C573.392 67.722 597.795 87.7171 622.69 107.169C635.3 117.016 646.97 127.812 655.38 141.375C662.298 152.491 668.322 164.14 673.394 176.211C689.006 213.595 707.242 249.573 729.069 283.677C748.191 313.558 768.27 342.704 793.919 367.645C807.4 380.763 820.136 394.674 832.989 408.407C844.247 420.39 853.294 434.273 859.71 449.413C870.696 475.364 881.792 501.267 892.996 527.123C895.044 531.832 898.248 536.024 900.481 540.664C901.733 543.268 902.643 546.283 902.751 549.148C903.033 556.8 896.113 562.182 888.766 560.067C885.647 559.166 882.461 557.788 879.891 555.863C874.709 551.986 869.422 548.055 865.072 543.31C853.462 530.675 841.954 517.903 831.067 504.647C803.605 471.228 776.509 437.508 749.257 403.918C730.669 381.009 711.49 358.57 693.611 335.109C666.813 299.972 645.454 261.468 626.53 221.589C615.722 198.783 603.893 176.56 588.374 156.475C577.292 142.131 565.06 128.845 551.49 116.914C521.857 90.8674 495.589 61.7517 470.37 31.5248C451.371 8.75174 432.931 -14.3546 417.421 -39.6924C416.85 -40.6263 416.328 -41.5964 415.781 -42.5484L477.212 -42.5484Z" fill="#4B1937"/>
<path d="M8.89026 -42.5483C12.5831 -38.7974 16.243 -35.0104 19.9749 -31.3015C34.2551 -17.0652 50.0631 -4.44955 67.1115 6.3162C88.6233 19.8605 109.898 33.8042 131.785 46.7208C163.438 65.3975 192.207 87.5459 218.732 113.022C241.673 135.044 265.734 155.925 289.63 176.899C311.796 196.363 337.484 210.189 364.775 220.896C379.709 226.752 395.144 231.356 410.441 236.251C429.535 242.359 448.537 248.711 466.389 257.946C487.913 269.084 506.392 284.455 523.683 301.146C556.48 332.812 587.687 366.015 617.956 400.134C620.292 402.764 622.333 405.656 624.654 408.302C629.353 413.666 634.19 418.909 638.885 424.276C641.116 426.832 643.452 429.381 645.19 432.255C647.151 435.49 646.451 439.67 644.088 441.697C641.266 444.121 638.477 442.947 635.496 441.697C604.476 428.691 579.616 406.921 554.784 385.109C535.185 367.895 515.871 350.341 495.938 333.508C472.376 313.597 446.886 296.458 418.178 284.77C400.968 277.764 383.299 271.892 365.91 265.315C353.875 260.759 341.906 256.022 330.005 251.104C301.504 239.362 276.807 221.833 255.073 200.222C238.62 183.854 222.341 167.232 206.945 149.868C175.997 114.971 137.66 91.5821 94.658 74.8905C68.9099 64.899 43.1379 54.9285 17.7832 44.027C-16.8548 29.1403 -47.0823 7.74271 -72.0707 -20.6613C-78.2255 -27.6586 -83.7288 -35.2326 -89.5293 -42.5423L8.89026 -42.5483Z" fill="#4B1937"/>
<path d="M1065.75 -42.5485C1066.65 -36.1337 1067.63 -29.7309 1068.41 -23.3012C1070.97 -2.0117 1070.57 19.3769 1069.36 40.6873C1067.48 73.8633 1064.37 106.973 1062.52 140.152C1061.11 165.442 1061.89 190.774 1064 216.042C1067.11 253.225 1070.23 290.404 1071.25 327.733C1072.02 356.338 1072.73 384.964 1074.5 413.516C1076.2 440.868 1075.86 468.095 1073 495.298C1070.15 522.555 1067.06 549.783 1063.76 576.984C1062.63 586.669 1059.02 595.897 1053.28 603.772C1050.43 607.676 1046.97 610.8 1042.3 612.412C1035.67 614.701 1029.86 613.43 1025.93 607.649C1023.14 603.538 1020.99 598.805 1019.47 594.057C1015.5 581.714 1014.78 568.797 1013.51 555.98C1009.66 517.416 1009.9 478.777 1011.98 440.178C1014.01 402.266 1017.86 364.444 1019.64 326.523C1021.09 295.536 1021.89 264.42 1020.79 233.44C1019.06 184.83 1015.66 136.278 1012.63 87.72C1010.46 53.0003 1003.99 18.9774 994.883 -14.577C992.379 -23.8087 990.586 -33.2296 988.467 -42.5635L1065.75 -42.5485Z" fill="#4B1937"/>
<path d="M1193.24 -42.5483C1197.14 -28.3674 1198.77 -13.844 1199.8 0.778378C1202.95 45.8049 1201.21 90.7653 1198.2 135.723C1195.76 172.079 1189.19 207.784 1181.21 243.236C1171.22 287.518 1164.82 332.253 1164.5 377.643C1164.15 426.171 1155.93 473.144 1139.16 518.594C1128.5 547.5 1117.43 576.251 1105.96 604.848C1102.22 614.157 1096.55 622.711 1091.69 631.576C1090.9 632.903 1089.91 634.103 1088.77 635.138C1084.38 639.306 1078.5 639.078 1074.42 634.621C1071.01 630.885 1069.62 626.284 1069 621.407C1067.35 608.262 1068.64 595.144 1070.82 582.273C1074.99 557.647 1079.8 533.138 1084.87 508.695C1091.22 478.063 1095.76 447.166 1099.8 416.162C1105.04 375.901 1114.89 336.632 1126.63 297.837C1134.12 273.097 1142.27 248.549 1147.27 223.121C1153.78 190.038 1159.44 156.892 1158.28 122.929C1157.32 94.9998 1153.12 67.5508 1147.38 40.24C1142.2 15.56 1138.32 -9.34831 1137.55 -34.632C1137.47 -37.2538 1137.68 -39.8845 1137.76 -42.5123L1193.24 -42.5483Z" fill="#4B1937"/>
<path d="M885.424 -42.5484C886.06 -40.1128 886.556 -37.6292 887.355 -35.2507C896.554 -7.92184 907.656 18.5841 924.644 42.0569C932.936 53.514 942.982 63.6797 951.92 74.6983C960.578 85.3686 969.318 96.0208 977.139 107.304C989.149 124.581 994.274 144.615 997.672 165.016C1004.51 206.018 1007.77 247.356 1008.44 288.914C1008.71 305.432 1009.62 321.931 1009.49 338.437C1009.19 375.418 1008.53 412.396 1007.79 449.371C1007.56 460.675 1005.26 471.696 1000.49 482.027C998.933 485.385 996.991 488.706 994.601 491.511C986.966 500.467 974.849 500.548 966.808 491.956C962.461 487.307 959.843 481.622 958.804 475.528C956.507 462.098 953.652 448.623 953.034 435.073C951.106 392.746 949.56 350.383 948.953 308.02C948.548 279.86 950.479 251.675 950.431 223.502C950.407 209.258 949.079 194.9 946.978 180.797C944.036 161.045 936.058 142.855 927.463 124.911C916.09 101.186 901.453 79.4644 887.18 57.5082C873.436 36.3659 859.481 15.3287 849.561 -7.96088C844.742 -19.2828 840.854 -31.0012 836.543 -42.5424L885.424 -42.5484Z" fill="#4B1937"/>
<path d="M1315.44 366.375C1310.54 375.481 1305.63 384.59 1300.73 393.704C1285.25 422.504 1269.16 450.941 1251.31 478.369C1230.06 511.035 1212.78 545.787 1197.84 581.747C1192.61 594.346 1187.06 606.813 1181.21 619.146C1175.88 630.439 1168.35 640.554 1159.06 648.898C1153.67 653.751 1147.61 657.538 1140.44 659.109C1129.22 661.553 1120.15 655.241 1118.5 643.898C1117.13 634.525 1118.76 625.38 1121.69 616.569C1124.74 607.4 1128.28 598.361 1132.17 589.513C1150.61 547.565 1170.98 506.587 1193.72 466.786C1224.39 413.125 1251.04 357.426 1277.08 301.425C1289.56 274.583 1301.62 247.546 1313.88 220.604C1314.33 219.619 1314.9 218.697 1315.42 217.745L1315.44 366.375Z" fill="#4B1937"/>
<path d="M600.734 -42.5484C617.142 -17.0815 635.435 7.00387 653.992 30.9241C661.603 40.7294 668.719 50.9702 675.372 61.4483C681.317 70.8091 685.706 81.0169 684.637 92.537C684.301 96.1769 683.382 99.9849 681.764 103.237C678.461 109.874 671.301 113.004 663.636 111.751C654.677 110.289 646.54 106.55 639.11 101.583C631.532 96.5192 624.098 91.1346 617.166 85.2303C572.193 46.989 531.042 4.46544 494.295 -41.7405C494.091 -41.9988 493.914 -42.2781 493.725 -42.5484L600.734 -42.5484Z" fill="#4B1937"/>
<path d="M145.621 -42.5483C157.12 -32.1394 168.511 -21.6132 180.148 -11.3604C189.833 -2.82542 199.204 6.0069 206.998 16.3198C214.732 26.5486 220.391 37.8014 221.817 50.7661C222.082 53.3931 221.981 56.0442 221.517 58.6434C220.031 67.2926 213.861 73.0346 205.091 72.8664C199.499 72.7174 193.962 71.7262 188.665 69.9264C172.831 64.5867 158.369 56.343 144.291 47.4716C105.261 22.8787 69.5779 -6.15894 34.3394 -35.7762C31.7424 -37.9595 29.2625 -40.2809 26.7285 -42.5483L145.621 -42.5483Z" fill="#4B1937"/>
<path d="M380.773 -42.5483C392.329 -32.0643 404.354 -22.0427 415.3 -10.961C425.956 -0.18869 435.833 11.4065 445.444 23.1429C452.454 31.7049 457.516 41.5403 459.591 52.631C459.875 54.1447 460.009 55.6828 459.99 57.2228C459.852 66.7939 452.893 73.1156 443.477 71.4068C438.085 70.3749 432.862 68.5959 427.961 66.1212C420.363 62.3661 413 58.1539 405.912 53.5079C361.896 24.4773 317.951 -4.6534 274.076 -33.8842C270.077 -36.542 266.369 -39.6353 262.523 -42.5243L380.773 -42.5483Z" fill="#4B1937"/>
<path d="M1315.44 591.646C1295.65 610.62 1276.24 629.918 1259.43 651.679C1248.87 665.341 1238.15 678.903 1226.9 691.988C1223.08 696.426 1217.81 700.141 1212.49 702.646C1200.75 708.16 1191.35 701.445 1191.79 688.495C1192.03 681.531 1194.26 674.999 1197.56 669.023C1203.46 658.346 1209.29 647.553 1216.17 637.507C1245.92 594.063 1278.75 552.962 1312.3 512.431C1313.28 511.251 1314.4 510.188 1315.45 509.071L1315.44 591.646Z" fill="#4B1937"/>
<path d="M1315.44 493.874C1306.83 506.247 1298.67 518.951 1289.52 530.909C1278.04 545.925 1265.86 560.433 1253.75 574.966C1248.27 581.618 1241.48 587.082 1233.82 591.024C1229.72 593.126 1225.41 594.327 1220.76 593.213C1215 591.835 1210.92 587.345 1211.1 581.438C1211.23 577.449 1211.89 573.215 1213.46 569.587C1216.85 561.734 1220.42 553.854 1224.9 546.592C1249.8 506.227 1274.88 465.969 1300.12 425.816C1305.02 417.984 1310.33 410.404 1315.44 402.71L1315.44 493.874Z" fill="#4B1937"/>
<path d="M973.935 -42.5483C976.806 -37.3679 979.811 -32.2565 982.519 -26.9949C990.625 -11.2133 994.246 5.95883 996.915 23.2511C998.891 36.0476 999.873 49.0333 1000.55 61.9739C1000.81 66.8631 999.701 72.1456 997.924 76.7495C993.991 86.9242 983.813 89.8974 975.443 82.9631C969.384 77.8826 964.008 72.0389 959.449 65.5777C942.861 42.2671 929.471 17.1336 918.386 -9.24321C913.7 -20.4 908.749 -31.4486 903.918 -42.5483L973.935 -42.5483Z" fill="#4B1937"/>
<path d="M1285.71 -42.5483C1287.13 -14.4267 1286.37 13.5118 1278.71 40.8707C1275.91 50.8412 1271.65 60.1119 1264.89 67.9862C1262.07 71.2747 1258.76 74.383 1255.11 76.6954C1246.17 82.3714 1235.78 79.5034 1231.69 69.7881C1228.78 62.9098 1226.78 55.683 1225.73 48.2885C1223.06 28.8039 1221.11 9.21726 1218.99 -10.3424C1218.06 -18.9765 1217.4 -27.6406 1216.65 -36.2927C1216.47 -38.3649 1216.45 -40.4521 1216.35 -42.5333L1285.71 -42.5483Z" fill="#4B1937"/>
<path d="M818.04 -42.5483C819.418 -39.2449 820.658 -35.8483 822.198 -32.6079C829.281 -17.7122 836.877 -3.04169 843.422 12.0853C847.46 21.4221 850.195 31.3626 853.029 41.1709C854.813 47.3424 854.993 53.7842 853.131 60.0909C849.988 70.7641 840.552 74.2868 831.914 67.3495C826.747 63.1991 821.925 58.2319 818.178 52.7872C809.892 40.7475 802.074 28.3534 794.634 15.7701C783.94 -2.31493 773.747 -20.6943 763.374 -38.9656C762.74 -40.0797 762.38 -41.3501 761.896 -42.5483L818.04 -42.5483Z" fill="#4B1937"/>
<path d="M1315.44 171.493C1309.38 173.046 1305.17 171.313 1301.59 165.487C1297.21 158.328 1294.66 150.483 1293.61 142.219C1290.36 116.692 1289.43 91.0926 1291.25 65.4275C1293.47 34.1345 1295.86 2.85349 1298.21 -28.4305C1298.57 -33.1425 1299.13 -37.8424 1299.59 -42.5454L1315.45 -42.5454L1315.44 171.493Z" fill="#4B1937"/>
<path d="M1123.22 -42.5482C1127.96 -22.9916 1126.63 -4.18874 1116.1 13.4008C1115 15.1714 1113.6 16.7447 1111.98 18.0557C1105.94 23.065 1098.34 22.6506 1093.66 16.383C1090.71 12.4188 1088.2 7.72483 1086.95 2.97382C1083.23 -11.1411 1080.25 -25.4392 1076.97 -39.6712C1076.75 -40.6322 1076.54 -41.5932 1076.32 -42.5542L1123.22 -42.5482Z" fill="#4B1937"/>
<path d="M-111.327 3.31006C-98.1464 14.0254 -85.5756 24.1911 -73.0618 34.4289C-47.1577 55.6192 -20.9563 76.4552 4.5185 98.1501C36.4183 125.314 72.2932 145.414 110.99 160.871C135.105 170.505 159.189 180.216 183.242 190.002C205.011 198.804 225.989 209.243 246.399 220.827C268.763 233.518 292.382 243.35 316.254 252.837C348.04 265.451 380.321 277.088 410.632 293.125C429.202 302.945 447.351 313.594 465.422 324.319C480.133 333.058 492.971 344.401 505.791 355.678C522.238 370.147 538.334 385.043 555.24 398.953C580.646 419.861 607.922 438.055 638.224 451.245C653.837 458.035 668.329 466.753 682.959 475.27C692.17 480.634 701.697 485.46 711.085 490.52C724.154 497.565 737.289 504.488 750.281 511.671C767.709 521.302 784.978 531.222 802.41 540.844C813.02 546.7 823.844 552.256 832.752 560.608C836.309 563.944 839.798 567.758 842.02 572.02C847.241 582.051 841.197 591.408 829.938 590.886C824.961 590.655 819.95 589.345 815.128 587.94C799.588 583.405 785.624 575.326 771.378 567.933C762.785 563.468 754.255 558.883 745.786 554.178C717.387 538.472 686.679 528.426 656.037 518.525C604.997 502.031 556.801 479.997 512.826 449.085C484.493 429.171 457.883 407.137 432.504 383.616C413.091 365.636 392.348 349.299 371.167 333.463C344.998 313.913 315.407 301.176 284.922 290.437C264.178 283.13 243.105 276.715 222.023 270.424C189.979 260.868 159.379 247.63 128.65 234.665C100.683 222.896 73.0588 210.345 46.0588 196.345C20.5149 183.104 -3.17948 167.196 -25.649 149.396C-53.4416 127.395 -81.1111 105.241 -108.871 83.1973C-110.54 81.8729 -111.396 80.5695 -111.387 78.2871C-111.291 54.3969 -111.327 30.5037 -111.327 6.61354L-111.327 3.31006Z" fill="#4B1937"/>
<path d="M-111.327 351.846C-111.327 334.695 -111.291 318.078 -111.369 301.462C-111.369 299.179 -110.042 298.918 -108.439 298.894C-98.8764 298.762 -89.287 298.194 -79.7515 298.672C-48.3231 300.254 -16.9127 302.276 14.5218 304.011C25.7985 304.636 36.9162 303.071 47.9948 301.077C68.6299 297.359 88.8085 300.062 108.642 305.999C147.813 317.712 185.895 332.355 223.016 349.485C253.883 363.729 284.798 377.88 315.527 392.431C343.818 405.822 373.043 416.234 403.901 421.799C433.354 427.111 459.792 439.665 484.417 456.11C509.042 472.555 536.259 483.481 563.733 493.998C583.656 501.623 603.325 509.942 622.879 518.438C628.407 520.893 633.497 524.234 637.948 528.33C648.723 538.192 645.378 551.824 631.445 556.26C622.173 559.209 612.851 558.152 603.763 555.635C597.005 553.764 590.142 551.659 583.948 548.454C559.1 535.58 532.68 526.856 506.31 517.927C469 505.296 431.951 491.824 394.368 480.066C347.144 465.291 301.908 446.031 257.804 423.808C221.512 405.531 184.598 388.692 145.547 376.91C100.926 363.447 55.3325 355.684 8.82634 354.023C-29.4414 352.654 -67.7572 352.522 -106.049 351.84C-107.682 351.822 -109.307 351.846 -111.327 351.846Z" fill="#4B1937"/>
<path d="M-111.164 496.836L-111.164 432.607C-102.016 431.904 -92.9669 430.76 -83.8999 430.598C-56.3444 430.114 -28.9181 432.487 -1.53981 435.22C20.14 437.385 41.8439 439.379 63.5778 440.866C79.3671 441.944 95.2194 442.283 111.051 442.559C124.261 442.791 137.078 439.556 149.73 436.253C180.612 428.225 210.896 430.751 240.731 440.799C261.264 447.707 281.526 455.425 301.942 462.68C339.991 476.195 377.979 489.817 417.346 499.283C434.003 503.286 450.27 508.965 466.584 514.299C472.505 516.233 478.131 519.176 483.722 521.993C488.916 524.615 493.062 528.6 496.196 533.522C502.681 543.733 499.148 555.836 487.931 560.349C483.641 562.076 478.789 562.956 474.144 563.16C457.694 563.887 441.719 560.59 425.948 556.34C381.432 544.343 337.006 532.015 292.488 520.002C220.558 500.62 147.34 490.484 72.822 491.535C41.4776 491.976 10.1663 494.631 -21.1511 496.175C-49.9735 497.595 -78.7809 498.743 -107.618 497.124C-108.726 497.085 -109.807 496.953 -111.164 496.836Z" fill="#4B1937"/>
<path d="M-111.152 221.07L-111.152 117.379C-106.892 119.737 -102.854 121.689 -99.092 124.091C-80.0902 136.233 -61.0644 148.348 -42.2247 160.73C-4.72858 185.404 32.4644 210.481 72.9989 230.193C131.187 258.492 192.032 278.884 254.898 293.716C289.161 301.801 321.568 315.066 352.111 332.373C365.721 340.085 378.021 350.173 390.622 359.579C398.388 365.328 404.223 373.304 407.351 382.448C408.315 385.349 408.74 388.403 408.606 391.457C408.396 396.653 405.225 399.887 400.35 401.416C394.291 403.321 387.768 403.126 381.834 400.863C370.104 396.482 358.395 391.92 347.07 386.598C314.804 371.432 282.943 355.386 250.545 340.521C162.631 300.218 71.3086 269.144 -21.4126 242.116C-50.3431 233.68 -79.6338 226.445 -109.435 221.565C-110.017 221.434 -110.59 221.268 -111.152 221.07Z" fill="#4B1937"/>
<path d="M-111.183 578.057C-111.237 576.876 -111.324 575.909 -111.324 574.942C-111.324 555.896 -111.27 536.853 -111.402 517.807C-111.42 515.179 -110.501 514.308 -108.136 513.603C-95.5768 509.921 -82.5647 509.359 -69.7057 507.698C-48.6503 504.978 -27.5138 505.785 -6.39241 505.954C21.6704 506.176 49.7513 506.206 77.7901 507.08C111.777 508.134 145.796 509.182 179.692 511.732C207.863 513.834 235.914 517.798 263.932 521.573C271.783 522.63 279.46 525.6 286.969 528.369C290.671 529.733 294.255 532.171 297.111 534.934C303.899 541.502 302.839 550.707 294.496 555.055C289.019 557.911 282.895 560.161 276.821 561.083C265.328 562.852 253.661 564.422 242.066 564.428C185.922 564.461 129.8 564.02 73.6649 563.602C35.7814 563.317 -2.09306 563.602 -39.7634 567.984C-62.38 570.621 -84.8735 574.291 -107.421 577.51L-111.183 578.057Z" fill="#4B1937"/>
<path d="M1284.03 182.293C1283.35 232.446 1272.24 279.803 1247.4 323.682C1240.03 336.707 1232.72 349.81 1226.16 363.24C1222.14 371.498 1219.59 380.481 1216.42 389.154C1212.9 398.764 1210.07 408.705 1203.92 417.083C1201.42 420.547 1198.47 423.663 1195.15 426.351C1188.74 431.457 1181.01 429.529 1177.88 421.91C1176.11 417.615 1175.32 412.816 1174.73 408.164C1171.25 380.994 1174.69 354.407 1181.56 328.076C1186.89 307.636 1192.75 287.287 1196.96 266.61C1202.58 239.023 1206.6 211.108 1211.78 183.422C1214.93 166.568 1218.57 149.786 1222.83 133.17C1224.63 126.143 1228.13 119.415 1231.68 113.004C1235.31 106.445 1241.2 102.394 1249.09 103.487C1252.44 103.952 1255.89 105.436 1258.76 107.289C1266.08 112.016 1270.88 119.001 1274.62 126.749C1279.87 137.633 1282.13 149.252 1282.96 161.196C1283.47 168.217 1283.7 175.259 1284.03 182.293Z" fill="#4B1937"/>
<path d="M931.5 210.282C930.347 230.322 929.207 249.99 928.093 269.661C926.787 292.644 929.33 315.405 932.398 338.103C933.299 344.71 935.728 351.113 936.784 357.717C937.523 362.321 937.79 367.213 937.085 371.793C935.656 380.913 926.934 384.232 919.338 378.925C914.311 375.451 910.387 370.608 908.031 364.969C903.245 353.515 898.394 342.043 894.505 330.268C879.917 286.07 865.167 241.912 851.572 197.402C844.351 173.767 839.112 149.507 833.516 125.404C831.303 115.866 830.853 105.982 833.216 96.2369C833.551 94.847 833.962 93.4766 834.447 92.1315C838.839 79.9477 848.026 74.5119 860.795 76.6382C871.472 78.416 880.395 83.6926 888.216 90.9273C902.044 103.721 912.234 118.992 918.44 136.786C926.76 160.673 930.494 185.407 931.5 210.282Z" fill="#4B1937"/>
<path d="M1085.05 311.297C1083.76 296.179 1082.82 281.019 1081.08 265.949C1078.98 247.717 1078.95 229.47 1079.88 211.225C1081.55 178.26 1083.29 145.288 1085.69 112.37C1086.75 97.8137 1089.2 83.3324 1091.57 68.9082C1093.16 59.4274 1096.56 50.3412 1101.58 42.144C1106.68 33.7171 1114.92 31.9332 1123.02 37.5581C1126.14 39.7204 1128.94 42.4923 1131.46 45.3513C1140.43 55.4991 1145.57 67.5418 1148.36 80.6836C1152.54 100.354 1152.59 120.232 1151.3 140.167C1149.18 173.097 1141.95 205.054 1132.01 236.371C1124.23 260.844 1118.3 285.767 1111.97 310.603C1108.49 324.241 1104.57 337.767 1100.79 351.323C1099.36 356.45 1092.79 357.816 1089.2 353.504C1087.45 351.401 1086.02 348.551 1085.67 345.875C1084.77 339.037 1084.42 332.112 1084.08 325.211C1083.86 320.601 1084.04 315.97 1084.04 311.351L1085.05 311.297Z" fill="#4B1937"/>
<path d="M-111.328 418.246L-111.328 396.701C-111.328 386.685 -111.265 376.67 -111.376 366.669C-111.403 364.306 -110.953 363.192 -108.28 362.9C-87.4713 360.63 -66.6501 359.119 -45.7028 360.552C-23.3083 362.08 -0.883904 363.228 21.4835 365.084C48.0602 367.291 74.3876 371.282 99.8444 379.574C106.296 381.676 112.55 384.517 118.666 387.49C123.849 390.021 128.23 393.938 131.324 398.806C137.503 408.365 134.852 417.822 124.509 422.531C115.724 426.519 106.245 427.85 96.7941 427.73C81.1819 427.531 65.5428 427.024 50.0027 425.645C-2.21194 420.989 -54.5196 418.523 -106.92 418.249C-108.229 418.24 -109.538 418.246 -111.328 418.246Z" fill="#4B1937"/>
<path d="M697.812 124.392C702.826 124.488 707.525 126.019 711.323 129.098C716.505 133.302 721.759 137.657 725.992 142.765C754.316 176.923 777.569 214.307 796.247 254.57C805.89 275.364 814.138 296.699 821.809 318.285C824.493 325.835 828.219 333.001 831.116 340.488C832.949 345.082 834.37 349.831 835.361 354.678C836.658 361.348 836.016 367.85 829.675 372.03C824.775 375.261 817.464 374.087 811.64 368.18C802.849 359.264 794.418 349.936 786.492 340.251C781.58 334.244 777.623 327.385 773.693 320.643C761.717 300.104 750.254 279.262 738.025 258.88C729.319 244.356 719.411 230.545 710.551 216.109C703.595 204.778 696.978 193.191 691.009 181.317C685.605 170.544 682.392 158.874 681.96 146.741C681.854 142.248 682.535 137.771 683.971 133.512C686.028 127.254 691.273 124.239 697.812 124.392Z" fill="#4B1937"/>
<path d="M254.298 71.8364C257.345 72.7163 263.449 73.6833 268.823 76.212C278.449 80.7377 287.948 85.699 296.94 91.366C325.069 109.085 350.051 130.927 374.926 152.784C393.84 169.412 411.965 186.951 430.424 204.105C437.431 210.65 443.417 218.21 448.18 226.533C451.221 231.785 449.549 237.431 444.006 240.071C440.22 241.873 436.266 241.723 432.387 240.614C429.208 239.739 426.104 238.608 423.107 237.233C401.508 227.022 380.318 216.112 359.938 203.579C347.962 196.216 335.124 190.263 322.991 183.137C307.724 174.172 292.518 165.049 277.764 155.273C260.462 143.822 246.696 128.731 236.107 110.878C233.888 107.207 232.107 103.29 230.802 99.2042C226.025 83.5938 235.032 71.7553 254.298 71.8364Z" fill="#4B1937"/>
<path d="M462.317 95.9243C462.26 85.284 469.261 78.3587 479.067 79.4849C483.831 80.0315 488.857 81.6742 492.917 84.1909C499.42 88.2241 505.526 93.0442 511.252 98.1526C530.112 114.994 546.544 134.092 562.051 154.012C577.462 173.808 592.975 193.515 608.302 213.384C613.532 220.168 618.387 227.25 623.188 234.349C625.316 237.424 627.086 240.732 628.463 244.209C631.186 251.362 627.331 257.834 619.819 259.375C615.301 260.303 610.962 259.6 607.092 257.224C602.604 254.465 598.028 251.705 594.035 248.308C573.154 230.547 552.828 212.192 533.742 192.464C523.039 181.394 511.348 171.277 500.681 160.174C492.397 151.549 484.726 142.287 477.31 132.89C469.895 123.493 465.484 112.592 463.034 100.901C462.629 98.9695 462.467 96.9874 462.317 95.9243Z" fill="#4B1937"/>
<path d="M26.1917 65.9053C40.7221 67.098 55.0225 70.2644 68.6987 75.3172C97.371 85.8883 123.23 101.349 147.621 119.536C153.875 124.197 160.489 128.377 166.986 132.708C178.644 140.474 190.149 148.429 198.964 159.553C200.931 162.034 202.837 164.701 204.095 167.578C207.049 174.341 203.413 181.254 196.091 182.143C192.074 182.629 187.537 182.356 183.799 180.942C172.09 176.497 160.528 171.605 149.119 166.436C130.505 157.961 111.97 149.282 93.516 140.399C72.2595 130.137 51.6455 118.725 33.4243 103.553C27.7199 98.805 22.769 93.129 17.641 87.7233C16.317 86.3268 15.4673 84.4198 14.6597 82.6179C10.3303 72.9717 15.065 65.8092 26.1917 65.9053Z" fill="#4B1937"/>
<path d="M-111.203 289.197L-111.203 235.74C-109.912 235.74 -108.741 235.767 -107.57 235.74C-91.4087 235.308 -75.5984 237.906 -59.7611 240.783C-43.0801 243.816 -26.3061 246.443 -10.4898 252.795C-2.35645 256.057 5.49765 260.072 13.2797 264.126C16.0359 265.562 18.4978 267.862 20.5784 270.223C26.8292 277.316 25.205 286.74 16.5102 290.437C10.7457 292.884 4.31173 294.122 -1.94814 294.966C-18.0887 297.146 -34.2443 295.524 -50.3698 294.257C-69.1284 292.781 -87.884 291.28 -106.637 289.752C-108.144 289.629 -109.645 289.389 -111.203 289.197Z" fill="#4B1937"/>
</svg>
