<svg width="135" height="93" viewBox="0 0 135 93" fill="none" xmlns="http://www.w3.org/2000/svg">
<path d="M19.9849 90.5616L19.6867 90.8641L18.7265 91.0533L18.573 91.2481C18.2336 91.4731 17.8367 91.4412 17.4913 91.5572L17.2944 91.7775C17.0249 91.9447 16.6919 91.939 16.3848 92.0125C16.1258 92.0752 15.8606 92.1158 15.6293 92.1614L15.3842 92.4352L14.0364 92.7008L13.5247 92.4375C13.7477 92.2886 13.7701 92.034 14.0901 91.9645C14.4582 91.8855 14.4999 91.5792 14.7354 91.4058C14.9256 91.2659 15.2464 91.2532 15.3422 91.0205C16.3477 90.5087 17.221 89.8609 18.1936 89.3141C18.3896 88.958 19.0748 89.1806 19.2169 88.7612C19.6634 88.7199 19.7876 88.2276 20.2838 88.2542C20.3345 88.2571 20.4206 88.2466 20.4386 88.2237C20.6606 87.9207 21.1921 87.8808 21.363 87.5464C21.8351 87.5648 22.1225 87.2775 22.4602 87.0787C22.7514 86.9073 23.0877 86.7542 23.3008 86.5372C23.5898 86.2496 24.1865 86.4002 24.3394 85.9917C24.7585 85.9868 24.8413 85.539 25.2585 85.5332C25.3994 85.2307 25.8885 85.2211 26.0696 84.947C26.5913 84.7662 27.0802 84.524 27.5169 84.2301C27.9178 83.9749 28.2661 83.6457 28.8335 83.5689C29.0019 83.5461 29.1361 83.3499 29.2968 83.2443C29.4804 83.101 29.6898 82.9788 29.9169 82.8823C30.2171 82.783 30.2978 82.447 30.6997 82.4688C31.0245 82.4852 31.0972 82.2052 31.3191 82.1031C32.0864 81.751 32.6766 81.2109 33.4401 80.857C33.5647 80.6121 33.8714 80.6333 34.1114 80.5445C34.3341 80.4419 34.5423 80.3199 34.7313 80.1813C35.2206 79.8749 35.7023 79.5648 36.1938 79.2606C36.3176 79.186 36.4515 79.1226 36.5923 79.0719C36.6969 79.0428 36.8039 79.0217 36.9117 79.0089C37.2446 78.8033 37.3183 78.4402 37.8101 78.3044C38.1154 78.2222 38.3176 77.8532 38.6268 77.7469C39.0251 77.6101 39.2173 77.2961 39.6749 77.1969C40.2054 77.082 40.5867 76.675 41.059 76.4225C41.4482 76.2173 41.8154 75.9866 42.1557 75.7333C42.4561 75.5031 42.8783 75.3823 43.1016 75.0855C43.603 74.9984 43.7125 74.6243 44.0358 74.3701L44.7447 74.2303C44.8847 74.0641 45.0688 73.849 45.2507 73.6317C45.8095 73.5902 46.2496 73.2793 46.5433 72.9803C47.0103 72.4995 47.6552 72.2104 48.2019 71.8266C48.627 71.5277 49.1019 71.2798 49.5025 70.9352C49.903 70.5906 50.4664 70.3176 50.9583 70.0158C51.1618 69.8902 51.3695 69.7689 51.5767 69.6451C51.7914 69.5278 51.9973 69.4006 52.1932 69.2644C52.3891 69.1182 52.5302 68.931 52.7267 68.7873C52.9946 68.5946 53.2916 68.4259 53.5768 68.2504C53.7816 68.1232 53.9736 67.9571 54.1974 67.8909C54.4521 67.8148 54.4936 67.6395 54.644 67.5256C54.8941 67.3141 55.1639 67.1166 55.4507 66.935C55.8323 66.7224 56.327 66.5394 56.527 66.2563C56.7922 65.8917 57.302 65.8029 57.5807 65.4629C57.7916 65.1997 58.1661 64.995 58.4967 64.7951C58.96 64.5145 59.4781 64.2932 59.7783 63.8776C59.8217 63.8172 59.945 63.7851 60.0311 63.7397C60.5618 63.4588 60.9714 63.0813 61.4229 62.7318C61.8327 62.4165 62.4041 62.2287 62.6871 61.8049C63.3164 61.4998 63.8738 61.108 64.3269 60.6522C64.8342 60.595 64.7862 60.0796 65.2456 59.9722C65.7411 59.8551 65.7299 59.2897 66.3121 59.2436C66.5125 58.9359 67.0018 58.8576 67.2121 58.5478C67.4225 58.2381 67.9683 58.0955 68.2162 57.7395C68.3512 57.547 68.7824 57.4983 68.8993 57.2407C69.0162 56.9831 69.4142 56.9591 69.6105 56.7532C69.8067 56.5474 69.9017 56.3187 70.2907 56.2226C70.4918 56.1726 70.6259 55.8973 70.7924 55.7245C70.9246 55.5883 71.0305 55.3977 71.2024 55.3314C71.5894 55.1813 71.8737 54.9399 72.1883 54.7289C72.4782 54.5421 72.652 54.2487 72.8748 53.9935C73.5174 53.8772 73.5405 53.3012 73.9802 53.094C74.4448 52.8728 74.6449 52.5456 74.963 52.2652C75.2811 51.9848 75.7375 51.8093 75.9537 51.4505C76.4092 51.3322 76.5835 51.0062 76.8525 50.7485C77.1215 50.4907 77.2466 50.1692 77.746 50.019C78.0543 49.9258 78.0766 49.5041 78.5107 49.3823C78.6744 49.3357 78.8103 49.1482 78.9375 49.013C79.2657 48.6606 79.5043 48.2222 79.9239 47.9658C80.3758 47.6889 80.5987 47.2846 81.0092 47.043C81.6522 46.6571 82.0251 46.1546 82.4681 45.6746C82.8149 45.2939 83.3733 45.075 83.6735 44.6595C83.945 44.2832 84.223 43.8604 84.6427 43.604C85.3265 43.188 85.7088 42.637 86.1936 42.132C86.6783 41.6269 87.0965 41.135 87.5461 40.6355C88.7331 39.3168 89.9274 38.0006 91.1008 36.6742C91.2654 36.4977 91.4954 36.3613 91.7555 36.2859L91.7832 35.9176C91.9331 35.7222 92.2778 35.6905 92.4865 35.4602C95.6743 31.8822 98.8804 28.3127 102.105 24.7517C102.481 24.3355 102.546 23.8328 103.003 23.4317C103.46 23.0306 103.787 22.5839 104.172 22.1553L105.232 20.9784C105.616 20.5515 106.025 20.1328 106.379 19.6923C106.631 19.3835 106.782 19.0271 107.021 18.709C107.261 18.3908 107.527 18.1362 107.784 17.851C108.068 17.5359 108.385 17.2143 108.643 16.8847C108.829 16.6434 108.91 16.3605 109.093 16.1157C109.318 15.8186 109.599 15.5429 109.856 15.2577C110.096 15.0159 110.318 14.7648 110.522 14.5057C110.777 14.1455 110.873 13.7431 111.244 13.4069C111.615 13.0707 112.033 12.72 112.183 12.338C112.397 11.7954 112.969 11.4055 113.198 10.9197C113.44 10.3938 113.876 9.97473 114.229 9.50588C114.439 9.22615 114.413 8.86459 114.773 8.63032C115.194 8.35799 115.098 7.94676 115.389 7.63535C115.639 7.37086 115.911 7.12682 115.965 6.75855C116 6.50795 116.386 6.26344 116.6 6.00742C116.77 5.80149 116.645 5.52549 116.938 5.34059C117.316 5.10554 117.12 4.71649 117.465 4.45924C117.782 4.21789 117.876 3.85989 117.887 3.57638C117.905 3.18408 118.613 2.9797 118.381 2.57193C118.752 2.33287 118.587 1.95976 118.896 1.67973C119.125 1.47387 119.175 1.16347 119.355 0.918071C119.564 0.658064 119.788 0.404843 120.028 0.159394L120.837 2.2765e-06C120.382 1.11346 119.955 2.1826 119.504 3.24353C119.423 3.43301 119.229 3.60481 119.127 3.79073C119.026 3.97665 119.016 4.19232 118.87 4.34429C118.569 4.68484 118.375 5.06809 118.305 5.46002C118.213 5.82676 117.706 6.04335 117.739 6.46454C117.757 6.69809 117.255 6.884 117.281 7.23527C117.3 7.49068 116.796 7.67815 116.788 7.99724C116.78 8.31634 116.441 8.51791 116.22 8.75711C115.937 9.07221 116.044 9.50087 115.599 9.74653C115.155 9.9922 115.343 10.3582 115.083 10.6349C114.823 10.9117 114.518 11.2233 114.412 11.6173C114.333 11.9155 113.785 12.1894 113.735 12.4792C113.676 12.7606 113.498 13.0293 113.229 13.2425C112.819 13.611 112.71 14.0575 112.421 14.4527C112.133 14.8478 111.585 15.1566 111.598 15.6517C111.604 15.6842 111.532 15.7217 111.507 15.7591C111.224 16.1661 110.721 16.4751 110.578 16.9504C110.435 17.4258 109.975 17.76 109.613 18.1321C109.277 18.4783 109.285 18.9056 108.912 19.2397C108.583 19.5352 108.193 19.8569 108.064 20.2012C107.795 20.9139 107.157 21.4504 106.622 22.0328C106.327 22.3502 106.415 22.7384 106.025 23.0407C105.675 23.3133 105.303 23.6537 105.177 23.996C104.874 24.7944 104.062 25.3575 103.565 26.0529C103.334 26.3732 102.81 26.6099 102.933 27.0393C102.61 27.3958 102.289 27.7524 101.97 28.1091C101.68 28.4305 101.392 28.7514 101.103 29.0717C100.82 29.3868 100.519 29.7118 100.237 30.0356C99.906 30.4171 99.8515 30.8775 99.428 31.2461C99.0045 31.6147 98.7165 32.0214 98.3567 32.415L97.2974 33.5919L96.1416 34.8759L95.0822 36.0528L94.0229 37.2297L92.9635 38.4066L91.9041 39.5835C90.3952 41.2598 88.8937 42.9386 87.3731 44.6081C87.0592 44.9538 86.8404 45.3611 86.3597 45.6062C85.879 45.8513 85.6693 46.2606 85.3454 46.5992C85.0214 46.9378 84.6972 47.3102 84.377 47.6675C84.0567 48.0248 83.7403 48.384 83.4121 48.7363C83.1263 49.0402 82.6369 49.1885 82.408 49.5446C82.2088 49.8496 81.9744 50.1952 81.6358 50.3889C80.9817 50.7628 80.6504 51.292 80.1748 51.7473C79.872 52.0351 79.512 52.2875 79.1896 52.5636C78.8672 52.8397 78.6704 53.1921 78.2574 53.4472C77.883 53.6791 77.6318 54.0357 77.3264 54.337C76.6672 54.5006 76.6141 55.1085 76.1124 55.3253C75.5612 55.5636 75.3463 55.9468 75.0716 56.2899C74.8246 56.5978 74.3523 56.6572 74.1363 56.9823C73.959 57.2883 73.6506 57.5472 73.2672 57.7121C73.011 57.8158 72.8265 58.1074 72.6885 58.3368C72.5328 58.5995 72.09 58.5545 71.9704 58.8244C71.8356 59.1231 71.4091 59.2045 71.1761 59.4254C70.943 59.6463 70.7225 59.9218 70.4967 60.1711C70.0355 60.2166 69.9712 60.5831 69.6864 60.761C69.4017 60.9389 69.0893 61.099 68.8874 61.3643C68.6856 61.6296 68.2214 61.6602 68.0948 61.9651C67.9764 62.2411 67.5146 62.1961 67.3877 62.4556C67.2439 62.7523 66.8427 62.8482 66.5936 63.0579C66.3446 63.2677 66.1385 63.4937 65.8061 63.6758C65.4738 63.858 65.247 64.1541 64.9061 64.3716C64.5652 64.5891 64.2057 64.73 63.9645 65.0497C63.7754 65.3008 63.2334 65.4102 63.0163 65.6591C62.3409 66.4337 61.1223 66.7413 60.4677 67.5157C60.088 67.6592 59.8503 67.9445 59.4681 68.1015C59.0859 68.2585 59.0714 68.7201 58.5463 68.7744C58.2301 69.1788 57.6515 69.3395 57.2217 69.6406C56.8805 69.8828 56.4295 70.0767 56.1471 70.328C55.8388 70.6145 55.491 70.8753 55.1109 71.1051C54.756 71.3096 54.4497 71.5615 54.2095 71.8465L53.6554 71.9557C53.5724 72.0084 53.5156 72.0273 53.4944 72.06C53.2131 72.4835 52.6924 72.7184 52.2346 73.0004C51.8261 73.252 51.3688 73.4665 51 73.753C50.5884 74.0765 50.2334 74.442 49.5785 74.768L49.1342 74.8556C48.8538 75.1078 48.7228 75.4693 48.2356 75.5589C47.3648 76.21 46.3759 76.7445 45.4368 77.33C44.5421 77.8951 43.6347 78.4395 42.7644 79.0231C42.4378 79.243 41.8536 79.1119 41.7197 79.5556C41.3078 79.5707 41.2194 80.008 40.803 80.0175C40.5826 80.3202 40.1938 80.4966 39.8485 80.6476C39.5653 80.7721 39.4686 81.097 39.0833 81.0718C38.892 81.3908 38.5202 81.4511 38.1459 81.508C38.0374 81.7821 37.6186 81.7973 37.4481 82.002C37.2775 82.2066 36.8458 82.2178 36.7371 82.4907C35.8784 82.6068 35.4459 83.3595 34.5683 83.4676C34.3994 83.488 34.3344 83.7107 34.1182 83.8155C33.6737 84.0159 33.3162 84.3857 32.86 84.5184C32.4039 84.6511 32.158 85.0702 31.6077 85.0581C31.4758 85.0556 31.3246 85.3148 31.1505 85.3699C30.8037 85.4784 30.6633 85.8275 30.2146 85.8226C29.8907 85.819 29.8272 86.2424 29.4412 86.2225C29.2763 86.57 28.7589 86.497 28.5385 86.6856C28.2837 86.9017 28.0209 86.9626 27.7245 87.0638C27.4281 87.1649 27.3093 87.4216 26.9416 87.4772C26.7264 87.508 26.5438 87.7565 26.3176 87.8193C26.0016 87.9087 25.6836 87.9442 25.5347 88.2327C24.9843 88.1676 24.7713 88.7007 24.2827 88.7387C23.834 88.7688 23.6977 89.2791 23.1836 89.2054C22.9018 89.4586 22.5215 89.6356 22.1116 89.7044C21.9659 90.0792 21.3933 89.9277 21.1984 90.1579C20.8457 90.5086 20.3902 90.4338 19.9849 90.5616Z" fill="black"/>
</svg>
