<svg width="154" height="65" viewBox="0 0 154 65" fill="none" xmlns="http://www.w3.org/2000/svg">
<path d="M115.268 3.52547L114.888 3.86495H112.301L112.022 4.14332H109.809L109.332 4.50656H107.739C107.604 4.64065 107.528 4.71873 107.431 4.81378H105.831L105.446 5.15326H103.853L103.602 5.37393C103.516 5.42588 103.422 5.46316 103.323 5.48425C102.942 5.49613 102.561 5.48425 102.179 5.48425L101.89 5.77111H100.581L100.24 6.11059H98.9313C98.8444 6.21481 98.7475 6.31031 98.6419 6.39575C98.2691 6.6198 97.7908 6.22602 97.4265 6.6249C97.1235 6.96438 96.7081 6.71656 96.3217 6.79464L95.9659 7.10525H95.0144L94.6535 7.44473H93.6866L93.324 7.78421H92.3605C92.2737 7.87077 92.2056 8.00148 92.1188 8.01506C91.8056 8.06428 91.4787 8.04052 91.1723 8.11011C90.9323 8.16443 90.7246 8.36811 90.4914 8.41394C90.1373 8.48014 89.7867 8.3783 89.4462 8.69062C89.2198 8.89939 88.7296 8.66855 88.447 9.04537C88.3704 9.14891 88.0367 9.06234 87.8307 9.06234L87.4613 9.40182H86.4876L86.2561 9.63436C85.9668 9.87539 85.5139 9.5478 85.2348 9.97384C85.0645 10.2386 84.5947 9.88727 84.3666 10.2149C84.1385 10.5425 83.6959 10.2149 83.495 10.4576C83.2312 10.7665 82.8822 10.6121 82.6218 10.7343C82.3613 10.8565 82.1111 11.0551 81.7706 11.0568C81.5425 11.0568 81.3246 11.3029 81.0897 11.3487C80.8548 11.3945 80.6012 11.3793 80.3595 11.5813C80.0547 11.8308 79.5083 11.566 79.2394 12.0141C78.7593 11.8087 78.4767 12.2908 78.0682 12.3536C77.8214 12.3892 77.7107 12.7457 77.3873 12.6761C77.2833 12.6496 77.174 12.6533 77.072 12.6867C76.9701 12.72 76.8799 12.7817 76.8119 12.8645C76.5174 13.1819 75.9063 12.7694 75.6969 13.3228C75.2526 13.2413 75.016 13.849 74.5206 13.6623C74.4594 13.6385 74.3385 13.7369 74.2568 13.7964C73.5146 14.3463 72.4796 14.2767 71.7919 14.9455C71.2642 14.735 70.9407 15.3342 70.4641 15.285C70.1458 15.655 69.6521 15.6974 69.2623 15.9317C68.9543 16.1164 68.6122 16.2377 68.2562 16.2881C67.8852 16.3475 67.5583 16.6836 67.2111 16.8992C66.7753 16.7294 66.6442 17.4186 66.2101 17.2386C65.9178 17.4441 65.6143 17.6334 65.3011 17.8056C65.1207 17.8921 64.8892 17.8735 64.4942 17.9295C64.4074 18.0585 64.2287 18.3284 64.1027 18.5202H63.2754L62.5723 19.1856C62.0429 18.9887 61.6889 19.43 61.2548 19.5641C60.9245 19.6642 60.8224 20.131 60.3645 20.1887C60.0394 20.2311 59.7517 20.5282 59.4367 20.6979C59.1218 20.8677 58.7865 20.9763 58.4818 21.1528C58.0851 21.3803 57.6306 21.4923 57.2902 21.842C57.0484 22.0932 56.7046 22.38 56.3948 22.3936C56.0169 22.4089 55.8943 22.7925 55.559 22.7772C55.2236 22.7619 55.1555 23.1048 54.9325 23.2355C54.6261 23.4053 54.3282 23.6836 54.0014 23.7294C53.6116 23.7838 53.5384 24.108 53.2422 24.2115C53.5145 24.5238 53.8073 24.3541 54.0729 24.4118L54.4133 24.7343H56.3693L56.6569 25.0229H58.2928L58.6333 25.3623H59.9406L60.23 25.6509C60.6079 25.8648 61.0811 25.4812 61.4454 25.8783C61.7484 26.2178 62.1655 25.97 62.5502 26.0481L62.9077 26.3587H63.8593L64.2202 26.6982H65.1139C65.4772 26.9304 65.8522 27.144 66.2374 27.3381C66.4195 27.4196 66.6936 27.3109 66.8621 27.4026C67.5294 27.7641 68.1813 28.1444 68.8827 28.4465C69.0682 28.5263 69.2231 28.6926 69.4478 28.6587C69.8598 29.2324 70.6497 29.3376 71.0429 29.93C71.3255 30.351 71.9076 30.2864 72.197 30.7227C72.4506 31.0782 72.7612 31.3896 73.1163 31.6444C73.4346 31.8888 73.4567 32.2826 73.6916 32.5525C73.9265 32.8223 74.2262 33.0956 74.4951 33.3638C74.7641 33.632 75.0364 33.9002 75.3037 34.1718C75.3752 34.2464 75.4926 34.3415 75.4858 34.4179C75.4279 34.9492 76.1054 35.0137 76.1412 35.4533C76.1769 35.8929 76.6008 36.0219 76.8051 36.3257V36.8604C76.9906 37.222 77.0809 37.5394 77.2817 37.7499C77.5558 38.0401 77.4349 38.3558 77.452 38.6614C77.4758 39.0806 77.9218 39.3403 77.8077 39.8359C77.7005 40.301 77.7856 40.8085 77.7856 41.2974V42.5144L77.4349 42.8641V44.1694L77.1302 44.4715C77.1302 44.7804 77.2477 45.1776 77.0996 45.4085C76.9294 45.6733 76.8936 46.0195 76.6723 46.2096C76.354 46.4795 76.56 46.819 76.4255 47.1398C75.9625 47.4538 75.7139 47.9885 75.525 48.513C75.4194 48.7998 75.0347 48.9696 75.1624 49.3481C75.1624 49.3735 75.1045 49.433 75.0654 49.4652C74.7249 49.7351 74.5547 50.1051 74.3555 50.4734C74.1563 50.8418 73.724 51.0811 73.5554 51.4511C73.3427 51.9196 72.946 52.181 72.6345 52.5341C72.3468 52.86 72.0217 53.1536 71.7136 53.4609C71.2897 53.8835 70.8829 54.3248 70.4369 54.7237C69.9909 55.1226 69.7066 55.5979 69.075 55.7965C68.6035 55.9458 68.4486 56.6248 67.8256 56.7317C67.56 56.7775 67.3149 57.1272 67.1311 57.3869C66.9234 57.6806 66.5369 57.5991 66.3327 57.8435C65.9936 58.2388 65.5378 58.5168 65.0304 58.6379C64.5453 58.7618 64.4261 59.3542 63.8491 59.3712C63.5409 59.3813 63.2567 59.748 62.9383 59.9092C62.5809 60.0908 62.1485 60.157 61.8404 60.3947C61.5322 60.6323 61.1118 60.5797 60.916 60.9412C60.4956 60.8139 60.339 61.4216 59.9202 61.2977C59.6717 61.8358 58.9414 61.3469 58.6878 61.8748C58.2247 61.9104 57.9013 62.4451 57.3719 62.2465C57.1455 62.7761 56.5088 62.3721 56.2603 62.6946C55.9471 63.102 55.3581 62.6437 55.1249 63.141C55.112 63.1634 55.0937 63.1823 55.0717 63.1959C55.0498 63.2095 55.0247 63.2175 54.9989 63.2191C54.4474 63.102 53.9878 63.3753 53.4941 63.5365C53.2558 63.6146 52.9681 63.5501 52.7553 63.5501L52.4506 63.8556H50.8539L50.4623 64.1951H42.9519L42.6114 63.8845H41.6564L41.4862 63.6842C41.0981 63.4296 40.7066 63.6486 40.3236 63.5145C40.2316 63.4381 40.1244 63.287 39.9831 63.2463C39.7822 63.1886 39.4418 63.2955 39.3669 63.1869C39.0894 62.7931 38.6179 63.0528 38.3574 62.8474C37.908 62.4825 37.3361 62.3891 36.8765 62.0615C36.7181 61.9461 36.4305 61.9546 36.3368 61.8154C35.9964 61.3062 35.2967 61.296 34.9478 60.797C34.7613 60.5272 34.5264 60.2942 34.2549 60.1095C33.9587 59.9126 33.5859 59.8515 33.3493 59.529C33.1511 59.2688 32.9186 59.0365 32.6582 58.8382C32.4624 58.6854 32.2003 58.6226 31.9943 58.4783C31.8253 58.3412 31.6691 58.1889 31.5279 58.0234C31.1449 57.6381 30.7653 57.2528 30.384 56.8675C30.4691 56.2531 29.589 56.1444 29.6775 55.5283C29.0528 55.0802 28.9081 54.3248 28.5285 53.7189C28.3702 53.4642 28.3429 53.1316 28.0944 52.9228C28.1727 52.5256 27.9344 52.2438 27.7914 51.9044C27.6722 51.6294 27.7659 51.2627 27.7659 50.9368V50.3597C27.6365 50.229 27.5599 50.1527 27.4816 50.0763C27.4625 50.0293 27.4488 49.9803 27.4407 49.9303C27.4407 49.0697 27.4407 48.2091 27.4407 47.4233L27.7573 47.1092V45.4662L28.0978 45.1012V44.1388L28.4383 43.7705C28.4383 43.5651 28.3719 43.3224 28.4519 43.1408C28.5932 42.8183 28.8894 42.5552 28.9983 42.2276C29.1243 41.844 29.1192 41.4349 29.3898 41.0784C29.5975 40.8068 29.623 40.3995 29.8409 40.1364C30.0827 39.8495 30.0316 39.4184 30.3789 39.2011C30.4299 39.1689 30.3789 38.9974 30.4078 38.8939C30.4178 38.8686 30.4327 38.8455 30.4517 38.826C30.4707 38.8064 30.4934 38.7909 30.5184 38.7802C30.9934 38.5459 30.927 37.9094 31.3338 37.6565C31.693 37.4308 31.6113 36.9877 31.9007 36.7365C32.1569 36.5481 32.334 36.2718 32.3978 35.9608C32.4573 35.6366 33.0055 35.5399 33.0157 35.0765C33.0157 34.9509 33.2012 34.8338 33.2915 34.7064C33.6217 34.2397 34.2839 34.0275 34.3315 33.3485L35.6031 32.0806L36.7607 30.9281C37.1846 30.5054 37.6118 30.0794 38.0323 29.6618C38.6485 29.0541 39.2699 28.4516 39.8895 27.8473C39.8197 27.7777 39.7822 27.7064 39.7431 27.7064C36.805 27.7064 33.8685 27.7064 30.8657 27.7064L30.544 27.9865H26.9794L26.6168 28.326H24.3324L24.0498 28.6145H22.0802L21.7398 28.954H20.4324L20.126 29.2578L18.7199 29.358C18.405 29.8163 17.9301 29.5685 17.496 29.6296L17.1385 29.9419H15.8601C15.7393 30.0573 15.6201 30.1659 15.4992 30.2814H14.5255L14.294 30.5122C14.0063 30.7583 13.5518 30.429 13.2727 30.8517C13.1024 31.1199 12.6309 30.7651 12.4028 31.0927C12.1747 31.4203 11.7321 31.0927 11.5312 31.3337C11.2674 31.641 10.9252 31.5035 10.658 31.6121C10.3907 31.7207 10.1558 31.9363 9.80682 31.9363C9.58042 31.9363 9.36253 32.1807 9.12591 32.2283C8.8893 32.2758 8.63565 32.2503 8.39222 32.4574C8.14879 32.6645 7.74536 32.8936 7.44236 32.8614C6.99806 32.8122 6.79548 33.1703 6.4363 33.2501C6.07712 33.3299 5.73328 33.6456 5.38601 33.8578C4.95363 33.688 4.82085 34.3805 4.38507 34.1972C4.08377 34.3907 3.80288 34.6912 3.47604 34.754C2.59937 34.9237 1.8725 35.365 1.1235 35.7979C0.953272 35.8912 0.699632 35.8114 0.442588 35.8114L0 35.3107V34.6708C0.0851139 34.6335 0.211083 34.5673 0.340456 34.5214C0.78475 34.3687 0.968599 33.7916 1.51333 33.8017C1.83506 33.4623 2.30658 33.3367 2.67598 33.0277C3.08112 32.6883 3.64798 32.5185 4.14164 32.252C4.6353 31.9855 5.163 31.8005 5.58857 31.4033C5.86454 31.1804 6.18942 31.0257 6.53673 30.9518C6.83633 30.8704 6.99635 30.5003 7.38787 30.6124C7.7794 30.7244 7.95984 30.1473 8.3735 30.2423C9.03739 29.7687 9.82214 29.5192 10.5099 29.0881C10.8503 28.8691 11.4002 29.1594 11.6402 28.662C12.1713 28.8556 12.4913 28.3226 12.9526 28.2717C13.0888 28.253 13.2403 27.9967 13.3254 28.0255C13.8616 28.2055 14.1476 27.5486 14.6719 27.664C14.8251 27.6962 15.0294 27.4942 15.3001 27.3585H15.8346L16.1972 27.019H17.1692C17.3786 26.4673 17.9948 26.8917 18.2842 26.5505C18.6246 26.1397 19.12 26.5318 19.4979 26.3214C19.5745 26.2433 19.6511 26.1669 19.7873 26.0328H21.0946L21.3942 25.7341H22.356L22.7203 25.3946H24.014L24.3732 25.0551H25.9938L26.29 24.7598H28.2527L28.5932 24.4203H31.2096L31.55 24.0808H35.1469L35.4465 23.7821H45.2568C45.5853 23.1999 46.3581 23.1744 46.7241 22.6397C47.0646 22.1305 47.7846 22.1407 48.0979 21.606C48.1251 21.5602 48.1881 21.4889 48.2102 21.4957C48.6477 21.6654 48.7822 20.9865 49.2129 21.1443C49.5125 20.9406 49.6452 20.5655 50.0878 20.4807C50.3585 20.428 50.5406 19.9969 50.8198 19.9035C51.0732 19.8468 51.3045 19.7177 51.4854 19.5318C51.9008 19.6354 52.0318 19.2568 52.2736 19.0684C52.3161 19.0362 52.3451 18.97 52.391 18.9581C52.8358 18.8558 53.2493 18.6479 53.5962 18.3521C53.9168 18.089 54.2711 17.8698 54.6499 17.7003C55.0449 17.4848 55.4687 17.3133 55.8756 17.1113C56.2365 16.9416 56.5973 16.7498 56.9701 16.6021C57.3429 16.4545 57.4808 15.8706 58.0051 15.9452C58.2469 15.5633 58.7916 15.6601 59.0418 15.2934C59.4504 15.3766 59.6206 14.8284 60.0325 14.9234C60.31 14.5839 60.7407 14.5262 61.0931 14.3208C61.3944 14.1511 61.8063 14.1019 62.0378 13.8693C62.4038 13.4976 63.0354 13.8693 63.2975 13.3364C63.782 13.1907 64.2412 12.9721 64.6593 12.688C65.0475 12.4503 65.5445 12.4113 65.8628 12.0413C66.319 12.1635 66.651 11.8596 67.034 11.7137C67.3625 11.5881 67.6366 11.3742 68.035 11.3385C68.4463 11.2883 68.8242 11.0874 69.0955 10.775C69.9381 10.702 70.6275 10.2522 71.3255 9.84823C71.6846 9.64115 72.2208 9.92801 72.4575 9.42219C72.9886 9.65982 73.3086 9.12345 73.7904 9.06574C74.2554 9.02372 74.6884 8.81148 75.0058 8.46996C75.5165 8.6397 75.8569 8.07447 76.3285 8.13048C76.657 8.16613 76.7915 7.92 77.0196 7.80627C77.2477 7.69255 77.5711 7.9234 77.772 7.662C77.9729 7.4006 78.2622 7.51942 78.5091 7.45661C78.6963 7.40739 78.8717 7.1409 79.0198 7.16127C79.6258 7.24274 80.065 6.62829 80.688 6.80142C80.7986 6.83367 80.9927 6.72165 81.0914 6.6215C81.4047 6.30409 82.0192 6.74711 82.2115 6.16491H82.8618L83.2227 5.82543H84.1879L84.4279 5.5861C84.8909 5.36884 85.5191 5.73038 85.8919 5.18212C86.5319 5.24493 87.0443 4.63217 87.7235 4.84265C87.8103 4.8698 87.9669 4.66442 88.1184 4.5456H89.0547L89.419 4.20613H90.3961L90.6702 3.91927H91.6609L92.0013 3.57979H93.3087L93.6491 3.24031H94.6313L94.9718 2.90084H96.2809L96.5788 2.60379H98.1959L98.5585 2.26432H99.8625L100.142 1.97746H102.109L102.45 1.63798H104.413L104.753 1.2985H106.716L107.056 0.959027H109.673L109.972 0.661984H113.224L113.586 0.322507H118.817L119.032 0.0967522C119.125 0.0500626 119.225 0.0174556 119.328 0C122.215 0 125.096 0 127.972 0L128.275 0.303839H132.899L133.239 0.643316H136.182L136.523 0.982793H138.485L138.785 1.28322H140.399L140.765 1.6227H142.399L142.591 1.83149C142.968 2.07251 143.359 1.86034 143.752 2.00122L144.008 2.25583H145.264C145.489 2.42557 145.604 2.56645 145.744 2.59531C146.146 2.67509 146.566 2.49007 146.953 2.86859C147.174 3.08415 147.703 2.81766 147.933 3.23522C148.502 3.04341 148.859 3.68502 149.426 3.60694C149.634 3.57809 149.869 3.85477 150.107 3.8972C150.345 3.93964 150.618 3.91757 150.834 4.14332C150.955 4.26214 151.23 4.22819 151.438 4.25026C151.877 4.30967 151.949 4.94449 152.478 4.90545C152.592 4.90545 152.788 5.07518 152.829 5.19909C153.05 5.87805 153.646 6.26675 153.997 6.67582C154.029 7.13751 153.826 7.17485 153.53 7.17315C153.241 6.78106 152.762 6.57398 152.328 6.29731C151.973 6.06986 151.413 6.41782 151.196 5.86786C150.582 6.06815 150.16 5.33319 149.532 5.52839C149.142 5.65399 148.971 5.05821 148.52 5.18891C148.221 5.27717 147.933 5.17193 147.642 4.94109C147.436 4.77135 147.021 4.87999 146.658 4.86131L146.318 4.55918H145.038L144.677 4.2197H143.049L142.751 3.92266C142.13 3.83948 141.43 3.94473 140.739 3.87343L140.472 3.60694H137.595L137.12 3.24031H131.605L131.298 2.93479H124.75L124.409 3.23352H118.88L118.519 3.57299L115.268 3.52547ZM54.0967 59.9466H54.7385L55.0891 59.6207C55.2542 59.6457 55.4223 59.6422 55.5862 59.6105C55.9113 59.4798 56.2109 59.2829 56.5361 59.1454C56.8612 59.0079 57.217 58.9434 57.5302 58.7906C58.8461 58.1524 60.1432 57.4803 61.4608 56.8488C61.8208 56.647 62.1661 56.4202 62.494 56.1699C62.8345 55.9424 63.2243 55.7829 63.4967 55.4536C64.118 55.4264 64.387 54.812 64.9453 54.6049C65.5037 54.3978 65.7811 53.6917 66.394 53.3845C66.9046 53.1299 67.2843 52.6291 67.7081 52.2235C68.1797 51.7719 68.6052 51.2678 69.1057 50.8537C69.6062 50.4395 69.6947 49.7215 70.253 49.3685C70.8624 48.9815 70.9339 48.1803 71.5212 47.7729C71.5093 47.2281 72.054 47.0312 72.2532 46.6102C72.4524 46.1893 72.6907 45.7989 72.8592 45.3949C73.0277 44.9909 73.4107 44.6039 73.2524 44.0913C73.6763 43.8655 73.3954 43.3359 73.6184 43.1153C74.0031 42.7317 73.8074 42.309 73.8891 41.9085C73.918 41.771 74.0593 41.6555 74.1904 41.4909V37.295C74.078 37.1116 73.8108 36.9758 73.8738 36.6499C73.9691 36.1645 73.3103 35.8505 73.5435 35.3175C73.5435 35.3005 73.4771 35.236 73.4329 35.2072C73.2269 35.0731 73.2899 34.8083 73.1877 34.6606C72.9528 34.3211 72.5324 34.1141 72.5068 33.6337C72.5068 33.593 72.437 33.5539 72.3962 33.5183C72.0545 33.1808 71.6961 32.8607 71.3221 32.5592C70.9578 32.2928 70.4437 32.2758 70.1305 31.9058C69.647 31.9533 69.3321 31.349 68.8044 31.5663C68.5746 31.1521 68.052 31.3965 67.829 31.1946C67.4885 30.8856 67.1481 30.9026 66.7855 30.9382C66.4586 30.9688 66.3633 30.631 66.1046 30.5988C65.7879 30.5631 65.4645 30.5767 65.1547 30.5173C65.0219 30.4918 64.913 30.3374 64.8398 30.2763C64.4551 30.2372 64.1282 30.3459 63.8184 30.1846L63.5886 29.9538C63.1137 29.913 62.6302 29.9911 62.2591 29.9283L61.9289 29.6143H60.3117L59.944 29.2748H58.3388L58.0392 28.9744H56.0764L55.736 28.6349H53.1196L52.7791 28.2954H50.1627L49.8648 27.9984H47.5531C47.3029 28.4652 46.736 28.5602 46.3377 28.8895C45.856 29.2884 45.4696 29.7671 44.8738 30.0777C44.3205 30.3628 43.9051 30.9399 43.4762 31.4356C43.0472 31.9312 42.368 32.0331 41.9748 32.5711C41.6905 32.9615 41.2939 33.2721 40.9534 33.6167L39.9133 34.6538C39.5286 35.0374 39.183 35.4771 38.7473 35.7894C38.3115 36.1017 38.3132 36.6211 37.954 36.9419C37.5948 37.2627 37.2731 37.6429 36.9071 37.9688C36.5411 38.2947 36.5803 38.8769 36.1019 39.1044C35.6236 39.3318 35.6832 39.9412 35.295 40.2382C34.9069 40.5353 34.9546 41.1378 34.4882 41.3704C34.4405 41.3941 34.3826 41.4417 34.3758 41.4841C34.3281 41.7472 34.2686 41.9933 34.0251 42.1546C34.1545 42.5755 33.5349 42.7266 33.6693 43.1492C33.3051 43.341 33.3595 43.7824 33.1212 44.0692C32.9408 44.2865 32.8659 44.6073 32.6991 44.867C32.5322 45.1267 32.3688 45.4271 32.3858 45.7004C32.408 46.0755 32.0896 46.247 32.0454 46.5491C32.0011 46.8512 32.1152 47.1873 31.962 47.4844L31.7254 47.7203C31.6641 48.0818 31.8088 48.4654 31.6215 48.7998L31.3883 49.0443V53.5966L31.7288 53.9599V54.7712C31.8752 55.0869 31.9569 55.272 32.0454 55.4502C32.7859 56.9778 32.8761 57.0593 33.9179 58.1032C34.163 58.3493 34.5222 58.2492 34.7265 58.5445C35.1299 59.1267 35.9402 59.0911 36.4117 59.5867C36.8764 59.6207 37.1931 60.1401 37.7327 59.9754C37.8144 59.9517 37.9693 60.1655 38.1038 60.2809H38.7319L39.0945 60.6204H40.0512L40.424 60.9599H42.0326L42.3118 61.2383H48.9201L49.2163 60.9446H50.8522L51.1926 60.6051H52.5017L52.7996 60.3081H53.7613L54.0967 59.9466Z" fill="black"/>
</svg>
