<svg width="123" height="83" viewBox="0 0 123 83" fill="none" xmlns="http://www.w3.org/2000/svg">
<path d="M26.6363 26.5688C26.7309 26.4373 26.8097 26.3306 26.884 26.224C27.4674 25.4252 28.1088 24.6537 28.8051 23.9134C29.3006 23.3589 29.8028 22.8114 30.2352 22.2267C30.448 21.9626 30.6891 21.7134 30.9559 21.4819C31.2071 21.2215 31.433 20.9464 31.6316 20.659C31.8951 20.3035 32.4018 20.0689 32.4761 19.6281C32.7329 19.4717 32.8635 19.23 33.0662 19.0469C33.5166 18.6381 33.7891 18.1423 34.2576 17.7352C34.726 17.3282 35.0211 16.8572 35.4219 16.4289C36.1501 15.6468 36.8641 14.8588 37.5638 14.0649C38.1043 13.4571 38.7259 12.9008 39.2303 12.2716C39.5074 11.925 39.8745 11.6175 40.1875 11.2851C40.924 10.5013 41.6649 9.7228 42.4667 8.97452C43.1829 8.30623 43.8653 7.61127 44.6062 6.9572C45.4013 6.25691 46.1467 5.51752 46.935 4.8119C47.3314 4.45642 47.775 4.1436 48.1962 3.80767C48.5182 3.54995 48.8155 3.27446 49.1601 3.03452C49.4709 2.82479 49.7164 2.56351 50.0339 2.35556C50.2393 2.24861 50.4342 2.1298 50.6172 2.00008C50.8082 1.81391 51.0364 1.65361 51.2929 1.52552C51.5131 1.41679 51.7252 1.2981 51.928 1.17005C52.0563 1.12436 52.192 1.09266 52.3311 1.07584C52.8289 0.949647 53.3131 0.670598 53.8266 0.720365C53.8716 0.720365 53.9482 0.645713 53.9572 0.640381L54.9639 0.775464C55.2162 0.953202 55.5157 1.15049 55.8197 1.35311C55.9085 1.39599 55.9909 1.44668 56.0652 1.5042C56.6643 2.1636 57.2296 2.84789 57.9323 3.42909C58.1079 3.57661 58.2881 3.72059 58.466 3.86811C59.0268 4.33378 59.5538 4.83323 60.1596 5.25446C60.4457 5.45353 60.7137 5.66504 60.9929 5.86944C61.4496 6.19697 61.8055 6.60244 62.0334 7.05495C62.1168 7.18327 62.2205 7.30271 62.342 7.41043C62.851 7.98097 62.851 7.98096 62.9185 8.69547C62.9512 9.21599 62.8751 9.73722 62.6933 10.2382C62.4478 10.7288 62.1911 11.2194 61.8848 11.6939C61.6596 12.0352 61.4546 12.3835 61.2092 12.7195C60.9637 13.0554 60.7587 13.4055 60.511 13.7397C60.3173 14.0045 60.0425 14.2125 59.8601 14.5093C59.5854 14.959 59.2408 15.398 58.9119 15.837C58.6214 16.2227 58.2588 16.5799 57.9278 16.9479C57.8962 16.9834 57.8197 17.0118 57.8152 17.0385C57.7543 17.4828 57.2746 17.7814 57.0472 18.1707C56.8186 18.5366 56.5503 18.8863 56.2454 19.2158C55.7724 19.749 55.2702 20.2822 54.9482 20.8865C54.3964 21.2065 54.2883 21.7841 53.7883 22.1307C53.6824 22.4755 53.3581 22.7563 53.1126 23.0194C52.7568 23.3749 52.5811 23.837 52.1082 24.1338C51.9459 24.237 51.8266 24.3764 51.7659 24.5337C51.7044 24.6984 51.5722 24.841 51.392 24.9372C51.2614 25.0349 51.4123 25.2927 51.0564 25.2927C51.0091 25.2927 50.9145 25.5397 50.8087 25.6481C50.043 26.4799 49.3763 27.3633 48.5565 28.1738C48.0768 28.6501 47.703 29.1976 47.2728 29.7094C47.0889 29.9341 46.8897 30.1507 46.676 30.3582C46.471 30.5519 46.471 30.8399 46.1602 30.9749C45.4013 32.0005 44.4463 32.9301 43.6829 33.9538C43.4824 34.2258 43.2212 34.455 43.0252 34.7181C42.3699 35.6068 41.6739 36.4564 40.951 37.3095C40.7933 37.4979 40.6177 37.6881 40.4848 37.8747C40.364 38.0806 40.2128 38.2745 40.0344 38.4524C39.9938 38.4879 40.0028 38.5626 39.9758 38.6621C40.201 38.5555 40.3812 38.4701 40.5591 38.3777C41.473 37.8974 42.4749 37.5306 43.5297 37.29C43.7011 37.2438 43.8859 37.2383 44.0612 37.274C44.6896 37.4037 45.3292 37.4961 45.6985 37.9618C45.7391 38.0134 45.8517 38.0134 45.9238 38.0542C46.2868 38.2625 46.6093 38.5116 46.8809 38.7936C47.3962 39.3964 47.9862 39.9573 48.6421 40.4679C49.0227 40.7736 49.3358 41.1398 49.6916 41.4668C50.138 41.9082 50.6163 42.329 51.124 42.727C51.3852 42.9172 51.6397 43.118 51.901 43.3117C52.1622 43.5055 52.3514 43.7205 52.5969 43.9196C52.696 44.0031 52.8221 44.0653 52.9325 44.1418C53.0847 44.2318 53.2231 44.3356 53.3446 44.451C53.6982 44.8474 54.1757 45.1318 54.5968 45.4677C54.7928 45.6241 54.9346 45.8427 55.1689 45.9511C55.6976 46.1957 56.1679 46.5115 56.5584 46.8843C56.7338 47.0559 56.9202 47.2202 57.117 47.3766C57.3107 47.5312 57.4616 47.7179 57.6688 47.8654C57.8605 48.0403 58.0345 48.2269 58.189 48.4235C58.6867 48.9105 58.9277 49.5557 59.3736 50.0747C59.3894 50.0907 59.3872 50.7092 59.3736 50.7714C59.3601 50.9491 59.3511 51.1127 59.3376 51.3437C59.2593 51.4181 59.2017 51.5047 59.1687 51.5979C59.1011 52.1524 58.6845 52.6323 58.421 53.1478C58.1958 53.5868 57.7453 53.9316 57.5854 54.3919C57.1057 54.7794 56.9548 55.3517 56.394 55.6912L56.4751 55.7801C56.404 55.9212 56.2939 56.048 56.1529 56.1513C56.0118 56.2546 55.8434 56.3318 55.6598 56.3773C55.5517 56.8874 55.0765 57.1309 54.6261 57.3939C54.4234 57.5308 54.3468 57.7281 54.0991 57.8774C53.8514 58.0267 53.5833 58.1049 53.4392 58.3217C53.3736 58.4302 53.2778 58.5256 53.1588 58.6007C53.0398 58.6759 52.9009 58.7287 52.7523 58.7554C52.7298 58.8389 52.723 59.006 52.678 59.022C52.2275 59.1873 51.9821 59.6441 51.4956 59.7721L51.4348 60.0102C51.4123 60.0316 51.3965 60.0547 51.3762 60.0618L50.7839 60.2662L50.9033 60.3995C50.0902 60.8989 49.4912 61.5885 48.7412 62.1537C48.2908 62.4968 47.9417 62.9553 47.4327 63.2646C47.2931 63.3499 47.1399 63.421 46.9823 63.5028L47.0769 63.6308C46.8134 63.8085 46.5363 63.9862 46.2796 64.1889C46.0773 64.3841 45.8575 64.5676 45.622 64.7381C45.3427 64.8962 45.2639 65.186 44.9103 65.3121C44.6468 65.4064 44.4463 65.7085 44.1828 65.8631C43.9193 66.0178 43.7504 66.2648 43.4689 66.4177C43.2331 66.5833 43.0119 66.7615 42.8068 66.9509C42.5545 67.1286 42.282 67.3064 41.9397 67.5214C41.9397 67.5126 41.9172 67.5925 41.9059 67.6299C40.4285 68.6963 39.0096 69.7752 37.4016 70.7314L37.3588 70.9091C36.4579 71.3268 35.7463 71.988 34.8274 72.4519L34.7283 72.7078C34.6612 72.7082 34.5947 72.7185 34.5323 72.738C34.3089 72.8421 34.0972 72.961 33.8995 73.0935C33.7396 73.2073 33.6495 73.3975 33.4198 73.4348C33.4198 73.6356 33.2193 73.577 33.1135 73.6445C32.7959 73.8255 32.4949 74.0238 32.2126 74.2382C31.9311 74.4781 31.5054 74.5332 31.3118 74.7447C31.0167 75.0629 30.6136 75.2157 30.3141 75.493C30.2983 75.509 30.2938 75.541 30.278 75.5463C30.0821 75.621 29.7961 75.6565 29.706 75.7756C29.5761 75.9209 29.4078 76.0421 29.2127 76.1311C28.9177 76.3088 28.5641 76.4048 28.3276 76.7141C28.1903 76.8918 27.8479 76.9913 27.5146 77.1708C27.429 77.4499 26.9966 77.5263 26.7083 77.6525C26.3525 77.8036 26.1273 78.1004 25.7624 78.2035C25.3976 78.3066 25.1611 78.5092 24.8616 78.6763C24.4402 78.9222 23.9873 79.1325 23.5103 79.3037C23.2118 79.4206 22.9314 79.5643 22.6747 79.732C22.3958 79.9031 22.0937 80.0491 21.7739 80.1675C21.1951 80.3719 20.6478 80.6723 20.0735 80.8607C19.4271 81.0704 18.792 81.321 18.1614 81.5716C17.5308 81.8222 16.907 81.9164 16.2876 82.1422C15.9363 82.2719 15.5827 82.0889 15.2043 82.2666C14.9791 82.0498 14.6458 82.3839 14.362 82.3146C14.1796 82.2701 13.9724 82.1368 13.7066 82.2968C13.522 82.1048 13.2089 82.1866 12.9409 82.1742C12.6729 82.1617 12.4184 82.2168 12.2495 82.0498C11.7675 82.1386 11.459 81.9022 11.0716 81.808C10.5626 81.6836 10.2248 81.3761 9.896 81.0864C9.20909 80.4839 8.4501 79.9364 7.90958 79.2166C7.84764 79.1528 7.77128 79.0986 7.68436 79.0566C7.565 78.8238 7.45914 78.6336 7.36905 78.4417C7.19789 78.1004 7.03799 77.7556 6.86232 77.4179C6.759 77.2244 6.64326 77.0351 6.5155 76.8509C5.72049 75.6903 4.63944 74.718 3.79263 73.6036C3.30391 72.9531 2.87601 72.2635 2.31297 71.6485C2.21388 71.5436 2.22063 71.3268 2.08775 71.2824C1.90758 71.2166 1.88956 71.0904 1.79947 70.982C1.47082 70.5641 1.18826 70.1246 0.954913 69.6685C0.74321 69.3006 0.504497 68.9576 0.295046 68.5807C0.237511 68.46 0.222705 68.3291 0.252241 68.2022C0.282972 68.075 0.276213 67.9439 0.232474 67.819C0.188734 67.6942 0.109187 67.579 0 67.4823C0.148839 67.0886 0.178158 66.6727 0.0855831 66.2684C0.0378695 66.0248 0.0907859 65.7755 0.236488 65.5574C0.380626 65.3441 0.493229 65.1806 0.400891 64.978C0.400891 64.962 0.499987 64.8909 0.542778 64.8554C0.542778 64.6119 0.277023 64.4412 0.43017 64.1995C0.758985 63.6823 0.745463 63.1473 0.984192 62.6408C1.24995 62.0773 1.43463 61.5068 1.69363 60.9451C1.81744 60.7356 1.95811 60.5326 2.11478 60.3373C2.40756 59.7347 2.63504 59.038 3.1125 58.3697C3.29833 58.1163 3.44428 57.8459 3.54715 57.5646C3.65277 57.2801 3.86565 57.0278 4.15747 56.8412C4.3093 56.2596 4.61138 55.709 5.04484 55.2237C5.23402 55.03 5.2115 54.8452 5.36015 54.6621C5.8331 54.0773 6.15739 53.4339 6.6371 52.8474C6.99434 52.475 7.25599 52.0512 7.40735 51.5997C7.42987 51.5143 7.54699 51.4219 7.6078 51.3402C8.22489 50.4692 8.85549 49.6054 9.43429 48.7185C9.71747 48.2999 10.0516 47.9041 10.432 47.5366L10.5468 47.0905C10.7968 46.8292 11.0468 46.6568 11.1347 46.4613C11.3779 45.9174 11.8576 45.4695 12.1977 44.9683C12.3559 44.6842 12.5628 44.4187 12.8125 44.1791C13.0377 44.0014 13.0738 43.6743 13.3148 43.429C13.5557 43.1838 13.6458 42.8763 13.8598 42.6239C14.0737 42.3715 14.2359 42.0587 14.4904 41.8561C14.9768 41.4704 15.2336 40.9905 15.4994 40.5461C15.8786 39.9145 16.3462 39.3183 16.8934 38.7688C17.0507 38.6338 17.1663 38.472 17.2313 38.296C17.2943 37.9512 17.6051 37.7094 17.8056 37.4251C18.006 37.1407 18.1029 36.8456 18.4519 36.6572C18.7109 36.1649 19.274 35.8094 19.515 35.3011C19.6059 35.0808 19.7709 34.8843 19.9924 34.7323C20.1613 34.6221 20.1951 34.3573 20.355 34.1991C20.5149 34.0409 20.5081 33.8134 20.7716 33.6659C20.9505 33.5494 21.0685 33.3848 21.1027 33.2038C21.1208 32.9354 21.4406 32.8767 21.5532 32.6848C21.6703 32.4608 21.9698 32.3026 22.0036 32.0431C22.0036 32.0129 22.0599 31.9756 22.0914 31.9436C22.7108 31.3553 23.1206 30.6675 23.6679 30.04C23.7748 29.9388 23.8932 29.8454 24.0215 29.761L24.1139 29.4055C24.5643 29.0714 24.7895 28.6199 25.1273 28.2342C25.4652 27.8485 25.7692 27.4913 26.0732 27.1109C26.2456 26.9207 26.4337 26.7396 26.6363 26.5688Z" fill="#FFF56E"/>
<path d="M97.3074 71.3483L97.2511 71.5669L94.9989 72.5818L94.9426 72.8004C94.8778 72.8147 94.8152 72.8344 94.7557 72.8591C94.08 73.2146 93.3391 73.4207 92.6814 73.8633C92.2468 74.1566 91.704 74.345 91.2108 74.5867C90.6568 74.8551 90.0847 75.0915 89.5194 75.3225C89.0375 75.5181 88.5577 75.7207 88.0803 75.9251C87.6028 76.1295 87.0916 76.2415 86.6479 76.5472C86.5849 76.5916 86.4655 76.5614 86.3709 76.5756C85.7955 76.7117 85.2507 76.918 84.7561 77.187H84.1413C83.916 77.5709 83.5377 77.4163 83.2291 77.5425C82.8554 77.6556 82.4554 77.7047 82.0558 77.6865C81.8305 77.6865 81.6053 77.8038 81.3801 77.7113C81.1549 77.6189 80.8621 77.7113 80.6099 77.69C80.3847 77.6722 80.1955 77.6047 79.9838 77.5727C79.7652 77.539 79.544 77.517 79.3216 77.507C79.1302 77.507 78.8982 77.6047 78.7676 77.4465C78.3532 77.5158 78.1888 77.2492 77.9658 77.091C77.5289 76.7693 77.1596 76.3801 76.7294 76.053C76.1078 75.5914 75.5554 75.0749 75.0831 74.5138C74.8579 74.2437 74.6799 73.9469 74.484 73.6625L74.6439 73.5487C74.1362 73.0579 73.7952 72.4731 73.653 71.8495C73.6375 71.7979 73.6083 71.7494 73.5674 71.7074C72.7431 70.7316 71.9368 69.7433 71.0787 68.7924C70.9233 68.6147 70.795 68.437 70.6283 68.2592C70.4617 68.0815 70.2882 67.8807 70.1193 67.6905C69.9205 67.5179 69.7523 67.3247 69.6193 67.1164C69.1239 66.0268 68.1329 65.2679 67.41 64.3295C66.9244 63.7026 66.5458 63.0278 66.2839 62.3228C66.1511 62.0055 66.0406 61.6827 65.9528 61.3559C65.874 61.0004 65.8898 60.6236 65.7997 60.2735C65.7772 60.1864 65.7546 60.0957 65.7456 60.0602C65.8413 59.8897 65.9101 59.7106 65.9506 59.527C65.9506 59.2035 65.6736 58.912 66.0925 58.5547C65.8988 58.4232 66.124 58.1993 66.0767 58.0517C66.0415 57.8273 66.1112 57.6005 66.2726 57.4137C66.4359 57.1543 66.5483 56.8768 66.606 56.5907C66.6625 56.3258 66.7719 56.0696 66.9303 55.8318C67.0677 55.6398 67.2658 55.4585 67.1397 55.1813C67.0339 54.9484 67.2681 54.5983 67.5158 54.4188C67.5564 54.2233 67.5293 54.0313 67.6262 53.9495C67.9888 53.6509 68.0113 53.3115 68.0924 53.036L68.7027 52.3161C68.7523 51.8433 69.1216 51.3937 69.5405 50.9475C69.6546 50.7879 69.751 50.6208 69.8288 50.4481C70.3153 49.643 70.8918 48.868 71.4368 48.0824C72.0066 47.2613 72.5945 46.449 73.18 45.635C73.2949 45.475 73.3534 45.2937 73.4683 45.1337C73.7363 44.7623 73.9998 44.3872 74.3083 44.0335C74.797 43.4737 75.1619 42.8694 75.5853 42.2864C75.9276 41.8118 76.1821 41.2839 76.7114 40.8911C76.8488 40.7973 76.9482 40.6737 76.9974 40.5357C77.0582 40.1891 77.3668 39.9456 77.5897 39.6736C78.1145 39.0373 78.5514 38.369 79.0199 37.7185C79.0446 37.683 79.0469 37.6367 79.0784 37.6048C79.3472 37.3528 79.5918 37.0855 79.8104 36.8049C80.0014 36.5123 80.2333 36.2375 80.5018 35.9856C80.5513 35.9376 80.6279 35.886 80.6414 35.838C80.745 35.4132 81.1572 35.1271 81.4409 34.7858C81.8305 34.3095 82.2044 33.8154 82.567 33.3266C82.8042 32.9608 83.0807 32.6117 83.3935 32.2833C83.7484 31.9302 84.0506 31.5461 84.2944 31.1386C84.5234 30.8174 84.7816 30.5098 85.0669 30.218C85.5173 29.7345 85.8529 29.2084 86.2988 28.725C86.7448 28.2415 87.1344 27.7385 87.542 27.2391C87.5938 27.15 87.6316 27.0563 87.6546 26.96L88.1478 26.6596L88.2514 26.258C89.0802 25.3782 89.7401 24.4468 90.5036 23.5706C90.7536 23.2844 91.0711 23.0018 91.213 22.6943C91.5013 22.0687 92.24 21.6421 92.472 21.0058C92.8594 20.8725 92.7558 20.5188 93.0012 20.3304C93.2467 20.142 93.3413 19.8967 93.5192 19.7207C93.8476 19.3754 94.1391 19.0092 94.3908 18.6259C94.8413 17.9665 95.4989 17.3817 95.866 16.6832C95.9583 16.5055 96.2736 16.3793 96.3615 16.2033C96.4391 16.0037 96.5973 15.8296 96.8119 15.7074L96.8975 15.3804C97.3479 14.7921 97.9808 14.3513 98.1902 13.7132C98.2394 13.6185 98.3113 13.5322 98.4019 13.459C98.6995 13.1968 98.938 12.8962 99.1069 12.5703C99.2307 12.3055 99.6181 12.0922 99.7983 11.8256C100.406 10.9263 101.195 10.1087 101.825 9.2182C102.132 8.78606 102.498 8.38194 102.917 8.01314C103.07 7.87262 103.205 7.72085 103.321 7.55991C103.453 7.33922 103.608 7.12706 103.782 6.92538C104.501 6.26597 105.014 5.49104 105.708 4.81919C106.172 4.36951 106.609 3.90384 107.073 3.45061C107.478 3.01222 107.921 2.59651 108.399 2.20644C108.528 2.10868 108.624 1.96827 108.744 1.86874C109.044 1.63175 109.344 1.38884 109.645 1.14001C110.275 0.63909 111.047 0.263777 111.897 0.0451436C112.075 -0.00462311 112.347 -0.0615023 112.431 0.164225C112.494 0.087462 112.593 0.0331272 112.707 0.0125879C112.82 -0.0079514 112.939 0.00689743 113.039 0.0540283C113.343 0.254872 113.714 0.372179 114.003 0.597906C114.495 0.994126 114.926 1.43435 115.289 1.90961C115.514 2.18689 116.025 2.23843 116.003 2.681C116.385 2.81075 116.489 3.17156 116.775 3.37773C117.487 3.88429 118.099 4.47615 118.779 5.00937C119.213 5.38204 119.622 5.77241 120.005 6.17889C120.23 6.14689 120.331 6.35662 120.525 6.42416C120.768 6.51303 120.822 6.71565 121.011 6.82585C121.193 6.94687 121.356 7.08472 121.496 7.23642C121.635 7.37506 121.743 7.53858 121.892 7.67011C122.041 7.80163 122.135 7.98826 122.369 8.08601C122.55 8.16244 122.595 8.41127 122.703 8.58546C122.811 8.75964 122.903 8.94093 123 9.11867C122.982 9.3444 122.964 9.57546 122.941 9.85628C122.797 9.99136 122.653 10.1851 122.851 10.3753C122.76 10.4976 122.685 10.6268 122.626 10.761C122.514 11.0969 122.466 11.4346 122.223 11.7634C121.901 12.2024 121.881 12.6983 121.579 13.1462C121.237 13.6563 121.009 14.1931 120.716 14.7156C120.583 14.9574 120.349 15.192 120.293 15.4266C120.207 15.7821 119.795 16.0078 119.723 16.3775C119.633 16.697 119.463 16.9992 119.223 17.2662C118.741 17.8563 118.426 18.4961 117.987 19.0987C117.705 19.4861 117.516 19.9109 117.257 20.3108C117.118 20.5334 116.943 20.7408 116.737 20.9276C116.543 21.1053 116.466 21.3613 116.329 21.5799C116.225 21.7884 116.087 21.9851 115.917 22.1646C115.692 22.3619 115.845 22.6481 115.467 22.8258C115.282 22.9129 115.187 23.1991 115.054 23.3964C114.935 23.6213 114.791 23.8377 114.624 24.0433C113.962 24.7134 113.561 25.4901 113 26.2011C112.471 26.8276 112.002 27.4847 111.597 28.1669C111.467 28.405 111.066 28.5117 111.124 28.8014C110.701 29.1569 110.534 29.6154 110.237 30.0189C109.94 30.4224 109.579 30.8098 109.316 31.224C108.935 31.8265 108.433 32.3757 108.025 32.9658C107.764 33.4075 107.463 33.834 107.125 34.2419C106.674 34.713 106.406 35.2373 105.998 35.7189C105.712 36.0655 105.489 36.469 105.226 36.844C104.863 37.3595 104.622 37.9265 104.084 38.3708C103.878 38.7881 103.631 39.1916 103.343 39.5776C102.823 40.3952 102.289 41.2075 101.719 42.0055C101.668 42.0784 101.602 42.1442 101.539 42.2188C101.767 42.4992 102.013 42.7703 102.276 43.0311C102.789 43.4968 103.222 44.0264 103.803 44.4423C103.965 44.5906 104.111 44.7493 104.24 44.9169C104.751 45.4501 105.406 45.8678 105.935 46.3815C106.336 46.7689 106.823 47.0729 107.239 47.4479C107.762 47.9537 108.345 48.4186 108.98 48.836C108.996 48.836 109.028 48.836 109.034 48.8573C109.343 49.3657 109.969 49.611 110.386 50.0286C110.573 50.2295 110.83 50.3828 111.127 50.4694C111.471 50.5636 111.721 50.8249 111.98 51.0489C112.307 51.3261 112.563 51.6638 112.917 51.9127C113.449 52.2877 113.795 52.7907 114.223 53.2368C114.81 53.879 115.292 54.5771 115.658 55.3146C115.69 55.3615 115.729 55.4056 115.773 55.4461C115.773 55.7536 115.617 56.0646 115.662 56.3881C115.669 56.7177 115.537 57.0397 115.286 57.3035C115.061 57.5203 115.192 57.8047 114.849 57.9593C114.595 58.0748 114.611 58.3503 114.365 58.5245C114.163 58.6685 114.079 58.9493 113.861 59.3012L113.505 59.5199C113.45 59.6399 113.379 59.7549 113.293 59.8629C112.759 60.3463 112.392 60.9293 111.856 61.4145C111.44 61.802 110.973 62.1397 110.557 62.5219C110.14 62.904 109.681 63.199 109.266 63.5634C109.019 63.7802 108.751 63.9989 108.476 64.1961C107.492 64.9071 106.503 65.5985 105.519 66.2988C105.321 66.4137 105.132 66.5377 104.953 66.6703C104.782 66.8196 104.559 66.9582 104.361 67.111C104.162 67.2412 103.951 67.36 103.731 67.4665C103.521 67.5874 103.363 67.7971 103.093 67.822C102.798 68.2806 102.159 68.3552 101.818 68.6805C101.478 69.0057 101.059 69.1195 100.753 69.4483C100.528 69.6989 100.1 69.8376 99.7645 70.0277C99.6271 70.0895 99.5012 70.1661 99.3906 70.2552C99.1001 70.545 98.715 70.6107 98.3614 70.7885C98.0078 70.9662 97.7037 71.1279 97.3074 71.3483Z" fill="#FFF56E"/>
</svg>
