<svg width="1440" height="918" viewBox="0 0 1440 918" fill="none" xmlns="http://www.w3.org/2000/svg">
<path d="M2054.96 720.081C2050.68 721.46 2046.38 722.712 2042.14 724.23C1996.59 740.572 1950.69 755.547 1903.72 765.606C1868.62 773.107 1833.73 770.638 1799.36 759.35C1790.76 756.528 1782.09 753.908 1773.46 751.352C1757.03 746.505 1740.92 748.051 1725.12 754.849C1696.81 767.025 1672.58 786.132 1652.38 811.546C1637.62 830.128 1623.69 849.558 1609.44 868.676C1606.01 873.292 1602.76 878.042 1599.46 882.768C1579.79 911.044 1553.93 925.731 1522.45 928.229C1511.7 929.083 1500.94 929.96 1490.26 931.432C1477.67 933.152 1465.69 938.532 1455.47 947.053C1448.36 952.916 1441.14 958.595 1434.14 964.642C1394.44 998.799 1350.16 1010.26 1301.27 999.913C1282.22 995.873 1263.19 991.043 1243.92 989.179C1193.82 984.338 1155.28 1007.1 1128.72 1055.61C1115.57 1079.61 1107.76 1106.34 1098.83 1132.5C1091.82 1153.03 1085.08 1173.77 1076.69 1193.59C1071.07 1206.86 1063.53 1219.32 1055.51 1230.96C1042.67 1249.6 1024.89 1258.77 1004.25 1260.46C996.814 1261.06 989.347 1261.04 981.91 1260.4C968.361 1259.28 955.732 1262.51 943.046 1267.74C926.258 1274.67 909.256 1281.2 891.954 1286.11C869.89 1292.38 847.49 1289.25 825.196 1286.11C810.068 1283.97 794.864 1282.47 779.67 1281.07C750.247 1278.37 723.099 1286.59 699.435 1306.31C682.362 1320.51 666.249 1336.31 650.481 1352.39C631.483 1371.75 613.38 1392.24 594.748 1412.08C549.633 1460.1 495.956 1486.94 434.855 1495.69C409.256 1499.36 383.804 1501.52 358.108 1496.42C327.182 1490.27 300.471 1474.37 276.385 1452.27C264.141 1441.03 252.517 1428.95 240.558 1417.28C236.917 1413.72 233.347 1410.02 229.442 1406.86C220.098 1399.28 209.535 1395.74 198.368 1399.21C183.703 1403.77 169.093 1408.86 154.889 1415.02C120.047 1430.13 88.1512 1451.89 56.1636 1473.3C19.6005 1497.78 -16.7086 1522.74 -53.2818 1547.16C-64.1238 1554.41 -75.4837 1560.65 -86.6456 1567.27C-88.6769 1568.46 -90.8707 1569.27 -93.8516 1570.66C-93.8516 1561.37 -93.9582 1552.83 -93.7297 1544.3C-93.6942 1543.08 -92.2063 1541.6 -91.0535 1540.78C-60.6097 1518.67 -30.308 1496.28 0.40493 1474.65C41.2641 1445.88 82.103 1416.98 125.862 1394.06C146.81 1383.1 168.245 1373.52 191.015 1368.39C211.435 1363.77 230.036 1368.71 246.368 1382.96C258.718 1393.73 270.047 1406.01 282.382 1416.8C293.519 1426.56 304.996 1435.97 317.036 1444.18C340.142 1459.95 365.787 1465.84 392.437 1464.69C425.809 1463.35 458.8 1456.17 490.243 1443.39C521.22 1430.75 547.343 1409.24 571.246 1384.11C592.544 1361.73 613.009 1338.31 634.622 1316.33C648.806 1301.87 663.763 1288.43 679.406 1276.06C711.186 1251.04 746.85 1241.83 785.246 1246.21C802.73 1248.2 820.286 1249.81 837.633 1252.75C864.695 1257.34 890.446 1252.59 915.573 1241.21C920.651 1238.9 925.765 1236.7 930.808 1234.32C946.947 1226.65 964.519 1223.7 981.92 1225.73C986.377 1226.21 990.858 1226.35 995.331 1226.15C1009.24 1225.58 1021.23 1219.8 1028.74 1206.21C1036.25 1192.61 1043.36 1178.77 1048.82 1164.14C1058.59 1137.98 1066.85 1111.08 1075.99 1084.61C1084.57 1059.8 1095.09 1036.05 1110.11 1015.36C1143.69 969.091 1187.3 948.346 1239.6 952.685C1259.01 954.301 1278.13 960.037 1297.45 963.361C1308.26 965.232 1319.15 966.482 1330.08 967.106C1351.29 968.395 1372.34 962.273 1390.4 949.563C1404.23 939.944 1417.55 929.32 1430.69 918.483C1449.79 902.717 1471.03 894.488 1494.47 892.815C1504.72 892.082 1514.97 891.147 1525.17 889.745C1541.51 887.488 1555.08 878.867 1565.79 864.798C1572.84 855.565 1579.47 845.882 1586.15 836.279C1603.47 811.413 1622.01 787.805 1642.95 766.806C1660.75 748.917 1680.89 735.275 1702.71 724.68C1729.46 711.702 1756.67 709.457 1784.88 718.142C1801.96 723.399 1819.27 728.304 1836.75 731.045C1863.88 735.298 1890.76 730.71 1917.03 722.799C1958.67 710.253 2000.16 696.934 2041.7 683.916C2043.79 683.355 2045.75 682.278 2047.43 680.759C2046.03 680.759 2044.62 680.69 2043.23 680.759C1989.91 683.725 1936.59 686.691 1883.27 689.658C1845.34 691.724 1807.43 694.211 1769.48 695.428C1740.66 696.334 1711.79 695.653 1682.95 695.428C1631.45 695.007 1584.63 712.25 1541.64 743.706C1526.47 754.82 1511.59 766.506 1496.89 778.422C1458.16 809.815 1419.98 842.073 1380.85 872.802C1358.86 890.107 1335.01 904.112 1309.87 914.472C1273.69 929.349 1236.27 932.753 1198.12 930.053C1184.89 929.032 1171.61 928.996 1158.38 929.943C1135.35 931.749 1115.34 942.996 1097.07 958.445C1077.3 975.18 1060.03 994.996 1043.24 1015.35C1024.66 1037.9 1006.57 1060.97 988.07 1083.6C981.417 1091.74 974.359 1099.46 967.203 1107.05C920.992 1156.03 865.548 1177.7 803.066 1177.92C783.682 1177.98 764.294 1176.47 744.915 1176.62C720.606 1176.81 698.14 1185.28 677.69 1199.84C664.09 1209.54 651.029 1220.26 638.08 1231.06C612.79 1252.16 586.942 1272.21 559.124 1288.83C489.933 1330.17 418.331 1337.1 344.585 1307.25C312.75 1294.38 281.616 1279.24 250.019 1265.61C235.637 1259.4 221.073 1253.38 206.214 1249.03C186.602 1243.3 169.016 1248.87 155.011 1266.09C147.586 1275.22 140.389 1284.58 133.418 1294.17C92.5438 1350.15 46.7892 1400.13 -6.78582 1440.37C-29.5209 1457.45 -53.0431 1472.88 -79.1908 1482.38C-83.7612 1484.03 -88.4332 1485.2 -93.8871 1486.84C-93.8871 1478.19 -94.0039 1470.19 -93.7602 1462.22C-93.7246 1461.07 -92.1352 1459.59 -90.9723 1458.99C-49.6712 1437.87 -14.2914 1406.88 19.5497 1373.35C52.0198 1341.2 80.9655 1305.21 108.809 1268C115.035 1259.68 121.447 1251.55 128.046 1243.59C152.172 1214.45 181.874 1205.43 215.198 1216.01C238.913 1223.52 261.805 1234.42 285.059 1243.83C313.151 1255.2 340.853 1268.06 369.407 1277.63C418.412 1294.07 466.965 1290.64 514.471 1268.5C551.481 1251.26 584.246 1226.14 616.457 1199.79C630.031 1188.68 643.671 1177.57 657.885 1167.58C684.713 1148.71 714.177 1139.3 745.763 1139.27C762.669 1139.27 779.569 1140.33 796.474 1140.42C856.229 1140.86 908.037 1118.61 949.861 1069.35C970.804 1044.68 990.812 1018.98 1011.53 994.061C1030.32 971.457 1049.69 949.523 1071.38 930.393C1102.13 903.271 1136.65 889.283 1175.8 891.06C1184.91 891.47 1194.03 891.637 1203.13 892.336C1244.45 895.44 1283.6 886.657 1320.6 865.335C1352.51 846.943 1382.11 824.478 1410.84 800.414C1411.11 800.249 1411.34 800.004 1411.5 799.705C1411.66 799.406 1411.75 799.063 1411.76 798.712C1411.25 798.698 1410.74 798.75 1410.24 798.868C1391.49 805.585 1372.19 806.883 1352.7 806.549C1319.01 805.972 1285.47 803.796 1252.24 796.738C1234.78 793.022 1217.98 796.663 1203.28 808.187C1188.43 819.833 1173.97 832.17 1159.81 844.889C1124.97 876.201 1090.84 908.551 1055.57 939.234C1030.79 960.799 1003.9 978.74 974.14 990.634C948.566 1000.85 922.515 1005.53 895.428 1002.32C886.033 1001.21 876.537 1001.27 867.147 1000.15C847.693 997.841 830.198 1003.98 814.532 1016.4C800.278 1027.71 786.521 1039.87 772.927 1052.18C749.724 1073.22 726.715 1094.48 701.024 1111.66C659.693 1139.32 614.441 1154.13 567.813 1164.28C537.272 1170.93 506.311 1173.87 475.263 1172.5C430.427 1170.51 393.397 1148.42 362.318 1112.48C355.117 1104.16 348.211 1095.5 341.239 1086.92C324.384 1066.14 304.168 1064.58 281.788 1079.57C273.907 1084.85 267.097 1092.42 260.389 1099.66C252.345 1108.32 244.753 1117.59 237.267 1126.91C210.251 1160.57 180.468 1190.71 148.561 1218.23C121.256 1241.85 94.1638 1265.81 66.6907 1289.2C56.4937 1297.86 45.6619 1305.65 34.8148 1313.27C6.88473 1332.89 -21.2181 1352.1 -49.1888 1371.6C-61.624 1380.33 -75.3053 1386.53 -89.6164 1389.91C-90.8859 1390.21 -92.1555 1390.37 -93.9075 1390.67C-93.9075 1384.1 -94.0344 1377.9 -93.8008 1371.72C-93.6917 1370.96 -93.4284 1370.24 -93.0318 1369.62C-92.6352 1368.99 -92.1161 1368.48 -91.5156 1368.12C-69.7758 1358.79 -52.322 1341.55 -33.2026 1327.41C-21.3958 1318.69 -10.0968 1309.03 1.94869 1300.76C39.1211 1275.24 72.6119 1244.11 106.448 1213.46C133.149 1189.27 160.703 1166.22 184.967 1138.77C199.999 1121.77 214.091 1103.69 229.147 1086.73C239.248 1075.36 249.531 1063.82 261.14 1054.63C282.834 1037.43 307.083 1030.82 332.804 1041.36C341.782 1045.03 350.329 1051.29 357.824 1058.13C367.219 1066.7 375.278 1077.14 384.002 1086.66C411.079 1116.22 442.574 1134.84 480.889 1134.33C518.112 1133.84 555.031 1129.78 591.127 1118.47C594.098 1117.54 597.063 1116.58 599.851 1114.66C596.606 1114.96 593.366 1115.34 590.116 1115.55C556.6 1117.71 525.257 1110.36 496.469 1089.85C471.525 1072.09 448.338 1051.77 425.847 1030.3C417.468 1022.3 409.058 1014.31 400.263 1006.94C378.04 988.319 353.401 975.774 326.045 970.713C314.609 968.589 303.233 969.969 291.98 972.86C256.666 981.926 226.131 1001.23 199.557 1028.84C170.611 1058.92 144.844 1092.36 120.032 1126.78C91.3403 1166.6 62.4199 1206.16 29.2034 1241.31C7.2097 1264.59 -15.3731 1287.27 -42.2012 1303.11C-57.8675 1312.34 -74.7017 1319.05 -91.018 1326.87C-91.7492 1327.22 -92.6024 1327.25 -93.9176 1327.55C-93.9176 1319.38 -94.0039 1311.52 -93.816 1303.68C-93.7907 1302.6 -92.5719 1301.03 -91.5867 1300.57C-35.0155 1273.72 5.98586 1224.88 45.5247 1174.3C65.1012 1149.25 82.6261 1122.13 101.939 1096.8C123.196 1068.91 144.743 1041.21 167.447 1014.85C200.242 976.72 239.365 950.412 285.703 938.963C306.895 933.729 327.852 934.225 348.673 941.057C378.31 950.781 405.295 966.218 429.554 988.117C452.121 1008.5 475.151 1028.25 498.297 1047.78C542.605 1085.17 590.025 1085.64 639.045 1061.71C669.925 1046.64 696.19 1023.74 720.296 997.547C736.353 980.114 751.679 961.768 768.031 944.687C780.806 931.279 794.165 918.608 808.057 906.722C834.738 883.98 864.542 877.799 897.114 886.525C910.817 890.199 924.732 892.764 938.755 894.2C958.982 896.26 977.507 889.681 993.849 875.872C999.591 871.074 1005.1 865.927 1010.35 860.453C1047.77 820.985 1085.13 781.442 1122.42 741.825C1137.59 725.776 1152.48 709.37 1168.1 693.928C1177.6 684.545 1187.7 675.973 1198.32 668.283C1222.13 650.971 1247.92 647.006 1275.09 656.165C1281.92 658.473 1288.81 660.781 1295.37 663.845C1338.5 684.118 1379.41 676.327 1418.14 649.996C1437.87 636.579 1455.91 619.988 1475.34 605.948C1495.6 591.314 1516.16 577.048 1537.4 564.37C1571.04 544.288 1607.1 539.17 1644.68 545.275C1681.75 551.3 1718.84 557.532 1756.09 562.01C1816.59 569.252 1877.2 568.935 1937.84 562.587C1977.4 558.426 2016.46 551.386 2054.98 540.439V618.43C2053.13 619.226 2051.29 620.104 2049.4 620.808C2000.87 638.939 1950.69 644.842 1899.97 646.776C1849.5 648.68 1799.18 644.756 1748.94 640.324C1706.66 636.59 1665.85 641.178 1626.93 661.352C1625.48 662.108 1624.04 662.928 1622.6 663.713C1649.16 659.5 1675.64 658.132 1702.16 657.688C1724.87 657.301 1747.62 658.092 1770.29 657.007C1849.97 653.204 1929.62 648.824 2009.28 644.646C2024.52 643.85 2039.75 643.03 2054.98 642.188L2054.96 720.081ZM748.678 1022.32C763.227 1010.1 777.182 997.639 791.802 986.265C814.014 968.982 838.39 959.443 865.817 962.19C877.542 963.344 889.319 963.788 901.05 964.85C916.953 966.284 932.952 964.313 948.216 959.039C978.517 948.727 1005.67 931.386 1030.52 909.769C1066.57 878.405 1101.65 845.599 1137.43 813.82C1152.3 800.616 1167.48 787.748 1183.28 776.033C1205.72 759.379 1230.78 753.978 1257.13 759.298C1288.61 765.692 1320.36 766.662 1352.2 767.625C1381.01 768.497 1407.31 760.429 1431.57 743.088C1453.17 727.634 1474.77 712.177 1496.38 696.715C1531.84 671.22 1567.53 646.21 1606.52 628.004C1634.4 614.985 1662.79 603.288 1693.13 602.111C1717.58 601.158 1742.17 602.589 1766.63 604.269C1817.45 607.731 1868.2 611.771 1919.17 608.147C1956.83 605.469 1994.08 600.068 2030.41 588.001C2031.86 587.522 2033.28 586.916 2034.71 586.368C2033.57 585.873 2032.33 585.8 2031.15 586.16C1957.52 603.576 1883.07 608.476 1808.05 604.246C1757.46 601.389 1707.47 592.86 1657.5 584.048C1638.65 580.719 1619.72 577.954 1600.57 580.586C1576.49 583.881 1554.89 595.065 1534.64 609.26C1511.37 625.563 1488.86 643.255 1466.05 660.383C1454.85 668.785 1444.15 678.209 1432.44 685.566C1385.97 714.777 1337.8 721.743 1287.62 698.1C1280.45 694.719 1272.98 692.058 1265.53 689.519C1248.82 683.818 1232.89 686.472 1218.36 697.188C1209.49 703.732 1200.69 710.709 1192.92 718.8C1149.89 763.576 1107.04 808.588 1064.38 853.834C1050.67 868.301 1037.62 883.68 1023.36 897.431C996.835 923.03 965.797 933.284 931.245 928.287C916.467 926.146 901.816 922.793 887.171 919.631C868.859 915.649 851.791 918.812 836.318 930.711C827.548 937.457 818.503 944.087 810.85 952.299C789.893 974.804 769.61 998.112 749.069 1021.11C748.881 1021.29 748.861 1021.72 748.678 1022.32Z" fill="#F8F8F1"/>
<path d="M2054.96 535.835C2025.31 539.62 1995.71 544.127 1965.99 547.024C1910.56 552.431 1855.37 547.959 1800.31 539.886C1753.51 533.024 1707.82 520.115 1661.88 508.47C1641.49 503.396 1620.84 499.76 1600.05 497.581C1573.1 494.649 1547.34 501.349 1522.78 514.316C1496.1 528.414 1470.92 545.391 1446.29 563.621C1429.77 575.843 1412.92 587.575 1395.67 598.395C1372.31 613.041 1347.18 621.639 1320.38 623.341C1298.39 624.744 1277.44 620.208 1257.73 609.013C1248.54 603.819 1239.61 597.979 1230.47 592.636C1225.77 589.889 1220.94 587.361 1216.04 585.134C1208.46 581.671 1201.16 582.756 1194.04 587.211C1182.82 594.222 1173.58 603.894 1165.13 614.576C1144.74 640.359 1124.93 666.754 1104.07 692.024C1084.57 715.626 1064.16 738.265 1043.85 760.984C1037.97 767.557 1031.21 773.166 1024.6 778.827C995.61 803.641 963.659 809.752 929.101 797.501C918.198 793.634 907.595 788.7 896.87 784.193C891.741 782.041 886.622 779.854 881.559 777.499C866.832 770.661 853.208 773.148 839.887 782.612C817.421 798.58 797.459 818.102 777.639 837.867C749.104 866.316 720.854 895.146 692.025 923.209C672.606 942.12 651.303 958.185 629.056 972.543C611.79 983.692 593.625 992.388 573.851 995.752C543.955 1000.84 516.766 992.907 492.884 971.937C471.245 952.94 450.029 933.308 428.695 913.855C405.6 892.792 379.802 877.188 352.522 864.423C321.484 849.898 290.868 850.758 260.434 866.731C237.521 878.752 216.98 894.898 197.586 913.018C165.36 943.13 136.648 977.333 108.413 1012.12C61.1196 1070.41 15.2584 1130.32 -36.0924 1184.21C-52.1599 1201.07 -68.9535 1217.04 -85.4678 1233.34C-87.8089 1235.65 -90.4445 1237.57 -93.8367 1240.42C-93.8367 1228.16 -93.9078 1216.98 -93.7351 1205.8C-93.7351 1204.61 -92.4402 1203.27 -91.5159 1202.29C-40.1042 1147.64 6.75236 1088.11 53.4718 1028.41C86.6274 986.035 119.864 943.707 156.869 905.493C163.618 898.528 170.621 891.88 177.497 885.082C178.69 883.928 179.848 882.676 181.366 881.118C168.717 882.936 156.783 885.157 144.773 886.271C108.575 889.682 72.6623 894.506 36.922 902.602C3.06557 910.271 -25.8904 927.901 -52.6829 951.526C-66.841 964.02 -78.4853 979.104 -88.9261 995.504C-90.0941 997.334 -91.3585 999.082 -92.6128 1000.83C-92.7703 1001.05 -93.1613 1001.04 -93.8824 1001.3C-93.8824 987.668 -93.9433 974.182 -93.791 960.696C-93.791 959.23 -92.7398 957.527 -91.7597 956.362C-85.6659 948.952 -79.8869 941.046 -73.1481 934.433C-40.2921 902.25 -3.0689 880.27 39.8064 870.148C71.3034 862.796 103.168 857.65 135.221 854.74C172.723 851.243 208.652 840.948 241.548 820.226C283.433 793.848 324.521 765.837 365.964 738.542C372.85 734.006 379.767 729.539 386.668 725.032C417.838 704.679 450.613 698.349 485.794 709.105C510.114 716.538 534.545 723.532 559.19 729.505C589.151 736.747 619.62 740.071 650.14 735.091C688.613 728.812 723.632 712.585 754.167 684.834C772.413 668.231 790.35 651.185 808.814 634.912C833.189 613.433 859.83 596.537 888.674 583.772C922.789 568.664 957.539 564.417 993.635 571.244C1024.46 577.078 1055.59 580.309 1086.76 576.362C1120.38 572.098 1152.07 560.095 1181.97 542.096C1182.62 541.709 1183.12 541.04 1184.51 539.741C1174.51 538.98 1165.48 538.322 1156.46 537.606C1104.9 533.549 1054.78 521.125 1005.02 506.121C988.064 501.003 970.93 496.005 953.593 493.362C923.556 488.792 895.468 497.944 869.773 515.181C848.099 529.718 827.156 545.714 806.295 561.751C772.271 587.932 739.039 615.534 704.558 640.925C674.754 662.853 643.219 681.429 608.646 692.359C569.331 704.789 530.391 704.443 491.772 688.792C480.061 684.049 468.28 679.525 456.62 674.643C441.726 668.405 427.446 669.865 414.222 679.559C401.43 688.943 388.74 698.603 376.644 709.134C355.853 727.231 335.556 746.066 315.081 764.619C276.486 799.578 232.712 820.918 184.175 830.469C136.714 839.811 89.0396 841.433 41.599 832.777C16.8529 828.27 -7.48186 819.885 -31.4764 811.333C-52.4341 803.871 -71.8938 805.562 -91.1757 816.526C-91.7667 816.847 -92.3757 817.123 -92.9988 817.352C-93.1257 817.404 -93.3136 817.259 -93.9281 817.052C-93.9281 809.365 -94.0957 801.505 -93.7808 793.675C-93.7199 792.209 -91.973 790.253 -90.5968 789.526C-71.5383 779.508 -51.9263 776.097 -31.0802 781.66C-6.56776 788.198 17.9193 796.352 42.8228 799.18C105.706 806.307 168.067 802.989 228.02 776.674C247.113 768.399 265.068 757.066 281.341 743.02C304.919 722.551 327.913 701.217 351.537 680.823C364.74 669.449 378.35 658.652 392.35 648.628C416.665 631.224 442.406 628.743 469.504 640.296C485.754 647.22 502.253 654.007 519.118 658.543C551.324 667.199 582.748 661.145 613.217 647.884C644.666 634.196 673.647 615.026 701.486 593.824C736.323 567.279 770.286 539.286 805.112 512.74C822.423 499.537 840.304 487.032 858.829 476.2C898.256 453.118 939.842 448.039 983.001 460.55C1008.21 467.856 1033.51 474.804 1058.77 481.902C1060.84 482.479 1062.97 482.848 1066.45 483.633C1064.42 482.265 1063.58 481.573 1062.66 481.117C1022.55 461.347 984.636 437.029 948.078 409.838C938.279 402.444 928.086 395.747 917.559 389.784C898.698 379.288 880.015 381.192 861.901 393.004C849.384 401.17 838.247 411.407 829.213 423.993C815.502 443.094 802.669 462.997 789.542 482.623C779.117 498.204 769.671 514.754 758.265 529.331C737.353 556.049 710.759 569.778 678.878 568.451C664.329 567.874 650.328 563.667 636.82 557.763C620.738 550.729 604.706 543.481 588.948 535.563C557.834 519.936 527.238 522.095 498.008 540.324C477.862 552.887 458.723 567.643 439.644 582.289C413.963 602.007 389.105 623.122 363.298 642.621C324.43 671.977 283.276 696.006 237.389 708.205C187.029 721.593 136.475 724.115 86.2465 708.874C40.3396 694.944 1.71479 667.112 -28.4091 624.842C-31.0142 621.183 -33.6295 617.53 -36.2905 613.918C-49.3161 596.208 -65.7441 586.865 -86.3057 587.823C-88.6061 587.932 -90.9167 587.823 -93.5777 587.823V572.906C-75.3723 568.145 -57.7967 569.443 -40.9675 579.363C-30.1814 585.711 -21.4672 594.944 -13.403 605.002C3.29919 625.846 22.9112 642.113 44.7119 655.582C76.4507 675.202 110.459 682.808 146.103 683.593C207.727 684.949 264.466 665.871 316.695 629.597C341.274 612.521 364.705 593.316 388.638 575.041C412.166 557.077 435.292 538.38 459.332 521.373C472.82 511.822 487.109 503.815 501.989 497.471C532.504 484.516 563.379 485.093 593.788 499.081C608.992 506.075 624.054 513.508 639.37 520.144C647.272 523.549 655.379 526.306 663.628 528.396C687.668 534.571 708.916 527.64 726.192 507.968C735.023 497.91 742.401 486.126 749.922 474.683C762.821 455.062 774.958 434.813 788.08 415.412C799.521 398.492 812.663 383.252 828.025 370.77C848.368 354.231 870.504 343.648 896.149 345.806C912.333 347.162 927.243 353.441 941.137 362.541C956.199 372.443 970.895 383.062 985.769 393.328C1014.51 413.211 1044.55 430.574 1075.62 445.264C1118.61 465.525 1164.04 471.197 1209.9 473.54C1239.76 475.058 1269.68 474.256 1299.04 467.146C1345.57 455.876 1388.69 434.83 1428.85 405.977C1459.67 383.829 1490.19 361.121 1521.1 339.124C1533.02 330.641 1545.56 323.243 1557.97 315.666C1595.21 292.912 1634.35 288.838 1674.58 302.595C1699.97 311.251 1724.9 321.604 1749.88 331.685C1798.05 351.138 1846.71 368.514 1897.34 377.776C1948.87 387.205 2000.56 389.317 2052.45 382.202C2053.27 382.086 2054.1 382.121 2054.92 382.086V422.781C2036.96 424.139 2018.99 425.486 2001.02 426.821C1998.96 426.976 1996.87 426.821 1994.8 426.821L1994.51 429.129L2054.94 443.077V481.504C2053.99 481.198 2053.05 480.834 2052.09 480.598C2028.31 474.688 2004.36 469.524 1980.78 462.743C1934.2 449.349 1887.97 434.415 1841.33 421.31C1784.78 405.423 1727.75 402.555 1670.31 415.983C1626.75 426.174 1585.3 443.613 1544.01 461.716C1543.69 461.854 1543.5 462.333 1543.65 462.126C1555.14 460.625 1566.92 458.496 1578.78 457.648C1607.54 455.576 1635.62 461.439 1663.48 468.52C1705.19 479.109 1746.63 491.025 1789.04 497.95C1862.59 509.901 1936.18 513.531 2010.04 502.151C2024.97 499.843 2039.97 498.175 2054.94 496.213L2054.96 535.835ZM1122.72 605.735C1120.52 606.162 1119.09 606.468 1117.64 606.722C1107.81 608.418 1098.04 610.813 1088.16 611.661C1056.6 614.374 1025.23 611.535 993.965 606.52C975.049 603.484 956.026 601.107 937.089 605.798C901.285 614.541 867.616 632.142 838.476 657.348C817.493 675.445 797.342 694.788 776.633 713.324C735.891 749.742 689.288 768.93 637.775 772.571C605.919 774.816 574.561 769.594 543.64 761.266C520.281 754.971 497.048 747.942 473.785 741.133C452.375 734.866 432.032 738.449 412.455 749.402C408.144 751.814 403.766 754.128 399.648 756.904C370.753 776.497 341.897 796.16 313.08 815.892C312.43 816.33 312.003 817.184 311.424 817.906C318.569 819.06 325.369 819.677 332.001 821.247C371.936 830.688 407.864 850.499 440.573 877.638C461.577 895.066 481.498 914.161 502.019 932.373C508.017 937.699 514.09 943.014 520.575 947.504C533.778 956.639 548.302 959.766 563.577 957.672C582.423 955.086 599.074 945.842 615.096 934.906C643.767 915.332 669.788 891.782 694.879 866.755C725.892 835.812 756.833 804.777 788.623 774.862C801.288 762.934 815.644 753.072 829.975 743.747C844.194 734.514 860.083 731.628 876.186 736.152C886.592 739.067 896.641 743.654 906.798 747.694C918.823 752.472 930.604 758.208 942.853 762.172C961.404 768.197 979.198 764.833 995.021 752.212C1004.89 744.272 1014.34 735.69 1023.34 726.51C1059.08 690.304 1089.25 648.098 1121.6 608.211C1121.86 607.818 1122.01 607.258 1122.72 605.735ZM1399.99 472.836C1400.15 473.257 1400.3 473.684 1400.45 474.106C1417.87 468.093 1435.53 462.847 1452.65 455.911C1491.98 439.978 1531.05 423.202 1570.23 406.802C1624.11 384.256 1679.39 369.564 1737.09 368.583C1737.49 368.583 1737.88 368.231 1738.49 367.937C1737.94 367.36 1737.64 366.886 1737.25 366.73C1713.92 357.567 1690.77 347.687 1667.2 339.464C1635.57 328.39 1604.85 332.026 1575.98 350.873C1558.16 362.495 1540.4 374.267 1523.07 386.778C1482.66 415.943 1444.06 448.415 1400.65 472.028C1400.36 472.178 1400.19 472.559 1399.95 472.836H1399.99ZM1232.53 552.471C1243.92 559.206 1253.91 565.992 1264.52 571.122C1274.81 576.103 1285.48 580.973 1296.41 583.097C1321.67 588.002 1345.75 580.973 1368.11 568.058C1386.24 557.584 1403.68 545.431 1420.79 532.892C1443.25 516.445 1465.74 500.172 1489.79 486.853C1490.8 486.215 1491.79 485.51 1492.73 484.741C1489.92 484.989 1487.44 485.947 1484.99 486.957C1413.41 516.468 1339.54 533.405 1263.58 538.391C1251.76 539.147 1243.26 546.545 1232.51 552.448L1232.53 552.471Z" fill="#F8F8F1"/>
<path d="M2054.96 -28.1979C2053.26 -28.8211 2051.52 -29.2943 2049.88 -30.0907C2034.82 -37.4829 2019.81 -45.031 2004.72 -52.3367C1960.07 -73.9479 1913.57 -78.5414 1866.19 -69.2159C1815.74 -59.2903 1765.16 -49.5033 1715.31 -36.3692C1647.32 -18.4512 1580.36 -20.344 1513.03 -39.7508C1472.92 -51.2922 1435.03 -69.0717 1397.64 -88.5477C1373.93 -100.891 1349.47 -109.57 1323.49 -112.929C1292.58 -116.922 1263 -110.788 1234.23 -98.606C1206.58 -86.8973 1178.88 -75.229 1151.71 -62.2507C1115.22 -44.8175 1077.57 -40.2471 1038.63 -45.5734C1014.12 -48.932 989.669 -53.2427 965.07 -55.5279C935.027 -58.3267 904.878 -60.0579 874.744 -61.1485C840.344 -62.395 810.759 -47.1604 783.971 -23.9103C776.836 -17.7592 770.008 -11.1628 763.516 -4.15144C732.082 30.0456 694.849 50.0353 651.892 57.9585C629.143 62.1011 606.668 68.0047 584.626 75.6283C551.872 87.0658 522.733 107.217 494.839 129.555C441.182 172.528 387.563 215.562 333.982 258.657C294.879 290.107 253.746 316.722 206.61 329.573C186.805 334.969 166.924 337.941 146.494 336.388C125.445 334.79 106.448 327.282 90.4614 311.69C73.2412 294.897 56.4832 277.475 39.8521 259.921C30.9757 250.598 21.1347 242.537 10.5457 235.915C-7.73579 224.327 -26.5251 223.289 -46.2235 229.157C-61.4581 233.699 -75.3825 241.466 -88.6468 250.93C-90.1398 251.998 -91.6937 252.99 -93.8977 254.508C-93.8977 245.477 -94.0043 237.271 -93.791 229.077C-93.7555 227.755 -92.5215 226.07 -91.4347 225.245C-70.6852 209.537 -48.3513 198.353 -23.1075 197.188C-14.6218 196.801 -5.71975 197.644 2.41553 200.252C21.9818 206.525 40.4157 215.879 56.0058 231.316C65.2549 240.476 74.565 249.563 83.9359 258.576C90.502 264.924 97.3119 270.943 103.771 277.423C121.545 295.237 142.528 300.171 165.4 297.84C200.196 294.297 232.524 281.428 262.546 261.889C282.778 248.726 301.989 233.439 321.159 218.291C366.751 182.271 412.059 145.777 457.468 109.468C459.301 108.008 461.135 106.548 462.445 103.893C460.414 104.505 458.382 105.047 456.351 105.734C436.871 112.572 417.467 119.711 397.906 126.231C367.853 136.255 337.343 143.434 305.777 140.214C281.483 137.738 257.971 131.702 236.77 116.987C232.25 113.853 227.238 111.626 222.774 108.412C201.537 93.1192 178.517 91.9766 154.63 96.6451C126.43 102.156 100.069 113.663 74.3381 127.489C44.9607 143.278 15.431 158.651 -16.1504 168.202C-39.8536 175.468 -64.2277 179.536 -88.7687 180.32C-90.2413 180.366 -91.709 180.32 -93.5219 180.32V155.027C-76.5353 151.305 -59.6909 148.258 -43.1258 143.855C-8.6905 134.714 23.3987 118.354 55.0359 100.863C84.3574 84.6479 114.309 70.6482 146.565 63.8792C163.11 60.4168 179.777 58.1835 196.504 60.9938C204.512 62.3982 212.35 64.8457 219.864 68.288C229.381 72.5987 238.587 77.9308 247.617 83.4822C277.253 101.712 308.804 106.455 341.599 100.061C358.047 96.8586 374.541 92.7557 390.35 86.8523C429.452 72.2582 469.224 60.6937 509.296 50.1161C559.5 36.8435 609.428 22.2668 659.555 8.63065C671.621 5.34712 684.027 3.70247 696.225 1.01334C699.242 0.349701 702.456 -0.827545 704.904 -2.82997C717.934 -13.4942 731.158 -23.9449 743.554 -35.5151C761.683 -52.4521 780.381 -68.0849 801.847 -79.3262C823.312 -90.5675 845.519 -97.475 869.118 -96.9325C891.969 -96.4132 914.821 -95.3225 937.607 -93.1354C969.463 -90.0712 1001.22 -85.6335 1033.03 -82.0037C1057.84 -79.1588 1082.76 -77.2776 1107.14 -85.0565C1120.04 -89.1652 1132.53 -94.8666 1145.15 -100.112C1172.69 -111.602 1200.03 -123.708 1227.69 -134.777C1282.81 -156.826 1337.33 -152.019 1391.05 -128.256C1418.07 -116.299 1444.42 -102.23 1471.79 -91.4388C1522.83 -71.3165 1575.27 -58.8229 1629.76 -61.0331C1659.08 -62.2219 1687.49 -69.9488 1716.16 -76.135C1765.16 -86.7242 1814.17 -97.3307 1863.46 -106.206C1919.39 -116.282 1973.47 -107.204 2025.3 -81.0978C2035.14 -76.1408 2045.11 -71.4607 2054.99 -66.6711L2054.96 -28.1979Z" fill="#F8F8F1"/>
<path d="M2054.96 354.981C2038.58 357.803 2022.28 361.508 2005.82 363.274C1952.36 368.987 1901.87 357.503 1854.74 327.882C1818.3 304.972 1785.16 276.904 1753.5 246.29C1738.77 232.037 1723.43 218.389 1707.42 206.063C1689.6 192.358 1669.57 185.219 1647.62 187.81C1632.68 189.576 1619.05 195.889 1606.06 204.101C1582.11 219.266 1561.55 239.452 1541.49 260.382C1515.74 287.262 1490.76 315.204 1464.02 340.751C1397.87 403.951 1321.61 441.536 1235.3 450.394C1161.16 457.982 1091.74 441.865 1029.77 392.41C993.432 363.406 962.887 327.778 936.561 287.43C919.087 260.659 902.669 233.006 885.596 205.89C879.533 196.258 873.505 186.454 866.462 177.781C853.284 161.542 841.071 159.811 824.176 170.856C808.312 181.224 794.102 194.558 782.143 210.299C758.652 241.218 735.693 272.66 713.268 304.626C690.649 336.942 668.417 369.518 641.954 398.007C625.075 416.191 606.458 430.744 583.047 435.782C565.949 439.464 549.079 438.264 532.265 433.532C521.327 430.45 510.388 427.346 499.364 424.743C485.652 421.511 472.317 423.589 460.597 432.245C449.805 440.226 439.04 448.674 429.701 458.657C410.404 479.293 391.949 500.997 373.302 522.429C346.672 553.048 318.808 582 286.892 605.475C257.601 627.017 226.207 642.811 191.305 647.786C135.013 655.813 86.6936 635.812 45.291 592.67C28.3095 574.989 14.2226 554.514 1.69468 532.655C-14.2153 504.955 -33.7156 480.47 -52.2714 455.16C-62.179 441.634 -75.1995 433.024 -89.8501 427.761C-92.897 426.659 -94.263 425.343 -93.9583 421.61C-93.674 418.095 -93.8974 414.529 -93.8974 409.924C-88.3977 411.032 -83.3906 411.788 -78.4851 413.075C-61.5848 417.495 -46.924 426.861 -34.5281 440.451C-11.27 465.951 12.0288 491.325 30.9045 521.54C46.9212 547.185 66.1371 569.339 90.0808 586.039C128.548 612.867 169.077 616.624 211.511 601.782C241.122 591.395 266.736 572.801 290.898 551.254C317.6 527.45 341.086 499.797 364.857 472.449C378.365 456.911 392.198 441.74 406.356 426.936C413.527 419.434 421.484 412.838 429.462 406.45C455.27 385.785 483.449 379.864 514.101 389.305C526.085 392.998 538.12 396.807 550.349 399.052C569.839 402.635 588.105 397.384 602.796 382.455C617.95 367.059 632.682 350.815 645.783 333.203C668.036 303.293 688.77 271.935 710.317 241.351C728.147 216.04 746.2 190.817 767.919 169.656C779.934 157.947 792.696 146.729 806.412 137.865C836.323 118.539 864.811 123.934 888.395 152.476C896.972 162.864 904.416 174.561 911.602 186.275C934.738 223.998 957.605 261.94 984.728 296.184C1004.43 321.044 1026.18 343.244 1050.69 362.033C1087.36 390.142 1127.98 404.892 1171.67 409.128C1244.44 416.185 1312.14 396.628 1375.99 357.59C1415.35 333.52 1449.12 301.135 1481.37 266.499C1504.98 241.108 1528.14 215.192 1554.4 193.246C1569.27 180.828 1584.82 169.742 1601.83 161.421C1638.43 143.532 1674.4 145.153 1709.8 165.685C1729.29 176.99 1746.52 192.005 1762.95 208.21C1787.9 232.816 1813.63 256.193 1841.74 276.073C1870.21 296.213 1899.89 313.057 1933.27 319.93C1972.14 327.905 2010.55 324.304 2048.66 313.721C2050.75 313.144 2052.85 312.619 2054.95 312.07L2054.96 354.981Z" fill="#F8F8F1"/>
<path d="M2054.96 748.341C2026.61 776.179 1998.44 804.236 1969.88 831.779C1946.11 854.695 1919.01 871.066 1889.72 883.104C1862.22 894.403 1834.78 894.491 1807.42 883.369C1794.62 878.176 1782.1 872.151 1769.41 866.634C1764 864.28 1758.49 862.214 1752.98 860.154C1743.14 856.478 1734.19 858.567 1726.62 866.501C1717.13 876.467 1707.5 886.341 1698.76 897.132C1660.5 944.451 1619.5 988.82 1576.05 1029.94C1554.53 1050.27 1530.35 1063.99 1502.59 1068.75C1480.88 1072.47 1459.57 1068.39 1438.64 1061.99C1424.73 1057.75 1410.84 1053.16 1397.29 1047.63C1368.03 1035.69 1340.09 1039.8 1313.17 1055.71C1280.81 1074.85 1251.94 1099.32 1228.19 1131.02C1213.48 1150.67 1199.02 1170.56 1184.82 1190.7C1155.6 1231.91 1126.74 1273.46 1097.37 1314.53C1090.5 1324.13 1082.49 1332.78 1074.47 1341.2C1046.72 1370.37 1012.93 1378.89 976.405 1376.64C964.989 1375.94 954.498 1370.87 944.981 1363.56C935.632 1356.4 926.227 1349.32 917.076 1341.86C903.934 1331.12 891.086 1330.99 877.38 1340.94C864.365 1350.4 852.705 1361.22 843.554 1375.44C835.622 1387.75 827.578 1399.96 819.575 1412.22C803.619 1436.65 782.341 1447.62 755.625 1444.79C747.043 1443.88 738.425 1443.26 729.889 1441.95C715.609 1439.75 701.959 1441.95 689.4 1449.83C672.872 1460.21 656.537 1470.98 640.396 1482.14C610.658 1502.72 581.26 1523.87 548.312 1537.67C507.687 1554.67 465.756 1565.73 423.328 1574.6C373.18 1585.09 322.805 1584.66 272.211 1578.83C230.965 1574.07 191.076 1561.86 150.628 1552.68C137.968 1549.79 125.212 1547.29 112.405 1545.45C84.124 1541.37 57.8037 1549.86 32.3771 1562.92C-1.35229 1580.26 -32.9865 1602.45 -61.7524 1628.93C-69.0193 1635.6 -76.3015 1639.5 -85.6505 1637.96C-88.0829 1637.56 -90.6119 1637.9 -93.8518 1637.9C-93.8518 1630.33 -93.9533 1622.9 -93.7451 1615.46C-93.7096 1614.3 -92.3842 1613 -91.4244 1612.07C-58.8375 1580.91 -24.0163 1553.54 14.319 1532.16C47.7133 1513.53 82.5041 1502.43 120.017 1508.12C139.7 1511.1 159.21 1515.62 178.761 1519.7C207.286 1525.63 235.607 1533.21 264.309 1537.59C363.288 1552.59 458.078 1532.39 550.1 1491.15C575.647 1474.8 601.19 1458.45 626.73 1442.1C637.831 1434.95 648.744 1427.42 659.845 1420.26C684.688 1404.24 711.074 1398.41 739.431 1404.24C747.368 1405.87 755.589 1405.97 763.689 1406.23C771.789 1406.49 778.746 1403 783.956 1396.02C790.38 1387.41 796.327 1378.34 802.573 1369.56C810.485 1358.44 818.006 1346.89 826.573 1336.45C838.095 1322.41 852.121 1311.9 867.447 1303.82C887.115 1293.43 906.625 1293.35 925.46 1306.39C934.794 1312.85 944.036 1319.56 952.837 1326.91C966.406 1338.23 981.178 1341.08 997.576 1338.26C1019.92 1334.41 1039.73 1325.25 1055.18 1305.88C1062.63 1296.53 1070.5 1287.56 1077.44 1277.73C1103.37 1241 1128.9 1203.91 1154.76 1167.11C1166.34 1150.63 1178.15 1134.35 1190.18 1118.28C1216.27 1083.23 1247.45 1055.15 1282.41 1032.36C1306.49 1016.66 1332.04 1006.3 1360.14 1005.89C1376.26 1005.65 1391.6 1010.5 1406.89 1015.7C1423.55 1021.36 1440.12 1027.54 1457.04 1031.99C1492.53 1041.33 1523.75 1029.77 1550.9 1003.57C1572.37 982.844 1593.45 961.545 1613.91 939.512C1639.18 912.321 1663.53 884.021 1688.49 856.455C1694.68 849.641 1701.31 843.364 1708.33 837.677C1723.17 825.633 1739.64 822.673 1757.04 829.021C1766.02 832.281 1774.75 836.459 1783.55 840.343C1789.73 843.072 1795.82 846.027 1801.98 848.832C1828.31 860.829 1854.34 860.708 1880.83 848.387C1915.29 832.356 1946.84 810.797 1977.15 786.531C1999.76 768.417 2021.66 749.022 2046.79 735.374C2049.46 733.926 2052.23 732.731 2054.96 731.421V748.341Z" fill="#F8F8F1"/>
<path d="M2054.96 260.037C1991.93 253.585 1929.87 241.669 1871.46 212.717C1838.66 196.473 1806.78 177.868 1774.44 160.429C1762.46 153.966 1750.32 147.901 1738.34 141.449C1684.35 112.371 1629.63 110.617 1573.7 134.259C1539.89 148.559 1507.4 165.854 1475.75 185.399C1426.36 215.903 1376.58 245.414 1324.57 269.957C1274.44 293.617 1222.45 304.766 1168.36 303.121C1108.85 301.32 1058.49 275.999 1018.51 225.471C1007.44 211.482 997.535 196.3 986.703 182.058C977.055 169.397 967.35 156.759 956.874 145.022C935.322 120.877 908.849 106.589 879.985 97.4076C863.577 92.214 847.703 94.7646 832.25 101.574C799.633 115.931 770.956 137.485 746.362 165.577C722.495 192.814 699.81 221.333 676.024 248.646C660.789 266.165 644.59 282.693 628.604 299.358C597.952 331.345 561.658 341.352 521.154 334.167C511.825 332.511 502.537 330.503 493.285 328.345C479.178 325.055 465.228 325.84 452.507 333.354C438.593 341.571 424.546 350.089 412.13 360.862C391.848 378.411 372.733 397.72 353.314 416.538C317.538 451.22 279.97 483.051 238.72 508.869C219.047 521.195 198.485 531.496 175.801 534.07C142.584 537.861 110.84 533.077 81.1378 514.051C43.1478 489.722 10.1039 458.139 -22.6251 425.91C-32.6118 416.061 -43.0321 406.795 -53.8459 398.147C-65.6933 388.7 -78.9525 385.717 -93.8672 391.799C-93.8672 386.236 -94.0652 381.452 -93.7301 376.72C-93.6437 375.566 -91.9933 374.135 -90.7949 373.506C-79.44 367.556 -67.8109 365.462 -55.5521 369.928C-43.9281 374.164 -32.9135 379.669 -23.2141 388.187C-0.788795 407.888 21.1186 428.397 44.1381 447.151C61.0536 460.938 78.6698 474.089 97.2612 484.621C130.574 503.508 165.406 504.552 199.622 487.373C215.309 479.49 230.396 469.646 244.864 459.097C280.371 433.238 313.659 403.975 344.991 371.838C365.187 351.122 386.094 331.374 409.301 315.02C426.491 302.902 444.524 293.242 464.827 290.05C477.857 288.002 490.583 290.206 503.324 293.109C512.902 295.29 522.525 297.402 532.209 298.747C556.625 302.14 579.025 295.827 597.469 277.049C618.564 255.576 639.075 233.319 659.24 210.715C681.544 185.722 702.608 159.287 725.257 134.692C751.968 105.665 783.017 83.708 817.675 68.7042C845.098 56.8224 872.261 57.1282 900.262 68.2079C942.828 85.0468 976.974 114.304 1005.18 153.481C1015.15 167.331 1024.89 181.4 1035.2 194.926C1071.36 242.396 1117.43 265.259 1172.46 265.248C1222.23 265.248 1269.68 253.447 1315.45 231.016C1364.55 206.952 1411.68 178.549 1458.81 150.088C1495.18 128.119 1532.54 108.966 1571.93 94.8223C1629.38 74.1921 1685.44 78.0296 1740.27 105.637C1778.43 124.853 1816.44 144.404 1854.2 164.659C1901.89 190.264 1952.06 205.568 2004.11 213.6C2021.02 216.209 2038.01 218.217 2054.96 220.491V260.037Z" fill="#F8F8F1"/>
<path d="M2054.96 170.741C2038.6 169.431 2022.21 168.548 2005.89 166.736C1919.68 157.162 1837.8 130.04 1759.72 87.6776C1733.54 73.4894 1707.21 59.6629 1680.74 46.1979C1660.42 35.8107 1639.48 27.2124 1617.26 23.9692C1592.44 20.3453 1568.18 25.3138 1544.7 33.7794C1519.45 42.9029 1494.56 53.3998 1469.76 64.0582C1432.18 80.1584 1393.89 82.5936 1354.79 73.6722C1338.26 69.9039 1323.76 60.7862 1309.37 51.3454C1292.29 40.1387 1275.18 29.0128 1257.94 18.1409C1233.39 2.65813 1207.81 1.03655 1180.95 9.72143C1155.55 17.9273 1133.04 31.3846 1113.59 51.6685C1105.04 60.5727 1096.15 69.0787 1087.18 77.4635C1082.58 81.7883 1077.72 85.7358 1072.63 89.2761C1045.01 108.394 1017.27 108.025 990.091 88.4278C981.61 82.3167 973.963 74.6186 966.269 67.1917C941.31 43.0875 913.314 25.839 880.955 18.8564C857.621 13.8186 834.987 18.0428 813.415 28.7185C790.782 39.9079 770.733 55.3156 755.28 77.6943C750.781 84.2094 745.84 90.3321 741.142 96.6741C723.643 120.292 701.468 129.717 674.618 124.95C658.022 121.979 642.026 123.369 626.375 131.015C610.038 139.008 597.769 151.911 588.715 168.987C581.702 182.219 574.785 195.532 568.118 208.972C553.391 238.668 530.783 253.706 501.182 253.083C471.028 252.442 444.012 261.923 418.915 280.141C368.204 316.941 317.27 353.348 266.787 390.552C234.287 414.5 200.029 432.77 161.552 440.434C126.918 447.359 94.616 441.801 64.5581 420.635C45.2 407.004 27.3958 391.308 10.4346 373.892C-12.2802 350.59 -36.7927 329.706 -68.3893 324.189C-76.6617 322.741 -85.1016 322.556 -93.7295 321.771V298.411C-78.4949 295.382 -63.565 296.53 -48.63 299.831C-30.1605 303.917 -13.2806 311.592 2.29932 323.987C15.8937 334.801 28.8786 346.268 41.7671 358.132C56.3669 371.572 72.3277 383.454 88.7405 393.911C108.86 406.716 130.92 407.812 153.533 403.144C182.505 397.236 210.144 384.804 234.825 366.581C275.496 336.752 315.944 306.519 356.961 277.308C378.289 262.12 400.385 248.282 422.551 234.709C442.904 222.25 465.02 216.82 488.172 216.877C494.133 216.877 500.115 216.647 506.047 216.012C518.681 214.656 528.787 208.216 535.5 195.728C543.554 180.793 551.278 165.628 559.536 150.844C580.519 113.265 610.917 92.8943 649.714 89.1434C658.687 88.2778 667.996 89.4665 676.933 91.0996C693.118 94.0485 705.879 88.4682 716.066 74.0761C721.779 65.9972 727.746 58.1433 733.84 50.4625C767.051 8.75775 808.327 -14.1692 857.855 -16.5467C881.935 -17.7008 904.884 -11.0473 926.73 0.378693C950.781 12.953 973.013 28.4358 992.833 48.8524C1016.85 73.5625 1037.25 73.6664 1062.79 51.103C1072.72 42.3258 1082.18 32.8215 1091.52 23.2248C1122.39 -8.51392 1158.96 -25.4682 1199.89 -30.8811C1220.09 -33.5529 1239.83 -29.952 1258.02 -19.7841C1278.95 -8.0869 1300.03 3.69108 1319.67 17.887C1358.03 45.6324 1398.61 47.3694 1440.6 33.9929C1460.51 27.6452 1479.74 18.5794 1499.23 10.5986C1527.4 -0.942785 1556 -10.2394 1586.03 -12.917C1604.74 -14.5696 1623.56 -12.6939 1641.74 -7.36556C1674.24 2.02912 1704.44 18.0255 1734.56 34.1834C1776.71 56.8218 1818.92 79.1543 1863.61 94.6659C1924.18 115.7 1986.26 126.849 2049.43 130.721C2051.25 130.831 2053.07 130.981 2054.88 131.114L2054.96 170.741Z" fill="#F8F8F1"/>
<path d="M2054.96 916.758C2020.73 934.266 1984.37 942.328 1947.51 948.497C1919.94 953.113 1893.55 962.133 1868.61 976.6C1847.79 988.678 1830.46 1005.04 1817.58 1027.38C1812.59 1036.04 1807.34 1044.52 1802.13 1053.02C1785.99 1079.35 1763.81 1089.54 1736.07 1084.89C1729.68 1083.81 1723.23 1083.11 1716.88 1081.71C1689.92 1075.79 1665.82 1083.95 1644.06 1101.6C1605.78 1132.64 1571.58 1168.63 1543.24 1211.5C1538.86 1218.13 1534.19 1224.51 1529.84 1231.15C1510.39 1260.81 1484.01 1273.85 1451.91 1273.73C1426.36 1273.62 1401.94 1267.23 1378.05 1257.57C1363.36 1251.65 1348.64 1245.84 1334.07 1239.58C1311.6 1229.93 1291.01 1233.45 1271.4 1249.06C1256.45 1260.98 1243.3 1275.58 1232.47 1292.29C1209.07 1328.15 1185.59 1363.93 1162.01 1399.63C1158.46 1405.05 1154.55 1410.22 1150.61 1415.3C1135.8 1434.39 1117.09 1443.71 1094.75 1443.52C1087.29 1443.45 1079.83 1443.02 1072.4 1442.61C1060.61 1441.95 1049.5 1444.7 1039.78 1452.32C1018.23 1469.22 996.901 1486.49 975.516 1503.65C969.148 1508.75 962.851 1513.97 956.575 1519.23C926.664 1544.18 892.924 1553.54 856.245 1551.54C826.1 1549.91 797.454 1540.68 769.016 1530.19C762.079 1527.64 755.198 1524.88 748.257 1522.34C725.577 1514.04 703.279 1514.55 681.331 1525.8C655.046 1539.29 628.827 1552.98 602.294 1565.81C574.709 1579.15 547.378 1593.72 518.879 1603.95C455.402 1626.73 389.923 1635.61 323.434 1630.83C293.199 1628.66 263.116 1623.54 233.012 1619.29C204.229 1615.25 175.491 1610.76 146.769 1606.22C134.794 1604.33 122.947 1601.42 110.962 1599.63C85.15 1595.77 62.7196 1603.87 46.0072 1627.02C39.4462 1636.1 32.296 1639.48 22.5967 1637.9C20.8142 1637.61 18.9658 1637.86 16.2642 1637.86C17.1427 1635.55 17.6962 1633.73 18.5036 1632.05C27.3549 1613.59 39.177 1597.84 54.0155 1585.4C67.1274 1574.44 82.7683 1570.05 98.6072 1570.3C116.254 1570.58 133.865 1573.63 151.487 1575.55C177.216 1578.36 202.946 1581.2 228.675 1584.09C256.057 1587.22 283.388 1590.96 310.805 1593.62C351.309 1597.54 391.599 1594.47 431.753 1587.57C484.881 1578.44 534.84 1558.49 583.083 1532.17C608.926 1518.07 635.536 1505.81 661.704 1492.48C693.889 1476.08 726.334 1475.83 759.617 1488.29C781.773 1496.58 804.305 1503.84 826.923 1510.26C845.575 1515.54 864.761 1515.03 883.799 1512.21C900.43 1509.75 915.401 1502.26 928.995 1491.33C950.633 1473.9 971.946 1455.95 993.651 1438.64C1002.99 1431.19 1012.81 1424.45 1022.7 1417.95C1036.07 1409.17 1050.63 1405.25 1066.1 1405.83C1073.39 1406.1 1080.69 1406.41 1087.94 1406.95C1102.98 1408.07 1115.28 1402.2 1124.5 1388.57C1139.23 1366.75 1153.89 1344.86 1168.47 1322.92C1180.04 1305.47 1191.49 1287.91 1202.84 1270.26C1216.88 1248.23 1234.5 1229.46 1254.76 1214.96C1281.48 1195.82 1309.75 1191.92 1339.56 1203.27C1356.83 1209.86 1373.95 1217.08 1391.27 1223.54C1413.61 1231.88 1436.33 1237.52 1460.16 1234.5C1474.75 1232.66 1486.86 1225.85 1496.14 1212.99C1503.4 1202.95 1510.4 1192.65 1517.35 1182.34C1548.15 1136.61 1586.17 1099.82 1628.23 1068.39C1658.48 1045.77 1691.71 1039.32 1727.28 1048.05C1733.86 1049.67 1740.77 1049.78 1747.54 1050.14C1755.85 1050.54 1762.75 1046.74 1768.05 1039.5C1771.22 1035.16 1774.24 1030.65 1777.08 1026.03C1780.97 1019.68 1784.65 1013.2 1788.38 1006.75C1803.92 979.814 1824.71 959.651 1849.63 944.532C1881.07 925.489 1914.83 914.859 1949.81 909.164C1985.19 903.393 2019.24 892.89 2051.69 875.809C2052.71 875.278 2053.87 875.169 2054.97 874.863L2054.96 916.758Z" fill="#F8F8F1"/>
<path d="M1244.16 -193.228C1243.8 -192.864 1243.5 -192.322 1243.09 -192.154C1208.94 -178.183 1174.91 -163.791 1140.58 -150.432C1104.57 -136.427 1067.49 -127.684 1029.27 -129.975C1006.33 -131.348 983.352 -134.644 960.713 -139.104C915.055 -148.095 870.976 -142.774 827.664 -124.712C784.352 -106.65 743.021 -83.3999 701.136 -61.5751C633.326 -26.2354 565.329 8.75223 492.98 30.9751C466.188 39.2099 439.019 45.6788 411.257 46.6714C394.448 47.2485 377.487 45.7423 360.728 43.7168C345.235 41.8413 330.767 35.205 317.711 25.5161C292.736 6.95753 268.067 -12.0857 243.239 -30.8808C233.311 -38.3827 223.526 -46.1963 213.278 -53.1095C196.124 -64.6855 178.142 -65.8685 160.774 -54.356C144.194 -43.3917 127.766 -31.8503 112.308 -18.9701C88.7552 0.609787 66.0049 21.3842 43.0514 41.824C17.4268 64.6644 -8.77676 86.4199 -38.9768 101.02C-54.9325 108.77 -71.3605 114.442 -88.8295 115.446C-90.2971 115.527 -91.7698 115.446 -93.5776 115.446V90.8518C-48.3816 79.9336 -13.3776 48.4372 21.2558 16.4099C54.4418 -14.2959 87.8716 -44.6035 124.054 -70.7274C132.191 -76.5426 140.621 -81.8088 149.303 -86.4987C174.252 -100.135 199.389 -99.9098 223.988 -85.5869C235.754 -78.7314 247.022 -70.6986 258.22 -62.6715C281.768 -45.7865 305.153 -28.6245 328.548 -11.4394C345.509 1.00797 364.273 5.97073 384.21 6.79594C420.469 8.30209 455.432 0.0153961 490.07 -10.8046C535.444 -24.9774 578.883 -45.1286 621.829 -66.6418C673.551 -92.5406 724.917 -119.397 776.715 -145.037C810.083 -161.552 844.696 -174.046 880.853 -180.128C909.383 -184.929 937.729 -181.605 966.035 -176.954C984.728 -173.884 1003.43 -170.266 1022.24 -168.968C1052.63 -166.861 1082.42 -172.355 1111.5 -182.517C1121.27 -185.928 1130.95 -189.65 1140.68 -193.228H1244.16Z" fill="#F8F8F1"/>
</svg>
