<svg width="144" height="290" viewBox="0 0 144 290" fill="none" xmlns="http://www.w3.org/2000/svg">
<path d="M35.6603 3C21.1637 40.5164 33.165 83.015 63.2895 110.346C72.6621 118.923 83.6823 125.709 95.7508 130.335C106.906 134.543 120.451 135.116 130.189 128.467C133.606 126.069 136.37 122.93 138.25 119.311C140.13 115.692 141.071 111.699 140.996 107.664C140.795 99.0059 133.087 92.8184 125.463 89.3028C114.762 84.3508 102.634 82.7739 90.7389 82.9245C54.3124 83.3665 18.6366 105.093 7.66108 138.903C1.62349 157.515 1.73981 177.665 6.34995 196.549C10.5794 213.966 18.5416 230.399 28.4492 245.546C37.035 258.664 50.2522 272.958 68.3967 270.657" stroke="black" stroke-width="4.13" stroke-linecap="round" stroke-linejoin="round"/>
<path d="M72.1819 270.919C71.3043 270.919 63.7229 270.688 58.711 276.473C56.2032 279.45 54.9183 283.191 55.0949 287" stroke="black" stroke-width="4.13" stroke-linecap="round" stroke-linejoin="round"/>
<path d="M72.1819 270.919C69.9339 271.028 67.6885 270.66 65.6089 269.842C63.5293 269.023 61.6679 267.775 60.1597 266.188C55.0737 260.593 57.1145 253.622 57.2625 253.13" stroke="black" stroke-width="4.13" stroke-linecap="round" stroke-linejoin="round"/>
</svg>
