<svg width="1440" height="1009" viewBox="0 0 1440 1009" fill="none" xmlns="http://www.w3.org/2000/svg">
<g opacity="0.2">
<path d="M841.224 650.588L802.418 605.685C803.745 628.812 791.069 643.585 777.773 657.318C746.493 689.629 709.667 710.937 663.005 709.083C653.621 708.706 644.015 705.788 635.148 702.381C621.868 697.29 615.85 681.216 623.878 668.041C630.018 658.26 638.288 649.993 648.071 643.856C674.594 627.269 702.092 612.247 729.278 596.747C750.892 584.424 765.901 582.935 791.753 591.217L765.335 551.699C761.818 567.595 750.998 575.353 737.945 580.95C706.633 594.354 675.243 607.516 644.12 621.432C634.287 625.827 625.494 632.383 616.071 637.759C603.71 644.818 594.999 643.917 584.139 635.319C576.613 629.35 568.72 623.805 560.995 618.072C559.324 616.755 557.653 615.436 555.981 614.115C547.331 602.113 538.318 590.355 530.202 578.005C526.305 572.084 522.954 565.305 521.367 558.456C517.664 542.303 527.039 527.371 543.483 526.177C556.31 525.241 569.614 527.958 582.394 530.538C590.064 532.119 597.456 536.131 604.542 539.864C626.866 551.618 649.826 551.082 673.695 545.54C700.649 539.284 727.802 533.389 757.575 536.616C754.97 530.875 752.797 525.135 749.865 519.782C733.799 490.534 755.664 453.266 777.618 442.56C801.96 430.676 826.38 429.918 848.299 446.386C876.207 467.341 903.533 489.27 929.286 512.779C940.75 523.232 947.727 538.578 956.783 551.694L956.345 551.322C966.815 576.499 977.972 601.418 987.571 626.93C995.462 647.973 992.987 668.274 976.631 685.079C962.912 699.205 944.518 699.436 926.976 698.439C898.94 696.845 875.641 683.689 855.569 664.434C852.462 661.453 848.767 659.074 845.339 656.413L841.224 650.588Z" fill="#F5F5EB"/>
<path d="M186.751 -11.3877C183.777 -48.9958 192.752 -79.415 217.171 -104.13C242.78 -130.059 282.389 -130.504 305.977 -102.666C320.513 -85.5152 332.3 -65.0358 341.209 -44.289C370.51 23.9572 397.763 93.0876 426.194 161.729C434.823 182.559 444.172 202.977 444.703 226.123C445.041 240.508 440.52 252.949 430.94 263.497C418.828 276.836 404.757 278.264 390.459 267.259C385.413 263.274 380.827 258.739 376.785 253.739C335.276 203.571 292.777 154.18 252.958 102.692C231.222 74.6084 213.721 43.2162 195.205 12.7309C190.324 4.73787 188.801 -5.28793 186.751 -11.3877Z" fill="#F5F5EB"/>
<path d="M146.11 1234.16C144.293 1215.45 151.489 1192.29 165.946 1171.69C176.469 1156.49 188.114 1142.1 200.786 1128.64C243.905 1083.5 290.487 1042.09 341.485 1006.05C356.655 995.329 373.905 986.959 391.22 980.041C406.59 973.895 425.899 991.444 423.327 1007.99C422.137 1015.51 419.73 1022.79 416.201 1029.54C375.176 1107.32 324.777 1178.99 272.204 1249.25C248.463 1280.99 218.009 1289.88 180.698 1279.62C158.909 1273.63 149.8 1263.39 146.11 1234.16Z" fill="#F5F5EB"/>
<path d="M43.6836 1111.48C47.368 1100.72 48.5608 1090.43 53.8763 1083.15C64.6758 1068.33 75.9259 1052.89 90.1157 1041.66C152.753 992.082 215.283 942.164 287.273 906.126C290.12 904.707 292.684 902.694 295.284 900.832C313.055 888.104 329.628 891.119 341.586 909.309C362.974 941.817 362.614 962.543 333.359 987.809C267.074 1045.03 199.139 1100.34 131.778 1156.3C127.795 1159.6 123.073 1162.07 118.505 1164.58C99.9572 1174.8 82.6592 1173.57 69.8344 1157.21C59.1867 1143.64 52.3687 1127.05 43.6836 1111.48Z" fill="#F5F5EB"/>
<path d="M371.375 -69.3214C372.314 -87.2278 371.528 -105.435 374.636 -122.96C378.263 -143.448 391.004 -150.724 410.936 -145.336C426.379 -141.16 441.996 -136.255 456.035 -128.778C464.529 -124.232 473.046 -115.268 476.384 -106.355C486.595 -79.3642 495.249 -51.8093 502.304 -23.8266C513.231 20.2208 523.002 64.5508 531.616 109.163C535.664 130.226 537.135 152.073 537.203 173.576C537.268 192.008 525.301 205.648 511.289 216.378C507.43 219.336 500.503 219.972 495.333 219.234C477.65 216.714 464.881 206.641 458.662 189.968C448.16 161.784 440.42 132.424 428.098 105.101C407.187 58.7683 391.915 10.769 380.043 -38.4712C377.594 -48.6236 375.572 -58.8717 373.347 -69.0771C372.677 -69.1791 372.033 -69.2549 371.375 -69.3214Z" fill="#F5F5EB"/>
<path d="M143.485 21.4615C153.64 26.2202 165.4 29.0895 173.583 36.1533C187.721 48.3797 201.599 61.9237 212.118 77.2843C261.507 149.443 319.54 214.507 376.859 280.183C384.585 288.879 391.794 298.022 398.446 307.565C404.525 316.467 405.58 326.512 398.917 335.825C392.662 344.576 382.664 348.316 373.329 344.92C355.444 338.425 337.068 331.661 321.256 321.364C263.346 283.646 213.751 235.943 165.407 186.92C153.842 175.191 140.757 164.445 131.48 151.083C118.822 132.84 106.536 113.503 98.8117 92.8618C87.8137 63.501 111.686 28.3732 141.979 24.6717L143.485 21.4615Z" fill="#F5F5EB"/>
<path d="M1146.92 889.282C1114.93 892.285 1091.45 892.459 1069.51 880.392C1050.43 869.901 1042.32 855 1041.93 832.454C1041.34 800.937 1037.52 769.34 1033.08 738.06C1031.52 727.093 1024.56 716.679 1019.15 706.5C1012.78 694.507 1016.83 682.704 1030.08 678.809C1044 674.727 1055.98 678.698 1066.88 688.104C1080.57 699.914 1095.13 710.734 1108.73 722.624C1141.65 751.449 1180.03 759.432 1222.35 753.837C1228.7 752.927 1235.14 752.814 1241.52 753.5C1263.65 756.231 1276.32 776.499 1263.71 794.514C1232.47 839.163 1194.72 876.914 1146.92 889.282Z" fill="#F5F5EB"/>
<path d="M1334.88 1077.87C1312 1080.93 1289.74 1080.22 1270.66 1065.05C1254.41 1052.12 1249 1032.78 1241.8 1014.49C1229.79 983.937 1217.56 953.463 1205.12 923.07C1202.41 916.486 1197.1 910.915 1194.79 904.246C1187.03 881.792 1200.63 861.704 1228.29 853.713C1267.3 842.407 1304.56 852.779 1325.94 886.949C1347.97 922.14 1365.15 960.382 1384.39 997.32C1385.26 999.141 1385.92 1001.05 1386.37 1003.01C1398.42 1047.95 1382.25 1071.44 1334.88 1077.87Z" fill="#F5F5EB"/>
<path d="M-109.791 775.408C-111.431 762.729 -97.3796 746.024 -81.6326 730.651C-60.4612 709.929 -34.0629 697.004 -6.0982 689.745C44.2162 676.682 92.1776 657.487 140.495 638.928C147.635 636.241 154.977 634.126 162.453 632.604C182.644 628.348 197.297 637.373 208.644 660.514C215.211 673.904 212.312 688.337 196.971 699.815C182.201 710.808 166.3 720.192 149.537 727.808C87.0838 756.197 24.1922 783.557 -38.5759 811.221C-44.804 813.967 -51.2056 816.372 -57.6978 818.55C-84.1199 827.439 -104.542 814.717 -109.791 775.408Z" fill="#F5F5EB"/>
<path d="M1017.58 345.42C1024.75 349.789 1032.04 353.986 1039.06 358.586C1047.04 363.814 1050.85 371.208 1050.58 381.003C1049.62 414.543 1003.49 464.802 970.525 470.465C943.622 475.081 906.503 446.734 913.481 416.484C917.688 398.219 919.648 378.95 926.888 361.985C939.509 332.55 961.711 324.627 992.165 334.783C994.275 335.529 996.495 335.921 998.734 335.94C982.149 323.699 984.546 308 990.681 292.707C999.917 269.691 1009.12 246.486 1020.73 224.636C1036.37 195.205 1077.93 186.241 1105.74 204.519C1116.76 211.76 1120.53 220.807 1116.31 233.469C1112.7 244.112 1108.43 254.52 1103.53 264.632C1093.67 285.206 1082.97 305.396 1073.12 325.984C1062.99 347.154 1055.7 351.165 1032.32 346.838C1027.64 345.987 1022.99 345.06 1018.32 344.178L1017.58 345.42Z" fill="#F5F5EB"/>
<path d="M-22.9272 925.703C-28.8372 925.275 -38.9882 925.666 -48.633 923.603C-67.8268 919.523 -75.38 904.755 -66.6749 887.276C-53.3213 860.469 -33.5354 838.013 -7.89261 823.38C43.9136 793.779 96.5549 765.666 150.031 739.041C171.745 728.159 195.904 720.981 220.986 723.48C229.231 724.303 238.547 727.716 244.518 733.108C248.121 736.341 248.668 746.813 246.26 752.033C242.725 759.695 236.326 766.96 229.403 771.985C173.566 812.535 117.862 853.304 60.9463 892.294C37.1771 908.579 10.115 919.597 -22.9272 925.703Z" fill="#F5F5EB"/>
<path d="M640.067 14.046C644.376 45.508 649.614 76.8429 652.482 108.45C653.48 119.494 650.133 131.685 646.107 142.344C638.641 162.069 622.301 172.186 601.938 174.102C584.234 175.782 567.233 163.493 560.005 143.649C554.014 127.116 548.92 109.947 546.057 92.6356C539.503 52.9461 533.561 13.0983 529.395 -26.9032C527.509 -45.0265 528.801 -63.898 531.618 -81.9721C534.995 -103.686 546.497 -110.591 568.504 -108.23C620.189 -102.689 627.819 -95.1399 634.356 -43.6559C636.787 -24.4892 639.598 -5.38196 642.219 13.7587L640.067 14.046Z" fill="#F5F5EB"/>
<path d="M62.7728 539.931C80.8511 541.309 102.857 541.598 124.367 545.114C139.426 547.577 154.135 554.179 156.199 573.008C158.385 592.887 150.836 607.487 131.128 616.522C95.0766 633.043 58.8534 649.394 21.954 663.802C-1.44815 672.97 -25.9069 680.628 -50.6002 684.778C-66.4417 687.432 -84.7151 685.663 -99.8938 680.258C-136.088 667.326 -141.024 632.752 -111.291 608.636C-83.1115 585.799 -49.6956 572.732 -15.9018 561.284C8.34179 553.088 33.5422 547.744 62.7728 539.931Z" fill="#F5F5EB"/>
<path d="M-48.1607 562.176C-64.61 562.297 -82.0325 564.183 -98.9737 562.128C-123.593 559.142 -144.428 548.302 -153.84 523.07C-161.555 502.383 -155.853 485.889 -135.713 477.123C-115.916 468.515 -95.3657 461.005 -74.4551 455.741C-27.9702 444.053 19.2126 436.316 67.4958 439.662C73.4996 440.037 79.4648 440.883 85.3365 442.19C116.319 449.292 112.565 452.579 120.81 480.401C124.538 492.98 117.87 504.485 102.919 510.923C72.7502 523.911 42.1998 536.182 11.2105 547.045C-7.63878 553.645 -27.605 557.043 -48.1607 562.176Z" fill="#F5F5EB"/>
<path d="M133.539 -34.0653C137.716 -1.55641 122.587 15.826 101.33 24.6558C93.571 27.8726 82.0255 25.8089 73.5678 22.5619C40.8786 10.0735 13.1792 -10.828 -12.8924 -33.6147C-28.0178 -46.7279 -42.1526 -60.9418 -55.1813 -76.14C-75.8703 -100.499 -76.0285 -118.471 -54.4018 -142.073C-44.157 -153.263 -30.4077 -161.996 -16.8242 -169.164C-3.80432 -176.038 9.9139 -170.955 22.1798 -163.958C47.9068 -149.294 70.6414 -130.627 88.7111 -107.378C103.84 -87.9153 116.505 -66.5201 129.781 -45.6707C132.475 -41.4555 132.996 -35.8544 133.539 -34.0653Z" fill="#F5F5EB"/>
<path d="M1433.71 998.616C1417.4 1001.26 1404.78 993.797 1396.07 981.7C1386.31 968.128 1378.52 953.094 1370.84 938.195C1364.04 925.023 1358.82 911.046 1352.46 897.643C1342.1 875.819 1327.44 857.53 1307.42 843.657C1300.86 839.009 1294.55 834.011 1288.52 828.684C1277.66 819.259 1277.49 804.688 1289.73 797.249C1297.47 792.551 1307.96 788.856 1316.65 789.835C1368.76 795.623 1417.83 811.228 1462.36 839.656C1485.15 854.208 1495.62 874.86 1489.34 901.355C1483.8 925.155 1476.69 948.562 1468.05 971.424C1462.45 986.055 1450.31 996.036 1433.71 998.616Z" fill="#F5F5EB"/>
<path d="M766.375 132.254C766.902 120.755 768.99 103.078 768.235 85.5309C766.992 56.6976 764.735 27.8688 761.397 -0.804223C756.746 -40.6425 779.528 -64.3578 819.018 -56.7441C837.615 -53.1564 855.768 -45.684 873.14 -37.814C888.613 -30.8093 894.954 -16.1287 892.756 0.317645C887.762 37.653 882.872 75.1007 875.448 112.001C868.46 146.754 841.139 168.565 805.912 171.667C784.102 173.581 769.228 160.874 766.375 132.254Z" fill="#F5F5EB"/>
<path d="M80.8431 330.787C80.5165 328.402 80.0405 326.015 79.8611 323.617C78.0213 295.76 97.9201 280.333 123.298 291.683C142.975 300.49 162.667 310.495 179.919 323.256C229.526 359.941 281.021 392.842 339.02 414.767C346.009 417.418 352.647 421.741 358.468 426.527C370.233 436.231 369.099 448.365 355.879 455.796C341.704 463.76 325.598 466.763 310.31 462.737C262.992 450.277 215.764 437.216 169.192 422.253C151.211 416.472 134.038 406.465 118.338 395.675C96.082 380.446 85.0098 357.237 80.8431 330.787Z" fill="#F5F5EB"/>
<path d="M1427.69 465.883C1432.94 505.043 1419.89 529.335 1382.21 542.761C1351.31 553.776 1319.46 562.462 1287.57 570.117C1263.15 575.98 1249.47 568.902 1242.39 551.332C1231.18 523.476 1235.17 500.575 1256.39 488.292C1282.14 473.399 1301.97 453.374 1318.78 429.24C1329.83 413.384 1342.98 399.092 1362.56 392.988C1376.63 388.579 1388.65 391.524 1398.77 402.266C1415.61 420.197 1424.2 441.883 1427.69 465.883Z" fill="#F5F5EB"/>
<path d="M56.0787 118.721C49.3033 118.233 42.2962 118.775 35.843 117.102C-6.82427 105.995 -49.7981 95.914 -91.8028 82.5696C-131.551 69.915 -144.265 49.1451 -126.813 1.64344C-116.286 -27.0204 -102.012 -35.2963 -71.9922 -30.1647C-58.1556 -27.8698 -44.68 -23.7684 -31.911 -17.9656C3.11654 -1.68285 36.793 17.0359 65.4605 43.537C67.5063 45.4548 69.6959 47.2133 72.0099 48.7971C88.5629 59.992 92.6711 70.9384 87.7958 91.1281C84.0626 106.54 73.5985 115.367 56.0787 118.721Z" fill="#F5F5EB"/>
<path d="M1234.6 479.589C1225.67 477.942 1217.64 477.983 1211.05 474.92C1198.03 468.836 1185.47 461.813 1173.47 453.904C1161.08 445.783 1160.05 432.768 1162.03 419.408C1165.22 397.958 1175.59 379.7 1190.14 364.395C1208.38 345.214 1227.61 326.897 1247.4 309.309C1254.97 302.577 1264.88 298.029 1274.37 293.994C1303.78 281.477 1347.28 326.317 1340.36 354.986C1337.12 368.46 1333.16 382.509 1326.02 394.153C1309.57 421.004 1289.16 445.021 1263.53 463.774C1254.68 470.228 1244.13 474.43 1234.6 479.589Z" fill="#F5F5EB"/>
<path d="M1221.05 737.616C1184.92 740.186 1151.33 734.731 1121.58 715.699C1096.61 699.738 1072.75 681.784 1049.89 662.904C1030.82 647.162 1033.29 632.133 1053.98 618.409C1070.91 607.146 1089.65 607.658 1108.62 608.816C1157.93 611.835 1202.98 627.902 1243.85 655.02C1254.2 661.89 1263.41 671.877 1270.23 682.332C1279.27 696.189 1275.61 711.517 1261.37 720.071C1248.89 727.513 1234.56 731.882 1221.05 737.616Z" fill="#F5F5EB"/>
<path d="M682.888 531.355C656.301 532.015 630.671 529.107 606.945 518.276C586.881 509.097 567.554 498.223 548.533 487.023C533.534 478.194 531.913 474.518 538.612 457.358C545.593 439.482 553.697 421.645 564.08 405.583C580.48 380.23 604.65 376.174 629.679 393.2C640.241 400.385 649.838 409.231 658.917 418.266C675.197 434.485 693.579 445.482 717.181 446.103C720.757 446.195 724.353 447.037 727.851 447.81C747.575 452.115 751.592 462.18 740.63 478.805C734.884 487.516 730.024 496.828 724.153 505.444C714.134 520.188 699.733 528.243 682.888 531.355Z" fill="#F5F5EB"/>
<path d="M656.468 67.183L651.445 -35.4564C651.406 -35.8571 651.401 -36.2602 651.429 -36.6618C653.106 -52.8281 656.589 -68.2205 674.521 -73.9487C688.397 -78.3834 711.155 -69.9391 719.132 -54.3645C728.716 -35.6556 738.372 -15.6001 741.267 4.82995C746.565 42.5849 749.096 80.6766 748.841 118.801C748.655 151.296 734.194 164.248 702.194 169.637C682.682 172.921 670.457 164.592 667.185 144.459C663.516 121.854 660.837 99.0841 656.468 67.183Z" fill="#F5F5EB"/>
<path d="M1117.86 -38.1288C1118.61 -48.4966 1118.31 -59.0616 1120.31 -69.1976C1126.78 -101.473 1133.68 -133.643 1141.38 -165.698C1144.27 -177.419 1148.52 -188.76 1154.06 -199.486C1165.82 -222.475 1191.54 -233.184 1216.5 -226.733C1229.95 -223.252 1240.08 -210.873 1240.88 -195.657C1241.29 -187.274 1241.17 -178.672 1239.74 -170.432C1232.48 -128.665 1219.87 -88.4455 1201.35 -50.332C1193.45 -34.0513 1183.05 -19.2024 1164.89 -11.795C1140.24 -1.74 1122.62 -11.6188 1117.86 -38.1288Z" fill="#F5F5EB"/>
<path d="M1028.5 751.315C1026.85 786.642 1026.95 818.852 1023.39 850.646C1020.09 880.169 997.876 895.771 966.54 893.168C952.675 892.018 938.954 888.329 925.346 885.034C888.193 876.035 886.022 828.887 910.011 810.888C933.196 793.49 946.536 769.577 947.038 739.662C947.115 736.852 947.396 734.05 947.88 731.281C950.031 717.919 952.291 703.618 968.164 700.379C984.639 697.019 1001.33 699.764 1011.28 714.778C1019.04 726.491 1023.5 740.394 1028.5 751.315Z" fill="#F5F5EB"/>
<path d="M18.753 1054.13C0.814649 1056 -10.3212 1049.91 -18.182 1033.39C-35.0594 997.946 -29.5211 970.569 0.682352 945.532C27.814 923.047 57.8644 905.492 92.0775 895.961C118.173 888.66 141.044 907.674 142.882 934.92C144.602 960.431 133.236 978.781 116.734 995.658C93.3485 1019.54 66.3256 1037.86 34.8491 1049.36C29.5983 1051.24 24.1264 1052.54 18.753 1054.13Z" fill="#F5F5EB"/>
<path d="M1446.11 797.15C1438.85 795.945 1424.18 795.279 1410.7 790.917C1377.94 780.309 1345.69 768.028 1313.34 756.298C1310.35 755.217 1307.61 753.416 1304.85 751.789C1286.71 741.05 1283.8 720.033 1301.27 708.532C1329.64 689.849 1359.25 672.348 1394.51 669.673C1417.14 667.96 1434.92 680.061 1453.26 690.914C1469.95 700.785 1484.29 712.007 1489.86 731.832C1498.51 762.588 1481.7 792.619 1446.11 797.15Z" fill="#F5F5EB"/>
<path d="M-87.8904 326.994C-96.6706 328.197 -105.398 329.787 -114.175 330.52C-137.109 332.438 -154.807 323.226 -167.424 304.195C-179.836 285.463 -176.727 269.518 -156.377 260.761C-135.067 251.538 -113.046 244.055 -90.5295 238.385C-55.9302 229.77 -20.8518 221.388 15.3949 227.523C22.8947 228.758 30.2274 230.853 37.2479 233.766C50.4516 239.337 58.7936 249.577 59.3801 264.091C59.9246 278.463 50.198 287.286 38.3018 292.187C20.1627 299.772 1.59843 306.297 -17.2972 311.728C-40.4575 318.255 -64.1214 323.009 -87.5683 328.531L-87.8904 326.994Z" fill="#F5F5EB"/>
<path d="M-78.7287 427.144C-93.7628 427.257 -110.165 427.558 -126.555 427.403C-130.893 427.356 -135.293 426.192 -139.551 425.038C-153.716 421.157 -167.163 415.06 -168.855 398.677C-170.494 382.793 -158.2 374.594 -145.555 370.097C-113.867 358.84 -81.9797 347.891 -49.574 338.988C-24.1875 332.008 1.954 327.384 28.052 323.422C45.3367 320.802 60.1515 329.7 72.7051 340.593C87.2633 353.224 83.1498 376.037 64.3247 384.229C42.6725 393.657 20.477 402.22 -2.14429 408.925C-26.722 416.205 -52.0756 420.922 -78.7287 427.144Z" fill="#F5F5EB"/>
<path d="M1134.62 398.832C1131.98 398.485 1126.75 398.985 1122.63 397.067C1109.63 391.006 1096.39 385.045 1084.48 377.142C1072.92 369.453 1069.86 356.783 1074.43 343.895C1078.55 332.307 1083.23 320.328 1090.46 310.55C1109.55 284.828 1129.77 259.852 1150.33 235.263C1160.14 223.53 1173.68 221.199 1187.58 227.554C1201.25 233.807 1215.51 239.703 1227.45 248.548C1240.17 257.987 1240.74 270.089 1232.75 283.839C1228.93 290.428 1224.77 296.821 1220.31 302.993C1203.13 326.739 1186.11 350.627 1168.32 373.912C1160.14 384.588 1151.77 395.931 1134.62 398.832Z" fill="#F5F5EB"/>
<path d="M1145.58 498.071C1154.05 497.993 1164.51 497.231 1174.87 497.907C1216.14 500.58 1247.19 539.301 1240.75 579.569C1238.31 594.909 1230.06 603.224 1214.55 604.714C1205.8 605.556 1196.8 606.05 1188.11 605.026C1149.94 600.563 1111.85 595.494 1073.74 590.516C1069.76 590.048 1065.87 589.052 1062.15 587.556C1049.06 582.029 1040.13 572.548 1038.44 558.132C1036.8 544.142 1045.66 535.385 1056.61 529.413C1083.93 514.521 1112.94 504.182 1145.58 498.071Z" fill="#F5F5EB"/>
<path d="M1003.74 20.7332C1003.99 55.6727 998.857 95.8971 981.495 133.98C967.019 165.711 935.079 168.811 912.471 163.372C901.828 160.82 895.285 153.323 893.333 142.394C892.485 137.665 891.374 132.711 891.936 128.05C896.427 90.6345 900.307 53.1089 906.316 15.9403C912.634 -22.9404 952.712 -31.7166 981.315 -20.1072C995.66 -14.26 1001.18 -4.73001 1003.74 20.7332Z" fill="#F5F5EB"/>
<path d="M807.509 290.608C839.917 286.729 869.87 294.203 898.448 308.514C911.131 314.857 916.565 325.681 915.005 339.223C911.891 366.282 908.929 393.426 903.984 420.177C899.038 446.928 884.085 452.808 859.995 439.477C834.814 425.535 816.542 404.237 798.969 382.165C796.545 379.113 793.793 376.053 790.563 373.961C773.825 363.105 765.702 347.118 763.096 328.035C760.948 312.348 766.242 303.438 780.941 298.1C789.562 294.974 798.642 293.075 807.509 290.608Z" fill="#F5F5EB"/>
<path d="M1401.96 557.141C1406.35 556.54 1410.71 555.704 1415.08 555.388C1445.23 553.204 1460.32 563.565 1466.35 590.444C1472.95 619.834 1461.95 644.552 1434.57 651.664C1410.76 657.854 1385.49 658.385 1360.91 661.714C1352.67 662.843 1344.5 664.535 1336.36 666.225C1330.49 667.438 1324.79 669.427 1318.9 670.45C1304.44 672.959 1290.2 673.187 1281.8 658.229C1273.04 642.628 1272.88 626.065 1283.43 611.643C1289.86 602.861 1298.87 595.12 1308.3 589.602C1322.48 581.301 1337.41 574.352 1352.89 568.848C1368.69 563.232 1385.37 560.113 1401.67 555.906L1401.96 557.141Z" fill="#F5F5EB"/>
<path d="M1171.98 1102.72C1153.94 1105.07 1140.6 1095.1 1138.61 1076.41C1137.53 1066.13 1138.53 1055.55 1138.67 1045.14C1138.97 1021.57 1128.51 1000.89 1121.85 979.064C1117.04 963.324 1113.3 946.021 1114.74 929.924C1117.23 902.144 1147.52 889.097 1167.17 908.201C1203.58 943.607 1230.65 985.324 1228.06 1039.33C1226.64 1068.25 1198 1099.34 1171.98 1102.72Z" fill="#F5F5EB"/>
<path d="M1532.9 31.233C1555.82 30.6878 1578.06 49.6914 1576.63 72.4056C1575.83 85.0374 1572.16 99.1064 1565.22 109.433C1543.16 142.427 1515.09 169.827 1480.71 190.419C1465.17 199.726 1448.97 202.966 1431.16 199.673C1416.42 196.928 1405.68 181.024 1410.03 164.775C1412.66 154.94 1416.76 144.421 1423.28 136.871C1449.03 107.167 1475.47 78.0154 1502.86 49.8231C1510.81 41.6443 1522.78 37.3302 1532.9 31.233Z" fill="#F5F5EB"/>
<path d="M1108.46 1001.35C1110.33 1026.17 1112.46 1050.43 1094.53 1070.49C1080.45 1086.25 1062.75 1090.37 1042.2 1087.42C1023.95 1084.8 1014.68 1073.3 1010.41 1057.3C1008.21 1049.01 1008.34 1039.81 1008.94 1031.13C1010.88 1003.15 1013.1 975.181 1016.03 947.296C1017.82 930.317 1022.85 914.214 1036.08 902.137C1051.46 888.104 1069.84 889.314 1081.56 906.553C1087.46 915.256 1091.32 925.848 1093.99 936.157C1099.6 957.886 1103.81 979.991 1108.46 1001.35Z" fill="#F5F5EB"/>
<path d="M258.998 555.217C225.724 560.229 194.872 557.187 172.044 529.29C161.996 516.816 153.222 503.367 145.854 489.144C135.117 468.715 145.387 452.482 168.09 455.023C193.123 457.819 217.815 463.673 242.67 468.11C269.909 472.967 297.223 477.447 324.424 482.682C333.344 484.405 342.793 486.51 350.428 491.047C365.039 499.757 365.581 515.582 350.828 523.79C335.924 532.092 319.397 537.74 303.143 543.261C288.724 548.195 273.729 551.314 258.998 555.217Z" fill="#F5F5EB"/>
<path d="M1220.63 5.51203C1222.06 -11.2907 1221.96 -24.6798 1224.61 -37.5212C1230.07 -63.8133 1236.83 -89.8367 1243.47 -115.881C1245.3 -122.853 1247.82 -129.625 1250.99 -136.098C1267.12 -169.614 1292.42 -177.745 1325.04 -160.282C1336.42 -154.2 1341.97 -143.742 1337 -128.265C1327.01 -97.081 1315.24 -66.4963 1303.48 -35.9409C1299.28 -25.0901 1293.91 -14.7261 1287.48 -5.02987C1281.43 3.94409 1274.35 12.1708 1266.37 19.4785C1258.13 27.1136 1247.2 35.7817 1236.53 29.1108C1228.67 24.2161 1225.06 12.5008 1220.63 5.51203Z" fill="#F5F5EB"/>
<path d="M493.645 248.059C506.72 252.47 520.775 255.114 532.654 261.679C553.622 273.276 573.285 287.257 593.479 300.272C594.785 301.207 596.026 302.23 597.193 303.334C617.494 320.94 618.189 332.003 601.582 353.017C589.275 368.582 575.759 376.404 554.814 369.657C527.467 360.857 499.147 355.068 471.673 346.643C462.398 343.799 453.881 337.556 445.917 331.655C437.321 325.281 435.166 316.184 439.042 305.844C446.511 285.925 456.38 267.802 475.832 257.058C481.023 254.193 486.85 252.493 492.387 250.251L493.645 248.059Z" fill="#F5F5EB"/>
<path d="M1505.94 -14.3608C1504.07 -8.2158 1502.24 3.95367 1496.87 14.2822C1475.83 54.7321 1446.51 88.5406 1411.08 117.201C1396.2 129.235 1380.52 131.465 1362.86 124.736C1351.07 120.225 1344.02 110.695 1347.35 98.5361C1350.19 88.3151 1354.68 77.9804 1360.77 69.3345C1379.28 43.0731 1398.56 17.3185 1418.25 -8.0755C1430.32 -23.8568 1447.06 -35.44 1466.08 -41.1856C1485.07 -46.9767 1502.71 -37.3693 1505.94 -14.3608Z" fill="#F5F5EB"/>
<path d="M1004.72 144.551C1001.62 100.118 1009.32 57.9688 1021.39 16.6983C1027.31 -3.58248 1045.91 -14.3221 1062.49 -10.9717C1087.15 -5.9933 1105.52 13.0035 1102.22 35.6975C1095.84 79.6778 1089.06 124.034 1064.2 162.606C1060.13 169.045 1055.15 174.869 1049.43 179.902C1035.7 191.674 1019.1 188.074 1012.01 171.498C1008.27 162.789 1006.94 153.058 1004.72 144.551Z" fill="#F5F5EB"/>
<path d="M682.122 309.465C712.555 305.476 731.234 312.004 744.666 335.188C755.001 353.011 770.364 367.872 782.972 384.445C787.245 390.062 791.092 396.549 793.068 403.248C796.113 413.557 791.84 421.82 781.211 424.819C760.767 430.6 740.237 436.252 719.457 440.619C714.037 441.756 706.097 439.728 701.857 436.149C679.476 417.232 657.499 397.783 636.218 377.643C625.616 367.608 625.861 360.038 634.128 347.576C647.201 327.866 663.724 312.775 682.122 309.465Z" fill="#F5F5EB"/>
<path d="M579.762 856.661C581.004 876.616 570.501 896.094 557.012 913.699C533.711 944.067 506.282 970.588 474.571 992.075C469.347 995.616 458.443 995.357 452.424 992.336C423.741 977.964 418.556 946.421 440.432 923.225C466.031 896.082 492.041 869.323 518.009 842.532C521.931 838.518 526.226 834.885 530.835 831.682C552.79 816.249 575.752 826.455 579.762 856.661Z" fill="#F5F5EB"/>
<path d="M1097.67 166.893C1098.28 158.521 1097.68 149.837 1099.71 141.829C1107.23 112.31 1114.65 82.708 1123.96 53.7406C1132.4 27.5326 1151.1 16.6149 1179.65 15.4485C1204.97 14.4107 1224.54 30.745 1218.61 55.7757C1216.53 64.3504 1213.24 72.5832 1208.83 80.2223C1191.74 109.8 1174.15 139.081 1156.42 168.276C1152.85 174.102 1148.56 179.45 1143.64 184.189C1135.83 191.751 1126.51 196.807 1115.29 192.544C1103.8 188.221 1099.34 178.621 1097.67 166.893Z" fill="#F5F5EB"/>
<path d="M311.286 740.213C287.288 743.5 272.049 738.312 261.418 719.739C245.376 691.702 250.809 669.163 280.922 656.526C311.182 643.825 342.291 633.02 373.471 622.727C388.19 617.863 404.057 616.54 415.056 631.701C423.225 642.963 420.357 659.032 408.548 675.08C382.991 709.931 349.337 732.087 311.286 740.213Z" fill="#F5F5EB"/>
<path d="M308.254 803.406C304.198 785.326 314.957 770.167 329.546 760.164C363.202 737.091 398.43 716.307 433.207 694.892C437.166 692.449 442.221 691.317 446.917 690.607C463.51 688.103 474.946 701.833 469.53 717.691C468.047 721.844 466.054 725.798 463.598 729.461C448.022 753.211 431.988 776.718 416.703 800.688C403.91 820.762 386.355 833.326 363.033 837.855C361.065 838.236 358.786 838.086 357.167 839.053C331.048 854.78 309.972 830.37 308.254 803.406Z" fill="#F5F5EB"/>
<path d="M203.028 304.758C198.676 303.573 189.447 302.802 182.07 298.684C157.532 285.138 133.586 270.521 109.553 256.087C84.4317 241.004 75.9098 214.755 68.0232 189.337C65.2365 180.364 68.9877 167.588 73.5837 158.476C81.793 142.22 100.209 137.79 114.705 149.207C156.967 182.5 194.36 220.463 219.314 269.052C221.632 273.565 222.834 278.916 223.427 284.008C224.703 295.23 218.719 302.423 203.028 304.758Z" fill="#F5F5EB"/>
<path d="M618.866 184.441C658.714 180.951 680.113 196.671 689.506 237.604C690.225 240.733 690.655 243.924 691.255 247.054C697.334 278.706 679.798 305.453 648.525 314.029C635.406 317.622 625.013 312.598 616.46 305.003C597.583 288.328 578.47 271.505 562.219 252.39C543.082 229.891 549.275 210.184 577.005 198.702C590.596 193.113 604.887 189.158 618.866 184.441Z" fill="#F5F5EB"/>
<path d="M203.568 913.609C173.741 918.969 157.516 909.354 145.101 892.285C136.627 880.647 136.887 870.414 145.658 859.128C150.113 853.451 155.229 848.326 160.898 843.862C179.434 829.151 198.267 814.817 217.076 800.463C220.608 797.819 224.349 795.464 228.262 793.423C250.099 781.808 267.538 782.602 278.991 795.584C298.963 818.192 302.402 838.839 285.057 859.193C261.515 886.829 230.976 905.115 203.568 913.609Z" fill="#F5F5EB"/>
<path d="M1262.15 64.0499C1294.04 59.332 1320.19 88.294 1312.33 119.791C1308.73 133.756 1302.01 146.722 1292.67 157.711C1275.67 177.354 1256.65 195.441 1237.21 212.729C1223.52 224.92 1210.45 224.474 1196.44 215.011C1185.96 207.933 1180.79 195.187 1186.93 179.415C1199.26 147.755 1213.11 116.623 1227.76 85.9561C1234.5 71.8683 1247.36 63.8463 1262.15 64.0499Z" fill="#F5F5EB"/>
<path d="M700.632 1160.72C690.195 1157.44 679.043 1155.48 669.505 1150.54C659.267 1145.24 654.004 1135.33 657.008 1123.09C659.748 1111.85 661.397 1099.95 666.411 1089.75C682.187 1057.66 698.999 1026.06 716.122 994.669C721.575 984.679 727.669 972.686 741.97 974.73C756.868 976.834 762.905 988.798 765.417 1002.08C767.263 1011.8 768.895 1022.04 767.824 1031.74C763.993 1066.85 752.403 1099.78 736.194 1131C728.972 1144.88 718.784 1156.16 700.632 1160.72Z" fill="#F5F5EB"/>
<path d="M993.181 940.139C993.134 971.855 992.099 1005.06 977.431 1036.04C969.192 1053.44 955.338 1061.89 935.825 1060.27C925.201 1059.39 913.688 1060.78 904.086 1057.12C882.335 1048.79 875.672 1027.35 886.872 1006.43C902.155 977.874 917.793 949.51 933.519 921.2C939.387 910.646 945.561 898.307 959.975 900.306C975.931 902.518 985.779 913.849 990.817 929.028C991.878 932.036 992.211 935.285 993.181 940.139Z" fill="#F5F5EB"/>
<path d="M849.07 844.108C836.609 841.506 825.516 840.849 815.766 836.817C792.673 827.234 787.136 801.933 802.577 782.1C820.8 758.733 838.975 735.313 857.104 711.84C870.687 694.326 884.765 691.205 904.63 701.164C932.643 715.217 939.587 731.358 924.373 758.621C911.338 781.986 895.186 803.869 878.342 824.729C871.294 833.469 858.894 837.843 849.07 844.108Z" fill="#F5F5EB"/>
<path d="M366.758 888.181C370.363 879.13 372.157 868.657 377.945 861.342C389.079 847.28 402.166 834.694 415.008 822.06C432.174 805.164 449.655 788.607 467.45 772.39C474.881 765.633 483.507 759.01 494.416 765.402C506.372 772.419 516.653 781.908 513.667 797.114C511.323 809.214 507.111 820.876 501.182 831.681C481.154 867.661 452.127 895.951 419.899 920.849C414.857 924.744 405.402 925.592 398.741 924.201C384.438 921.158 371.227 903.997 366.758 888.181Z" fill="#F5F5EB"/>
<path d="M499.392 455.581C473.404 454.414 447.289 454.443 421.457 451.742C397.832 449.267 385.101 437.735 383.035 421.56C380.054 398.272 393.548 368.084 411.206 360.567C416.713 358.29 422.759 357.651 428.62 358.726C457.229 364.774 486.106 370.271 514.08 378.59C551.47 389.704 555 403.994 531.042 434.356C522.74 444.87 513.707 453.315 499.392 455.581Z" fill="#F5F5EB"/>
<path d="M841.224 650.588L845.331 656.518C857.312 675.696 855.634 693.652 840.729 710.601C823.793 729.811 808.597 750.893 789.789 768.026C766.23 789.493 740.124 791.383 716.843 776.667C710.068 772.377 704.23 765.559 699.918 758.68C692.233 746.435 694.232 737.567 704.741 727.712C705.614 726.882 706.532 726.102 707.492 725.375C737.43 703.296 767.238 681.033 797.387 659.245C810.45 649.801 824.728 643.895 841.224 650.588Z" fill="#F5F5EB"/>
<path d="M612.655 1101.19C600.936 1097.8 588.204 1096.28 577.701 1090.62C557.825 1079.92 553.964 1060.82 567.761 1042.91C591.544 1012.03 615.976 981.661 641.055 951.795C655.207 935.008 667.503 932.318 679.538 940.024C693.803 949.148 698.919 963.757 690.572 982.492C676.59 1014.01 661.184 1044.94 645.273 1075.55C638.883 1087.9 628.399 1097.06 612.655 1101.19Z" fill="#F5F5EB"/>
<path d="M900.355 892.177C898.586 926.394 892.107 962.144 871.089 993.4C862.345 1006.4 848.263 1011.78 832.192 1010.91C825.074 1010.53 817.91 1010.81 810.763 1010.87C797.238 1011.01 781.38 990.629 785.169 974.643C788.227 961.701 794.234 949.064 800.946 937.448C814.184 914.689 828.146 892.271 843.236 870.69C850.657 860.051 862.78 856.75 875.637 861.482C888.666 866.317 896.694 875.735 900.355 892.177Z" fill="#F5F5EB"/>
<path d="M1302.52 280.366C1276.78 283.78 1262.1 267.797 1269.58 244.022C1279.3 213.173 1294.19 184.56 1314.78 159.565C1333.72 136.57 1352.75 136.595 1373.74 157.207C1378.16 161.551 1385.12 163.751 1388.54 168.598C1395.95 179.174 1396.71 191.735 1390.89 203.049C1372.58 238.697 1343.58 263.108 1307.37 279.396C1305.6 280.198 1303.46 280.193 1302.52 280.366Z" fill="#F5F5EB"/>
<path d="M1043.23 523.01C1022.86 523.614 1003.69 502.82 1006.62 482.3C1007.24 477.982 1008.3 473.408 1010.42 469.682C1024.81 444.455 1044.24 423.307 1068.79 408.34C1090.69 394.964 1135.09 411.611 1146.16 435.013C1152.54 448.511 1146.87 466.021 1130.17 476.098C1111.35 487.479 1091.25 496.665 1071.79 506.993C1062.16 512.15 1052.74 517.666 1043.23 523.01Z" fill="#F5F5EB"/>
<path d="M635.712 909.838C634.609 914.081 633.717 923.133 629.989 930.807C614.088 963.501 593.055 992.799 568.245 1019.33C555.365 1033.11 538.484 1039.5 520.595 1043.15C503.982 1046.53 488.375 1031.42 493.201 1014.9C496.913 1002.22 503.324 989.047 512.137 979.372C536.168 952.974 561.806 928.017 587.511 903.223C593.923 897.03 602.5 892.226 610.935 889.207C623.152 884.858 633.223 892.371 635.712 909.838Z" fill="#F5F5EB"/>
<path d="M1449.92 411.86C1429.11 414.346 1405.27 402.479 1397.87 387.213C1393.21 377.624 1393.33 367.44 1400.01 358.646C1415.17 338.681 1432.81 321.544 1455.28 309.387C1481.32 295.304 1530.42 317.574 1536.16 348.841C1538.67 362.518 1534.43 373.072 1523.78 380.397C1501.45 395.603 1476.36 406.292 1449.92 411.86Z" fill="#F5F5EB"/>
<path d="M290.066 562.136C309.192 559.517 328.302 556.78 347.45 554.322C363.821 552.214 372.95 557.098 378.537 570.458C383.689 582.768 379.512 599.351 367.078 606.525C355.041 613.451 341.82 618.802 328.521 622.927C310.524 628.515 291.856 631.921 273.649 636.897C249.868 643.404 229.305 637.819 211.693 621.179C204.13 614.015 201.978 604.665 204.591 594.572C207.62 582.894 215.51 575.679 227.157 573.8C248.191 570.42 269.355 567.88 290.471 564.988L290.066 562.136Z" fill="#F5F5EB"/>
<path d="M1464.25 504.892C1447.04 507.249 1438.62 501.604 1437.15 486.614C1436.48 479.782 1436.71 471.118 1440.27 465.882C1462.06 434.103 1489.9 409.143 1527.22 396.973C1539.59 392.953 1551.5 397.8 1560.87 405.841C1569.57 413.46 1577.4 422.011 1584.23 431.34C1590.67 439.977 1588.72 452.514 1579.21 460.688C1571.92 466.91 1563.58 471.787 1554.58 475.094C1527.49 484.93 1500.01 493.666 1472.64 502.759C1469.26 503.886 1465.68 504.54 1464.25 504.892Z" fill="#F5F5EB"/>
<path d="M956.948 174.85C967.576 176.257 978.465 176.733 988.82 179.303C1003.55 182.943 1010.82 192.994 1006.06 207.213C996.055 237.191 983.999 266.504 972.051 295.795C970.634 299.269 964.616 303.119 960.857 302.993C946.562 302.513 931.991 301.878 918.146 298.645C902.486 294.998 894.536 282.238 899.077 267.714C906.705 243.353 915.054 219.028 925.639 195.842C932.214 181.48 941.08 178.342 956.948 174.85Z" fill="#F5F5EB"/>
<path d="M855.473 288.415C840.504 284.971 825.128 282.702 810.705 277.693C800.977 274.314 796.554 264.663 797.64 254.034C799.311 237.712 800.606 221.262 803.871 205.207C808.756 181.005 825.159 169.337 850.011 171.248C861.161 172.106 872.48 173.113 883.265 175.832C900.52 180.178 907.478 191.3 902.842 208.453C897.623 227.766 890.944 246.756 883.868 265.466C879.171 277.812 869.505 283.757 855.473 288.415Z" fill="#F5F5EB"/>
<path d="M1474.17 267.577C1476.86 281.744 1471.67 293.263 1459.63 299.287C1432.85 312.646 1405.75 325.659 1377.85 336.383C1357.08 344.364 1341.56 330.753 1347.02 309.045C1350.69 294.38 1359.62 280.694 1368.08 267.802C1375.05 257.158 1384.69 248.302 1393.34 238.828C1408.25 222.519 1425.83 220.275 1445.73 228.814C1463.01 236.249 1470.53 250.44 1474.17 267.577Z" fill="#F5F5EB"/>
<path d="M609.1 822.916C588.832 821.22 571.761 820.121 557.488 808.323C544.384 797.491 541.569 783.796 551.741 770.171C569.895 745.867 593.69 728.139 621.223 715.983C637.544 708.776 651.948 713.862 663.998 728.424C674.27 740.837 675.165 752.052 664.021 767.778C653.044 783.093 641.053 797.655 628.129 811.365C622.779 817.099 614.276 819.889 609.1 822.916Z" fill="#F5F5EB"/>
<path d="M459.557 539.617C442.686 538.946 421.098 538.28 399.571 537.031C390.856 536.533 383.791 532.029 382.343 522.925C380.543 511.633 378.401 499.962 379.489 488.751C380.912 474.267 391.767 463.612 406.104 464.071C437.205 465.067 468.535 466.441 499.205 471.26C523.201 475.025 528.279 495.559 512.921 514.747C500.353 530.422 482.439 534.485 459.557 539.617Z" fill="#F5F5EB"/>
<path d="M752.17 960.102C737.4 957.302 722.357 955.494 707.954 951.399C696.551 948.145 692.033 935.354 699.297 923.514C710.583 905.174 723.738 887.913 737.001 870.898C745.208 860.511 754.266 850.825 764.082 841.942C775.244 831.737 791.788 831.439 804.289 839.604C813.25 845.495 816.328 854.525 812.979 863.757C804.135 888.173 794.985 912.578 784.05 936.094C777.534 950.18 766.64 955.653 752.17 960.102Z" fill="#F5F5EB"/>
<path d="M726.59 174.086C734.429 174.503 749.779 174.353 764.758 176.618C777.257 178.506 788.164 185.6 789.239 199.6C791.269 225.851 786.556 250.759 769.827 272.244C760.814 283.832 748.485 287.749 734.554 286.333C719.776 284.839 711.057 273.748 706.227 261.887C699.479 245.272 694.816 227.551 691.444 209.893C687.421 188.685 697.129 177.658 726.59 174.086Z" fill="#F5F5EB"/>
<path d="M681.358 904.988C667.4 898.529 651.693 893.569 638.836 884.544C629.442 877.944 629.663 865.026 635.596 854.679C651.44 827.061 673.836 805.21 699.207 786.529C709.277 779.12 720.564 781.368 730.739 788.174C740.654 794.822 744.048 804.42 741.234 815.494C733.902 844.302 721.197 870.566 700.991 892.624C696.691 897.365 689.845 899.793 681.358 904.988Z" fill="#F5F5EB"/>
<path d="M956.809 551.773C954.347 540.87 951.116 530.071 949.576 519.042C946.741 498.835 959.369 487.139 979.192 491.945C986.565 493.731 993.399 497.27 999.113 502.261C1032.67 532.759 1042.34 571.329 1034.74 614.909C1033.06 624.427 1029.43 633.913 1018.22 636.448C1007.01 638.982 999.184 632.645 994.244 624.115C986.443 610.693 980.401 596.292 973.297 582.469C967.911 571.988 962.038 561.761 956.371 551.408L956.809 551.773Z" fill="#F5F5EB"/>
<path d="M452.553 546.711C463.187 546.253 476.752 544.932 490.243 545.417C496.236 545.64 502.614 548.665 508.008 551.855C523.237 560.95 525.606 573.841 513.648 586.727C495.546 606.239 472.389 618.228 447.424 626.276C433.575 630.744 423.953 621.5 415.074 612.4C410.661 607.876 406.501 603.138 401.932 598.733C385.439 582.915 389.241 562.835 410.968 555.857C423.404 551.851 436.621 550.115 452.553 546.711Z" fill="#F5F5EB"/>
<path d="M18.6681 198.362C-8.07911 203.516 -22.6889 197.638 -35.8647 176.432C-52.683 149.367 -36.9046 117.733 -5.47859 118.386C10.519 118.722 27.0184 122.94 42.1229 128.511C57.4474 134.165 63.2547 146.742 61.7084 160.922C59.5512 180.658 51.1797 191.211 34.0256 195.439C28.9977 196.716 23.8173 197.426 18.6681 198.362Z" fill="#F5F5EB"/>
<path d="M499.158 734.609C497.273 721.502 501.997 710.218 511.86 702.554C531.115 687.595 550.836 673.05 571.572 660.304C577.756 656.475 589.04 656.681 596.124 659.587C605.822 663.566 608.498 674.992 606.076 684.522C603.595 694.276 599.832 705.823 592.672 711.835C573.85 727.614 553.787 742.438 532.435 754.493C516.067 763.756 501.675 753.585 499.158 734.609Z" fill="#F5F5EB"/>
<path d="M351.741 398.423C348.399 397.643 341.629 397.355 336.13 394.597C310.842 381.774 285.569 368.851 260.978 354.754C245.723 346.013 238 330.493 232.69 314.366C231.401 310.399 233.204 302.228 236.041 300.736C242.191 297.524 250.692 294.831 256.876 296.608C266.599 299.406 275.737 305.333 284.224 311.244C306.254 326.669 327.977 342.52 349.393 358.798C355.688 363.564 361.756 369.337 366.046 375.898C373.177 386.706 367.559 396.852 351.741 398.423Z" fill="#F5F5EB"/>
<path d="M555.998 614.135C557.67 615.456 559.341 616.775 561.012 618.092C559.904 625.295 560.377 633.266 557.335 639.519C551.92 650.685 545.312 661.232 537.626 670.976C512.647 702.483 479.289 691.637 456.461 671.962C449.525 666.002 449.856 653.724 457.11 646.984C477.327 628.219 500.954 614.219 527.24 606.676C535.431 604.332 546.334 611.388 555.998 614.135Z" fill="#F5F5EB"/>
<path d="M1292.81 34.5961C1293.08 14.762 1298.67 -5.28046 1314.77 -21.0593C1325.72 -31.7859 1342 -31.8472 1358.18 -22.3756C1373.44 -13.4337 1379.31 -2.16175 1375.42 13.481C1370 35.1904 1357.12 52.4667 1337.54 62.4227C1312.28 75.2523 1299.07 64.8371 1292.81 34.5961Z" fill="#F5F5EB"/>
<path d="M939.588 481.656C938.971 488.039 934.228 493.571 928.071 490.091C917.952 484.256 908.815 476.864 900.995 468.187C896.489 463.206 900.707 457.486 907.587 456.447C916.605 455.077 938.102 471.789 939.588 481.656Z" fill="#F5F5EB"/>
</g>
</svg>
