<svg width="360" height="425" viewBox="0 0 360 425" fill="none" xmlns="http://www.w3.org/2000/svg">
<path d="M116.018 22.7063C159.424 56.0785 177.323 113.643 164.182 166.241C160.147 182.691 152.989 198.211 143.097 211.959C133.904 224.589 119.42 234.669 103.839 233.738C98.3253 233.337 92.9874 231.623 88.2707 228.739C83.554 225.855 79.5955 221.884 76.7257 217.159C70.61 206.991 74.5623 194.466 80.3771 185.094C88.5259 171.919 100.715 161.661 113.913 153.565C154.314 128.752 209.465 129.112 246.285 160.64C266.549 177.999 281.168 201.416 289.916 226.492C298.01 249.605 301.276 274.173 301.461 298.604C301.616 319.766 297.535 345.51 275.888 355.46" stroke="black" stroke-width="4.13" stroke-linecap="round" stroke-linejoin="round"/>
<path d="M271.915 358.394C272.88 357.784 281.052 352.246 290.801 355.462C295.739 357.167 299.89 360.606 302.484 365.14" stroke="black" stroke-width="4.13" stroke-linecap="round" stroke-linejoin="round"/>
<path d="M271.915 358.395C274.468 356.958 276.669 354.971 278.358 352.577C280.048 350.184 281.182 347.444 281.68 344.557C283.181 334.541 275.834 327.886 275.311 327.419" stroke="black" stroke-width="4.13" stroke-linecap="round" stroke-linejoin="round"/>
</svg>
