<svg width="24" height="25" viewBox="0 0 24 25" fill="none" xmlns="http://www.w3.org/2000/svg">
<g clip-path="url(#clip0_89_990)">
<rect y="0.508301" width="24" height="23.9785" rx="11.9893" fill="#2E2E2E"/>
<path d="M7 11.7583C6.58579 11.7583 6.25 12.0941 6.25 12.5083C6.25 12.9225 6.58579 13.2583 7 13.2583V11.7583ZM12 13.2583C12.4142 13.2583 12.75 12.9225 12.75 12.5083C12.75 12.0941 12.4142 11.7583 12 11.7583V13.2583ZM12 11.7583C11.5858 11.7583 11.25 12.0941 11.25 12.5083C11.25 12.9225 11.5858 13.2583 12 13.2583V11.7583ZM17 13.2583C17.4142 13.2583 17.75 12.9225 17.75 12.5083C17.75 12.0941 17.4142 11.7583 17 11.7583V13.2583ZM12.75 12.5083C12.75 12.0941 12.4142 11.7583 12 11.7583C11.5858 11.7583 11.25 12.0941 11.25 12.5083H12.75ZM11.25 17.5083C11.25 17.9225 11.5858 18.2583 12 18.2583C12.4142 18.2583 12.75 17.9225 12.75 17.5083H11.25ZM11.25 12.5083C11.25 12.9225 11.5858 13.2583 12 13.2583C12.4142 13.2583 12.75 12.9225 12.75 12.5083H11.25ZM12.75 7.5083C12.75 7.09409 12.4142 6.7583 12 6.7583C11.5858 6.7583 11.25 7.09409 11.25 7.5083H12.75ZM7 13.2583H12V11.7583H7V13.2583ZM12 13.2583H17V11.7583H12V13.2583ZM12 12.5083H11.25C11.25 12.5083 11.25 12.5083 11.25 12.5083C11.25 12.5083 11.25 12.5083 11.25 12.5083C11.25 12.5083 11.25 12.5083 11.25 12.5083C11.25 12.5083 11.25 12.5083 11.25 12.5083C11.25 12.5083 11.25 12.5083 11.25 12.5083C11.25 12.5083 11.25 12.5083 11.25 12.5083C11.25 12.5083 11.25 12.5083 11.25 12.5083C11.25 12.5083 11.25 12.5083 11.25 12.5083C11.25 12.5083 11.25 12.5083 11.25 12.5083C11.25 12.5083 11.25 12.5083 11.25 12.5084C11.25 12.5084 11.25 12.5084 11.25 12.5084C11.25 12.5084 11.25 12.5084 11.25 12.5084C11.25 12.5084 11.25 12.5084 11.25 12.5084C11.25 12.5084 11.25 12.5084 11.25 12.5084C11.25 12.5084 11.25 12.5084 11.25 12.5085C11.25 12.5085 11.25 12.5085 11.25 12.5085C11.25 12.5085 11.25 12.5085 11.25 12.5085C11.25 12.5085 11.25 12.5085 11.25 12.5086C11.25 12.5086 11.25 12.5086 11.25 12.5086C11.25 12.5086 11.25 12.5086 11.25 12.5086C11.25 12.5087 11.25 12.5087 11.25 12.5087C11.25 12.5087 11.25 12.5087 11.25 12.5088C11.25 12.5088 11.25 12.5088 11.25 12.5088C11.25 12.5088 11.25 12.5089 11.25 12.5089C11.25 12.5089 11.25 12.5089 11.25 12.509C11.25 12.509 11.25 12.509 11.25 12.509C11.25 12.5091 11.25 12.5091 11.25 12.5091C11.25 12.5091 11.25 12.5092 11.25 12.5092C11.25 12.5092 11.25 12.5093 11.25 12.5093C11.25 12.5093 11.25 12.5094 11.25 12.5094C11.25 12.5094 11.25 12.5095 11.25 12.5095C11.25 12.5096 11.25 12.5096 11.25 12.5096C11.25 12.5097 11.25 12.5097 11.25 12.5098C11.25 12.5098 11.25 12.5099 11.25 12.5099C11.25 12.5099 11.25 12.51 11.25 12.51C11.25 12.5101 11.25 12.5101 11.25 12.5102C11.25 12.5102 11.25 12.5103 11.25 12.5103C11.25 12.5104 11.25 12.5105 11.25 12.5105C11.25 12.5106 11.25 12.5106 11.25 12.5107C11.25 12.5107 11.25 12.5108 11.25 12.5109C11.25 12.5109 11.25 12.511 11.25 12.5111C11.25 12.5111 11.25 12.5112 11.25 12.5113C11.25 12.5113 11.25 12.5114 11.25 12.5115C11.25 12.5115 11.25 12.5116 11.25 12.5117C11.25 12.5118 11.25 12.5118 11.25 12.5119C11.25 12.512 11.25 12.5121 11.25 12.5122C11.25 12.5123 11.25 12.5123 11.25 12.5124C11.25 12.5125 11.25 12.5126 11.25 12.5127C11.25 12.5128 11.25 12.5129 11.25 12.513C11.25 12.5131 11.25 12.5131 11.25 12.5132C11.25 12.5133 11.25 12.5134 11.25 12.5135C11.25 12.5136 11.25 12.5137 11.25 12.5138C11.25 12.514 11.25 12.5141 11.25 12.5142C11.25 12.5143 11.25 12.5144 11.25 12.5145C11.25 12.5146 11.25 12.5147 11.25 12.5148C11.25 12.515 11.25 12.5151 11.25 12.5152C11.25 12.5153 11.25 12.5154 11.25 12.5156C11.25 12.5157 11.25 12.5158 11.25 12.516C11.25 12.5161 11.25 12.5162 11.25 12.5163C11.25 12.5165 11.25 12.5166 11.25 12.5168C11.25 12.5169 11.25 12.517 11.25 12.5172C11.25 12.5173 11.25 12.5175 11.25 12.5176C11.25 12.5178 11.25 12.5179 11.25 12.5181C11.25 12.5182 11.25 12.5184 11.25 12.5185C11.25 12.5187 11.25 12.5188 11.25 12.519C11.25 12.5192 11.25 12.5193 11.25 12.5195C11.25 12.5197 11.25 12.5198 11.25 12.52C11.25 12.5202 11.25 12.5204 11.25 12.5205C11.25 12.5207 11.25 12.5209 11.25 12.5211C11.25 12.5213 11.25 12.5214 11.25 12.5216C11.25 12.5218 11.25 12.522 11.25 12.5222C11.25 12.5224 11.25 12.5226 11.25 12.5228C11.25 12.523 11.25 12.5232 11.25 12.5234C11.25 12.5236 11.25 12.5238 11.25 12.524C11.25 12.5242 11.25 12.5244 11.25 12.5247C11.25 12.5249 11.25 12.5251 11.25 12.5253C11.25 12.5255 11.25 12.5258 11.25 12.526C11.25 12.5262 11.25 12.5264 11.25 12.5267C11.25 12.5269 11.25 12.5271 11.25 12.5274C11.25 12.5276 11.25 12.5279 11.25 12.5281C11.25 12.5283 11.25 12.5286 11.25 12.5288C11.25 12.5291 11.25 12.5293 11.25 12.5296C11.25 12.5299 11.25 12.5301 11.25 12.5304C11.25 12.5306 11.25 12.5309 11.25 12.5312C11.25 12.5314 11.25 12.5317 11.25 12.532C11.25 12.5323 11.25 12.5325 11.25 12.5328C11.25 12.5331 11.25 12.5334 11.25 12.5337C11.25 12.534 11.25 12.5343 11.25 12.5346C11.25 12.5349 11.25 12.5352 11.25 12.5355C11.25 12.5358 11.25 12.5361 11.25 12.5364C11.25 12.5367 11.25 12.537 11.25 12.5373C11.25 12.5376 11.25 12.5379 11.25 12.5383C11.25 12.5386 11.25 12.5389 11.25 12.5392C11.25 12.5396 11.25 12.5399 11.25 12.5402C11.25 12.5406 11.25 12.5409 11.25 12.5413C11.25 12.5416 11.25 12.542 11.25 12.5423C11.25 12.5427 11.25 12.543 11.25 12.5434C11.25 12.5437 11.25 12.5441 11.25 12.5444C11.25 12.5448 11.25 12.5452 11.25 12.5456C11.25 12.5459 11.25 12.5463 11.25 12.5467C11.25 12.5471 11.25 12.5474 11.25 12.5478C11.25 12.5482 11.25 12.5486 11.25 12.549C11.25 12.5494 11.25 12.5498 11.25 12.5502C11.25 12.5506 11.25 12.551 11.25 12.5514C11.25 12.5518 11.25 12.5523 11.25 12.5527C11.25 12.5531 11.25 12.5535 11.25 12.5539C11.25 12.5544 11.25 12.5548 11.25 12.5552C11.25 12.5557 11.25 12.5561 11.25 12.5565C11.25 12.557 11.25 12.5574 11.25 12.5579C11.25 12.5583 11.25 12.5588 11.25 12.5592C11.25 12.5597 11.25 12.5602 11.25 12.5606C11.25 12.5611 11.25 12.5616 11.25 12.5621C11.25 12.5625 11.25 12.563 11.25 12.5635C11.25 12.564 11.25 12.5645 11.25 12.565C11.25 12.5655 11.25 12.5659 11.25 12.5664C11.25 12.5669 11.25 12.5675 11.25 12.568C11.25 12.5685 11.25 12.569 11.25 12.5695C11.25 12.57 11.25 12.5706 11.25 12.5711C11.25 12.5716 11.25 12.5721 11.25 12.5727C11.25 12.5732 11.25 12.5738 11.25 12.5743C11.25 12.5748 11.25 12.5754 11.25 12.5759C11.25 12.5765 11.25 12.5771 11.25 12.5776C11.25 12.5782 11.25 12.5788 11.25 12.5793C11.25 12.5799 11.25 12.5805 11.25 12.5811C11.25 12.5816 11.25 12.5822 11.25 12.5828C11.25 12.5834 11.25 12.584 11.25 12.5846C11.25 12.5852 11.25 12.5858 11.25 12.5864C11.25 12.587 11.25 12.5877 11.25 12.5883C11.25 12.5889 11.25 12.5895 11.25 12.5901C11.25 12.5908 11.25 12.5914 11.25 12.592C11.25 12.5927 11.25 12.5933 11.25 12.594C11.25 12.5946 11.25 12.5953 11.25 12.5959C11.25 12.5966 11.25 12.5973 11.25 12.5979C11.25 12.5986 11.25 12.5993 11.25 12.6C11.25 12.6006 11.25 12.6013 11.25 12.602C11.25 12.6027 11.25 12.6034 11.25 12.6041C11.25 12.6048 11.25 12.6055 11.25 12.6062C11.25 12.6069 11.25 12.6076 11.25 12.6083C11.25 12.6091 11.25 12.6098 11.25 12.6105C11.25 12.6113 11.25 12.612 11.25 12.6127C11.25 12.6135 11.25 12.6142 11.25 12.615C11.25 12.6157 11.25 12.6165 11.25 12.6172C11.25 12.618 11.25 12.6188 11.25 12.6195C11.25 12.6203 11.25 12.6211 11.25 12.6219C11.25 12.6227 11.25 12.6234 11.25 12.6242C11.25 12.625 11.25 12.6258 11.25 12.6266C11.25 12.6274 11.25 12.6283 11.25 12.6291C11.25 12.6299 11.25 12.6307 11.25 12.6315C11.25 12.6324 11.25 12.6332 11.25 12.634C11.25 12.6349 11.25 12.6357 11.25 12.6366C11.25 12.6374 11.25 12.6383 11.25 12.6391C11.25 12.64 11.25 12.6409 11.25 12.6417C11.25 12.6426 11.25 12.6435 11.25 12.6444C11.25 12.6452 11.25 12.6461 11.25 12.647C11.25 12.6479 11.25 12.6488 11.25 12.6497C11.25 12.6506 11.25 12.6515 11.25 12.6525C11.25 12.6534 11.25 12.6543 11.25 12.6552C11.25 12.6562 11.25 12.6571 11.25 12.658C11.25 12.659 11.25 12.6599 11.25 12.6609C11.25 12.6618 11.25 12.6628 11.25 12.6638C11.25 12.6647 11.25 12.6657 11.25 12.6667C11.25 12.6677 11.25 12.6686 11.25 12.6696C11.25 12.6706 11.25 12.6716 11.25 12.6726C11.25 12.6736 11.25 12.6746 11.25 12.6756C11.25 12.6767 11.25 12.6777 11.25 12.6787C11.25 12.6797 11.25 12.6808 11.25 12.6818C11.25 12.6828 11.25 12.6839 11.25 12.6849C11.25 12.686 11.25 12.687 11.25 12.6881C11.25 12.6892 11.25 12.6902 11.25 12.6913C11.25 12.6924 11.25 12.6935 11.25 12.6946C11.25 12.6957 11.25 12.6968 11.25 12.6979C11.25 12.699 11.25 12.7001 11.25 12.7012C11.25 12.7023 11.25 12.7034 11.25 12.7045C11.25 12.7057 11.25 12.7068 11.25 12.708C11.25 12.7091 11.25 12.7102 11.25 12.7114C11.25 12.7125 11.25 12.7137 11.25 12.7149C11.25 12.716 11.25 12.7172 11.25 12.7184C11.25 12.7196 11.25 12.7208 11.25 12.722C11.25 12.7232 11.25 12.7244 11.25 12.7256C11.25 12.7268 11.25 12.728 11.25 12.7292C11.25 12.7304 11.25 12.7316 11.25 12.7329C11.25 12.7341 11.25 12.7354 11.25 12.7366C11.25 12.7379 11.25 12.7391 11.25 12.7404C11.25 12.7416 11.25 12.7429 11.25 12.7442C11.25 12.7454 11.25 12.7467 11.25 12.748C11.25 12.7493 11.25 12.7506 11.25 12.7519C11.25 12.7532 11.25 12.7545 11.25 12.7558C11.25 12.7572 11.25 12.7585 11.25 12.7598C11.25 12.7611 11.25 12.7625 11.25 12.7638C11.25 12.7652 11.25 12.7665 11.25 12.7679C11.25 12.7692 11.25 12.7706 11.25 12.772C11.25 12.7733 11.25 12.7747 11.25 12.7761C11.25 12.7775 11.25 12.7789 11.25 12.7803C11.25 12.7817 11.25 12.7831 11.25 12.7845C11.25 12.7859 11.25 12.7874 11.25 12.7888C11.25 12.7902 11.25 12.7917 11.25 12.7931C11.25 12.7946 11.25 12.796 11.25 12.7975C11.25 12.7989 11.25 12.8004 11.25 12.8019C11.25 12.8034 11.25 12.8048 11.25 12.8063C11.25 12.8078 11.25 12.8093 11.25 12.8108C11.25 12.8123 11.25 12.8138 11.25 12.8154C11.25 12.8169 11.25 12.8184 11.25 12.8199C11.25 12.8215 11.25 12.823 11.25 12.8246C11.25 12.8261 11.25 12.8277 11.25 12.8292C11.25 12.8308 11.25 12.8324 11.25 12.834C11.25 12.8355 11.25 12.8371 11.25 12.8387C11.25 12.8403 11.25 12.8419 11.25 12.8435C11.25 12.8451 11.25 12.8468 11.25 12.8484C11.25 12.85 11.25 12.8517 11.25 12.8533C11.25 12.8549 11.25 12.8566 11.25 12.8583C11.25 12.8599 11.25 12.8616 11.25 12.8633C11.25 12.8649 11.25 12.8666 11.25 12.8683C11.25 12.87 11.25 12.8717 11.25 12.8734C11.25 12.8751 11.25 12.8768 11.25 12.8785C11.25 12.8803 11.25 12.882 11.25 12.8837C11.25 12.8855 11.25 12.8872 11.25 12.889C11.25 12.8907 11.25 12.8925 11.25 12.8942C11.25 12.896 11.25 12.8978 11.25 12.8996C11.25 12.9014 11.25 12.9032 11.25 12.905C11.25 12.9068 11.25 12.9086 11.25 12.9104C11.25 12.9122 11.25 12.9141 11.25 12.9159C11.25 12.9177 11.25 12.9196 11.25 12.9214C11.25 12.9233 11.25 12.9251 11.25 12.927C11.25 12.9289 11.25 12.9307 11.25 12.9326C11.25 12.9345 11.25 12.9364 11.25 12.9383C11.25 12.9402 11.25 12.9421 11.25 12.9441C11.25 12.946 11.25 12.9479 11.25 12.9498C11.25 12.9518 11.25 12.9537 11.25 12.9557C11.25 12.9576 11.25 12.9596 11.25 12.9616C11.25 12.9635 11.25 12.9655 11.25 12.9675C11.25 12.9695 11.25 12.9715 11.25 12.9735C11.25 12.9755 11.25 12.9775 11.25 12.9795C11.25 12.9815 11.25 12.9836 11.25 12.9856C11.25 12.9877 11.25 12.9897 11.25 12.9918C11.25 12.9938 11.25 12.9959 11.25 12.998C11.25 13 11.25 13.0021 11.25 13.0042C11.25 13.0063 11.25 13.0084 11.25 13.0105C11.25 13.0126 11.25 13.0147 11.25 13.0169C11.25 13.019 11.25 13.0211 11.25 13.0233C11.25 13.0254 11.25 13.0276 11.25 13.0297C11.25 13.0319 11.25 13.0341 11.25 13.0363C11.25 13.0384 11.25 13.0406 11.25 13.0428C11.25 13.045 11.25 13.0472 11.25 13.0495C11.25 13.0517 11.25 13.0539 11.25 13.0561C11.25 13.0584 11.25 13.0606 11.25 13.0629C11.25 13.0651 11.25 13.0674 11.25 13.0697C11.25 13.0719 11.25 13.0742 11.25 13.0765C11.25 13.0788 11.25 13.0811 11.25 13.0834C11.25 13.0857 11.25 13.088 11.25 13.0904C11.25 13.0927 11.25 13.095 11.25 13.0974C11.25 13.0997 11.25 13.1021 11.25 13.1045C11.25 13.1068 11.25 13.1092 11.25 13.1116C11.25 13.114 11.25 13.1164 11.25 13.1188C11.25 13.1212 11.25 13.1236 11.25 13.126C11.25 13.1284 11.25 13.1309 11.25 13.1333C11.25 13.1357 11.25 13.1382 11.25 13.1407C11.25 13.1431 11.25 13.1456 11.25 13.1481C11.25 13.1505 11.25 13.153 11.25 13.1555C11.25 13.158 11.25 13.1605 11.25 13.1631C11.25 13.1656 11.25 13.1681 11.25 13.1706C11.25 13.1732 11.25 13.1757 11.25 13.1783C11.25 13.1808 11.25 13.1834 11.25 13.186C11.25 13.1886 11.25 13.1911 11.25 13.1937C11.25 13.1963 11.25 13.1989 11.25 13.2016C11.25 13.2042 11.25 13.2068 11.25 13.2094C11.25 13.2121 11.25 13.2147 11.25 13.2174C11.25 13.22 11.25 13.2227 11.25 13.2254C11.25 13.2281 11.25 13.2307 11.25 13.2334C11.25 13.2361 11.25 13.2388 11.25 13.2415C11.25 13.2443 11.25 13.247 11.25 13.2497C11.25 13.2525 11.25 13.2552 11.25 13.258C11.25 13.2607 11.25 13.2635 11.25 13.2663C11.25 13.269 11.25 13.2718 11.25 13.2746C11.25 13.2774 11.25 13.2802 11.25 13.283C11.25 13.2859 11.25 13.2887 11.25 13.2915C11.25 13.2944 11.25 13.2972 11.25 13.3001C11.25 13.3029 11.25 13.3058 11.25 13.3087C11.25 13.3116 11.25 13.3144 11.25 13.3173C11.25 13.3202 11.25 13.3232 11.25 13.3261C11.25 13.329 11.25 13.3319 11.25 13.3349C11.25 13.3378 11.25 13.3408 11.25 13.3437C11.25 13.3467 11.25 13.3497 11.25 13.3526C11.25 13.3556 11.25 13.3586 11.25 13.3616C11.25 13.3646 11.25 13.3676 11.25 13.3707C11.25 13.3737 11.25 13.3767 11.25 13.3798C11.25 13.3828 11.25 13.3859 11.25 13.389C11.25 13.392 11.25 13.3951 11.25 13.3982C11.25 13.4013 11.25 13.4044 11.25 13.4075C11.25 13.4106 11.25 13.4137 11.25 13.4169C11.25 13.42 11.25 13.4231 11.25 13.4263C11.25 13.4294 11.25 13.4326 11.25 13.4358C11.25 13.439 11.25 13.4422 11.25 13.4454C11.25 13.4485 11.25 13.4518 11.25 13.455C11.25 13.4582 11.25 13.4614 11.25 13.4647C11.25 13.4679 11.25 13.4712 11.25 13.4744C11.25 13.4777 11.25 13.481 11.25 13.4843C11.25 13.4875 11.25 13.4908 11.25 13.4941C11.25 13.4975 11.25 13.5008 11.25 13.5041C11.25 13.5074 11.25 13.5108 11.25 13.5141C11.25 13.5175 11.25 13.5208 11.25 13.5242C11.25 13.5276 11.25 13.531 11.25 13.5344C11.25 13.5378 11.25 13.5412 11.25 13.5446C11.25 13.548 11.25 13.5515 11.25 13.5549C11.25 13.5583 11.25 13.5618 11.25 13.5653C11.25 13.5687 11.25 13.5722 11.25 13.5757C11.25 13.5792 11.25 13.5827 11.25 13.5862C11.25 13.5897 11.25 13.5932 11.25 13.5968C11.25 13.6003 11.25 13.6038 11.25 13.6074C11.25 13.611 11.25 13.6145 11.25 13.6181C11.25 13.6217 11.25 13.6253 11.25 13.6289C11.25 13.6325 11.25 13.6361 11.25 13.6397C11.25 13.6433 11.25 13.647 11.25 13.6506C11.25 13.6543 11.25 13.6579 11.25 13.6616C11.25 13.6653 11.25 13.669 11.25 13.6727C11.25 13.6764 11.25 13.6801 11.25 13.6838C11.25 13.6875 11.25 13.6912 11.25 13.695C11.25 13.6987 11.25 13.7025 11.25 13.7063C11.25 13.71 11.25 13.7138 11.25 13.7176C11.25 13.7214 11.25 13.7252 11.25 13.729C11.25 13.7328 11.25 13.7366 11.25 13.7405C11.25 13.7443 11.25 13.7482 11.25 13.752C11.25 13.7559 11.25 13.7598 11.25 13.7637C11.25 13.7675 11.25 13.7714 11.25 13.7754C11.25 13.7793 11.25 13.7832 11.25 13.7871C11.25 13.7911 11.25 13.795 11.25 13.799C11.25 13.8029 11.25 13.8069 11.25 13.8109C11.25 13.8149 11.25 13.8189 11.25 13.8229C11.25 13.8269 11.25 13.8309 11.25 13.8349C11.25 13.839 11.25 13.843 11.25 13.8471C11.25 13.8511 11.25 13.8552 11.25 13.8593C11.25 13.8633 11.25 13.8674 11.25 13.8715C11.25 13.8757 11.25 13.8798 11.25 13.8839C11.25 13.888 11.25 13.8922 11.25 13.8963C11.25 13.9005 11.25 13.9047 11.25 13.9088C11.25 13.913 11.25 13.9172 11.25 13.9214C11.25 13.9256 11.25 13.9298 11.25 13.9341C11.25 13.9383 11.25 13.9425 11.25 13.9468C11.25 13.9511 11.25 13.9553 11.25 13.9596C11.25 13.9639 11.25 13.9682 11.25 13.9725C11.25 13.9768 11.25 13.9811 11.25 13.9854C11.25 13.9898 11.25 13.9941 11.25 13.9985C11.25 14.0028 11.25 14.0072 11.25 14.0116C11.25 14.016 11.25 14.0204 11.25 14.0248C11.25 14.0292 11.25 14.0336 11.25 14.038C11.25 14.0425 11.25 14.0469 11.25 14.0514C11.25 14.0558 11.25 14.0603 11.25 14.0648C11.25 14.0693 11.25 14.0738 11.25 14.0783C11.25 14.0828 11.25 14.0873 11.25 14.0919C11.25 14.0964 11.25 14.101 11.25 14.1055C11.25 14.1101 11.25 14.1147 11.25 14.1192C11.25 14.1238 11.25 14.1284 11.25 14.1331C11.25 14.1377 11.25 14.1423 11.25 14.1469C11.25 14.1516 11.25 14.1562 11.25 14.1609C11.25 14.1656 11.25 14.1703 11.25 14.175C11.25 14.1796 11.25 14.1844 11.25 14.1891C11.25 14.1938 11.25 14.1985 11.25 14.2033C11.25 14.208 11.25 14.2128 11.25 14.2176C11.25 14.2223 11.25 14.2271 11.25 14.2319C11.25 14.2367 11.25 14.2415 11.25 14.2464C11.25 14.2512 11.25 14.256 11.25 14.2609C11.25 14.2658 11.25 14.2706 11.25 14.2755C11.25 14.2804 11.25 14.2853 11.25 14.2902C11.25 14.2951 11.25 14.3 11.25 14.305C11.25 14.3099 11.25 14.3148 11.25 14.3198C11.25 14.3248 11.25 14.3297 11.25 14.3347C11.25 14.3397 11.25 14.3447 11.25 14.3497C11.25 14.3548 11.25 14.3598 11.25 14.3648C11.25 14.3699 11.25 14.3749 11.25 14.38C11.25 14.3851 11.25 14.3902 11.25 14.3953C11.25 14.4004 11.25 14.4055 11.25 14.4106C11.25 14.4157 11.25 14.4209 11.25 14.426C11.25 14.4312 11.25 14.4364 11.25 14.4415C11.25 14.4467 11.25 14.4519 11.25 14.4571C11.25 14.4623 11.25 14.4676 11.25 14.4728C11.25 14.478 11.25 14.4833 11.25 14.4886C11.25 14.4938 11.25 14.4991 11.25 14.5044C11.25 14.5097 11.25 14.515 11.25 14.5203C11.25 14.5257 11.25 14.531 11.25 14.5363C11.25 14.5417 11.25 14.5471 11.25 14.5524C11.25 14.5578 11.25 14.5632 11.25 14.5686C11.25 14.574 11.25 14.5795 11.25 14.5849C11.25 14.5903 11.25 14.5958 11.25 14.6012C11.25 14.6067 11.25 14.6122 11.25 14.6177C11.25 14.6232 11.25 14.6287 11.25 14.6342C11.25 14.6397 11.25 14.6453 11.25 14.6508C11.25 14.6564 11.25 14.6619 11.25 14.6675C11.25 14.6731 11.25 14.6787 11.25 14.6843C11.25 14.6899 11.25 14.6955 11.25 14.7012C11.25 14.7068 11.25 14.7124 11.25 14.7181C11.25 14.7238 11.25 14.7295 11.25 14.7351C11.25 14.7408 11.25 14.7466 11.25 14.7523C11.25 14.758 11.25 14.7637 11.25 14.7695C11.25 14.7752 11.25 14.781 11.25 14.7868C11.25 14.7926 11.25 14.7984 11.25 14.8042C11.25 14.81 11.25 14.8158 11.25 14.8217C11.25 14.8275 11.25 14.8334 11.25 14.8392C11.25 14.8451 11.25 14.851 11.25 14.8569C11.25 14.8628 11.25 14.8687 11.25 14.8747C11.25 14.8806 11.25 14.8865 11.25 14.8925C11.25 14.8984 11.25 14.9044 11.25 14.9104C11.25 14.9164 11.25 14.9224 11.25 14.9284C11.25 14.9344 11.25 14.9405 11.25 14.9465C11.25 14.9526 11.25 14.9586 11.25 14.9647C11.25 14.9708 11.25 14.9769 11.25 14.983C11.25 14.9891 11.25 14.9953 11.25 15.0014C11.25 15.0075 11.25 15.0137 11.25 15.0199C11.25 15.026 11.25 15.0322 11.25 15.0384C11.25 15.0446 11.25 15.0508 11.25 15.0571C11.25 15.0633 11.25 15.0695 11.25 15.0758C11.25 15.0821 11.25 15.0883 11.25 15.0946C11.25 15.1009 11.25 15.1072 11.25 15.1136C11.25 15.1199 11.25 15.1262 11.25 15.1326C11.25 15.1389 11.25 15.1453 11.25 15.1517C11.25 15.1581 11.25 15.1645 11.25 15.1709C11.25 15.1773 11.25 15.1837 11.25 15.1902C11.25 15.1966 11.25 15.2031 11.25 15.2096C11.25 15.2161 11.25 15.2225 11.25 15.2291C11.25 15.2356 11.25 15.2421 11.25 15.2486C11.25 15.2552 11.25 15.2617 11.25 15.2683C11.25 15.2749 11.25 15.2815 11.25 15.2881C11.25 15.2947 11.25 15.3013 11.25 15.3079C11.25 15.3145 11.25 15.3212 11.25 15.3279C11.25 15.3345 11.25 15.3412 11.25 15.3479C11.25 15.3546 11.25 15.3613 11.25 15.368C11.25 15.3748 11.25 15.3815 11.25 15.3883C11.25 15.395 11.25 15.4018 11.25 15.4086C11.25 15.4154 11.25 15.4222 11.25 15.429C11.25 15.4359 11.25 15.4427 11.25 15.4496C11.25 15.4564 11.25 15.4633 11.25 15.4702C11.25 15.4771 11.25 15.484 11.25 15.4909C11.25 15.4978 11.25 15.5047 11.25 15.5117C11.25 15.5186 11.25 15.5256 11.25 15.5326C11.25 15.5396 11.25 15.5466 11.25 15.5536C11.25 15.5606 11.25 15.5676 11.25 15.5747C11.25 15.5817 11.25 15.5888 11.25 15.5959C11.25 15.603 11.25 15.6101 11.25 15.6172C11.25 15.6243 11.25 15.6314 11.25 15.6386C11.25 15.6457 11.25 15.6529 11.25 15.6601C11.25 15.6672 11.25 15.6744 11.25 15.6817C11.25 15.6889 11.25 15.6961 11.25 15.7033C11.25 15.7106 11.25 15.7178 11.25 15.7251C11.25 15.7324 11.25 15.7397 11.25 15.747C11.25 15.7543 11.25 15.7616 11.25 15.769C11.25 15.7763 11.25 15.7837 11.25 15.7911C11.25 15.7984 11.25 15.8058 11.25 15.8132C11.25 15.8207 11.25 15.8281 11.25 15.8355C11.25 15.843 11.25 15.8504 11.25 15.8579C11.25 15.8654 11.25 15.8729 11.25 15.8804C11.25 15.8879 11.25 15.8954 11.25 15.903C11.25 15.9105 11.25 15.9181 11.25 15.9257C11.25 15.9332 11.25 15.9408 11.25 15.9484C11.25 15.956 11.25 15.9637 11.25 15.9713C11.25 15.979 11.25 15.9866 11.25 15.9943C11.25 16.002 11.25 16.0097 11.25 16.0174C11.25 16.0251 11.25 16.0328 11.25 16.0406C11.25 16.0483 11.25 16.0561 11.25 16.0639C11.25 16.0716 11.25 16.0794 11.25 16.0873C11.25 16.0951 11.25 16.1029 11.25 16.1108C11.25 16.1186 11.25 16.1265 11.25 16.1343C11.25 16.1422 11.25 16.1501 11.25 16.158C11.25 16.166 11.25 16.1739 11.25 16.1819C11.25 16.1898 11.25 16.1978 11.25 16.2058C11.25 16.2137 11.25 16.2217 11.25 16.2298C11.25 16.2378 11.25 16.2458 11.25 16.2539C11.25 16.2619 11.25 16.27 11.25 16.2781C11.25 16.2862 11.25 16.2943 11.25 16.3024C11.25 16.3105 11.25 16.3187 11.25 16.3268C11.25 16.335 11.25 16.3432 11.25 16.3514C11.25 16.3596 11.25 16.3678 11.25 16.376C11.25 16.3842 11.25 16.3925 11.25 16.4007C11.25 16.409 11.25 16.4173 11.25 16.4256C11.25 16.4339 11.25 16.4422 11.25 16.4505C11.25 16.4589 11.25 16.4672 11.25 16.4756C11.25 16.484 11.25 16.4924 11.25 16.5008C11.25 16.5092 11.25 16.5176 11.25 16.526C11.25 16.5345 11.25 16.5429 11.25 16.5514C11.25 16.5599 11.25 16.5684 11.25 16.5769C11.25 16.5854 11.25 16.5939 11.25 16.6025C11.25 16.611 11.25 16.6196 11.25 16.6282C11.25 16.6368 11.25 16.6454 11.25 16.654C11.25 16.6626 11.25 16.6712 11.25 16.6799C11.25 16.6885 11.25 16.6972 11.25 16.7059C11.25 16.7146 11.25 16.7233 11.25 16.732C11.25 16.7408 11.25 16.7495 11.25 16.7583C11.25 16.767 11.25 16.7758 11.25 16.7846C11.25 16.7934 11.25 16.8022 11.25 16.8111C11.25 16.8199 11.25 16.8287 11.25 16.8376C11.25 16.8465 11.25 16.8554 11.25 16.8643C11.25 16.8732 11.25 16.8821 11.25 16.8911C11.25 16.9 11.25 16.909 11.25 16.918C11.25 16.9269 11.25 16.9359 11.25 16.945C11.25 16.954 11.25 16.963 11.25 16.9721C11.25 16.9811 11.25 16.9902 11.25 16.9993C11.25 17.0084 11.25 17.0175 11.25 17.0266C11.25 17.0357 11.25 17.0449 11.25 17.054C11.25 17.0632 11.25 17.0724 11.25 17.0816C11.25 17.0908 11.25 17.1 11.25 17.1093C11.25 17.1185 11.25 17.1278 11.25 17.137C11.25 17.1463 11.25 17.1556 11.25 17.1649C11.25 17.1742 11.25 17.1836 11.25 17.1929C11.25 17.2023 11.25 17.2116 11.25 17.221C11.25 17.2304 11.25 17.2398 11.25 17.2492C11.25 17.2587 11.25 17.2681 11.25 17.2776C11.25 17.287 11.25 17.2965 11.25 17.306C11.25 17.3155 11.25 17.325 11.25 17.3346C11.25 17.3441 11.25 17.3537 11.25 17.3632C11.25 17.3728 11.25 17.3824 11.25 17.392C11.25 17.4016 11.25 17.4113 11.25 17.4209C11.25 17.4306 11.25 17.4402 11.25 17.4499C11.25 17.4596 11.25 17.4693 11.25 17.4791C11.25 17.4888 11.25 17.4985 11.25 17.5083H12.75C12.75 17.4985 12.75 17.4888 12.75 17.4791C12.75 17.4693 12.75 17.4596 12.75 17.4499C12.75 17.4402 12.75 17.4306 12.75 17.4209C12.75 17.4113 12.75 17.4016 12.75 17.392C12.75 17.3824 12.75 17.3728 12.75 17.3632C12.75 17.3537 12.75 17.3441 12.75 17.3346C12.75 17.325 12.75 17.3155 12.75 17.306C12.75 17.2965 12.75 17.287 12.75 17.2776C12.75 17.2681 12.75 17.2587 12.75 17.2492C12.75 17.2398 12.75 17.2304 12.75 17.221C12.75 17.2116 12.75 17.2023 12.75 17.1929C12.75 17.1836 12.75 17.1742 12.75 17.1649C12.75 17.1556 12.75 17.1463 12.75 17.137C12.75 17.1278 12.75 17.1185 12.75 17.1093C12.75 17.1 12.75 17.0908 12.75 17.0816C12.75 17.0724 12.75 17.0632 12.75 17.054C12.75 17.0449 12.75 17.0357 12.75 17.0266C12.75 17.0175 12.75 17.0084 12.75 16.9993C12.75 16.9902 12.75 16.9811 12.75 16.9721C12.75 16.963 12.75 16.954 12.75 16.945C12.75 16.9359 12.75 16.9269 12.75 16.918C12.75 16.909 12.75 16.9 12.75 16.8911C12.75 16.8821 12.75 16.8732 12.75 16.8643C12.75 16.8554 12.75 16.8465 12.75 16.8376C12.75 16.8287 12.75 16.8199 12.75 16.8111C12.75 16.8022 12.75 16.7934 12.75 16.7846C12.75 16.7758 12.75 16.767 12.75 16.7583C12.75 16.7495 12.75 16.7408 12.75 16.732C12.75 16.7233 12.75 16.7146 12.75 16.7059C12.75 16.6972 12.75 16.6885 12.75 16.6799C12.75 16.6712 12.75 16.6626 12.75 16.654C12.75 16.6454 12.75 16.6368 12.75 16.6282C12.75 16.6196 12.75 16.611 12.75 16.6025C12.75 16.5939 12.75 16.5854 12.75 16.5769C12.75 16.5684 12.75 16.5599 12.75 16.5514C12.75 16.5429 12.75 16.5345 12.75 16.526C12.75 16.5176 12.75 16.5092 12.75 16.5008C12.75 16.4924 12.75 16.484 12.75 16.4756C12.75 16.4672 12.75 16.4589 12.75 16.4505C12.75 16.4422 12.75 16.4339 12.75 16.4256C12.75 16.4173 12.75 16.409 12.75 16.4007C12.75 16.3925 12.75 16.3842 12.75 16.376C12.75 16.3678 12.75 16.3596 12.75 16.3514C12.75 16.3432 12.75 16.335 12.75 16.3268C12.75 16.3187 12.75 16.3105 12.75 16.3024C12.75 16.2943 12.75 16.2862 12.75 16.2781C12.75 16.27 12.75 16.2619 12.75 16.2539C12.75 16.2458 12.75 16.2378 12.75 16.2298C12.75 16.2217 12.75 16.2137 12.75 16.2058C12.75 16.1978 12.75 16.1898 12.75 16.1819C12.75 16.1739 12.75 16.166 12.75 16.158C12.75 16.1501 12.75 16.1422 12.75 16.1343C12.75 16.1265 12.75 16.1186 12.75 16.1108C12.75 16.1029 12.75 16.0951 12.75 16.0873C12.75 16.0794 12.75 16.0716 12.75 16.0639C12.75 16.0561 12.75 16.0483 12.75 16.0406C12.75 16.0328 12.75 16.0251 12.75 16.0174C12.75 16.0097 12.75 16.002 12.75 15.9943C12.75 15.9866 12.75 15.979 12.75 15.9713C12.75 15.9637 12.75 15.956 12.75 15.9484C12.75 15.9408 12.75 15.9332 12.75 15.9257C12.75 15.9181 12.75 15.9105 12.75 15.903C12.75 15.8954 12.75 15.8879 12.75 15.8804C12.75 15.8729 12.75 15.8654 12.75 15.8579C12.75 15.8504 12.75 15.843 12.75 15.8355C12.75 15.8281 12.75 15.8207 12.75 15.8132C12.75 15.8058 12.75 15.7984 12.75 15.7911C12.75 15.7837 12.75 15.7763 12.75 15.769C12.75 15.7616 12.75 15.7543 12.75 15.747C12.75 15.7397 12.75 15.7324 12.75 15.7251C12.75 15.7178 12.75 15.7106 12.75 15.7033C12.75 15.6961 12.75 15.6889 12.75 15.6817C12.75 15.6744 12.75 15.6672 12.75 15.6601C12.75 15.6529 12.75 15.6457 12.75 15.6386C12.75 15.6314 12.75 15.6243 12.75 15.6172C12.75 15.6101 12.75 15.603 12.75 15.5959C12.75 15.5888 12.75 15.5817 12.75 15.5747C12.75 15.5676 12.75 15.5606 12.75 15.5536C12.75 15.5466 12.75 15.5396 12.75 15.5326C12.75 15.5256 12.75 15.5186 12.75 15.5117C12.75 15.5047 12.75 15.4978 12.75 15.4909C12.75 15.484 12.75 15.4771 12.75 15.4702C12.75 15.4633 12.75 15.4564 12.75 15.4496C12.75 15.4427 12.75 15.4359 12.75 15.429C12.75 15.4222 12.75 15.4154 12.75 15.4086C12.75 15.4018 12.75 15.395 12.75 15.3883C12.75 15.3815 12.75 15.3748 12.75 15.368C12.75 15.3613 12.75 15.3546 12.75 15.3479C12.75 15.3412 12.75 15.3345 12.75 15.3279C12.75 15.3212 12.75 15.3145 12.75 15.3079C12.75 15.3013 12.75 15.2947 12.75 15.2881C12.75 15.2815 12.75 15.2749 12.75 15.2683C12.75 15.2617 12.75 15.2552 12.75 15.2486C12.75 15.2421 12.75 15.2356 12.75 15.2291C12.75 15.2225 12.75 15.2161 12.75 15.2096C12.75 15.2031 12.75 15.1966 12.75 15.1902C12.75 15.1837 12.75 15.1773 12.75 15.1709C12.75 15.1645 12.75 15.1581 12.75 15.1517C12.75 15.1453 12.75 15.1389 12.75 15.1326C12.75 15.1262 12.75 15.1199 12.75 15.1136C12.75 15.1072 12.75 15.1009 12.75 15.0946C12.75 15.0883 12.75 15.0821 12.75 15.0758C12.75 15.0695 12.75 15.0633 12.75 15.0571C12.75 15.0508 12.75 15.0446 12.75 15.0384C12.75 15.0322 12.75 15.026 12.75 15.0199C12.75 15.0137 12.75 15.0075 12.75 15.0014C12.75 14.9953 12.75 14.9891 12.75 14.983C12.75 14.9769 12.75 14.9708 12.75 14.9647C12.75 14.9586 12.75 14.9526 12.75 14.9465C12.75 14.9405 12.75 14.9344 12.75 14.9284C12.75 14.9224 12.75 14.9164 12.75 14.9104C12.75 14.9044 12.75 14.8984 12.75 14.8925C12.75 14.8865 12.75 14.8806 12.75 14.8747C12.75 14.8687 12.75 14.8628 12.75 14.8569C12.75 14.851 12.75 14.8451 12.75 14.8392C12.75 14.8334 12.75 14.8275 12.75 14.8217C12.75 14.8158 12.75 14.81 12.75 14.8042C12.75 14.7984 12.75 14.7926 12.75 14.7868C12.75 14.781 12.75 14.7752 12.75 14.7695C12.75 14.7637 12.75 14.758 12.75 14.7523C12.75 14.7466 12.75 14.7408 12.75 14.7351C12.75 14.7295 12.75 14.7238 12.75 14.7181C12.75 14.7124 12.75 14.7068 12.75 14.7012C12.75 14.6955 12.75 14.6899 12.75 14.6843C12.75 14.6787 12.75 14.6731 12.75 14.6675C12.75 14.6619 12.75 14.6564 12.75 14.6508C12.75 14.6453 12.75 14.6397 12.75 14.6342C12.75 14.6287 12.75 14.6232 12.75 14.6177C12.75 14.6122 12.75 14.6067 12.75 14.6012C12.75 14.5958 12.75 14.5903 12.75 14.5849C12.75 14.5795 12.75 14.574 12.75 14.5686C12.75 14.5632 12.75 14.5578 12.75 14.5524C12.75 14.5471 12.75 14.5417 12.75 14.5363C12.75 14.531 12.75 14.5257 12.75 14.5203C12.75 14.515 12.75 14.5097 12.75 14.5044C12.75 14.4991 12.75 14.4938 12.75 14.4886C12.75 14.4833 12.75 14.478 12.75 14.4728C12.75 14.4676 12.75 14.4623 12.75 14.4571C12.75 14.4519 12.75 14.4467 12.75 14.4415C12.75 14.4364 12.75 14.4312 12.75 14.426C12.75 14.4209 12.75 14.4157 12.75 14.4106C12.75 14.4055 12.75 14.4004 12.75 14.3953C12.75 14.3902 12.75 14.3851 12.75 14.38C12.75 14.3749 12.75 14.3699 12.75 14.3648C12.75 14.3598 12.75 14.3548 12.75 14.3497C12.75 14.3447 12.75 14.3397 12.75 14.3347C12.75 14.3297 12.75 14.3248 12.75 14.3198C12.75 14.3148 12.75 14.3099 12.75 14.305C12.75 14.3 12.75 14.2951 12.75 14.2902C12.75 14.2853 12.75 14.2804 12.75 14.2755C12.75 14.2706 12.75 14.2658 12.75 14.2609C12.75 14.256 12.75 14.2512 12.75 14.2464C12.75 14.2415 12.75 14.2367 12.75 14.2319C12.75 14.2271 12.75 14.2223 12.75 14.2176C12.75 14.2128 12.75 14.208 12.75 14.2033C12.75 14.1985 12.75 14.1938 12.75 14.1891C12.75 14.1844 12.75 14.1796 12.75 14.175C12.75 14.1703 12.75 14.1656 12.75 14.1609C12.75 14.1562 12.75 14.1516 12.75 14.1469C12.75 14.1423 12.75 14.1377 12.75 14.1331C12.75 14.1284 12.75 14.1238 12.75 14.1192C12.75 14.1147 12.75 14.1101 12.75 14.1055C12.75 14.101 12.75 14.0964 12.75 14.0919C12.75 14.0873 12.75 14.0828 12.75 14.0783C12.75 14.0738 12.75 14.0693 12.75 14.0648C12.75 14.0603 12.75 14.0558 12.75 14.0514C12.75 14.0469 12.75 14.0425 12.75 14.038C12.75 14.0336 12.75 14.0292 12.75 14.0248C12.75 14.0204 12.75 14.016 12.75 14.0116C12.75 14.0072 12.75 14.0028 12.75 13.9985C12.75 13.9941 12.75 13.9898 12.75 13.9854C12.75 13.9811 12.75 13.9768 12.75 13.9725C12.75 13.9682 12.75 13.9639 12.75 13.9596C12.75 13.9553 12.75 13.9511 12.75 13.9468C12.75 13.9425 12.75 13.9383 12.75 13.9341C12.75 13.9298 12.75 13.9256 12.75 13.9214C12.75 13.9172 12.75 13.913 12.75 13.9088C12.75 13.9047 12.75 13.9005 12.75 13.8963C12.75 13.8922 12.75 13.888 12.75 13.8839C12.75 13.8798 12.75 13.8757 12.75 13.8715C12.75 13.8674 12.75 13.8633 12.75 13.8593C12.75 13.8552 12.75 13.8511 12.75 13.8471C12.75 13.843 12.75 13.839 12.75 13.8349C12.75 13.8309 12.75 13.8269 12.75 13.8229C12.75 13.8189 12.75 13.8149 12.75 13.8109C12.75 13.8069 12.75 13.8029 12.75 13.799C12.75 13.795 12.75 13.7911 12.75 13.7871C12.75 13.7832 12.75 13.7793 12.75 13.7754C12.75 13.7714 12.75 13.7675 12.75 13.7637C12.75 13.7598 12.75 13.7559 12.75 13.752C12.75 13.7482 12.75 13.7443 12.75 13.7405C12.75 13.7366 12.75 13.7328 12.75 13.729C12.75 13.7252 12.75 13.7214 12.75 13.7176C12.75 13.7138 12.75 13.71 12.75 13.7063C12.75 13.7025 12.75 13.6987 12.75 13.695C12.75 13.6912 12.75 13.6875 12.75 13.6838C12.75 13.6801 12.75 13.6764 12.75 13.6727C12.75 13.669 12.75 13.6653 12.75 13.6616C12.75 13.6579 12.75 13.6543 12.75 13.6506C12.75 13.647 12.75 13.6433 12.75 13.6397C12.75 13.6361 12.75 13.6325 12.75 13.6289C12.75 13.6253 12.75 13.6217 12.75 13.6181C12.75 13.6145 12.75 13.611 12.75 13.6074C12.75 13.6038 12.75 13.6003 12.75 13.5968C12.75 13.5932 12.75 13.5897 12.75 13.5862C12.75 13.5827 12.75 13.5792 12.75 13.5757C12.75 13.5722 12.75 13.5687 12.75 13.5653C12.75 13.5618 12.75 13.5583 12.75 13.5549C12.75 13.5515 12.75 13.548 12.75 13.5446C12.75 13.5412 12.75 13.5378 12.75 13.5344C12.75 13.531 12.75 13.5276 12.75 13.5242C12.75 13.5208 12.75 13.5175 12.75 13.5141C12.75 13.5108 12.75 13.5074 12.75 13.5041C12.75 13.5008 12.75 13.4975 12.75 13.4941C12.75 13.4908 12.75 13.4875 12.75 13.4843C12.75 13.481 12.75 13.4777 12.75 13.4744C12.75 13.4712 12.75 13.4679 12.75 13.4647C12.75 13.4614 12.75 13.4582 12.75 13.455C12.75 13.4518 12.75 13.4485 12.75 13.4454C12.75 13.4422 12.75 13.439 12.75 13.4358C12.75 13.4326 12.75 13.4294 12.75 13.4263C12.75 13.4231 12.75 13.42 12.75 13.4169C12.75 13.4137 12.75 13.4106 12.75 13.4075C12.75 13.4044 12.75 13.4013 12.75 13.3982C12.75 13.3951 12.75 13.392 12.75 13.389C12.75 13.3859 12.75 13.3828 12.75 13.3798C12.75 13.3767 12.75 13.3737 12.75 13.3707C12.75 13.3676 12.75 13.3646 12.75 13.3616C12.75 13.3586 12.75 13.3556 12.75 13.3526C12.75 13.3497 12.75 13.3467 12.75 13.3437C12.75 13.3408 12.75 13.3378 12.75 13.3349C12.75 13.3319 12.75 13.329 12.75 13.3261C12.75 13.3232 12.75 13.3202 12.75 13.3173C12.75 13.3144 12.75 13.3116 12.75 13.3087C12.75 13.3058 12.75 13.3029 12.75 13.3001C12.75 13.2972 12.75 13.2944 12.75 13.2915C12.75 13.2887 12.75 13.2859 12.75 13.283C12.75 13.2802 12.75 13.2774 12.75 13.2746C12.75 13.2718 12.75 13.269 12.75 13.2663C12.75 13.2635 12.75 13.2607 12.75 13.258C12.75 13.2552 12.75 13.2525 12.75 13.2497C12.75 13.247 12.75 13.2443 12.75 13.2415C12.75 13.2388 12.75 13.2361 12.75 13.2334C12.75 13.2307 12.75 13.2281 12.75 13.2254C12.75 13.2227 12.75 13.22 12.75 13.2174C12.75 13.2147 12.75 13.2121 12.75 13.2094C12.75 13.2068 12.75 13.2042 12.75 13.2016C12.75 13.1989 12.75 13.1963 12.75 13.1937C12.75 13.1911 12.75 13.1886 12.75 13.186C12.75 13.1834 12.75 13.1808 12.75 13.1783C12.75 13.1757 12.75 13.1732 12.75 13.1706C12.75 13.1681 12.75 13.1656 12.75 13.1631C12.75 13.1605 12.75 13.158 12.75 13.1555C12.75 13.153 12.75 13.1505 12.75 13.1481C12.75 13.1456 12.75 13.1431 12.75 13.1407C12.75 13.1382 12.75 13.1357 12.75 13.1333C12.75 13.1309 12.75 13.1284 12.75 13.126C12.75 13.1236 12.75 13.1212 12.75 13.1188C12.75 13.1164 12.75 13.114 12.75 13.1116C12.75 13.1092 12.75 13.1068 12.75 13.1045C12.75 13.1021 12.75 13.0997 12.75 13.0974C12.75 13.095 12.75 13.0927 12.75 13.0904C12.75 13.088 12.75 13.0857 12.75 13.0834C12.75 13.0811 12.75 13.0788 12.75 13.0765C12.75 13.0742 12.75 13.0719 12.75 13.0697C12.75 13.0674 12.75 13.0651 12.75 13.0629C12.75 13.0606 12.75 13.0584 12.75 13.0561C12.75 13.0539 12.75 13.0517 12.75 13.0495C12.75 13.0472 12.75 13.045 12.75 13.0428C12.75 13.0406 12.75 13.0384 12.75 13.0363C12.75 13.0341 12.75 13.0319 12.75 13.0297C12.75 13.0276 12.75 13.0254 12.75 13.0233C12.75 13.0211 12.75 13.019 12.75 13.0169C12.75 13.0147 12.75 13.0126 12.75 13.0105C12.75 13.0084 12.75 13.0063 12.75 13.0042C12.75 13.0021 12.75 13 12.75 12.998C12.75 12.9959 12.75 12.9938 12.75 12.9918C12.75 12.9897 12.75 12.9877 12.75 12.9856C12.75 12.9836 12.75 12.9815 12.75 12.9795C12.75 12.9775 12.75 12.9755 12.75 12.9735C12.75 12.9715 12.75 12.9695 12.75 12.9675C12.75 12.9655 12.75 12.9635 12.75 12.9616C12.75 12.9596 12.75 12.9576 12.75 12.9557C12.75 12.9537 12.75 12.9518 12.75 12.9498C12.75 12.9479 12.75 12.946 12.75 12.9441C12.75 12.9421 12.75 12.9402 12.75 12.9383C12.75 12.9364 12.75 12.9345 12.75 12.9326C12.75 12.9307 12.75 12.9289 12.75 12.927C12.75 12.9251 12.75 12.9233 12.75 12.9214C12.75 12.9196 12.75 12.9177 12.75 12.9159C12.75 12.9141 12.75 12.9122 12.75 12.9104C12.75 12.9086 12.75 12.9068 12.75 12.905C12.75 12.9032 12.75 12.9014 12.75 12.8996C12.75 12.8978 12.75 12.896 12.75 12.8942C12.75 12.8925 12.75 12.8907 12.75 12.889C12.75 12.8872 12.75 12.8855 12.75 12.8837C12.75 12.882 12.75 12.8803 12.75 12.8785C12.75 12.8768 12.75 12.8751 12.75 12.8734C12.75 12.8717 12.75 12.87 12.75 12.8683C12.75 12.8666 12.75 12.8649 12.75 12.8633C12.75 12.8616 12.75 12.8599 12.75 12.8583C12.75 12.8566 12.75 12.8549 12.75 12.8533C12.75 12.8517 12.75 12.85 12.75 12.8484C12.75 12.8468 12.75 12.8451 12.75 12.8435C12.75 12.8419 12.75 12.8403 12.75 12.8387C12.75 12.8371 12.75 12.8355 12.75 12.834C12.75 12.8324 12.75 12.8308 12.75 12.8292C12.75 12.8277 12.75 12.8261 12.75 12.8246C12.75 12.823 12.75 12.8215 12.75 12.8199C12.75 12.8184 12.75 12.8169 12.75 12.8154C12.75 12.8138 12.75 12.8123 12.75 12.8108C12.75 12.8093 12.75 12.8078 12.75 12.8063C12.75 12.8048 12.75 12.8034 12.75 12.8019C12.75 12.8004 12.75 12.7989 12.75 12.7975C12.75 12.796 12.75 12.7946 12.75 12.7931C12.75 12.7917 12.75 12.7902 12.75 12.7888C12.75 12.7874 12.75 12.7859 12.75 12.7845C12.75 12.7831 12.75 12.7817 12.75 12.7803C12.75 12.7789 12.75 12.7775 12.75 12.7761C12.75 12.7747 12.75 12.7733 12.75 12.772C12.75 12.7706 12.75 12.7692 12.75 12.7679C12.75 12.7665 12.75 12.7652 12.75 12.7638C12.75 12.7625 12.75 12.7611 12.75 12.7598C12.75 12.7585 12.75 12.7572 12.75 12.7558C12.75 12.7545 12.75 12.7532 12.75 12.7519C12.75 12.7506 12.75 12.7493 12.75 12.748C12.75 12.7467 12.75 12.7454 12.75 12.7442C12.75 12.7429 12.75 12.7416 12.75 12.7404C12.75 12.7391 12.75 12.7379 12.75 12.7366C12.75 12.7354 12.75 12.7341 12.75 12.7329C12.75 12.7316 12.75 12.7304 12.75 12.7292C12.75 12.728 12.75 12.7268 12.75 12.7256C12.75 12.7244 12.75 12.7232 12.75 12.722C12.75 12.7208 12.75 12.7196 12.75 12.7184C12.75 12.7172 12.75 12.716 12.75 12.7149C12.75 12.7137 12.75 12.7125 12.75 12.7114C12.75 12.7102 12.75 12.7091 12.75 12.708C12.75 12.7068 12.75 12.7057 12.75 12.7045C12.75 12.7034 12.75 12.7023 12.75 12.7012C12.75 12.7001 12.75 12.699 12.75 12.6979C12.75 12.6968 12.75 12.6957 12.75 12.6946C12.75 12.6935 12.75 12.6924 12.75 12.6913C12.75 12.6902 12.75 12.6892 12.75 12.6881C12.75 12.687 12.75 12.686 12.75 12.6849C12.75 12.6839 12.75 12.6828 12.75 12.6818C12.75 12.6808 12.75 12.6797 12.75 12.6787C12.75 12.6777 12.75 12.6767 12.75 12.6756C12.75 12.6746 12.75 12.6736 12.75 12.6726C12.75 12.6716 12.75 12.6706 12.75 12.6696C12.75 12.6686 12.75 12.6677 12.75 12.6667C12.75 12.6657 12.75 12.6647 12.75 12.6638C12.75 12.6628 12.75 12.6618 12.75 12.6609C12.75 12.6599 12.75 12.659 12.75 12.658C12.75 12.6571 12.75 12.6562 12.75 12.6552C12.75 12.6543 12.75 12.6534 12.75 12.6525C12.75 12.6515 12.75 12.6506 12.75 12.6497C12.75 12.6488 12.75 12.6479 12.75 12.647C12.75 12.6461 12.75 12.6452 12.75 12.6444C12.75 12.6435 12.75 12.6426 12.75 12.6417C12.75 12.6409 12.75 12.64 12.75 12.6391C12.75 12.6383 12.75 12.6374 12.75 12.6366C12.75 12.6357 12.75 12.6349 12.75 12.634C12.75 12.6332 12.75 12.6324 12.75 12.6315C12.75 12.6307 12.75 12.6299 12.75 12.6291C12.75 12.6283 12.75 12.6274 12.75 12.6266C12.75 12.6258 12.75 12.625 12.75 12.6242C12.75 12.6234 12.75 12.6227 12.75 12.6219C12.75 12.6211 12.75 12.6203 12.75 12.6195C12.75 12.6188 12.75 12.618 12.75 12.6172C12.75 12.6165 12.75 12.6157 12.75 12.615C12.75 12.6142 12.75 12.6135 12.75 12.6127C12.75 12.612 12.75 12.6113 12.75 12.6105C12.75 12.6098 12.75 12.6091 12.75 12.6083C12.75 12.6076 12.75 12.6069 12.75 12.6062C12.75 12.6055 12.75 12.6048 12.75 12.6041C12.75 12.6034 12.75 12.6027 12.75 12.602C12.75 12.6013 12.75 12.6006 12.75 12.6C12.75 12.5993 12.75 12.5986 12.75 12.5979C12.75 12.5973 12.75 12.5966 12.75 12.5959C12.75 12.5953 12.75 12.5946 12.75 12.594C12.75 12.5933 12.75 12.5927 12.75 12.592C12.75 12.5914 12.75 12.5908 12.75 12.5901C12.75 12.5895 12.75 12.5889 12.75 12.5883C12.75 12.5877 12.75 12.587 12.75 12.5864C12.75 12.5858 12.75 12.5852 12.75 12.5846C12.75 12.584 12.75 12.5834 12.75 12.5828C12.75 12.5822 12.75 12.5816 12.75 12.5811C12.75 12.5805 12.75 12.5799 12.75 12.5793C12.75 12.5788 12.75 12.5782 12.75 12.5776C12.75 12.5771 12.75 12.5765 12.75 12.5759C12.75 12.5754 12.75 12.5748 12.75 12.5743C12.75 12.5738 12.75 12.5732 12.75 12.5727C12.75 12.5721 12.75 12.5716 12.75 12.5711C12.75 12.5706 12.75 12.57 12.75 12.5695C12.75 12.569 12.75 12.5685 12.75 12.568C12.75 12.5675 12.75 12.5669 12.75 12.5664C12.75 12.5659 12.75 12.5655 12.75 12.565C12.75 12.5645 12.75 12.564 12.75 12.5635C12.75 12.563 12.75 12.5625 12.75 12.5621C12.75 12.5616 12.75 12.5611 12.75 12.5606C12.75 12.5602 12.75 12.5597 12.75 12.5592C12.75 12.5588 12.75 12.5583 12.75 12.5579C12.75 12.5574 12.75 12.557 12.75 12.5565C12.75 12.5561 12.75 12.5557 12.75 12.5552C12.75 12.5548 12.75 12.5544 12.75 12.5539C12.75 12.5535 12.75 12.5531 12.75 12.5527C12.75 12.5523 12.75 12.5518 12.75 12.5514C12.75 12.551 12.75 12.5506 12.75 12.5502C12.75 12.5498 12.75 12.5494 12.75 12.549C12.75 12.5486 12.75 12.5482 12.75 12.5478C12.75 12.5474 12.75 12.5471 12.75 12.5467C12.75 12.5463 12.75 12.5459 12.75 12.5456C12.75 12.5452 12.75 12.5448 12.75 12.5444C12.75 12.5441 12.75 12.5437 12.75 12.5434C12.75 12.543 12.75 12.5427 12.75 12.5423C12.75 12.542 12.75 12.5416 12.75 12.5413C12.75 12.5409 12.75 12.5406 12.75 12.5402C12.75 12.5399 12.75 12.5396 12.75 12.5392C12.75 12.5389 12.75 12.5386 12.75 12.5383C12.75 12.5379 12.75 12.5376 12.75 12.5373C12.75 12.537 12.75 12.5367 12.75 12.5364C12.75 12.5361 12.75 12.5358 12.75 12.5355C12.75 12.5352 12.75 12.5349 12.75 12.5346C12.75 12.5343 12.75 12.534 12.75 12.5337C12.75 12.5334 12.75 12.5331 12.75 12.5328C12.75 12.5325 12.75 12.5323 12.75 12.532C12.75 12.5317 12.75 12.5314 12.75 12.5312C12.75 12.5309 12.75 12.5306 12.75 12.5304C12.75 12.5301 12.75 12.5299 12.75 12.5296C12.75 12.5293 12.75 12.5291 12.75 12.5288C12.75 12.5286 12.75 12.5283 12.75 12.5281C12.75 12.5279 12.75 12.5276 12.75 12.5274C12.75 12.5271 12.75 12.5269 12.75 12.5267C12.75 12.5264 12.75 12.5262 12.75 12.526C12.75 12.5258 12.75 12.5255 12.75 12.5253C12.75 12.5251 12.75 12.5249 12.75 12.5247C12.75 12.5244 12.75 12.5242 12.75 12.524C12.75 12.5238 12.75 12.5236 12.75 12.5234C12.75 12.5232 12.75 12.523 12.75 12.5228C12.75 12.5226 12.75 12.5224 12.75 12.5222C12.75 12.522 12.75 12.5218 12.75 12.5216C12.75 12.5214 12.75 12.5213 12.75 12.5211C12.75 12.5209 12.75 12.5207 12.75 12.5205C12.75 12.5204 12.75 12.5202 12.75 12.52C12.75 12.5198 12.75 12.5197 12.75 12.5195C12.75 12.5193 12.75 12.5192 12.75 12.519C12.75 12.5188 12.75 12.5187 12.75 12.5185C12.75 12.5184 12.75 12.5182 12.75 12.5181C12.75 12.5179 12.75 12.5178 12.75 12.5176C12.75 12.5175 12.75 12.5173 12.75 12.5172C12.75 12.517 12.75 12.5169 12.75 12.5168C12.75 12.5166 12.75 12.5165 12.75 12.5163C12.75 12.5162 12.75 12.5161 12.75 12.516C12.75 12.5158 12.75 12.5157 12.75 12.5156C12.75 12.5154 12.75 12.5153 12.75 12.5152C12.75 12.5151 12.75 12.515 12.75 12.5148C12.75 12.5147 12.75 12.5146 12.75 12.5145C12.75 12.5144 12.75 12.5143 12.75 12.5142C12.75 12.5141 12.75 12.514 12.75 12.5138C12.75 12.5137 12.75 12.5136 12.75 12.5135C12.75 12.5134 12.75 12.5133 12.75 12.5132C12.75 12.5131 12.75 12.5131 12.75 12.513C12.75 12.5129 12.75 12.5128 12.75 12.5127C12.75 12.5126 12.75 12.5125 12.75 12.5124C12.75 12.5123 12.75 12.5123 12.75 12.5122C12.75 12.5121 12.75 12.512 12.75 12.5119C12.75 12.5118 12.75 12.5118 12.75 12.5117C12.75 12.5116 12.75 12.5115 12.75 12.5115C12.75 12.5114 12.75 12.5113 12.75 12.5113C12.75 12.5112 12.75 12.5111 12.75 12.5111C12.75 12.511 12.75 12.5109 12.75 12.5109C12.75 12.5108 12.75 12.5107 12.75 12.5107C12.75 12.5106 12.75 12.5106 12.75 12.5105C12.75 12.5105 12.75 12.5104 12.75 12.5103C12.75 12.5103 12.75 12.5102 12.75 12.5102C12.75 12.5101 12.75 12.5101 12.75 12.51C12.75 12.51 12.75 12.5099 12.75 12.5099C12.75 12.5099 12.75 12.5098 12.75 12.5098C12.75 12.5097 12.75 12.5097 12.75 12.5096C12.75 12.5096 12.75 12.5096 12.75 12.5095C12.75 12.5095 12.75 12.5094 12.75 12.5094C12.75 12.5094 12.75 12.5093 12.75 12.5093C12.75 12.5093 12.75 12.5092 12.75 12.5092C12.75 12.5092 12.75 12.5091 12.75 12.5091C12.75 12.5091 12.75 12.5091 12.75 12.509C12.75 12.509 12.75 12.509 12.75 12.509C12.75 12.5089 12.75 12.5089 12.75 12.5089C12.75 12.5089 12.75 12.5088 12.75 12.5088C12.75 12.5088 12.75 12.5088 12.75 12.5088C12.75 12.5087 12.75 12.5087 12.75 12.5087C12.75 12.5087 12.75 12.5087 12.75 12.5086C12.75 12.5086 12.75 12.5086 12.75 12.5086C12.75 12.5086 12.75 12.5086 12.75 12.5086C12.75 12.5085 12.75 12.5085 12.75 12.5085C12.75 12.5085 12.75 12.5085 12.75 12.5085C12.75 12.5085 12.75 12.5085 12.75 12.5085C12.75 12.5084 12.75 12.5084 12.75 12.5084C12.75 12.5084 12.75 12.5084 12.75 12.5084C12.75 12.5084 12.75 12.5084 12.75 12.5084C12.75 12.5084 12.75 12.5084 12.75 12.5084C12.75 12.5084 12.75 12.5084 12.75 12.5084C12.75 12.5083 12.75 12.5083 12.75 12.5083C12.75 12.5083 12.75 12.5083 12.75 12.5083C12.75 12.5083 12.75 12.5083 12.75 12.5083C12.75 12.5083 12.75 12.5083 12.75 12.5083C12.75 12.5083 12.75 12.5083 12.75 12.5083C12.75 12.5083 12.75 12.5083 12.75 12.5083C12.75 12.5083 12.75 12.5083 12.75 12.5083C12.75 12.5083 12.75 12.5083 12.75 12.5083C12.75 12.5083 12.75 12.5083 12.75 12.5083C12.75 12.5083 12.75 12.5083 12.75 12.5083H12ZM12.75 12.5083V7.5083H11.25V12.5083H12.75Z" fill="white"/>
</g>
<defs>
<clipPath id="clip0_89_990">
<rect y="0.508301" width="24" height="23.9785" rx="11.9893" fill="white"/>
</clipPath>
</defs>
</svg>
