<svg width="24" height="25" viewBox="0 0 24 25" fill="none" xmlns="http://www.w3.org/2000/svg">
<rect y="0.65625" width="24" height="23.978" rx="11.989" fill="#2E2E2E"/>
<path d="M7 11.8961C6.58579 11.8961 6.25 12.2319 6.25 12.6461C6.25 13.0603 6.58579 13.3961 7 13.3961V11.8961ZM12 13.3961C12.4142 13.3961 12.75 13.0603 12.75 12.6461C12.75 12.2319 12.4142 11.8961 12 11.8961V13.3961ZM12 11.8961C11.5858 11.8961 11.25 12.2319 11.25 12.6461C11.25 13.0603 11.5858 13.3961 12 13.3961V11.8961ZM17 13.3961C17.4142 13.3961 17.75 13.0603 17.75 12.6461C17.75 12.2319 17.4142 11.8961 17 11.8961V13.3961ZM7 13.3961H12V11.8961H7V13.3961ZM12 13.3961H17V11.8961H12V13.3961Z" fill="white"/>
</svg>
