<svg width="51" height="20" viewBox="0 0 51 20" fill="none" xmlns="http://www.w3.org/2000/svg">
<g opacity="0.65">
<path d="M43.2946 4.73915C44.5293 4.12196 45.0299 2.62072 44.4127 1.38606C43.7955 0.151386 42.2942 -0.349173 41.0596 0.268025C39.8249 0.885224 39.3244 2.38646 39.9416 3.62113C40.5588 4.85579 42.06 5.35635 43.2946 4.73915Z" fill="black"/>
<path d="M48.9376 4.85844C50.2401 4.40154 50.9256 2.97524 50.4687 1.67271C50.0118 0.370182 48.5856 -0.31533 47.283 0.141574C45.9805 0.598478 45.295 2.02478 45.7519 3.3273C46.2088 4.62983 47.6351 5.31534 48.9376 4.85844Z" fill="black"/>
<path d="M36.2399 0.000984192H29.2366C29.2344 0.000984192 29.2331 0.000984192 29.2309 0.00317504C29.2029 0.00317504 29.1749 0.00317504 29.1468 0.00317504C28.8186 0.00317504 28.4936 0.067822 28.1903 0.193425C27.8871 0.319028 27.6116 0.503127 27.3795 0.735211C27.1475 0.967295 26.9633 1.24282 26.8377 1.54605C26.7121 1.84928 26.6475 2.17429 26.6475 2.5025C26.6475 2.83072 26.7121 3.15572 26.8377 3.45895C26.9633 3.76219 27.1475 4.03771 27.3795 4.26979C27.6116 4.50188 27.8871 4.68598 28.1903 4.81158C28.4936 4.93718 28.8186 5.00183 29.1468 5.00183C29.1749 5.00183 29.2029 5.00183 29.2309 5.00183C29.2309 5.00183 29.2344 5.00183 29.2366 5.00183H36.2399C36.9016 4.99952 37.5356 4.73564 38.0034 4.26776C38.4713 3.79986 38.7352 3.16594 38.7375 2.50426C38.7366 1.84158 38.4735 1.2062 38.0054 0.737078C37.5374 0.267962 36.9026 0.00330074 36.2399 0.000984192ZM36.2399 4.06808H31.091C31.4502 3.62443 31.6461 3.07091 31.6461 2.50009C31.6461 1.92927 31.4502 1.37575 31.091 0.932098H36.1939C37.0098 0.932098 37.7244 1.53678 37.8007 2.34914C37.8215 2.56672 37.7966 2.78625 37.7277 2.99366C37.6587 3.20109 37.5472 3.39181 37.4003 3.55363C37.2533 3.71545 37.0742 3.8448 36.8745 3.93339C36.6746 4.02198 36.4585 4.06786 36.2399 4.06808Z" fill="black"/>
<path d="M5.90491 10.4373C5.42313 10.1628 4.87761 10.0198 4.32311 10.0228C3.79251 10.02 3.27099 10.1605 2.81361 10.4295C2.55637 10.5794 2.32253 10.7664 2.11954 10.9842V10.1411H0.389648V20H2.11954V16.2702C2.32189 16.495 2.55567 16.6895 2.81361 16.8474C3.26705 17.1275 3.79013 17.2744 4.32311 17.2715C4.88564 17.2768 5.43951 17.1327 5.92813 16.8539C6.4148 16.5753 6.80506 16.1641 7.09892 15.6205C7.39279 15.0769 7.53972 14.4081 7.53972 13.6141C7.53972 12.8423 7.38958 12.189 7.08929 11.6542C6.78899 11.1193 6.39419 10.7137 5.90491 10.4373ZM5.21786 15.2256C5.04886 15.3944 4.84762 15.5274 4.62616 15.6167C4.40469 15.7058 4.16751 15.7496 3.92876 15.7453C3.62207 15.7461 3.32033 15.6681 3.05241 15.5188C2.781 15.3697 2.5515 15.1547 2.38508 14.8936C2.21188 14.6217 2.12258 14.3049 2.12831 13.9826V13.9169H2.12173V13.2338H2.12831C2.12129 12.9118 2.21188 12.5953 2.38814 12.3258C2.55776 12.0706 2.78832 11.8616 3.05899 11.7176C3.32677 11.5729 3.62655 11.4976 3.93095 11.4986C4.43922 11.4986 4.86995 11.6684 5.22311 12.0082C5.57628 12.3479 5.75286 12.884 5.75286 13.6163C5.7514 14.3431 5.57307 14.8795 5.21786 15.2256Z" fill="black"/>
<path d="M13.0321 10.0228C12.4535 10.0228 11.9404 10.1456 11.4928 10.3913C11.1879 10.5575 10.9176 10.7806 10.6967 11.0486V6.84564H8.9668V17.1269H10.6967V13.2272C10.6903 12.9209 10.7605 12.6179 10.9008 12.3456C11.0344 12.0938 11.239 11.8869 11.4893 11.7506C11.7462 11.6076 12.0563 11.5364 12.42 11.5367C12.9639 11.5367 13.3488 11.6912 13.5746 12.0003C13.8004 12.3093 13.9133 12.7534 13.9133 13.3323V17.1278H15.6432V12.8709C15.6432 11.9765 15.4196 11.2782 14.9723 10.776C14.5252 10.2739 13.8784 10.0228 13.0321 10.0228Z" fill="black"/>
<path d="M22.5956 10.964C22.3913 10.7386 22.1514 10.5484 21.8853 10.401C21.4262 10.1481 20.9096 10.0179 20.3854 10.0228C19.9613 10.0227 19.5406 10.0985 19.1433 10.2468C18.7402 10.3954 18.3711 10.6235 18.0579 10.9176C17.727 11.2313 17.4659 11.6111 17.2915 12.0323C17.1008 12.4775 17.0054 12.9982 17.0054 13.5944C17.0054 14.2174 17.0986 14.759 17.2849 15.2191C17.4528 15.6519 17.712 16.0434 18.0447 16.3672C18.3559 16.6663 18.7253 16.898 19.1301 17.048C19.5322 17.1967 19.9576 17.2724 20.3863 17.2715C20.9089 17.2766 21.4244 17.1511 21.8862 16.9065C22.1525 16.7641 22.3927 16.5774 22.5964 16.3544V17.1269H24.3329V10.1411H22.5956V10.964ZM22.3419 14.9693C22.1833 15.2329 21.9529 15.4456 21.6776 15.5828C21.4054 15.7181 21.1053 15.7879 20.8012 15.7865C20.4692 15.7879 20.1414 15.7114 19.8443 15.563C19.5348 15.406 19.2799 15.1593 19.113 14.855C18.9263 14.5337 18.8332 14.1183 18.8334 13.6088C18.8334 13.0956 18.9266 12.6855 19.113 12.3784C19.2828 12.0863 19.538 11.853 19.8443 11.7102C20.1443 11.572 20.471 11.5012 20.8012 11.503C21.1026 11.502 21.4001 11.5694 21.6715 11.7002C21.9451 11.8311 22.1764 12.0362 22.3393 12.2922C22.5101 12.555 22.5956 12.8862 22.5956 13.2854V13.9694C22.5956 14.3644 22.511 14.6977 22.3419 14.9693Z" fill="black"/>
<path d="M27.6804 10.1411H25.9702V17.1269H27.6804V10.1411Z" fill="black"/>
<path d="M34.4948 10.9697C34.294 10.7576 34.0636 10.5756 33.8108 10.4295C33.3496 10.161 32.8248 10.0213 32.2912 10.025C31.7389 10.0226 31.1956 10.1655 30.716 10.4395C30.2269 10.7155 29.8326 11.1212 29.5329 11.6564C29.2332 12.1915 29.083 12.8448 29.0825 13.6163C29.0825 14.4102 29.2293 15.079 29.5229 15.6227C29.8164 16.1663 30.2079 16.5775 30.6971 16.8561C31.1826 17.1335 31.7329 17.2775 32.2921 17.2736C32.8384 17.2804 33.3751 17.1297 33.8379 16.8394C34.0818 16.6861 34.3029 16.4996 34.4952 16.2852V17.1291H36.2321V6.84564H34.4948V10.9697ZM34.2415 14.8804C34.0787 15.1447 33.8513 15.3631 33.5808 15.5153C33.2346 15.7063 32.8363 15.7814 32.4444 15.7292C32.0525 15.6771 31.6877 15.5005 31.4035 15.2256C31.0483 14.8795 30.8707 14.3423 30.8707 13.6141C30.8707 12.8859 31.0483 12.3501 31.4035 12.0069C31.5739 11.8408 31.7755 11.7102 31.9969 11.6227C32.2182 11.5352 32.4546 11.4926 32.6926 11.4973C32.9968 11.4963 33.2964 11.5716 33.5641 11.7163C33.8349 11.86 34.0655 12.0691 34.2349 12.3245C34.4114 12.5944 34.502 12.9114 34.4948 13.2338V13.9506C34.5008 14.2784 34.4129 14.601 34.2415 14.8804Z" fill="black"/>
<path d="M41.6509 10.0228C41.3226 10.0171 40.9965 10.0751 40.6904 10.1937C40.4206 10.3006 40.1763 10.4631 39.9735 10.6709C39.8533 10.796 39.7473 10.9342 39.6576 11.0827V10.1411H37.9277V17.1269H39.6576V13.6539C39.6581 13.4088 39.6891 13.1646 39.7496 12.927C39.8093 12.687 39.9119 12.4597 40.0525 12.2562C40.1976 12.048 40.3938 11.8803 40.6221 11.7694C40.8613 11.6484 41.1584 11.5882 41.5133 11.5885C41.6943 11.5821 41.8751 11.605 42.0487 11.6564C42.1418 11.6839 42.2312 11.7225 42.3151 11.7712L42.6306 10.1858C42.5912 10.1596 42.4896 10.1258 42.3239 10.0842C42.1028 10.0372 41.8769 10.0167 41.6509 10.0228Z" fill="black"/>
<path d="M48.8733 10.1411V10.964C48.6691 10.7386 48.4291 10.5484 48.1631 10.401C47.7038 10.1481 47.1873 10.0179 46.6632 10.0228C46.2387 10.0226 45.8178 10.0984 45.4201 10.2468C45.017 10.3955 44.648 10.6236 44.3347 10.9176C44.004 11.2314 43.7429 11.6112 43.5684 12.0323C43.3779 12.4775 43.2825 12.9982 43.2822 13.5944C43.2822 14.2174 43.3755 14.759 43.5623 15.2191C43.7299 15.652 43.9891 16.0435 44.322 16.3672C44.633 16.6663 45.0023 16.8981 45.407 17.048C45.809 17.1967 46.2345 17.2724 46.6632 17.2715C47.1857 17.2766 47.7012 17.1511 48.1631 16.9065C48.4293 16.7641 48.6696 16.5774 48.8733 16.3544V17.1269H50.6102V10.1411H48.8733ZM48.6205 14.9693C48.4617 15.2329 48.2312 15.4456 47.9557 15.5828C47.6836 15.7181 47.3834 15.7879 47.0794 15.7865C46.7473 15.7879 46.4196 15.7114 46.1225 15.563C45.8124 15.4062 45.5571 15.1595 45.3899 14.855C45.2032 14.5337 45.11 14.1183 45.1103 13.6088C45.1103 13.0956 45.2035 12.6855 45.3899 12.3784C45.5594 12.0868 45.8141 11.8539 46.1198 11.7111C46.4198 11.5728 46.7464 11.5021 47.0768 11.5039C47.3785 11.5026 47.6765 11.5701 47.9483 11.7011C48.2219 11.832 48.4532 12.0371 48.616 12.293C48.787 12.5559 48.8724 12.887 48.8724 13.2863V13.9703C48.873 14.3647 48.789 14.6977 48.6205 14.9693Z" fill="black"/>
<path d="M26.8257 6.84564C26.6283 6.84556 26.4353 6.90401 26.2712 7.01362C26.1069 7.12322 25.979 7.27906 25.9033 7.46142C25.8277 7.64377 25.8078 7.84446 25.8462 8.0381C25.8847 8.23174 25.9797 8.40963 26.1192 8.54928C26.2587 8.68895 26.4366 8.78408 26.6301 8.82268C26.8238 8.86128 27.0245 8.84161 27.2069 8.76613C27.3893 8.69067 27.5453 8.5628 27.655 8.3987C27.7647 8.23461 27.8234 8.04165 27.8235 7.84424C27.8235 7.71315 27.7978 7.58335 27.7476 7.46223C27.6975 7.3411 27.6241 7.23103 27.5314 7.13831C27.4388 7.04558 27.3288 6.97201 27.2077 6.92179C27.0866 6.87158 26.9568 6.8457 26.8257 6.84564Z" fill="black"/>
</g>
</svg>
