<svg width="566" height="209" viewBox="0 0 566 209" fill="none" xmlns="http://www.w3.org/2000/svg">
<path d="M561.53 164.836C530.824 192.268 433.7 203.439 401.118 204.409C368.537 205.379 273.609 178.916 255.688 143.494C237.767 108.071 249.856 90.9688 267.987 76.7386C286.119 62.5085 304.552 59.5548 320.147 65.7224C335.742 71.89 343.384 87.266 339.1 108.758C334.816 130.249 333.851 132.469 304.185 150.851C274.52 169.233 214.276 167.09 152.982 154.872C91.6879 142.655 -50.3355 87.8333 -43.3294 4.08666M541.352 200.434C541.998 192.842 544.529 185.526 548.716 179.154C553.178 172.398 558.158 166.987 561.544 164.844C559.478 166.41 555.035 171.419 547.223 172.741C535.019 174.869 526.183 166.646 525.125 165.644" stroke="#E4CBF2" stroke-width="7.75864" stroke-linecap="round" stroke-linejoin="round"/>
</svg>
