<svg width="144" height="187" viewBox="0 0 144 187" fill="none" xmlns="http://www.w3.org/2000/svg">
<path d="M108.864 15.1906C80.3708 13.7908 51.0407 27.411 33.4124 49.639C16.3936 71.0935 9.76263 103.283 19.1071 129.351C27.3993 152.498 48.8876 168.391 73.8033 167.32C93.2391 166.482 116.001 158.744 129.381 144.115C137.361 135.381 141.831 122.707 138.279 111.42C135.253 101.799 127.032 94.6294 118.22 89.6959C95.9429 77.2217 68.1628 76.3369 44.0591 84.6635C-0.436304 100.03 -27.8428 141.594 -46.4293 182.423M82.4846 4.8048C86.1405 8.61341 90.6913 11.4514 95.7229 13.0607C101.07 14.7559 106.11 15.5008 108.868 15.1799C107.073 15.2364 102.497 14.474 97.7126 17.1657C90.2112 21.3362 89.0337 29.6153 88.9001 30.6158" stroke="#1E4637" stroke-width="7.75864" stroke-linecap="round" stroke-linejoin="round"/>
</svg>
