<svg width="306" height="190" viewBox="0 0 306 190" fill="none" xmlns="http://www.w3.org/2000/svg">
<path d="M4.11698 32.8231C41.1408 14.8048 87.7944 16.2474 123.799 35.7515C158.555 54.5747 189.507 100.763 185.909 119.585C182.31 138.407 178.665 148.951 153.054 165.653C127.443 182.355 102.128 188.854 89.1712 183.595C76.2146 178.335 62.897 168.994 61.2102 151.999C59.769 137.513 63.2943 123.038 80.9905 109.02C98.6867 95.0006 115.463 87.7903 142.97 86.4724C170.476 85.1544 239.715 118.871 301.855 148.207M33.2386 4.07698C30.5464 11.2055 26.116 17.5533 20.3505 22.5429C14.215 27.8256 7.94762 31.673 4.10589 32.811C6.52049 31.8679 12.1608 28.261 20.0379 29.1199C32.3596 30.4006 38.618 40.7214 39.3628 41.9735" stroke="#F87F5B" stroke-width="7.75864" stroke-linecap="round" stroke-linejoin="round"/>
</svg>
