<svg width="172" height="185" viewBox="0 0 172 185" fill="none" xmlns="http://www.w3.org/2000/svg">
<path d="M155.095 105.429C141.678 127.297 116.672 142.167 91.2064 143.979C66.6245 145.732 39.3343 134.324 24.7003 114.159C11.7037 96.2583 10.794 72.2381 24.2325 54.28C34.7176 40.273 52.0185 27.2965 69.6808 24.7827C80.2214 23.2889 91.9098 26.3995 98.4964 34.7637C104.112 41.8916 105.27 51.6339 104.466 60.6806C102.434 83.5519 88.9954 104.629 70.5761 118.303C36.577 143.548 -8.22196 142.812 -47.9999 135.898" stroke="#F87F5B" stroke-width="4.13" stroke-linecap="round" stroke-linejoin="round"/>
<path d="M149.43 130.287C148.454 125.64 148.654 120.821 150.011 116.268C151.464 111.437 153.468 107.316 155.105 105.432C154.152 106.736 152.397 110.52 147.969 112.708C141.063 116.162 134.312 112.836 133.5 112.427" stroke="#F87F5B" stroke-width="4.13" stroke-linecap="round" stroke-linejoin="round"/>
</svg>
