<svg width="100" height="51" viewBox="0 0 100 51" fill="none" xmlns="http://www.w3.org/2000/svg">
<path d="M95.8184 10.1806C89.7237 20.7763 63.394 32.9853 54.3022 36.2982C45.2104 39.6112 15.9888 41.0092 7.63359 32.698C-0.721669 24.3869 1.08987 18.4393 4.87224 12.7374C8.65461 7.03553 13.5739 4.48349 18.5444 4.76677C23.5149 5.05006 27.103 8.67049 27.9006 15.127C28.6983 21.5835 28.6334 22.2991 21.9877 30.2472C15.3421 38.1953 -1.83592 43.2113 -20.2499 45.4863C-38.6639 47.7612 -83.8039 45.5607 -89.6421 21.3053M93.4527 22.0955C92.9264 19.8955 92.9574 17.5977 93.5426 15.4111C94.1699 13.0909 95.0688 11.1014 95.8231 10.1817C95.387 10.8157 94.6021 12.6417 92.5236 13.7431C89.2828 15.4814 86.0255 13.9883 85.6339 13.8047" stroke="#E4CBF2" stroke-width="7.75864" stroke-linecap="round" stroke-linejoin="round"/>
</svg>
