<svg width="88" height="96" viewBox="0 0 88 96" fill="none" xmlns="http://www.w3.org/2000/svg">
<path d="M77.0195 29.3286C76.4551 42.4787 68.9499 55.3796 57.9833 62.5409C47.3982 69.4549 32.3179 71.1431 20.7294 65.7499C10.4393 60.9634 4.04335 50.42 5.59207 39.0178C6.80155 30.1234 11.324 19.992 18.6167 14.4618C22.9705 11.1643 28.9868 9.64519 34.0252 11.7535C38.3203 13.5495 41.2681 17.6291 43.1626 21.8861C47.9532 32.6477 47.1823 45.4485 42.3323 56.1714C33.381 75.9663 13.1105 86.8042 -6.44855 93.6209" stroke="#F87F5B" stroke-width="4.13" stroke-linecap="round" stroke-linejoin="round"/>
<path d="M80.6758 41.8867C79.0798 40.0463 77.9679 37.8357 77.4414 35.4561C76.8887 32.9279 76.7599 30.5807 77.0244 29.3273C76.9223 30.1497 77.0788 32.284 75.6385 34.3687C73.4031 37.6392 69.5469 37.8308 69.0812 37.85" stroke="#F87F5B" stroke-width="4.13" stroke-linecap="round" stroke-linejoin="round"/>
</svg>
