<svg width="48" height="48" viewBox="0 0 48 48" fill="none" xmlns="http://www.w3.org/2000/svg">
<path d="M0.508835 24.5646L12.1419 26.1439C17.2238 26.8232 21.1764 30.7758 21.8558 35.8576L23.435 47.4905C23.5497 48.1698 24.5643 48.1698 24.5643 47.4905L26.1436 35.8576C26.8229 30.7758 30.7755 26.8232 35.8574 26.1439L47.4905 24.5646C48.1698 24.45 48.1698 23.4354 47.4905 23.4354L35.8574 21.8561C30.7755 21.1768 26.8229 17.2242 26.1436 12.1424L24.6745 0.509505C24.5598 -0.169835 23.5452 -0.169835 23.5452 0.509505L21.966 12.1424C21.2866 17.2242 17.334 21.1768 12.2521 21.8561L0.509512 23.4354C-0.169837 23.5456 -0.169837 24.5646 0.509512 24.5646H0.508835Z" fill="black"/>
</svg>
