<svg width="33" height="33" viewBox="0 0 33 33" fill="none" xmlns="http://www.w3.org/2000/svg">
<path d="M0.349824 16.8882L8.34754 17.9739C11.8414 18.4409 14.5588 21.1583 15.0258 24.6521L16.1116 32.6497C16.1904 33.1168 16.888 33.1168 16.888 32.6497L17.9737 24.6521C18.4407 21.1583 21.1582 18.441 24.652 17.9739L32.6497 16.8882C33.1168 16.8093 33.1168 16.1118 32.6497 16.1118L24.652 15.0261C21.1582 14.5591 18.4408 11.8417 17.9737 8.34789L16.9637 0.350284C16.8849 -0.116761 16.1873 -0.116761 16.1873 0.350284L15.1016 8.34789C14.6346 11.8417 11.9171 14.559 8.42332 15.0261L0.350289 16.1118C-0.116763 16.1876 -0.116763 16.8882 0.350289 16.8882H0.349824Z" fill="black"/>
</svg>
