<svg width="316" height="391" viewBox="0 0 316 391" fill="none" xmlns="http://www.w3.org/2000/svg">
<path d="M4.29986 29.2979C53.7592 52.314 86.3653 103.065 88.8711 155.158C89.7241 171.435 87.4285 187.443 82.1092 202.312C77.1253 215.991 66.5364 228.295 51.8626 230.44C46.6496 231.132 41.2335 230.553 36.0659 228.751C30.8984 226.949 26.1294 223.976 22.1571 220.082C13.6649 211.691 13.8296 199.126 16.5964 189.171C20.4624 175.18 28.8795 163.153 38.8323 152.968C69.2907 121.76 120.413 111.402 163.265 133.958C186.852 146.379 206.904 165.602 221.987 187.525C235.918 207.726 245.789 230.234 252.771 253.211C258.813 273.115 262.214 298.155 244.962 311.727" stroke="black" stroke-width="4.13" stroke-linecap="round" stroke-linejoin="round"/>
<path d="M242.104 315.261C242.828 314.499 248.844 307.697 258.759 308.836C263.802 309.484 268.601 311.918 272.265 315.686" stroke="black" stroke-width="4.13" stroke-linecap="round" stroke-linejoin="round"/>
<path d="M242.105 315.261C244.066 313.413 245.549 311.114 246.444 308.532C247.339 305.95 247.625 303.149 247.28 300.333C245.877 290.608 237.225 285.764 236.611 285.426" stroke="black" stroke-width="4.13" stroke-linecap="round" stroke-linejoin="round"/>
</svg>
