<svg width="200" height="427" viewBox="0 0 200 427" fill="none" xmlns="http://www.w3.org/2000/svg">
<path d="M151.34 3C171.755 58.6142 154.854 121.614 112.433 162.129C99.2341 174.844 83.7153 184.903 66.7203 191.76C51.0114 197.999 31.9372 198.848 18.2235 188.991C13.4117 185.437 9.51999 180.783 6.87275 175.419C4.22551 170.055 2.89957 164.135 3.00593 158.154C3.28884 145.319 14.1436 136.146 24.8793 130.935C39.9479 123.594 57.0269 121.256 73.7782 121.48C125.074 122.135 175.313 154.342 190.769 204.462C199.271 232.053 199.107 261.922 192.615 289.915C186.659 315.735 175.447 340.095 161.495 362.549C149.404 381.995 130.792 403.184 105.241 399.774" stroke="black" stroke-width="4.13" stroke-linecap="round" stroke-linejoin="round"/>
<path d="M99.9103 400.161C101.146 400.161 111.822 399.819 118.88 408.395C122.412 412.808 124.221 418.353 123.972 424" stroke="black" stroke-width="4.13" stroke-linecap="round" stroke-linejoin="round"/>
<path d="M99.9103 400.161C103.076 400.323 106.238 399.778 109.166 398.564C112.095 397.351 114.716 395.501 116.84 393.148C124.002 384.854 121.128 374.52 120.92 373.791" stroke="black" stroke-width="4.13" stroke-linecap="round" stroke-linejoin="round"/>
</svg>
