<svg width="359" height="135" viewBox="0 0 359 135" fill="none" xmlns="http://www.w3.org/2000/svg">
<path d="M4.25937 132C0.1976 108.439 6.29026 84.986 17.7986 64.3477C23.5629 54.1691 30.249 44.5368 37.7735 35.571C45.175 26.5783 53.2082 15.8499 62.5684 8.89856C68.3 4.69895 75.6202 2.00114 82.6697 3.35005C91.9305 5.14859 98.7724 13.5298 101.462 22.5405C109.089 48.1428 95.5591 75.067 97.1296 100.948C97.4816 106.748 100.099 113.97 105.93 114.104C108.873 114.176 111.445 112.306 113.72 110.417C128.297 98.5381 141.349 84.8062 156.729 73.898C174.782 61.0834 198.566 50.9755 220.969 49.9863C229.336 49.6176 238.001 51.1554 244.978 55.7686C254.203 61.8567 258.842 71.8476 264.43 80.9483C270.455 90.7123 279.451 98.3051 290.109 102.621C310.869 110.894 334.337 105.462 356 99.9229" stroke="black" stroke-width="4.13" stroke-linecap="round" stroke-linejoin="round"/>
<path d="M323.903 83.9158C325.579 87.2564 327.883 90.2453 330.691 92.7197C340.538 101.326 344.898 102.612 355.964 99.9138" stroke="black" stroke-width="4.13" stroke-linecap="round" stroke-linejoin="round"/>
<path d="M355.964 99.9141C352.435 100.813 349.113 101.569 346.315 104.024C344.592 105.584 343.127 107.405 341.973 109.419C338.868 114.653 337.334 120.939 338.453 126.91" stroke="black" stroke-width="4.13" stroke-linecap="round" stroke-linejoin="round"/>
</svg>
