<svg width="268" height="267" viewBox="0 0 268 267" fill="none" xmlns="http://www.w3.org/2000/svg">
<path d="M92.9531 -190C105.036 -127.452 113.628 -64.2776 118.688 -0.771919C121.811 36.7485 123.984 74.269 122.285 111.789C121.061 139.58 118.738 167.67 111.242 194.559C104.721 217.922 94.1776 243.086 72.5156 256.168C57.5246 265.223 37.5365 267.049 22.3956 258.344C7.25467 249.64 -1.36481 229.529 5.25621 213.32C9.62858 202.564 19.5727 194.86 30.3662 190.582C62.8467 177.7 102.073 180.577 136.302 182.403C174.282 184.401 212.067 189.158 249.359 196.636C254.59 197.686 259.803 198.787 265 199.937" stroke="black" stroke-width="4.13" stroke-linecap="round" stroke-linejoin="round"/>
<path d="M227 212C234.75 205.558 244.194 201.456 254.215 200.179C257.711 199.752 261.243 199.71 264.748 200.054H265C261.491 198.699 258.116 197.023 254.92 195.045C245.224 188.886 237.386 180.231 232.242 170" stroke="black" stroke-width="4.13" stroke-linecap="round" stroke-linejoin="round"/>
</svg>
