<svg width="211" height="141" viewBox="0 0 211 141" fill="none" xmlns="http://www.w3.org/2000/svg">
<path d="M46.0923 45.3532C46.2538 45.1287 46.3883 44.9466 46.5152 44.7646C47.511 43.401 48.6059 42.0841 49.7945 40.8204C50.6403 39.8738 51.4976 38.9393 52.2357 37.9411C52.5989 37.4904 53.0105 37.0651 53.4659 36.6699C53.8947 36.2252 54.2802 35.7557 54.6193 35.2651C55.0691 34.6583 55.9341 34.2579 56.0609 33.5054C56.4992 33.2384 56.7222 32.8258 57.0682 32.5133C57.837 31.8155 58.3022 30.969 59.1019 30.2742C59.9015 29.5794 60.4051 28.7754 61.0895 28.0442C62.3325 26.7093 63.5512 25.3642 64.7455 24.009C65.6682 22.9714 66.7292 22.0218 67.5904 20.9477C68.0633 20.3561 68.6899 19.8312 69.2243 19.2639C70.4814 17.9259 71.7462 16.597 73.1149 15.3197C74.3374 14.1789 75.5023 12.9926 76.7671 11.8761C78.1242 10.6807 79.3967 9.41855 80.7422 8.21406C81.4189 7.60726 82.1762 7.07327 82.8951 6.49984C83.4449 6.05991 83.9523 5.58965 84.5405 5.18006C85.0711 4.82205 85.4901 4.37605 86.0322 4.02107C86.3826 3.83852 86.7155 3.6357 87.0279 3.41427C87.3538 3.09647 87.7434 2.82285 88.1812 2.6042C88.5571 2.41859 88.9191 2.21599 89.2654 1.9974C89.4844 1.91941 89.7159 1.86531 89.9535 1.83659C90.8031 1.62118 91.6297 1.14484 92.5062 1.2298C92.5831 1.2298 92.7138 1.10236 92.7292 1.09326L94.4476 1.32385C94.8782 1.62725 95.3895 1.96402 95.9086 2.3099C96.0601 2.3831 96.2007 2.46962 96.3276 2.5678C97.3502 3.69341 98.3152 4.86148 99.5146 5.8536C99.8145 6.10542 100.122 6.35118 100.426 6.60301C101.383 7.39791 102.283 8.25046 103.317 8.96952C103.805 9.30932 104.263 9.67038 104.739 10.0193C105.519 10.5784 106.126 11.2705 106.515 12.043C106.658 12.262 106.835 12.4659 107.042 12.6498C107.911 13.6237 107.911 13.6237 108.026 14.8433C108.082 15.7319 107.952 16.6216 107.642 17.4768C107.223 18.3142 106.784 19.1516 106.262 19.9617C105.877 20.5442 105.527 21.1389 105.108 21.7123C104.689 22.2857 104.339 22.8834 103.917 23.4538C103.586 23.9059 103.117 24.2608 102.805 24.7675C102.336 25.5351 101.748 26.2845 101.187 27.0339C100.691 27.6923 100.072 28.3021 99.5069 28.9302C99.4531 28.9908 99.3224 29.0394 99.3147 29.0849C99.2109 29.8434 98.392 30.3531 98.0038 31.0176C97.6135 31.6422 97.1556 32.2391 96.6351 32.8015C95.8278 33.7117 94.9705 34.6219 94.4208 35.6535C93.4789 36.1996 93.2943 37.1857 92.4409 37.7773C92.2602 38.3659 91.7066 38.8453 91.2875 39.2943C90.6801 39.9011 90.3802 40.6899 89.5729 41.1966C89.2959 41.3728 89.0923 41.6106 88.9886 41.8793C88.8836 42.1603 88.658 42.4038 88.3504 42.568C88.1274 42.7348 88.385 43.1748 87.7775 43.1748C87.6968 43.1748 87.5354 43.5965 87.3547 43.7816C86.0476 45.2015 84.9096 46.7094 83.5102 48.0929C82.6914 48.906 82.0532 49.8405 81.3189 50.7142C81.0051 51.0977 80.6649 51.4674 80.3001 51.8216C79.9503 52.1524 79.9503 52.6439 79.4197 52.8744C78.1242 54.6251 76.4941 56.2118 75.1909 57.9594C74.8487 58.4236 74.4028 58.815 74.0683 59.264C72.9496 60.781 71.7616 62.2313 70.5275 63.6876C70.2584 64.0092 69.9586 64.3338 69.7318 64.6524C69.5256 65.0039 69.2675 65.3348 68.9629 65.6385C68.8937 65.6991 68.909 65.8266 68.8629 65.9965C69.2473 65.8144 69.5549 65.6688 69.8586 65.511C71.4187 64.6911 73.1288 64.0649 74.9294 63.6542C75.222 63.5754 75.5374 63.566 75.8367 63.6269C76.9093 63.8484 78.0011 64.0062 78.6316 64.8011C78.7008 64.8891 78.8931 64.8891 79.0161 64.9588C79.6358 65.3144 80.1863 65.7396 80.65 66.221C81.5296 67.25 82.5366 68.2073 83.6563 69.079C84.306 69.6009 84.8404 70.2259 85.4478 70.7841C86.2098 71.5376 87.0262 72.2558 87.8929 72.9352C88.3388 73.2598 88.7733 73.6027 89.2192 73.9334C89.6652 74.2641 89.9881 74.6312 90.4072 74.971C90.5763 75.1136 90.7916 75.2198 90.98 75.3503C91.2399 75.5039 91.476 75.6811 91.6835 75.8782C92.2871 76.5548 93.1021 77.0402 93.821 77.6136C94.1555 77.8806 94.3977 78.2538 94.7975 78.4389C95.7001 78.8563 96.5029 79.3955 97.1695 80.0317C97.4688 80.3246 97.787 80.6051 98.1229 80.8721C98.4536 81.1361 98.7111 81.4547 99.0648 81.7065C99.3922 82.0051 99.6891 82.3236 99.9529 82.6592C100.803 83.4905 101.214 84.5918 101.975 85.4778C102.002 85.5051 101.998 86.5609 101.975 86.6671C101.952 86.9705 101.937 87.2496 101.914 87.644C101.78 87.771 101.682 87.9189 101.625 88.0779C101.51 89.0245 100.799 89.8437 100.349 90.7235C99.9644 91.4729 99.1955 92.0615 98.9226 92.8473C98.1037 93.5087 97.8461 94.4857 96.8889 95.0652L97.0273 95.2169C96.9058 95.4577 96.7179 95.6742 96.4772 95.8505C96.2365 96.0268 95.949 96.1586 95.6356 96.2363C95.4511 97.107 94.6399 97.5227 93.871 97.9717C93.525 98.2054 93.3943 98.5421 92.9714 98.797C92.5485 99.0518 92.091 99.1853 91.845 99.5555C91.733 99.7407 91.5694 99.9036 91.3663 100.032C91.1632 100.16 90.926 100.25 90.6724 100.296C90.634 100.438 90.6224 100.724 90.5456 100.751C89.7767 101.033 89.3576 101.813 88.5272 102.031L88.4234 102.438C88.385 102.474 88.3581 102.514 88.3235 102.526L87.3124 102.875L87.5161 103.102C86.1283 103.955 85.1057 105.132 83.8255 106.097C83.0566 106.682 82.4607 107.465 81.5918 107.993C81.3535 108.139 81.0921 108.26 80.8229 108.4L80.9844 108.618C80.5346 108.921 80.0618 109.225 79.6235 109.571C79.2781 109.904 78.903 110.217 78.5009 110.508C78.0242 110.778 77.8897 111.273 77.2861 111.488C76.8363 111.649 76.4941 112.165 76.0443 112.429C75.5945 112.693 75.3062 113.114 74.8256 113.375C74.4231 113.658 74.0455 113.962 73.6954 114.286C73.2648 114.589 72.7996 114.892 72.2153 115.259C72.2153 115.244 72.1768 115.381 72.1576 115.445C69.6356 117.265 67.2136 119.107 64.4687 120.739L64.3957 121.042C62.8579 121.755 61.643 122.884 60.0745 123.676L59.9054 124.113C59.7908 124.113 59.6774 124.131 59.5709 124.164C59.1895 124.342 58.8281 124.545 58.4906 124.771C58.2177 124.965 58.0639 125.29 57.6717 125.354C57.6717 125.696 57.3296 125.596 57.1489 125.712C56.6068 126.02 56.093 126.359 55.6111 126.725C55.1306 127.134 54.404 127.229 54.0733 127.59C53.5697 128.133 52.8816 128.394 52.3703 128.867C52.3434 128.894 52.3357 128.949 52.3087 128.958C51.9743 129.085 51.486 129.146 51.3323 129.349C51.1106 129.597 50.8233 129.804 50.4903 129.956C49.9867 130.259 49.3831 130.423 48.9795 130.951C48.745 131.255 48.1606 131.425 47.5916 131.731C47.4455 132.207 46.7074 132.338 46.2153 132.553C45.6079 132.811 45.2234 133.318 44.6006 133.494C43.9778 133.67 43.5742 134.016 43.0629 134.301C42.3436 134.721 41.5705 135.08 40.7562 135.372C40.2466 135.571 39.768 135.817 39.3299 136.103C38.8538 136.395 38.3381 136.644 37.7922 136.846C36.8041 137.195 35.8699 137.708 34.8896 138.03C33.7862 138.388 32.7021 138.815 31.6257 139.243C30.5492 139.671 29.4843 139.832 28.4271 140.217C27.8274 140.439 27.2238 140.126 26.5779 140.429C26.1935 140.059 25.6245 140.63 25.1401 140.511C24.8287 140.436 24.475 140.208 24.0213 140.481C23.7061 140.153 23.1717 140.293 22.7142 140.272C22.2567 140.25 21.8223 140.344 21.534 140.059C20.7113 140.211 20.1846 139.807 19.5234 139.647C18.6545 139.434 18.0779 138.909 17.5166 138.415C16.344 137.386 15.0484 136.452 14.1258 135.223C14.02 135.114 13.8897 135.022 13.7413 134.95C13.5376 134.553 13.3569 134.228 13.2031 133.9C12.9109 133.318 12.6379 132.729 12.3381 132.153C12.1617 131.822 11.9641 131.499 11.7461 131.185C10.389 129.204 8.54362 127.544 7.09811 125.642C6.26386 124.531 5.53344 123.354 4.57233 122.304C4.40318 122.125 4.41471 121.755 4.18789 121.679C3.88033 121.567 3.84957 121.352 3.69579 121.167C3.13478 120.453 2.65245 119.703 2.25412 118.924C1.89275 118.296 1.48526 117.711 1.12773 117.068C1.02952 116.861 1.00424 116.638 1.05466 116.421C1.10712 116.204 1.09558 115.981 1.02092 115.767C0.946254 115.554 0.810467 115.358 0.624084 115.193C0.878154 114.521 0.928201 113.811 0.770175 113.12C0.688728 112.705 0.779056 112.279 1.02777 111.907C1.27381 111.543 1.46603 111.264 1.30841 110.918C1.30841 110.89 1.47756 110.769 1.55061 110.708C1.55061 110.293 1.09696 110.002 1.35839 109.589C1.91967 108.706 1.89659 107.793 2.3041 106.928C2.75775 105.966 3.073 104.992 3.51511 104.034C3.72646 103.676 3.96659 103.329 4.23402 102.996C4.7338 101.968 5.12211 100.778 5.93713 99.6374C6.25434 99.2048 6.50348 98.7432 6.67908 98.263C6.85938 97.7774 7.22277 97.3467 7.72091 97.0282C7.98008 96.0355 8.49573 95.0956 9.23564 94.2672C9.55857 93.9365 9.52014 93.621 9.77387 93.3085C10.5812 92.3103 11.1348 91.212 11.9536 90.2108C12.5634 89.5751 13.0101 88.8517 13.2685 88.0809C13.3069 87.9353 13.5068 87.7775 13.6106 87.638C14.664 86.1513 15.7404 84.6768 16.7285 83.1628C17.2118 82.4482 17.7822 81.7725 18.4316 81.1452L18.6276 80.3837C19.0543 79.9377 19.4811 79.6434 19.631 79.3096C20.0462 78.3812 20.8651 77.6167 21.4456 76.7611C21.7157 76.2763 22.0688 75.823 22.4951 75.414C22.8796 75.1106 22.9411 74.5523 23.3524 74.1336C23.7638 73.715 23.9176 73.1901 24.2828 72.7592C24.648 72.3284 24.9248 71.7944 25.3592 71.4486C26.1896 70.7902 26.6279 69.971 27.0815 69.2125C27.7289 68.1343 28.5271 67.1166 29.4612 66.1785C29.7297 65.9482 29.9271 65.672 30.0379 65.3715C30.1455 64.7829 30.6761 64.3703 31.0183 63.8848C31.3604 63.3994 31.5257 62.8957 32.1216 62.5741C32.5637 61.7337 33.5248 61.1269 33.9362 60.2592C34.0913 59.8832 34.373 59.5477 34.7512 59.2883C35.0395 59.1002 35.0972 58.6481 35.3701 58.3781C35.6431 58.1081 35.6315 57.7197 36.0813 57.4679C36.3867 57.2691 36.588 56.9881 36.6465 56.6791C36.6773 56.2209 37.2232 56.1208 37.4154 55.7931C37.6153 55.4109 38.1266 55.1408 38.1843 54.6979C38.1843 54.6463 38.2804 54.5826 38.3342 54.528C39.3914 53.5237 40.0911 52.3496 41.0253 51.2786C41.2078 51.1057 41.4099 50.9463 41.6289 50.8022L41.7865 50.1954C42.5554 49.625 42.9399 48.8544 43.5165 48.196C44.0932 47.5377 44.6122 46.9278 45.1312 46.2785C45.4255 45.9538 45.7465 45.6447 46.0923 45.3532Z" fill="#FFF56E"/>
<path d="M166.728 121.792L166.632 122.165L162.788 123.897L162.691 124.271C162.581 124.295 162.474 124.329 162.372 124.371C161.219 124.977 159.954 125.329 158.832 126.085C158.09 126.586 157.163 126.907 156.321 127.32C155.375 127.778 154.399 128.181 153.434 128.576C152.611 128.91 151.792 129.255 150.977 129.604C150.162 129.953 149.29 130.144 148.532 130.666C148.425 130.742 148.221 130.691 148.059 130.715C147.077 130.947 146.147 131.299 145.303 131.758H144.253C143.869 132.414 143.223 132.15 142.697 132.365C142.058 132.558 141.376 132.642 140.694 132.611C140.309 132.611 139.925 132.811 139.54 132.653C139.156 132.496 138.656 132.654 138.225 132.617C137.841 132.587 137.518 132.471 137.157 132.417C136.784 132.359 136.406 132.322 136.026 132.305C135.7 132.305 135.304 132.471 135.081 132.201C134.373 132.32 134.093 131.865 133.712 131.595C132.966 131.045 132.336 130.381 131.601 129.823C130.54 129.035 129.597 128.153 128.791 127.195C128.407 126.734 128.103 126.227 127.769 125.742L128.041 125.548C127.175 124.71 126.593 123.712 126.35 122.647C126.324 122.559 126.274 122.477 126.204 122.405C124.797 120.739 123.42 119.052 121.956 117.429C121.69 117.126 121.471 116.822 121.187 116.519C120.902 116.215 120.606 115.872 120.318 115.548C119.979 115.253 119.692 114.924 119.465 114.568C118.619 112.708 116.927 111.413 115.693 109.811C114.864 108.74 114.218 107.589 113.771 106.385C113.544 105.844 113.356 105.293 113.206 104.735C113.071 104.128 113.098 103.485 112.944 102.887C112.906 102.738 112.867 102.584 112.852 102.523C113.015 102.232 113.133 101.926 113.202 101.613C113.202 101.061 112.729 100.563 113.444 99.9531C113.114 99.7286 113.498 99.3463 113.417 99.0945C113.357 98.7114 113.476 98.3242 113.752 98.0053C114.03 97.5625 114.222 97.0888 114.321 96.6005C114.417 96.1483 114.604 95.711 114.874 95.305C115.109 94.9774 115.447 94.6679 115.232 94.1946C115.051 93.7971 115.451 93.1994 115.874 92.893C115.943 92.5593 115.897 92.2316 116.062 92.092C116.681 91.5823 116.72 91.0028 116.858 90.5326L117.9 89.3038C117.984 88.4967 118.615 87.7291 119.33 86.9676C119.525 86.6951 119.689 86.4099 119.822 86.1151C120.652 84.7407 121.637 83.4178 122.567 82.0768C123.54 80.6751 124.543 79.2886 125.543 77.899C125.739 77.626 125.839 77.3165 126.035 77.0434C126.492 76.4093 126.942 75.7691 127.469 75.1654C128.303 74.2097 128.926 73.1781 129.648 72.183C130.233 71.3729 130.667 70.4718 131.571 69.8013C131.805 69.6411 131.975 69.4301 132.059 69.1945C132.163 68.6029 132.689 68.1872 133.07 67.723C133.966 66.6368 134.712 65.496 135.511 64.3856C135.554 64.3249 135.557 64.246 135.611 64.1914C136.07 63.7614 136.488 63.305 136.861 62.8261C137.187 62.3266 137.583 61.8575 138.041 61.4275C138.125 61.3455 138.256 61.2576 138.279 61.1756C138.456 60.4505 139.16 59.962 139.644 59.3795C140.309 58.5664 140.947 57.7229 141.566 56.8886C141.971 56.2642 142.443 55.6683 142.977 55.1076C143.583 54.5049 144.099 53.8494 144.515 53.1538C144.906 52.6055 145.347 52.0802 145.834 51.5821C146.602 50.7569 147.175 49.8588 147.936 49.0336C148.698 48.2083 149.363 47.3497 150.059 46.4972C150.147 46.3452 150.212 46.1852 150.251 46.0208L151.093 45.5081L151.27 44.8224C152.684 43.3206 153.811 41.7308 155.114 40.235C155.541 39.7465 156.083 39.2641 156.325 38.7392C156.817 37.6713 158.078 36.9431 158.474 35.857C159.135 35.6294 158.958 35.0256 159.378 34.704C159.797 34.3824 159.958 33.9637 160.262 33.6634C160.822 33.0739 161.32 32.4488 161.75 31.7944C162.518 30.6688 163.641 29.6706 164.268 28.4783C164.425 28.1749 164.964 27.9595 165.113 27.6591C165.246 27.3183 165.516 27.0211 165.882 26.8126L166.028 26.2544C166.797 25.2501 167.878 24.4977 168.235 23.4085C168.319 23.2469 168.442 23.0996 168.596 22.9746C169.105 22.5269 169.512 22.0138 169.8 21.4576C170.011 21.0056 170.672 20.6415 170.98 20.1864C172.018 18.6512 173.364 17.2555 174.44 15.7355C174.964 14.9978 175.589 14.308 176.305 13.6785C176.565 13.4386 176.795 13.1795 176.993 12.9048C177.219 12.5281 177.483 12.1659 177.781 11.8216C179.007 10.696 179.884 9.37321 181.068 8.22636C181.86 7.45876 182.606 6.66386 183.398 5.89019C184.089 5.14187 184.846 4.43224 185.662 3.7664C185.881 3.59953 186.046 3.35984 186.25 3.18994C186.763 2.78541 187.275 2.37076 187.788 1.946C188.863 1.09093 190.181 0.450268 191.632 0.0770602C191.936 -0.00789166 192.401 -0.104985 192.544 0.280333C192.652 0.149298 192.821 0.0565482 193.015 0.0214876C193.208 -0.0135731 193.411 0.0117739 193.582 0.0922264C194.101 0.435068 194.735 0.635311 195.227 1.02063C196.067 1.69698 196.803 2.44843 197.422 3.25972C197.807 3.73302 198.679 3.821 198.641 4.57647C199.294 4.79795 199.471 5.41386 199.959 5.7658C201.174 6.63049 202.22 7.64081 203.381 8.551C204.122 9.18715 204.82 9.85353 205.472 10.5474C205.857 10.4928 206.03 10.8508 206.36 10.9661C206.776 11.1178 206.868 11.4636 207.191 11.6517C207.501 11.8583 207.779 12.0936 208.017 12.3526C208.256 12.5892 208.44 12.8684 208.694 13.0929C208.948 13.3174 209.109 13.636 209.509 13.8028C209.817 13.9333 209.893 14.3581 210.078 14.6554C210.263 14.9527 210.42 15.2622 210.585 15.5656C210.555 15.9509 210.524 16.3453 210.486 16.8247C210.239 17.0553 209.993 17.386 210.332 17.7106C210.176 17.9195 210.047 18.14 209.947 18.369C209.755 18.9424 209.674 19.5189 209.259 20.0802C208.709 20.8296 208.675 21.6761 208.16 22.4406C207.575 23.3114 207.187 24.2277 206.687 25.1196C206.46 25.5323 206.061 25.9328 205.964 26.3332C205.818 26.94 205.115 27.3254 204.992 27.9564C204.838 28.5019 204.548 29.0177 204.138 29.4734C203.316 30.4807 202.777 31.5729 202.028 32.6015C201.547 33.2629 201.224 33.988 200.782 34.6707C200.546 35.0507 200.247 35.4046 199.894 35.7235C199.563 36.0269 199.433 36.4638 199.198 36.8369C199.021 37.1929 198.784 37.5286 198.495 37.8351C198.11 38.1719 198.372 38.6604 197.726 38.9638C197.411 39.1124 197.249 39.6009 197.022 39.9377C196.818 40.3216 196.572 40.6911 196.288 41.042C195.158 42.1859 194.473 43.5117 193.516 44.7253C192.612 45.7948 191.811 46.9165 191.121 48.0809C190.898 48.4875 190.214 48.6695 190.314 49.1641C189.591 49.7709 189.306 50.5536 188.799 51.2423C188.292 51.931 187.676 52.5925 187.227 53.2994C186.577 54.3279 185.72 55.2654 185.024 56.2727C184.577 57.0268 184.064 57.7547 183.486 58.4511C182.717 59.2551 182.26 60.1501 181.564 60.9724C181.076 61.564 180.695 62.2527 180.245 62.8929C179.626 63.7727 179.215 64.7406 178.296 65.4991C177.945 66.2113 177.522 66.9002 177.031 67.5592C176.143 68.9548 175.232 70.3413 174.259 71.7036C174.171 71.828 174.059 71.9402 173.952 72.0677C174.341 72.5463 174.761 73.009 175.209 73.4542C176.085 74.2491 176.824 75.1532 177.815 75.8632C178.092 76.1162 178.342 76.3872 178.561 76.6733C179.434 77.5835 180.553 78.2965 181.456 79.1733C182.14 79.8347 182.971 80.3535 183.682 80.9937C184.574 81.8571 185.569 82.6507 186.654 83.3632C186.681 83.3632 186.735 83.3632 186.746 83.3996C187.273 84.2674 188.342 84.6861 189.053 85.399C189.372 85.742 189.812 86.0036 190.318 86.1515C190.906 86.3123 191.333 86.7583 191.775 87.1406C192.332 87.6139 192.77 88.1903 193.374 88.6151C194.281 89.2552 194.873 90.1139 195.604 90.8754C196.606 91.9716 197.429 93.1633 198.053 94.4221C198.108 94.5023 198.173 94.5775 198.249 94.6467C198.249 95.1715 197.983 95.7025 198.06 96.2547C198.072 96.8173 197.846 97.3669 197.418 97.8172C197.034 98.1873 197.257 98.6728 196.672 98.9367C196.238 99.1339 196.265 99.6042 195.846 99.9015C195.5 100.147 195.358 100.627 194.985 101.227L194.377 101.601C194.284 101.806 194.163 102.002 194.016 102.186C193.105 103.011 192.478 104.007 191.563 104.835C190.852 105.496 190.056 106.073 189.345 106.725C188.634 107.377 187.849 107.881 187.142 108.503C186.719 108.873 186.262 109.246 185.793 109.583C184.113 110.797 182.425 111.977 180.745 113.172C180.408 113.368 180.085 113.58 179.78 113.806C179.488 114.061 179.107 114.298 178.769 114.559C178.429 114.781 178.069 114.984 177.692 115.166C177.335 115.372 177.066 115.73 176.604 115.772C176.101 116.555 175.009 116.683 174.429 117.238C173.848 117.793 173.133 117.987 172.61 118.548C172.226 118.976 171.495 119.213 170.922 119.538C170.688 119.643 170.473 119.774 170.284 119.926C169.788 120.42 169.131 120.533 168.527 120.836C167.924 121.139 167.405 121.416 166.728 121.792Z" fill="#FFF56E"/>
</svg>
