<svg width="711" height="198" viewBox="0 0 711 198" fill="none" xmlns="http://www.w3.org/2000/svg">
<path d="M261.156 91.7166L268.728 61.7699C269.37 59.4093 269.907 56.3654 268.398 53.7266C267.138 51.5206 264.662 49.9422 260.609 48.7601C254.698 46.8931 247.447 46.0239 237.784 46.0239C227.283 46.0239 215.651 49.9422 205.871 56.7739C195.564 63.9724 188.357 73.5629 185.574 83.7775C181.254 99.6331 186.356 112.48 200.331 120.93L218.829 131.81C224.077 134.847 227.762 138.671 229.781 143.175C231.867 147.819 232.117 153.107 230.54 158.894C228.724 165.564 224.303 172.235 218.413 177.198C212.364 182.297 205.473 185.104 199.012 185.104C192.943 185.104 188.557 183.599 185.607 180.501C182.09 176.811 180.521 170.568 180.938 161.944L181.173 144.988C181.458 142.849 181.063 141.088 180.027 139.886C179.627 139.427 179.132 139.06 178.575 138.812C178.019 138.563 177.415 138.439 176.806 138.449C175.175 138.449 172.244 139.162 170.946 143.932L161.295 181.52L161.277 181.598C160.524 185.019 160.823 187.57 162.218 189.621C163.48 191.481 165.555 192.802 168.947 193.911L169.018 193.932C176.383 196.072 185.465 197.25 194.591 197.25C205.864 197.25 217.683 193.011 227.872 185.315C238.245 177.478 245.648 166.954 248.72 155.683C251.164 146.711 251.058 138.579 248.405 131.52C245.713 124.347 240.517 118.583 232.965 114.39L213.949 103.551C207.488 99.6939 200.441 92.7318 203.519 81.4516C205.268 75.0319 209.186 69.144 214.551 64.8729C219.974 60.5548 226.545 58.1768 233.073 58.1768C239.993 58.1768 244.172 59.2441 246.622 61.6396C248.904 63.8716 250.001 67.55 250.293 73.9158L251.223 90.7918C251.096 92.4241 251.546 93.933 252.468 94.9638C252.855 95.3961 253.329 95.741 253.86 95.9757C254.39 96.2104 254.965 96.3295 255.545 96.325C258.232 96.3163 260.386 94.5536 261.156 91.7166Z" fill="#175CEA"/>
<path d="M373.686 51.4946C366.882 48.5116 354.39 46.9019 346.103 46.9019C328.537 46.9019 310.314 54.6914 294.791 68.8382C279.596 82.6824 268.194 101.431 262.694 121.629C259.205 134.437 257.93 146.301 258.909 156.891C259.881 167.401 263.013 176.187 268.223 183.006C275.49 192.515 286.422 197.543 299.839 197.543C311.373 197.543 322.929 192.788 334.187 183.413C344.773 174.596 354.545 162.179 363.228 146.506C365.279 142.875 364.182 140.05 362.185 138.857C360.881 138.08 359.216 138.013 357.62 138.67C356.12 139.288 354.778 140.491 353.749 142.136C337.568 167.575 320.174 182.165 306.029 182.165C298.757 182.165 292.6 179.139 288.226 173.412C279.813 162.4 278.42 142.499 284.503 120.177C289.023 103.586 297.393 88.2712 308.073 77.0554C318.754 65.8395 330.96 59.637 342.402 59.637C349.75 59.637 354.607 61.139 357.255 64.2298C360.229 67.7065 360.931 73.7142 359.463 83.1431L355.996 106.637C355.718 108.539 356.054 110.056 356.994 111.145C357.935 112.233 359.289 112.746 361.09 112.746C363.612 112.746 365.851 110.896 367.082 107.8L367.101 107.751L381.079 67.2267C384.429 57.7127 379.506 54.0413 373.686 51.4946Z" fill="#175CEA"/>
<path d="M477.354 147.625C479.173 144.149 477.977 141.418 475.985 140.256C474.688 139.5 473.045 139.399 471.475 139.982C469.953 140.545 468.598 141.691 467.561 143.297L467.531 143.342C460.173 155.337 451.735 165.263 443.128 172.054C434.746 178.671 426.393 182.166 418.974 182.166C410.826 182.166 404.024 178.909 399.32 172.744C395.478 167.715 393.062 160.731 392.332 152.545C391.535 143.597 392.679 133.399 395.716 122.233L395.902 121.55H476.918C479.972 121.55 482.526 120.67 484.506 118.942C486.439 117.248 487.828 114.77 488.756 111.365C491.68 100.307 492.796 90.1744 492.077 81.2497C491.334 72.0607 488.669 64.4293 484.155 58.5641C480.963 54.4153 476.772 51.1427 471.973 49.0519C466.989 46.8511 461.17 45.7368 454.678 45.7368C446.938 45.7368 438.74 47.8333 430.313 51.9688C422.254 55.9218 414.398 61.5298 406.965 68.624C399.413 75.8625 392.836 84.0528 387.398 92.9888C381.615 102.456 377.284 112.391 374.526 122.516C367.572 148.023 369.484 169.588 379.914 183.234C387.216 192.795 398.252 197.846 411.825 197.846C417.977 197.846 424.168 196.692 430.226 194.418C436.171 192.186 442.026 188.856 447.625 184.537C458.874 175.846 468.873 163.436 477.341 147.653L477.354 147.625ZM437.915 62.2164C443.095 59.6089 448.216 58.2391 453.143 58.173C459.27 58.0739 464.416 60.4503 468.023 65.0395C473.86 72.4623 475.279 84.8567 471.821 98.1725C469.853 105.383 467.242 108.815 457.741 108.815H400.278C405.785 94.9079 413.753 82.3918 422.918 73.3262C427.757 68.5353 432.804 64.7979 437.915 62.2164Z" fill="#175CEA"/>
<path d="M611.038 56.6505C608.333 53.1077 604.706 50.4063 600.261 48.621C595.969 46.8983 590.891 46.0239 585.168 46.0239C572.372 46.0239 557.657 52.2733 542.606 64.1028L539.036 66.8181L542.723 53.2833C543.175 51.6232 543.625 49.219 542.316 47.5067C541.588 46.5524 540.445 46.0274 539.1 46.0274C536.501 46.0274 534.433 47.7658 532.585 49.6328L532.501 49.7231C524.131 59.1781 515.785 63.8977 503.711 66.0011C500.425 66.3818 498.174 68.2123 497.371 71.164C497.001 72.5251 497.211 73.815 497.962 74.8007C498.913 76.0453 500.528 76.6537 502.897 76.6607L511.269 76.9527C513.974 77.0918 514.7 77.556 514.893 77.8219C515.14 78.1696 515.415 79.2752 514.419 82.9014L490.115 172.098C488.674 177.384 486.007 180.239 481.463 181.353L475.488 182.82L475.315 182.871C471.289 184.202 469.349 185.842 468.615 188.529C468.093 190.473 468.629 191.736 469.176 192.454C470.431 194.095 472.669 194.316 474.692 194.316L494.509 193.732L516.587 194.316H516.646C518.831 194.316 523.947 194.316 525.2 189.718C526.438 185.172 521.758 183.46 520.221 182.893L520.102 182.85L513.92 181.351C511.971 180.879 510.714 180.124 510.075 179.045C509.336 177.795 509.317 175.858 510.017 173.287L530.878 96.7039C532.155 92.0104 534.596 87.3394 538.135 82.7971C541.382 78.625 545.565 74.6268 550.229 71.1953C559.206 64.6104 569.525 60.5201 577.154 60.5201C584.043 60.5201 589.133 62.6061 592.278 66.7277C594.448 69.5665 595.701 73.3752 596.002 78.0444C596.316 82.8997 595.597 88.5823 593.867 94.9325L572.857 172.098C571.426 177.351 568.416 180.201 563.098 181.337L556.244 182.806L556.056 182.855C552.777 183.856 549.624 185.238 548.722 188.529C548.214 190.393 548.758 191.634 549.304 192.353C550.629 194.092 553.129 194.321 555.388 194.321L578.135 193.737L597.573 194.321H597.641C599.397 194.321 604.062 194.321 605.316 189.723C605.745 188.145 605.566 186.756 604.786 185.595C604.069 184.529 602.873 183.683 600.992 182.925L600.879 182.879L595.586 181.377C593.326 180.739 591.066 179.537 592.772 173.292L613.957 95.5358C616.276 87.0178 617.201 79.3934 616.702 72.8711C616.201 66.3714 614.298 60.9147 611.038 56.6505Z" fill="#175CEA"/>
<path d="M709.729 52.5734C708.98 51.593 707.469 50.4248 704.547 50.4248H673.762L679.941 27.7497C680.65 25.1422 680.478 23.1309 679.431 21.7593C678.665 20.7563 677.483 20.1948 676.104 20.1948C673.149 20.1948 671.063 21.5699 669.111 24.7928C662.505 35.4315 657.777 41.3576 652.77 45.241C647.764 49.1245 642.215 51.1515 633.707 52.1945C629.866 52.5421 627.147 54.6473 626.245 57.9571C625.692 59.984 626.312 61.373 626.929 62.1796C627.679 63.1617 629.247 64.3317 632.452 64.3317H645.951C648.113 64.3317 648.619 64.7749 648.723 64.9105C648.871 65.1052 649.285 66.004 648.36 69.399L619.743 174.441C617.855 181.37 618.526 187.219 621.694 191.362C624.783 195.405 630.057 197.542 636.946 197.542C643.618 197.542 651.64 194.15 660.148 187.734C669.022 181.04 678.011 171.312 686.14 159.602L686.167 159.56C688.834 155.529 687.791 152.624 686.087 151.361C684.048 149.848 680.478 150.144 677.098 154.229L677.051 154.29C670.99 162.137 664.217 169.189 657.98 174.147C651.953 178.94 646.736 181.578 643.291 181.578C641.735 181.578 640.662 181.212 640.108 180.485C639.265 179.379 639.239 177.135 640.054 174.164L669.898 64.6237H701.91C706.115 64.6237 709.272 62.2456 710.357 58.2648L710.437 57.971C711.179 55.247 710.461 53.5313 709.729 52.5734Z" fill="#175CEA"/>
<path d="M27.4163 163.903C20.1865 175.837 17.1148 179.289 5.79986 183.169C3.92765 183.807 2.41007 184.876 1.41573 186.265C0.421388 187.654 0.0250431 189.278 0.32404 190.74C0.800349 193.071 2.85856 194.507 5.44697 194.31L23.6736 192.572L45.5873 194.31H45.6325C45.8064 194.321 45.9802 194.326 46.154 194.326C47.7158 194.347 49.2429 193.865 50.5103 192.952C51.8193 191.993 52.7007 190.599 52.9284 189.128C53.4047 186.036 51.1344 184.026 48.6712 183.407H48.6399C41.1649 181.641 37.4553 179.946 36.6105 177.912C35.8977 176.196 36.8938 173.238 39.7395 168.602L61.8948 130.41L66.8509 121.908L68.9682 118.29L54.6633 117.769L27.4163 163.903Z" fill="#175CEA"/>
<path d="M118.175 103.94L139.803 105.612L133.352 4.71424V4.6534C133.14 2.32574 131.788 0.587383 129.817 0.11455C128.904 -0.102744 125.735 -0.469537 122.954 3.91633L113.109 18.5585L113.095 18.5794C111.378 21.1869 109.925 23.8135 108.518 26.3498C107.823 27.591 107.117 28.8756 106.398 30.1151L62.9647 103.689L77.8311 103.152L114.622 40.3418L118.175 103.94Z" fill="#175CEA"/>
<path d="M152.95 183.56C149.638 181.952 147.547 180.109 146.17 177.585C144.734 174.96 143.94 171.317 143.67 166.112L140.439 115.601L118.913 117.197L121.791 168.72C122.068 173.276 121.419 175.645 119.399 177.464C117.11 179.525 112.682 181.213 104.596 183.106H104.573C102.516 183.61 100.789 184.565 99.5804 185.867C98.3097 187.233 97.7151 188.907 97.9481 190.456C98.2366 192.368 99.9142 194.52 103.704 194.303L127.724 192.846L148.891 194.301H148.91C149.096 194.312 149.28 194.319 149.461 194.319C152.844 194.319 155.719 192.438 156.414 189.705C157.023 187.245 155.672 184.831 152.95 183.56Z" fill="#175CEA"/>
<path d="M105.667 114.384L138.505 111.95C140.038 111.837 140.632 109.633 139.16 109.517L107.633 107.083C103.484 106.751 100.989 103.432 101.712 99.21L105.497 77.086C105.747 75.6188 103.609 75.6188 103.063 77.086L95.1066 98.7546C93.5056 103.1 89.0224 106.475 84.6052 106.635L5.17629 109.506C3.59439 109.564 2.96858 111.886 4.51919 111.94L82.3975 114.81C86.726 114.97 89.3996 118.337 88.6556 122.69L84.9529 144.362C84.7026 145.829 86.8407 145.829 87.3866 144.362L95.5186 122.238C97.064 118.012 101.347 114.697 105.667 114.384Z" fill="#175CEA"/>
</svg>
