<svg width="202" height="201" viewBox="0 0 202 201" fill="none" xmlns="http://www.w3.org/2000/svg">
<path d="M112.405 33.7269C109.411 31.8976 90.7954 23.048 90.7954 23.048C90.7954 23.048 90.2544 35.2196 83.8156 37.3899C79.4388 38.8649 77.2481 38.918 70.6851 37.0887C64.1133 35.255 63.6964 22.7468 63.6964 22.7468C63.6964 22.7468 45.0761 31.5965 42.0873 33.4257C39.0941 35.255 19.8086 59.9702 19.8086 59.9702L43.0806 74.6532L46.7391 71.8672V132.898H77.2437L107.748 133.199V72.1728L111.407 74.9588L134.679 60.2758C134.679 60.2758 115.398 35.5606 112.405 33.7314V33.7269Z" fill="#F5F5EB" stroke="#175CEA" stroke-width="1.36635" stroke-miterlimit="10"/>
<g filter="url(#filter0_f_1302_5884)">
<path d="M99.2775 48.5215C97.4006 47.3663 85.7275 41.7776 85.7275 41.7776C85.7275 41.7776 85.3882 49.4641 81.3507 50.8347C78.6062 51.7662 77.2326 51.7997 73.1172 50.6445C68.9963 49.4865 68.7349 41.5874 68.7349 41.5874C68.7349 41.5874 57.059 47.1761 55.1848 48.3313C53.3079 49.4865 41.2148 65.0946 41.2148 65.0946L55.8077 74.3671L58.1017 72.6077V111.15H77.2298V111.34H96.3579V72.8007L98.6519 74.5601L113.245 65.2876C113.245 65.2876 101.154 49.6795 99.2775 48.5243V48.5215Z" fill="#FAC8E1"/>
</g>
<path d="M66.375 27.471C66.375 27.471 79.9548 33.0767 88.056 27.471" stroke="#175CEA" stroke-width="1.36635" stroke-miterlimit="10"/>
<path d="M172.676 136.506C172.676 136.506 177.986 130.547 169.894 127.095C161.802 123.643 130.705 110.023 118.317 111.283C105.929 112.543 52.6828 123.853 52.6828 123.853C52.6828 123.853 47.7766 129.19 54.8566 136.504C54.8566 136.504 85.4493 161.725 89.7476 163.238C94.0459 164.75 94.0459 170.3 100.114 168.535C106.182 166.769 171.666 152.393 173.183 150.88C174.699 149.367 176.469 142.06 170.908 140.039C170.908 140.039 168.156 139.782 172.678 136.504L172.676 136.506Z" fill="#F5F5EB" stroke="#175CEA" stroke-width="1.36635" stroke-miterlimit="10"/>
<g filter="url(#filter1_f_1302_5884)">
<path d="M160.088 134.163C160.088 134.163 164.28 129.458 157.891 126.732C151.503 124.006 126.95 113.252 117.17 114.247C107.389 115.242 65.35 124.172 65.35 124.172C65.35 124.172 61.4764 128.387 67.0663 134.161C67.0663 134.161 91.22 154.076 94.6136 155.27C98.0072 156.465 98.0072 160.847 102.798 159.453C107.589 158.059 159.29 146.707 160.488 145.513C161.685 144.318 163.083 138.549 158.692 136.953C158.692 136.953 156.519 136.75 160.089 134.161L160.088 134.163Z" fill="#FAC8E1"/>
</g>
<path d="M90.0018 146.361C90.0018 146.361 53.8478 125.659 53.0874 127.174C52.3269 128.689 52.5826 129.696 54.3526 131.462C56.1226 133.228 91.2671 154.666 91.2671 154.666C91.2671 154.666 98.8519 156.179 105.678 154.666C112.505 153.154 169.897 138.777 169.897 138.777" stroke="#175CEA" stroke-width="1.36635" stroke-miterlimit="10"/>
<path d="M97.3312 149.367C97.3312 149.367 100.113 144.659 93.7912 141.717C87.4694 138.775 58.9023 124.399 58.9023 124.399" stroke="#175CEA" stroke-width="1.36635" stroke-miterlimit="10"/>
<defs>
<filter id="filter0_f_1302_5884" x="0.224277" y="0.596806" width="154.011" height="151.734" filterUnits="userSpaceOnUse" color-interpolation-filters="sRGB">
<feFlood flood-opacity="0" result="BackgroundImageFix"/>
<feBlend mode="normal" in="SourceGraphic" in2="BackgroundImageFix" result="shape"/>
<feGaussianBlur stdDeviation="20.4953" result="effect1_foregroundBlur_1302_5884"/>
</filter>
<filter id="filter1_f_1302_5884" x="23.7356" y="73.8746" width="178.26" height="126.157" filterUnits="userSpaceOnUse" color-interpolation-filters="sRGB">
<feFlood flood-opacity="0" result="BackgroundImageFix"/>
<feBlend mode="normal" in="SourceGraphic" in2="BackgroundImageFix" result="shape"/>
<feGaussianBlur stdDeviation="20.1537" result="effect1_foregroundBlur_1302_5884"/>
</filter>
</defs>
</svg>
