<svg width="409" height="416" viewBox="0 0 409 416" fill="none" xmlns="http://www.w3.org/2000/svg">
<path d="M407.313 42.3396C345.381 55.4851 297.98 106.596 285.435 168.018C281.433 187.19 281.154 206.952 284.611 226.23C287.896 243.992 297.972 261.735 314.689 268.541C320.641 270.874 327.064 271.751 333.423 271.096C339.783 270.442 345.894 268.276 351.245 264.779C362.699 257.226 364.828 242.189 363.44 229.511C361.516 211.702 353.922 194.918 344.196 179.886C314.439 133.84 256.732 106.689 202.591 121.198C172.79 129.191 145.854 146.321 124.213 168.11C104.235 188.179 88.5661 212.175 76.1793 237.566C65.456 259.563 56.8641 288.452 74.4764 309.635" stroke="black" stroke-width="4.13" stroke-linecap="round" stroke-linejoin="round"/>
<path d="M77.1565 314.679C76.4539 313.56 70.694 303.705 58.9203 302.194C52.919 301.507 46.8727 303.023 41.9043 306.458" stroke="black" stroke-width="4.13" stroke-linecap="round" stroke-linejoin="round"/>
<path d="M77.1562 314.679C75.2099 311.906 73.9058 308.735 73.3386 305.395C72.7714 302.055 72.9556 298.631 73.8775 295.372C77.3107 284.175 88.2956 280.901 89.0744 280.675" stroke="black" stroke-width="4.13" stroke-linecap="round" stroke-linejoin="round"/>
</svg>
