<svg width="274" height="306" viewBox="0 0 274 306" fill="none" xmlns="http://www.w3.org/2000/svg">
<path d="M297.331 106.95C292.456 99.7915 286.044 93.8126 278.563 89.4496C250.094 73.2278 213.377 87.1617 184.895 96.2983C163.852 103.062 136.035 111.833 114.611 102.268C96.704 94.2535 104.594 75.0487 112.375 62.445C120.156 49.8414 131.841 37.4494 147.574 37.1997C159.064 37.0084 170.863 45.0123 173.056 56.3382C174.721 64.952 171.003 73.6874 166.463 81.2129C158.22 94.8745 147.123 106.584 135.545 117.566C97.027 154.098 52.2369 184.268 3.00938 204.349" stroke="black" stroke-width="4.13" stroke-linecap="round" stroke-linejoin="round"/>
<path d="M3.00863 204.371C6.75753 202.096 10.1586 199.292 13.1069 196.046C19.1915 189.222 23.186 180.793 24.6144 171.762" stroke="black" stroke-width="4.13" stroke-linecap="round" stroke-linejoin="round"/>
<path d="M3.00877 204.371C5.38952 203.862 7.8108 203.564 10.2442 203.482C18.3889 203.3 26.4291 205.341 33.5005 209.387" stroke="black" stroke-width="4.13" stroke-linecap="round" stroke-linejoin="round"/>
</svg>
