<svg width="144" height="229" viewBox="0 0 144 229" fill="none" xmlns="http://www.w3.org/2000/svg">
<path d="M-48 24.5172C-34.6692 46.6769 -13.6331 65.5611 11.6899 72.3475C32.0297 77.7766 55.3631 75.5778 74.5091 66.7827C82.0969 63.299 89.106 57.9695 93.1305 50.6492C97.8967 41.9898 98.0052 31.3398 95.283 21.8389C94.1333 17.3453 92.0261 13.1536 89.1059 9.55094C86.1416 5.94277 81.9018 3.61607 77.2675 3.05418C71.6602 2.57461 66.2519 5.34343 61.8114 8.79995C31.062 32.6789 39.1111 80.2831 63.6744 105.537C73.7403 115.88 85.7055 126.304 100.23 125.607C102.292 125.507 107.049 123.924 107.049 123.924L105.087 126.123C97.5892 134.809 91.5659 142.03 85.5517 150.735C79.5375 159.439 77.4121 170.732 79.1034 181.219C83.7067 209.197 116.183 224.208 140.231 208.826" stroke="black" stroke-width="4.13" stroke-linecap="round" stroke-linejoin="round"/>
<path d="M123.482 202.899C125.591 205.558 128.504 207.462 131.784 208.328C134.817 208.952 137.934 209.05 141 208.618C138.852 210.562 137.069 212.876 135.736 215.449C134.018 218.96 134.461 222.851 135.339 226" stroke="black" stroke-width="4.13" stroke-linecap="round" stroke-linejoin="round"/>
</svg>
