<svg width="1376" height="924" viewBox="0 0 1376 924" fill="none" xmlns="http://www.w3.org/2000/svg">
<g clip-path="url(#clip0_13_4987)">
<path d="M0 12C0 5.37259 5.37258 0 12 0H1364C1370.63 0 1376 5.37258 1376 12V912C1376 918.627 1370.63 924 1364 924H12C5.37259 924 0 918.627 0 912V12Z" fill="white"/>
<g filter="url(#filter0_f_13_4987)">
<path fill-rule="evenodd" clip-rule="evenodd" d="M1058.94 386.135C1117.65 381.839 1129.08 481.16 1178.53 513.104C1220.01 539.903 1281.29 522.147 1318.95 554.103C1357.1 586.471 1377.85 637.681 1383.89 687.36C1389.79 735.847 1371.08 783.466 1352.35 828.574C1335.38 869.46 1304.39 900.999 1279.9 937.873C1253.27 977.962 1243.95 1035.03 1200.93 1056.57C1158 1078.06 1105.24 1035.8 1058.94 1048.49C990.782 1067.18 941.463 1166.63 873.784 1146.27C811.743 1127.59 825.567 1028.49 797.83 969.914C776.139 924.103 743.596 885.323 727.476 837.265C710.317 786.109 676.094 727.834 700.488 679.709C726.753 627.895 800.588 625.152 850.253 595.053C884.024 574.586 919.581 557.955 947.492 530.013C990.907 486.551 997.692 390.618 1058.94 386.135Z" fill="#FAC8E1"/>
</g>
<g filter="url(#filter1_f_13_4987)">
<path fill-rule="evenodd" clip-rule="evenodd" d="M138.942 557.135C197.646 552.839 209.081 652.16 258.531 684.104C300.014 710.903 361.294 693.147 398.953 725.103C437.101 757.471 457.848 808.681 463.893 858.36C469.793 906.847 451.076 954.466 432.35 999.574C415.378 1040.46 384.389 1072 359.899 1108.87C333.274 1148.96 323.95 1206.03 280.928 1227.57C237.996 1249.06 185.242 1206.8 138.942 1219.49C70.7817 1238.18 21.4626 1337.63 -46.2158 1317.27C-108.257 1298.59 -94.4327 1199.49 -122.17 1140.91C-143.861 1095.1 -176.404 1056.32 -192.524 1008.27C-209.683 957.109 -243.906 898.834 -219.512 850.709C-193.247 798.895 -119.412 796.152 -69.7475 766.053C-35.976 745.586 -0.419434 728.955 27.4922 701.013C70.9066 657.551 77.692 561.618 138.942 557.135Z" fill="#E4CBF2"/>
</g>
<g filter="url(#filter2_f_13_4987)">
<path fill-rule="evenodd" clip-rule="evenodd" d="M806.661 -214.899C993.786 -218.098 1030.23 -144.16 1187.86 -120.38C1320.09 -100.43 1515.43 -113.648 1635.47 -89.8594C1757.07 -65.7631 1823.2 -27.6408 1842.47 9.34145C1861.28 45.4366 1801.62 80.8852 1741.93 114.465C1687.82 144.902 1589.04 168.381 1510.98 195.831C1426.11 225.674 1396.39 268.158 1259.26 284.191C1122.4 300.192 954.247 268.729 806.661 278.179C589.394 292.091 432.184 366.126 216.454 350.964C18.6917 337.065 62.7578 263.292 -25.6579 219.683C-94.7998 185.58 -198.534 156.711 -249.917 120.935C-304.613 82.8528 -413.703 39.4716 -335.943 3.64572C-252.223 -34.9263 -16.8673 -36.9681 141.444 -59.3749C249.094 -74.6113 362.434 -86.9915 451.404 -107.792C589.792 -140.147 611.421 -211.562 806.661 -214.899Z" fill="#CBDFF2"/>
</g>
<g filter="url(#filter3_f_13_4987)">
<path fill-rule="evenodd" clip-rule="evenodd" d="M688.479 456.077C754.468 453.617 767.322 510.502 822.908 528.798C869.54 544.146 938.424 533.977 980.757 552.279C1023.64 570.818 1046.96 600.148 1053.76 628.601C1060.39 656.371 1039.35 683.644 1018.3 709.48C999.22 732.897 964.385 750.96 936.856 772.079C906.927 795.04 896.446 827.725 848.086 840.061C799.825 852.371 740.525 828.165 688.479 835.435C611.86 846.139 556.42 903.099 480.343 891.434C410.603 880.74 426.143 823.982 394.963 790.43C370.58 764.193 333.999 741.982 315.879 714.457C296.59 685.158 258.12 651.782 285.542 624.219C315.065 594.543 398.063 592.972 453.891 575.733C491.854 564.01 531.823 554.485 563.198 538.482C612 513.59 619.628 458.645 688.479 456.077Z" fill="#F5F5EB"/>
</g>
</g>
<defs>
<filter id="filter0_f_13_4987" x="192" y="-114" width="1693" height="1763" filterUnits="userSpaceOnUse" color-interpolation-filters="sRGB">
<feFlood flood-opacity="0" result="BackgroundImageFix"/>
<feBlend mode="normal" in="SourceGraphic" in2="BackgroundImageFix" result="shape"/>
<feGaussianBlur stdDeviation="250" result="effect1_foregroundBlur_13_4987"/>
</filter>
<filter id="filter1_f_13_4987" x="-728" y="57" width="1693" height="1763" filterUnits="userSpaceOnUse" color-interpolation-filters="sRGB">
<feFlood flood-opacity="0" result="BackgroundImageFix"/>
<feBlend mode="normal" in="SourceGraphic" in2="BackgroundImageFix" result="shape"/>
<feGaussianBlur stdDeviation="250" result="effect1_foregroundBlur_13_4987"/>
</filter>
<filter id="filter2_f_13_4987" x="-863" y="-715" width="3209" height="1568" filterUnits="userSpaceOnUse" color-interpolation-filters="sRGB">
<feFlood flood-opacity="0" result="BackgroundImageFix"/>
<feBlend mode="normal" in="SourceGraphic" in2="BackgroundImageFix" result="shape"/>
<feGaussianBlur stdDeviation="250" result="effect1_foregroundBlur_13_4987"/>
</filter>
<filter id="filter3_f_13_4987" x="-224" y="-44" width="1779" height="1437" filterUnits="userSpaceOnUse" color-interpolation-filters="sRGB">
<feFlood flood-opacity="0" result="BackgroundImageFix"/>
<feBlend mode="normal" in="SourceGraphic" in2="BackgroundImageFix" result="shape"/>
<feGaussianBlur stdDeviation="250" result="effect1_foregroundBlur_13_4987"/>
</filter>
<clipPath id="clip0_13_4987">
<path d="M0 12C0 5.37259 5.37258 0 12 0H1364C1370.63 0 1376 5.37258 1376 12V912C1376 918.627 1370.63 924 1364 924H12C5.37259 924 0 918.627 0 912V12Z" fill="white"/>
</clipPath>
</defs>
</svg>
