<svg width="98" height="22" viewBox="0 0 98 22" fill="none" xmlns="http://www.w3.org/2000/svg">
<path d="M18.4589 13.213H15.2305H13.0858H12.5561L9.32762 16.471L6.09913 13.213H5.5694H3.42476H0.196289V16.471H4.76171L7.04466 18.7753L9.32762 21.0795L11.6106 18.7753L13.8931 16.471H18.4589V13.213Z" fill="black"/>
<path d="M18.4589 6.69434H0.196289V9.95289H18.4589V6.69434Z" fill="black"/>
<path d="M18.4589 0.178101H0.196289V3.43666H18.4589V0.178101Z" fill="black"/>
<path d="M25.7183 0.178101H28.6227V16.168H25.7183V0.178101Z" fill="black"/>
<path d="M33.1446 15.7121C32.2274 15.2012 31.5014 14.5018 30.9664 13.6132C30.4304 12.7251 30.1631 11.7475 30.1631 10.6818C30.1631 9.61599 30.4304 8.63888 30.9664 7.7503C31.5014 6.86215 32.2274 6.16239 33.1446 5.65144C34.0609 5.14049 35.0553 4.88501 36.1262 4.88501C37.1968 4.88501 38.1906 5.14049 39.1078 5.65144C40.024 6.16239 40.7501 6.8617 41.286 7.7503C41.8211 8.63843 42.0893 9.61599 42.0893 10.6818C42.0893 11.7475 41.8215 12.7246 41.286 13.6132C40.7501 14.5013 40.024 15.2012 39.1078 15.7121C38.1906 16.2231 37.1968 16.4785 36.1262 16.4785C35.0553 16.4785 34.0614 16.2231 33.1446 15.7121ZM37.6555 13.3806C38.1174 13.1216 38.4877 12.7551 38.7664 12.2813C39.0448 11.8075 39.1849 11.2746 39.1849 10.6822C39.1849 10.0903 39.0453 9.55737 38.7664 9.08317C38.4877 8.60935 38.1174 8.24289 37.6555 7.9838C37.1937 7.72478 36.6834 7.59501 36.1262 7.59501C35.5686 7.59501 35.0592 7.72478 34.5969 7.9838C34.135 8.24289 33.7644 8.60935 33.4855 9.08317C33.2063 9.55692 33.0675 10.0903 33.0675 10.6822C33.0675 11.2746 33.2063 11.8075 33.4855 12.2813C33.764 12.7551 34.1345 13.1216 34.5969 13.3806C35.0588 13.6396 35.5681 13.7694 36.1262 13.7694C36.6834 13.7689 37.1932 13.6396 37.6555 13.3806Z" fill="black"/>
<path d="M43.6279 0.178101H46.5322V9.70547L50.3166 5.19725H53.7707L49.5023 10.283L54.0788 16.168H50.3605L46.5322 11.0822V16.168H43.6279V0.178101Z" fill="black"/>
<path d="M56.8182 15.7689C56.0038 15.295 55.3437 14.6177 54.838 13.7367C54.3317 12.8562 54.0786 11.8379 54.0786 10.6831C54.0786 9.63205 54.3207 8.66206 54.8047 7.77394C55.2887 6.88583 55.9489 6.18247 56.7854 5.66438C57.6213 5.14626 58.5377 4.88721 59.5355 4.88721C60.2395 4.88721 60.8813 5.00577 61.4603 5.24245C62.0396 5.47914 62.4833 5.7977 62.7914 6.19724V5.19771H65.6959V16.1684H62.7914V15.169C62.3366 15.5985 61.8525 15.9238 61.3393 16.146C60.8255 16.368 60.1654 16.4794 59.3587 16.4794C58.4791 16.4798 57.6324 16.2427 56.8182 15.7689ZM62.1097 12.8821C62.6523 12.2902 62.9241 11.5574 62.9241 10.6835C62.9241 9.81019 62.6523 9.07727 62.1097 8.48491C61.5671 7.89293 60.8481 7.59678 59.9536 7.59678C59.0586 7.59678 58.3395 7.89338 57.7969 8.48491C57.2543 9.07727 56.983 9.81019 56.983 10.6835C56.983 11.5574 57.2543 12.2902 57.7969 12.8821C58.3395 13.4746 59.0581 13.7703 59.9536 13.7703C60.8481 13.7703 61.5671 13.4746 62.1097 12.8821Z" fill="black"/>
<path d="M67.8086 0.178101H70.7131V16.168H67.8086V0.178101Z" fill="black"/>
<path d="M72.9821 3.1534C72.6301 2.79816 72.4541 2.36864 72.4541 1.8653C72.4541 1.34718 72.6301 0.906917 72.9821 0.544062C73.3341 0.181652 73.7596 0 74.2583 0C74.7713 0 75.208 0.181652 75.5673 0.544062C75.9262 0.906917 76.1068 1.34718 76.1068 1.8653C76.1068 2.36864 75.9269 2.79816 75.5673 3.1534C75.208 3.50866 74.7713 3.68629 74.2583 3.68629C73.7596 3.68673 73.3341 3.50866 72.9821 3.1534ZM72.8278 5.19677H75.7322V16.1675H72.8278V5.19677Z" fill="black"/>
<path d="M77.7134 15.4107L78.3739 12.657H78.5056C79.4588 13.3975 80.4346 13.7674 81.4321 13.7674C81.8429 13.7674 82.1762 13.6895 82.4334 13.5343C82.69 13.3791 82.8187 13.1536 82.8187 12.8569C82.8187 12.546 82.6674 12.2945 82.3672 12.1022C82.0663 11.9097 81.5051 11.6731 80.6843 11.3912C79.8485 11.1102 79.1993 10.7026 78.7373 10.1697C78.2754 9.63681 78.0436 9.00778 78.0436 8.28207C78.0436 7.26061 78.4213 6.43869 79.1766 5.81678C79.932 5.19487 80.889 4.88391 82.0483 4.88391C82.6351 4.88391 83.1557 4.93939 83.6109 5.05035C84.0653 5.16131 84.4979 5.34296 84.9087 5.59441L85.0192 8.39256H84.865C84.3369 8.05207 83.8674 7.79709 83.4567 7.62662C83.0459 7.45658 82.584 7.37111 82.0708 7.37111C81.7037 7.37111 81.4028 7.44538 81.1688 7.59304C80.9341 7.74112 80.8167 7.934 80.8167 8.17068C80.8167 8.48163 80.9634 8.73707 81.2568 8.93708C81.5495 9.13709 82.1002 9.3778 82.9067 9.65876C83.8306 9.96971 84.5309 10.3473 85.0079 10.7916C85.4849 11.2354 85.7234 11.924 85.7234 12.8569C85.7234 13.6269 85.5323 14.286 85.1509 14.8336C84.7695 15.3817 84.2669 15.7925 83.6432 16.0663C83.0202 16.3401 82.3342 16.477 81.5864 16.477C80.075 16.477 78.784 16.1217 77.7134 15.4107Z" fill="black"/>
<path d="M89.8148 15.7001C88.9052 15.1819 88.1905 14.4751 87.6699 13.5793C87.1484 12.6835 86.8882 11.688 86.8882 10.5923C86.8882 9.52654 87.1342 8.56013 87.6254 7.69434C88.1175 6.82815 88.7999 6.14359 89.6726 5.64026C90.5445 5.13691 91.5316 4.88501 92.6315 4.88501C93.7457 4.88501 94.7109 5.14809 95.5249 5.67336C96.3382 6.19908 96.9544 6.8984 97.3727 7.77217C97.7909 8.64602 98.0001 9.586 98.0001 10.5927V11.4589H89.6605C89.8366 12.2884 90.2142 12.9176 90.7935 13.3466C91.3735 13.7761 92.1395 13.9904 93.0934 13.9904C94.5454 13.9904 95.8138 13.5094 96.8994 12.547H97.2079L97.0973 15.3228C96.4375 15.7081 95.7409 15.9966 95.0074 16.1891C94.2739 16.3815 93.5697 16.4776 92.8948 16.4776C91.7513 16.4771 90.7243 16.2181 89.8148 15.7001ZM95.0961 9.45942C95.0224 8.79317 94.747 8.27105 94.2708 7.8939C93.7938 7.51673 93.2108 7.32747 92.5216 7.32747C91.8468 7.32747 91.2562 7.50912 90.7499 7.87149C90.2444 8.23438 89.9028 8.76372 89.7267 9.45942H95.0961Z" fill="black"/>
</svg>
