<svg width="109" height="73" viewBox="0 0 109 73" fill="none" xmlns="http://www.w3.org/2000/svg">
<path d="M23.7046 23.8545C23.7887 23.7386 23.8589 23.6446 23.925 23.5506C24.4442 22.8465 25.015 22.1665 25.6347 21.5139C26.0756 21.0251 26.5226 20.5426 26.9074 20.0272C27.0968 19.7944 27.3113 19.5748 27.5488 19.3707C27.7723 19.1411 27.9733 18.8987 28.1501 18.6454C28.3846 18.332 28.8355 18.1252 28.9017 17.7367C29.1301 17.5988 29.2464 17.3858 29.4268 17.2244C29.8276 16.8641 30.0701 16.427 30.487 16.0682C30.9039 15.7094 31.1665 15.2943 31.5233 14.9167C32.1713 14.2274 32.8067 13.5328 33.4293 12.833C33.9103 12.2972 34.4635 11.8069 34.9125 11.2523C35.159 10.9468 35.4857 10.6757 35.7643 10.3828C36.4197 9.69187 37.0791 9.00567 37.7926 8.3461C38.43 7.75704 39.0373 7.14447 39.6967 6.56794C40.4042 5.95067 41.0676 5.29894 41.7691 4.67697C42.1219 4.36364 42.5167 4.0879 42.8915 3.7918C43.1781 3.56464 43.4427 3.32181 43.7493 3.11031C44.0259 2.92544 44.2444 2.69514 44.527 2.51184C44.7097 2.41757 44.8832 2.31284 45.0461 2.1985C45.216 2.0344 45.4191 1.89311 45.6474 1.78021C45.8433 1.68436 46.0321 1.57974 46.2126 1.46687C46.3268 1.4266 46.4475 1.39866 46.5713 1.38384C47.0143 1.2726 47.4452 1.02664 47.9022 1.0705C47.9423 1.0705 48.0104 1.0047 48.0184 1L48.9143 1.11907C49.1388 1.27573 49.4054 1.44963 49.676 1.62824C49.755 1.66603 49.8283 1.71071 49.8944 1.76141C50.4276 2.34264 50.9307 2.9458 51.556 3.4581C51.7123 3.58813 51.8727 3.71504 52.031 3.84507C52.5301 4.25554 52.9991 4.69577 53.5382 5.06707C53.7927 5.24254 54.0313 5.42897 54.2798 5.60914C54.6862 5.89784 55.0029 6.25524 55.2058 6.65411C55.28 6.76721 55.3722 6.87249 55.4804 6.96744C55.9333 7.47034 55.9333 7.47034 55.9934 8.10014C56.0225 8.55895 55.9548 9.01838 55.793 9.46001C55.5746 9.89241 55.3461 10.3248 55.0735 10.7431C54.8731 11.0439 54.6907 11.351 54.4722 11.6471C54.2537 11.9432 54.0713 12.2518 53.8509 12.5463C53.6785 12.7798 53.434 12.9631 53.2716 13.2247C53.0271 13.6211 52.7205 14.008 52.4278 14.395C52.1693 14.735 51.8466 15.0499 51.552 15.3742C51.5239 15.4055 51.4558 15.4306 51.4518 15.4541C51.3976 15.8457 50.9707 16.1089 50.7683 16.452C50.5648 16.7746 50.3261 17.0828 50.0548 17.3732C49.6339 17.8432 49.1869 18.3132 48.9003 18.8459C48.4093 19.1279 48.3131 19.6371 47.8681 19.9426C47.7739 20.2465 47.4853 20.494 47.2668 20.7259C46.9502 21.0392 46.7938 21.4466 46.3729 21.7082C46.2285 21.7992 46.1224 21.922 46.0683 22.0607C46.0136 22.2058 45.8959 22.3316 45.7356 22.4163C45.6193 22.5025 45.7536 22.7297 45.4369 22.7297C45.3948 22.7297 45.3107 22.9474 45.2165 23.043C44.535 23.7762 43.9417 24.5548 43.2122 25.2692C42.7853 25.6891 42.4526 26.1716 42.0697 26.6228C41.9061 26.8209 41.7288 27.0118 41.5386 27.1947C41.3562 27.3654 41.3562 27.6192 41.0796 27.7383C40.4042 28.6423 39.5544 29.4616 38.8749 30.364C38.6966 30.6037 38.4641 30.8058 38.2897 31.0377C37.7064 31.821 37.0871 32.5699 36.4437 33.3219C36.3034 33.488 36.1471 33.6556 36.0289 33.8201C35.9214 34.0016 35.7868 34.1725 35.628 34.3293C35.5919 34.3606 35.5999 34.4264 35.5759 34.5141C35.7763 34.4201 35.9367 34.3449 36.095 34.2635C36.9083 33.8401 37.7999 33.5168 38.7386 33.3047C38.8912 33.264 39.0556 33.2591 39.2116 33.2906C39.7708 33.4049 40.3401 33.4864 40.6688 33.8969C40.7048 33.9423 40.805 33.9423 40.8692 33.9783C41.1923 34.1619 41.4793 34.3815 41.721 34.6301C42.1796 35.1614 42.7046 35.6558 43.2883 36.1059C43.6271 36.3753 43.9057 36.6981 44.2223 36.9863C44.6196 37.3754 45.0452 37.7463 45.4971 38.0971C45.7295 38.2647 45.956 38.4418 46.1885 38.6125C46.421 38.7833 46.5894 38.9729 46.8079 39.1483C46.896 39.222 47.0083 39.2768 47.1065 39.3442C47.242 39.4235 47.3651 39.515 47.4733 39.6168C47.7879 39.9661 48.2129 40.2168 48.5877 40.5129C48.762 40.6508 48.8883 40.8435 49.0967 40.939C49.5673 41.1546 49.9858 41.433 50.3334 41.7615C50.4894 41.9128 50.6553 42.0576 50.8304 42.1955C51.0028 42.3318 51.1371 42.4963 51.3215 42.6263C51.4922 42.7805 51.647 42.945 51.7845 43.1183C52.2274 43.5476 52.4419 44.1163 52.8387 44.5737C52.8527 44.5878 52.8507 45.133 52.8387 45.1878C52.8267 45.3445 52.8187 45.4886 52.8067 45.6923C52.7369 45.7579 52.6857 45.8342 52.6563 45.9163C52.5962 46.4051 52.2254 46.8282 51.9909 47.2825C51.7905 47.6695 51.3896 47.9734 51.2473 48.3792C50.8204 48.7207 50.6861 49.2252 50.1871 49.5244L50.2592 49.6027C50.1959 49.7271 50.0979 49.8389 49.9724 49.9299C49.8469 50.021 49.697 50.089 49.5337 50.1291C49.4375 50.5788 49.0146 50.7934 48.6137 51.0253C48.4333 51.1459 48.3652 51.3198 48.1447 51.4514C47.9242 51.583 47.6857 51.6519 47.5575 51.8431C47.4991 51.9387 47.4138 52.0228 47.3079 52.089C47.202 52.1552 47.0784 52.2018 46.9462 52.2253C46.9261 52.299 46.9201 52.4462 46.88 52.4603C46.4792 52.606 46.2607 53.0086 45.8278 53.1214L45.7736 53.3314C45.7536 53.3502 45.7396 53.3705 45.7215 53.3768L45.1944 53.557L45.3006 53.6745C44.5771 54.1147 44.044 54.7226 43.3765 55.2208C42.9757 55.5232 42.665 55.9274 42.212 56.2C42.0878 56.2752 41.9515 56.3378 41.8112 56.4099L41.8954 56.5227C41.6609 56.6794 41.4143 56.836 41.1859 57.0146C41.0058 57.1867 40.8102 57.3485 40.6006 57.4987C40.3521 57.6381 40.2819 57.8935 39.9673 58.0048C39.7328 58.0878 39.5544 58.3541 39.3199 58.4904C39.0854 58.6267 38.9351 58.8445 38.6845 58.9792C38.4747 59.1252 38.2778 59.2823 38.0953 59.4492C37.8708 59.6059 37.6283 59.7626 37.3236 59.9521C37.3236 59.9443 37.3036 60.0148 37.2936 60.0477C35.9788 60.9877 34.7161 61.9387 33.285 62.7815L33.2469 62.9382C32.4452 63.3064 31.8119 63.8892 30.9941 64.2981L30.9059 64.5237C30.8462 64.524 30.7871 64.533 30.7316 64.5503C30.5327 64.642 30.3443 64.7468 30.1684 64.8636C30.0261 64.9639 29.9459 65.1315 29.7414 65.1644C29.7414 65.3415 29.5631 65.2898 29.4689 65.3493C29.1863 65.5088 28.9184 65.6837 28.6672 65.8726C28.4166 66.0841 28.0378 66.1326 27.8654 66.3191C27.6029 66.5995 27.2441 66.7342 26.9776 66.9786C26.9635 66.9927 26.9595 67.0209 26.9455 67.0256C26.7711 67.0914 26.5166 67.1228 26.4364 67.2277C26.3208 67.3558 26.1711 67.4627 25.9975 67.5411C25.7349 67.6977 25.4202 67.7823 25.2098 68.0549C25.0875 68.2116 24.7829 68.2993 24.4862 68.4576C24.4101 68.7035 24.0252 68.7709 23.7687 68.8821C23.452 69.0153 23.2516 69.2769 22.9269 69.3678C22.6022 69.4587 22.3918 69.6373 22.1252 69.7845C21.7502 70.0013 21.3472 70.1866 20.9226 70.3376C20.657 70.4406 20.4075 70.5673 20.1791 70.7151C19.9308 70.8659 19.6619 70.9946 19.3773 71.099C18.8622 71.2791 18.3752 71.5439 17.8641 71.71C17.2889 71.8948 16.7237 72.1157 16.1625 72.3366C15.6013 72.5575 15.0461 72.6406 14.4949 72.8395C14.1823 72.9539 13.8676 72.7925 13.5309 72.9492C13.3304 72.7581 13.0338 73.0526 12.7813 72.9915C12.6189 72.9523 12.4345 72.8348 12.198 72.9758C12.0337 72.8066 11.7551 72.8787 11.5166 72.8677C11.2781 72.8568 11.0516 72.9053 10.9013 72.7581C10.4723 72.8364 10.1978 72.628 9.85303 72.545C9.40006 72.4353 9.09942 72.1643 8.8068 71.9089C8.1955 71.3778 7.52004 70.8953 7.03901 70.2608C6.98389 70.2045 6.91594 70.1567 6.83859 70.1198C6.73236 69.9146 6.63815 69.7469 6.55798 69.5777C6.40566 69.2769 6.26335 68.973 6.10702 68.6753C6.01507 68.5047 5.91207 68.3379 5.79838 68.1756C5.09087 67.1525 4.1288 66.2956 3.37519 65.3133C2.94027 64.7399 2.55946 64.132 2.05839 63.5899C1.97021 63.4975 1.97622 63.3064 1.85797 63.2672C1.69763 63.2092 1.68159 63.098 1.60141 63.0024C1.30894 62.634 1.05748 62.2467 0.849811 61.8447C0.661409 61.5204 0.448969 61.218 0.262572 60.8858C0.21137 60.7794 0.198193 60.664 0.224478 60.5522C0.251826 60.44 0.245812 60.3245 0.206887 60.2144C0.167961 60.1044 0.0971697 60.0029 0 59.9177C0.132457 59.5706 0.158549 59.204 0.0761634 58.8476C0.0337014 58.6329 0.0807936 58.4132 0.210459 58.221C0.338732 58.033 0.438942 57.8888 0.356767 57.7102C0.356767 57.6961 0.444956 57.6335 0.483037 57.6021C0.483037 57.3875 0.246533 57.2371 0.382823 57.024C0.675448 56.5681 0.663414 56.0965 0.875867 55.6501C1.11237 55.1534 1.27673 54.6505 1.50722 54.1555C1.6174 53.9708 1.74259 53.7918 1.88202 53.6197C2.14257 53.0886 2.34502 52.4744 2.76992 51.8853C2.9353 51.662 3.06519 51.4236 3.15673 51.1757C3.25073 50.9249 3.44018 50.7025 3.69988 50.538C3.835 50.0254 4.10384 49.5401 4.48958 49.1124C4.65794 48.9416 4.6379 48.7786 4.77019 48.6173C5.19108 48.1018 5.47968 47.5347 5.90659 47.0177C6.22451 46.6895 6.45736 46.3159 6.59206 45.9179C6.61211 45.8427 6.71633 45.7612 6.77045 45.6892C7.31962 44.9215 7.88081 44.1601 8.39591 43.3783C8.64792 43.0094 8.9453 42.6604 9.28382 42.3365L9.38601 41.9433C9.60849 41.713 9.83098 41.561 9.90915 41.3887C10.1256 40.9093 10.5525 40.5145 10.8552 40.0727C10.996 39.8223 11.1801 39.5883 11.4023 39.3771C11.6028 39.2204 11.6348 38.9321 11.8493 38.7159C12.0637 38.4997 12.1439 38.2287 12.3343 38.0062C12.5247 37.7838 12.669 37.508 12.8955 37.3294C13.3284 36.9895 13.5569 36.5665 13.7934 36.1748C14.1309 35.6181 14.5471 35.0926 15.0341 34.6081C15.174 34.4892 15.2769 34.3466 15.3347 34.1914C15.3908 33.8875 15.6674 33.6744 15.8458 33.4237C16.0242 33.1731 16.1104 32.913 16.421 32.7469C16.6515 32.313 17.1526 31.9996 17.3671 31.5516C17.4479 31.3575 17.5948 31.1842 17.792 31.0502C17.9423 30.9531 17.9723 30.7197 18.1146 30.5802C18.2569 30.4408 18.2509 30.2403 18.4854 30.1102C18.6446 30.0076 18.7496 29.8625 18.7801 29.7029C18.7961 29.4663 19.0807 29.4146 19.1809 29.2454C19.2852 29.048 19.5517 28.9086 19.5818 28.6799C19.5818 28.6532 19.6319 28.6203 19.6599 28.5921C20.2111 28.0736 20.5759 27.4673 21.0629 26.9142C21.1581 26.825 21.2634 26.7427 21.3776 26.6683L21.4598 26.3549C21.8606 26.0604 22.0611 25.6625 22.3617 25.3225C22.6624 24.9825 22.9329 24.6676 23.2035 24.3324C23.3569 24.1647 23.5243 24.0051 23.7046 23.8545Z" fill="#E4CBF2"/>
<path d="M86.114 63.3213L86.0638 63.5154L84.0577 64.4161L84.0075 64.6101C83.9499 64.6228 83.8941 64.6402 83.841 64.6622C83.2392 64.9776 82.5792 65.1606 81.9934 65.5534C81.6062 65.8137 81.1227 65.9809 80.6834 66.1954C80.1899 66.4336 79.6803 66.6434 79.1768 66.8485C78.7475 67.022 78.3202 67.2018 77.8949 67.3832C77.4696 67.5646 77.0142 67.664 76.619 67.9353C76.5628 67.9747 76.4564 67.9479 76.3722 67.9605C75.8597 68.0813 75.3744 68.2644 74.9338 68.5032H74.3861C74.1855 68.8439 73.8485 68.7067 73.5736 68.8186C73.2407 68.9191 72.8844 68.9626 72.5284 68.9464C72.3278 68.9464 72.1272 69.0505 71.9266 68.9685C71.726 68.8865 71.4652 68.9685 71.2405 68.9496C71.0399 68.9338 70.8714 68.8739 70.6828 68.8455C70.4881 68.8155 70.291 68.7961 70.093 68.7871C69.9225 68.7871 69.7158 68.8739 69.5995 68.7335C69.2304 68.795 69.0839 68.5584 68.8853 68.418C68.4961 68.1325 68.1671 67.787 67.7839 67.4968C67.2302 67.087 66.7382 66.6287 66.3174 66.1307C66.1168 65.891 65.9583 65.6275 65.7838 65.3751L65.9262 65.2742C65.474 64.8386 65.1702 64.3196 65.0435 63.7662C65.0298 63.7203 65.0038 63.6773 64.9673 63.64C64.2331 62.774 63.5149 61.8969 62.7505 61.053C62.6121 60.8953 62.4978 60.7375 62.3493 60.5798C62.2008 60.4221 62.0464 60.2438 61.8959 60.075C61.7188 59.9218 61.569 59.7504 61.4505 59.5655C61.0092 58.5986 60.1265 57.925 59.4825 57.0921C59.05 56.5358 58.7128 55.937 58.4795 55.3112C58.3612 55.0297 58.2628 54.7432 58.1846 54.4531C58.1143 54.1376 58.1284 53.8032 58.0481 53.4925C58.0281 53.4152 58.008 53.3347 58 53.3032C58.0852 53.1519 58.1465 52.993 58.1826 52.8299C58.1826 52.5429 57.9358 52.2842 58.3089 51.9671C58.1364 51.8504 58.337 51.6516 58.2949 51.5207C58.2635 51.3215 58.3256 51.1202 58.4694 50.9544C58.6149 50.7242 58.715 50.4779 58.7663 50.224C58.8167 49.9889 58.9142 49.7616 59.0552 49.5505C59.1776 49.3801 59.3541 49.2192 59.2418 48.9732C59.1475 48.7665 59.3561 48.4558 59.5768 48.2964C59.6129 48.1229 59.5889 47.9526 59.6751 47.88C59.9981 47.615 60.0182 47.3137 60.0904 47.0692L60.6341 46.4304C60.6782 46.0108 61.0072 45.6117 61.3803 45.2157C61.4819 45.074 61.5678 44.9258 61.6371 44.7725C62.0705 44.0579 62.584 43.3702 63.0695 42.6729C63.5771 41.9442 64.1007 41.2233 64.6223 40.5008C64.7246 40.3589 64.7767 40.198 64.879 40.056C65.1178 39.7263 65.3525 39.3935 65.6273 39.0796C66.0627 38.5827 66.3877 38.0464 66.7648 37.529C67.0697 37.1078 67.2964 36.6393 67.7679 36.2907C67.8903 36.2074 67.9788 36.0977 68.0227 35.9752C68.0768 35.6676 68.3517 35.4515 68.5503 35.2102C69.0177 34.6455 69.4069 34.0524 69.8242 33.475C69.8462 33.4435 69.8482 33.4025 69.8763 33.3741C70.1157 33.1505 70.3337 32.9132 70.5283 32.6642C70.6985 32.4045 70.905 32.1606 71.1442 31.937C71.1883 31.8944 71.2565 31.8487 71.2686 31.8061C71.3609 31.4291 71.728 31.1751 71.9808 30.8723C72.3278 30.4495 72.6608 30.011 72.9838 29.5772C73.1951 29.2526 73.4414 28.9428 73.7201 28.6513C74.0361 28.3379 74.3054 27.9971 74.5225 27.6354C74.7266 27.3504 74.9565 27.0773 75.2106 26.8183C75.6119 26.3893 75.9108 25.9223 76.308 25.4933C76.7052 25.0642 77.0523 24.6178 77.4154 24.1746C77.4615 24.0955 77.4952 24.0124 77.5157 23.9269L77.955 23.6603L78.0473 23.3038C78.7856 22.523 79.3734 21.6964 80.0535 20.9188C80.2761 20.6648 80.559 20.414 80.6854 20.1411C80.9422 19.5859 81.6002 19.2073 81.8068 18.6426C82.1519 18.5243 82.0596 18.2103 82.2783 18.0431C82.4969 17.8759 82.5812 17.6582 82.7397 17.5021C83.0321 17.1956 83.2918 16.8706 83.5161 16.5304C83.9173 15.9452 84.5031 15.4262 84.8301 14.8063C84.9123 14.6485 85.1932 14.5365 85.2714 14.3804C85.3406 14.2032 85.4815 14.0487 85.6726 13.9403L85.7489 13.65C86.1501 13.1279 86.7138 12.7367 86.9004 12.1704C86.9442 12.0864 87.0083 12.0098 87.089 11.9448C87.3541 11.7121 87.5665 11.4453 87.7169 11.1561C87.8272 10.9211 88.1723 10.7318 88.3328 10.4952C88.8744 9.69702 89.5766 8.9714 90.1383 8.18112C90.4117 7.7976 90.738 7.43893 91.1113 7.11163C91.2471 6.98692 91.3674 6.85222 91.4704 6.70939C91.5886 6.51353 91.7261 6.32524 91.8816 6.14625C92.5216 5.56103 92.979 4.87327 93.5969 4.27701C94.0102 3.87792 94.3993 3.46464 94.8126 3.0624C95.1736 2.67333 95.5684 2.30439 95.9942 1.95821C96.1086 1.87145 96.1948 1.74683 96.3012 1.6585C96.5686 1.44817 96.8361 1.23259 97.1036 1.01175C97.6647 0.567189 98.3524 0.234101 99.1097 0.0400647C99.2682 -0.00410299 99.511 -0.0545831 99.5852 0.145749C99.642 0.0776222 99.7301 0.0294002 99.831 0.0111717C99.932 -0.00705683 100.038 0.00612144 100.127 0.0479499C100.398 0.226198 100.729 0.330307 100.985 0.530639C101.424 0.882283 101.808 1.27298 102.131 1.69477C102.332 1.94085 102.787 1.9866 102.767 2.37937C103.108 2.49453 103.2 2.81474 103.455 2.99772C104.089 3.44729 104.635 3.97257 105.241 4.44579C105.627 4.77654 105.991 5.12299 106.332 5.48374C106.532 5.45534 106.623 5.64147 106.795 5.70142C107.012 5.78029 107.06 5.96011 107.229 6.05791C107.39 6.16532 107.535 6.28766 107.66 6.4223C107.784 6.54534 107.881 6.69046 108.013 6.80719C108.145 6.92392 108.23 7.08955 108.438 7.1763C108.599 7.24413 108.639 7.46497 108.735 7.61956C108.831 7.77414 108.914 7.93504 109 8.09278C108.984 8.29311 108.968 8.49818 108.948 8.74741C108.819 8.86729 108.691 9.03923 108.868 9.20802C108.786 9.31659 108.719 9.43126 108.667 9.55032C108.567 9.84845 108.525 10.1482 108.308 10.44C108.021 10.8296 108.003 11.2697 107.734 11.6672C107.429 12.1199 107.227 12.5963 106.966 13.0601C106.847 13.2746 106.639 13.4828 106.589 13.691C106.512 14.0065 106.145 14.2069 106.081 14.535C106.001 14.8186 105.849 15.0867 105.636 15.3237C105.206 15.8474 104.926 16.4152 104.534 16.95C104.284 17.2939 104.115 17.6709 103.884 18.0258C103.761 18.2233 103.605 18.4074 103.421 18.5731C103.248 18.7309 103.18 18.958 103.058 19.1521C102.965 19.3371 102.842 19.5117 102.691 19.671C102.49 19.8461 102.626 20.1001 102.289 20.2578C102.125 20.3351 102.041 20.5891 101.922 20.7642C101.816 20.9638 101.687 21.1559 101.539 21.3384C100.949 21.933 100.592 22.6224 100.093 23.2533C99.621 23.8094 99.2032 24.3926 98.8429 24.998C98.7266 25.2093 98.3695 25.304 98.4216 25.5611C98.0445 25.8766 97.896 26.2836 97.6312 26.6416C97.3664 26.9997 97.0454 27.3436 96.8107 27.7111C96.4717 28.2459 96.0243 28.7333 95.6612 29.257C95.4283 29.649 95.1601 30.0275 94.8587 30.3896C94.4575 30.8076 94.2188 31.2729 93.8557 31.7004C93.6009 32.008 93.4023 32.3661 93.1676 32.6989C92.8446 33.1564 92.6299 33.6596 92.1505 34.0539C91.9672 34.4242 91.7465 34.7824 91.4904 35.125C91.027 35.8506 90.5516 36.5715 90.044 37.2798C89.9979 37.3444 89.9397 37.4028 89.8835 37.469C90.0866 37.7179 90.3055 37.9585 90.5395 38.1899C90.9969 38.6032 91.3821 39.0733 91.8997 39.4424C92.0442 39.5739 92.1744 39.7148 92.2889 39.8636C92.7443 40.3368 93.3281 40.7075 93.7995 41.1634C94.1566 41.5072 94.5899 41.777 94.9611 42.1098C95.4264 42.5587 95.9457 42.9713 96.5118 43.3418C96.5258 43.3418 96.5539 43.3418 96.5599 43.3607C96.8348 43.8118 97.3925 44.0295 97.7636 44.4002C97.9303 44.5785 98.1598 44.7145 98.4237 44.7914C98.7306 44.875 98.9533 45.1069 99.184 45.3057C99.4749 45.5517 99.7036 45.8514 100.019 46.0723C100.492 46.4051 100.801 46.8515 101.182 47.2475C101.705 47.8174 102.134 48.437 102.46 49.0915C102.489 49.1331 102.523 49.1722 102.562 49.2082C102.562 49.4811 102.424 49.7571 102.464 50.0442C102.47 50.3367 102.352 50.6225 102.129 50.8566C101.928 51.049 102.045 51.3014 101.74 51.4387C101.513 51.5412 101.527 51.7857 101.308 51.9403C101.128 52.068 101.054 52.3173 100.859 52.6296L100.542 52.8236C100.494 52.9302 100.43 53.0323 100.354 53.1281C99.8781 53.5571 99.5511 54.0745 99.0736 54.5052C98.7025 54.849 98.2872 55.1487 97.9161 55.4879C97.545 55.827 97.1357 56.0889 96.7666 56.4123C96.5459 56.6047 96.3072 56.7987 96.0624 56.9738C95.1857 57.6048 94.305 58.2184 93.4284 58.8399C93.2524 58.9419 93.0842 59.0519 92.9248 59.1696C92.7724 59.3021 92.5737 59.4251 92.3972 59.5608C92.2198 59.6763 92.0321 59.7818 91.8355 59.8763C91.6489 59.9835 91.5085 60.1697 91.2678 60.1917C91.005 60.5987 90.4352 60.665 90.1323 60.9536C89.8294 61.2423 89.4562 61.3433 89.1834 61.6351C88.9828 61.8575 88.6016 61.9805 88.3027 62.1493C88.1803 62.2041 88.0682 62.2721 87.9697 62.3512C87.7109 62.6084 87.3678 62.6667 87.0529 62.8245C86.7379 62.9822 86.4671 63.1257 86.114 63.3213Z" fill="#E4CBF2"/>
</svg>
