<svg width="368" height="461" viewBox="0 0 368 461" fill="none" xmlns="http://www.w3.org/2000/svg">
<path d="M294.743 147.346C291.606 175.217 291.802 203.141 294.848 231.035C298.129 261.037 302.654 290.788 313.896 318.846C316.7 325.844 320.37 332.521 324.195 338.981C327.549 344.647 332.526 347.722 339.335 346.475C346.855 345.097 351.686 340.742 352.497 332.72C353.163 326.175 353.947 319.37 352.957 312.954C345.554 264.072 348.661 215.729 359.258 167.759C362.466 153.244 365.883 138.776 368.882 124.211C369.978 119.046 370.506 113.767 370.458 108.477C370.262 97.0107 363.599 89.9685 353.119 92.4145C330.188 97.7655 310.324 108.811 299.241 132.162C297.035 136.806 296.225 142.2 294.743 147.346Z" fill="#F9F9F3"/>
<path d="M404.996 241.708C409.327 207.068 421.867 171.001 434.048 134.788C437.364 124.942 439.744 114.658 441.612 104.388C444.22 90.0268 437.387 82.5041 423.323 83.1747C401.386 84.2253 381.763 100.758 374.951 122.696C357.069 180.146 353.558 238.947 359.03 298.638C359.641 305.52 360.959 312.313 362.96 318.897C365.74 327.91 371.467 329.576 379.272 324.716C387.077 319.857 390.577 311.98 392.451 303.402C396.679 284.127 400.362 264.719 404.996 241.708Z" fill="#F9F9F3"/>
<path d="M210.298 143.78C208.158 162.663 211.016 184.905 216.402 206.901C227.997 254.232 251.573 294.647 282.108 331.021C287.066 336.93 291.734 343.088 296.67 349.023C298.754 351.536 300.838 354.319 303.497 355.954C305.624 357.263 309.571 358.307 311.005 357.153C312.851 355.668 314.313 351.44 313.632 349.145C311.3 341.322 309.018 333.101 304.801 326.342C290.24 303.006 285.261 276.493 279.959 249.992C274.11 220.76 274.967 191.031 273.591 161.429C273.081 150.505 271.889 139.454 269.488 128.831C266.096 113.801 257.295 108.519 242.533 110.788C225.572 113.412 213.992 124.113 210.298 143.78Z" fill="#F9F9F3"/>
<path d="M162.041 204.26C160.527 225.727 158.511 247.385 162.675 268.969C165.807 285.197 174.588 297.786 186.162 308.342C210 330.095 236.272 348.176 263.906 364.131C272.914 369.328 281.688 374.969 290.646 380.256C292.449 381.303 294.425 381.98 296.469 382.25C302.308 383.012 306.321 378.418 304.031 372.766C301.725 366.956 298.609 361.545 294.786 356.71C283.389 342.619 271.198 329.238 259.829 315.114C237.921 287.891 221.6 257.186 210.033 223.601C207.547 216.39 204.88 209.047 200.972 202.649C197.654 197.21 193.288 192.571 188.157 189.03C178.097 182.251 168.825 186.111 164.209 197.883C163.443 199.895 162.822 201.966 162.041 204.26Z" fill="#F9F9F3"/>
<path d="M235.546 401.102C249.497 404.179 263.422 407.381 277.415 410.227C280.264 410.808 283.436 410.427 286.337 409.842C294.372 408.216 297.213 400.438 291.956 393.802C289.127 390.233 285.509 387.196 281.84 384.539C254.157 364.491 224.478 348.164 193.803 333.857C174.324 324.768 154.687 315.95 134.66 308.326C126.24 305.123 116.668 304.624 107.563 304.184C98.0992 303.727 91.0848 308.933 87.3982 318.223C83.7985 327.289 86.3398 335.073 92.4522 342.042C103.622 354.761 117.742 363.165 132.459 369.883C147.534 376.763 163.341 382.071 179.136 386.966C197.674 392.719 216.527 397.282 235.279 402.367L235.546 401.102Z" fill="#F9F9F3"/>
<path d="M198.517 408.185C178.093 402.132 157.754 395.715 137.192 390.223C130.302 388.401 123.16 387.865 116.092 388.64C106.4 389.742 102.238 397.566 106.654 406.607C109.987 413.404 114.67 420.165 120.304 424.93C148.704 448.964 181.266 460.059 217.992 458.218C237.786 457.243 257.276 455.139 276.202 448.876C279.763 447.705 283.782 446.743 286.469 444.321C289.156 441.9 292.043 437.679 291.83 434.462C291.617 431.245 288.224 426.708 285.239 425.572C275.917 421.976 266.329 419.184 256.572 417.222C243.844 414.715 230.879 413.526 218.067 411.457C211.572 410.411 205.177 408.683 198.736 407.263C198.668 407.578 198.595 407.88 198.517 408.185Z" fill="#F9F9F3"/>
<path d="M170.078 624.968C176.664 625.942 183.12 625.372 187.971 620.818C197.335 612.002 207.762 603.754 214.819 593.167C230.881 569.064 250.194 548.2 269.947 527.589C276.487 520.761 282.99 513.925 289.309 506.879C291.495 504.436 293.325 501.676 294.742 498.683C297.694 492.37 294.859 487.04 288.176 486.506C284.867 486.246 281.223 486.496 278.126 487.645C270.832 490.35 263.09 492.673 256.733 497.03C227.967 516.741 199.473 536.864 171.251 557.397C165.026 561.931 159.478 568.155 155.281 574.742C152.301 579.422 150.812 586.062 151.017 591.744C151.266 598.437 153.625 605.212 155.894 611.641C158.293 618.447 163.302 622.973 170.078 624.968Z" fill="#F9F9F3"/>
<path d="M154.018 519.713C166.736 521.907 176.754 522.199 186.325 518.572C211.068 509.21 235.732 499.631 260.32 489.835C268.408 486.631 276.288 482.852 284.19 479.164C286.921 477.893 289.982 476.612 291.887 474.404C293.792 472.195 295.827 468.515 295.378 465.939C294.928 463.363 291.745 459.864 289.286 459.369C283.403 458.169 277.384 457.872 271.422 458.487C260.394 459.711 249.405 461.569 238.506 463.728C208.725 469.625 178.666 469.566 148.525 468.796C143.633 468.706 138.765 469.485 134.129 471.099C122.145 475.27 117.752 487.239 124.479 498.465C127.704 503.736 131.977 508.228 137.01 511.638C142.927 515.593 149.922 517.843 154.018 519.713Z" fill="#F9F9F3"/>
</svg>
