<svg width="59" height="30" viewBox="0 0 59 30" fill="none" xmlns="http://www.w3.org/2000/svg">
<path d="M33.2366 6.20648C29.7972 6.20648 27.5298 8.41579 26.7332 12.3946C26.7307 12.4221 26.7174 12.4475 26.6962 12.4652C26.675 12.4829 26.6476 12.4915 26.6201 12.489C26.5926 12.4865 26.5672 12.4732 26.5495 12.452C26.5318 12.4308 26.5233 12.4035 26.5257 12.3759V6.56744H21.8976V16.251C21.7482 19.0142 20.4973 20.8999 17.7715 20.8999C14.7324 20.8999 13.6952 19.1325 13.6952 16.2573V6.55499H9.08984V17.6451C9.08984 21.8148 11.268 24.5966 15.4066 24.5966C18.7983 24.5966 20.9288 22.3852 21.6922 18.4687C21.695 18.4411 21.7085 18.4159 21.7299 18.3983C21.7513 18.3808 21.7788 18.3726 21.8063 18.3753C21.8338 18.3781 21.8591 18.3916 21.8766 18.413C21.8941 18.4344 21.9024 18.4619 21.8997 18.4894V24.1755H26.532V14.4795C26.7104 11.7598 28.0463 9.90318 30.7452 9.90318C33.7822 9.90318 34.9149 11.6768 34.9149 14.5521V24.1236L39.5368 24.1755L39.5264 13.158C39.5223 8.98834 37.3752 6.20648 33.2366 6.20648Z" fill="#0B0B0B"/>
<path d="M5.40406 5.51808C6.92783 5.51808 8.1631 4.28282 8.1631 2.75904C8.1631 1.23526 6.92783 0 5.40406 0C3.88028 0 2.64502 1.23526 2.64502 2.75904C2.64502 4.28282 3.88028 5.51808 5.40406 5.51808Z" fill="#0B0B0B"/>
<path d="M7.58416 6.55774H3.15517V24.95C3.15517 25.4914 3.04938 25.8938 2.83985 26.1531C2.71437 26.295 2.56012 26.4085 2.38736 26.4862C2.2146 26.5638 2.02728 26.6037 1.83789 26.6033C1.42299 26.6033 1.0081 26.5597 0.655441 26.2009C0.560016 26.1013 0.518527 26.0328 0.447995 26.0308C0.325601 26.0308 0.211506 26.122 0.132676 26.315C0.0539868 26.4887 0.0102827 26.6762 0.00405902 26.8668C-0.0436537 27.7069 0.331825 28.3894 0.995654 28.9412C1.65948 29.493 2.51624 29.7544 3.54932 29.7544C4.88943 29.7544 5.899 29.3457 6.57804 28.5284C7.25708 27.7111 7.59868 26.4996 7.60283 24.8939V6.57641C7.60283 6.57146 7.60086 6.56671 7.59736 6.56321C7.59386 6.55971 7.58911 6.55774 7.58416 6.55774Z" fill="#0B0B0B"/>
<path d="M49.7581 6.1236C47.9297 6.12319 46.1422 6.66503 44.6217 7.6806C43.1013 8.69616 41.9162 10.1398 41.2163 11.829C40.5164 13.5182 40.3331 15.377 40.6897 17.1703C41.0463 18.9636 41.9268 20.6109 43.2197 21.9038C44.5126 23.1967 46.1598 24.0771 47.9532 24.4337C49.7465 24.7903 51.6053 24.6071 53.2944 23.9072C54.9836 23.2073 56.4273 22.0222 57.4429 20.5017C58.4584 18.9813 59.0003 17.1938 58.9999 15.3653C58.9999 12.9143 58.0262 10.5636 56.293 8.83044C54.5598 7.09728 52.2092 6.1236 49.7581 6.1236ZM51.9882 22.0348C50.6128 22.4911 49.2602 22.4372 47.9512 20.705C47.275 19.8109 46.4037 17.8402 45.9826 16.5955C45.5615 15.3508 45.0843 13.2369 45.0906 12.1167C45.0906 9.94476 46.1527 9.09008 47.526 8.6337C48.8993 8.17732 50.2539 8.23125 51.5629 9.96136C52.2392 10.8451 53.1104 12.8117 53.5253 14.0729C53.9402 15.3342 54.4236 17.4294 54.4174 18.5517C54.4132 20.7216 53.3615 21.5742 51.9882 22.0348Z" fill="#0B0B0B"/>
</svg>
