<svg width="257" height="340" viewBox="0 0 257 340" fill="none" xmlns="http://www.w3.org/2000/svg">
<path d="M213.049 459.532C210.729 441.524 208.792 423.266 201.761 406.195C196.475 393.36 187.126 384.561 175.81 377.95C152.499 364.323 127.79 354.174 102.309 346.029C94.0029 343.377 85.8167 340.316 77.5379 337.58C75.8743 337.044 74.1295 336.845 72.3958 336.994C67.4457 337.428 64.8952 341.955 67.7268 346.206C70.5983 350.586 74.0725 354.488 78.0349 357.785C89.7932 367.348 102.09 376.181 113.831 385.776C136.456 404.273 155.046 426.664 170.188 452.299C173.441 457.803 176.866 463.382 181.158 467.956C184.804 471.844 189.182 474.881 194.01 476.871C203.447 480.638 210.465 475.761 212.319 465.195C212.617 463.393 212.785 461.569 213.049 459.532Z" fill="#F9F9F3"/>
<path d="M119.585 310.323C107.55 310.323 95.514 310.215 83.4817 310.413C81.0314 310.452 78.4746 311.345 76.1752 312.356C69.809 315.163 68.7554 322.106 74.2018 326.63C77.1327 329.063 80.6264 330.913 84.0995 332.439C110.302 343.956 137.534 352.035 165.254 358.265C182.856 362.224 200.544 365.931 218.356 368.58C225.844 369.692 233.834 368.36 241.429 367.065C249.322 365.719 254.25 360.14 255.75 351.794C257.215 343.65 253.821 337.682 247.613 333.04C236.271 324.568 223.209 320.198 209.934 317.33C196.337 314.393 182.396 312.889 168.535 311.723C152.264 310.348 135.932 310.013 119.596 309.229L119.585 310.323Z" fill="#F9F9F3"/>
<path d="M78.9634 22.7337C78.7067 20.0436 78.6452 17.199 78.1388 14.4442C75.1276 -1.96613 62.8024 -2.98976 51.9383 4.38752C42.8399 10.5436 38.5935 20.8301 35.6166 31.5728C31.6747 45.864 30.5113 60.5431 30.0357 75.2977C29.276 98.6435 28.4035 122.032 28.1845 145.403C27.9929 165.94 25.0536 185.95 20.0784 205.743C19.0875 209.569 18.5711 213.513 18.542 217.477C18.5591 223.816 23.3975 226.377 28.2666 222.534C31.0862 220.304 33.4164 217.197 35.4523 214.115C45.6149 198.819 50.0256 181.13 53.444 163.268C59.8392 129.866 65.5536 96.2945 71.6545 62.8166C73.8137 50.9642 76.291 39.1691 78.5768 27.3418C78.8676 25.8656 78.8231 24.3464 78.9634 22.7337Z" fill="#F9F9F3"/>
<path d="M116.209 51.5282C115.766 45.3787 115.465 39.2074 114.833 33.0795C114.4 28.8725 113.48 23.6381 109.046 23.3958C105.768 23.2185 101.503 25.6675 99.112 28.3878C92.3475 36.1 87.0746 45.1218 84.6934 55.5182C81.3585 70.0818 78.2885 84.7153 75.4835 99.4188C68.2995 136.739 57.625 172.978 46.1523 208.982C44.6032 213.848 43.1455 218.85 42.5739 223.908C42.3169 226.179 43.8186 230.093 45.4726 230.831C47.556 231.761 51.4626 231.168 53.0793 229.533C57.2632 225.303 60.9632 220.558 64.1021 215.396C81.0574 187.35 92.9461 156.758 103.736 125.536C112.022 101.564 115.864 76.9693 116.209 51.5282Z" fill="#F9F9F3"/>
<path d="M148.995 297.726C166.873 299.005 184.741 300.6 202.64 301.39C208.635 301.64 214.624 300.782 220.333 298.854C228.156 296.177 230.292 288.957 225.141 282.293C221.257 277.285 216.264 272.553 210.817 269.644C183.359 254.965 154.615 251.732 124.584 259.944C108.395 264.356 92.6462 269.644 78.0542 278.265C75.3069 279.882 72.1474 281.409 70.3307 283.898C68.514 286.388 66.8312 290.401 67.5421 293.02C68.253 295.639 71.8108 298.768 74.4654 299.163C82.7644 300.434 91.1489 300.994 99.5351 300.837C110.466 300.589 121.373 299.209 132.301 298.584C137.84 298.265 143.411 298.527 148.967 298.527C148.971 298.254 148.981 297.992 148.995 297.726Z" fill="#F9F9F3"/>
<path d="M136.425 113.47C130.822 113.866 125.584 115.513 122.335 120.158C116.066 129.147 108.824 137.86 104.756 147.891C95.4982 170.727 83.0155 191.481 70.1266 212.105C65.8604 218.937 61.6254 225.769 57.5779 232.741C56.1786 235.156 55.1262 237.77 54.4537 240.5C53.0652 246.253 56.2935 250.14 61.9031 249.363C64.6801 248.975 67.6481 248.105 70.0155 246.591C75.5904 243.028 81.5992 239.698 86.1257 234.941C106.609 213.418 126.799 191.604 146.696 169.501C151.084 164.622 154.632 158.47 157.002 152.264C158.686 147.855 158.811 142.099 157.697 137.442C156.378 131.959 153.302 126.792 150.358 121.895C147.245 116.71 142.354 113.884 136.425 113.47Z" fill="#F9F9F3"/>
<path d="M22.6802 116.639C21.464 95.3614 20.3318 74.0806 18.9479 52.8141C18.6508 49.1947 17.8262 45.6414 16.5016 42.2722C13.1188 33.3232 5.60176 31.1468 -1.64968 37.1856C-14.2759 47.706 -18.7316 61.5663 -16.495 77.8642C-12.5286 106.773 -8.48531 135.671 -4.58176 164.587C-3.34814 173.737 -2.70509 182.972 -1.3212 192.093C-0.650228 196.525 0.0382123 201.955 5.74501 202.624C11.686 203.34 13.4333 197.817 14.4817 193.675C17.1027 183.348 19.881 172.853 20.5939 162.282C21.6178 147.148 20.856 131.888 20.856 116.682L22.6802 116.639Z" fill="#F9F9F3"/>
<path d="M167.201 197.49C156.33 197.995 148.006 199.579 140.703 204.319C121.822 216.56 103.041 228.967 84.3605 241.538C78.2117 245.658 72.3317 250.216 66.4172 254.701C64.3734 256.249 62.0572 257.865 60.8509 260.036C59.6446 262.207 58.5761 265.618 59.3757 267.664C60.1754 269.71 63.3876 272.021 65.5004 271.982C70.5602 271.901 75.5814 271.05 80.4038 269.456C89.3099 266.435 98.0782 262.899 106.722 259.13C130.342 248.833 155.182 243.405 180.209 238.55C184.264 237.733 188.156 236.203 191.717 234.025C200.923 228.396 202.56 217.708 195.136 209.661C191.596 205.894 187.318 202.962 182.594 201.062C177.048 198.873 170.896 198.289 167.201 197.49Z" fill="#F9F9F3"/>
</svg>
