<svg width="98" height="17" viewBox="0 0 98 17" fill="none" xmlns="http://www.w3.org/2000/svg">
<path d="M37.4645 5.71173C36.0655 5.71173 34.8149 6.37681 33.9825 7.42165C33.1502 6.37641 31.8995 5.71173 30.5006 5.71173C27.9949 5.71173 25.9639 7.84471 25.9639 10.4755V15.8657C25.9639 16.105 26.1575 16.2986 26.3968 16.2986H27.6408C27.88 16.2986 28.0736 16.105 28.0736 15.8657V10.4755C28.0736 8.88364 29.1601 7.59324 30.5006 7.59324C31.8405 7.59324 32.9271 8.8832 32.9275 10.4747V15.8657C32.9275 16.105 33.1211 16.2986 33.3604 16.2986H34.6043C34.8436 16.2986 35.0372 16.105 35.0372 15.8657V10.4747C35.0376 8.8832 36.1242 7.59324 37.4642 7.59324C38.8045 7.59324 39.8911 8.88364 39.8911 10.4755V15.8657C39.8911 16.105 40.0847 16.2986 40.324 16.2986H41.5679C41.8072 16.2986 42.0008 16.105 42.0008 15.8657V10.4755C42.0012 7.84471 39.9702 5.71173 37.4645 5.71173Z" fill="black"/>
<path d="M97.8956 15.6942L93.2287 11.0178L97.6349 6.6031C97.8571 6.37999 97.6989 5.99866 97.3838 5.99866H95.6403C95.5147 5.99866 95.3943 6.04864 95.3059 6.13718L90.6909 10.7616V0.432889C90.6909 0.19362 90.4969 0 90.2579 0H89.014C88.7745 0 88.5811 0.19362 88.5811 0.432889V15.8654C88.5811 16.1046 88.7745 16.2983 89.014 16.2983H90.2579C90.4969 16.2983 90.6909 16.1046 90.6909 15.8654V11.274L95.5672 16.1597C95.6556 16.2487 95.7761 16.2983 95.901 16.2983H97.6451C97.9602 16.2986 98.1185 15.9173 97.8956 15.6942Z" fill="black"/>
<path d="M21.9522 6.43031C21.1639 5.95139 20.2828 5.71173 19.3092 5.71173C18.3356 5.71173 17.458 5.95139 16.6776 6.43031C15.8969 6.90968 15.2751 7.56295 14.8115 8.38935C14.3479 9.21614 14.1157 10.1398 14.1157 11.1598C14.1157 12.1649 14.355 13.0807 14.8343 13.9071C15.3132 14.7343 15.9665 15.3872 16.7934 15.8661C17.6202 16.3454 18.5359 16.5847 19.5406 16.5847C20.3596 16.5847 21.1171 16.4493 21.8129 16.179C22.3666 15.9637 22.886 15.6626 23.3713 15.2758C23.5763 15.1125 23.5999 14.8095 23.4248 14.6147L22.7829 13.9016C22.6212 13.7217 22.3489 13.7017 22.1584 13.8508C21.8227 14.1141 21.4721 14.3184 21.1061 14.4636C20.6193 14.6572 20.0896 14.7532 19.5182 14.7532C18.8999 14.7532 18.3395 14.591 17.8374 14.2664C17.3349 13.9417 16.9331 13.5093 16.632 12.9681C16.4659 12.6702 16.3474 12.353 16.2731 12.0177H24.058C24.2855 12.0177 24.4756 11.8422 24.4901 11.6152C24.4905 11.6065 24.4913 11.5978 24.4917 11.5888C24.4991 11.442 24.5035 11.2991 24.5035 11.1598C24.5035 10.1398 24.2752 9.21652 23.8195 8.38935C23.3626 7.56295 22.7404 6.90968 21.9522 6.43031ZM17.7327 8.03002C18.2116 7.7054 18.7374 7.54322 19.3092 7.54322C19.8964 7.54322 20.4296 7.7054 20.9089 8.03002C21.3878 8.3547 21.7704 8.78757 22.0565 9.3283C22.2021 9.60379 22.3099 9.89779 22.3816 10.2095H16.2802C16.3498 9.89779 16.4549 9.60417 16.5966 9.3283C16.8748 8.78757 17.2534 8.3547 17.7327 8.03002Z" fill="black"/>
<path d="M75.8293 6.43031C75.0415 5.95139 74.1601 5.71173 73.1865 5.71173C72.2129 5.71173 71.3354 5.95139 70.5553 6.43031C69.7745 6.90968 69.1525 7.56295 68.6888 8.38935C68.225 9.21614 67.9932 10.1398 67.9932 11.1598C67.9932 12.1649 68.2321 13.0807 68.7118 13.9071C69.1909 14.7343 69.8436 15.3872 70.6706 15.8661C71.4975 16.3454 72.4134 16.5847 73.4178 16.5847C74.237 16.5847 74.9947 16.4493 75.6903 16.179C76.2438 15.9637 76.7632 15.6626 77.2487 15.2758C77.4537 15.1125 77.4774 14.8095 77.3019 14.6147L76.6601 13.9016C76.4987 13.7217 76.2265 13.7017 76.0356 13.8508C75.6999 14.1141 75.3496 14.3184 74.9832 14.4636C74.4964 14.6572 73.9667 14.7532 73.3953 14.7532C72.7772 14.7532 72.2168 14.591 71.7146 14.2664C71.2124 13.9417 70.8102 13.5093 70.5091 12.9681C70.3432 12.6702 70.2247 12.353 70.1504 12.0177H77.9354C78.1628 12.0177 78.353 11.8422 78.3677 11.6152C78.3677 11.6065 78.3684 11.5978 78.369 11.5888C78.3767 11.442 78.3805 11.2991 78.3805 11.1598C78.3805 10.1398 78.1525 9.21652 77.6971 8.38935C77.2398 7.56295 76.6185 6.90968 75.8293 6.43031ZM71.6102 8.03002C72.0893 7.7054 72.6145 7.54322 73.1865 7.54322C73.7739 7.54322 74.3068 7.7054 74.7866 8.03002C75.265 8.3547 75.6481 8.78757 75.9337 9.3283C76.0791 9.60379 76.1874 9.89779 76.2591 10.2095H70.1575C70.2273 9.89779 70.3324 9.60417 70.4739 9.3283C70.7525 8.78757 71.1305 8.3547 71.6102 8.03002Z" fill="black"/>
<path d="M85.7287 10.9859C85.265 10.6844 84.6693 10.4334 83.9436 10.2323C83.3409 10.0469 82.8656 9.87691 82.5178 9.72222C82.17 9.56798 81.9227 9.40151 81.7761 9.22363C81.6287 9.04615 81.5557 8.83362 81.5557 8.58612C81.5557 8.24607 81.6947 7.96392 81.9727 7.73999C82.2507 7.51606 82.6529 7.40391 83.1782 7.40391C83.5951 7.40391 84.032 7.49678 84.488 7.68215C84.7987 7.80846 85.0869 7.96392 85.3508 8.14813C85.5551 8.29058 85.8357 8.24216 85.9811 8.03988L86.5127 7.30046C86.6607 7.0946 86.6133 6.80534 86.4051 6.66135C86.0176 6.39412 85.591 6.182 85.1254 6.02459C84.5072 5.81601 83.8654 5.71173 83.2006 5.71173C82.4896 5.71173 81.86 5.83569 81.3117 6.08283C80.7627 6.33037 80.3336 6.67038 80.0249 7.10286C79.7155 7.53579 79.5611 8.04577 79.5611 8.63294C79.5611 9.18937 79.6771 9.67264 79.9089 10.0819C80.1408 10.4916 80.5078 10.8435 81.01 11.137C81.5122 11.4306 82.1649 11.7013 82.9693 11.9485C83.5407 12.1189 83.9814 12.2771 84.2908 12.4239C84.5995 12.571 84.816 12.7253 84.9396 12.8874C85.0632 13.0496 85.1254 13.2468 85.1254 13.4785C85.1254 13.8957 84.9473 14.2321 84.5918 14.4871C84.2363 14.7422 83.7649 14.8697 83.1775 14.8697C82.6363 14.8697 82.1111 14.7579 81.6012 14.5336C81.2188 14.3656 80.8447 14.1345 80.4796 13.8406C80.2766 13.6773 79.98 13.7127 79.8257 13.9225L79.2889 14.6528C79.1416 14.854 79.1813 15.138 79.3818 15.2868C79.9051 15.6756 80.4438 15.9771 80.9985 16.1912C81.6781 16.4537 82.4044 16.5855 83.1775 16.5855C84.3676 16.5855 85.3226 16.2998 86.0413 15.7276C86.7593 15.1558 87.1187 14.3907 87.1187 13.4325C87.1187 12.9071 87.0027 12.4435 86.7709 12.0414C86.5396 11.6392 86.1918 11.2873 85.7287 10.9859Z" fill="black"/>
<path d="M64.4217 0.432889V6.76406C64.2564 6.64012 64.0829 6.52483 63.9001 6.41856C63.0886 5.9471 62.165 5.71137 61.1296 5.71137C60.0938 5.71137 59.1705 5.9471 58.3591 6.41856C57.5477 6.89037 56.9062 7.53538 56.4347 8.35436C55.9629 9.17371 55.7275 10.1088 55.7275 11.1595C55.7275 12.1953 55.9629 13.1224 56.4347 13.9418C56.9062 14.7611 57.5477 15.4065 58.3591 15.8776C59.1705 16.349 60.0938 16.5848 61.1296 16.5848C62.165 16.5848 63.0886 16.3494 63.9001 15.8776C64.7119 15.4061 65.3524 14.7611 65.8244 13.9418C66.2927 13.1279 66.5284 12.207 66.5316 11.1791V0.432889C66.5316 0.19362 66.3381 0 66.0986 0H64.8547C64.6158 0 64.4217 0.194013 64.4217 0.432889ZM62.8454 14.2318C62.3507 14.5486 61.7789 14.7072 61.1296 14.7072C60.4956 14.7072 59.9317 14.549 59.4374 14.2318C58.9427 13.915 58.5523 13.49 58.2666 12.9568C57.9805 12.4235 57.8377 11.8245 57.8377 11.1599C57.8377 10.4798 57.9805 9.87304 58.2666 9.33974C58.5523 8.8065 58.9427 8.38151 59.4374 8.06471C59.9317 7.74829 60.496 7.58931 61.1296 7.58931C61.7789 7.58931 62.3503 7.74791 62.8454 8.06471C63.3401 8.3819 63.7265 8.8065 64.0048 9.33974C64.2827 9.87304 64.4217 10.4798 64.4217 11.1599C64.4217 11.8245 64.2827 12.4235 64.0048 12.9568C63.7265 13.49 63.3401 13.9154 62.8454 14.2318Z" fill="black"/>
<path d="M51.635 6.41891C50.8235 5.94746 49.8999 5.71173 48.8645 5.71173C47.8287 5.71173 46.9055 5.94746 46.094 6.41891C45.2825 6.89078 44.641 7.53579 44.1696 8.3547C43.6977 9.17406 43.4624 10.1091 43.4624 11.1598C43.4624 12.1956 43.6977 13.1228 44.1696 13.9421C44.641 14.7615 45.2825 15.4069 46.094 15.8779C46.9055 16.3494 47.8287 16.5851 48.8645 16.5851C49.8999 16.5851 50.8235 16.3498 51.635 15.8779C52.4464 15.4065 53.0875 14.7615 53.5594 13.9421C54.0308 13.1231 54.2665 12.1956 54.2665 11.1598C54.2665 10.1091 54.0308 9.17406 53.5594 8.3547C53.0879 7.53579 52.4464 6.8904 51.635 6.41891ZM51.7396 12.9567C51.4614 13.49 51.075 13.9153 50.5803 14.2318C50.0856 14.5486 49.5138 14.7072 48.8645 14.7072C48.2305 14.7072 47.6665 14.549 47.1723 14.2318C46.6776 13.915 46.2872 13.49 46.0015 12.9567C45.7154 12.4234 45.5725 11.8245 45.5725 11.1598C45.5725 10.4798 45.7154 9.873 46.0015 9.3397C46.2872 8.80646 46.6776 8.38147 47.1723 8.06467C47.6665 7.74825 48.2308 7.58927 48.8645 7.58927C49.5138 7.58927 50.0852 7.74787 50.5803 8.06467C51.075 8.38147 51.4614 8.80646 51.7396 9.3397C52.0179 9.873 52.1567 10.4798 52.1567 11.1598C52.1567 11.8245 52.0179 12.4234 51.7396 12.9567Z" fill="black"/>
<path d="M4.95028 1.34007H0.432889C0.19362 1.34007 0 1.53369 0 1.77296V2.8048C0 3.04408 0.19362 3.2377 0.432889 3.2377H4.78067C8.29927 3.2377 10.8521 5.74136 10.8521 8.81921C10.8521 10.101 10.4177 11.2827 9.68844 12.226C9.8234 11.7459 9.89584 11.2398 9.89584 10.7168C9.89584 7.63898 7.95416 5.13532 3.91803 5.13532H0.432889C0.19362 5.13532 0 5.32894 0 5.56821V6.60005C0 6.83935 0.19362 7.03292 0.432889 7.03292H3.84917C6.4292 7.04477 7.89472 8.6854 7.89472 10.7168C7.89472 12.7482 6.4292 14.4011 3.84917 14.4011H2.10974V9.36385C2.10974 9.12461 1.91612 8.93098 1.67685 8.93098H0.432889C0.19362 8.93098 0 9.12461 0 9.36385V15.8659C0 16.1051 0.19362 16.2987 0.432889 16.2987H4.31472C4.31511 16.2987 4.31511 16.2987 4.31551 16.2987H4.95068C9.61055 16.2987 12.854 12.9435 12.854 8.81959C12.854 4.69574 9.89622 1.32669 4.95028 1.34007Z" fill="black"/>
</svg>
