<svg width="221" height="209" viewBox="0 0 221 209" fill="none" xmlns="http://www.w3.org/2000/svg">
<path d="M47.4851 17.3328C74.9786 27.442 93.3107 53.9779 94.9999 82.9343C95.5665 91.9783 94.3897 101.047 91.5337 109.647C88.8564 117.564 83.0704 125.024 74.9657 127.037C72.0861 127.712 69.0866 127.689 66.2176 126.97C63.3485 126.25 60.6932 124.855 58.4732 122.9C53.7267 118.685 53.7447 111.658 55.2173 105.944C57.2745 97.9153 61.8606 90.7306 67.307 84.4893C83.9742 65.3675 112.194 56.7442 136.029 66.9633C149.149 72.5914 160.353 82.2145 168.825 93.622C176.648 104.132 182.239 116.155 186.235 128.601C189.694 139.382 191.721 153.179 182.256 161.717" stroke="#F87F5B" stroke-width="4.13" stroke-linecap="round" stroke-linejoin="round"/>
<path d="M180.696 163.849C181.092 163.384 184.38 159.251 189.872 159.336C192.665 159.418 195.334 160.511 197.382 162.412" stroke="#F87F5B" stroke-width="4.13" stroke-linecap="round" stroke-linejoin="round"/>
<path d="M180.696 163.85C181.771 162.708 182.577 161.342 183.057 159.85C183.538 158.358 183.679 156.778 183.473 155.224C182.64 149.87 177.825 147.646 177.484 147.491" stroke="#F87F5B" stroke-width="4.13" stroke-linecap="round" stroke-linejoin="round"/>
</svg>
