<svg width="16" height="20" viewBox="0 0 16 20" fill="none" xmlns="http://www.w3.org/2000/svg">
<path d="M15.63 1.65C15.5138 1.55602 15.3781 1.48928 15.2327 1.45467C15.0873 1.42006 14.9361 1.41846 14.79 1.45C13.7214 1.67395 12.6183 1.6768 11.5486 1.45839C10.4789 1.23997 9.46525 0.804917 8.57001 0.180003C8.40261 0.063876 8.20374 0.00164795 8.00001 0.00164795C7.79627 0.00164795 7.5974 0.063876 7.43001 0.180003C6.53476 0.804917 5.52108 1.23997 4.45137 1.45839C3.38166 1.6768 2.27857 1.67395 1.21001 1.45C1.06394 1.41846 0.912671 1.42006 0.767306 1.45467C0.621942 1.48928 0.486181 1.55602 0.370006 1.65C0.253985 1.74412 0.160527 1.86304 0.0964981 1.99802C0.0324695 2.133 -0.00050219 2.28061 5.78149e-06 2.43V9.88C-0.000883255 11.3138 0.340779 12.727 0.996541 14.002C1.6523 15.277 2.60319 16.3768 3.77001 17.21L7.42001 19.81C7.58937 19.9306 7.7921 19.9954 8.00001 19.9954C8.20791 19.9954 8.41064 19.9306 8.58001 19.81L12.23 17.21C13.3968 16.3768 14.3477 15.277 15.0035 14.002C15.6592 12.727 16.0009 11.3138 16 9.88V2.43C16.0005 2.28061 15.9675 2.133 15.9035 1.99802C15.8395 1.86304 15.746 1.74412 15.63 1.65ZM14 9.88C14.0008 10.9948 13.7353 12.0936 13.2257 13.085C12.716 14.0765 11.977 14.9319 11.07 15.58L8.00001 17.77L4.93001 15.58C4.02304 14.9319 3.28399 14.0765 2.77435 13.085C2.26472 12.0936 1.99924 10.9948 2.00001 9.88V3.58C4.09643 3.75944 6.19605 3.27303 8.00001 2.19C9.80397 3.27303 11.9036 3.75944 14 3.58V9.88ZM9.54001 7.59L6.85001 10.29L5.96001 9.39C5.7717 9.2017 5.51631 9.09591 5.25001 9.09591C4.9837 9.09591 4.72831 9.2017 4.54001 9.39C4.3517 9.57831 4.24591 9.8337 4.24591 10.1C4.24591 10.3663 4.3517 10.6217 4.54001 10.81L6.14001 12.41C6.23297 12.5037 6.34357 12.5781 6.46543 12.6289C6.58729 12.6797 6.71799 12.7058 6.85001 12.7058C6.98202 12.7058 7.11272 12.6797 7.23458 12.6289C7.35644 12.5781 7.46704 12.5037 7.56001 12.41L11 9C11.1883 8.8117 11.2941 8.5563 11.2941 8.29C11.2941 8.0237 11.1883 7.76831 11 7.58C10.8117 7.3917 10.5563 7.28591 10.29 7.28591C10.0237 7.28591 9.76831 7.3917 9.58001 7.58L9.54001 7.59Z" fill="black"/>
</svg>
