<svg width="8" height="14" viewBox="0 0 8 14" fill="none" xmlns="http://www.w3.org/2000/svg">
<path d="M0.460018 7.71002L6.12002 13.36C6.21298 13.4538 6.32358 13.5281 6.44544 13.5789C6.5673 13.6297 6.69801 13.6558 6.83002 13.6558C6.96203 13.6558 7.09274 13.6297 7.21459 13.5789C7.33645 13.5281 7.44706 13.4538 7.54002 13.36C7.72627 13.1727 7.83081 12.9192 7.83081 12.655C7.83081 12.3908 7.72627 12.1374 7.54002 11.95L2.59002 6.95002L7.54002 2.00002C7.72627 1.81266 7.83081 1.55921 7.83081 1.29502C7.83081 1.03084 7.72627 0.777388 7.54002 0.590025C7.4474 0.495537 7.33696 0.420366 7.21508 0.36887C7.09321 0.317373 6.96233 0.290575 6.83002 0.290026C6.69771 0.290575 6.56683 0.317373 6.44495 0.36887C6.32308 0.420366 6.21263 0.495537 6.12002 0.590025L0.460018 6.24002C0.358513 6.33367 0.277505 6.44732 0.222097 6.57382C0.16669 6.70032 0.138085 6.83692 0.138085 6.97502C0.138085 7.11313 0.16669 7.24973 0.222097 7.37623C0.277505 7.50273 0.358513 7.61638 0.460018 7.71002Z" fill="black"/>
</svg>
