<svg width="20" height="20" viewBox="0 0 20 20" fill="none" xmlns="http://www.w3.org/2000/svg">
<path d="M12.36 12.23C11.6915 12.769 10.8587 13.0629 10 13.0629C9.14131 13.0629 8.30849 12.769 7.64 12.23C7.43579 12.0603 7.17251 11.9786 6.90808 12.003C6.64365 12.0274 6.39974 12.1558 6.23 12.36C6.06027 12.5642 5.9786 12.8275 6.00298 13.0919C6.02736 13.3563 6.15579 13.6003 6.36 13.77C7.38134 14.6226 8.66957 15.0896 10 15.0896C11.3304 15.0896 12.6187 14.6226 13.64 13.77C13.8442 13.6003 13.9726 13.3563 13.997 13.0919C14.0214 12.8275 13.9397 12.5642 13.77 12.36C13.686 12.2589 13.5828 12.1753 13.4665 12.1141C13.3501 12.0528 13.2229 12.0151 13.0919 12.003C12.8275 11.9786 12.5642 12.0603 12.36 12.23ZM7.21 8.54C7.39737 8.72625 7.65082 8.83079 7.915 8.83079C8.17919 8.83079 8.43264 8.72625 8.62 8.54C8.80626 8.35264 8.9108 8.09919 8.9108 7.835C8.9108 7.57081 8.80626 7.31736 8.62 7.13C8.04773 6.58699 7.2889 6.28428 6.5 6.28428C5.71111 6.28428 4.95228 6.58699 4.38 7.13C4.27532 7.21965 4.1903 7.32997 4.13028 7.45403C4.07026 7.57809 4.03653 7.71323 4.03121 7.85095C4.02589 7.98867 4.04909 8.126 4.09937 8.25432C4.14964 8.38265 4.2259 8.4992 4.32335 8.59665C4.42081 8.69411 4.53736 8.77036 4.66568 8.82064C4.79401 8.87091 4.93134 8.89412 5.06906 8.8888C5.20678 8.88348 5.34191 8.84975 5.46597 8.78973C5.59004 8.7297 5.70036 8.64468 5.79 8.54C5.88297 8.44627 5.99357 8.37188 6.11543 8.32111C6.23729 8.27034 6.36799 8.2442 6.5 8.2442C6.63202 8.2442 6.76272 8.27034 6.88458 8.32111C7.00644 8.37188 7.11704 8.44627 7.21 8.54ZM15.62 7.13C15.0477 6.58699 14.2889 6.28428 13.5 6.28428C12.7111 6.28428 11.9523 6.58699 11.38 7.13C11.2162 7.3213 11.1306 7.56738 11.1403 7.81905C11.15 8.07073 11.2543 8.30947 11.4324 8.48756C11.6105 8.66566 11.8493 8.76999 12.101 8.77971C12.3526 8.78943 12.5987 8.70383 12.79 8.54C12.883 8.44627 12.9936 8.37188 13.1154 8.32111C13.2373 8.27034 13.368 8.2442 13.5 8.2442C13.632 8.2442 13.7627 8.27034 13.8846 8.32111C14.0064 8.37188 14.117 8.44627 14.21 8.54C14.3974 8.72625 14.6508 8.83079 14.915 8.83079C15.1792 8.83079 15.4326 8.72625 15.62 8.54C15.8063 8.35264 15.9108 8.09919 15.9108 7.835C15.9108 7.57081 15.8063 7.31736 15.62 7.13ZM10 0C8.02219 0 6.08879 0.58649 4.4443 1.6853C2.79981 2.78412 1.51809 4.3459 0.761209 6.17317C0.00433284 8.00043 -0.193701 10.0111 0.192152 11.9509C0.578004 13.8907 1.53041 15.6725 2.92894 17.0711C4.32746 18.4696 6.10929 19.422 8.0491 19.8079C9.98891 20.1937 11.9996 19.9957 13.8268 19.2388C15.6541 18.4819 17.2159 17.2002 18.3147 15.5557C19.4135 13.9112 20 11.9778 20 10C20 8.68678 19.7413 7.38642 19.2388 6.17317C18.7363 4.95991 17.9997 3.85752 17.0711 2.92893C16.1425 2.00035 15.0401 1.26375 13.8268 0.761205C12.6136 0.258658 11.3132 0 10 0ZM10 18C8.41775 18 6.87104 17.5308 5.55544 16.6518C4.23985 15.7727 3.21447 14.5233 2.60897 13.0615C2.00347 11.5997 1.84504 9.99113 2.15372 8.43928C2.4624 6.88743 3.22433 5.46197 4.34315 4.34315C5.46197 3.22433 6.88743 2.4624 8.43928 2.15372C9.99113 1.84504 11.5997 2.00346 13.0615 2.60896C14.5233 3.21447 15.7727 4.23984 16.6518 5.55544C17.5308 6.87103 18 8.41775 18 10C18 12.1217 17.1572 14.1566 15.6569 15.6569C14.1566 17.1571 12.1217 18 10 18Z" fill="black"/>
</svg>
