<svg width="293" height="208" viewBox="0 0 293 208" fill="none" xmlns="http://www.w3.org/2000/svg">
<path d="M-1.96084 111.427C1.81174 130.739 11.8624 148.201 26.7861 161.372C48.2927 180.239 94.7683 198.63 118.089 169.586C134.535 149.086 126.416 121.55 123.547 98.9931C121.346 81.7144 122.258 62.2589 134.61 48.8635C144.576 38.0605 159.963 33.5368 174.68 31.5312C207.108 27.0529 238.759 32.9112 267.812 45.4157" stroke="#FF9070" stroke-width="4.13" stroke-linecap="round" stroke-linejoin="round"/>
<path d="M267.773 45.3812C261.69 43.0577 256.439 39.1871 252.573 34.1759C248.707 29.1646 246.368 23.1974 245.802 16.9007" stroke="#FF9070" stroke-width="4.13" stroke-linecap="round" stroke-linejoin="round"/>
<path d="M267.773 45.3812C264.485 44.472 261.286 43.3583 257.824 43.1016C250.127 42.5159 242.205 45.9484 238.591 52.874L238.261 53.5515" stroke="#FF9070" stroke-width="4.13" stroke-linecap="round" stroke-linejoin="round"/>
</svg>
