<svg width="218" height="162" viewBox="0 0 218 162" fill="none" xmlns="http://www.w3.org/2000/svg">
<path d="M22.6443 56.7929C23.2764 82.1658 37.326 107.315 58.2623 121.528C78.4703 135.249 107.544 139.063 130.119 129.095C150.165 120.248 162.888 100.158 160.294 78.1188C158.267 60.9267 149.883 41.2269 135.987 30.295C127.691 23.7764 116.122 20.6249 106.315 24.5028C97.955 27.8062 92.1181 35.5621 88.3098 43.6988C78.6803 64.2685 79.7237 88.9756 88.7195 109.828C105.322 148.322 144.104 169.967 181.652 183.834" stroke="#F87F5B" stroke-width="4.13" stroke-linecap="round" stroke-linejoin="round"/>
<path d="M15.1426 80.8691C18.2899 77.3802 20.5149 73.1596 21.6149 68.5914C22.7707 63.7377 23.1013 59.2173 22.6341 56.7913C22.8026 58.3805 22.4259 62.4893 25.1358 66.5618C29.3403 72.9499 36.7832 73.4622 37.6821 73.5164" stroke="#F87F5B" stroke-width="4.13" stroke-linecap="round" stroke-linejoin="round"/>
</svg>
