<svg width="29" height="40" viewBox="0 0 29 40" fill="none" xmlns="http://www.w3.org/2000/svg">
<path d="M14.8086 1.23401L15.2599 12.9152C15.4028 16.6136 18.3076 19.6112 21.9998 19.8703L29 20.3617L21.9998 20.853C18.3076 21.1122 15.4028 24.1097 15.2599 27.8082L14.8086 39.4893L14.3572 27.8082C14.2143 24.1097 11.3095 21.1122 7.61728 20.853L0.617065 20.3617L7.61728 19.8703C11.3095 19.6112 14.2143 16.6136 14.3572 12.9152L14.8086 1.23401Z" fill="#FF9070"/>
<path fill-rule="evenodd" clip-rule="evenodd" d="M14.8086 1.23401L14.3572 12.9152C14.3568 12.9268 14.3563 12.9384 14.3558 12.9501C14.2971 14.3031 13.8687 15.5611 13.1677 16.6242C12.6148 17.4628 11.8922 18.18 11.0476 18.7268C10.0669 19.3616 8.92176 19.7667 7.68662 19.8651C7.66354 19.867 7.64042 19.8687 7.61728 19.8703L0.617065 20.3617L7.61728 20.853C7.64042 20.8546 7.66354 20.8564 7.68662 20.8582C8.92176 20.9566 10.0669 21.3617 11.0476 21.9966C11.8922 22.5433 12.6148 23.2606 13.1677 24.0991C13.8687 25.1622 14.2971 26.4203 14.3558 27.7733C14.3563 27.7849 14.3568 27.7965 14.3572 27.8082L14.8086 39.4893L15.2599 27.8082C15.2603 27.7965 15.2608 27.7849 15.2613 27.7733C15.32 26.4203 15.7484 25.1622 16.4494 24.0991C17.0024 23.2606 17.7249 22.5433 18.5695 21.9966C19.5502 21.3617 20.6953 20.9566 21.9305 20.8582C21.9536 20.8564 21.9767 20.8546 21.9998 20.853L29 20.3617L21.9998 19.8703C21.9767 19.8687 21.9536 19.867 21.9305 19.8651C20.6953 19.7667 19.5502 19.3616 18.5695 18.7268C17.7249 18.18 17.0024 17.4628 16.4494 16.6242C15.7484 15.5611 15.32 14.3031 15.2613 12.9501C15.2608 12.9384 15.2603 12.9268 15.2599 12.9152L14.8086 1.23401ZM14.8086 19.256C14.4675 19.6524 14.0964 20.0221 13.6985 20.3617C14.0964 20.7013 14.4675 21.071 14.8086 21.4673C15.1496 21.071 15.5208 20.7013 15.9187 20.3617C15.5208 20.0221 15.1496 19.6524 14.8086 19.256Z" fill="#FF9070"/>
<path fill-rule="evenodd" clip-rule="evenodd" d="M13.9587 0C14.7688 0 15.4255 0.635691 15.4255 1.41986C15.4255 3.05576 15.4052 4.69466 15.385 6.32197L15.385 6.32284C15.3648 7.95274 15.3448 9.57098 15.3448 11.1801C15.3448 11.7203 15.2997 12.2357 15.2605 12.6853L15.2588 12.7044C15.2176 13.1762 15.1832 13.5777 15.1832 13.9807C15.1832 14.0347 15.1833 14.0902 15.1834 14.147C15.1846 14.8911 15.1861 15.8613 14.996 16.7542C14.9694 16.8794 14.9449 17.0612 14.939 17.1729C14.9149 17.626 14.7179 17.9644 14.6507 18.0797L14.6475 18.0852C14.6391 18.0997 14.6291 18.1166 14.6206 18.1309C14.5022 18.5092 14.3357 18.7961 14.1475 19.0426C14.0672 19.1477 13.9831 19.2448 13.9272 19.3092C13.9223 19.3149 13.9176 19.3204 13.9131 19.3255C13.8503 19.3981 13.8068 19.4493 13.7637 19.5055C13.4358 19.9332 12.9971 20.1273 12.8391 20.1972C12.8353 20.1989 12.8315 20.2006 12.828 20.2021C12.7725 20.2267 12.742 20.2399 12.7218 20.2486C12.7143 20.2518 12.7082 20.2544 12.7028 20.2568C12.5249 20.3913 12.3508 20.4765 12.2466 20.5243C12.1494 20.5689 12.0365 20.614 11.9739 20.6391C11.9721 20.6398 11.9703 20.6405 11.9686 20.6412C12.2403 20.7957 12.5081 20.9825 12.7765 21.2067C13.1514 21.5198 13.3973 21.9092 13.5276 22.1155L13.5321 22.1226C13.5541 22.1574 13.5734 22.1882 13.5909 22.2161C13.6386 22.2921 13.6727 22.3464 13.7109 22.4029C13.7336 22.4363 13.7508 22.4599 13.764 22.4768C13.777 22.4936 13.7831 22.4999 13.7824 22.4991C14.0744 22.804 14.2845 23.1887 14.4176 23.4738C14.5596 23.7778 14.6864 24.1262 14.7537 24.4426C14.7533 24.4407 14.7536 24.4418 14.7548 24.4466C14.7575 24.4576 14.7651 24.4882 14.7804 24.5468C14.7994 24.6194 14.8244 24.713 14.854 24.823C14.8728 24.8928 14.8934 24.9691 14.915 25.0493C14.9604 25.2173 15.0105 25.4027 15.0585 25.5826C15.1291 25.8473 15.1998 26.1178 15.25 26.3258C15.274 26.4257 15.2989 26.534 15.3161 26.627C15.3231 26.6646 15.3381 26.7482 15.3449 26.8428L15.345 26.8446C15.3474 26.8784 15.3568 27.0092 15.3318 27.1694C15.3211 27.238 15.2853 27.4511 15.1427 27.6845C14.9738 27.9608 14.5612 28.383 13.878 28.383C13.1027 28.383 12.468 27.8008 12.4148 27.0635C12.4093 27.0394 12.4022 27.0088 12.393 26.9708C12.3514 26.798 12.2882 26.5556 12.2179 26.2923C12.1812 26.1546 12.1404 26.0035 12.1001 25.8541C12.0014 25.4888 11.9058 25.1345 11.8805 25.0157C11.8673 24.9536 11.8213 24.808 11.7444 24.6434C11.7086 24.5668 11.6741 24.5033 11.6455 24.4572C11.6319 24.4353 11.6227 24.4224 11.6186 24.4167C11.4665 24.2558 11.3473 24.0922 11.2586 23.9613C11.1891 23.8588 11.1184 23.746 11.0652 23.6611C11.052 23.6401 11.0399 23.6207 11.0291 23.6037C10.9011 23.401 10.8579 23.3558 10.8584 23.3554C10.8585 23.3553 10.8591 23.3559 10.8603 23.3569C10.4791 23.0385 10.1932 22.9286 9.83464 22.8707C9.43742 22.8065 8.98867 22.8076 8.23235 22.8094C8.09485 22.8098 7.94719 22.8101 7.78782 22.8101C6.7327 22.8101 5.6123 22.6523 4.6188 22.5124L4.56439 22.5048C3.5072 22.356 2.58523 22.229 1.76316 22.229C1.65064 22.229 1.5265 22.2262 1.40782 22.2146C1.35058 22.209 1.25927 22.1981 1.15515 22.1738C1.15374 22.1734 1.15212 22.1731 1.15031 22.1726C1.08993 22.1587 0.807887 22.0936 0.537593 21.8775C0.37493 21.7474 0.124536 21.4878 0.0329992 21.0737C-0.0633749 20.6377 0.0683303 20.2706 0.209596 20.0418C0.424308 19.6939 0.733424 19.5357 0.787137 19.5082C0.789106 19.5072 0.790732 19.5063 0.791997 19.5057C0.964779 19.4156 1.13122 19.371 1.1851 19.3566L1.18585 19.3564C1.44482 19.287 1.8646 19.2207 2.16699 19.2207H3.45923C3.80229 19.2207 4.18042 19.1817 4.64061 19.1252C4.7036 19.1175 4.76869 19.1094 4.83554 19.101C5.22613 19.0522 5.67667 18.9959 6.11754 18.9703C6.37872 18.9552 6.6548 18.9027 7.05839 18.8259C7.08873 18.8201 7.11979 18.8142 7.15162 18.8082C7.55842 18.731 8.10209 18.6306 8.6686 18.6306C8.68471 18.6306 8.74335 18.6267 8.87517 18.593C8.93839 18.5768 9.00787 18.5566 9.09237 18.5309C9.11628 18.5236 9.14694 18.5141 9.18051 18.5038C9.2424 18.4847 9.3142 18.4625 9.37193 18.4453C9.52856 18.3986 9.66997 18.3785 9.76539 18.3682C9.8652 18.3575 9.95809 18.3532 10.0284 18.3509C10.0881 18.3489 10.1506 18.348 10.1983 18.3472C10.2009 18.3472 10.2034 18.3472 10.2058 18.3471C10.2815 18.2937 10.3508 18.2523 10.4067 18.221C10.5647 18.1324 10.7207 18.0684 10.8076 18.0331C10.8466 18.0173 10.8758 18.0056 10.8987 17.9964C10.923 17.9866 10.9403 17.9796 10.9548 17.9736C11.1026 17.8638 11.2426 17.7888 11.3429 17.7395C11.4051 17.7089 11.4625 17.6833 11.5049 17.6646C11.5188 17.6585 11.5295 17.6539 11.5383 17.6501C11.586 17.5925 11.6291 17.5427 11.6642 17.5021C11.737 17.418 11.7651 17.3852 11.7883 17.3548C11.7971 17.3433 11.8011 17.3372 11.8026 17.3349L11.8037 17.3332L11.8037 17.3331C11.8037 17.3331 11.8037 17.3331 11.8037 17.3331L11.8038 17.3329L11.8043 17.3319L11.8067 17.326C11.8089 17.3201 11.8131 17.3083 11.8184 17.2889C11.871 17.0967 11.9474 16.9459 11.9944 16.8594C12.0058 16.8385 12.0169 16.8188 12.0271 16.801C12.0485 16.5901 12.0832 16.3667 12.1228 16.181C12.2499 15.5841 12.2498 14.8865 12.2496 14.0576C12.2496 14.0321 12.2496 14.0065 12.2496 13.9807C12.2496 13.449 12.2942 12.9387 12.3332 12.4923L12.3356 12.4652C12.3767 11.9945 12.4112 11.5893 12.4112 11.1801C12.4112 9.55391 12.4314 7.92145 12.4515 6.29729L12.4516 6.2879C12.4719 4.65775 12.4919 3.03588 12.4919 1.41986C12.4919 0.635691 13.1486 0 13.9587 0ZM12.0972 16.6815C12.0973 16.6812 12.097 16.6819 12.0961 16.6836C12.0967 16.6824 12.097 16.6817 12.0972 16.6815ZM10.9992 17.9538C10.9994 17.9538 10.997 17.9551 10.9916 17.9575C10.9964 17.955 10.999 17.9538 10.9992 17.9538ZM12.4284 27.1272C12.4295 27.1333 12.4292 27.1322 12.4281 27.1255C12.4282 27.1261 12.4283 27.1267 12.4284 27.1272ZM13.1131 25.7514C13.3138 25.6305 13.5679 25.5433 13.878 25.5433C13.5977 25.5433 13.3358 25.6194 13.1131 25.7514Z" fill="#FF9070"/>
<path fill-rule="evenodd" clip-rule="evenodd" d="M14.2816 3.08508C15.0874 3.08508 15.7406 3.73452 15.7406 4.53563C15.7406 4.83873 15.7519 4.92764 15.7678 4.98706C15.7985 5.10259 15.8471 5.29001 15.8888 5.48573C15.9229 5.64576 15.9815 5.93921 15.9815 6.21504C15.9815 6.52094 16.0682 6.93813 16.1788 7.47084C16.1848 7.49975 16.1908 7.52901 16.197 7.5586C16.451 8.78426 16.5439 9.97764 16.5439 11.2102C16.5439 11.5976 16.6153 11.9996 16.7204 12.5658L16.7261 12.5965C16.8226 13.1154 16.9455 13.7771 16.9455 14.4829C16.9455 14.6821 16.9486 14.9748 16.9705 15.2486C16.9815 15.3858 16.9954 15.4951 17.01 15.5723C17.0128 15.5868 17.0152 15.5985 17.0173 15.6075C17.1944 15.9818 17.2194 16.3269 17.2281 16.4951C17.249 16.5246 17.2711 16.5569 17.2926 16.5904C17.3618 16.6981 17.4694 16.8842 17.535 17.1305C17.6463 17.548 18.0419 17.929 18.644 18.1202L18.2 19.502L18.644 18.1202C19.1323 18.2753 19.6744 18.394 20.0724 18.4177C20.4515 18.4402 20.8135 18.5179 21.0586 18.5705C21.0744 18.5739 21.0897 18.5772 21.1044 18.5804C21.3911 18.6416 21.5426 18.6694 21.6701 18.6747C21.7079 18.6762 21.7482 18.6768 21.8137 18.6777C21.8288 18.678 21.8454 18.6782 21.8636 18.6785C21.9479 18.6797 22.061 18.6818 22.1804 18.689C22.3693 18.7003 22.7055 18.7293 23.0528 18.864C23.0698 18.8655 23.0902 18.8672 23.1193 18.8695C23.1231 18.8698 23.1272 18.8701 23.1316 18.8704C23.2015 18.8759 23.3342 18.8864 23.4724 18.9095C23.6255 18.935 23.8402 18.9839 24.0699 19.0934C24.0692 19.093 24.0688 19.0928 24.0688 19.0928C24.0688 19.0926 24.1068 19.1081 24.2308 19.1393C24.2735 19.1501 24.3086 19.1585 24.3504 19.1686C24.3789 19.1754 24.4105 19.183 24.4497 19.1926C24.5321 19.2127 24.635 19.2385 24.7417 19.2703L24.4839 20.1259L24.7417 19.2703C24.934 19.3276 25.1163 19.3963 25.2629 19.4531C25.3175 19.4743 25.3658 19.4933 25.4105 19.5108C25.501 19.5464 25.5771 19.5762 25.6614 19.6071C25.778 19.6499 25.8625 19.6763 25.928 19.692C25.9856 19.7058 26.0105 19.7069 26.011 19.7069C26.0111 19.7069 26.0107 19.7069 26.01 19.7069C26.5256 19.7069 26.9156 19.7136 27.1952 19.7271C27.3324 19.7337 27.4664 19.743 27.5854 19.7577C27.6439 19.7649 27.7217 19.7761 27.8058 19.7949L27.8075 19.7953C27.8609 19.8072 28.0519 19.8497 28.2571 19.9669C28.357 20.0239 28.5966 20.1738 28.7807 20.4701C29.011 20.8408 29.0738 21.3164 28.9024 21.7603C28.7653 22.1155 28.5293 22.3161 28.4301 22.3929C28.3131 22.4836 28.2061 22.5384 28.147 22.5665C27.9549 22.6576 27.7617 22.6984 27.6995 22.7115L27.6947 22.7125C27.5091 22.7518 27.2726 22.7849 27.048 22.8124C26.1498 22.9226 24.6189 23.0386 24.2249 23.0386C24.0921 23.0386 23.9246 23.0652 23.6076 23.1294C23.5859 23.1338 23.5631 23.1385 23.5393 23.1434C23.2719 23.1981 22.8762 23.2791 22.4734 23.2958C22.3247 23.3019 22.1373 23.3139 21.9315 23.3272C21.531 23.3529 21.0604 23.3831 20.668 23.3831C20.5678 23.3831 20.4152 23.4101 20.0954 23.504C20.0557 23.5156 20.0108 23.5292 19.9616 23.5441C19.6957 23.6245 19.3038 23.7431 18.922 23.8016C18.8392 23.8143 18.754 23.8235 18.6872 23.8302C18.6391 23.8351 18.584 23.8403 18.5324 23.8452C18.5117 23.8471 18.4915 23.849 18.4726 23.8508C18.3267 23.8647 18.1938 23.8787 18.0733 23.8971C18.038 23.9025 18.0066 23.9078 17.9789 23.9131C17.8989 23.9786 17.8247 24.0277 17.7704 24.0614C17.7331 24.0845 17.6983 24.1045 17.6694 24.1206C17.5838 24.2491 17.5013 24.3891 17.4183 24.5448C17.1686 25.0134 16.9837 25.406 16.92 25.7134C16.8582 26.0111 16.7457 26.4224 16.5762 26.7942C16.5761 26.7983 16.576 26.8027 16.5759 26.8073C16.5755 26.8203 16.5752 26.8355 16.5746 26.8558C16.5734 26.8974 16.5717 26.9535 16.5679 27.0146C16.5605 27.1346 16.5436 27.3115 16.4907 27.5098C16.3812 27.9208 16.3029 28.4051 16.3029 28.7794C16.3029 29.0103 16.3308 29.2552 16.3727 29.6004L16.3765 29.6322C16.4134 29.9352 16.461 30.3262 16.4634 30.7321C16.4636 30.7332 16.4638 30.7344 16.464 30.7357C16.4684 30.7611 16.4767 30.8001 16.4901 30.8505C16.518 30.9553 16.5535 31.0561 16.5766 31.1118L16.1293 31.2951L16.5766 31.1118C16.6795 31.3601 16.7107 31.5919 16.7229 31.7401C16.7357 31.8976 16.7328 32.0431 16.7282 32.15C16.7243 32.2407 16.7175 32.333 16.7128 32.3963C16.7121 32.4067 16.7114 32.4163 16.7107 32.425C16.7082 32.4606 16.7065 32.4854 16.7055 32.5052C16.7044 32.5254 16.7045 32.5304 16.7045 32.5258C16.7045 32.8713 16.6807 33.1881 16.6612 33.4478L16.6603 33.4593C16.6396 33.7345 16.6242 33.9459 16.6242 34.1621C16.6242 34.6142 16.5247 35.3519 16.4432 35.8321C16.4043 36.0619 16.3507 36.3475 16.2886 36.5483L16.288 36.5504C16.2755 36.5909 16.2328 36.729 16.1504 36.8771L16.1482 36.8811C16.1198 36.9325 15.9822 37.1819 15.6949 37.3794C15.5211 37.499 15.2099 37.6551 14.7964 37.6368C14.3643 37.6177 14.0427 37.4186 13.8483 37.2333C13.5493 36.9484 13.4612 36.6182 13.4455 36.5594C13.4449 36.5574 13.4445 36.5556 13.4441 36.5543C13.4143 36.4455 13.4026 36.354 13.3974 36.3073C13.3864 36.2081 13.385 36.1165 13.385 36.0568V34.2482C13.385 34.0858 13.3535 33.8927 13.2877 33.5302L13.2825 33.5014C13.2258 33.1895 13.144 32.7398 13.144 32.2674C13.144 32.1746 13.1495 32.0807 13.1544 32.0096C13.1596 31.9336 13.1665 31.8509 13.1729 31.7739L13.1756 31.7428C13.1883 31.5914 13.2005 31.4467 13.2082 31.3062C13.2131 31.2157 13.2151 31.1435 13.2152 31.0882C13.1404 30.919 13.1027 30.7629 13.0819 30.6449C13.0473 30.4473 13.046 30.2698 13.0484 30.1565C13.0503 30.0635 13.0567 29.964 13.0603 29.9077C13.0609 29.8973 13.0615 29.8883 13.0619 29.8812C13.0637 29.8522 13.0644 29.8356 13.0647 29.8279C13.0544 29.6651 13.0138 29.4161 12.9769 29.2875C12.9427 29.1683 12.9234 29.0594 12.9115 28.9752C12.8994 28.8893 12.8922 28.809 12.8875 28.7431C12.8828 28.677 12.8796 28.613 12.8772 28.5618C12.8765 28.5466 12.8759 28.5327 12.8753 28.5197C12.8737 28.4842 12.8723 28.4554 12.8707 28.4251C12.8705 28.4225 12.8704 28.4199 12.8702 28.4174C12.7751 28.2031 12.7467 28.0105 12.7364 27.8934C12.7323 27.8474 12.7304 27.803 12.7297 27.762C12.6722 27.642 12.6082 27.5214 12.5297 27.3834C12.1331 26.686 12.3801 25.8011 13.0815 25.4067C13.3831 25.2371 13.7197 25.1859 14.0369 25.2381C14.0459 25.2019 14.0545 25.1649 14.0622 25.1278C14.2208 24.3624 14.6029 23.6314 14.8401 23.1863C15.01 22.8676 15.2043 22.5462 15.4396 22.231C15.5915 22.0274 15.7601 21.8892 15.887 21.8001C15.9849 21.7313 16.0783 21.6782 16.1395 21.6449C16.4298 21.3769 16.7522 21.2533 16.9146 21.1973C17.1697 21.1094 17.4296 21.0603 17.6301 21.0296C17.7828 21.0063 17.9328 20.9892 18.062 20.976C17.9562 20.9457 17.8539 20.9148 17.756 20.8837C16.5941 20.5146 15.2738 19.6239 14.7742 18.0761C14.7387 18.0292 14.6882 17.96 14.64 17.8835C14.5685 17.7703 14.466 17.5867 14.4021 17.3472C14.3535 17.1647 14.3353 17.0034 14.3265 16.8881C14.3221 16.8308 14.3198 16.779 14.3182 16.7416C14.3177 16.73 14.3173 16.7205 14.317 16.7122C14.2223 16.4862 14.1723 16.2658 14.1426 16.1095C14.1019 15.8945 14.0774 15.674 14.0618 15.4781C14.0305 15.0858 14.0277 14.6996 14.0277 14.4829C14.0277 14.0696 13.9547 13.6506 13.8511 13.0926C13.8475 13.0731 13.8438 13.0534 13.8401 13.0334C13.7458 12.5268 13.626 11.8832 13.626 11.2102C13.626 10.1266 13.5446 9.13542 13.3392 8.14417C13.3304 8.10161 13.3206 8.05539 13.3101 8.00596C13.2166 7.56352 13.0689 6.86487 13.0638 6.2477C13.0633 6.24385 13.0627 6.23907 13.0618 6.2333C13.0566 6.19832 13.0475 6.149 13.0343 6.08679C13.0077 5.96214 12.9737 5.82957 12.9472 5.73012C12.8235 5.26588 12.8227 4.83275 12.8227 4.53563C12.8227 3.73452 13.4759 3.08508 14.2816 3.08508ZM14.3126 16.6284C14.3127 16.6283 14.313 16.6307 14.3134 16.636C14.3128 16.6312 14.3126 16.6285 14.3126 16.6284ZM27.0873 19.8749C27.0868 19.8751 27.0862 19.8752 27.0856 19.8753C27.1096 19.869 27.1134 19.8694 27.0873 19.8749ZM16.3029 36.0632C16.3029 36.0632 16.3029 36.0618 16.3029 36.0588L16.3029 36.0632ZM13.2115 30.9823C13.2115 30.9823 13.2116 30.9831 13.2118 30.9848C13.2116 30.9832 13.2115 30.9824 13.2115 30.9823ZM17.0234 15.6318C17.0234 15.6319 17.0231 15.631 17.0226 15.6291C17.0232 15.6309 17.0234 15.6318 17.0234 15.6318Z" fill="#FF9070"/>
</svg>
