<svg width="17" height="24" viewBox="0 0 17 24" fill="none" xmlns="http://www.w3.org/2000/svg">
<path d="M8.68097 0.723633L8.94553 7.5712C9.0293 9.73926 10.7321 11.4965 12.8965 11.6484L17.0001 11.9364L12.8965 12.2244C10.7321 12.3763 9.0293 14.1335 8.94553 16.3016L8.68097 23.1492L8.4164 16.3016C8.33263 14.1335 6.62981 12.3763 4.46539 12.2244L0.361816 11.9364L4.46539 11.6484C6.62981 11.4965 8.33263 9.73925 8.4164 7.5712L8.68097 0.723633Z" fill="#FF9070"/>
<path fill-rule="evenodd" clip-rule="evenodd" d="M8.68097 0.723633L8.4164 7.5712C8.41614 7.57803 8.41586 7.58486 8.41556 7.59168C8.38115 8.3848 8.13003 9.1223 7.71909 9.74549C7.39495 10.237 6.97137 10.6575 6.47625 10.978C5.90139 11.3502 5.23009 11.5876 4.50604 11.6453C4.49251 11.6464 4.47896 11.6474 4.46539 11.6484L0.361816 11.9364L4.46539 12.2244C4.47896 12.2254 4.49251 12.2264 4.50604 12.2275C5.23009 12.2852 5.90139 12.5226 6.47625 12.8948C6.97137 13.2153 7.39495 13.6357 7.71909 14.1273C8.13004 14.7505 8.38115 15.488 8.41556 16.2811C8.41586 16.2879 8.41614 16.2948 8.4164 16.3016L8.68097 23.1492L8.94553 16.3016C8.94579 16.2948 8.94607 16.2879 8.94637 16.2811C8.98078 15.488 9.2319 14.7505 9.64284 14.1273C9.96699 13.6357 10.3906 13.2153 10.8857 12.8948C11.4605 12.5226 12.1318 12.2852 12.8559 12.2275C12.8694 12.2264 12.883 12.2254 12.8965 12.2244L17.0001 11.9364L12.8965 11.6484C12.883 11.6474 12.8694 11.6464 12.8559 11.6453C12.1318 11.5876 11.4605 11.3502 10.8857 10.978C10.3906 10.6575 9.96698 10.2371 9.64284 9.74549C9.2319 9.1223 8.98078 8.38479 8.94637 7.59167C8.94607 7.58485 8.94579 7.57803 8.94553 7.5712L8.68097 0.723633ZM8.68097 11.2883C8.48106 11.5206 8.26347 11.7373 8.03022 11.9364C8.26347 12.1355 8.48106 12.3522 8.68097 12.5845C8.88087 12.3522 9.09846 12.1355 9.33171 11.9364C9.09846 11.7373 8.88087 11.5206 8.68097 11.2883Z" fill="#FF9070"/>
<path fill-rule="evenodd" clip-rule="evenodd" d="M8.1827 0C8.65759 0 9.04255 0.372646 9.04255 0.832329C9.04255 1.79131 9.03065 2.75204 9.01882 3.70598L9.01881 3.70649C9.00697 4.66195 8.99521 5.61057 8.99521 6.55383C8.99521 6.87053 8.96881 7.17268 8.94579 7.43618L8.94481 7.44742C8.92065 7.72397 8.90052 7.95934 8.90052 8.1956C8.90052 8.22726 8.90057 8.25977 8.90062 8.29305C8.90131 8.72928 8.9022 9.29798 8.79076 9.82143C8.77514 9.8948 8.76083 10.0014 8.75734 10.0669C8.74321 10.3325 8.62771 10.5309 8.58836 10.5984L8.58648 10.6017C8.58153 10.6102 8.57569 10.6201 8.57068 10.6285C8.50129 10.8502 8.40369 11.0184 8.29334 11.1629C8.2463 11.2245 8.19699 11.2814 8.16423 11.3192C8.16134 11.3225 8.15858 11.3257 8.15596 11.3288C8.11913 11.3713 8.09363 11.4013 8.06839 11.4342C7.87618 11.685 7.61899 11.7988 7.52639 11.8397C7.52412 11.8407 7.52194 11.8417 7.51987 11.8426C7.48734 11.857 7.46942 11.8648 7.4576 11.8699C7.4532 11.8717 7.44965 11.8733 7.4465 11.8747C7.34217 11.9535 7.24011 12.0035 7.17903 12.0315C7.12207 12.0576 7.0559 12.0841 7.01916 12.0988C7.01811 12.0992 7.01709 12.0996 7.01609 12.1C7.17534 12.1906 7.33232 12.3001 7.4897 12.4315C7.70947 12.615 7.85361 12.8433 7.92996 12.9642L7.9326 12.9684C7.9455 12.9888 7.95682 13.0069 7.96707 13.0232C7.99503 13.0678 8.01502 13.0996 8.03745 13.1327C8.05073 13.1523 8.06084 13.1662 8.06853 13.1761C8.0762 13.1859 8.07974 13.1896 8.07932 13.1892C8.25051 13.3678 8.37368 13.5934 8.45172 13.7605C8.53493 13.9387 8.60924 14.1429 8.64872 14.3284C8.6485 14.3273 8.64866 14.328 8.64935 14.3308C8.65095 14.3372 8.65539 14.3551 8.66437 14.3895C8.67549 14.432 8.69017 14.487 8.70751 14.5514C8.71853 14.5923 8.7306 14.637 8.7433 14.6841C8.7699 14.7826 8.79925 14.8912 8.82737 14.9967C8.86876 15.1519 8.91026 15.3104 8.93964 15.4324C8.95374 15.4909 8.96834 15.5544 8.97841 15.6089C8.98249 15.631 8.99131 15.68 8.99527 15.7354L8.99535 15.7365C8.99677 15.7563 9.00228 15.833 8.98763 15.9269C8.98136 15.9671 8.96033 16.092 8.87673 16.2289C8.77775 16.3908 8.5359 16.6383 8.13536 16.6383C7.68091 16.6383 7.30881 16.297 7.27762 15.8648C7.27443 15.8507 7.27024 15.8327 7.26488 15.8105C7.24048 15.7092 7.2034 15.5671 7.16224 15.4127C7.14072 15.332 7.11679 15.2434 7.09315 15.1559C7.03532 14.9417 6.97924 14.734 6.96442 14.6644C6.95667 14.628 6.9297 14.5426 6.88465 14.4461C6.86369 14.4012 6.84345 14.364 6.82668 14.337C6.81871 14.3242 6.81333 14.3166 6.8109 14.3132C6.72173 14.2189 6.65189 14.123 6.59988 14.0463C6.55911 13.9862 6.51765 13.9201 6.48648 13.8703C6.47874 13.858 6.47164 13.8466 6.46533 13.8366C6.39028 13.7178 6.36499 13.6913 6.36527 13.6911C6.3653 13.6911 6.3657 13.6914 6.36641 13.692C6.14289 13.5053 5.97532 13.4409 5.76513 13.4069C5.53228 13.3693 5.26922 13.37 4.82586 13.371C4.74526 13.3712 4.6587 13.3715 4.56527 13.3715C3.94676 13.3715 3.28997 13.279 2.70757 13.1969L2.67568 13.1925C2.05594 13.1052 1.51548 13.0308 1.03358 13.0308C0.967619 13.0308 0.894847 13.0291 0.825274 13.0223C0.791718 13.019 0.738193 13.0127 0.677155 12.9984C0.67633 12.9982 0.675383 12.998 0.67432 12.9978C0.638923 12.9896 0.473589 12.9514 0.315141 12.8247C0.219787 12.7485 0.0730039 12.5963 0.0193444 12.3536C-0.0371508 12.098 0.0400557 11.8828 0.122867 11.7486C0.248732 11.5447 0.429938 11.4519 0.461425 11.4358C0.462579 11.4352 0.463533 11.4347 0.464274 11.4344C0.56556 11.3816 0.663128 11.3554 0.694711 11.347L0.695152 11.3469C0.846964 11.3062 1.09304 11.2673 1.2703 11.2673H2.02783C2.22893 11.2673 2.45059 11.2444 2.72036 11.2113C2.75728 11.2068 2.79544 11.2021 2.83463 11.1972C3.0636 11.1685 3.3277 11.1355 3.58615 11.1205C3.73925 11.1117 3.90109 11.0809 4.13768 11.0359C4.15546 11.0325 4.17367 11.029 4.19233 11.0255C4.4308 10.9802 4.7495 10.9214 5.08159 10.9214C5.09104 10.9214 5.12542 10.9191 5.20269 10.8993C5.23975 10.8898 5.28048 10.878 5.33001 10.8629C5.34403 10.8587 5.362 10.8531 5.38168 10.847C5.41796 10.8358 5.46005 10.8228 5.49389 10.8128C5.58571 10.7854 5.6686 10.7736 5.72454 10.7676C5.78305 10.7613 5.8375 10.7588 5.87873 10.7574C5.91374 10.7563 5.95034 10.7557 5.97831 10.7553C5.97981 10.7553 5.98128 10.7552 5.98273 10.7552C6.0271 10.7239 6.06771 10.6996 6.10045 10.6813C6.1931 10.6293 6.28457 10.5918 6.33551 10.5711C6.35836 10.5618 6.37545 10.555 6.38888 10.5496C6.40314 10.5439 6.41327 10.5398 6.42178 10.5363C6.5084 10.4719 6.59048 10.4279 6.64928 10.399C6.68575 10.3811 6.71939 10.3661 6.74426 10.3551C6.7524 10.3516 6.75868 10.3488 6.76381 10.3466C6.79181 10.3128 6.81705 10.2836 6.83764 10.2598C6.8803 10.2105 6.89677 10.1913 6.91037 10.1735C6.91552 10.1667 6.91789 10.1632 6.91875 10.1619L6.91939 10.1608L6.9194 10.1608C6.91942 10.1608 6.91942 10.1608 6.91941 10.1608L6.91947 10.1607L6.91975 10.1601L6.92116 10.1566C6.92249 10.1531 6.92494 10.1462 6.92805 10.1349C6.95889 10.0222 7.00367 9.93379 7.03121 9.88311C7.03788 9.87085 7.04438 9.85929 7.05035 9.84888C7.0629 9.72521 7.08328 9.59425 7.10645 9.48543C7.18095 9.13552 7.18089 8.72656 7.18082 8.24067C7.18082 8.22572 7.18081 8.2107 7.18081 8.1956C7.18081 7.88392 7.20696 7.58478 7.22983 7.32304L7.23122 7.30717C7.25532 7.03127 7.27551 6.79375 7.27551 6.55383C7.27551 5.60057 7.28737 4.64361 7.29917 3.69151L7.29924 3.68601C7.31109 2.73041 7.32285 1.77965 7.32285 0.832329C7.32285 0.372646 7.70782 0 8.1827 0ZM7.09144 9.77881C7.09155 9.77864 7.09135 9.77902 7.09079 9.78002C7.09115 9.77935 7.09137 9.77894 7.09144 9.77881ZM6.4478 10.5246C6.4479 10.5246 6.44649 10.5254 6.44334 10.5268C6.44614 10.5254 6.4477 10.5246 6.4478 10.5246ZM7.2856 15.9022C7.28625 15.9057 7.28606 15.9051 7.28541 15.9012C7.28548 15.9015 7.28554 15.9019 7.2856 15.9022ZM7.68698 15.0956C7.80462 15.0248 7.95358 14.9736 8.13536 14.9736C7.97106 14.9736 7.81754 15.0182 7.68698 15.0956Z" fill="#FF9070"/>
<path fill-rule="evenodd" clip-rule="evenodd" d="M8.37218 1.80896C8.84451 1.80896 9.22741 2.18966 9.22741 2.65928C9.22741 2.83696 9.23408 2.88908 9.24336 2.92391C9.26141 2.99164 9.28989 3.10151 9.31432 3.21623C9.33431 3.31005 9.36869 3.48207 9.36869 3.64376C9.36869 3.82308 9.41946 4.06764 9.4843 4.37992C9.48782 4.39687 9.49138 4.41402 9.49497 4.43137C9.6439 5.14986 9.69832 5.84943 9.69832 6.57196C9.69832 6.79907 9.74019 7.03474 9.80183 7.36663L9.80518 7.38464C9.8617 7.6888 9.93378 8.07668 9.93378 8.49044C9.93378 8.60723 9.93561 8.77882 9.94842 8.93929C9.95484 9.0197 9.96301 9.08379 9.97159 9.12904C9.9732 9.13756 9.97464 9.14439 9.97583 9.14967C10.0797 9.36911 10.0943 9.57139 10.0994 9.67001C10.1117 9.6873 10.1246 9.70625 10.1372 9.72585C10.1778 9.78901 10.2409 9.89812 10.2794 10.0425C10.3446 10.2872 10.5765 10.5105 10.9294 10.6227L10.6692 11.4327L10.9294 10.6227C11.2157 10.7136 11.5335 10.7831 11.7668 10.797C11.989 10.8103 12.2012 10.8558 12.3449 10.8866C12.3541 10.8886 12.3631 10.8905 12.3718 10.8924C12.5398 10.9283 12.6286 10.9446 12.7034 10.9477C12.7255 10.9486 12.7492 10.9489 12.7875 10.9495C12.7964 10.9496 12.8061 10.9498 12.8168 10.9499C12.8662 10.9506 12.9325 10.9519 13.0025 10.9561C13.1133 10.9627 13.3103 10.9797 13.5139 11.0587C13.5239 11.0596 13.5358 11.0605 13.5529 11.0619C13.5551 11.0621 13.5575 11.0622 13.5601 11.0624C13.6011 11.0657 13.6789 11.0718 13.7599 11.0853C13.8496 11.1003 13.9755 11.129 14.1101 11.1931C14.1097 11.1929 14.1095 11.1928 14.1095 11.1928C14.1095 11.1927 14.1318 11.2018 14.2045 11.2201C14.2295 11.2264 14.2501 11.2313 14.2746 11.2372C14.2913 11.2412 14.3098 11.2457 14.3328 11.2513C14.3811 11.2631 14.4414 11.2782 14.5039 11.2969L14.3528 11.7984L14.5039 11.2969C14.6167 11.3304 14.7236 11.3707 14.8095 11.404C14.8415 11.4164 14.8698 11.4276 14.896 11.4378C14.9491 11.4587 14.9936 11.4762 15.0431 11.4943C15.1114 11.5193 15.161 11.5348 15.1994 11.544C15.2331 11.5521 15.2477 11.5528 15.248 11.5528C15.2481 11.5528 15.2479 11.5528 15.2474 11.5528C15.5497 11.5528 15.7783 11.5567 15.9422 11.5646C16.0227 11.5685 16.1012 11.574 16.1709 11.5826C16.2053 11.5868 16.2508 11.5934 16.3001 11.6044L16.3011 11.6046C16.3325 11.6116 16.4444 11.6365 16.5647 11.7052C16.6232 11.7386 16.7637 11.8265 16.8716 12.0002C17.0067 12.2175 17.0434 12.4963 16.943 12.7565C16.8626 12.9647 16.7243 13.0823 16.6661 13.1273C16.5975 13.1805 16.5348 13.2127 16.5002 13.2291C16.3876 13.2825 16.2743 13.3064 16.2378 13.3141L16.235 13.3147C16.1262 13.3377 15.9876 13.3571 15.8559 13.3733C15.3294 13.4378 14.432 13.5059 14.201 13.5059C14.1232 13.5059 14.025 13.5214 13.8391 13.5591C13.8264 13.5617 13.8131 13.5644 13.7991 13.5673C13.6424 13.5994 13.4104 13.6469 13.1743 13.6566C13.0871 13.6602 12.9773 13.6672 12.8566 13.675C12.6218 13.6901 12.346 13.7078 12.1159 13.7078C12.0572 13.7078 11.9677 13.7236 11.7802 13.7787C11.757 13.7855 11.7307 13.7935 11.7018 13.8022C11.546 13.8493 11.3162 13.9188 11.0924 13.9531C11.0439 13.9606 10.9939 13.966 10.9548 13.9699C10.9265 13.9728 10.8943 13.9758 10.864 13.9787C10.8519 13.9798 10.84 13.9809 10.829 13.982C10.7434 13.9901 10.6655 13.9983 10.5949 14.0091C10.5742 14.0123 10.5558 14.0154 10.5395 14.0185C10.4926 14.0569 10.4492 14.0857 10.4173 14.1054C10.3955 14.119 10.3751 14.1307 10.3581 14.1401C10.308 14.2155 10.2596 14.2976 10.2109 14.3888C10.0645 14.6635 9.95614 14.8936 9.91879 15.0738C9.88261 15.2484 9.81666 15.4894 9.71727 15.7074C9.71721 15.7098 9.71715 15.7124 9.71708 15.7151C9.71689 15.7227 9.71667 15.7316 9.71634 15.7435C9.71566 15.7679 9.71461 15.8008 9.7124 15.8366C9.70805 15.9069 9.69815 16.0107 9.66718 16.1269C9.60297 16.3678 9.55705 16.6517 9.55705 16.8711C9.55705 17.0065 9.5734 17.1501 9.59797 17.3524L9.60024 17.371C9.62185 17.5487 9.64972 17.7779 9.65117 18.0158C9.65128 18.0165 9.6514 18.0172 9.65153 18.0179C9.65408 18.0328 9.65896 18.0557 9.66681 18.0852C9.68315 18.1467 9.70399 18.2058 9.71751 18.2384L9.45531 18.3458L9.71751 18.2384C9.77785 18.3839 9.79614 18.5198 9.80325 18.6067C9.8108 18.6991 9.8091 18.7844 9.80638 18.847C9.80408 18.9002 9.8001 18.9543 9.79737 18.9914C9.79692 18.9975 9.79651 19.0031 9.79614 19.0082C9.79463 19.0291 9.79367 19.0436 9.79306 19.0552C9.79243 19.0671 9.7925 19.07 9.7925 19.0673C9.7925 19.2698 9.77854 19.4556 9.76709 19.6078L9.76658 19.6146C9.75445 19.7759 9.74541 19.8998 9.74541 20.0265C9.74541 20.2916 9.68706 20.724 9.63933 21.0055C9.61648 21.1402 9.58509 21.3076 9.5487 21.4253L9.54831 21.4266C9.54098 21.4503 9.51596 21.5313 9.46768 21.6181L9.46638 21.6204C9.44975 21.6506 9.36905 21.7967 9.20064 21.9125C9.09874 21.9826 8.91634 22.0741 8.67395 22.0634C8.42065 22.0522 8.23213 21.9355 8.11816 21.8269C7.94286 21.6599 7.89122 21.4663 7.88202 21.4318C7.8817 21.4306 7.88143 21.4296 7.88121 21.4288C7.86377 21.365 7.85688 21.3114 7.85385 21.2841C7.8474 21.2259 7.84658 21.1722 7.84658 21.1372V20.077C7.84658 19.9818 7.82813 19.8686 7.78955 19.6561L7.78648 19.6392C7.75324 19.4564 7.70531 19.1928 7.70531 18.9158C7.70531 18.8614 7.70853 18.8064 7.71138 18.7647C7.71443 18.7202 7.71846 18.6717 7.72226 18.6266L7.7238 18.6083C7.73128 18.5196 7.73844 18.4347 7.74293 18.3524C7.74582 18.2993 7.74699 18.257 7.74702 18.2246C7.70319 18.1254 7.68106 18.0339 7.66892 17.9647C7.6486 17.8489 7.64786 17.7449 7.64926 17.6784C7.6504 17.6239 7.65411 17.5656 7.65622 17.5326C7.65661 17.5265 7.65694 17.5212 7.65719 17.517C7.65822 17.5 7.65862 17.4903 7.6588 17.4858C7.65279 17.3903 7.62897 17.2444 7.60733 17.169C7.58729 17.0991 7.57599 17.0353 7.56902 16.9859C7.56191 16.9356 7.55772 16.8885 7.55494 16.8498C7.55215 16.8111 7.55031 16.7736 7.54891 16.7436C7.54849 16.7347 7.54812 16.7265 7.54777 16.7189C7.54682 16.6981 7.54605 16.6812 7.54508 16.6635C7.54499 16.6619 7.54491 16.6604 7.54482 16.6589C7.48906 16.5333 7.47237 16.4204 7.46633 16.3518C7.46395 16.3248 7.46281 16.2988 7.46244 16.2747C7.42875 16.2044 7.39121 16.1337 7.34519 16.0528C7.11269 15.644 7.25751 15.1252 7.66866 14.8941C7.84548 14.7946 8.04276 14.7646 8.22869 14.7952C8.23401 14.774 8.23902 14.7523 8.24353 14.7305C8.33652 14.2819 8.56054 13.8533 8.69959 13.5925C8.79919 13.4056 8.91309 13.2172 9.05097 13.0324C9.14001 12.9131 9.23889 12.8321 9.31325 12.7799C9.37067 12.7395 9.42539 12.7084 9.46129 12.6888C9.63147 12.5317 9.82044 12.4593 9.91563 12.4265C10.0652 12.3749 10.2175 12.3461 10.3351 12.3282C10.4246 12.3145 10.5126 12.3045 10.5883 12.2967C10.5262 12.279 10.4663 12.2609 10.4089 12.2426C9.72778 12.0263 8.95382 11.5041 8.66091 10.5968C8.64014 10.5693 8.61053 10.5287 8.58224 10.4839C8.54034 10.4175 8.48023 10.3099 8.44282 10.1695C8.41431 10.0625 8.40362 9.968 8.39849 9.90037C8.39594 9.86678 8.39455 9.8364 8.39363 9.8145C8.39335 9.80772 8.39312 9.80212 8.39293 9.79728C8.33739 9.66481 8.30807 9.53562 8.2907 9.44396C8.26682 9.31794 8.25248 9.18868 8.24332 9.07386C8.22496 8.84387 8.22331 8.61748 8.22331 8.49044C8.22331 8.24814 8.18055 8.00253 8.1198 7.67545C8.11768 7.664 8.11552 7.65243 8.11335 7.64073C8.05807 7.34376 7.98786 6.96649 7.98786 6.57196C7.98786 5.93672 7.94016 5.35571 7.81971 4.77463C7.81454 4.74968 7.80881 4.72259 7.80269 4.69361C7.74786 4.43425 7.66129 4.0247 7.6583 3.66291C7.658 3.66065 7.65761 3.65785 7.6571 3.65447C7.65404 3.63396 7.64874 3.60505 7.64097 3.56858C7.62541 3.49551 7.60549 3.4178 7.58995 3.3595C7.51743 3.08736 7.51695 2.83345 7.51695 2.65928C7.51695 2.18966 7.89985 1.80896 8.37218 1.80896ZM8.39035 9.74816C8.39038 9.74809 8.39056 9.74951 8.39081 9.7526C8.39044 9.74976 8.39032 9.74822 8.39035 9.74816ZM15.879 11.6513C15.8787 11.6514 15.8783 11.6514 15.878 11.6515C15.892 11.6478 15.8943 11.6481 15.879 11.6513ZM9.55709 21.1409C9.55708 21.141 9.55706 21.1401 9.55705 21.1384L9.55709 21.1409ZM7.74487 18.1625C7.74487 18.1625 7.74493 18.163 7.74503 18.164C7.74491 18.163 7.74486 18.1625 7.74487 18.1625ZM9.97943 9.16395C9.97942 9.16396 9.97926 9.16344 9.97895 9.16235C9.97928 9.16339 9.97944 9.16394 9.97943 9.16395Z" fill="#FF9070"/>
</svg>
