<svg width="242" height="208" viewBox="0 0 242 208" fill="none" xmlns="http://www.w3.org/2000/svg">
<path d="M-30.7171 30.5126C16.295 38.4642 61.6119 54.3553 103.294 77.5061C134.089 94.6005 175.125 119.788 178.038 159.084C178.57 166.301 176.921 173.835 172.554 179.603C168.186 185.371 160.909 189.114 153.71 188.342C137.259 186.583 135.11 166.623 140.573 154.428C157.151 117.442 200.201 98.4994 238.796 108.532" stroke="#FF9070" stroke-width="4.13" stroke-linecap="round" stroke-linejoin="round"/>
<path d="M238.796 108.532C234.795 107.712 231.167 105.618 228.457 102.562C226.904 100.765 225.721 98.6796 224.976 96.4244" stroke="#FF9070" stroke-width="4.13" stroke-linecap="round" stroke-linejoin="round"/>
<path d="M238.796 108.532C236.093 107.994 233.293 108.236 230.724 109.231C223.665 112.056 221.828 119.7 221.661 120.508" stroke="#FF9070" stroke-width="4.13" stroke-linecap="round" stroke-linejoin="round"/>
</svg>
