<svg width="62" height="52" viewBox="0 0 62 52" fill="none" xmlns="http://www.w3.org/2000/svg">
<path d="M27.5361 28.944V0H20.1201L16.3041 28.944H4.2801C13.4961 22.824 16.8801 11.592 17.0241 0H6.4401C7.0161 9.864 6.0801 20.736 0.824097 29.736V39.024H15.7281V50.4H27.5361V39.024H31.7121V28.944H27.5361Z" fill="#412850"/>
<path d="M31.7278 0V11.016H45.9118L33.2398 23.616L40.7278 30.6C41.8798 29.376 43.6798 28.584 45.3358 28.584C47.9998 28.584 49.5838 30.456 49.5838 34.632C49.5838 38.592 48.5758 40.68 46.5598 40.68C44.3998 40.68 43.3198 38.376 43.3198 32.616L30.9358 36.144C30.8638 45.72 36.9118 51.12 46.0558 51.12C55.1278 51.12 61.1758 44.568 61.1758 34.776C61.1758 28.008 58.0079 24.336 52.4639 24.336C50.1599 24.336 46.9918 25.056 43.6078 27.36L61.1758 8.64V0H31.7278Z" fill="#412850"/>
</svg>
