<svg width="114" height="52" viewBox="0 0 114 52" fill="none" xmlns="http://www.w3.org/2000/svg">
<path d="M23.4067 0.719999H15.6307L0.294678 14.4L5.26268 30.744L11.4547 10.8V40.104H2.38268V51.12H30.8227V40.104H23.4067V0.719999Z" fill="#412850"/>
<path d="M47.0103 24.624C55.9383 23.328 58.7463 18.504 58.7463 12.528C58.7463 5.04 53.1303 0 44.7063 0C36.2103 0 30.5943 5.04 30.5943 12.528C30.5943 17.28 31.8903 23.256 42.1863 24.624C32.6823 25.848 29.7303 31.248 29.7303 38.016C29.7303 46.296 35.7063 51.84 44.7063 51.84C53.6343 51.84 59.5383 46.296 59.5383 38.016C59.5383 31.176 56.5143 25.848 47.0103 24.624ZM44.7063 10.008C46.4343 10.008 47.2263 11.736 47.2263 15.12C47.2263 18.504 46.5783 20.376 44.7063 20.376C42.7623 20.376 42.0423 18.504 42.0423 15.12C42.0423 11.736 42.9063 10.008 44.7063 10.008ZM44.7063 41.832C42.6903 41.832 41.9703 39.6 41.9703 35.496C41.9703 31.824 42.6183 29.808 44.7063 29.808C46.6503 29.808 47.2983 31.824 47.2983 35.496C47.2983 39.6 46.5783 41.832 44.7063 41.832Z" fill="#412850"/>
<path d="M73.9743 51.84C83.6943 51.84 89.3823 42.408 89.3823 26.352V25.92C89.3823 9.648 83.6943 0 73.9743 0C64.3263 0 58.6383 9.648 58.6383 25.92V26.352C58.6383 42.408 64.3263 51.84 73.9743 51.84ZM73.9743 41.4C72.3183 41.4 70.9503 39.816 70.9503 26.352V25.92C70.9503 12.168 72.3183 10.584 73.9743 10.584C75.6303 10.584 77.0703 12.168 77.0703 25.92V26.352C77.0703 39.816 75.7023 41.4 73.9743 41.4Z" fill="#412850"/>
<path d="M106.505 42.408V30.672H113.705V21.312H106.505V9.36H97.1454V21.312H90.0174V30.672H97.1454V42.408H106.505Z" fill="#412850"/>
</svg>
