<svg width="317" height="70" viewBox="0 0 317 70" fill="none" xmlns="http://www.w3.org/2000/svg">
<path d="M30.7655 45.288C30.7655 25.92 12.4055 33.984 12.4055 22.32C12.4055 20.088 13.3415 18.72 14.9255 18.72C16.2935 18.72 18.0215 19.08 17.0135 27.216L30.1895 23.688C30.1895 16.2 26.1575 10.872 19.8215 9.216V0H16.2215V8.712H15.5735C14.7815 8.712 14.0615 8.784 13.3415 8.856V0H9.74152V9.648C3.83752 11.808 0.165527 17.208 0.165527 24.48C0.165527 43.848 18.5255 35.928 18.5255 47.304C18.5255 48.96 17.5175 50.4 16.0775 50.4C13.7015 50.4 12.6215 48.528 13.4855 42.624L0.381523 46.152C0.381523 52.704 3.98152 57.6 9.74152 59.544V69.048H13.3415V60.336C14.1335 60.408 14.9255 60.48 15.7175 60.48H16.2215V69.048H19.8215V60.048C26.5175 58.464 30.7655 52.992 30.7655 45.288Z" fill="#412850"/>
<path d="M50.943 9.36H43.167L27.831 23.04L32.799 39.384L38.991 19.44V48.744H29.919V59.76H58.359V48.744H50.943V9.36Z" fill="#412850"/>
<path d="M77.4986 23.904C74.4026 23.904 71.3066 26.064 69.6506 31.824C69.9386 26.856 70.1546 23.544 70.2986 20.376H86.1386V9.36H59.7866C59.8586 21.528 58.8506 31.176 57.4106 38.52L69.0746 40.32C69.2186 35.496 70.2986 33.984 71.8826 33.984C73.7546 33.984 74.6186 36.072 74.6186 41.184C74.6186 47.232 73.6826 50.04 71.7386 50.04C69.7946 50.04 68.9306 47.736 68.9306 42.768L56.3306 43.632C56.4026 53.712 62.5226 60.48 71.7386 60.48C80.4506 60.48 86.2826 53.136 86.2826 42.048C86.2826 29.232 82.7546 23.904 77.4986 23.904Z" fill="#412850"/>
<path d="M92.658 48.744C105.618 42.984 113.394 32.04 113.394 22.608C113.394 13.824 108.282 8.64 99.642 8.64C90.57 8.64 85.026 15.048 85.026 24.624C85.026 27.144 85.17 29.736 85.386 31.104H96.834C96.618 29.592 96.474 26.928 96.474 25.2C96.474 21.312 97.482 19.08 99.282 19.08C101.01 19.08 101.946 20.952 101.946 24.552C101.946 29.736 101.154 37.872 85.53 52.056V59.76H113.682V48.744H92.658Z" fill="#412850"/>
<path d="M161.64 20.52C157.32 20.52 153.792 22.752 152.64 28.728C151.848 23.184 149.256 20.52 144.936 20.52C139.968 20.52 136.512 23.328 135.288 29.592L131.4 21.24H123.336V59.76H135.864V31.464C136.44 30.96 137.088 30.6 138.024 30.6C139.464 30.6 140.328 31.464 140.328 33.048V59.76H152.856V32.688V31.392C153.36 30.888 154.08 30.6 155.016 30.6C156.024 30.6 157.392 31.248 157.392 33.048V59.76H169.92V32.688C169.92 24.768 167.472 20.52 161.64 20.52Z" fill="#412850"/>
<path d="M178.401 17.568C183.081 17.568 186.249 14.544 186.249 10.08C186.249 5.616 183.081 2.592 178.401 2.592C173.721 2.592 170.553 5.616 170.553 10.08C170.553 14.544 173.721 17.568 178.401 17.568ZM184.593 59.76V21.24H172.065V59.76H184.593Z" fill="#412850"/>
<path d="M199.641 59.76V9.36H187.185V59.76H199.641Z" fill="#412850"/>
<path d="M214.691 59.76V9.36H202.235V59.76H214.691Z" fill="#412850"/>
<path d="M223.62 17.568C228.3 17.568 231.468 14.544 231.468 10.08C231.468 5.616 228.3 2.592 223.62 2.592C218.94 2.592 215.772 5.616 215.772 10.08C215.772 14.544 218.94 17.568 223.62 17.568ZM229.812 59.76V21.24H217.284V59.76H229.812Z" fill="#412850"/>
<path d="M245.94 60.48C254.796 60.48 260.7 52.488 260.7 40.536C260.7 28.512 254.796 20.52 245.94 20.52C237.012 20.52 231.108 28.512 231.108 40.536C231.108 52.488 237.012 60.48 245.94 60.48ZM245.94 50.904C244.14 50.904 243.636 49.248 243.636 40.536C243.636 31.752 244.14 30.096 245.94 30.096C247.236 30.096 248.172 31.752 248.172 40.536C248.172 49.248 247.236 50.904 245.94 50.904Z" fill="#412850"/>
<path d="M283.609 20.52C278.641 20.52 275.185 23.328 273.961 29.592L270.073 21.24H262.009V59.76H274.537V31.464C275.113 30.96 275.761 30.6 276.697 30.6C278.137 30.6 279.001 31.464 279.001 33.048V59.76H291.529V32.688C291.529 24.408 288.865 20.52 283.609 20.52Z" fill="#412850"/>
<path d="M309.634 51.048V39.312H316.834V29.952H309.634V18H300.274V29.952H293.146V39.312H300.274V51.048H309.634Z" fill="#412850"/>
</svg>
