<svg width="225" height="189" viewBox="0 0 225 189" fill="none" xmlns="http://www.w3.org/2000/svg">
<path d="M233.251 171.98C198.346 177.05 161.252 162.748 138.777 135.551C134.115 129.918 130.05 123.389 128.25 116.236C126.677 109.975 126.509 99.1857 132.641 95.0622C136.061 92.783 140.669 93.8577 144.33 95.6823C156.219 101.622 164.354 115.571 163.134 128.953C161.908 142.477 149.054 146.205 138.002 140.976C123.172 133.953 111.781 122.536 102.725 108.979C93.8673 95.7155 87.0854 81.1685 78.5295 67.7112C65.6562 47.5092 48.9485 30.0259 29.351 16.2498" stroke="#FF9070" stroke-width="4.13" stroke-linecap="round" stroke-linejoin="round"/>
<path d="M29.3646 16.2232C32.9759 18.0786 43.1324 22.5996 55.4342 19.9033C59.5702 18.9827 63.5179 17.3606 67.1061 15.107" stroke="#FF9070" stroke-width="4.13" stroke-linecap="round" stroke-linejoin="round"/>
<path d="M29.3647 16.2232C34.0814 20.6464 36.9409 26.6969 37.3638 33.1493C37.9389 45.1596 29.3274 52.7086 28.2982 53.574" stroke="#FF9070" stroke-width="4.13" stroke-linecap="round" stroke-linejoin="round"/>
</svg>
