<svg width="12" height="8" viewBox="0 0 12 8" fill="none" xmlns="http://www.w3.org/2000/svg">
<path d="M6.59155 6.95L11.2999 2.23333C11.378 2.15586 11.44 2.06369 11.4823 1.96214C11.5246 1.8606 11.5464 1.75167 11.5464 1.64166C11.5464 1.53165 11.5246 1.42273 11.4823 1.32118C11.44 1.21963 11.378 1.12747 11.2999 1.05C11.1438 0.894789 10.9325 0.807671 10.7124 0.807671C10.4922 0.807671 10.281 0.894789 10.1249 1.05L5.95822 5.175L1.83322 1.05C1.67709 0.894789 1.46588 0.807671 1.24572 0.807671C1.02557 0.807671 0.814357 0.894789 0.658221 1.05C0.579481 1.12718 0.516839 1.21921 0.473926 1.32078C0.431011 1.42234 0.40868 1.53141 0.408222 1.64166C0.40868 1.75192 0.431011 1.86099 0.473926 1.96255C0.516839 2.06411 0.579481 2.15615 0.658221 2.23333L5.36655 6.95C5.44459 7.03458 5.5393 7.10209 5.64472 7.14826C5.75013 7.19444 5.86397 7.21827 5.97905 7.21827C6.09414 7.21827 6.20798 7.19444 6.31339 7.14826C6.41881 7.10209 6.51352 7.03458 6.59155 6.95Z" fill="black"/>
</svg>
