<svg width="12" height="8" viewBox="0 0 12 8" fill="none" xmlns="http://www.w3.org/2000/svg">
<path d="M5.40844 1.04999L0.700089 5.76666C0.621988 5.84413 0.559989 5.9363 0.517689 6.03785C0.475389 6.13939 0.453588 6.24832 0.453588 6.35833C0.453588 6.46834 0.475389 6.57726 0.517689 6.67881C0.559989 6.78036 0.621988 6.87252 0.700089 6.94999C0.856189 7.1052 1.06749 7.19232 1.28759 7.19232C1.50779 7.19232 1.71899 7.1052 1.87509 6.94999L6.04177 2.82499L10.1668 6.94999C10.3229 7.1052 10.5341 7.19232 10.7543 7.19232C10.9744 7.19232 11.1856 7.1052 11.3418 6.94999C11.4205 6.87281 11.4831 6.78078 11.5261 6.67921C11.569 6.57765 11.5913 6.46858 11.5918 6.35833C11.5913 6.24807 11.569 6.139 11.5261 6.03744C11.4831 5.93588 11.4205 5.84384 11.3418 5.76666L6.63344 1.04999C6.5554 0.965413 6.46069 0.897903 6.35527 0.851733C6.24986 0.805553 6.13602 0.781723 6.02094 0.781723C5.90585 0.781723 5.79201 0.805553 5.6866 0.851733C5.58118 0.897903 5.48647 0.965413 5.40844 1.04999Z" fill="black"/>
</svg>
