<svg width="1440" height="567" viewBox="0 0 1440 567" fill="none" xmlns="http://www.w3.org/2000/svg">
<g clip-path="url(#clip0_87_1971)">
<rect width="1080" height="1618" transform="translate(-89 823) rotate(-90)" fill="#ABE3AA"/>
<path d="M1658.56 -686.575C1597.2 -697.792 1525.65 -694.384 1472.84 -657.719C1392.17 -601.71 1413.77 -489.073 1386.18 -406.909C1337.88 -263.037 1201.71 -241.86 1070.23 -220.357C919.507 -195.704 973.071 -28.2482 982.354 75.0498C1004.79 324.771 705.94 398.472 522.429 309.717C401.354 251.148 316.526 144.079 196.826 84.0623C110.086 40.5702 9.90326 24.3935 -86.1306 38.3217C-110.268 41.8259 -138.539 51.1941 -144.384 74.872" stroke="#E1F8DE" stroke-opacity="0.18" stroke-width="6" stroke-miterlimit="10"/>
<path d="M2192.98 -708.446C2148.37 -621.143 2183.49 -516.904 2203.26 -420.863C2213.97 -368.79 2219.89 -315.843 2220.94 -262.689C2221.68 -224.557 2219.61 -185.107 2202.92 -150.82C2171.96 -87.1873 2096.61 -55.6897 2025.85 -54.1635C1955.1 -52.6373 1886.41 -75.1632 1817.85 -92.6882C1749.29 -110.213 1676.11 -122.815 1608.54 -101.786C1503.49 -69.0992 1437.84 37.1252 1408.45 143.157C1389.93 210.005 1384.65 289.288 1430.47 341.362C1477.01 394.256 1561.19 397.979 1626.09 370.552C1690.99 343.126 1741.82 291.329 1793.16 243.077C1844.5 194.824 1901.21 147.339 1970.05 132.344C1995.36 126.836 2022.28 126.047 2046.71 134.674C2101.47 153.992 2130.68 215.976 2133.46 273.978C2138.33 375.764 2079.47 472.228 2001.39 537.723C1923.32 603.219 1827.44 643.007 1733.16 681.68C1675.84 705.198 1618.42 728.698 1563.13 756.651C1513.92 781.525 1465.29 810.919 1431.41 854.418C1375.04 926.759 1368.47 1025.68 1373.73 1117.27" stroke="#E1F8DE" stroke-opacity="0.18" stroke-width="6" stroke-miterlimit="10"/>
<path d="M769.657 542.524C714.138 539.064 658.158 528.907 604.39 521.539C479.6 504.44 345.675 507.963 254.438 606.709C150.07 719.664 176.133 893.325 323.709 950.097C436.108 993.341 563.88 969.692 672.409 926.119C770.528 886.727 866.81 843.117 961.255 795.287C1032.28 759.433 1137.93 723.842 1169.37 643.04C1199.42 565.806 1143.4 482.496 1060.63 480.959C1008.18 479.985 966.281 511.475 918.815 528.033C871.74 544.454 818.888 545.588 769.657 542.524Z" stroke="#E1F8DE" stroke-opacity="0.18" stroke-width="6" stroke-miterlimit="10"/>
<path d="M1485.46 904.489C1559.82 816.475 1692.39 769.964 1795.14 724.861C1909.34 674.73 2015.88 617.125 2110.87 535.882C2228.73 435.085 2412.57 331.524 2505.9 516.524C2574.36 652.197 2590.36 825.606 2528.8 967.981C2429.9 1196.75 2132.13 1267.44 1906.82 1256.92C1790.67 1251.49 1669.38 1227.86 1566.4 1171.72C1509.83 1140.87 1451.08 1083.45 1444.93 1015.96C1441.21 975.071 1458.56 936.346 1485.46 904.489Z" stroke="#E1F8DE" stroke-opacity="0.18" stroke-width="6" stroke-miterlimit="10"/>
<path d="M642.289 1102.93C642.448 1047.11 682.595 999.112 727.38 965.788C786.601 921.729 853.649 896.755 922.074 871.566C1057.41 821.698 1181.32 762.133 1256.31 633.75C1288.68 578.315 1317.63 518.617 1379.4 490.686C1442.4 462.197 1512.13 456.055 1577.48 434.996C1652.39 410.859 1715.49 370.39 1774.88 320.041C1833.06 270.685 1931.6 136.263 2021.12 181.141C2087.3 214.309 2083.11 297.456 2064.55 358.058C2036.36 450.069 1964.43 520.78 1881.03 565.187C1782.47 617.673 1679.62 664.696 1575.74 705.58C1494.24 737.652 1411.06 777.028 1363.8 854.622C1310.9 941.462 1310.59 1049.25 1314.95 1147.55" stroke="#E1F8DE" stroke-opacity="0.18" stroke-width="6" stroke-miterlimit="10"/>
<path d="M1848.78 305.642C1777.5 376.976 1688.25 430.206 1591.61 459.03C1556.6 469.472 1520.36 476.881 1487.63 493.109C1454.9 509.338 1425.21 536.449 1416.56 571.922C1407.91 607.394 1427.12 650.519 1462.62 659.132C1480.24 663.407 1498.68 659.102 1516.29 654.805C1602.1 633.861 1688.3 612.639 1769.67 578.297C1824.55 555.134 1885.83 523.284 1936.12 481.089C1986.42 438.893 2025.72 386.359 2036.66 321.83C2038.21 312.656 2039.13 303.385 2039.4 294.085C2039.74 282.261 2037.92 271.566 2034.46 260.235C2026.91 235.546 2010.57 207.215 1982.81 202.785C1960.7 199.255 1939.73 212.683 1923.41 226.048C1895.01 249.337 1874.55 279.857 1848.78 305.642Z" stroke="#E1F8DE" stroke-opacity="0.18" stroke-width="11" stroke-miterlimit="10"/>
<path d="M1298.53 616.613C1294.89 623.381 1291.58 630.638 1291.43 638.324C1291.28 646.011 1295.01 654.253 1302.07 657.283C1310.22 660.806 1319.39 656.646 1327.93 654.182C1349.79 647.885 1374.28 653.501 1392.39 667.259C1410.49 681.016 1422.24 702.294 1426.14 724.675C1426.97 729.431 1427.87 734.892 1431.98 737.414C1433.95 738.618 1436.34 738.896 1438.65 738.896C1448.74 738.77 1457.88 733.232 1466.27 727.635C1471.95 723.849 1478.17 718.856 1478.15 712.029C1478.15 706.724 1474.13 702.149 1469.48 699.593C1464.84 697.037 1459.53 696.011 1454.48 694.407C1431.86 687.232 1414.9 668.807 1399.07 651.123C1393.71 645.137 1388.27 639.028 1384.93 631.72C1379.81 620.481 1380.18 607.505 1382.17 595.31C1384.2 582.845 1394.08 558.978 1387.14 547.002C1380.98 536.375 1366.76 544.502 1359.32 549.277C1333.93 565.568 1312.77 590.202 1298.53 616.613Z" stroke="#E1F8DE" stroke-opacity="0.18" stroke-width="11" stroke-miterlimit="10"/>
<path d="M1331.82 -173.456C1301.33 -187.644 1266.62 -194.83 1233.65 -196.964C1160.44 -201.698 1054.26 -191.815 1024.19 -112.073C998.835 -44.8396 1035.33 38.4218 1037.45 107.807C1039.02 158.83 1024.28 208.845 997.368 252.037C983.569 274.189 966.767 294.196 948.141 312.417C929.957 330.224 896.163 351.983 897.174 380.947C898.411 416.356 943.848 430.91 972.675 431.284C997.494 431.603 1022 425.821 1046.79 424.52C1089.6 422.279 1118.36 449.917 1153.44 469.942C1197.41 495.05 1255.42 495.206 1302.27 477.492C1351.65 458.815 1366.53 415.8 1361.69 365.733C1355.04 297.182 1345.24 237.128 1358.92 168.42C1368.23 121.65 1382.28 74.7572 1399.93 30.4391C1415.49 -8.64495 1427.55 -44.3284 1413.72 -86.5092C1400 -128.32 1369.07 -156.117 1331.82 -173.456Z" stroke="#E1F8DE" stroke-opacity="0.18" stroke-width="6" stroke-miterlimit="10"/>
<path d="M1054.91 -64.2909C1034.22 -8.01901 1063.33 61.2476 1064.32 119.031C1065.03 160.482 1053.11 201.077 1031.2 236.224C1019.96 254.249 1006.32 270.559 991.252 285.457C976.498 300.06 949.282 317.829 949.957 341.366C950.786 370.119 987.048 381.906 1010.09 382.973C1029.95 383.892 1049.93 380.38 1070.39 379.98C1105.59 379.198 1130.03 402.002 1159.58 417.693C1196.99 437.574 1245.07 435.044 1283.49 419.149C1323.09 402.769 1335.36 367.93 1331.52 326.912C1326.27 270.699 1318.51 221.303 1329.01 164.931C1333.21 142.368 1338.44 119.705 1345.34 97.4904C1350.41 81.147 1356.37 64.9741 1362.94 49.1568C1376.39 16.596 1387.34 -13.2791 1376.82 -48.2662C1366.45 -83.0865 1341.42 -106.542 1309 -121.344C1283.22 -133.198 1254.23 -138.755 1226.82 -139.866C1165.81 -142.229 1079.38 -130.627 1054.91 -64.2909Z" stroke="#E1F8DE" stroke-opacity="0.18" stroke-width="11" stroke-miterlimit="10"/>
<path d="M1085.63 -16.5094C1069.6 28.8016 1091.35 84.0548 1091.19 130.258C1091.02 162.157 1081.96 193.376 1065.03 220.41C1056.36 234.308 1045.89 246.921 1034.36 258.483C1023.05 269.881 1002.41 283.672 1002.74 301.782C1003.17 323.882 1030.28 332.898 1047.51 334.661C1062.44 336.184 1077.87 334.976 1094 335.439C1121.6 336.232 1141.76 354.079 1165.72 365.444C1196.6 380.087 1234.68 374.927 1264.72 360.806C1294.52 346.8 1304.17 320.059 1301.35 288.098C1297.49 244.221 1291.75 205.47 1299.11 161.452C1302.16 143.183 1305.71 124.761 1311.24 106.773C1315.27 93.6712 1320.35 80.6617 1325.94 67.8782C1337.34 41.8666 1347.06 17.7924 1339.94 -10.0009C1332.83 -37.7942 1313.74 -56.875 1286.19 -69.214C1265.1 -78.6637 1241.86 -82.6606 1219.99 -82.7384C1171.16 -82.7569 1104.5 -69.44 1085.63 -16.5094Z" stroke="#E1F8DE" stroke-opacity="0.18" stroke-width="6" stroke-miterlimit="10"/>
<path d="M1116.35 31.2723C1104.91 65.5963 1119.4 106.84 1118.04 141.486C1117.17 163.749 1110.74 185.545 1098.84 204.596C1092.74 214.372 1085.42 223.27 1077.46 231.508C1069.56 239.687 1055.51 249.496 1055.51 262.202C1055.53 277.649 1073.56 283.935 1084.92 286.354C1095 288.495 1105.78 289.547 1117.58 290.903C1137.59 293.195 1153.49 306.123 1171.85 313.191C1196.23 322.578 1224.21 314.925 1245.93 302.449C1265.94 290.965 1272.97 272.174 1271.17 249.266C1268.71 217.728 1264.91 189.598 1269.19 157.952C1271.07 143.972 1272.96 129.799 1277.12 116.034C1280.11 106.177 1284.29 96.3271 1288.94 86.5922C1298.24 67.1188 1306.78 48.8418 1303.04 28.2496C1299.26 7.48333 1286.08 -7.27089 1263.37 -17.0984C1246.98 -24.1884 1229.46 -26.6221 1213.15 -25.6183C1176.52 -23.392 1129.53 -8.28589 1116.35 31.2723Z" stroke="#E1F8DE" stroke-opacity="0.18" stroke-width="6" stroke-miterlimit="10"/>
<path d="M1147.07 79.0541C1140.29 102.421 1147.6 129.544 1144.9 152.71C1143.42 165.349 1139.56 177.777 1132.68 188.783C1129.11 194.371 1125.06 199.641 1120.58 204.533C1116.1 209.505 1108.62 215.328 1108.29 222.618C1107.89 231.412 1117 235.19 1122.35 238.042C1127.8 240.95 1133.7 244.091 1141.19 246.362C1153.55 250.111 1165.29 258.09 1177.99 260.942C1195.96 264.976 1213.68 255.264 1227.16 244.121C1237.44 235.635 1241.81 224.322 1241.01 210.464C1239.94 191.265 1237.95 173.714 1239.28 154.481C1239.96 144.768 1240.24 134.874 1243.03 125.324C1244.97 118.709 1248.24 112.019 1251.95 105.321C1259.13 92.3784 1266.57 79.8838 1266.16 66.515C1265.73 52.7351 1258.44 42.3223 1240.57 35.0285C1229.73 30.5626 1217.84 29.3326 1206.32 31.4872C1181.85 36.088 1154.65 52.9166 1147.07 79.0541Z" stroke="#E1F8DE" stroke-opacity="0.18" stroke-width="6" stroke-miterlimit="10"/>
<path d="M1177.77 126.836C1175.74 139.264 1177.07 152.525 1171.75 163.938C1167.7 172.639 1159.87 180.137 1159.74 189.731C1159.57 201.44 1172.53 210.456 1184.1 208.689C1195.68 206.923 1204.72 196.91 1208.36 185.782C1212.01 174.654 1211.14 162.567 1209.35 150.995C1208.5 145.553 1207.48 139.927 1208.9 134.604C1213.18 118.605 1249.37 98.4423 1217.73 87.1664C1194.49 78.8836 1180.74 108.703 1177.77 126.836Z" stroke="#E1F8DE" stroke-opacity="0.18" stroke-width="6" stroke-miterlimit="10"/>
<path d="M96.9652 -419.311C108.526 -337.786 146.799 -261.56 215.992 -214.3C303.224 -154.724 376.35 -132.32 415.12 -25.985C454.144 81.0691 465.831 193.798 576.301 254.604C679.332 311.313 839.491 293.973 895.241 178.981C948.242 69.6858 894.833 -53.3671 896.522 -167.396C897.3 -219.971 915.044 -272.928 963.285 -300.01C1033.54 -339.453 1118.73 -305.9 1192.07 -333.412C1266.52 -361.35 1324.94 -431.435 1357.23 -501.909C1390.41 -574.309 1380.27 -652.526 1302.89 -688.661C1173.95 -748.87 1023.78 -760.191 883.565 -766.429C733.111 -773.126 584.998 -757.909 437.245 -730.368C354.68 -714.965 264.388 -707.575 192.558 -659.841C119.954 -611.593 87.7267 -521.594 94.9871 -436.665C95.4761 -430.953 96.1354 -425.168 96.9652 -419.311Z" stroke="#E1F8DE" stroke-opacity="0.18" stroke-width="11" stroke-miterlimit="10"/>
<path d="M239.499 -643.569C173.963 -599.41 145.055 -517.889 151.411 -440.833C151.838 -435.647 152.419 -430.399 153.152 -425.089C163.372 -351.133 197.641 -282.104 258.676 -238.434C335.907 -183.177 398.939 -159.325 434.908 -62.2204C471.621 36.4064 486.857 134.574 586.08 186.152C678.725 234.308 821.377 218.195 871.822 114.66C919.804 16.1885 873.37 -94.3514 876.201 -196.523C877.464 -243.609 893.87 -290.983 937.421 -315.242C953.946 -324.451 971.379 -329.248 989.282 -331.734C1040.13 -338.79 1094.88 -327.251 1143.75 -345.71C1210.7 -370.966 1263.08 -434.046 1291.95 -497.56C1321.58 -562.67 1312.17 -632.356 1243.42 -665.854C1126.44 -722.855 987.322 -735.494 858.153 -740.621C723.365 -745.989 590.644 -732.523 458.401 -707.475C384.474 -693.462 303.739 -686.498 239.499 -643.569Z" stroke="#E1F8DE" stroke-opacity="0.18" stroke-width="6" stroke-miterlimit="10"/>
<path d="M286.443 -627.292C227.782 -587.456 202.356 -514.185 207.831 -445C208.199 -440.345 208.701 -435.633 209.339 -430.864C218.229 -364.48 248.489 -302.636 301.357 -262.571C368.601 -211.607 421.524 -186.333 454.715 -98.4705C489.12 -8.26356 507.838 75.2979 595.878 117.682C678.113 157.263 803.278 142.401 848.403 50.3013C891.373 -37.346 851.911 -135.376 855.879 -225.694C857.627 -267.286 872.685 -309.041 911.565 -330.526C926.305 -338.675 941.852 -342.939 957.836 -345.176C1003.17 -351.522 1051.97 -341.472 1095.48 -358.056C1154.93 -380.652 1201.27 -436.71 1226.71 -493.263C1252.8 -551.091 1244.12 -612.297 1184.01 -643.105C1078.94 -696.947 950.931 -710.846 832.805 -714.865C713.63 -718.917 596.304 -707.167 479.574 -684.616C414.267 -671.958 342.926 -665.653 286.443 -627.292Z" stroke="#E1F8DE" stroke-opacity="0.18" stroke-width="6" stroke-miterlimit="10"/>
<path d="M333.384 -611.019C281.706 -575.38 259.673 -510.477 264.251 -449.167C264.56 -445.041 264.985 -440.866 265.526 -436.643C273.056 -377.826 299.349 -323.143 344.057 -286.708C401.332 -240.012 443.913 -213.259 474.5 -134.687C506.356 -52.8225 528.704 16.0143 605.654 49.2493C677.384 80.2283 785.156 66.6594 824.966 -14.0127C862.91 -90.836 830.43 -176.353 835.539 -254.818C837.761 -290.92 851.467 -327.081 885.684 -345.754C898.649 -352.833 912.303 -356.578 926.349 -358.564C966.174 -364.194 1009.01 -355.667 1047.17 -370.347C1099.11 -390.254 1139.41 -439.317 1161.43 -488.885C1183.98 -539.426 1176.04 -592.234 1124.55 -620.272C1031.33 -671.021 914.496 -686.134 807.408 -689.028C703.877 -691.821 601.942 -681.745 500.719 -661.686C444.061 -650.455 382.203 -644.672 333.384 -611.019Z" stroke="#E1F8DE" stroke-opacity="0.18" stroke-width="6" stroke-miterlimit="10"/>
<path d="M66.4159 -253.236C119.936 -228.925 171.822 -201.005 221.344 -169.419C300.55 -118.896 374.176 -51.9927 399.569 41.9185C402.77 53.7723 404.87 66.1075 403.336 78.2724C391.683 170.672 269.778 87.5814 233.335 63.3886C199.504 40.9295 162.646 22.3747 123.877 9.96901C63.071 -9.48965 -2.66913 -14.1756 -65.9051 -19.7246C-109.001 -23.5067 -149.17 -27.5925 -183.442 -57.1787C-243.767 -109.254 -261.784 -240.778 -208.106 -304.54C-168.87 -351.14 -89.4348 -313.557 -43.8905 -297.536C-6.529 -284.395 30.2398 -269.629 66.4159 -253.236Z" stroke="#E1F8DE" stroke-opacity="0.18" stroke-width="11" stroke-miterlimit="10"/>
<path d="M-155.816 -271.391C-123.374 -309.119 -58.0446 -279.01 -19.7015 -265.867C11.2368 -255.177 41.7898 -243.101 71.7057 -229.658C116.357 -209.633 159.564 -186.64 199.978 -160.525C266.844 -117.322 321.946 -61.2497 339.171 13.0288C341.345 22.4117 342.556 32.1429 341.115 41.726C330.08 115.16 232.876 48.5307 203.004 28.9054C175.518 10.7803 145.606 -4.211 114.164 -14.2682C64.8453 -30.0484 11.5553 -33.8713 -39.7121 -38.5683C-57.8076 -40.2278 -75.3326 -41.9837 -91.8759 -46.54C-108.419 -51.0962 -123.77 -58.6678 -137.668 -71.1883C-185.572 -114.343 -199.678 -219.994 -155.816 -271.391Z" stroke="#E1F8DE" stroke-opacity="0.18" stroke-width="6" stroke-miterlimit="10"/>
<path d="M-103.541 -238.241C-78.0294 -267.216 -26.6397 -244.56 4.47263 -234.199C29.0136 -226.028 53.2693 -216.567 76.9805 -206.08C112.764 -190.337 147.281 -172.256 178.597 -151.627C233.12 -115.729 269.685 -70.5401 278.753 -15.8573C279.905 -8.92288 280.235 -1.83285 278.879 5.18308C268.437 59.5918 195.925 9.53563 172.659 -5.55937C151.503 -19.3171 128.57 -30.8005 104.452 -38.5091C66.6159 -50.6073 25.7834 -53.5819 -13.5191 -57.401C-28.1363 -58.8271 -42.3422 -60.3644 -55.6925 -64.2761C-69.292 -68.175 -81.7251 -75.3557 -91.8983 -85.1869C-127.4 -119.363 -137.757 -199.346 -103.541 -238.241Z" stroke="#E1F8DE" stroke-opacity="0.18" stroke-width="6" stroke-miterlimit="10"/>
<path d="M-9.69247 81.7137C110.901 96.7976 214.866 165.431 312.952 234.29C361.478 268.369 411.215 301.004 464.05 328.053C501.833 347.393 541.818 361.825 581.754 375.957C602.02 383.128 623.101 388.377 641.589 399.875C681.295 424.572 674.239 465.049 628.739 473.22C557.939 485.937 484.76 458.703 413.027 469.679C338.833 481.029 267.985 512.46 192.225 514.998C150.778 516.387 113.268 498.173 77.577 479.281C41.8861 460.389 10.0403 445.835 -30.7403 439.826C-106.089 428.713 -184.191 424.828 -202.475 336.169C-214.277 278.949 -203.357 213.557 -178.982 160.863C-147.589 92.9822 -79.674 72.9642 -9.69247 81.7137Z" stroke="#E1F8DE" stroke-opacity="0.18" stroke-width="6" stroke-miterlimit="10"/>
<path d="M-142.136 187.497C-116.895 132.137 -61.3489 115.29 -3.06186 122.472C86.5413 133.585 165.954 180.404 240.503 231.008C248.042 236.13 255.532 241.28 262.973 246.459C303.139 274.3 344.142 301.123 387.271 323.597C408.552 334.71 430.552 344.045 452.633 352.753C462.698 356.761 472.781 360.573 482.782 364.411C499.081 370.671 515.75 375.45 530.253 384.903C561.48 405.239 555.127 437.656 517.717 444.053C460.138 454.099 400.684 432.114 342.412 440.653C282.117 449.476 224.515 474.313 162.998 476.006C129.37 476.94 98.8914 462.193 69.8646 446.876C40.8377 431.559 14.9373 419.764 -18.1346 414.774C-79.2555 405.554 -141.588 401.876 -158.064 330.854C-168.896 284.176 -161.765 230.723 -142.136 187.497Z" stroke="#E1F8DE" stroke-opacity="0.18" stroke-width="11" stroke-miterlimit="10"/>
<path d="M-105.293 214.142C-86.1973 171.287 -43.0201 157.611 3.5688 163.227C73.2762 171.747 136.308 207.567 195.277 246.714C201.226 250.666 207.136 254.646 213.006 258.657C244.815 280.264 277.09 301.256 310.499 319.17C327.094 328.135 344.112 335.721 360.926 343.059C368.642 346.43 376.302 349.642 383.822 352.898C396.172 358.247 408.385 362.551 418.928 369.96C441.665 385.936 436.008 410.17 406.703 414.915C362.315 422.105 316.622 405.554 271.808 411.655C225.408 417.953 181.053 436.193 133.786 437.045C107.971 437.526 84.5187 426.235 62.1596 414.515C39.8561 402.821 19.8418 393.734 -5.52524 389.767C-52.4216 382.429 -99.0957 378.935 -113.654 325.582C-123.544 289.362 -120.173 247.889 -105.293 214.142Z" stroke="#E1F8DE" stroke-opacity="0.18" stroke-width="6" stroke-miterlimit="10"/>
<path d="M-68.4464 240.787C-55.6147 210.39 -24.6913 199.936 10.2032 203.985C60.0074 209.938 106.663 234.731 150.055 262.402C154.416 265.195 158.744 268.008 163.039 270.84C186.491 286.217 210.054 301.319 233.728 314.732C245.663 321.493 257.665 327.431 269.215 333.354C274.579 336.102 279.828 338.703 284.858 341.366C293.263 345.811 301.012 349.631 307.599 355.002C321.823 366.607 316.9 382.74 295.682 385.747C264.51 390.193 232.553 378.965 201.197 382.628C168.695 386.396 137.598 398.042 104.563 398.049C86.5598 398.079 70.1387 390.248 54.4436 382.121C38.8263 374.027 24.7388 367.674 7.07676 364.711C-25.5803 359.258 -56.8001 355.894 -69.2317 320.259C-78.2739 294.437 -78.6739 265.024 -68.4464 240.787Z" stroke="#E1F8DE" stroke-opacity="0.18" stroke-width="6" stroke-miterlimit="10"/>
<path d="M-31.5997 267.432C-24.932 249.541 -6.35495 242.191 16.8339 244.74C46.7498 248.029 77.0176 261.887 104.833 278.078C107.604 279.701 110.349 281.353 113.071 283.012C128.148 292.181 142.995 301.434 156.956 310.276C164.209 314.869 171.214 319.166 177.508 323.612C180.519 325.756 183.357 327.757 185.898 329.805C190.365 333.402 193.599 336.628 196.27 340.01C201.912 347.156 197.803 355.298 184.664 356.58C166.721 358.324 148.485 352.372 130.582 353.616C111.979 354.857 94.1351 359.914 75.3395 359.073C65.1527 358.647 55.7586 354.257 46.7313 349.749C37.8002 345.259 29.6323 341.629 19.6899 339.707C1.26109 336.136 -15.2267 332.869 -24.8246 314.995C-33.2963 299.252 -37.0969 282.212 -31.5997 267.432Z" stroke="#E1F8DE" stroke-opacity="0.18" stroke-width="6" stroke-miterlimit="10"/>
<path d="M771.899 370.471C740.901 386.636 735.226 427.072 723.146 456.973C718.512 468.457 715.616 481.848 721.932 493.275C734.278 515.635 766.124 515.535 788.157 514.123C812.235 512.582 836.905 513.705 860.328 506.785C873.808 502.807 892.814 490.375 893.818 474.654C895.037 455.466 872.922 453.347 859.961 447.176C829.308 432.588 837.28 395.097 815.88 373.901C803.696 361.817 786.123 363.055 771.899 370.471Z" stroke="#E1F8DE" stroke-opacity="0.18" stroke-width="6" stroke-miterlimit="10"/>
<path d="M803.607 439.06C802.866 436.144 801.103 433.696 798.118 432.473C786.842 427.865 780.907 443.586 779.759 451.928C779.129 456.5 779.878 461.837 783.66 464.479C787.875 467.42 794.058 465.475 797.443 461.608C802.252 456.114 805.415 446.313 803.607 439.06Z" stroke="#E1F8DE" stroke-opacity="0.18" stroke-width="11" stroke-miterlimit="10"/>
<path d="M663.618 575.937C578.353 566.965 494.462 557.649 410.074 583.601C354.247 600.782 298.716 634.946 276.605 692.567C261.495 731.951 263.707 779.933 278.457 819.094C302.976 884.186 365.423 909.042 431.141 906.386C635.747 898.122 834.824 816.275 1002.57 701.827C1014.86 693.431 1027 684.826 1038.99 676.012C1061.4 659.521 1085.64 641.37 1094.49 613.662C1099.72 597.27 1098.16 578.1 1087.54 564.55C1076.93 551 1058.95 544.969 1041.75 544.802C1000.11 544.406 963.155 568.573 923.086 575.889C848.629 589.484 772.284 586.609 697.305 579.375C686.055 578.289 674.835 577.115 663.618 575.937Z" stroke="#E1F8DE" stroke-opacity="0.18" stroke-width="11" stroke-miterlimit="10"/>
<path d="M-164.828 510.045C-85.2972 484.637 19.7714 489.901 81.9739 551.829C118.783 588.479 126.722 635.039 129.067 684.698C134.034 789.978 131.634 915.209 239.884 970.033C276.479 988.554 316.219 997.556 356.621 1003.02C393.553 1008.01 436.371 1005.9 470.669 1021.59C517.577 1043.05 529.101 1107.55 481.041 1135.77" stroke="#E1F8DE" stroke-opacity="0.18" stroke-width="6" stroke-miterlimit="10"/>
<path d="M-162.872 575.693C-107.112 558.364 -37.6338 557.219 16.2784 584.627C31.2586 592.247 44.9756 602.038 56.8738 614.143C89.1938 646.993 96.2838 688.67 98.8323 732.866C99.6399 746.738 100.34 760.967 101.281 775.284C105.641 841.565 115.146 909.657 161.024 955.312C172.351 966.573 185.898 976.483 202.141 984.684C234.813 1001.19 270.167 1009.54 305.958 1015.06C317.308 1016.81 329.251 1017.86 341.267 1019.09C363.923 1021.4 386.83 1024.38 406.463 1033.95C447.51 1053.85 457.719 1110.88 415.92 1136.65" stroke="#E1F8DE" stroke-opacity="0.18" stroke-width="11" stroke-miterlimit="10"/>
</g>
<defs>
<clipPath id="clip0_87_1971">
<rect width="1080" height="1618" fill="white" transform="translate(-89 823) rotate(-90)"/>
</clipPath>
</defs>
</svg>
