<svg width="314" height="268" viewBox="0 0 314 268" fill="none" xmlns="http://www.w3.org/2000/svg">
<path d="M150.095 42.61L163.52 11.3506C169.773 -3.20088 189.858 -2.17362 194.715 12.9467L212.258 67.5275C214.077 73.1818 218.528 77.4861 224.059 78.9463L300.314 99.0162C313.422 102.463 317.442 119.884 307.274 129.197L282.681 151.738C276.525 157.375 275.169 166.833 279.457 174.117L299.152 207.533C307.152 221.099 295.083 237.884 280.391 233.622L272.618 231.372C262.84 228.536 252.915 235.362 251.526 245.873L250.739 251.849C249.204 263.506 237.338 270.298 227.113 265.382L156.04 231.185C149.607 228.086 142.005 229.555 137.051 234.836L119.866 253.157C112.191 261.341 99.1878 259.753 93.527 249.931L72.102 212.771C70.0797 209.265 66.9528 206.607 63.2493 205.266L12.2613 186.707C-1.24508 181.792 -3.0481 162.605 9.28064 155.032L46.811 131.991C54.9489 126.999 57.5398 115.97 52.553 107.599L32.5818 74.0817C25.3697 61.9837 34.2548 46.4219 47.8668 47.3134L133.721 52.9251C140.698 53.3836 147.203 49.2745 150.07 42.61H150.095Z" fill="url(#paint0_radial_211_3283)" stroke="#231F20" stroke-width="0.608279" stroke-miterlimit="10"/>
<defs>
<radialGradient id="paint0_radial_211_3283" cx="0" cy="0" r="1" gradientUnits="userSpaceOnUse" gradientTransform="translate(157 134) rotate(90) scale(133 156)">
<stop stop-color="#F87F5B"/>
<stop offset="1" stop-color="#FFF56E"/>
</radialGradient>
</defs>
</svg>
