<svg width="407" height="425" viewBox="0 0 407 425" fill="none" xmlns="http://www.w3.org/2000/svg">
<path d="M145.412 283.007L114.327 295.342C99.8534 301.081 86.1515 285.317 93.0456 270.858L117.924 218.655C120.5 213.245 120.262 206.833 117.296 201.65L76.3739 130.225C69.337 117.949 78.4103 102.468 92.0963 103.409L125.207 105.672C133.492 106.242 140.956 100.486 142.88 92.062L151.688 53.4015C155.261 37.7027 175.438 34.7163 183.052 48.7607L187.083 56.187C192.151 65.5337 203.955 68.0728 212.165 61.587L216.832 57.8974C225.933 50.7005 239.106 54.7162 243.067 65.8864L270.577 143.548C273.064 150.58 279.525 155.216 286.703 155.143L311.605 154.884C322.727 154.768 330.965 165.633 328.283 176.902L318.147 219.537C317.191 223.56 317.61 227.802 319.346 231.534L343.182 282.972C349.496 296.597 337.62 311.683 323.579 307.88L280.844 296.295C271.58 293.78 262.153 299.737 259.984 309.461L251.305 348.401C248.174 362.459 231.12 366.952 221.968 356.129L164.236 287.873C159.546 282.324 152.06 280.399 145.429 283.025L145.412 283.007Z" fill="url(#paint0_radial_211_3284)" stroke="#231F20" stroke-width="0.608279" stroke-miterlimit="10"/>
<defs>
<radialGradient id="paint0_radial_211_3284" cx="0" cy="0" r="1" gradientUnits="userSpaceOnUse" gradientTransform="translate(203.184 212.41) rotate(-46.209) scale(131.909 161.553)">
<stop stop-color="#FFF56E"/>
<stop offset="1" stop-color="#FAC8E1"/>
</radialGradient>
</defs>
</svg>
