<svg width="1440" height="954" viewBox="0 0 1440 954" fill="none" xmlns="http://www.w3.org/2000/svg">
<g clip-path="url(#clip0_72_3661)">
<rect width="1168.16" height="1750.08" transform="translate(-143.022 1061.08) rotate(-90)" fill="#FAC8E1"/>
<path d="M-143.022 1127.06V1081.37C-140.139 1080.43 -137.245 1079.5 -134.372 1078.52C-113.026 1071.24 -91.8342 1063.47 -70.304 1056.77C-34.7392 1045.7 0.950867 1035.03 36.7662 1024.78C55.8981 1019.32 75.3716 1015.11 94.7529 1010.56C122.504 1004.04 150.338 997.862 178.082 991.301C207.549 984.331 236.937 977.014 266.39 969.972C296.703 962.723 327.082 955.729 357.386 948.428C396.674 938.957 435.864 928.938 475.252 919.808C512.163 911.252 549.185 903.178 586.319 895.586C609.643 890.81 633.213 887.197 656.697 883.229C684.195 878.583 711.713 874.041 739.251 869.604C759.408 866.366 779.616 863.541 799.756 860.252C819.769 856.984 839.776 853.631 859.697 849.851C895.79 842.996 931.849 835.945 967.874 828.699C987.754 824.741 1007.5 820.047 1027.43 816.417C1054.73 811.429 1082.14 807.1 1109.51 802.539C1136.76 797.995 1164.04 793.669 1191.26 788.954C1222.58 783.526 1253.96 778.378 1285.09 771.992C1317.42 765.36 1349.75 758.373 1381.59 749.752C1417.21 740.111 1452.29 728.504 1487.58 717.683C1503.17 712.907 1518.67 707.851 1534.26 703.034C1555.96 696.323 1578.17 691.12 1598.56 680.643C1601.28 679.248 1604.21 678.276 1607.06 677.102V1127.06H-143.022Z" fill="#E4CBF2" fill-opacity="0.5"/>
<path d="M-143.022 1029.71V616.18C-142.519 616.195 -142.015 616.157 -141.519 616.067C-113.453 608.051 -85.2804 600.387 -57.3608 591.892C-26.6367 582.546 3.86203 572.452 34.4495 562.645C51.3135 557.237 68.1662 551.787 85.0074 546.295C115.804 536.267 146.591 526.225 177.368 516.168C198.399 509.259 219.404 502.267 240.381 495.193C271.091 484.901 301.771 474.505 332.495 464.254C349.418 458.606 366.256 452.631 383.394 447.729C413.934 438.978 444.621 430.716 475.355 422.672C486.873 419.658 498.55 417.292 510.332 415.586C526.617 413.227 542.99 411.009 559.401 410.175C573.14 409.491 587.02 410.411 600.776 411.426C614.857 412.469 628.446 416.325 641.8 420.833C658.053 426.323 672.138 435.238 681.341 449.914C686.919 458.801 691.247 468.653 694.978 478.508C699.654 490.855 703.009 503.695 707.194 516.233C710.634 526.543 714.979 536.402 720.718 545.768C727.97 557.606 736.213 568.429 746.219 578.072C757.994 589.417 771.194 598.582 785.476 606.444C801.99 615.517 819.323 622.511 837.237 628.223C860.462 635.646 884.372 640.72 908.609 643.37C939.886 646.754 971.239 649.704 1002.63 651.714C1031.65 653.57 1060.75 653.973 1089.82 654.951C1107.85 655.556 1125.88 655.977 1143.91 656.588C1171.07 657.511 1198.22 658.67 1225.39 659.46C1246.23 660.065 1267.07 660.509 1287.91 660.567C1323.61 660.66 1359.3 660.646 1395.02 660.205C1426.9 659.812 1458.77 658.646 1490.65 658.13C1498.23 658.007 1505.83 659.022 1513.4 659.771C1514.77 659.908 1515.99 661.306 1517.28 662.123C1516.32 663.435 1515.6 665.107 1514.34 665.965C1512.82 666.991 1510.87 667.5 1509.03 667.917C1495.6 670.97 1482.18 674.118 1468.69 676.9C1452.32 680.278 1435.93 683.566 1419.48 686.451C1401.51 689.596 1383.47 692.287 1365.45 695.076C1349.3 697.583 1333.13 700.011 1316.96 702.36C1289.99 706.302 1262.98 709.984 1236.04 714.123C1211.73 717.856 1187.49 721.985 1163.24 726.053C1126.59 732.186 1089.94 738.37 1053.31 744.605C1029.06 748.744 1004.8 753.035 980.548 757.28C944.556 763.58 908.526 769.658 872.6 776.273C833.544 783.451 794.515 790.842 755.592 798.731C715.061 806.935 674.632 815.649 634.24 824.53C591.484 833.934 548.814 843.717 506.137 853.494C482.508 858.908 458.951 864.621 435.37 870.244C398.961 878.92 362.561 887.623 326.168 896.353C306.314 901.16 286.501 906.132 266.729 911.271C229.634 920.873 192.552 930.479 155.553 940.392C132.023 946.699 108.602 953.416 85.209 960.219C48.1742 970.984 11.1781 981.879 -25.7792 992.902C-40.9739 997.421 -56.073 1002.26 -71.1959 1007.02C-95.1448 1014.56 -119.087 1022.13 -143.022 1029.71Z" fill="#E4CBF2" fill-opacity="0.5"/>
<path d="M1607.06 -107.068V-49.0673C1601.45 -49.4554 1596.09 -49.8061 1590.72 -50.2044C1577.82 -51.161 1564.92 -52.213 1552.01 -53.1016C1530.11 -54.6063 1508.21 -56.5059 1486.28 -57.3094C1468.66 -57.946 1450.98 -57.5341 1433.34 -56.9281C1419.14 -56.4413 1404.95 -55.311 1390.83 -53.8641C1371.15 -51.8215 1351.43 -49.9048 1331.93 -46.7149C1302.06 -41.816 1272.3 -36.2056 1242.62 -30.2547C1219.79 -25.6724 1197.06 -20.4603 1174.45 -14.8771C1148.29 -8.40873 1122.23 -1.49783 1096.27 5.70927C1079.57 10.346 1063.09 15.7692 1046.57 21.0086C1015.6 30.8291 984.642 40.7245 953.694 50.6949C932.769 57.473 911.99 64.7039 891.058 71.4616C859.051 81.7883 826.999 91.9776 794.901 102.03C775.722 108.042 756.48 113.85 737.173 119.453C709.214 127.522 681.256 135.607 653.143 143.056C632.866 148.425 612.419 153.269 591.859 157.416C572.507 161.34 553.028 164.585 533.421 167.152C510.937 170.073 488.331 172.259 465.739 174.077C444.127 175.83 422.456 177.022 400.793 177.944C370.733 179.224 340.65 180.171 310.57 180.967C291.523 181.471 272.449 182.026 253.416 181.505C228.306 180.824 203.185 179.599 178.137 177.689C147.213 175.277 116.451 171.126 85.9976 165.256C64.0028 161.058 42.0833 156.745 20.5087 150.692C-8.18456 142.641 -37.0827 135.171 -65.7316 126.902C-89.4085 120.086 -112.573 111.613 -135.053 101.546C-137.693 100.361 -140.365 99.2415 -143.022 98.0942V-12.0855C-142.389 -12.1264 -141.753 -12.1264 -141.12 -12.0855C-121.697 -9.53218 -102.329 -6.41716 -82.8382 -4.54475C-63.1662 -2.65531 -43.3884 -1.38207 -23.6345 -0.939499C2.76669 -0.35054 29.1064 -2.00507 55.3675 -5.1269C78.5647 -7.88445 101.502 -11.8165 123.828 -18.69C160.378 -29.9245 195.1 -45.4247 228.272 -64.3326C240.022 -71.0291 251.366 -78.437 262.881 -85.5454C268.346 -88.9259 273.894 -92.2078 279.216 -95.813C284.538 -99.4183 289.542 -103.303 294.69 -107.082L1607.06 -107.068Z" fill="#E4CBF2" fill-opacity="0.5"/>
<path d="M-143.022 306.92C-133.139 304.892 -123.341 302.052 -113.356 300.984C-76.303 297.01 -39.0592 297.386 -1.85976 297.229C28.005 297.109 57.8698 297.662 87.7346 297.618C158.403 297.512 229.071 297.406 299.736 296.911C322.84 296.747 345.982 296.082 369.014 294.396C399.866 292.139 430.636 288.518 460.484 279.902C469.274 277.362 477.661 273.211 485.901 269.125C488.166 268.006 490.55 264.415 490.465 262.042C490.379 259.67 487.732 256.625 485.375 255.321C469.318 246.388 451.291 243.452 433.728 239.206C421.915 236.346 409.982 233.966 398.083 231.464C382.214 228.129 366.312 224.893 350.447 221.589C349.268 221.343 348.127 220.906 346.723 220.493C359.432 218.838 371.566 220.958 383.759 222.507C393.181 223.702 402.64 224.719 412.113 225.313C479.253 229.539 546.481 228.566 613.672 228.361C641.367 228.276 669.062 227.474 696.751 226.757C718.458 226.195 740.16 225.427 761.858 224.453C786.967 223.361 812.071 222.122 837.169 220.736C868.35 219.061 899.524 217.297 930.692 215.445C953.874 214.079 977.047 212.482 1000.22 210.98C1020.87 209.642 1041.52 208.392 1062.15 206.914C1084.18 205.341 1106.18 203.552 1128.2 201.838C1148.57 200.248 1168.95 198.766 1189.3 196.998C1213.2 194.95 1237.07 192.694 1260.95 190.441C1279.77 188.662 1298.59 186.84 1317.39 184.867C1336.19 182.894 1354.99 180.791 1373.76 178.589C1393.68 176.25 1413.58 173.807 1433.47 171.26C1453.74 168.632 1473.99 165.946 1494.2 162.938C1522.31 158.76 1550.39 154.299 1578.47 149.871C1587.96 148.376 1597.4 146.611 1607.06 144.939V215.94C1596.67 218.077 1586.39 220.251 1576.09 222.292C1554.79 226.515 1533.53 230.942 1512.17 234.782C1464.18 243.415 1416.2 252.095 1368.1 260.086C1325.13 267.228 1281.96 273.15 1238.97 280.206C1190.99 288.077 1143.12 296.655 1096.21 309.688C1074.83 315.632 1053.55 321.93 1032.36 328.582C1005.61 336.955 979.339 346.731 953.772 358.255C928.714 369.547 902.832 379.078 878.806 392.609C874.778 394.879 871.167 394.507 866.935 392.831C852.518 387.117 838.238 380.699 823.323 376.681C804.988 371.739 786.123 368.656 767.399 365.263C729.137 358.327 690.663 352.599 651.725 351.128C618.355 349.865 585.197 352.343 552.21 357.614C521.717 362.471 491.606 369.066 461.741 376.774C435.58 383.525 409.473 390.486 383.509 398.023C361.963 404.283 340.581 411.168 319.339 418.401C293.061 427.355 266.985 436.906 240.854 446.29C220.445 453.618 200.163 461.309 179.703 468.443C151.201 478.373 122.58 487.972 93.9897 497.652C56.3906 510.38 18.7789 523.072 -18.8453 535.727C-39.7151 542.748 -60.6328 549.838 -81.7007 556.406C-102.034 562.727 -122.573 568.394 -143.022 574.347V306.92Z" fill="#E4CBF2" fill-opacity="0.5"/>
<path d="M-143.022 152.51C-114.833 163.735 -86.1106 173.355 -56.6473 180.64C-34.6968 186.063 -12.7565 191.612 9.38535 196.15C22.3617 198.815 35.7616 199.567 48.9599 201.252C68.083 203.698 87.1446 206.425 106.278 208.643C122.519 210.522 138.828 211.807 155.11 213.427C174.151 215.323 193.179 217.367 212.227 219.215C222.697 220.241 233.187 221.085 243.681 221.826C268.056 223.555 292.397 225.541 316.492 229.822C339.03 233.824 361.684 237.213 384.075 241.898C396.624 244.523 408.809 249.03 421.023 253.086C426.112 254.794 430.486 258.034 433.18 262.893C433.699 263.833 433.522 265.657 432.948 266.618C429.263 272.594 422.82 273.404 416.786 274.419C399.565 277.316 382.21 277.289 364.812 276.278C347.331 275.253 329.834 274.395 312.333 273.862C287.333 273.096 262.319 272.738 237.312 272.112C221.706 271.723 206.107 271.087 190.501 270.691C155.472 269.836 120.446 268.845 85.4133 268.34C53.1601 267.875 20.8934 267.554 -11.3598 267.954C-34.8197 268.244 -58.2796 269.546 -81.7054 270.896C-101.57 272.04 -121.393 273.896 -141.229 275.464C-141.834 275.512 -142.414 275.861 -143.005 276.066L-143.022 152.51Z" fill="#E4CBF2" fill-opacity="0.5"/>
<path d="M1607.06 526.405V620.857C1603.05 620.581 1599.18 620.305 1595.31 620.053C1572.27 618.557 1549.24 616.935 1526.19 615.622C1511.74 614.798 1497.27 614.447 1482.81 613.85C1454.02 612.664 1425.22 611.47 1396.43 610.268C1380.83 609.638 1365.22 609.205 1349.62 608.506C1325.27 607.412 1300.94 606.144 1276.6 604.993C1263.03 604.352 1249.46 603.909 1235.89 603.186C1215.37 602.092 1194.85 600.828 1174.33 599.649C1159.38 598.793 1144.42 598.077 1129.48 597.092C1101.25 595.227 1073.02 593.274 1044.81 591.234C1024.69 589.768 1004.57 588.296 984.497 586.408C952.306 583.388 920.146 580.089 887.985 576.773C869.934 574.912 852.092 571.739 834.942 565.704C827.947 563.243 821.192 559.879 814.709 556.246C802.072 549.171 792.136 539.206 785.336 526.384C781.343 518.866 777.77 511.109 774.266 503.345C769.197 492.098 764.76 480.579 759.282 469.557C755.61 462.165 751.324 454.838 746.05 448.533C733.72 433.786 718.702 422.232 701.307 413.746C687.618 407.076 673.484 401.984 658.46 399.415C657.971 399.333 657.493 399.186 656.304 398.9C657.554 398.457 658.19 398.028 658.811 398.041C666.288 398.208 673.795 398.086 681.234 398.723C697.731 400.151 714.283 401.371 730.653 403.76C765.85 408.903 800.053 418.415 834.109 428.479C855.452 434.781 876.782 441.161 898.28 446.883C930.358 455.444 962.796 462.391 995.594 467.724C1027.88 472.972 1060.19 478.129 1092.57 482.719C1124.72 487.273 1156.96 491.24 1189.21 495.145C1221.69 499.087 1254.2 502.81 1286.75 506.314C1311.22 508.945 1335.73 511.17 1360.25 513.375C1383.75 515.488 1407.26 517.591 1430.81 519.244C1451.56 520.698 1472.35 521.809 1493.15 522.577C1526.4 523.828 1559.66 524.68 1592.91 525.726C1597.55 525.88 1602.22 526.166 1607.06 526.405Z" fill="#E4CBF2" fill-opacity="0.5"/>
<path d="M596.835 198.394C600.026 198.054 603.206 197.568 606.41 197.374C625.591 196.235 644.316 192.361 662.926 187.94C702.354 178.571 741.775 169.167 781.111 159.424C811.368 151.942 841.587 144.26 871.642 135.999C902.051 127.633 932.334 118.802 962.491 109.506C988.384 101.477 1014.05 92.6789 1039.63 83.6973C1061.52 76.0182 1083.03 67.3732 1104.85 59.5513C1130.37 50.3962 1155.87 41.1255 1181.68 32.8682C1220.12 20.5776 1259.28 10.7627 1299.19 4.62421C1323.87 0.822058 1348.77 -2.02785 1373.67 -3.8337C1395.45 -5.4151 1417.38 -5.68376 1439.22 -5.17364C1466.89 -4.53088 1494.51 -2.02106 1521.81 2.79114C1549.3 7.63735 1576.67 13.1433 1604.08 18.3806C1605.06 18.5643 1605.99 18.9282 1607.06 19.2444V104.483C1600.78 105.956 1594.35 107.636 1587.84 108.959C1571.81 112.213 1555.8 115.58 1539.69 118.396C1515.44 122.634 1491.18 126.783 1466.82 130.35C1433.79 135.19 1400.69 139.611 1367.58 143.892C1345.05 146.807 1322.46 149.293 1299.87 151.762C1271.6 154.85 1243.32 157.813 1215.02 160.652C1194.42 162.692 1173.78 164.393 1153.17 166.236C1125.6 168.698 1098.03 171.225 1070.44 173.578C1052.86 175.075 1035.25 176.272 1017.65 177.659C996.772 179.309 975.899 181.084 955.012 182.693C939.692 183.873 924.358 184.845 909.035 185.957C889.543 187.372 870.052 188.933 850.56 190.249C835.856 191.242 821.151 191.923 806.447 192.783C786.295 193.963 766.15 195.208 745.998 196.364C735.476 196.969 724.94 197.35 714.425 198.01C700.624 198.877 686.846 200.285 673.048 200.782C658.084 201.316 643.096 201.186 628.118 201.122C619.107 201.088 610.096 200.666 601.103 200.353C599.667 200.302 598.244 199.908 596.815 199.673L596.835 198.394Z" fill="#E4CBF2" fill-opacity="0.5"/>
<path d="M1607.04 495.266C1599.07 495.63 1591.35 496.263 1583.64 496.287C1551.23 496.4 1518.82 496.675 1486.42 496.202C1466 495.903 1445.59 494.378 1425.18 493.405C1413.9 492.87 1402.6 492.476 1391.35 491.771C1374.51 490.716 1357.69 489.426 1340.87 488.262C1331.88 487.643 1322.89 487.136 1313.91 486.476C1301.65 485.568 1289.39 484.608 1277.14 483.596C1267.66 482.827 1258.17 482.15 1248.73 481.115C1232.49 479.339 1216.26 477.467 1200.06 475.33C1191.66 474.217 1183.32 472.587 1174.99 470.906C1170.2 469.939 1170.29 469.691 1173.14 465.665C1175.19 462.785 1176.81 459.539 1179.23 457.013C1185.76 450.207 1192.53 443.652 1199.35 437.142C1203.82 432.874 1208.49 428.8 1213.16 424.737C1219.54 419.176 1225.69 413.271 1232.51 408.292C1247.29 397.517 1262.39 387.192 1277.43 376.784C1282 373.623 1286.71 370.621 1291.54 367.888C1311.68 356.511 1331.52 344.586 1352.16 334.158C1373.35 323.438 1395.06 313.647 1416.98 304.485C1451.91 289.9 1487.76 277.565 1524.28 267.556C1548.71 260.855 1573.32 254.808 1597.85 248.498C1600.79 247.746 1603.79 247.273 1607.06 246.612L1607.04 495.266Z" fill="#E4CBF2" fill-opacity="0.5"/>
<path d="M1386.41 294.203C1385.56 294.822 1384.67 295.389 1383.75 295.902C1377.33 299.032 1370.7 301.795 1364.48 305.278C1348.62 314.168 1332.89 323.289 1317.2 332.464C1299.69 342.715 1282.25 353.074 1264.86 363.541C1251.91 371.384 1239 379.329 1226.37 387.668C1212.89 396.555 1199.56 405.696 1186.54 415.225C1177.49 421.845 1168.85 429.056 1160.44 436.46C1152.9 443.097 1145.91 450.363 1138.69 457.353C1138.51 457.529 1138.26 457.693 1138.2 457.927C1136.04 466.681 1129.45 465.322 1123.09 464.486C1108.07 462.511 1092.99 460.816 1078.02 458.484C1057.81 455.331 1037.62 451.967 1017.52 448.184C991.643 443.318 965.871 437.925 940.044 432.8C930.638 430.935 921.212 429.198 911.796 427.39C911.212 427.278 910.649 427.051 909.406 426.69C910.642 425.365 911.373 424.206 912.414 423.523C926.849 414.06 942.17 406.009 958.162 399.481C990.216 386.418 1022.74 374.633 1056.22 365.695C1080.39 359.239 1104.57 352.782 1128.91 347.005C1157.33 340.27 1185.86 333.954 1214.49 328.056C1247.56 321.195 1280.79 315.099 1313.89 308.347C1335.53 303.929 1357.06 298.886 1378.65 294.176C1381.07 293.649 1383.56 293.466 1386.02 293.123L1386.41 294.203Z" fill="#E4CBF2" fill-opacity="0.5"/>
</g>
<defs>
<clipPath id="clip0_72_3661">
<rect width="1168.16" height="1750.08" fill="white" transform="translate(-143.022 1061.08) rotate(-90)"/>
</clipPath>
</defs>
</svg>
