<svg width="302" height="208" viewBox="0 0 302 208" fill="none" xmlns="http://www.w3.org/2000/svg">
<path d="M29.2829 30.5117C76.295 38.4632 121.612 54.3544 163.294 77.5051C194.089 94.5995 235.125 119.787 238.038 159.083C238.57 166.3 236.921 173.834 232.554 179.602C228.186 185.37 220.909 189.113 213.71 188.341C197.259 186.582 195.11 166.622 200.573 154.427C217.151 117.441 260.201 98.4985 298.796 108.531" stroke="black" stroke-width="4.13" stroke-linecap="round" stroke-linejoin="round"/>
<path d="M298.796 108.531C294.795 107.711 291.167 105.617 288.457 102.561C286.904 100.764 285.721 98.6785 284.977 96.4233" stroke="black" stroke-width="4.13" stroke-linecap="round" stroke-linejoin="round"/>
<path d="M298.796 108.531C296.093 107.993 293.293 108.235 290.723 109.23C283.665 112.055 281.828 119.699 281.661 120.507" stroke="black" stroke-width="4.13" stroke-linecap="round" stroke-linejoin="round"/>
</svg>
