<svg width="45" height="76" viewBox="0 0 45 76" fill="none" xmlns="http://www.w3.org/2000/svg">
<path d="M27.4491 1.48413L27.9918 15.5317C28.1637 19.9794 31.657 23.5843 36.0972 23.8959L44.5156 24.4868L36.0972 25.0777C31.657 25.3893 28.1637 28.9942 27.9918 33.4419L27.4491 47.4895L26.9063 33.4419C26.7345 28.9942 23.2412 25.3893 18.8009 25.0777L10.3826 24.4868L18.8009 23.8959C23.2412 23.5843 26.7345 19.9794 26.9063 15.5317L27.4491 1.48413Z" fill="black"/>
<path fill-rule="evenodd" clip-rule="evenodd" d="M27.4491 1.48413L26.9063 15.5317C26.9058 15.5457 26.9052 15.5597 26.9046 15.5737C26.834 17.2008 26.3188 18.7138 25.4758 19.9922C24.8108 21.0006 23.9419 21.8632 22.9262 22.5207C21.7468 23.2842 20.3697 23.7713 18.8843 23.8897C18.8566 23.8919 18.8288 23.894 18.8009 23.8959L10.3826 24.4868L18.8009 25.0777C18.8288 25.0796 18.8566 25.0817 18.8843 25.0839C20.3697 25.2023 21.7468 25.6894 22.9262 26.4529C23.9419 27.1105 24.8108 27.973 25.4758 28.9814C26.3189 30.2599 26.834 31.7728 26.9046 33.3999C26.9052 33.4139 26.9058 33.4279 26.9063 33.4419L27.4491 47.4895L27.9918 33.4419C27.9924 33.4279 27.9929 33.4139 27.9935 33.3999C28.0641 31.7728 28.5793 30.2599 29.4223 28.9814C30.0873 27.973 30.9563 27.1105 31.972 26.4529C33.1513 25.6894 34.5285 25.2023 36.0138 25.0839C36.0416 25.0817 36.0694 25.0796 36.0972 25.0777L44.5156 24.4868L36.0972 23.8959C36.0694 23.894 36.0416 23.8919 36.0138 23.8897C34.5285 23.7713 33.1513 23.2842 31.972 22.5207C30.9563 21.8632 30.0873 21.0006 29.4223 19.9922C28.5793 18.7138 28.0641 17.2008 27.9935 15.5737C27.9929 15.5597 27.9924 15.5457 27.9918 15.5317L27.4491 1.48413ZM27.4491 23.1572C27.039 23.6338 26.5926 24.0784 26.1141 24.4868C26.5926 24.8952 27.039 25.3398 27.4491 25.8164C27.8592 25.3398 28.3056 24.8952 28.7841 24.4868C28.3055 24.0784 27.8592 23.6338 27.4491 23.1572Z" fill="black"/>
<path fill-rule="evenodd" clip-rule="evenodd" d="M26.4272 0C27.4014 0 28.1912 0.764474 28.1912 1.7075C28.1912 3.67481 28.1667 5.64574 28.1425 7.60272L28.1425 7.60376C28.1182 9.56387 28.094 11.5099 28.094 13.445C28.094 14.0947 28.0399 14.7146 27.9927 15.2551L27.9906 15.2782C27.9411 15.8455 27.8998 16.3284 27.8998 16.8131C27.8998 16.878 27.8999 16.9447 27.9 17.013C27.9014 17.9079 27.9032 19.0745 27.6746 20.1484C27.6426 20.2989 27.6132 20.5176 27.6061 20.652C27.5771 21.1968 27.3401 21.6038 27.2594 21.7424L27.2556 21.749C27.2454 21.7665 27.2334 21.7867 27.2231 21.804C27.0808 22.259 26.8806 22.6039 26.6542 22.9004C26.5577 23.0268 26.4565 23.1435 26.3893 23.2211C26.3834 23.2279 26.3777 23.2344 26.3724 23.2406C26.2968 23.328 26.2445 23.3894 26.1927 23.457C25.7984 23.9715 25.2708 24.2049 25.0808 24.2889C25.0761 24.291 25.0717 24.2929 25.0674 24.2948C25.0007 24.3244 24.9639 24.3402 24.9397 24.3507C24.9307 24.3546 24.9234 24.3577 24.9169 24.3605C24.7029 24.5224 24.4935 24.6247 24.3682 24.6822C24.2513 24.7359 24.1156 24.7902 24.0402 24.8203C24.0381 24.8212 24.036 24.822 24.0339 24.8229C24.3606 25.0087 24.6827 25.2333 25.0055 25.5029C25.4564 25.8794 25.7521 26.3477 25.9087 26.5958L25.9141 26.6043C25.9406 26.6463 25.9638 26.6833 25.9848 26.7168C26.0422 26.8082 26.0832 26.8735 26.1292 26.9414C26.1565 26.9816 26.1772 27.01 26.193 27.0303C26.2087 27.0506 26.216 27.0581 26.2151 27.0572C26.5663 27.4238 26.819 27.8864 26.9791 28.2293C27.1498 28.5948 27.3022 29.0138 27.3832 29.3943C27.3828 29.3921 27.3831 29.3934 27.3845 29.3992C27.3878 29.4124 27.3969 29.4492 27.4153 29.5196C27.4382 29.6069 27.4683 29.7196 27.5038 29.8518C27.5264 29.9358 27.5512 30.0275 27.5773 30.1239C27.6318 30.326 27.692 30.549 27.7497 30.7653C27.8346 31.0837 27.9198 31.4089 27.98 31.6591C28.009 31.7792 28.0389 31.9095 28.0596 32.0213C28.0679 32.0665 28.0861 32.1671 28.0942 32.2808L28.0943 32.283C28.0973 32.3236 28.1086 32.4809 28.0785 32.6736C28.0656 32.756 28.0225 33.0124 27.851 33.293C27.6479 33.6254 27.1518 34.133 26.3301 34.133C25.3978 34.133 24.6344 33.4329 24.5705 32.5462C24.5639 32.5173 24.5553 32.4804 24.5443 32.4347C24.4943 32.227 24.4182 31.9355 24.3338 31.6188C24.2896 31.4532 24.2405 31.2714 24.192 31.0918C24.0734 30.6525 23.9583 30.2265 23.9279 30.0836C23.912 30.0089 23.8567 29.8337 23.7643 29.6358C23.7213 29.5437 23.6798 29.4673 23.6454 29.412C23.629 29.3856 23.618 29.37 23.613 29.3632C23.4301 29.1697 23.2868 28.9729 23.1801 28.8156C23.0965 28.6923 23.0114 28.5566 22.9475 28.4546C22.9316 28.4292 22.917 28.406 22.9041 28.3855C22.7501 28.1417 22.6982 28.0874 22.6988 28.0869C22.6989 28.0868 22.6997 28.0875 22.7011 28.0887C22.2426 27.7058 21.8988 27.5737 21.4676 27.504C20.9899 27.4268 20.4503 27.4281 19.5407 27.4303C19.3754 27.4307 19.1978 27.4312 19.0062 27.4312C17.7373 27.4312 16.3899 27.2414 15.1951 27.0732L15.1297 27.064C13.8583 26.885 12.7496 26.7323 11.761 26.7323C11.6257 26.7323 11.4764 26.7289 11.3337 26.715C11.2648 26.7082 11.155 26.6951 11.0298 26.6659C11.0281 26.6655 11.0262 26.665 11.024 26.6645C10.9514 26.6478 10.6122 26.5695 10.2871 26.3096C10.0915 26.1532 9.79039 25.841 9.68031 25.343C9.56441 24.8187 9.7228 24.3772 9.89268 24.102C10.1509 23.6837 10.5226 23.4933 10.5872 23.4603C10.5896 23.459 10.5915 23.458 10.5931 23.4573C10.8009 23.3489 11.001 23.2953 11.0658 23.278L11.0667 23.2778C11.3781 23.1943 11.883 23.1145 12.2466 23.1145H13.8007C14.2132 23.1145 14.6679 23.0676 15.2214 22.9998C15.2971 22.9905 15.3754 22.9807 15.4558 22.9706C15.9255 22.9119 16.4673 22.8442 16.9975 22.8135C17.3116 22.7952 17.6436 22.7321 18.129 22.6398C18.1654 22.6328 18.2028 22.6257 18.2411 22.6185C18.7303 22.5257 19.3841 22.4049 20.0654 22.4049C20.0847 22.4049 20.1553 22.4003 20.3138 22.3597C20.3898 22.3402 20.4734 22.316 20.575 22.285C20.6038 22.2762 20.6406 22.2649 20.681 22.2524C20.7554 22.2294 20.8418 22.2028 20.9112 22.1821C21.0996 22.1259 21.2696 22.1018 21.3844 22.0894C21.5044 22.0765 21.6161 22.0713 21.7007 22.0686C21.7725 22.0662 21.8476 22.065 21.905 22.0642C21.908 22.0641 21.9111 22.0641 21.914 22.064C22.005 21.9998 22.0884 21.95 22.1555 21.9123C22.3456 21.8058 22.5332 21.7288 22.6377 21.6864C22.6846 21.6673 22.7197 21.6533 22.7472 21.6422C22.7765 21.6304 22.7973 21.6221 22.8147 21.6148C22.9924 21.4828 23.1608 21.3926 23.2814 21.3333C23.3563 21.2965 23.4253 21.2657 23.4763 21.2433C23.493 21.2359 23.5059 21.2303 23.5164 21.2257C23.5738 21.1565 23.6256 21.0966 23.6678 21.0478C23.7554 20.9466 23.7891 20.9072 23.817 20.8707C23.8276 20.8568 23.8325 20.8495 23.8342 20.8468L23.8356 20.8447L23.8356 20.8446C23.8356 20.8446 23.8356 20.8446 23.8356 20.8446L23.8357 20.8443L23.8363 20.8431L23.8392 20.836C23.8419 20.8289 23.8469 20.8147 23.8533 20.7914C23.9166 20.5603 24.0085 20.3789 24.065 20.2749C24.0786 20.2498 24.092 20.2261 24.1042 20.2047C24.13 19.951 24.1718 19.6823 24.2193 19.4591C24.3721 18.7413 24.372 17.9023 24.3719 16.9055C24.3719 16.8748 24.3719 16.844 24.3719 16.8131C24.3719 16.1736 24.4255 15.56 24.4724 15.023L24.4753 14.9905C24.5247 14.4245 24.5661 13.9372 24.5661 13.445C24.5661 11.4894 24.5905 9.52623 24.6147 7.57304L24.6148 7.56175C24.6391 5.60135 24.6632 3.65091 24.6632 1.7075C24.6632 0.764474 25.453 0 26.4272 0ZM24.1885 20.061C24.1887 20.0606 24.1883 20.0614 24.1872 20.0634C24.1879 20.0621 24.1884 20.0612 24.1885 20.061ZM22.8681 21.591C22.8683 21.591 22.8654 21.5925 22.8589 21.5955C22.8647 21.5925 22.8679 21.591 22.8681 21.591ZM24.5868 32.6229C24.5882 32.6301 24.5878 32.6289 24.5864 32.6208C24.5866 32.6216 24.5867 32.6222 24.5868 32.6229ZM25.4103 30.9682C25.6516 30.8229 25.9572 30.718 26.3301 30.718C25.993 30.718 25.6781 30.8095 25.4103 30.9682Z" fill="black"/>
<path fill-rule="evenodd" clip-rule="evenodd" d="M26.8154 3.71021C27.7844 3.71021 28.5699 4.4912 28.5699 5.45461C28.5699 5.81911 28.5836 5.92604 28.6026 5.9975C28.6397 6.13643 28.6981 6.36183 28.7482 6.59719C28.7892 6.78964 28.8597 7.14255 28.8597 7.47425C28.8597 7.84212 28.9639 8.34383 29.0969 8.98446C29.1041 9.01923 29.1114 9.05441 29.1188 9.09C29.4243 10.564 29.536 11.9991 29.536 13.4814C29.536 13.9473 29.6219 14.4307 29.7483 15.1116L29.7552 15.1486C29.8712 15.7725 30.019 16.5683 30.019 17.4171C30.019 17.6567 30.0228 18.0087 30.0491 18.3379C30.0622 18.5028 30.079 18.6343 30.0966 18.7271C30.0999 18.7446 30.1028 18.7586 30.1053 18.7695C30.3183 19.2196 30.3484 19.6346 30.3588 19.8369C30.384 19.8724 30.4106 19.9113 30.4364 19.9515C30.5196 20.0811 30.649 20.3049 30.728 20.601C30.8618 21.1031 31.3375 21.5613 32.0616 21.7913L31.5276 23.453L32.0616 21.7913C32.6488 21.9778 33.3007 22.1205 33.7794 22.149C34.2352 22.1761 34.6706 22.2695 34.9653 22.3328C34.9843 22.3369 35.0027 22.3408 35.0205 22.3446C35.3652 22.4182 35.5474 22.4517 35.7007 22.4581C35.7462 22.4599 35.7947 22.4606 35.8734 22.4617C35.8916 22.462 35.9115 22.4623 35.9334 22.4626C36.0348 22.4641 36.1708 22.4666 36.3145 22.4753C36.5416 22.4889 36.9459 22.5237 37.3636 22.6857C37.384 22.6876 37.4085 22.6895 37.4435 22.6923C37.4481 22.6927 37.4531 22.6931 37.4583 22.6935C37.5423 22.7001 37.702 22.7127 37.8681 22.7404C38.0523 22.7712 38.3104 22.8299 38.5867 22.9616C38.5858 22.9612 38.5853 22.9609 38.5853 22.9609C38.5854 22.9607 38.6311 22.9793 38.7802 23.0168C38.8315 23.0298 38.8737 23.0399 38.9241 23.052C38.9583 23.0602 38.9963 23.0693 39.0435 23.0808C39.1426 23.105 39.2663 23.1361 39.3946 23.1743L39.0846 24.2033L39.3946 23.1744C39.6258 23.2432 39.8451 23.3259 40.0214 23.3942C40.0871 23.4197 40.1451 23.4425 40.1989 23.4636C40.3078 23.5063 40.3992 23.5422 40.5006 23.5794C40.6408 23.6308 40.7425 23.6625 40.8212 23.6814C40.8905 23.6981 40.9204 23.6993 40.921 23.6994C40.9211 23.6994 40.9207 23.6994 40.9199 23.6994C41.5399 23.6994 42.0089 23.7075 42.3451 23.7237C42.5102 23.7317 42.6713 23.7428 42.8144 23.7605C42.8848 23.7691 42.9783 23.7826 43.0794 23.8052L43.0815 23.8057C43.1458 23.82 43.3754 23.8711 43.6222 24.0121C43.7423 24.0807 44.0304 24.2609 44.2519 24.6172C44.5288 25.063 44.6043 25.6349 44.3982 26.1688C44.2333 26.5959 43.9495 26.8371 43.8303 26.9296C43.6895 27.0386 43.5609 27.1046 43.4898 27.1383C43.2588 27.2479 43.0264 27.2969 42.9516 27.3127L42.9458 27.3139C42.7227 27.3611 42.4382 27.4009 42.1681 27.434C41.088 27.5665 39.2469 27.7061 38.7731 27.7061C38.6134 27.7061 38.412 27.738 38.0308 27.8153C38.0047 27.8205 37.9773 27.8262 37.9486 27.832C37.6271 27.8979 37.1512 27.9953 36.6668 28.0153C36.4879 28.0227 36.2626 28.0371 36.0151 28.0531C35.5334 28.084 34.9675 28.1204 34.4956 28.1204C34.3752 28.1204 34.1916 28.1529 33.807 28.2657C33.7592 28.2797 33.7053 28.2961 33.6461 28.314C33.3264 28.4107 32.8551 28.5533 32.3959 28.6236C32.2964 28.6389 32.1938 28.65 32.1136 28.6581C32.0556 28.6639 31.9894 28.6702 31.9273 28.676C31.9024 28.6784 31.8782 28.6806 31.8554 28.6828C31.68 28.6995 31.5201 28.7163 31.3753 28.7384C31.3328 28.7449 31.295 28.7514 31.2617 28.7577C31.1655 28.8365 31.0764 28.8956 31.011 28.9361C30.9662 28.9639 30.9243 28.9879 30.8896 29.0073C30.7866 29.1618 30.6874 29.3302 30.5876 29.5174C30.2873 30.0809 30.0649 30.553 29.9883 30.9227C29.914 31.2808 29.7788 31.7753 29.5749 32.2224C29.5747 32.2275 29.5746 32.2327 29.5745 32.2383C29.5741 32.2538 29.5736 32.2721 29.5729 32.2966C29.5716 32.3466 29.5694 32.414 29.5649 32.4876C29.5559 32.6318 29.5356 32.8446 29.4721 33.083C29.3404 33.5773 29.2462 34.1597 29.2462 34.6099C29.2462 34.8875 29.2797 35.182 29.3301 35.5972L29.3348 35.6354C29.3791 35.9998 29.4363 36.47 29.4393 36.9581C29.4395 36.9595 29.4397 36.9609 29.44 36.9625C29.4452 36.9931 29.4552 37.04 29.4713 37.1005C29.5049 37.2266 29.5476 37.3479 29.5753 37.4147L29.0375 37.6352L29.5753 37.4147C29.6991 37.7133 29.7367 37.9921 29.7512 38.1703C29.7667 38.3598 29.7632 38.5348 29.7577 38.6633C29.7529 38.7724 29.7448 38.8834 29.7392 38.9595C29.7383 38.972 29.7374 38.9836 29.7367 38.994C29.7336 39.0369 29.7316 39.0667 29.7303 39.0905C29.7291 39.1147 29.7292 39.1208 29.7292 39.1152C29.7292 39.5307 29.7005 39.9117 29.6771 40.2241L29.676 40.2379C29.6511 40.5688 29.6326 40.823 29.6326 41.083C29.6326 41.6268 29.5129 42.5139 29.415 43.0913C29.3681 43.3677 29.3037 43.7112 29.229 43.9526L29.2282 43.9552C29.2132 44.0038 29.1619 44.17 29.0628 44.3481L29.0602 44.3529C29.026 44.4147 28.8605 44.7146 28.515 44.9521C28.306 45.0959 27.9318 45.2836 27.4345 45.2617C26.9149 45.2387 26.5281 44.9992 26.2943 44.7764C25.9347 44.4338 25.8288 44.0367 25.8099 43.966C25.8092 43.9635 25.8087 43.9615 25.8082 43.9598C25.7724 43.829 25.7583 43.719 25.7521 43.6628C25.7389 43.5435 25.7372 43.4334 25.7372 43.3616V41.1866C25.7372 40.9912 25.6993 40.759 25.6202 40.3231L25.6139 40.2885C25.5457 39.9134 25.4474 39.3726 25.4474 38.8045C25.4474 38.6929 25.454 38.5799 25.4598 38.4945C25.4661 38.4031 25.4744 38.3035 25.4822 38.211L25.4853 38.1736C25.5007 37.9916 25.5153 37.8175 25.5246 37.6485C25.5305 37.5397 25.5329 37.4529 25.5329 37.3864C25.443 37.1829 25.3976 36.9952 25.3727 36.8533C25.331 36.6156 25.3295 36.4022 25.3324 36.2659C25.3347 36.1541 25.3424 36.0345 25.3467 35.9667C25.3475 35.9542 25.3482 35.9435 25.3487 35.9348C25.3508 35.9 25.3516 35.88 25.352 35.8708C25.3396 35.675 25.2908 35.3756 25.2464 35.2209C25.2053 35.0776 25.1821 34.9465 25.1678 34.8453C25.1532 34.742 25.1446 34.6454 25.1389 34.5661C25.1332 34.4867 25.1294 34.4098 25.1265 34.3482C25.1257 34.3299 25.1249 34.3132 25.1242 34.2976C25.1222 34.2548 25.1207 34.2203 25.1187 34.1838C25.1185 34.1806 25.1183 34.1775 25.1181 34.1745C25.0038 33.9168 24.9695 33.6852 24.9571 33.5444C24.9522 33.4891 24.9499 33.4356 24.9491 33.3863C24.88 33.242 24.803 33.097 24.7086 32.931C24.2316 32.0924 24.5287 31.0281 25.3722 30.5539C25.7349 30.35 26.1397 30.2884 26.5211 30.3511C26.532 30.3076 26.5423 30.2631 26.5515 30.2185C26.7423 29.2981 27.2019 28.4189 27.4871 27.8837C27.6914 27.5004 27.9251 27.1139 28.208 26.7348C28.3906 26.49 28.5935 26.3238 28.746 26.2167C28.8638 26.1339 28.9761 26.07 29.0497 26.03C29.3988 25.7077 29.7865 25.559 29.9818 25.4917C30.2886 25.386 30.6012 25.3269 30.8422 25.2901C31.0259 25.262 31.2064 25.2414 31.3617 25.2255C31.2345 25.1892 31.1114 25.152 30.9937 25.1146C29.5964 24.6708 28.0087 23.5996 27.4078 21.7382C27.3652 21.6818 27.3044 21.5986 27.2464 21.5066C27.1604 21.3704 27.0371 21.1497 26.9604 20.8617C26.9019 20.6422 26.8799 20.4483 26.8694 20.3095C26.8642 20.2406 26.8613 20.1783 26.8594 20.1333C26.8589 20.1194 26.8584 20.1079 26.858 20.098C26.7441 19.8263 26.6839 19.5612 26.6483 19.3732C26.5993 19.1147 26.5699 18.8495 26.5511 18.6139C26.5134 18.1421 26.51 17.6777 26.51 17.4171C26.51 16.92 26.4223 16.4162 26.2977 15.7451C26.2933 15.7217 26.2889 15.6979 26.2845 15.6739C26.1711 15.0647 26.027 14.2907 26.027 13.4814C26.027 12.1782 25.9292 10.9863 25.6821 9.7942C25.6715 9.74302 25.6597 9.68743 25.6471 9.62799C25.5347 9.09591 25.3571 8.25573 25.3509 7.51353C25.3503 7.5089 25.3495 7.50315 25.3485 7.49622C25.3422 7.45414 25.3313 7.39483 25.3154 7.32003C25.2835 7.17012 25.2426 7.01069 25.2107 6.89109C25.0619 6.33281 25.061 5.81192 25.061 5.45461C25.061 4.4912 25.8465 3.71021 26.8154 3.71021ZM26.8527 19.9972C26.8528 19.9971 26.8532 20 26.8537 20.0064C26.8529 20.0005 26.8527 19.9974 26.8527 19.9972ZM42.2154 23.9015C42.2148 23.9016 42.2141 23.9018 42.2134 23.9019C42.2422 23.8943 42.2468 23.8948 42.2154 23.9015ZM29.2463 43.3692C29.2462 43.3693 29.2462 43.3676 29.2462 43.364L29.2463 43.3692ZM25.5285 37.2591C25.5285 37.2591 25.5287 37.2601 25.5289 37.2621C25.5286 37.2601 25.5285 37.2591 25.5285 37.2591ZM30.1127 18.7988C30.1127 18.7988 30.1123 18.7977 30.1117 18.7955C30.1124 18.7976 30.1127 18.7987 30.1127 18.7988Z" fill="black"/>
<path d="M12.2553 44.0212L12.6288 53.6884C12.7471 56.7492 15.1511 59.23 18.2068 59.4444L24 59.8511L18.2068 60.2577C15.1511 60.4722 12.7471 62.9529 12.6288 66.0137L12.2553 75.6809L11.8818 66.0137C11.7636 62.9529 9.35957 60.4722 6.30391 60.2577L0.51062 59.8511L6.30391 59.4444C9.35957 59.23 11.7636 56.7492 11.8818 53.6884L12.2553 44.0212Z" fill="black"/>
<path fill-rule="evenodd" clip-rule="evenodd" d="M12.2553 44.0212L11.8818 53.6884C11.8815 53.6981 11.8811 53.7077 11.8806 53.7173C11.8321 54.837 11.4775 55.8782 10.8974 56.758C10.4398 57.452 9.84177 58.0455 9.14279 58.4981C8.33121 59.0235 7.38349 59.3587 6.3613 59.4401C6.3422 59.4417 6.32307 59.4431 6.30391 59.4444L0.51062 59.8511L6.30391 60.2577C6.32307 60.259 6.3422 60.2605 6.3613 60.262C7.38349 60.3434 8.33121 60.6787 9.14279 61.2041C9.84177 61.6566 10.4398 62.2502 10.8974 62.9441C11.4775 63.8239 11.8321 64.8651 11.8806 65.9848C11.8811 65.9944 11.8815 66.0041 11.8818 66.0137L12.2553 75.6809L12.6288 66.0137C12.6292 66.0041 12.6296 65.9944 12.63 65.9848C12.6786 64.8651 13.0331 63.8239 13.6133 62.9441C14.0709 62.2502 14.6689 61.6566 15.3679 61.2041C16.1795 60.6787 17.1272 60.3434 18.1494 60.262C18.1685 60.2605 18.1876 60.259 18.2068 60.2577L24 59.8511L18.2068 59.4444C18.1876 59.4431 18.1685 59.4417 18.1494 59.4401C17.1272 59.3587 16.1795 59.0235 15.3679 58.4981C14.6689 58.0455 14.0709 57.452 13.6133 56.758C13.0331 55.8782 12.6786 54.837 12.63 53.7173C12.6296 53.7077 12.6292 53.6981 12.6288 53.6884L12.2553 44.0212ZM12.2553 58.9361C11.9731 59.264 11.6659 59.57 11.3366 59.8511C11.6659 60.1321 11.9731 60.4381 12.2553 60.7661C12.5376 60.4381 12.8447 60.1321 13.174 59.8511C12.8447 59.57 12.5376 59.264 12.2553 58.9361Z" fill="black"/>
<path fill-rule="evenodd" clip-rule="evenodd" d="M11.5521 43C12.2225 43 12.766 43.5261 12.766 44.1751C12.766 45.5289 12.7492 46.8852 12.7325 48.232L12.7325 48.2327C12.7158 49.5816 12.6992 50.9208 12.6992 52.2525C12.6992 52.6996 12.6619 53.1262 12.6294 53.4982L12.628 53.514C12.5939 53.9045 12.5655 54.2367 12.5655 54.5703C12.5655 54.615 12.5655 54.6609 12.5656 54.7079C12.5666 55.3237 12.5679 56.1266 12.4105 56.8656C12.3885 56.9692 12.3683 57.1196 12.3633 57.2121C12.3434 57.5871 12.1803 57.8671 12.1248 57.9625L12.1221 57.9671C12.1151 57.9791 12.1069 57.9931 12.0998 58.005C12.0018 58.318 11.8641 58.5554 11.7083 58.7595C11.6419 58.8464 11.5723 58.9267 11.526 58.9801C11.5219 58.9848 11.518 58.9893 11.5143 58.9936C11.4623 59.0537 11.4263 59.096 11.3907 59.1425C11.1193 59.4965 10.7562 59.6571 10.6255 59.715C10.6223 59.7164 10.6192 59.7177 10.6163 59.719C10.5704 59.7394 10.5451 59.7503 10.5284 59.7575C10.5222 59.7602 10.5172 59.7623 10.5127 59.7643C10.3654 59.8756 10.2214 59.9461 10.1351 59.9857C10.0547 60.0226 9.9613 60.0599 9.90943 60.0807C9.90795 60.0813 9.9065 60.0819 9.90509 60.0824C10.1299 60.2103 10.3515 60.3649 10.5737 60.5504C10.884 60.8095 11.0875 61.1318 11.1953 61.3025L11.199 61.3084C11.2172 61.3372 11.2332 61.3627 11.2477 61.3858C11.2871 61.4487 11.3153 61.4936 11.347 61.5403C11.3658 61.568 11.38 61.5876 11.3909 61.6015C11.4017 61.6155 11.4067 61.6207 11.4061 61.62C11.6478 61.8723 11.8217 62.1907 11.9319 62.4266C12.0493 62.6782 12.1543 62.9666 12.21 63.2284C12.2097 63.2269 12.2099 63.2278 12.2109 63.2317C12.2131 63.2408 12.2194 63.2661 12.2321 63.3146C12.2478 63.3747 12.2685 63.4522 12.293 63.5432C12.3085 63.601 12.3256 63.6641 12.3435 63.7305C12.3811 63.8696 12.4225 64.023 12.4622 64.1718C12.5206 64.391 12.5792 64.6148 12.6207 64.7869C12.6406 64.8696 12.6612 64.9593 12.6754 65.0362C12.6812 65.0673 12.6937 65.1365 12.6992 65.2148L12.6993 65.2163C12.7014 65.2443 12.7091 65.3525 12.6885 65.4851C12.6796 65.5418 12.6499 65.7182 12.5319 65.9114C12.3922 66.1401 12.0507 66.4894 11.4852 66.4894C10.8437 66.4894 10.3183 66.0076 10.2743 65.3974C10.2698 65.3775 10.2639 65.3521 10.2563 65.3207C10.2219 65.1777 10.1695 64.9771 10.1114 64.7592C10.081 64.6453 10.0473 64.5202 10.0139 64.3966C9.93225 64.0943 9.85307 63.801 9.83214 63.7027C9.8212 63.6513 9.78314 63.5308 9.71954 63.3946C9.68994 63.3312 9.66136 63.2786 9.63768 63.2405C9.62643 63.2224 9.61884 63.2117 9.61542 63.207C9.48953 63.0738 9.39093 62.9384 9.3175 62.8301C9.25994 62.7453 9.20142 62.6519 9.15741 62.5817C9.14649 62.5642 9.13645 62.5482 9.12755 62.5341C9.02159 62.3664 8.98589 62.329 8.98629 62.3286C8.98634 62.3286 8.98689 62.3291 8.9879 62.3299C8.67234 62.0664 8.43577 61.9755 8.13903 61.9275C7.8103 61.8744 7.43892 61.8753 6.813 61.8768C6.69921 61.8771 6.577 61.8774 6.44511 61.8774C5.5719 61.8774 4.64467 61.7468 3.82246 61.631L3.77744 61.6247C2.90251 61.5015 2.1395 61.3965 1.45917 61.3965C1.36605 61.3965 1.26332 61.3941 1.1651 61.3845C1.11772 61.3799 1.04216 61.3709 0.955986 61.3507C0.954821 61.3505 0.953485 61.3502 0.951984 61.3498C0.902012 61.3383 0.668598 61.2844 0.444906 61.1056C0.310288 60.9979 0.103065 60.7831 0.0273098 60.4404C-0.0524484 60.0795 0.0565493 59.7757 0.17346 59.5863C0.351152 59.2985 0.606973 59.1675 0.651425 59.1447C0.653055 59.1439 0.654401 59.1432 0.655448 59.1427C0.79844 59.0681 0.936183 59.0312 0.980771 59.0193L0.981393 59.0191C1.19572 58.9617 1.54312 58.9068 1.79337 58.9068H2.86282C3.14673 58.9068 3.45967 58.8745 3.84051 58.8278C3.89264 58.8214 3.94652 58.8147 4.00184 58.8078C4.32509 58.7674 4.69795 58.7208 5.06281 58.6996C5.27895 58.6871 5.50743 58.6436 5.84144 58.5801C5.86655 58.5753 5.89226 58.5704 5.9186 58.5654C6.25526 58.5016 6.7052 58.4184 7.17403 58.4184C7.18737 58.4184 7.2359 58.4153 7.34499 58.3873C7.39731 58.3739 7.45481 58.3572 7.52474 58.3359C7.54453 58.3299 7.5699 58.3221 7.59768 58.3135C7.6489 58.2977 7.70832 58.2794 7.7561 58.2651C7.88573 58.2264 8.00276 58.2098 8.08173 58.2013C8.16433 58.1925 8.2412 58.1889 8.29941 58.187C8.34883 58.1854 8.4005 58.1846 8.43999 58.184C8.44211 58.1839 8.44419 58.1839 8.44623 58.1839C8.50886 58.1397 8.5662 58.1054 8.61243 58.0795C8.74322 58.0062 8.87236 57.9532 8.94427 57.924C8.97653 57.9109 9.00066 57.9012 9.01961 57.8936C9.03975 57.8855 9.05405 57.8797 9.06607 57.8747C9.18836 57.7839 9.30424 57.7218 9.38724 57.681C9.43873 57.6557 9.48623 57.6345 9.52133 57.6191C9.53283 57.614 9.54169 57.6101 9.54893 57.607C9.58847 57.5593 9.62409 57.5181 9.65316 57.4845C9.71339 57.4149 9.73664 57.3878 9.75584 57.3626C9.76312 57.3531 9.76646 57.3481 9.76768 57.3462L9.76858 57.3447L9.7686 57.3447C9.76862 57.3447 9.76862 57.3447 9.7686 57.3447L9.76869 57.3445L9.76908 57.3437L9.77108 57.3388C9.77295 57.3339 9.77641 57.3241 9.78081 57.3081C9.82434 57.149 9.88756 57.0242 9.92645 56.9527C9.93585 56.9354 9.94504 56.919 9.95346 56.9043C9.97118 56.7297 9.99996 56.5449 10.0327 56.3912C10.1378 55.8972 10.1378 55.3199 10.1377 54.6339C10.1377 54.6128 10.1376 54.5916 10.1376 54.5703C10.1376 54.1303 10.1746 53.708 10.2068 53.3384L10.2088 53.316C10.2428 52.9265 10.2713 52.5912 10.2713 52.2525C10.2713 50.9067 10.2881 49.5557 10.3047 48.2116L10.3048 48.2038C10.3216 46.8547 10.3382 45.5125 10.3382 44.1751C10.3382 43.5261 10.8817 43 11.5521 43ZM10.0115 56.8054C10.0116 56.8052 10.0113 56.8057 10.0106 56.8071C10.0111 56.8062 10.0114 56.8056 10.0115 56.8054ZM9.1028 57.8583C9.10295 57.8583 9.10095 57.8594 9.0965 57.8615C9.10046 57.8594 9.10266 57.8584 9.1028 57.8583ZM10.2856 65.4502C10.2865 65.4552 10.2862 65.4543 10.2853 65.4488C10.2854 65.4493 10.2855 65.4497 10.2856 65.4502ZM10.8522 64.3115C11.0183 64.2115 11.2286 64.1393 11.4852 64.1393C11.2533 64.1393 11.0366 64.2023 10.8522 64.3115Z" fill="black"/>
<path fill-rule="evenodd" clip-rule="evenodd" d="M11.8193 45.5532C12.4861 45.5532 13.0266 46.0907 13.0266 46.7537C13.0266 47.0045 13.0361 47.0781 13.0492 47.1273C13.0746 47.2229 13.1148 47.378 13.1493 47.54C13.1776 47.6724 13.2261 47.9153 13.2261 48.1435C13.2261 48.3967 13.2978 48.742 13.3893 49.1828C13.3943 49.2068 13.3993 49.231 13.4044 49.2555C13.6146 50.2698 13.6915 51.2574 13.6915 52.2775C13.6915 52.5981 13.7506 52.9308 13.8376 53.3994L13.8423 53.4248C13.9221 53.8542 14.0239 54.4018 14.0239 54.9859C14.0239 55.1508 14.0265 55.393 14.0445 55.6196C14.0536 55.7331 14.0651 55.8236 14.0772 55.8875C14.0795 55.8995 14.0816 55.9091 14.0832 55.9166C14.2298 56.2264 14.2505 56.512 14.2577 56.6512C14.275 56.6756 14.2933 56.7024 14.3111 56.73C14.3684 56.8192 14.4574 56.9732 14.5118 57.177C14.6038 57.5226 14.9312 57.8379 15.4295 57.9961L15.0621 59.1397L15.4295 57.9961C15.8336 58.1245 16.2822 58.2227 16.6116 58.2423C16.9254 58.261 17.2249 58.3253 17.4278 58.3688C17.4409 58.3716 17.4535 58.3743 17.4657 58.3769C17.703 58.4276 17.8284 58.4506 17.9339 58.455C17.9652 58.4563 17.9985 58.4568 18.0527 58.4575C18.0653 58.4577 18.0789 58.4579 18.094 58.4581C18.1638 58.4592 18.2574 58.4609 18.3562 58.4668C18.5126 58.4762 18.7908 58.5002 19.0782 58.6117C19.0922 58.6129 19.1091 58.6143 19.1332 58.6162C19.1364 58.6165 19.1398 58.6167 19.1434 58.617C19.2012 58.6216 19.3111 58.6302 19.4254 58.6493C19.5521 58.6705 19.7298 58.7109 19.9199 58.8015C19.9193 58.8012 19.919 58.8011 19.919 58.801C19.919 58.8009 19.9505 58.8137 20.0531 58.8395C20.0884 58.8484 20.1175 58.8554 20.1521 58.8637C20.1757 58.8694 20.2018 58.8757 20.2343 58.8836C20.3025 58.9002 20.3876 58.9216 20.4759 58.9479L20.2626 59.656L20.4759 58.9479C20.635 58.9953 20.7859 59.0522 20.9073 59.0992C20.9524 59.1168 20.9924 59.1324 21.0294 59.147C21.1043 59.1764 21.1672 59.2011 21.237 59.2267C21.3335 59.262 21.4035 59.2839 21.4577 59.2969C21.5053 59.3083 21.5259 59.3092 21.5263 59.3093C21.5264 59.3093 21.5261 59.3093 21.5255 59.3093C21.9523 59.3093 22.275 59.3148 22.5064 59.326C22.62 59.3315 22.7308 59.3391 22.8293 59.3513C22.8777 59.3572 22.9421 59.3665 23.0117 59.3821L23.0131 59.3824C23.0573 59.3922 23.2154 59.4274 23.3852 59.5244C23.4678 59.5716 23.6662 59.6956 23.8185 59.9409C24.0091 60.2477 24.0611 60.6412 23.9192 61.0086C23.8058 61.3026 23.6105 61.4686 23.5284 61.5322C23.4315 61.6072 23.343 61.6526 23.2941 61.6758C23.1351 61.7512 22.9752 61.785 22.9237 61.7958L22.9198 61.7966C22.7662 61.8291 22.5704 61.8565 22.3846 61.8793C21.6412 61.9705 20.3743 62.0665 20.0482 62.0665C19.9383 62.0665 19.7997 62.0885 19.5373 62.1417C19.5194 62.1453 19.5005 62.1492 19.4808 62.1532C19.2595 62.1985 18.932 62.2656 18.5987 62.2793C18.4756 62.2844 18.3206 62.2944 18.1502 62.3053C17.8187 62.3266 17.4293 62.3516 17.1045 62.3516C17.0217 62.3516 16.8953 62.374 16.6306 62.4517C16.5978 62.4613 16.5607 62.4726 16.5199 62.4849C16.2999 62.5514 15.9756 62.6496 15.6596 62.698C15.5911 62.7085 15.5205 62.7161 15.4653 62.7217C15.4254 62.7257 15.3799 62.73 15.3371 62.734C15.32 62.7356 15.3033 62.7372 15.2877 62.7387C15.1669 62.7502 15.0569 62.7617 14.9572 62.777C14.928 62.7814 14.902 62.7859 14.8791 62.7902C14.8129 62.8444 14.7515 62.8851 14.7065 62.913C14.6757 62.9321 14.6469 62.9487 14.623 62.962C14.5521 63.0683 14.4838 63.1842 14.4152 63.313C14.2085 63.7008 14.0554 64.0257 14.0027 64.2801C13.9516 64.5266 13.8585 64.8669 13.7182 65.1746C13.7181 65.178 13.718 65.1816 13.7179 65.1855C13.7177 65.1962 13.7174 65.2088 13.7169 65.2256C13.7159 65.26 13.7145 65.3064 13.7113 65.3571C13.7052 65.4563 13.6912 65.6028 13.6475 65.7668C13.5568 66.107 13.492 66.5077 13.492 66.8175C13.492 67.0086 13.5151 67.2113 13.5498 67.497L13.553 67.5233C13.5835 67.7741 13.6228 68.0976 13.6249 68.4335C13.6251 68.4345 13.6252 68.4355 13.6254 68.4366C13.629 68.4576 13.6359 68.4899 13.647 68.5315C13.67 68.6183 13.6995 68.7018 13.7185 68.7478L13.3484 68.8995L13.7185 68.7478C13.8037 68.9533 13.8296 69.1451 13.8396 69.2678C13.8503 69.3981 13.8479 69.5186 13.844 69.607C13.8408 69.6821 13.8352 69.7585 13.8313 69.8109C13.8307 69.8195 13.8301 69.8274 13.8296 69.8346C13.8274 69.8641 13.8261 69.8846 13.8252 69.901C13.8243 69.9177 13.8244 69.9219 13.8244 69.918C13.8244 70.2039 13.8047 70.4661 13.7885 70.6811L13.7878 70.6906C13.7707 70.9184 13.7579 71.0933 13.7579 71.2722C13.7579 71.6464 13.6756 72.2569 13.6082 72.6543C13.5759 72.8445 13.5316 73.0808 13.4802 73.247L13.4797 73.2487C13.4693 73.2822 13.434 73.3966 13.3659 73.5191L13.364 73.5224C13.3405 73.565 13.2266 73.7713 12.9889 73.9348C12.845 74.0337 12.5875 74.163 12.2453 74.1478C11.8877 74.132 11.6215 73.9672 11.4606 73.8139C11.2132 73.5781 11.1402 73.3048 11.1273 73.2562C11.1268 73.2545 11.1264 73.2531 11.1261 73.2519C11.1015 73.1619 11.0918 73.0862 11.0875 73.0476C11.0784 72.9654 11.0772 72.8897 11.0772 72.8403V71.3435C11.0772 71.209 11.0512 71.0492 10.9967 70.7492L10.9924 70.7254C10.9455 70.4673 10.8778 70.0951 10.8778 69.7042C10.8778 69.6274 10.8823 69.5496 10.8864 69.4908C10.8907 69.4279 10.8964 69.3594 10.9017 69.2958L10.9039 69.27C10.9145 69.1447 10.9246 69.025 10.9309 68.9087C10.935 68.8338 10.9366 68.774 10.9367 68.7283C10.8748 68.5882 10.8436 68.4591 10.8264 68.3614C10.7977 68.1978 10.7967 68.051 10.7987 67.9572C10.8003 67.8803 10.8055 67.7979 10.8085 67.7513C10.809 67.7427 10.8095 67.7353 10.8099 67.7294C10.8113 67.7054 10.8119 67.6916 10.8121 67.6853C10.8036 67.5505 10.77 67.3445 10.7395 67.238C10.7112 67.1394 10.6952 67.0492 10.6854 66.9796C10.6753 66.9085 10.6694 66.842 10.6655 66.7875C10.6616 66.7328 10.659 66.6799 10.657 66.6375C10.6564 66.6249 10.6559 66.6134 10.6554 66.6026C10.654 66.5732 10.653 66.5494 10.6516 66.5244C10.6515 66.5222 10.6513 66.52 10.6512 66.518C10.5725 66.3406 10.5489 66.1812 10.5404 66.0843C10.5371 66.0463 10.5354 66.0095 10.5349 65.9755C10.4874 65.8762 10.4344 65.7765 10.3694 65.6622C10.0411 65.0851 10.2456 64.3527 10.8261 64.0264C11.0757 63.886 11.3542 63.8436 11.6167 63.8868C11.6242 63.8568 11.6313 63.8262 11.6376 63.7955C11.7689 63.1621 12.0852 62.5571 12.2815 62.1888C12.4221 61.925 12.5829 61.659 12.7776 61.3981C12.9033 61.2297 13.0428 61.1153 13.1478 61.0416C13.2289 60.9846 13.3061 60.9407 13.3568 60.9131C13.5971 60.6913 13.8639 60.589 13.9982 60.5427C14.2094 60.4699 14.4245 60.4293 14.5904 60.4039C14.7168 60.3846 14.841 60.3704 14.9479 60.3595C14.8603 60.3345 14.7756 60.3089 14.6946 60.2832C13.733 59.9777 12.6404 59.2406 12.2269 57.9596C12.1976 57.9208 12.1558 57.8635 12.1158 57.8002C12.0567 57.7065 11.9718 57.5546 11.919 57.3564C11.8787 57.2054 11.8636 57.0719 11.8564 56.9764C11.8528 56.929 11.8508 56.8861 11.8495 56.8552C11.8491 56.8456 11.8488 56.8377 11.8486 56.8309C11.7701 56.6439 11.7288 56.4615 11.7042 56.3321C11.6705 56.1542 11.6503 55.9717 11.6373 55.8096C11.6114 55.4849 11.6091 55.1653 11.6091 54.9859C11.6091 54.6438 11.5487 54.2971 11.463 53.8353C11.46 53.8192 11.4569 53.8028 11.4538 53.7863C11.3758 53.3671 11.2767 52.8345 11.2767 52.2775C11.2767 51.3807 11.2093 50.5604 11.0393 49.7401C11.032 49.7048 11.0239 49.6666 11.0153 49.6257C10.9379 49.2595 10.8156 48.6813 10.8114 48.1706C10.811 48.1674 10.8104 48.1634 10.8097 48.1587C10.8054 48.1297 10.7979 48.0889 10.787 48.0374C10.765 47.9342 10.7369 47.8245 10.7149 47.7422C10.6125 47.358 10.6119 46.9996 10.6119 46.7537C10.6119 46.0907 11.1524 45.5532 11.8193 45.5532ZM11.8449 56.7615C11.8449 56.7614 11.8452 56.7634 11.8456 56.7678C11.845 56.7638 11.8449 56.7616 11.8449 56.7615ZM22.4171 59.4483C22.4167 59.4484 22.4162 59.4485 22.4157 59.4486C22.4355 59.4434 22.4387 59.4438 22.4171 59.4483ZM13.4921 72.8455C13.4921 72.8455 13.492 72.8444 13.492 72.8419L13.4921 72.8455ZM10.9336 68.6407C10.9336 68.6407 10.9337 68.6413 10.9339 68.6427C10.9337 68.6414 10.9336 68.6407 10.9336 68.6407ZM14.0883 55.9368C14.0883 55.9368 14.0881 55.936 14.0876 55.9345C14.0881 55.936 14.0883 55.9367 14.0883 55.9368Z" fill="black"/>
</svg>
