<svg width="186" height="128" viewBox="0 0 186 128" fill="none" xmlns="http://www.w3.org/2000/svg">
<path d="M18.0103 18.7662C46.9249 23.6568 74.7968 33.4306 100.433 47.6693C119.373 58.1831 144.613 73.6748 146.404 97.8436C146.731 102.282 145.717 106.916 143.031 110.464C140.344 114.011 135.869 116.313 131.441 115.838C121.323 114.757 120.001 102.48 123.361 94.9795C133.558 72.2317 160.035 60.5812 183.773 66.7518" stroke="#FFF56E" stroke-width="4.13" stroke-linecap="round" stroke-linejoin="round"/>
<path d="M183.773 66.7517C181.312 66.2475 179.081 64.9591 177.414 63.0799C176.459 61.9748 175.732 60.6919 175.273 59.3048" stroke="#FFF56E" stroke-width="4.13" stroke-linecap="round" stroke-linejoin="round"/>
<path d="M183.773 66.7517C182.111 66.4205 180.389 66.5696 178.808 67.1817C174.467 68.9191 173.337 73.6202 173.234 74.1171" stroke="#FFF56E" stroke-width="4.13" stroke-linecap="round" stroke-linejoin="round"/>
</svg>
