<svg width="181" height="186" viewBox="0 0 181 186" fill="none" xmlns="http://www.w3.org/2000/svg">
<path d="M22.1023 56.288C22.7344 81.6609 36.784 106.811 57.7203 121.023C77.9283 134.745 107.002 138.558 129.577 128.59C149.623 119.743 162.346 99.6535 159.752 77.6139C157.725 60.4218 149.341 40.722 135.445 29.7901C127.149 23.2715 115.58 20.12 105.773 23.998C97.413 27.3014 91.5761 35.0572 87.7679 43.1939C78.1383 63.7636 79.1817 88.4707 88.1775 109.323C104.78 147.817 143.562 169.463 181.11 183.329" stroke="#323232" stroke-width="4.13" stroke-linecap="round" stroke-linejoin="round"/>
<path d="M14.6006 80.3643C17.7479 76.8753 19.9729 72.6547 21.0729 68.0865C22.2287 63.2329 22.5593 58.7125 22.0921 56.2864C22.2607 57.8756 21.8839 61.9845 24.5938 66.0569C28.7983 72.445 36.2412 72.9573 37.1401 73.0115" stroke="#323232" stroke-width="4.13" stroke-linecap="round" stroke-linejoin="round"/>
</svg>
