<svg width="97" height="109" viewBox="0 0 97 109" fill="none" xmlns="http://www.w3.org/2000/svg">
<path d="M72.6324 2.0528L73.3831 21.4833C73.6208 27.6353 78.4527 32.6215 84.5944 33.0525L96.2386 33.8698L84.5944 34.6871C78.4527 35.1182 73.6208 40.1044 73.3831 46.2564L72.6324 65.6868L71.8817 46.2564C71.644 40.1043 66.8121 35.1182 60.6704 34.6871L49.0262 33.8698L60.6704 33.0525C66.8121 32.6215 71.644 27.6353 71.8817 21.4832L72.6324 2.0528Z" fill="black"/>
<path fill-rule="evenodd" clip-rule="evenodd" d="M72.6324 2.0528L71.8817 21.4832C71.8809 21.5026 71.8802 21.522 71.8793 21.5414C71.7817 23.7919 71.0691 25.8846 69.903 27.653C68.9832 29.0478 67.7813 30.2408 66.3764 31.1503C64.7452 32.2064 62.8403 32.8802 60.7858 33.0439C60.7474 33.0469 60.7089 33.0498 60.6704 33.0525L49.0262 33.8698L60.6704 34.6871C60.7089 34.6898 60.7474 34.6927 60.7858 34.6957C62.8403 34.8594 64.7452 35.5333 66.3764 36.5893C67.7813 37.4988 68.9833 38.6918 69.903 40.0867C71.0691 41.855 71.7817 43.9477 71.8793 46.1983C71.8802 46.2176 71.8809 46.237 71.8817 46.2564L72.6324 65.6868L73.3831 46.2564C73.3839 46.237 73.3847 46.2176 73.3855 46.1983C73.4832 43.9477 74.1957 41.855 75.3618 40.0867C76.2816 38.6918 77.4835 37.4988 78.8885 36.5893C80.5197 35.5333 82.4245 34.8594 84.4791 34.6957C84.5175 34.6927 84.5559 34.6898 84.5944 34.6871L96.2386 33.8698L84.5944 33.0525C84.5559 33.0498 84.5175 33.0469 84.4791 33.0439C82.4245 32.8802 80.5197 32.2064 78.8885 31.1503C77.4835 30.2408 76.2816 29.0478 75.3618 27.653C74.1957 25.8846 73.4832 23.7919 73.3855 21.5413C73.3847 21.522 73.3839 21.5026 73.3831 21.4833L72.6324 2.0528ZM72.6324 32.0307C72.0652 32.6899 71.4477 33.3049 70.7859 33.8698C71.4477 34.4347 72.0652 35.0497 72.6324 35.7089C73.1997 35.0497 73.8171 34.4347 74.479 33.8698C73.8171 33.3049 73.1997 32.6899 72.6324 32.0307Z" fill="black"/>
<path fill-rule="evenodd" clip-rule="evenodd" d="M71.219 0C72.5665 0 73.6589 1.05741 73.6589 2.36179C73.6589 5.08296 73.6251 7.80912 73.5915 10.516L73.5915 10.5174C73.5579 13.2286 73.5245 15.9204 73.5245 18.597C73.5245 19.4956 73.4496 20.353 73.3843 21.1007L73.3815 21.1326C73.313 21.9173 73.2558 22.5852 73.2558 23.2556C73.2558 23.3454 73.256 23.4377 73.2561 23.5321C73.2581 24.7699 73.2606 26.3837 72.9444 27.869C72.9001 28.0772 72.8595 28.3797 72.8496 28.5655C72.8095 29.3192 72.4817 29.882 72.3701 30.0738L72.3647 30.083C72.3507 30.1071 72.3341 30.1352 72.3199 30.1591C72.123 30.7883 71.8461 31.2655 71.5329 31.6756C71.3995 31.8504 71.2596 32.0118 71.1666 32.1191C71.1584 32.1285 71.1506 32.1376 71.1431 32.1462C71.0386 32.2669 70.9662 32.352 70.8946 32.4454C70.3492 33.157 69.6194 33.4799 69.3567 33.5961C69.3502 33.5989 69.344 33.6017 69.3382 33.6043C69.2458 33.6452 69.195 33.6671 69.1615 33.6816C69.149 33.6869 69.1389 33.6913 69.13 33.6952C68.8339 33.919 68.5443 34.0606 68.371 34.1402C68.2094 34.2143 68.0216 34.2895 67.9174 34.3312C67.9144 34.3324 67.9115 34.3335 67.9086 34.3347C68.3605 34.5917 68.806 34.9024 69.2525 35.2753C69.8762 35.796 70.2852 36.4438 70.5018 36.7869L70.5093 36.7988C70.5459 36.8568 70.578 36.9079 70.6071 36.9543C70.6865 37.0808 70.7432 37.1711 70.8068 37.265C70.8445 37.3206 70.8732 37.3599 70.895 37.388C70.9168 37.416 70.9268 37.4264 70.9256 37.4252C71.4114 37.9322 71.7609 38.5721 71.9823 39.0464C72.2185 39.552 72.4293 40.1316 72.5414 40.6578C72.5407 40.6548 72.5412 40.6567 72.5431 40.6646C72.5477 40.6829 72.5603 40.7337 72.5858 40.8312C72.6173 40.952 72.659 41.1078 72.7082 41.2907C72.7394 41.4068 72.7737 41.5336 72.8097 41.6671C72.8852 41.9466 72.9685 42.255 73.0483 42.5541C73.1657 42.9945 73.2835 43.4444 73.3669 43.7905C73.4069 43.9565 73.4483 44.1368 73.4769 44.2915C73.4884 44.354 73.5135 44.4931 73.5247 44.6504L73.5249 44.6534C73.529 44.7097 73.5446 44.9272 73.503 45.1937C73.4853 45.3077 73.4256 45.6623 73.1884 46.0505C72.9075 46.5102 72.2212 47.2123 71.0846 47.2123C69.7951 47.2123 68.7393 46.244 68.6508 45.0175C68.6417 44.9775 68.6298 44.9265 68.6146 44.8633C68.5454 44.5759 68.4402 44.1727 68.3234 43.7348C68.2623 43.5057 68.1944 43.2543 68.1273 43.0058C67.9632 42.3982 67.8041 41.8089 67.762 41.6113C67.74 41.508 67.6635 41.2656 67.5357 40.9919C67.4762 40.8645 67.4188 40.7589 67.3712 40.6822C67.3486 40.6458 67.3333 40.6243 67.3264 40.6148C67.0734 40.3472 66.8752 40.075 66.7276 39.8574C66.6119 39.6868 66.4943 39.4991 66.4059 39.358C66.3839 39.323 66.3637 39.2908 66.3458 39.2625C66.1329 38.9252 66.0611 38.8502 66.0619 38.8494C66.062 38.8493 66.0631 38.8503 66.0651 38.852C65.4309 38.3224 64.9554 38.1395 64.359 38.0431C63.6982 37.9364 62.9518 37.9382 61.6937 37.9413C61.465 37.9419 61.2194 37.9425 60.9543 37.9425C59.1992 37.9425 57.3355 37.68 55.6829 37.4473L55.5924 37.4345C53.8339 37.187 52.3003 36.9758 50.9328 36.9758C50.7457 36.9758 50.5392 36.9711 50.3418 36.9518C50.2466 36.9425 50.0947 36.9244 49.9215 36.8839C49.9191 36.8834 49.9164 36.8827 49.9134 36.882C49.813 36.8589 49.3438 36.7506 48.8942 36.3911C48.6237 36.1748 48.2072 35.7429 48.0549 35.0541C47.8946 34.3289 48.1137 33.7182 48.3486 33.3375C48.7058 32.7589 49.22 32.4957 49.3093 32.4499C49.3126 32.4483 49.3153 32.4469 49.3174 32.4458C49.6048 32.296 49.8817 32.2218 49.9713 32.1978L49.9725 32.1975C50.4033 32.0821 51.1016 31.9717 51.6046 31.9717H53.7541C54.3247 31.9717 54.9537 31.9069 55.7192 31.813C55.824 31.8001 55.9323 31.7866 56.0435 31.7727C56.6932 31.6915 57.4426 31.5978 58.1759 31.5553C58.6104 31.5301 59.0696 31.4428 59.741 31.3151C59.7914 31.3055 59.8431 31.2956 59.896 31.2856C60.5727 31.1572 61.477 30.9902 62.4194 30.9902C62.4462 30.9902 62.5437 30.9837 62.763 30.9276C62.8682 30.9007 62.9837 30.8672 63.1243 30.8243C63.1641 30.8122 63.2151 30.7965 63.2709 30.7792C63.3738 30.7475 63.4933 30.7106 63.5893 30.682C63.8498 30.6043 64.0851 30.5709 64.2438 30.5538C64.4098 30.5359 64.5643 30.5288 64.6813 30.5249C64.7806 30.5217 64.8845 30.5201 64.9639 30.5189C64.9681 30.5188 64.9723 30.5187 64.9764 30.5187C65.1023 30.4298 65.2175 30.3609 65.3105 30.3088C65.5734 30.1615 65.8329 30.055 65.9775 29.9963C66.0423 29.97 66.0908 29.9505 66.1289 29.9352C66.1694 29.919 66.1981 29.9074 66.2223 29.8974C66.4681 29.7147 66.701 29.59 66.8678 29.508C66.9713 29.4571 67.0667 29.4144 67.1373 29.3834C67.1604 29.3733 67.1782 29.3655 67.1928 29.3592C67.2722 29.2634 67.3439 29.1805 67.4023 29.113C67.5233 28.9731 67.5701 28.9186 67.6087 28.868C67.6233 28.8489 67.63 28.8388 67.6324 28.835L67.6343 28.8321L67.6343 28.832C67.6343 28.8319 67.6343 28.8319 67.6343 28.832L67.6345 28.8316L67.6353 28.8299L67.6393 28.8201C67.643 28.8103 67.65 28.7907 67.6588 28.7584C67.7463 28.4387 67.8734 28.1878 67.9516 28.044C67.9705 28.0092 67.9889 27.9764 68.0059 27.9469C68.0415 27.596 68.0993 27.2244 68.1651 26.9156C68.3764 25.9227 68.3763 24.7622 68.3761 23.3835C68.3761 23.3411 68.3761 23.2984 68.3761 23.2556C68.3761 22.3712 68.4502 21.5224 68.5152 20.7797L68.5191 20.7346C68.5875 19.9517 68.6448 19.2778 68.6448 18.597C68.6448 15.892 68.6784 13.1766 68.7119 10.4749L68.7121 10.4593C68.7457 7.74772 68.7791 5.04989 68.7791 2.36179C68.7791 1.05741 69.8715 0 71.219 0ZM68.1225 27.7481C68.1228 27.7476 68.1222 27.7487 68.1206 27.7515C68.1216 27.7496 68.1223 27.7484 68.1225 27.7481ZM66.2961 29.8644C66.2964 29.8644 66.2924 29.8665 66.2834 29.8707C66.2914 29.8665 66.2958 29.8644 66.2961 29.8644ZM68.6734 45.1235C68.6753 45.1336 68.6747 45.1319 68.6729 45.1207C68.6731 45.1217 68.6732 45.1227 68.6734 45.1235ZM69.8124 42.8349C70.1462 42.6338 70.5688 42.4888 71.0846 42.4888C70.6185 42.4888 70.1828 42.6153 69.8124 42.8349Z" fill="black"/>
<path fill-rule="evenodd" clip-rule="evenodd" d="M71.7559 5.1319C73.0962 5.1319 74.1827 6.21216 74.1827 7.54474C74.1827 8.04891 74.2016 8.19681 74.228 8.29565C74.2792 8.48783 74.36 8.79959 74.4293 9.12513C74.486 9.39133 74.5836 9.87947 74.5836 10.3383C74.5836 10.8471 74.7277 11.5411 74.9116 12.4272C74.9216 12.4753 74.9317 12.5239 74.9419 12.5732C75.3645 14.6119 75.5189 16.597 75.5189 18.6472C75.5189 19.2917 75.6378 19.9604 75.8127 20.9022L75.8222 20.9533C75.9825 21.8164 76.1871 22.917 76.1871 24.0911C76.1871 24.4225 76.1923 24.9094 76.2286 25.3647C76.2468 25.5929 76.27 25.7748 76.2944 25.9031C76.2989 25.9273 76.303 25.9467 76.3064 25.9617C76.601 26.5844 76.6426 27.1583 76.6571 27.4382C76.6918 27.4872 76.7287 27.541 76.7644 27.5966C76.8795 27.7759 77.0585 28.0855 77.1677 28.4951C77.3528 29.1896 78.0108 29.8233 79.0124 30.1414L78.2738 32.4398L79.0124 30.1414C79.8245 30.3994 80.7263 30.5967 81.3883 30.6362C82.0189 30.6737 82.621 30.8029 83.0288 30.8905C83.055 30.8961 83.0804 30.9015 83.105 30.9068C83.5818 31.0086 83.8339 31.0549 84.0459 31.0637C84.1088 31.0663 84.1759 31.0672 84.2847 31.0688C84.31 31.0691 84.3375 31.0695 84.3678 31.07C84.5081 31.0721 84.6961 31.0755 84.8949 31.0875C85.2091 31.1064 85.7683 31.1545 86.346 31.3786C86.3742 31.3811 86.4081 31.3839 86.4566 31.3877C86.4629 31.3882 86.4697 31.3888 86.4769 31.3893C86.5932 31.3985 86.8141 31.4159 87.0438 31.4542C87.2986 31.4968 87.6556 31.5781 88.0378 31.7602C88.0365 31.7596 88.0359 31.7593 88.0359 31.7592C88.036 31.7589 88.0992 31.7846 88.3054 31.8366C88.3764 31.8545 88.4348 31.8685 88.5044 31.8852C88.5518 31.8966 88.6044 31.9092 88.6696 31.9251C88.8067 31.9586 88.9778 32.0016 89.1552 32.0545L88.7265 33.4776L89.1552 32.0545C89.4751 32.1497 89.7784 32.264 90.0223 32.3586C90.1131 32.3938 90.1934 32.4253 90.2678 32.4546C90.4183 32.5137 90.5448 32.5633 90.6851 32.6147C90.879 32.6858 91.0197 32.7297 91.1286 32.7559C91.2244 32.7789 91.2658 32.7806 91.2666 32.7807C91.2667 32.7807 91.2662 32.7807 91.265 32.7807C92.1227 32.7807 92.7713 32.7919 93.2364 32.8143C93.4647 32.8253 93.6875 32.8407 93.8854 32.8652C93.9828 32.8772 94.1122 32.8958 94.2521 32.927L94.2549 32.9277C94.3438 32.9475 94.6614 33.0183 95.0028 33.2132C95.1689 33.3081 95.5675 33.5573 95.8738 34.0502C96.2569 34.6668 96.3612 35.4579 96.0762 36.1963C95.8481 36.7871 95.4556 37.1208 95.2906 37.2486C95.0959 37.3995 94.918 37.4907 94.8197 37.5373C94.5002 37.6889 94.1786 37.7567 94.0753 37.7785L94.0673 37.7802C93.7586 37.8455 93.3652 37.9006 92.9915 37.9464C91.4975 38.1296 88.951 38.3227 88.2956 38.3227C88.0747 38.3227 87.7961 38.3669 87.2688 38.4737C87.2327 38.481 87.1948 38.4888 87.1552 38.4969C86.7104 38.588 86.0522 38.7228 85.3822 38.7504C85.1348 38.7606 84.8232 38.7806 84.4807 38.8026C83.8145 38.8454 83.0318 38.8957 82.379 38.8957C82.2124 38.8957 81.9585 38.9407 81.4265 39.0968C81.3605 39.1162 81.2858 39.1387 81.204 39.1635C80.7618 39.2973 80.1099 39.4946 79.4747 39.5919C79.3371 39.6129 79.1953 39.6282 79.0842 39.6395C79.0041 39.6476 78.9125 39.6562 78.8266 39.6643C78.7922 39.6675 78.7587 39.6707 78.7272 39.6737C78.4845 39.6968 78.2634 39.72 78.063 39.7506C78.0043 39.7596 77.952 39.7685 77.906 39.7773C77.7729 39.8862 77.6496 39.968 77.5591 40.024C77.4972 40.0624 77.4392 40.0957 77.3912 40.1225C77.2488 40.3362 77.1116 40.5692 76.9736 40.828C76.5581 41.6075 76.2505 42.2606 76.1445 42.7719C76.0419 43.2672 75.8547 43.9512 75.5727 44.5696C75.5725 44.5766 75.5724 44.5838 75.5722 44.5915C75.5716 44.6131 75.571 44.6384 75.5701 44.6722C75.5682 44.7414 75.5652 44.8347 75.5589 44.9364C75.5465 45.1359 75.5185 45.4303 75.4306 45.76C75.2484 46.4437 75.1181 47.2492 75.1181 47.8719C75.1181 48.2559 75.1645 48.6633 75.2342 49.2376L75.2406 49.2904C75.3019 49.7945 75.381 50.4448 75.3852 51.12C75.3855 51.1219 75.3858 51.1239 75.3862 51.126C75.3934 51.1683 75.4073 51.2332 75.4295 51.3169C75.4759 51.4913 75.535 51.6591 75.5734 51.7516L74.8294 52.0565L75.5734 51.7516C75.7446 52.1646 75.7965 52.5502 75.8167 52.7967C75.8381 53.0588 75.8333 53.3008 75.8256 53.4786C75.819 53.6295 75.8078 53.783 75.8 53.8883C75.7987 53.9056 75.7976 53.9216 75.7965 53.9361C75.7922 53.9953 75.7895 54.0365 75.7878 54.0695C75.786 54.103 75.7862 54.1114 75.7862 54.1036C75.7862 54.6783 75.7466 55.2054 75.7141 55.6374L75.7126 55.6565C75.6782 56.1143 75.6526 56.4659 75.6526 56.8255C75.6526 57.5776 75.487 58.8047 75.3515 59.6034C75.2867 59.9857 75.1976 60.4608 75.0944 60.7947L75.0933 60.7982C75.0725 60.8655 75.0015 61.0953 74.8645 61.3417L74.8608 61.3484C74.8136 61.4339 74.5846 61.8486 74.1068 62.1772C73.8176 62.3761 73.3 62.6358 72.6122 62.6054C71.8935 62.5736 71.3585 62.2423 71.0351 61.9342C70.5377 61.4602 70.3912 60.911 70.3651 60.8132C70.3642 60.8098 70.3634 60.8069 70.3628 60.8047C70.3133 60.6237 70.2937 60.4715 70.2851 60.3939C70.2668 60.2288 70.2645 60.0765 70.2645 59.9772V56.9688C70.2645 56.6985 70.2121 56.3774 70.1027 55.7743L70.094 55.7265C69.9996 55.2077 69.8636 54.4597 69.8636 53.6739C69.8636 53.5195 69.8728 53.3633 69.8809 53.2451C69.8895 53.1186 69.901 52.981 69.9117 52.853L69.9161 52.8012C69.9373 52.5494 69.9576 52.3087 69.9704 52.0749C69.9786 51.9245 69.9819 51.8043 69.982 51.7124C69.8576 51.4309 69.7948 51.1713 69.7604 50.9749C69.7027 50.6462 69.7006 50.3511 69.7046 50.1625C69.7078 50.0079 69.7184 49.8424 69.7243 49.7487C69.7254 49.7314 69.7264 49.7165 69.7271 49.7046C69.73 49.6564 69.7312 49.6288 69.7317 49.6161C69.7146 49.3452 69.647 48.931 69.5856 48.717C69.5287 48.5189 69.4967 48.3376 69.4769 48.1976C69.4567 48.0547 69.4448 47.9211 69.4369 47.8115C69.429 47.7015 69.4238 47.5952 69.4198 47.51C69.4187 47.4847 69.4176 47.4616 69.4166 47.44C69.4139 47.3809 69.4117 47.333 69.409 47.2826C69.4087 47.2782 69.4085 47.2739 69.4082 47.2698C69.25 46.9133 69.2027 46.5929 69.1855 46.3982C69.1788 46.3217 69.1755 46.2478 69.1745 46.1795C69.0789 45.98 68.9724 45.7794 68.8418 45.5498C68.182 44.3898 68.593 42.9177 69.7596 42.2618C70.2614 41.9797 70.8212 41.8945 71.3488 41.9813C71.3639 41.9211 71.3781 41.8596 71.3909 41.7978C71.6548 40.5247 72.2904 39.3087 72.685 38.5684C72.9676 38.0382 73.2908 37.5035 73.682 36.9792C73.9347 36.6406 74.2153 36.4108 74.4263 36.2626C74.5892 36.1481 74.7445 36.0597 74.8464 36.0043C75.3293 35.5585 75.8655 35.3529 76.1356 35.2598C76.5599 35.1136 76.9923 35.0319 77.3257 34.9809C77.5798 34.9421 77.8294 34.9136 78.0442 34.8916C77.8682 34.8414 77.698 34.7899 77.5352 34.7382C75.6025 34.1243 73.4064 32.6427 72.5752 30.068C72.5163 29.99 72.4323 29.8749 72.352 29.7477C72.2331 29.5593 72.0625 29.254 71.9564 28.8556C71.8755 28.552 71.8451 28.2838 71.8306 28.0918C71.8233 27.9965 71.8194 27.9103 71.8168 27.8482C71.816 27.829 71.8154 27.813 71.8148 27.7993C71.6572 27.4234 71.574 27.0568 71.5247 26.7967C71.457 26.4392 71.4163 26.0724 71.3903 25.7466C71.3382 25.094 71.3335 24.4516 71.3335 24.0911C71.3335 23.4035 71.2122 22.7066 71.0398 21.7785C71.0338 21.746 71.0276 21.7132 71.0215 21.68C70.8646 20.8373 70.6654 19.7667 70.6654 18.6472C70.6654 16.8447 70.53 15.196 70.1883 13.5472C70.1736 13.4764 70.1573 13.3995 70.14 13.3173C69.9844 12.5813 69.7387 11.4192 69.7302 10.3926C69.7294 10.3862 69.7283 10.3782 69.7268 10.3687C69.7182 10.3105 69.7031 10.2284 69.6811 10.125C69.6369 9.91761 69.5804 9.69708 69.5363 9.53166C69.3305 8.75945 69.3291 8.03897 69.3291 7.54474C69.3291 6.21216 70.4157 5.1319 71.7559 5.1319ZM71.8075 27.6599C71.8076 27.6598 71.8081 27.6638 71.8088 27.6725C71.8077 27.6645 71.8074 27.6601 71.8075 27.6599ZM93.057 33.0602C93.0561 33.0604 93.0551 33.0606 93.0541 33.0608C93.094 33.0502 93.1003 33.051 93.057 33.0602ZM75.1182 59.9878C75.1182 59.9878 75.1181 59.9855 75.1181 59.9805L75.1182 59.9878ZM69.9759 51.5363C69.9759 51.5363 69.9761 51.5376 69.9764 51.5404C69.976 51.5377 69.9759 51.5363 69.9759 51.5363ZM76.3166 26.0022C76.3166 26.0022 76.3161 26.0008 76.3153 25.9976C76.3162 26.0006 76.3166 26.0022 76.3166 26.0022Z" fill="black"/>
<path d="M16.9513 64.4127L17.4679 77.7842C17.6315 82.0179 20.9566 85.4493 25.1832 85.7459L33.1964 86.3083L25.1832 86.8708C20.9566 87.1674 17.6315 90.5988 17.4679 94.8324L16.9513 108.204L16.4346 94.8324C16.2711 90.5988 12.9459 87.1674 8.71933 86.8708L0.706116 86.3083L8.71933 85.7459C12.9459 85.4493 16.2711 82.0179 16.4346 77.7842L16.9513 64.4127Z" fill="black"/>
<path fill-rule="evenodd" clip-rule="evenodd" d="M16.9513 64.4127L16.4346 77.7842C16.4341 77.7976 16.4336 77.8109 16.433 77.8242C16.3658 79.373 15.8754 80.8131 15.073 82.0301C14.44 82.99 13.6129 83.811 12.646 84.4369C11.5235 85.1636 10.2126 85.6273 8.7987 85.74C8.77228 85.7421 8.74582 85.7441 8.71933 85.7459L0.706116 86.3083L8.71933 86.8708C8.74582 86.8726 8.77228 86.8746 8.7987 86.8767C10.2126 86.9894 11.5235 87.4531 12.646 88.1798C13.6129 88.8057 14.44 89.6267 15.073 90.5866C15.8754 91.8036 16.3658 93.2437 16.433 94.7925C16.4336 94.8058 16.4341 94.8191 16.4346 94.8324L16.9513 108.204L17.4679 94.8324C17.4684 94.8191 17.4689 94.8058 17.4695 94.7925C17.5367 93.2437 18.0271 91.8036 18.8296 90.5866C19.4625 89.6267 20.2897 88.8057 21.2565 88.1798C22.3791 87.4531 23.6899 86.9894 25.1038 86.8767C25.1302 86.8746 25.1567 86.8726 25.1832 86.8708L33.1964 86.3083L25.1832 85.7459C25.1567 85.7441 25.1302 85.7421 25.1038 85.74C23.6899 85.6273 22.3791 85.1636 21.2565 84.4369C20.2897 83.811 19.4625 82.99 18.8296 82.0301C18.0271 80.8131 17.5367 79.373 17.4695 77.8242C17.4689 77.8109 17.4684 77.7976 17.4679 77.7842L16.9513 64.4127ZM16.9513 85.0427C16.5609 85.4964 16.136 85.9196 15.6805 86.3083C16.136 86.6971 16.5609 87.1203 16.9513 87.574C17.3416 87.1203 17.7665 86.6971 18.222 86.3083C17.7665 85.9196 17.3416 85.4964 16.9513 85.0427Z" fill="black"/>
<path fill-rule="evenodd" clip-rule="evenodd" d="M15.9787 63C16.906 63 17.6578 63.7277 17.6578 64.6253C17.6578 66.498 17.6345 68.374 17.6114 70.2368L17.6114 70.2378C17.5883 72.1036 17.5653 73.956 17.5653 75.7979C17.5653 76.4164 17.5138 77.0064 17.4688 77.5209L17.4669 77.5429C17.4197 78.0829 17.3804 78.5425 17.3804 79.0039C17.3804 79.0657 17.3805 79.1292 17.3806 79.1942C17.3819 80.046 17.3837 81.1565 17.1661 82.1787C17.1356 82.322 17.1076 82.5301 17.1008 82.658C17.0732 83.1767 16.8477 83.564 16.7708 83.696L16.7672 83.7023C16.7575 83.7189 16.7461 83.7382 16.7363 83.7547C16.6008 84.1877 16.4102 84.5161 16.1947 84.7983C16.1029 84.9186 16.0066 85.0297 15.9426 85.1035C15.937 85.11 15.9316 85.1162 15.9265 85.1221C15.8546 85.2052 15.8048 85.2638 15.7555 85.3281C15.3801 85.8178 14.8779 86.0399 14.6971 86.1199C14.6926 86.1219 14.6884 86.1238 14.6843 86.1256C14.6208 86.1537 14.5858 86.1688 14.5627 86.1787C14.5542 86.1824 14.5472 86.1854 14.5411 86.1881C14.3374 86.3422 14.1381 86.4396 14.0188 86.4944C13.9075 86.5454 13.7783 86.5971 13.7066 86.6258C13.7045 86.6266 13.7025 86.6274 13.7006 86.6282C14.0116 86.8051 14.3181 87.0189 14.6254 87.2755C15.0546 87.6339 15.3361 88.0796 15.4852 88.3158L15.4903 88.324C15.5155 88.3638 15.5376 88.3991 15.5576 88.431C15.6122 88.518 15.6512 88.5802 15.6951 88.6448C15.721 88.683 15.7407 88.7101 15.7557 88.7294C15.7707 88.7487 15.7776 88.7559 15.7768 88.755C16.1111 89.1039 16.3516 89.5443 16.504 89.8707C16.6665 90.2186 16.8116 90.6175 16.8887 90.9796C16.8883 90.9775 16.8886 90.9788 16.8899 90.9843C16.8931 90.9969 16.9017 91.0319 16.9193 91.0989C16.941 91.182 16.9696 91.2893 17.0035 91.4151C17.025 91.4951 17.0486 91.5823 17.0734 91.6742C17.1253 91.8665 17.1827 92.0787 17.2376 92.2846C17.3184 92.5877 17.3994 92.8973 17.4568 93.1354C17.4843 93.2497 17.5128 93.3738 17.5325 93.4802C17.5405 93.5233 17.5577 93.619 17.5654 93.7272L17.5656 93.7293C17.5684 93.768 17.5791 93.9177 17.5505 94.1011C17.5383 94.1796 17.4972 94.4236 17.334 94.6907C17.1407 95.0071 16.6684 95.4903 15.8862 95.4903C14.9988 95.4903 14.2722 94.8239 14.2113 93.9799C14.2051 93.9523 14.1969 93.9172 14.1864 93.8737C14.1388 93.676 14.0664 93.3985 13.986 93.0971C13.944 92.9395 13.8972 92.7664 13.8511 92.5955C13.7382 92.1773 13.6286 91.7717 13.5997 91.6358C13.5846 91.5647 13.5319 91.3979 13.4439 91.2095C13.403 91.1218 13.3635 91.0492 13.3307 90.9964C13.3152 90.9714 13.3047 90.9565 13.2999 90.95C13.1258 90.7659 12.9894 90.5785 12.8879 90.4288C12.8082 90.3114 12.7273 90.1822 12.6664 90.0851C12.6513 90.061 12.6374 90.0389 12.6251 90.0194C12.4786 89.7873 12.4292 89.7357 12.4297 89.7351C12.4298 89.7351 12.4306 89.7357 12.4319 89.7369C11.9955 89.3724 11.6683 89.2466 11.2578 89.1803C10.8031 89.1068 10.2894 89.1081 9.42366 89.1102C9.26626 89.1106 9.09723 89.111 8.91479 89.111C7.70699 89.111 6.42446 88.9304 5.28719 88.7702L5.22491 88.7614C4.01472 88.5911 2.95934 88.4457 2.01831 88.4457C1.88951 88.4457 1.7474 88.4425 1.61155 88.4292C1.54602 88.4228 1.4415 88.4104 1.32231 88.3825C1.3207 88.3821 1.31885 88.3817 1.31677 88.3812C1.24765 88.3653 0.924797 88.2908 0.615388 88.0434C0.429187 87.8945 0.142558 87.5973 0.0377745 87.1233C-0.0725459 86.6242 0.0782183 86.204 0.239927 85.942C0.485709 85.5438 0.839558 85.3627 0.901043 85.3312C0.903297 85.33 0.905159 85.3291 0.906607 85.3283C1.10439 85.2252 1.29492 85.1742 1.35659 85.1577L1.35745 85.1575C1.6539 85.0781 2.13443 85.0021 2.48057 85.0021H3.95982C4.35252 85.0021 4.78537 84.9575 5.31215 84.8929C5.38425 84.884 5.45877 84.8747 5.5353 84.8651C5.98241 84.8092 6.49814 84.7448 7.00281 84.7155C7.30178 84.6982 7.61781 84.6381 8.07981 84.5502C8.11454 84.5436 8.15009 84.5368 8.18653 84.5299C8.6522 84.4416 9.27454 84.3266 9.92303 84.3266C9.94148 84.3266 10.0086 84.3222 10.1595 84.2836C10.2319 84.265 10.3114 84.242 10.4081 84.2125C10.4355 84.2041 10.4706 84.1933 10.509 84.1815C10.5799 84.1596 10.6621 84.1342 10.7281 84.1145C10.9074 84.061 11.0693 84.0381 11.1785 84.0263C11.2928 84.014 11.3991 84.0091 11.4796 84.0065C11.548 84.0042 11.6195 84.0031 11.6741 84.0023C11.677 84.0022 11.6799 84.0022 11.6827 84.0021C11.7694 83.941 11.8487 83.8936 11.9126 83.8577C12.0935 83.7564 12.2721 83.6831 12.3716 83.6427C12.4162 83.6245 12.4496 83.6111 12.4758 83.6006C12.5037 83.5894 12.5235 83.5815 12.5401 83.5746C12.7092 83.4489 12.8695 83.363 12.9843 83.3066C13.0555 83.2716 13.1212 83.2422 13.1698 83.2209C13.1857 83.2139 13.1979 83.2086 13.208 83.2042C13.2626 83.1383 13.3119 83.0813 13.3521 83.0348C13.4354 82.9385 13.4676 82.901 13.4942 82.8662C13.5042 82.853 13.5089 82.8461 13.5105 82.8435L13.5118 82.8415L13.5118 82.8414C13.5118 82.8414 13.5118 82.8414 13.5118 82.8414L13.5119 82.8412L13.5125 82.84L13.5152 82.8332C13.5178 82.8265 13.5226 82.813 13.5287 82.7907C13.5889 82.5708 13.6764 82.3981 13.7301 82.2992C13.7431 82.2752 13.7559 82.2526 13.7675 82.2323C13.792 81.9908 13.8318 81.7351 13.8771 81.5226C14.0225 80.8393 14.0224 80.0407 14.0223 79.0919C14.0223 79.0627 14.0223 79.0334 14.0223 79.0039C14.0223 78.3953 14.0733 77.8111 14.118 77.3L14.1207 77.269C14.1677 76.7302 14.2072 76.2664 14.2072 75.7979C14.2072 73.9365 14.2303 72.0678 14.2534 70.2086L14.2535 70.1978C14.2767 68.3318 14.2996 66.4752 14.2996 64.6253C14.2996 63.7277 15.0514 63 15.9787 63ZM13.8478 82.0955C13.848 82.0951 13.8476 82.0959 13.8465 82.0978C13.8472 82.0965 13.8476 82.0957 13.8478 82.0955ZM12.5909 83.5519C12.5911 83.5519 12.5883 83.5533 12.5822 83.5562C12.5876 83.5533 12.5907 83.5519 12.5909 83.5519ZM14.2269 94.0528C14.2282 94.0597 14.2278 94.0585 14.2265 94.0509C14.2267 94.0516 14.2268 94.0522 14.2269 94.0528ZM15.0107 92.4778C15.2404 92.3394 15.5313 92.2396 15.8862 92.2396C15.5654 92.2396 15.2656 92.3267 15.0107 92.4778Z" fill="black"/>
<path fill-rule="evenodd" clip-rule="evenodd" d="M16.3481 66.5316C17.2704 66.5316 18.0181 67.275 18.0181 68.1921C18.0181 68.539 18.0311 68.6408 18.0492 68.7088C18.0845 68.8411 18.1401 69.0556 18.1878 69.2797C18.2268 69.4628 18.294 69.7988 18.294 70.1145C18.294 70.4647 18.3931 70.9422 18.5197 71.552C18.5266 71.5851 18.5336 71.6186 18.5406 71.6525C18.8314 73.0555 18.9377 74.4216 18.9377 75.8325C18.9377 76.276 19.0194 76.7362 19.1398 77.3843L19.1463 77.4195C19.2567 78.0134 19.3974 78.7708 19.3974 79.5788C19.3974 79.8069 19.401 80.1419 19.426 80.4553C19.4386 80.6123 19.4545 80.7375 19.4713 80.8258C19.4744 80.8425 19.4772 80.8558 19.4796 80.8661C19.6823 81.2946 19.7109 81.6896 19.7209 81.8822C19.7448 81.916 19.7702 81.953 19.7947 81.9913C19.874 82.1146 19.9972 82.3276 20.0723 82.6095C20.1996 83.0875 20.6525 83.5236 21.3417 83.7425L20.8335 85.3242L21.3417 83.7425C21.9007 83.9201 22.5212 84.0558 22.9768 84.083C23.4107 84.1088 23.8251 84.1978 24.1057 84.258C24.1238 84.2618 24.1413 84.2656 24.1582 84.2692C24.4863 84.3393 24.6598 84.3712 24.8057 84.3772C24.849 84.379 24.8952 84.3796 24.9701 84.3807C24.9874 84.3809 25.0064 84.3812 25.0272 84.3815C25.1237 84.383 25.2532 84.3853 25.3899 84.3936C25.6061 84.4066 25.991 84.4397 26.3885 84.5939C26.4079 84.5956 26.4313 84.5975 26.4646 84.6002C26.469 84.6005 26.4737 84.6009 26.4787 84.6013C26.5587 84.6076 26.7107 84.6195 26.8688 84.6459C27.0441 84.6752 27.2898 84.7312 27.5528 84.8565C27.5519 84.8561 27.5515 84.8559 27.5515 84.8558C27.5516 84.8556 27.5951 84.8733 27.737 84.9091C27.7858 84.9214 27.826 84.931 27.8739 84.9425C27.9065 84.9504 27.9427 84.959 27.9876 84.97C28.0819 84.993 28.1997 85.0226 28.3218 85.059L28.0267 86.0384L28.3218 85.059C28.5419 85.1246 28.7507 85.2032 28.9185 85.2683C28.9809 85.2925 29.0362 85.3142 29.0874 85.3343C29.191 85.375 29.278 85.4092 29.3746 85.4446C29.508 85.4935 29.6048 85.5237 29.6798 85.5417C29.7457 85.5575 29.7742 85.5587 29.7748 85.5588C29.7748 85.5588 29.7745 85.5588 29.7737 85.5588C30.3639 85.5588 30.8103 85.5665 31.1303 85.5819C31.2874 85.5895 31.4408 85.6001 31.577 85.6169C31.644 85.6252 31.733 85.638 31.8293 85.6595L31.8313 85.6599C31.8924 85.6736 32.111 85.7223 32.3459 85.8564C32.4602 85.9217 32.7345 86.0932 32.9453 86.4324C33.2089 86.8568 33.2808 87.4012 33.0846 87.9093C32.9276 88.3159 32.6575 88.5455 32.544 88.6335C32.41 88.7373 32.2876 88.8001 32.2199 88.8322C32 88.9365 31.7788 88.9831 31.7076 88.9981L31.7021 88.9993C31.4897 89.0443 31.219 89.0821 30.9618 89.1137C29.9337 89.2398 28.1812 89.3726 27.7302 89.3726C27.5782 89.3726 27.3865 89.403 27.0236 89.4766C26.9988 89.4816 26.9727 89.4869 26.9454 89.4925C26.6393 89.5552 26.1864 89.648 25.7253 89.667C25.555 89.674 25.3406 89.6878 25.1049 89.7029C24.6465 89.7324 24.1078 89.767 23.6586 89.767C23.5439 89.767 23.3692 89.7979 23.0031 89.9053C22.9577 89.9187 22.9063 89.9342 22.85 89.9513C22.5456 90.0433 22.097 90.1791 21.6599 90.246C21.5652 90.2605 21.4676 90.2711 21.3912 90.2788C21.3361 90.2844 21.273 90.2903 21.2139 90.2959C21.1902 90.2981 21.1672 90.3003 21.1455 90.3024C20.9785 90.3183 20.8263 90.3342 20.6884 90.3553C20.648 90.3615 20.6121 90.3676 20.5804 90.3736C20.4888 90.4486 20.4039 90.5049 20.3417 90.5435C20.299 90.5699 20.2592 90.5928 20.2261 90.6112C20.1281 90.7583 20.0337 90.9186 19.9387 91.0968C19.6528 91.6332 19.4411 92.0826 19.3682 92.4344C19.2975 92.7753 19.1687 93.246 18.9747 93.6716C18.9746 93.6764 18.9744 93.6814 18.9743 93.6867C18.9739 93.7015 18.9735 93.7189 18.9728 93.7422C18.9715 93.7899 18.9695 93.854 18.9651 93.924C18.9567 94.0613 18.9373 94.2639 18.8768 94.4908C18.7515 94.9613 18.6618 95.5156 18.6618 95.9442C18.6618 96.2084 18.6937 96.4888 18.7417 96.884L18.7461 96.9203C18.7883 97.2673 18.8428 97.7148 18.8456 98.1794C18.8458 98.1807 18.846 98.1821 18.8463 98.1836C18.8513 98.2127 18.8608 98.2573 18.8761 98.3149C18.908 98.4349 18.9487 98.5504 18.9751 98.614L18.4631 98.8239L18.9751 98.614C19.093 98.8983 19.1287 99.1636 19.1426 99.3333C19.1573 99.5136 19.154 99.6802 19.1487 99.8025C19.1442 99.9064 19.1364 100.012 19.1311 100.084C19.1302 100.096 19.1294 100.107 19.1287 100.117C19.1257 100.158 19.1238 100.186 19.1227 100.209C19.1214 100.232 19.1216 100.238 19.1216 100.233C19.1216 100.628 19.0943 100.991 19.0719 101.288L19.071 101.301C19.0473 101.616 19.0296 101.858 19.0296 102.106C19.0296 102.623 18.9157 103.468 18.8225 104.017C18.7778 104.281 18.7166 104.607 18.6455 104.837L18.6447 104.84C18.6304 104.886 18.5815 105.044 18.4873 105.214L18.4847 105.218C18.4523 105.277 18.2947 105.563 17.9658 105.789C17.7668 105.926 17.4107 106.104 16.9373 106.083C16.4427 106.061 16.0746 105.833 15.852 105.621C15.5097 105.295 15.4089 104.917 15.3909 104.85C15.3903 104.848 15.3898 104.846 15.3893 104.844C15.3553 104.72 15.3418 104.615 15.3359 104.561C15.3233 104.448 15.3217 104.343 15.3217 104.275V102.204C15.3217 102.018 15.2857 101.797 15.2103 101.382L15.2043 101.349C15.1394 100.992 15.0458 100.478 15.0458 99.9369C15.0458 99.8307 15.0521 99.7232 15.0577 99.6418C15.0636 99.5548 15.0715 99.4601 15.0789 99.372L15.0819 99.3363C15.0966 99.1631 15.1105 98.9974 15.1193 98.8366C15.1249 98.733 15.1272 98.6504 15.1273 98.5871C15.0417 98.3933 14.9985 98.2147 14.9748 98.0796C14.9351 97.8534 14.9336 97.6503 14.9364 97.5205C14.9386 97.4141 14.9459 97.3002 14.95 97.2357C14.9507 97.2238 14.9514 97.2136 14.9519 97.2054C14.9539 97.1722 14.9547 97.1532 14.955 97.1444C14.9433 96.958 14.8968 96.673 14.8545 96.5257C14.8154 96.3894 14.7933 96.2646 14.7797 96.1683C14.7658 96.0699 14.7576 95.978 14.7522 95.9026C14.7468 95.8269 14.7432 95.7537 14.7404 95.6951C14.7396 95.6777 14.7389 95.6618 14.7382 95.6469C14.7363 95.6062 14.7348 95.5733 14.7329 95.5386C14.7328 95.5356 14.7326 95.5327 14.7324 95.5298C14.6236 95.2845 14.591 95.064 14.5792 94.93C14.5745 94.8773 14.5723 94.8265 14.5716 94.7795C14.5058 94.6422 14.4325 94.5041 14.3426 94.3461C13.8886 93.5479 14.1714 92.5348 14.9743 92.0834C15.3195 91.8893 15.7048 91.8307 16.0679 91.8904C16.0782 91.849 16.088 91.8066 16.0968 91.7641C16.2784 90.888 16.7159 90.0512 16.9874 89.5417C17.1819 89.1769 17.4043 88.8089 17.6736 88.4481C17.8474 88.2151 18.0405 88.0569 18.1857 87.9549C18.2979 87.8762 18.4047 87.8153 18.4748 87.7772C18.8071 87.4704 19.1761 87.3289 19.362 87.2649C19.654 87.1642 19.9516 87.108 20.181 87.0729C20.3559 87.0462 20.5276 87.0266 20.6755 87.0115C20.5544 86.9769 20.4373 86.9415 20.3252 86.9059C18.9952 86.4834 17.4838 85.4638 16.9119 83.692C16.8713 83.6383 16.8135 83.5591 16.7583 83.4715C16.6764 83.3419 16.5591 83.1318 16.486 82.8576C16.4303 82.6487 16.4095 82.4641 16.3994 82.332C16.3944 82.2665 16.3917 82.2071 16.3899 82.1644C16.3894 82.1511 16.3889 82.1402 16.3886 82.1307C16.2801 81.8721 16.2229 81.6198 16.1889 81.4408C16.1423 81.1947 16.1143 80.9423 16.0964 80.7181C16.0606 80.269 16.0573 79.8269 16.0573 79.5788C16.0573 79.1057 15.9739 78.6261 15.8552 77.9873C15.8511 77.965 15.8469 77.9424 15.8426 77.9195C15.7347 77.3397 15.5976 76.6029 15.5976 75.8325C15.5976 74.5921 15.5044 73.4575 15.2692 72.3228C15.2591 72.2741 15.2479 72.2212 15.236 72.1646C15.1289 71.6581 14.9599 70.8584 14.954 70.1519C14.9534 70.1475 14.9527 70.142 14.9517 70.1354C14.9457 70.0954 14.9354 70.0389 14.9202 69.9677C14.8898 69.825 14.8509 69.6733 14.8206 69.5594C14.6789 69.028 14.678 68.5322 14.678 68.1921C14.678 67.275 15.4257 66.5316 16.3481 66.5316ZM16.3835 82.0348C16.3836 82.0347 16.3839 82.0375 16.3844 82.0435C16.3837 82.0379 16.3835 82.0349 16.3835 82.0348ZM31.0069 85.7511C31.0062 85.7513 31.0056 85.7514 31.0049 85.7515C31.0323 85.7443 31.0367 85.7448 31.0069 85.7511ZM18.6619 104.282C18.6619 104.282 18.6618 104.28 18.6618 104.277L18.6619 104.282ZM15.1231 98.4659C15.1231 98.4659 15.1232 98.4668 15.1234 98.4687C15.1232 98.4669 15.1231 98.4659 15.1231 98.4659ZM19.4866 80.894C19.4866 80.894 19.4863 80.893 19.4857 80.8909C19.4863 80.8929 19.4866 80.894 19.4866 80.894Z" fill="black"/>
</svg>
