<svg width="29" height="40" viewBox="0 0 29 40" fill="none" xmlns="http://www.w3.org/2000/svg">
<path d="M14.8085 1.23413L15.2598 12.9153C15.4027 16.6137 18.3076 19.6113 21.9998 19.8705L29 20.3618L21.9998 20.8531C18.3076 21.1123 15.4027 24.1099 15.2598 27.8083L14.8085 39.4894L14.3572 27.8083C14.2143 24.1099 11.3095 21.1123 7.61725 20.8531L0.617035 20.3618L7.61725 19.8705C11.3095 19.6113 14.2143 16.6137 14.3572 12.9153L14.8085 1.23413Z" fill="black"/>
<path fill-rule="evenodd" clip-rule="evenodd" d="M14.8085 1.23413L14.3572 12.9153C14.3568 12.9269 14.3563 12.9386 14.3558 12.9502C14.2971 14.3032 13.8687 15.5613 13.1677 16.6244C12.6147 17.4629 11.8921 18.1801 11.0475 18.7269C10.0669 19.3618 8.92173 19.7668 7.68659 19.8653C7.6635 19.8671 7.64039 19.8688 7.61725 19.8705L0.617035 20.3618L7.61725 20.8531C7.64039 20.8547 7.6635 20.8565 7.68659 20.8583C8.92173 20.9567 10.0669 21.3618 11.0475 21.9967C11.8921 22.5435 12.6147 23.2607 13.1677 24.0992C13.8687 25.1623 14.2971 26.4204 14.3558 27.7734C14.3563 27.785 14.3568 27.7967 14.3572 27.8083L14.8085 39.4894L15.2598 27.8083C15.2603 27.7967 15.2608 27.785 15.2613 27.7734C15.32 26.4204 15.7483 25.1623 16.4494 24.0992C17.0023 23.2607 17.7249 22.5435 18.5695 21.9967C19.5502 21.3618 20.6953 20.9567 21.9305 20.8583C21.9535 20.8565 21.9767 20.8547 21.9998 20.8531L29 20.3618L21.9998 19.8705C21.9767 19.8688 21.9535 19.8671 21.9305 19.8653C20.6953 19.7668 19.5502 19.3618 18.5695 18.7269C17.7249 18.1801 17.0023 17.4629 16.4494 16.6244C15.7483 15.5613 15.32 14.3032 15.2613 12.9502C15.2608 12.9386 15.2603 12.9269 15.2598 12.9153L14.8085 1.23413ZM14.8085 19.2562C14.4675 19.6525 14.0963 20.0222 13.6984 20.3618C14.0963 20.7014 14.4675 21.0711 14.8085 21.4674C15.1495 21.0711 15.5207 20.7014 15.9186 20.3618C15.5207 20.0222 15.1495 19.6525 14.8085 19.2562Z" fill="black"/>
<path fill-rule="evenodd" clip-rule="evenodd" d="M13.9587 0C14.7688 0 15.4255 0.635691 15.4255 1.41986C15.4255 3.05576 15.4052 4.69466 15.385 6.32197L15.385 6.32284C15.3648 7.95274 15.3448 9.57098 15.3448 11.1801C15.3448 11.7203 15.2997 12.2357 15.2605 12.6853L15.2588 12.7044C15.2176 13.1762 15.1832 13.5777 15.1832 13.9807C15.1832 14.0347 15.1833 14.0902 15.1834 14.147C15.1846 14.8911 15.1861 15.8613 14.996 16.7542C14.9694 16.8794 14.9449 17.0612 14.939 17.1729C14.9149 17.626 14.7179 17.9644 14.6507 18.0797L14.6475 18.0852C14.6391 18.0997 14.6291 18.1166 14.6206 18.1309C14.5022 18.5092 14.3357 18.7961 14.1475 19.0426C14.0672 19.1477 13.9831 19.2448 13.9272 19.3092C13.9223 19.3149 13.9176 19.3204 13.9131 19.3255C13.8503 19.3981 13.8068 19.4493 13.7637 19.5055C13.4358 19.9332 12.9971 20.1273 12.8391 20.1972C12.8353 20.1989 12.8315 20.2006 12.828 20.2021C12.7725 20.2267 12.742 20.2399 12.7218 20.2486C12.7143 20.2518 12.7082 20.2544 12.7028 20.2568C12.5249 20.3913 12.3508 20.4765 12.2466 20.5243C12.1494 20.5689 12.0365 20.614 11.9739 20.6391C11.9721 20.6398 11.9703 20.6405 11.9686 20.6412C12.2403 20.7957 12.5081 20.9825 12.7765 21.2067C13.1514 21.5198 13.3973 21.9092 13.5276 22.1155L13.5321 22.1226C13.5541 22.1574 13.5734 22.1882 13.5909 22.2161C13.6386 22.2921 13.6727 22.3464 13.7109 22.4029C13.7336 22.4363 13.7508 22.4599 13.764 22.4768C13.777 22.4936 13.7831 22.4999 13.7824 22.4991C14.0744 22.804 14.2845 23.1887 14.4176 23.4738C14.5596 23.7778 14.6864 24.1262 14.7537 24.4426C14.7533 24.4407 14.7536 24.4418 14.7548 24.4466C14.7575 24.4576 14.7651 24.4882 14.7804 24.5468C14.7994 24.6194 14.8244 24.713 14.854 24.823C14.8728 24.8928 14.8934 24.9691 14.915 25.0493C14.9604 25.2173 15.0105 25.4027 15.0585 25.5826C15.1291 25.8473 15.1998 26.1178 15.25 26.3258C15.274 26.4257 15.2989 26.534 15.3161 26.627C15.3231 26.6646 15.3381 26.7482 15.3449 26.8428L15.345 26.8446C15.3474 26.8784 15.3568 27.0092 15.3318 27.1694C15.3211 27.238 15.2853 27.4511 15.1427 27.6845C14.9738 27.9608 14.5612 28.383 13.878 28.383C13.1027 28.383 12.468 27.8008 12.4148 27.0635C12.4093 27.0394 12.4022 27.0088 12.393 26.9708C12.3514 26.798 12.2882 26.5556 12.2179 26.2923C12.1812 26.1546 12.1404 26.0035 12.1001 25.8541C12.0014 25.4888 11.9058 25.1345 11.8805 25.0157C11.8673 24.9536 11.8213 24.808 11.7444 24.6434C11.7086 24.5668 11.6741 24.5033 11.6455 24.4572C11.6319 24.4353 11.6227 24.4224 11.6186 24.4167C11.4665 24.2558 11.3473 24.0922 11.2586 23.9613C11.1891 23.8588 11.1184 23.746 11.0652 23.6611C11.052 23.6401 11.0399 23.6207 11.0291 23.6037C10.9011 23.401 10.8579 23.3558 10.8584 23.3554C10.8585 23.3553 10.8591 23.3559 10.8603 23.3569C10.4791 23.0385 10.1932 22.9286 9.83464 22.8707C9.43742 22.8065 8.98867 22.8076 8.23235 22.8094C8.09485 22.8098 7.94719 22.8101 7.78782 22.8101C6.7327 22.8101 5.6123 22.6523 4.6188 22.5124L4.56439 22.5048C3.5072 22.356 2.58523 22.229 1.76316 22.229C1.65064 22.229 1.5265 22.2262 1.40782 22.2146C1.35058 22.209 1.25927 22.1981 1.15515 22.1738C1.15374 22.1734 1.15212 22.1731 1.15031 22.1726C1.08993 22.1587 0.807887 22.0936 0.537593 21.8775C0.37493 21.7474 0.124536 21.4878 0.0329992 21.0737C-0.0633749 20.6377 0.0683303 20.2706 0.209596 20.0418C0.424308 19.6939 0.733424 19.5357 0.787137 19.5082C0.789106 19.5072 0.790732 19.5063 0.791997 19.5057C0.964779 19.4156 1.13122 19.371 1.1851 19.3566L1.18585 19.3564C1.44482 19.287 1.8646 19.2207 2.16699 19.2207H3.45923C3.80229 19.2207 4.18042 19.1817 4.64061 19.1252C4.7036 19.1175 4.76869 19.1094 4.83554 19.101C5.22613 19.0522 5.67667 18.9959 6.11754 18.9703C6.37872 18.9552 6.6548 18.9027 7.05839 18.8259C7.08873 18.8201 7.11979 18.8142 7.15162 18.8082C7.55842 18.731 8.10209 18.6306 8.6686 18.6306C8.68471 18.6306 8.74335 18.6267 8.87517 18.593C8.93839 18.5768 9.00787 18.5566 9.09237 18.5309C9.11628 18.5236 9.14694 18.5141 9.18051 18.5038C9.2424 18.4847 9.3142 18.4625 9.37193 18.4453C9.52856 18.3986 9.66997 18.3785 9.76539 18.3682C9.8652 18.3575 9.95809 18.3532 10.0284 18.3509C10.0881 18.3489 10.1506 18.348 10.1983 18.3472C10.2009 18.3472 10.2034 18.3472 10.2058 18.3471C10.2815 18.2937 10.3508 18.2523 10.4067 18.221C10.5647 18.1324 10.7207 18.0684 10.8076 18.0331C10.8466 18.0173 10.8758 18.0056 10.8987 17.9964C10.923 17.9866 10.9403 17.9796 10.9548 17.9736C11.1026 17.8638 11.2426 17.7888 11.3429 17.7395C11.4051 17.7089 11.4625 17.6833 11.5049 17.6646C11.5188 17.6585 11.5295 17.6539 11.5383 17.6501C11.586 17.5925 11.6291 17.5427 11.6642 17.5021C11.737 17.418 11.7651 17.3852 11.7883 17.3548C11.7971 17.3433 11.8011 17.3372 11.8026 17.3349L11.8037 17.3332L11.8037 17.3331C11.8037 17.3331 11.8037 17.3331 11.8037 17.3331L11.8038 17.3329L11.8043 17.3319L11.8067 17.326C11.8089 17.3201 11.8131 17.3083 11.8184 17.2889C11.871 17.0967 11.9474 16.9459 11.9944 16.8594C12.0058 16.8385 12.0169 16.8188 12.0271 16.801C12.0485 16.5901 12.0832 16.3667 12.1228 16.181C12.2499 15.5841 12.2498 14.8865 12.2496 14.0576C12.2496 14.0321 12.2496 14.0065 12.2496 13.9807C12.2496 13.449 12.2942 12.9387 12.3332 12.4923L12.3356 12.4652C12.3767 11.9945 12.4112 11.5893 12.4112 11.1801C12.4112 9.55391 12.4314 7.92145 12.4515 6.29729L12.4516 6.2879C12.4719 4.65775 12.4919 3.03588 12.4919 1.41986C12.4919 0.635691 13.1486 0 13.9587 0ZM12.0972 16.6815C12.0973 16.6812 12.097 16.6819 12.0961 16.6836C12.0967 16.6824 12.097 16.6817 12.0972 16.6815ZM10.9992 17.9538C10.9994 17.9538 10.997 17.9551 10.9916 17.9575C10.9964 17.955 10.999 17.9538 10.9992 17.9538ZM12.4284 27.1272C12.4295 27.1333 12.4292 27.1322 12.4281 27.1255C12.4282 27.1261 12.4283 27.1267 12.4284 27.1272ZM13.1131 25.7514C13.3138 25.6305 13.5679 25.5433 13.878 25.5433C13.5977 25.5433 13.3358 25.6194 13.1131 25.7514Z" fill="black"/>
<path fill-rule="evenodd" clip-rule="evenodd" d="M14.2816 3.08521C15.0873 3.08521 15.7405 3.73464 15.7405 4.53575C15.7405 4.83885 15.7519 4.92776 15.7677 4.98718C15.7985 5.10271 15.8471 5.29014 15.8888 5.48585C15.9229 5.64588 15.9815 5.93934 15.9815 6.21516C15.9815 6.52106 16.0681 6.93825 16.1787 7.47096C16.1847 7.49987 16.1908 7.52913 16.1969 7.55872C16.451 8.78438 16.5438 9.97776 16.5438 11.2103C16.5438 11.5977 16.6153 11.9998 16.7204 12.5659L16.7261 12.5967C16.8225 13.1155 16.9455 13.7772 16.9455 14.483C16.9455 14.6823 16.9486 14.975 16.9705 15.2487C16.9814 15.3859 16.9954 15.4952 17.01 15.5724C17.0127 15.5869 17.0152 15.5986 17.0172 15.6076C17.1943 15.9819 17.2194 16.327 17.228 16.4952C17.249 16.5247 17.2711 16.5571 17.2926 16.5905C17.3618 16.6982 17.4694 16.8844 17.535 17.1306C17.6463 17.5481 18.0419 17.9291 18.644 18.1204L18.2 19.5021L18.644 18.1204C19.1323 18.2755 19.6744 18.3941 20.0724 18.4178C20.4514 18.4404 20.8134 18.5181 21.0586 18.5707C21.0743 18.574 21.0896 18.5773 21.1044 18.5805C21.3911 18.6417 21.5426 18.6695 21.6701 18.6748C21.7079 18.6764 21.7482 18.6769 21.8136 18.6779C21.8288 18.6781 21.8454 18.6783 21.8635 18.6786C21.9479 18.6799 22.061 18.6819 22.1804 18.6891C22.3693 18.7005 22.7055 18.7294 23.0528 18.8641C23.0697 18.8656 23.0902 18.8673 23.1193 18.8696C23.1231 18.8699 23.1272 18.8702 23.1315 18.8706C23.2014 18.8761 23.3342 18.8865 23.4723 18.9096C23.6255 18.9352 23.8401 18.984 24.0699 19.0935C24.0691 19.0932 24.0687 19.093 24.0687 19.0929C24.0688 19.0927 24.1068 19.1082 24.2308 19.1395C24.2735 19.1502 24.3086 19.1586 24.3504 19.1687C24.3789 19.1755 24.4105 19.1831 24.4497 19.1927C24.5321 19.2128 24.635 19.2387 24.7416 19.2704L24.4839 20.126L24.7416 19.2704C24.9339 19.3277 25.1163 19.3964 25.2629 19.4533C25.3175 19.4744 25.3658 19.4934 25.4105 19.511C25.501 19.5465 25.577 19.5763 25.6614 19.6073C25.7779 19.65 25.8625 19.6764 25.928 19.6921C25.9856 19.7059 26.0105 19.707 26.011 19.707C26.011 19.707 26.0107 19.707 26.01 19.707C26.5256 19.707 26.9156 19.7138 27.1951 19.7272C27.3324 19.7339 27.4664 19.7431 27.5854 19.7578C27.6439 19.765 27.7217 19.7763 27.8058 19.795L27.8075 19.7954C27.8609 19.8073 28.0519 19.8498 28.2571 19.967C28.3569 20.0241 28.5966 20.1739 28.7807 20.4702C29.011 20.8409 29.0737 21.3165 28.9024 21.7604C28.7652 22.1156 28.5293 22.3162 28.4301 22.393C28.313 22.4837 28.2061 22.5386 28.147 22.5666C27.9549 22.6577 27.7616 22.6985 27.6995 22.7116L27.6947 22.7126C27.5091 22.7519 27.2726 22.785 27.048 22.8125C26.1498 22.9227 24.6189 23.0388 24.2248 23.0388C24.0921 23.0388 23.9246 23.0653 23.6076 23.1295C23.5859 23.1339 23.5631 23.1386 23.5393 23.1435C23.2719 23.1982 22.8762 23.2793 22.4734 23.2959C22.3247 23.302 22.1373 23.314 21.9315 23.3273C21.5309 23.353 21.0604 23.3832 20.6679 23.3832C20.5678 23.3832 20.4151 23.4103 20.0953 23.5041C20.0556 23.5158 20.0108 23.5293 19.9616 23.5442C19.6957 23.6247 19.3038 23.7433 18.9219 23.8017C18.8392 23.8144 18.754 23.8236 18.6872 23.8304C18.639 23.8352 18.584 23.8404 18.5323 23.8453C18.5116 23.8472 18.4915 23.8491 18.4726 23.8509C18.3267 23.8648 18.1937 23.8788 18.0733 23.8972C18.038 23.9026 18.0066 23.908 17.9789 23.9132C17.8989 23.9787 17.8247 24.0279 17.7703 24.0616C17.7331 24.0846 17.6983 24.1047 17.6694 24.1207C17.5838 24.2492 17.5013 24.3893 17.4183 24.5449C17.1686 25.0135 16.9836 25.4061 16.9199 25.7135C16.8582 26.0113 16.7457 26.4225 16.5762 26.7943C16.5761 26.7985 16.576 26.8028 16.5758 26.8074C16.5755 26.8204 16.5751 26.8356 16.5746 26.8559C16.5734 26.8976 16.5716 26.9536 16.5678 27.0148C16.5604 27.1347 16.5435 27.3117 16.4907 27.5099C16.3812 27.9209 16.3028 28.4052 16.3028 28.7795C16.3028 29.0104 16.3307 29.2553 16.3727 29.6005L16.3765 29.6323C16.4134 29.9354 16.4609 30.3263 16.4634 30.7322C16.4636 30.7333 16.4638 30.7345 16.464 30.7358C16.4684 30.7612 16.4767 30.8002 16.4901 30.8506C16.518 30.9554 16.5535 31.0563 16.5766 31.1119L16.1293 31.2952L16.5766 31.1119C16.6795 31.3602 16.7107 31.592 16.7228 31.7402C16.7357 31.8977 16.7328 32.0433 16.7282 32.1501C16.7242 32.2408 16.7175 32.3331 16.7128 32.3964C16.712 32.4068 16.7113 32.4164 16.7107 32.4251C16.7081 32.4608 16.7065 32.4855 16.7054 32.5053C16.7044 32.5255 16.7045 32.5306 16.7045 32.5259C16.7045 32.8714 16.6807 33.1882 16.6611 33.448L16.6603 33.4595C16.6396 33.7347 16.6242 33.946 16.6242 34.1622C16.6242 34.6144 16.5246 35.3521 16.4432 35.8322C16.4042 36.062 16.3507 36.3477 16.2886 36.5484L16.2879 36.5505C16.2754 36.591 16.2327 36.7291 16.1504 36.8772L16.1482 36.8813C16.1198 36.9327 15.9821 37.182 15.6949 37.3795C15.521 37.4991 15.2099 37.6552 14.7964 37.6369C14.3643 37.6178 14.0427 37.4187 13.8483 37.2334C13.5492 36.9485 13.4611 36.6183 13.4454 36.5595C13.4449 36.5575 13.4444 36.5558 13.4441 36.5544C13.4143 36.4456 13.4026 36.3541 13.3974 36.3074C13.3864 36.2082 13.385 36.1167 13.385 36.0569V34.2484C13.385 34.0859 13.3535 33.8928 13.2877 33.5303L13.2825 33.5015C13.2258 33.1896 13.144 32.7399 13.144 32.2675C13.144 32.1747 13.1495 32.0808 13.1543 32.0098C13.1595 31.9337 13.1664 31.851 13.1729 31.774L13.1755 31.7429C13.1883 31.5915 13.2005 31.4468 13.2082 31.3063C13.2131 31.2158 13.2151 31.1436 13.2151 31.0884C13.1404 30.9191 13.1026 30.763 13.0819 30.645C13.0473 30.4474 13.046 30.27 13.0484 30.1566C13.0503 30.0636 13.0567 29.9642 13.0602 29.9078C13.0609 29.8974 13.0615 29.8885 13.0619 29.8813C13.0637 29.8523 13.0643 29.8357 13.0646 29.8281C13.0544 29.6652 13.0138 29.4162 12.9769 29.2876C12.9427 29.1685 12.9234 29.0595 12.9115 28.9753C12.8994 28.8894 12.8922 28.8091 12.8875 28.7432C12.8827 28.6771 12.8796 28.6132 12.8772 28.5619C12.8765 28.5467 12.8758 28.5328 12.8753 28.5198C12.8736 28.4843 12.8723 28.4556 12.8707 28.4253C12.8705 28.4226 12.8704 28.42 12.8702 28.4175C12.7751 28.2032 12.7466 28.0106 12.7363 27.8936C12.7323 27.8475 12.7303 27.8031 12.7297 27.7621C12.6722 27.6421 12.6082 27.5215 12.5297 27.3835C12.1331 26.6862 12.3801 25.8012 13.0815 25.4068C13.3831 25.2373 13.7196 25.186 14.0368 25.2382C14.0459 25.202 14.0544 25.165 14.0621 25.1279C14.2208 24.3626 14.6029 23.6315 14.8401 23.1865C15.01 22.8677 15.2043 22.5463 15.4395 22.2311C15.5914 22.0275 15.7601 21.8893 15.8869 21.8003C15.9849 21.7315 16.0782 21.6783 16.1395 21.645C16.4298 21.377 16.7522 21.2534 16.9145 21.1974C17.1696 21.1095 17.4296 21.0604 17.63 21.0298C17.7828 21.0064 17.9328 20.9893 18.062 20.9761C17.9562 20.9459 17.8539 20.9149 17.756 20.8838C16.5941 20.5148 15.2738 19.624 14.7741 18.0762C14.7387 18.0293 14.6882 17.9601 14.6399 17.8836C14.5685 17.7704 14.4659 17.5868 14.4021 17.3473C14.3535 17.1648 14.3352 17.0036 14.3265 16.8882C14.3221 16.8309 14.3197 16.7791 14.3182 16.7417C14.3177 16.7302 14.3173 16.7206 14.317 16.7123C14.2222 16.4864 14.1722 16.266 14.1426 16.1096C14.1019 15.8946 14.0774 15.6741 14.0618 15.4783C14.0304 15.0859 14.0276 14.6997 14.0276 14.483C14.0276 14.0697 13.9547 13.6507 13.8511 13.0927C13.8474 13.0732 13.8438 13.0535 13.8401 13.0335C13.7458 12.5269 13.626 11.8833 13.626 11.2103C13.626 10.1267 13.5446 9.13554 13.3391 8.14429C13.3303 8.10173 13.3206 8.05551 13.3101 8.00609C13.2166 7.56364 13.0689 6.865 13.0638 6.24782C13.0633 6.24397 13.0626 6.23919 13.0618 6.23343C13.0565 6.19844 13.0475 6.14912 13.0342 6.08692C13.0077 5.96226 12.9737 5.82969 12.9472 5.73024C12.8235 5.26601 12.8227 4.83287 12.8227 4.53575C12.8227 3.73464 13.4759 3.08521 14.2816 3.08521ZM14.3126 16.6285C14.3126 16.6284 14.313 16.6309 14.3134 16.6361C14.3127 16.6313 14.3125 16.6286 14.3126 16.6285ZM27.0873 19.8751C27.0868 19.8752 27.0862 19.8753 27.0856 19.8754C27.1096 19.8691 27.1134 19.8695 27.0873 19.8751ZM16.3029 36.0633C16.3029 36.0633 16.3029 36.0619 16.3028 36.0589L16.3029 36.0633ZM13.2115 30.9825C13.2115 30.9824 13.2116 30.9833 13.2118 30.985C13.2115 30.9833 13.2115 30.9825 13.2115 30.9825ZM17.0234 15.632C17.0234 15.632 17.0231 15.6311 17.0226 15.6292C17.0231 15.631 17.0234 15.6319 17.0234 15.632Z" fill="black"/>
</svg>
