<svg width="32" height="23" viewBox="0 0 32 23" fill="none" xmlns="http://www.w3.org/2000/svg">
<path d="M0 13.7197C0 18.8795 3.02458 22.3396 7.50095 22.3396C11.7353 22.3396 14.5785 19.7901 14.5785 15.9657C14.5785 12.2021 11.7958 9.71328 7.56144 9.71328C6.65406 9.71328 5.08129 9.89539 3.87146 10.9274C4.2344 6.49599 8.04537 3.64292 15.2439 3.64292V0.000710284C7.92439 -0.0599925 0 3.76433 0 13.7197ZM32 0.000710284C24.6805 -0.0599925 16.7561 3.76433 16.7561 13.7197C16.7561 18.8795 19.7807 22.3396 24.2571 22.3396C28.4915 22.3396 31.3346 19.7901 31.3346 15.9657C31.3346 12.2021 28.552 9.71328 24.3176 9.71328C23.4102 9.71328 21.8374 9.89539 20.6276 10.9274C20.9905 6.49599 24.8015 3.64292 32 3.64292V0.000710284Z" fill="#727272"/>
</svg>
