<svg width="92" height="93" viewBox="0 0 92 93" fill="none" xmlns="http://www.w3.org/2000/svg">
<path d="M54.5766 13.1196L59.3097 20.4443L68.0289 20.255L69.117 28.9098L77.0575 32.5222L74.28 40.7899L79.8645 47.4914L73.7771 53.7365L75.9019 62.1948L67.7062 65.1824L65.9529 73.7262L57.2725 72.8592L51.9826 79.7951L44.5394 75.25L36.7666 79.2043L32.0305 71.8788L23.3114 72.0681L22.2232 63.4133L14.2857 59.8017L17.0602 51.5332L11.4757 44.8317L17.5631 38.5866L15.4383 30.1283L23.6341 27.1407L25.3903 18.5977L34.0677 19.4639L39.3576 12.528L46.8008 17.0731L54.5766 13.1196Z" fill="#F6D051"/>
<path d="M39.3732 60.0642C39.9328 60.3327 40.3777 60.6649 40.7065 61.0637C41.0353 61.4625 41.257 61.9269 41.3696 62.4576L40.2453 62.962C40.1479 62.5101 39.9869 62.1335 39.7582 61.8336C39.5315 61.5329 39.2177 61.2882 38.8208 61.0977C38.5583 60.9722 38.3263 60.9035 38.1227 60.8923C37.9191 60.8811 37.7503 60.9133 37.6173 60.9909C37.4842 61.0685 37.3855 61.1755 37.3178 61.3156C37.2359 61.4868 37.2308 61.6624 37.3072 61.8429C37.3815 62.0241 37.5603 62.2275 37.8395 62.4547L38.8603 63.2699C39.4032 63.7018 39.7409 64.1184 39.8735 64.5197C40.0061 64.921 39.9682 65.3433 39.7576 65.7806C39.5614 66.1937 39.2842 66.4961 38.9316 66.6904C38.5791 66.8847 38.1761 66.9687 37.7208 66.943C37.2675 66.9166 36.7947 66.7872 36.3037 66.5519C35.8757 66.3471 35.507 66.1063 35.1984 65.8314C34.8919 65.5557 34.641 65.2594 34.45 64.9408C34.2589 64.6223 34.1268 64.2982 34.0558 63.9679L35.2075 63.4299C35.2543 63.7011 35.3441 63.9681 35.4802 64.2273C35.6164 64.4865 35.7979 64.7288 36.0232 64.9501C36.2486 65.1715 36.5129 65.3525 36.8109 65.4977C37.0649 65.6192 37.2963 65.6928 37.5025 65.7171C37.7086 65.7415 37.8832 65.7188 38.0271 65.6513C38.171 65.5838 38.2813 65.4701 38.3559 65.311C38.4352 65.1454 38.4484 64.9786 38.3946 64.8085C38.3408 64.6385 38.1848 64.4523 37.9219 64.2497L36.8075 63.3659C36.4896 63.1039 36.2351 62.8418 36.0444 62.5747C35.8537 62.3076 35.7462 62.0308 35.7211 61.7421C35.696 61.4534 35.7554 61.1521 35.9049 60.8408C36.085 60.4665 36.3439 60.178 36.6856 59.9736C37.0274 59.7692 37.4278 59.6721 37.8873 59.6775C38.3469 59.6828 38.8405 59.8115 39.3711 60.065L39.3732 60.0642Z" fill="white"/>
<path d="M46.5222 61.4575C47.1966 61.4158 47.7864 61.5253 48.2927 61.7831C48.7991 62.0408 49.2013 62.4288 49.4994 62.947C49.7974 63.4651 49.9684 64.0962 50.0152 64.8414C50.0621 65.5866 49.9671 66.2343 49.7373 66.7843C49.5054 67.335 49.1526 67.7687 48.6817 68.0867C48.2109 68.4048 47.6372 68.585 46.9628 68.6266C46.2884 68.6683 45.6966 68.5595 45.1861 68.3033C44.6748 68.045 44.2726 67.6571 43.9754 67.141C43.6773 66.6228 43.5063 65.9918 43.4595 65.2465C43.4126 64.5013 43.5056 63.8544 43.7375 63.3037C43.9694 62.7529 44.3221 62.3192 44.7971 61.9996C45.27 61.6809 45.8465 61.5019 46.5209 61.4603L46.5222 61.4575ZM46.596 62.6479C46.2174 62.6712 45.8976 62.7829 45.6385 62.9824C45.3773 63.1827 45.1885 63.464 45.0694 63.832C44.9503 64.2001 44.9067 64.6386 44.9381 65.1526C44.9694 65.6666 45.0682 66.0968 45.2311 66.447C45.394 66.7971 45.6164 67.0547 45.9003 67.2191C46.183 67.3863 46.5139 67.4558 46.8924 67.4326C47.2709 67.4093 47.5887 67.2983 47.8458 67.0996C48.1028 66.9009 48.2909 66.6175 48.41 66.2495C48.529 65.8814 48.5726 65.4429 48.5413 64.9289C48.51 64.4149 48.4112 63.9847 48.2483 63.6345C48.0854 63.2844 47.863 63.0268 47.5831 62.8608C47.3033 62.6949 46.9737 62.6226 46.5952 62.6458L46.596 62.6479Z" fill="white"/>
<path d="M53.7893 58.9429C54.3463 58.5601 54.9077 58.3468 55.475 58.3074C56.0423 58.268 56.5859 58.3923 57.1087 58.6815C57.6314 58.9707 58.1047 59.4238 58.5271 60.0366C58.9502 60.6514 59.2045 61.2539 59.2899 61.844C59.3753 62.4341 59.2974 62.9887 59.0594 63.5041C58.8194 64.0203 58.4225 64.4681 57.8662 64.853C57.3099 65.2379 56.7478 65.4491 56.1771 65.4921C55.6065 65.5351 55.0608 65.4116 54.5401 65.1216C54.0174 64.8324 53.544 64.3793 53.1217 63.7665C52.6986 63.1517 52.4443 62.5492 52.3589 61.9591C52.2735 61.369 52.3514 60.8145 52.5935 60.2975C52.8356 59.7805 53.2338 59.3299 53.7908 58.9471L53.7893 58.9429ZM54.4664 59.9257C54.1542 60.1402 53.9389 60.4008 53.8177 60.7063C53.6965 61.0118 53.6802 61.3534 53.7681 61.729C53.856 62.1047 54.0443 62.5041 54.3377 62.9277C54.6283 63.3501 54.935 63.6703 55.2561 63.8842C55.5752 64.0989 55.9011 64.2055 56.228 64.2014C56.555 64.1973 56.8756 64.0876 57.1878 63.8731C57.5 63.6585 57.7153 63.3979 57.8324 63.094C57.9494 62.79 57.9644 62.4513 57.8765 62.0756C57.7886 61.7 57.6004 61.3006 57.3069 60.8769C57.0163 60.4546 56.7097 60.1344 56.3885 59.9204C56.0695 59.7057 55.7457 59.5984 55.42 59.5997C55.0943 59.601 54.7757 59.7099 54.4643 59.9265L54.4664 59.9257Z" fill="white"/>
<path d="M60.0496 50.4141L66.3802 53.326L65.6976 54.8114L60.9784 55.2713L59.6955 55.33L59.6916 55.3385L60.8029 55.8034L64.4673 57.4881L63.9312 58.654L57.6006 55.7421L58.2801 54.2672L62.9909 53.8034L64.2822 53.7485L64.2912 53.7288L63.18 53.2639L59.5155 51.5792L60.0516 50.4133L60.0496 50.4141Z" fill="white"/>
<path d="M28.5716 43.6317C29.0267 43.7513 29.4099 43.9492 29.7221 44.2275C30.0343 44.5058 30.2711 44.8402 30.4298 45.2294C30.5905 45.6179 30.6782 46.0499 30.6935 46.5206C30.7147 47.2096 30.5911 47.8117 30.3189 48.3234C30.0467 48.8351 29.6489 49.2363 29.122 49.5235C28.5959 49.8127 27.9616 49.9686 27.2149 49.9925C26.4682 50.0164 25.8247 49.9011 25.2802 49.6481C24.7378 49.3943 24.3131 49.0217 24.0075 48.5275C23.7019 48.0333 23.5388 47.4486 23.518 46.7735C23.5025 46.2959 23.5546 45.8612 23.6714 45.4682C23.789 45.0772 23.9788 44.7416 24.2407 44.4613C24.5027 44.1809 24.8331 43.9714 25.2293 43.8313L25.8322 45.1326C25.415 45.2664 25.1181 45.4588 24.9484 45.7096C24.7766 45.9611 24.6984 46.2811 24.7108 46.6683C24.723 47.0486 24.826 47.3764 25.0172 47.6574C25.2096 47.9355 25.4855 48.1475 25.846 48.2905C26.2065 48.4335 26.6478 48.4972 27.1671 48.4803C27.6816 48.4629 28.1144 48.3772 28.4696 48.2218C28.8249 48.0664 29.0874 47.8445 29.2621 47.5567C29.4368 47.2689 29.5169 46.9224 29.5038 46.5143C29.4916 46.134 29.3783 45.81 29.1665 45.5367C28.9534 45.2662 28.6381 45.0806 28.2185 44.9807L28.577 43.6274L28.5716 43.6317Z" fill="white"/>
<path d="M26.0817 35.9915C26.4021 35.3821 26.8083 34.9215 27.2948 34.6141C27.7834 34.3059 28.326 34.156 28.9256 34.1656C29.5252 34.1752 30.1549 34.3543 30.8159 34.7001C31.4757 35.0487 31.9806 35.4666 32.3284 35.9546C32.6762 36.4425 32.8607 36.9771 32.8844 37.5525C32.906 38.1288 32.7584 38.7233 32.4359 39.3335C32.1155 39.9429 31.7101 40.4055 31.2202 40.7165C30.7304 41.0275 30.1856 41.1782 29.5861 41.1686C28.9865 41.159 28.3576 40.982 27.6957 40.6341C27.0359 40.2855 26.5319 39.8697 26.1833 39.3797C25.8354 38.8917 25.651 38.3572 25.6299 37.7761C25.6096 37.197 25.7592 36.6017 26.0789 35.9902L26.0817 35.9915ZM27.1376 36.5474C26.9578 36.891 26.8829 37.2262 26.9171 37.5585C26.9485 37.8894 27.0906 38.2026 27.3407 38.4969C27.5908 38.7912 27.9437 39.059 28.3987 39.2984C28.8536 39.5377 29.2738 39.6772 29.6586 39.715C30.0441 39.7549 30.3803 39.6933 30.6728 39.5331C30.9652 39.3729 31.2003 39.1213 31.3801 38.7776C31.5606 38.4361 31.6327 38.0995 31.6 37.7714C31.5652 37.4441 31.4231 37.1309 31.173 36.8366C30.9229 36.5423 30.57 36.2745 30.1151 36.0351C29.6601 35.7958 29.2399 35.6562 28.8551 35.6185C28.4696 35.5786 28.1326 35.6381 27.8443 35.7968C27.5552 35.9534 27.3201 36.205 27.1396 36.5466L27.1376 36.5474Z" fill="white"/>
<path d="M38.2379 25.1999L41.6393 31.2811L40.4965 31.9191L38.7229 28.7484L37.7832 26.9386L37.7626 26.9463L38.8441 32.8402L37.8024 33.4218L33.3583 29.4104L33.3377 29.418L34.397 31.1646L36.1707 34.3353L35.0183 34.9792L31.617 28.898L33.4613 27.868L36.4134 30.5729L37.5683 31.7302L37.5869 31.7233L37.2199 30.1349L36.4483 26.2001L38.2359 25.2007L38.2379 25.1999Z" fill="white"/>
<path d="M45.1897 24.2181L45.596 31.1747L44.1421 31.2595L43.7359 24.3028L45.1897 24.2181Z" fill="white"/>
<path d="M56.1943 26.6236L53.7842 33.162L52.2182 32.5845L51.3452 27.8967L51.1752 26.6176L51.1647 26.6145L50.7873 27.759L49.3933 31.543L48.1649 31.0912L50.5749 24.5527L52.1297 25.1251L53.0057 29.8024L53.1719 31.0899L53.1909 31.0969L53.5683 29.9525L54.9622 26.1684L56.1907 26.6203L56.1943 26.6236Z" fill="white"/>
<path d="M57.3166 36.7218C56.908 36.2283 56.66 35.7057 56.5682 35.1554C56.4786 34.6045 56.5539 34.0556 56.7964 33.5079C57.0388 32.9603 57.4488 32.4467 58.0311 31.9676C58.6052 31.4916 59.1908 31.192 59.7844 31.0654C60.3779 30.9388 60.9501 30.982 61.5009 31.1951C62.0509 31.4062 62.5459 31.7785 62.985 32.3099C63.4653 32.8894 63.746 33.4493 63.8275 33.9845C63.9089 34.5197 63.8117 35.0791 63.5377 35.6619L62.2302 34.9907C62.4454 34.6668 62.536 34.3422 62.5028 34.0189C62.4695 33.6957 62.3253 33.3833 62.0735 33.0779C61.8224 32.7746 61.5329 32.57 61.2057 32.4663C60.8786 32.3625 60.5271 32.364 60.1543 32.472C59.7814 32.58 59.3968 32.7955 59.0001 33.1236C58.5925 33.4603 58.2964 33.8003 58.1125 34.1454C57.9266 34.4914 57.8588 34.8333 57.9072 35.172C57.9556 35.5107 58.1159 35.8477 58.3888 36.1781C58.5376 36.3575 58.6957 36.5053 58.8668 36.6248C59.0379 36.7442 59.2153 36.8238 59.3948 36.8651C59.5752 36.9084 59.7616 36.9049 59.9507 36.8581C60.1398 36.8113 60.3245 36.7146 60.5039 36.5658L60.6257 36.4642L59.4623 35.0567L60.285 34.3781L62.2496 36.7551L59.4182 39.095L58.7657 38.3048L59.8702 37.254L59.8939 37.5644C59.4364 37.7413 58.9873 37.7579 58.5454 37.617C58.1036 37.4761 57.6947 37.1774 57.3187 36.7211L57.3166 36.7218Z" fill="white"/>
</svg>
