<svg width="217" height="204" viewBox="0 0 217 204" fill="none" xmlns="http://www.w3.org/2000/svg">
<path d="M9.75575 37.2464C9.02127 36.0772 9.37364 34.534 10.5428 33.7995C11.7119 33.0651 13.2551 33.4174 13.9896 34.5866L9.75575 37.2464ZM283.626 178.028L285.383 179.806L285.383 179.807L283.626 178.028ZM258.45 27.3555L256.46 28.8678L260.272 25.6437L258.45 27.3555ZM292.561 56.8422L291.135 58.8957L291.13 58.8923L292.561 56.8422ZM433.625 71.525L431.584 70.0814L431.589 70.0745L433.625 71.525ZM425.162 4.31289C424.462 3.12282 424.859 1.59056 426.049 0.890505C427.239 0.190454 428.772 0.58771 429.472 1.77778L425.162 4.31289ZM5.28227 63.2988C4.47361 64.4179 2.91084 64.6696 1.79172 63.8609C0.67259 63.0523 0.420904 61.4895 1.22956 60.3704L5.28227 63.2988ZM8.70865 32.0453L6.26711 32.5828C6.0408 31.5548 6.48268 30.4951 7.37232 29.9325C8.26196 29.3698 9.40875 29.4247 10.2406 30.0697L8.70865 32.0453ZM39.2814 38.3927C40.6556 38.2586 41.8783 39.2639 42.0124 40.6381C42.1465 42.0123 41.1412 43.235 39.767 43.369L39.2814 38.3927ZM13.9896 34.5866C29.0795 58.6068 29.3507 71.264 70.7408 118.571L66.9777 121.864C25.2613 74.1834 24.3541 60.4842 9.75575 37.2464L13.9896 34.5866ZM70.7408 118.571C91.4943 142.292 104.536 155.113 116.392 163.794C128.222 172.455 138.952 177.06 155.371 184.252L153.365 188.832C137.036 181.68 125.788 176.869 113.439 167.828C101.116 158.806 87.7774 145.637 66.9777 121.864L70.7408 118.571ZM155.371 184.252C171.526 191.329 194.442 198.059 217.722 198.609C240.995 199.159 264.362 193.539 281.87 176.249L285.383 179.807C266.586 198.369 241.698 204.178 217.604 203.608C193.518 203.038 169.957 196.1 153.365 188.832L155.371 184.252ZM281.87 176.249C296.399 161.899 301.067 139.611 296.497 113.394C291.932 87.203 278.184 57.4661 256.46 28.8678L260.441 25.8433C282.522 54.9109 296.689 85.374 301.423 112.535C306.152 139.67 301.505 163.884 285.383 179.806L281.87 176.249ZM260.272 25.6437C270.46 36.4871 281.761 46.2564 293.992 54.7922L291.13 58.8923C278.617 50.1592 267.054 40.1633 256.628 29.0674L260.272 25.6437ZM293.987 54.7888C321.747 74.0661 351.159 85.2694 376.193 87.8806C401.328 90.5023 421.427 84.4442 431.584 70.0815L435.666 72.9685C423.986 89.4848 401.593 95.5571 375.674 92.8537C349.656 90.1397 319.455 78.5622 291.135 58.8957L293.987 54.7888ZM431.589 70.0745C443.015 54.034 440.181 29.8448 425.162 4.31289L429.472 1.77778C444.834 27.8942 448.83 54.4888 435.661 72.9755L431.589 70.0745ZM3.25591 61.8346C1.22956 60.3704 1.229 60.3712 1.22848 60.3719C1.22835 60.3721 1.22786 60.3727 1.22761 60.3731C1.22709 60.3738 1.22672 60.3743 1.22648 60.3747C1.22601 60.3753 1.22608 60.3752 1.22669 60.3744C1.2279 60.3727 1.23127 60.3679 1.23669 60.3602C1.24754 60.3448 1.26663 60.3174 1.2933 60.2783C1.34665 60.2001 1.43025 60.0752 1.53879 59.9057C1.75597 59.5666 2.07235 59.0497 2.44577 58.3716C3.19354 57.0137 4.16422 55.0194 5.02617 52.5187C6.7511 47.5141 8.02005 40.5457 6.26711 32.5828L11.1502 31.5079C13.1504 40.5939 11.693 48.5202 9.75326 54.1479C8.78288 56.9634 7.68666 59.2198 6.82562 60.7834C6.39463 61.5661 6.02112 62.1778 5.74951 62.602C5.61366 62.8141 5.50314 62.9796 5.42347 63.0964C5.38363 63.1548 5.35149 63.201 5.32773 63.2348C5.31585 63.2517 5.30607 63.2655 5.29846 63.2762C5.29466 63.2815 5.2914 63.2861 5.2887 63.2899C5.28735 63.2917 5.28614 63.2934 5.28506 63.2949C5.28453 63.2957 5.28383 63.2966 5.28356 63.297C5.2829 63.2979 5.28227 63.2988 3.25591 61.8346ZM10.2406 30.0697C16.5722 34.9794 23.8208 37.0791 29.5712 37.9348C32.4354 38.361 34.8934 38.4733 36.6258 38.4795C37.491 38.4826 38.1721 38.4592 38.6288 38.4359C38.8571 38.4242 39.029 38.4126 39.1395 38.4042C39.1948 38.4001 39.2347 38.3968 39.2585 38.3947C39.2705 38.3937 39.2784 38.3929 39.2822 38.3926C39.2842 38.3924 39.2851 38.3923 39.2849 38.3923C39.2849 38.3923 39.2846 38.3924 39.284 38.3924C39.2837 38.3925 39.283 38.3925 39.2829 38.3925C39.2822 38.3926 39.2814 38.3927 39.5242 40.8809C39.767 43.369 39.7661 43.3691 39.7651 43.3692C39.7647 43.3693 39.7637 43.3694 39.7629 43.3694C39.7612 43.3696 39.7593 43.3698 39.7572 43.37C39.7529 43.3704 39.7475 43.3709 39.7411 43.3715C39.7282 43.3727 39.7112 43.3742 39.6901 43.376C39.6478 43.3797 39.5892 43.3845 39.5148 43.3901C39.366 43.4013 39.1541 43.4156 38.8842 43.4294C38.3445 43.457 37.5719 43.4829 36.6079 43.4795C34.6819 43.4726 31.9794 43.3482 28.8353 42.8804C22.5692 41.9479 14.41 39.6299 7.17669 34.021L10.2406 30.0697Z" fill="black"/>
</svg>
