<svg width="84" height="116" viewBox="0 0 84 116" fill="none" xmlns="http://www.w3.org/2000/svg">
<mask id="mask0_50_184" style="mask-type:alpha" maskUnits="userSpaceOnUse" x="0" y="0" width="84" height="116">
<path d="M83.938 27.2087H59.9797H37.0861L33.8917 51.1671L83.938 109.732L62.6417 115.588L20.5815 91.63L0.350029 20.8199L15.7898 0.588379H45.0722L83.938 27.2087Z" fill="#C4C4C4"/>
</mask>
<g mask="url(#mask0_50_184)">
<path d="M24.4283 10.239L24.7619 10.3181C25.3016 10.1505 25.8727 9.85306 26.4539 9.65894C26.5997 9.67807 26.7874 9.75022 26.8481 9.70499C27.2221 9.43218 27.6156 9.67525 27.9247 9.49525C28.2896 9.28287 28.5477 9.54481 28.8796 9.3591C29.2417 9.15632 29.6063 9.24944 29.9362 9.24922C30.2384 9.247 30.5997 9.10008 30.8567 9.24777C31.356 9.00128 31.667 9.48064 32.1707 9.22027C32.5244 9.33228 33.0179 9.11709 33.3346 9.32021C33.7223 9.23854 34.0408 9.3178 34.37 9.38187C34.7356 9.45282 35.1508 9.43848 35.5264 9.49689C35.9021 9.55531 36.2046 9.65316 36.5424 9.73424C36.8801 9.81533 37.2539 9.85644 37.5466 9.9884C37.8394 10.1204 38.1848 9.92198 38.4721 10.0115C38.9166 10.1481 39.4958 10.1564 39.8187 10.3871C40.2173 10.6716 40.7472 10.7035 41.2139 10.8492C41.6807 10.9949 42.2332 10.991 42.5827 11.2086C43.1621 11.5691 43.8962 11.6725 44.594 11.8316C45.017 11.9275 45.2082 12.2444 45.6721 12.3044C46.0394 12.3505 46.4503 12.3837 46.6691 12.6858C46.7768 12.8303 47.1379 12.8572 47.4075 12.8743C47.7153 12.894 47.7253 13.1506 47.9845 13.2165C48.3016 13.2964 48.66 13.3039 48.9175 13.519C49.1311 13.6964 49.5317 13.729 49.8468 13.829C50.0769 13.902 50.1214 14.1482 50.434 14.155C50.6636 14.1606 50.7805 14.2905 50.9174 14.4243C51.0543 14.5581 51.4747 14.5235 51.5927 14.6686C51.7528 14.8678 52.0239 14.8553 52.2458 14.9413C52.4677 15.0273 52.5129 15.2793 52.8313 15.2632C53.1498 15.2471 53.2016 15.4988 53.4187 15.5855C53.6359 15.6722 53.9117 15.659 54.0743 15.8559C54.1952 15.9999 54.6497 15.9539 54.7387 16.1023C54.8605 16.3026 55.1887 16.2814 55.2697 16.4765C55.3885 16.7686 55.9317 16.5887 56.1038 16.8711C56.2424 17.0651 56.4685 17.2032 56.749 17.2653C57.3025 17.3841 57.5431 17.8101 58.0545 17.9413C58.5659 18.0724 58.7885 18.4212 59.2183 18.6001C59.3816 18.6869 59.537 18.7816 59.6839 18.8838C59.8508 18.9752 60.0716 18.9675 60.2408 19.0978C60.7818 19.5006 61.3812 19.8566 61.9734 20.2156C62.288 20.4051 62.5416 20.6435 62.9434 20.7662C63.2684 20.8657 63.4783 21.1291 63.7622 21.2889C64.5022 21.7048 65.1543 22.1987 65.8742 22.6313C66.2868 22.8799 66.4879 23.2918 66.9408 23.4902C67.3492 23.6864 67.7275 23.9141 68.0714 24.1709C68.456 24.4333 68.8329 24.706 69.2551 24.9326C69.493 25.0579 69.3947 25.3586 69.6581 25.3975C69.9214 25.4365 69.9165 25.6726 70.1155 25.6943C70.4227 25.7166 70.3896 26.0161 70.6954 26.0353C70.9077 26.048 70.872 26.3413 71.1598 26.316C71.3407 26.6491 71.6825 26.8601 72.0344 27.067C72.3506 27.2522 72.6219 27.4846 72.9676 27.6349C73.2375 27.752 73.1008 28.0949 73.4906 28.1548C73.7459 28.1946 73.9438 28.4038 74.0868 28.5858C74.1761 28.7314 74.3152 28.8488 74.492 28.9279C74.7314 29.0237 74.8344 29.3185 75.085 29.359C75.5102 29.4274 75.4271 29.8233 75.7235 29.9104C76.0199 29.9974 76.0594 30.2891 76.4135 30.2863C76.3383 30.6935 76.8856 30.6978 77.0453 30.9744C77.2086 31.234 77.4857 31.4261 77.8377 31.5235C78.0568 31.5901 77.926 31.9269 78.2572 31.9793C78.5003 32.018 78.5811 32.2374 78.8317 32.3153C79.0238 32.3736 78.8984 32.7444 79.2644 32.75C79.5063 33.0838 79.7919 33.3804 80.2669 33.5299C80.3436 33.9212 80.9444 33.9906 80.9967 34.3966C81.4759 34.3743 81.3326 34.8707 81.6484 34.9185C82.0377 34.9774 81.8502 35.394 82.1901 35.4223C82.6167 35.4528 82.3664 35.9843 82.8535 35.9563C82.9098 35.954 82.9846 36.0467 82.9835 36.1062C82.9765 36.5484 83.6398 36.5936 83.6844 37.0015C84.1449 37.0738 84.1665 37.421 84.3002 37.7166L84.6593 37.8253L84.8981 38.4125C84.8142 38.5745 84.6022 38.7199 84.4759 38.6662C83.9428 38.4401 83.16 38.7428 82.5564 38.24C82.5466 38.1508 82.4997 38.073 82.4225 38.0178C82.3453 37.9625 82.2417 37.9325 82.1264 37.9321L81.8788 37.3232L81.4997 37.2191L81.3409 36.8286L81.0815 36.7664C80.8624 36.6418 80.8794 36.402 80.774 36.2215C80.7166 36.1792 80.6529 36.142 80.584 36.1106C80.0592 35.9173 79.8449 35.4733 79.4137 35.1997C79.2412 35.0901 79.217 34.8609 78.9257 34.7948C78.7493 34.7543 78.8864 34.4124 78.6232 34.3904C78.3237 34.3661 78.3334 34.0918 78.0448 34.0487C77.7561 34.0056 77.9431 33.5421 77.4974 33.5725C77.4216 33.2907 76.8997 33.3449 76.8711 33.0137C76.8433 32.7632 76.362 32.8177 76.3294 32.5099C76.3156 32.3767 76.0007 32.331 75.9182 32.1944C75.8041 32.0091 75.4017 32.0798 75.4186 31.7941C75.4354 31.5084 74.8746 31.6074 74.8706 31.3121C74.5315 31.3064 74.5117 31.0755 74.3971 30.9012C74.3299 30.7982 74.0759 30.7905 74.0163 30.6856C73.8952 30.4705 73.4635 30.5061 73.4675 30.1931C73.47 29.9591 72.9614 30.0706 72.9903 29.7897C72.6236 29.8073 72.6132 29.4506 72.2788 29.4358C71.9704 28.93 71.3849 28.654 70.8151 28.3667C70.8379 27.9881 70.2852 27.9788 70.1976 27.6765C69.8102 27.6059 69.6269 27.3413 69.3504 27.1665C69.1691 27.052 68.9148 27.0106 68.8374 26.7789C68.7473 26.5999 68.5819 26.4605 68.3633 26.3792C68.1476 26.2834 68.0174 26.0877 67.8025 26.0436C67.5235 25.9869 67.5502 25.684 67.2249 25.704C66.7856 25.0378 65.9146 24.7307 65.2429 24.2592C64.5977 23.8071 63.9333 23.37 63.2366 22.9654C63.0411 22.8531 63.0366 22.6847 62.9096 22.5215C62.4244 22.5125 62.0893 22.2517 61.7772 22.0226C61.2573 21.6426 60.6631 21.3327 60.1532 20.9487C59.6434 20.5646 59.0256 20.2752 58.5485 19.8597C58.3611 19.6958 58.1173 19.5778 57.8357 19.5148C57.5608 19.46 57.4746 19.2356 57.2471 19.1978C56.9909 19.1559 57.0265 18.9121 56.7896 18.9011C56.5823 18.884 56.566 18.7241 56.4481 18.6453C56.2375 18.5041 56.0109 18.3403 55.7333 18.3036C55.3956 18.2599 55.3069 18.0171 55.0353 17.9248C54.7637 17.8325 54.6515 17.5982 54.3165 17.5775C54.2055 17.5696 54.1303 17.4674 54.0427 17.4053C53.6869 17.1516 53.2433 16.9881 52.8314 16.7911C52.4541 16.6127 52.2162 16.2846 51.7086 16.2412C51.5486 15.9804 51.0907 16.0097 50.8941 15.8411C50.6976 15.6724 50.3757 15.6343 50.1667 15.4972C49.9101 15.33 49.5878 15.2499 49.336 15.1109C49.1016 14.9818 48.8988 14.835 48.6013 14.7785C48.3511 14.7306 48.3283 14.4466 48.0119 14.4594C47.6954 14.4723 47.6407 14.2217 47.4203 14.1436C47.2 14.0655 46.9146 14.0222 46.6693 13.953C46.393 13.8783 46.2897 13.6367 45.9596 13.5911C45.6745 13.5526 45.2999 13.5589 45.2394 13.2528C44.9441 13.181 44.574 13.1734 44.3678 13.0268C43.9509 12.7304 43.3212 12.7222 42.8946 12.489C42.0829 12.0418 41.0644 11.9263 40.1303 11.6749C39.6463 11.5447 39.3605 11.1818 38.7875 11.1638C38.2978 11.1481 37.9756 10.7698 37.3746 11.0022C36.9525 10.8999 36.5395 10.783 36.1034 10.7045C35.9074 10.6696 35.6666 10.7192 35.4505 10.7178C35.2344 10.7164 35.0826 10.5379 34.803 10.6577C34.5233 10.7775 34.3792 10.5887 34.1577 10.5907C33.9363 10.5926 33.72 10.6033 33.5027 10.6157C33.2803 10.6418 33.061 10.6463 32.8498 10.629C32.587 10.579 32.3908 10.7674 32.1673 10.8016C31.9888 10.8127 31.8139 10.8086 31.6454 10.7893C31.4756 10.786 31.2931 10.7926 31.0517 10.7954L30.2975 11.1022C30.2083 11.0817 30.1244 11.0615 29.9766 11.0251L28.8654 11.477L28.5113 11.393L27.3424 11.8684L27.1806 12.1248L26.8221 12.0715L26.6073 12.3713L25.5193 12.8138C25.4417 12.925 25.3693 13.0329 25.2951 13.1403C25.0372 13.2597 24.769 13.3205 24.5884 13.5847C24.4378 13.8064 24.1165 13.9769 23.8857 14.1794C23.6549 14.382 23.3669 14.5848 23.2344 14.8137C23.0002 15.2191 22.4692 15.487 22.308 15.9146C22.2346 16.0652 22.1435 16.213 22.0362 16.3558C21.8315 16.6805 21.4977 17.0275 21.4449 17.3446C21.4018 17.6359 21.272 17.9312 21.0661 18.206C20.827 18.5289 20.9772 18.8528 20.6889 19.1873C20.5144 19.4238 20.4407 19.6833 20.4812 19.9187C20.5276 20.2149 20.2316 20.427 20.1323 20.6798C20.3847 20.8861 19.8276 21.2056 20.091 21.4063C19.6831 21.7448 20.2521 22.0215 19.9062 22.3553C19.9956 22.6496 19.6165 23.0259 19.8949 23.288C19.8138 23.412 19.7689 23.543 19.764 23.6696C19.7591 23.7961 19.7944 23.9144 19.8668 24.0139C19.6504 24.289 19.7013 24.5218 19.8392 24.7409C19.6154 24.9526 19.7399 25.1675 19.6493 25.3793C19.6187 25.4533 19.5213 25.5617 19.5487 25.5917C19.846 25.9088 19.5956 26.3571 19.672 26.7231C19.7196 26.927 19.8013 27.0905 19.6719 27.3519C19.578 27.535 19.7641 27.7526 19.8351 27.9892L19.6723 28.2968L19.9844 29.0642L19.7868 29.4065L20.1869 30.3903L20.0143 30.6778C20.0554 31.0232 20.2859 31.3458 20.3895 31.7164C20.0251 32.1121 20.3817 32.3472 20.4603 32.6399C20.5328 32.9134 20.6667 33.1679 20.7652 33.4103L20.5732 33.7165L21.2206 35.3082C21.1397 35.4365 21.0922 35.5101 21.0159 35.6329L22.2298 38.6176L22.0471 38.9055L25.2061 46.6727L25.5533 46.7729L26.8422 49.9419L27.2213 50.046L28.1088 52.2281L28.3678 52.2893C28.4029 52.3052 28.4597 52.3123 28.4702 52.3382C28.7651 53.0631 29.0599 53.7881 29.3505 54.5026C29.4648 54.531 29.5502 54.5506 29.7088 54.5887C29.8152 54.9073 29.9446 55.2173 30.0966 55.5172C30.4096 56.0549 30.3077 56.8024 31.0603 57.1167L31.7654 58.8503L32.1073 58.9333L32.8284 60.7063L33.2101 60.8167L33.8524 62.396L34.2315 62.5001L34.9476 64.2606C35.6408 64.5037 35.4945 65.1667 35.8186 65.5744L36.1112 65.6437L36.8243 67.397L37.2526 67.5559L37.8095 68.925C37.9569 68.9604 38.0423 68.9799 38.1435 69.0052L38.7837 70.5793L39.1658 70.6907L39.7256 72.067L40.1047 72.1711L40.6683 73.5568L40.9258 73.6186C40.9623 73.6339 41.0191 73.641 41.0296 73.6669C41.1905 74.0625 41.3514 74.4581 41.5056 74.8372L41.8251 74.9148L42.4569 76.4682L42.8867 76.6266L43.4439 77.9967L43.778 78.0769L44.2564 79.2534L44.6381 79.3637L45.1979 80.74L45.577 80.8441L46.0601 82.032L46.3769 82.1071C46.5857 82.3927 46.6402 82.7918 46.8501 83.1216L47.1413 83.1915L47.5305 84.1484L47.9602 84.3067L48.4366 85.478L48.7702 85.5571L49.2491 86.7347L49.6308 86.845L50.0288 87.8236L50.3847 87.9203C50.5192 88.1227 50.5837 88.4428 50.7289 88.7169C50.8133 88.7381 50.8973 88.7582 51.0387 88.7912C51.2512 89.0778 51.3024 89.4769 51.5134 89.8051L51.8044 89.875L52.194 90.833L52.5887 90.9754L52.8132 91.5274L53.2012 91.6532L53.5946 92.6205L53.9762 92.7308L54.2938 93.5117L54.6729 93.6158L54.9122 94.204L55.2336 94.2821L55.5571 95.0774L55.9083 95.1627C56.0405 95.4215 56.1826 95.7005 56.3233 95.98C56.7909 96.0119 56.7086 96.3809 56.8701 96.629L57.2199 96.7438L57.452 97.3145L57.8328 97.4227L58.0704 98.0068L58.4495 98.1109L58.6887 98.6991L58.9476 98.7604C59.2644 98.8934 59.0392 99.358 59.4478 99.4103C59.8226 99.4582 59.6118 99.8758 59.9822 99.9171C60.0429 99.9287 60.0957 99.9525 60.1365 99.9865C60.1772 100.02 60.2046 100.064 60.2166 100.113C60.2084 100.56 60.9185 100.575 60.918 101.009C61.4289 101.023 61.2968 101.601 61.8112 101.611C61.7488 102.046 62.4483 102.018 62.4721 102.408C62.4754 102.458 62.6111 102.472 62.6516 102.522C62.8455 102.763 63.2302 102.831 63.4229 103.098C63.5884 103.358 63.8787 103.543 64.245 103.621C64.2699 104.017 64.7087 104.127 64.9987 104.335C65.2887 104.543 65.6092 104.727 65.9107 104.921C66.2122 105.116 66.5363 105.3 66.8298 105.505C67.1233 105.709 67.4177 105.915 67.7426 106.093C67.8529 106.14 67.93 106.221 67.9609 106.321C67.9919 106.421 67.975 106.535 67.9129 106.644C67.4259 106.622 67.0744 106.313 66.4942 106.497C66.4538 106.513 66.39 106.419 66.3284 106.375C66.0305 106.166 65.6975 105.988 65.3348 105.845C65.0237 105.73 64.7906 105.488 64.5082 105.336C64.2521 105.199 63.9185 105.128 63.6746 104.942C63.3988 104.724 63.067 104.55 62.7622 104.355C62.4574 104.161 62.1458 103.97 61.841 103.775C61.5362 103.581 61.1594 103.42 60.9406 103.176C60.5354 102.752 60.036 102.395 59.4589 102.117C59.2605 102.014 59.3737 101.708 59.0431 101.653C58.803 101.613 58.7662 101.333 58.4554 101.338C58.4844 100.996 57.9891 100.962 57.9175 100.728C57.8324 100.452 57.4405 100.474 57.3556 100.232C57.3172 100.138 57.2776 99.9743 57.1983 99.9739C56.7694 99.971 56.9202 99.5427 56.6505 99.4883C56.3808 99.4338 56.3625 99.1733 56.0754 99.1465C55.7883 99.1196 55.8912 98.8593 55.7642 98.7251L55.4084 98.6284L55.1729 98.0495C55.041 98.0066 54.8399 97.9967 54.8193 97.9254C54.7463 97.6714 54.5165 97.5658 54.2964 97.4139C54.1265 97.2983 54.1284 97.067 53.8391 96.9807C53.5957 96.9083 53.6957 96.5164 53.2888 96.4973C53.2097 96.4932 53.196 96.3189 53.1395 96.2297C53.1061 96.1718 53.0563 96.1227 52.9932 96.0852C52.9136 96.0555 52.8279 96.0336 52.7377 96.0201L52.4981 95.4309L52.1185 95.3257L51.8797 94.7385C51.7901 94.717 51.6697 94.7189 51.6272 94.6723C51.5118 94.5418 51.4784 94.3357 51.3191 94.2629C51.1327 94.177 50.9355 94.1268 50.9084 93.9278C50.8528 93.522 50.2688 93.4482 50.1674 93.0706C49.7063 93.03 49.8031 92.6551 49.6448 92.419C49.5359 92.3872 49.4144 92.3534 49.286 92.3151L49.0417 91.7144L48.8095 91.6736C48.5412 91.5148 48.5688 91.2308 48.4242 91.0326C48.3402 91.0124 48.2558 90.9912 48.1704 90.9716C47.8373 90.8235 48.0478 90.3637 47.5604 90.2626C47.2142 90.1898 47.4093 89.688 46.9425 89.5713C46.6147 89.4898 46.8464 88.9212 46.3203 88.9071C46.0239 88.6378 46.2234 88.0848 45.5974 88.0195L45.3526 87.4178L45.0253 87.3542C44.8549 87.1339 44.8197 86.803 44.6526 86.533C44.127 86.5778 44.3471 85.9765 43.8591 85.9855C43.7127 85.7084 43.5648 85.4318 43.4214 85.1618L43.093 85.083L42.7691 84.2866L42.4392 84.2083L42.2016 83.6242L41.8221 83.5191L41.499 82.7248L41.1901 82.6609L40.8629 81.8562L40.4896 81.7666L40.1628 80.963L39.7896 80.8734L39.4661 80.078L39.0929 79.9884L38.7694 79.1931L38.4406 79.1132L38.1221 78.3302L37.743 78.2261L37.4229 77.439L37.0446 77.337L36.6441 76.3521L36.3189 76.2732L35.9954 75.4778L35.6222 75.3882L35.2179 74.394L34.8446 74.3044L34.4399 73.3092L34.1119 73.2314L33.7117 72.2475L33.333 72.1444L32.8487 70.9535L32.5358 70.884L32.1441 69.9208C31.3972 69.6453 31.5546 68.9766 31.201 68.5833L30.8842 68.5082L30.3922 67.2986L30.019 67.209L29.4508 65.8119L29.1228 65.7341L28.5609 64.3526L28.1822 64.2495L27.6978 63.0585L27.364 62.9831C27.0749 62.4296 26.8882 61.7802 26.5911 61.1781L26.2758 61.1023L25.6284 59.5106L25.2552 59.421L24.5273 57.6314L24.1541 57.5418L23.4221 55.7419L23.0937 55.663L22.2091 53.4882L21.83 53.3841L20.9404 51.1969L20.7205 51.1487C20.6518 51.1248 20.5896 51.1211 20.5795 51.0962C20.1217 49.9705 19.6638 48.8448 19.2097 47.7284L18.8944 47.6527L16.3672 41.4389C16.4087 41.3713 16.4562 41.2976 16.5136 41.2067C16.1866 41.0983 15.9275 40.9623 16.2917 40.5825L15.4071 38.4077L15.6055 38.0675L14.8743 36.2696L14.9897 36.102C15.032 36.0196 15.0739 35.9736 15.0646 35.9508C14.9033 35.5542 14.742 35.1576 14.5844 34.7702L14.7667 34.4813L14.2802 33.2851L14.4849 32.9605L14.1585 32.1579L14.3632 31.8332L14.0398 31.0378L14.2209 30.7505L13.983 30.1654L14.1818 29.8262L13.9392 29.2297L14.0818 29.0172C14.1537 28.7345 13.9328 28.5516 13.9042 28.3073C13.9498 28.2333 13.9973 28.1596 14.0434 28.0866C14.1683 27.7727 13.7003 27.6033 13.9437 27.2702C14.1664 26.9648 13.7361 26.7596 14.0368 26.4225C14.1886 26.2533 13.8206 26.0771 14.0245 25.8083C14.1734 25.6114 13.9896 25.3832 14.2303 25.1718C14.1085 24.951 14.0134 24.7254 14.2598 24.4453C13.9738 24.0029 14.4328 23.4589 14.3701 22.986C14.6094 22.7752 14.4355 22.5671 14.5503 22.3442C14.6746 22.0996 14.7277 21.8483 14.7052 21.6113C14.6846 21.3952 14.924 21.2013 14.8421 20.9667C14.7755 20.7741 14.9222 20.4513 15.0933 20.2345C15.2995 19.9672 15.153 19.719 15.3465 19.4786C15.6566 19.0941 15.5201 18.6633 15.8909 18.2916C15.7862 17.9057 16.1668 17.5662 16.3697 17.2122C16.6045 16.8041 16.8714 16.4046 17.1325 15.9991C17.3372 15.6745 17.5709 15.3549 17.7902 15.0328C18.2822 14.8846 18.1477 14.4047 18.6404 14.2043C18.9149 14.0926 18.8678 13.6954 19.2266 13.5217C19.4843 13.3976 19.5135 13.1093 19.8377 13.004C19.9361 12.9724 20.0096 12.735 20.0842 12.7239C20.5884 12.6552 20.6773 12.1617 21.1359 12.0391C21.2876 11.9979 21.4054 11.8197 21.6282 11.6264L23.1584 11.0041C23.2123 10.9255 23.2657 10.8542 23.3151 10.781C23.3753 10.721 23.4455 10.6671 23.5231 10.6216C23.7825 10.5016 24.1061 10.37 24.4283 10.239Z" fill="black"/>
</g>
</svg>
