<svg width="304" height="334" viewBox="0 0 304 334" fill="none" xmlns="http://www.w3.org/2000/svg">
<path d="M275.974 154.434C236.709 121.446 196.593 89.4784 156.345 57.6901C152.153 54.385 147.843 51.0169 142.972 49.075C135.709 46.1797 130.497 54.319 134.505 59.1261C141.2 67.1566 148.957 71.5241 157.013 78.1888C166.016 85.6448 175.115 93.0255 184.309 100.331C202.393 114.763 218.554 128.862 236.847 143.023L268.054 167.188C278.744 175.394 282.698 161.928 275.974 154.434Z" fill="#D2CCFC"/>
<path d="M210.875 62.5095C213.251 57.7041 214.628 52.7635 213.751 48.0737C212.724 42.613 207.352 40.8687 202.4 39.5651C200.81 38.9909 199.066 38.9234 197.399 39.3718C195.204 40.1415 193.065 42.1403 191.131 44.0797C179.043 56.2293 167.345 68.8757 156.111 81.9665C152.791 85.6968 149.719 89.6409 146.917 93.7715C143.989 98.4424 141.49 103.361 139.452 108.464C138.345 110.661 137.698 113.049 137.552 115.475C137.708 117.082 138.271 118.608 139.187 119.908C140.833 122.744 142.629 125.703 145.848 126.564C149.066 127.426 153.512 125.932 157.436 123.396C161.406 120.62 165.076 117.423 168.379 113.864C178.589 103.781 188.215 93.117 197.205 81.9292C201.272 76.7209 207.255 69.7857 210.875 62.5095Z" fill="#F9EF85"/>
<path d="M179.219 54.4122C180.633 51.0971 180.727 47.3419 179.482 43.889C177.86 39.6057 173.222 37.5053 168.998 35.8081C167.721 35.1718 166.307 34.8761 164.898 34.9507C163.173 35.382 161.627 36.3114 160.454 37.623C152.33 45.0935 144.617 52.9912 137.345 61.2837C135.176 63.6321 133.239 66.1837 131.56 68.9049C129.829 72.0775 128.493 75.4559 127.584 78.9673C126.992 80.5679 126.807 82.2984 127.044 84.0087C127.438 85.3186 128.101 86.5396 128.992 87.5928C130.74 89.9854 132.626 92.4737 135.38 93.5985C136.862 94.092 138.422 94.2832 139.963 94.1604C141.505 94.0376 142.996 93.6034 144.347 92.8843C147.146 91.3951 149.697 89.4964 151.915 87.2499C158.769 81.1008 165.092 74.395 170.822 67.1986C173.421 63.8071 177.308 59.41 179.219 54.4122Z" fill="#84C0A9"/>
<path d="M199.669 152.035C197.294 156.84 195.918 161.781 196.808 166.48C197.836 171.925 203.203 173.682 208.157 174.988C209.749 175.557 211.493 175.625 213.161 175.184C215.356 174.415 217.495 172.416 219.429 170.477C231.526 158.338 243.213 145.687 254.455 132.606C257.774 128.88 260.839 124.937 263.63 120.804C266.559 116.13 269.059 111.208 271.099 106.102C272.206 103.905 272.852 101.517 272.998 99.0907C272.846 97.4915 272.295 95.9711 271.396 94.6693C269.747 91.8141 267.958 88.8614 264.72 88.0005C261.482 87.1397 257.053 88.6295 253.138 91.1716C249.167 93.9467 245.497 97.1427 242.194 100.702C231.985 110.782 222.36 121.444 213.372 132.63C209.277 137.815 203.306 144.774 199.669 152.035Z" fill="#F9EF85"/>
<path d="M233.005 161.507C231.591 164.822 231.496 168.578 232.742 172.031C234.372 176.305 239.001 178.397 243.224 180.094C244.501 180.744 245.921 181.043 247.335 180.96C249.053 180.525 250.592 179.596 251.761 178.289C259.89 170.823 267.604 162.924 274.871 154.627C277.041 152.278 278.977 149.727 280.656 147.005C282.394 143.835 283.729 140.456 284.633 136.942C285.231 135.343 285.416 133.611 285.173 131.901C284.78 130.593 284.124 129.373 283.243 128.315C281.476 125.924 279.599 123.426 276.836 122.311C275.354 121.817 273.795 121.626 272.253 121.749C270.712 121.871 269.22 122.306 267.869 123.025C265.071 124.522 262.521 126.427 260.303 128.677C253.445 134.823 247.118 141.527 241.385 148.722C238.818 152.075 234.95 156.488 233.005 161.507Z" fill="#84C0A9"/>
<path d="M163.564 304.723C163.564 301.701 163.564 298.678 163.564 295.656C163.564 284.045 163.459 272.435 163.418 260.825C163.376 249.215 163.334 237.557 163.418 225.946C163.418 217.647 164.314 203.878 162.657 197.929C161.926 195.877 161.07 194.969 160.217 195.338L146.884 194.666L139.035 194.828C137.732 194.828 134.317 195.493 133.689 197.808C132.386 202.605 133.499 215.872 133.499 222.54C133.541 254.524 133.732 286.508 134.073 318.492C134.035 320.118 134.084 321.762 134.215 323.283C134.345 324.803 134.554 326.156 134.823 327.224C135.148 327.957 135.504 328.35 135.866 328.375C140.755 330.294 145.644 331.446 150.554 331.59C152.535 331.59 154.526 331.59 156.506 331.59C158.487 331.59 163.471 331.446 163.376 323.626C163.439 317.341 163.512 311.008 163.564 304.723Z" fill="#84C0A9"/>
<path d="M101.511 307.048C102.416 304.159 103.322 301.27 104.228 298.381C107.707 287.284 111.09 276.156 114.531 265.047C117.972 253.938 121.427 242.782 124.983 231.709C127.47 223.776 132.42 210.873 132.679 204.709C132.621 202.538 132.107 201.423 131.212 201.53L119.152 197.043L111.886 194.934C110.688 194.558 107.348 194.21 106.077 196.241C103.441 200.451 100.489 213.452 98.4909 219.826C88.9449 250.41 79.5363 281.036 70.2651 311.706C69.7434 313.249 69.2956 314.834 68.9601 316.326C68.6247 317.817 68.4115 319.169 68.3388 320.268C68.4177 321.063 68.6272 321.541 68.9524 321.669C72.8733 324.913 77.0242 327.423 81.4962 328.977C83.3176 329.548 85.1486 330.122 86.97 330.693C88.7914 331.264 93.4179 332.565 95.6738 325.062C97.6146 319.073 99.5794 313.041 101.511 307.048Z" fill="#F3CADF"/>
<path d="M39.6538 310.552C41.3295 308.03 43.0053 305.508 44.6811 302.987C51.1182 293.301 57.4716 283.56 63.8752 273.852C70.2788 264.144 76.709 254.395 83.213 244.754C87.8147 237.83 96.1682 226.821 98.1362 220.974C98.6866 218.873 98.5037 217.658 97.6147 217.512L87.2859 209.838L80.8966 205.785C79.8508 205.09 76.7408 203.823 74.9532 205.419C71.2474 208.726 64.7858 220.388 61.0885 225.951C43.389 252.656 25.8094 279.441 8.34979 306.305C7.41812 307.642 6.54588 309.039 5.80771 310.377C5.06953 311.716 4.48738 312.955 4.11109 313.99C3.96517 314.775 4.03291 315.293 4.30942 315.506C7.16951 319.716 10.4553 323.285 14.3163 326.024C15.906 327.081 17.504 328.143 19.0938 329.2C20.6835 330.256 24.7634 332.796 29.023 326.221C32.5577 321.011 36.1274 315.767 39.6538 310.552Z" fill="#F9EF85"/>
</svg>
