<svg width="67" height="80" viewBox="0 0 67 80" fill="none" xmlns="http://www.w3.org/2000/svg">
<path d="M9.06894 56.5721L9.34533 63.7258C9.43284 65.9908 11.2118 67.8265 13.4729 67.9852L17.7599 68.2861L13.4729 68.587C11.2118 68.7457 9.43284 70.5815 9.34533 72.8464L9.06894 80.0001L8.79255 72.8464C8.70504 70.5815 6.92609 68.7457 4.66493 68.587L0.37793 68.2861L4.66493 67.9852C6.92609 67.8265 8.70504 65.9908 8.79255 63.7258L9.06894 56.5721Z" fill="white"/>
<path fill-rule="evenodd" clip-rule="evenodd" d="M9.06894 56.5721L8.79255 63.7258C8.79227 63.7329 8.79198 63.7401 8.79167 63.7472C8.75572 64.5758 8.49338 65.3462 8.06406 65.9973C7.72543 66.5108 7.28292 66.95 6.76567 67.2849C6.16511 67.6737 5.46381 67.9218 4.70739 67.982C4.69326 67.9832 4.6791 67.9842 4.66493 67.9852L0.37793 68.2861L4.66493 68.587C4.6791 68.588 4.69326 68.5891 4.70739 68.5902C5.46381 68.6505 6.16511 68.8985 6.76567 69.2873C7.28292 69.6222 7.72543 70.0614 8.06406 70.5749C8.49338 71.226 8.75572 71.9965 8.79167 72.825C8.79198 72.8322 8.79227 72.8393 8.79255 72.8464L9.06894 80.0001L9.34533 72.8464C9.3456 72.8393 9.3459 72.8322 9.34621 72.825C9.38216 71.9965 9.6445 71.226 10.0738 70.5749C10.4124 70.0614 10.855 69.6222 11.3722 69.2873C11.9728 68.8985 12.6741 68.6505 13.4305 68.5902C13.4446 68.5891 13.4588 68.588 13.4729 68.587L17.7599 68.2861L13.4729 67.9852C13.4588 67.9842 13.4446 67.9832 13.4305 67.982C12.6741 67.9218 11.9728 67.6737 11.3722 67.2849C10.855 66.95 10.4124 66.5108 10.0738 65.9973C9.64449 65.3462 9.38215 64.5758 9.3462 63.7472C9.3459 63.7401 9.3456 63.7329 9.34533 63.7258L9.06894 56.5721ZM9.06894 67.609C8.8601 67.8517 8.63278 68.0781 8.3891 68.2861C8.63278 68.4941 8.8601 68.7205 9.06894 68.9632C9.27778 68.7205 9.50509 68.4941 9.74877 68.2861C9.50509 68.0781 9.27778 67.8517 9.06894 67.609Z" fill="white"/>
<path fill-rule="evenodd" clip-rule="evenodd" d="M8.54846 55.8164C9.04457 55.8164 9.44675 56.2057 9.44675 56.6859C9.44675 57.6878 9.43431 58.6915 9.42195 59.688L9.42194 59.6886C9.40957 60.6867 9.39729 61.6778 9.39729 62.6632C9.39729 62.994 9.36971 63.3097 9.34566 63.585L9.34463 63.5967C9.3194 63.8856 9.29836 64.1315 9.29836 64.3783C9.29836 64.4114 9.29842 64.4454 9.29847 64.4802C9.29919 64.9359 9.30013 65.53 9.1837 66.0769C9.16738 66.1535 9.15243 66.2649 9.14879 66.3333C9.13402 66.6107 9.01336 66.818 8.97225 66.8886L8.97029 66.892C8.96512 66.9008 8.95901 66.9112 8.95378 66.92C8.88129 67.1516 8.77933 67.3273 8.66404 67.4783C8.6149 67.5427 8.56339 67.6021 8.52917 67.6416C8.52615 67.6451 8.52326 67.6484 8.52052 67.6516C8.48205 67.696 8.45541 67.7273 8.42904 67.7617C8.22824 68.0237 7.95955 68.1426 7.86281 68.1854C7.86044 68.1864 7.85816 68.1874 7.856 68.1884C7.82201 68.2035 7.8033 68.2115 7.79094 68.2168C7.78635 68.2188 7.78264 68.2204 7.77935 68.2218C7.67036 68.3043 7.56374 68.3564 7.49992 68.3857C7.44042 68.413 7.37129 68.4406 7.33291 68.456C7.33181 68.4564 7.33074 68.4569 7.3297 68.4573C7.49608 68.5519 7.66007 68.6663 7.82448 68.8036C8.05408 68.9953 8.20465 69.2338 8.28442 69.3601L8.28718 69.3645C8.30066 69.3858 8.31248 69.4047 8.32319 69.4217C8.3524 69.4683 8.37328 69.5016 8.39672 69.5361C8.41059 69.5566 8.42115 69.5711 8.42918 69.5814C8.4372 69.5917 8.4409 69.5956 8.44045 69.5951C8.6193 69.7818 8.74797 70.0174 8.8295 70.192C8.91643 70.3781 8.99407 70.5915 9.03531 70.7853C9.03508 70.7841 9.03525 70.7848 9.03597 70.7877C9.03764 70.7945 9.04228 70.8132 9.05166 70.8491C9.06328 70.8936 9.07861 70.9509 9.09673 71.0183C9.10824 71.061 9.12085 71.1077 9.13411 71.1568C9.16191 71.2597 9.19257 71.3733 9.22194 71.4834C9.26518 71.6456 9.30854 71.8112 9.33923 71.9386C9.35396 71.9997 9.36921 72.0661 9.37974 72.1231C9.384 72.1461 9.39322 72.1973 9.39735 72.2552L9.39743 72.2563C9.39892 72.277 9.40468 72.3571 9.38937 72.4552C9.38282 72.4972 9.36085 72.6277 9.27351 72.7707C9.17011 72.9399 8.91745 73.1984 8.499 73.1984C8.02424 73.1984 7.63551 72.8419 7.60292 72.3904C7.59959 72.3756 7.59522 72.3568 7.58961 72.3336C7.56412 72.2278 7.52539 72.0793 7.48239 71.9181C7.45991 71.8338 7.4349 71.7412 7.41021 71.6497C7.3498 71.426 7.29121 71.209 7.27572 71.1363C7.26762 71.0983 7.23945 71.009 7.19239 70.9082C7.17049 70.8613 7.14934 70.8225 7.13182 70.7943C7.12349 70.7809 7.11788 70.7729 7.11534 70.7694C7.02219 70.6709 6.94922 70.5707 6.89489 70.4906C6.8523 70.4278 6.80899 70.3587 6.77642 70.3067C6.76834 70.2938 6.76091 70.282 6.75433 70.2715C6.67592 70.1474 6.64949 70.1197 6.64979 70.1195C6.64983 70.1194 6.65024 70.1198 6.65098 70.1204C6.41747 69.9254 6.24241 69.8581 6.02283 69.8226C5.77957 69.7833 5.50475 69.784 5.04157 69.7851C4.95737 69.7853 4.86694 69.7856 4.76934 69.7856C4.12317 69.7856 3.43703 69.6889 2.8286 69.6032L2.79528 69.5986C2.14784 69.5074 1.58322 69.4297 1.07978 69.4297C1.01087 69.4297 0.934846 69.4279 0.862163 69.4208C0.827107 69.4174 0.771189 69.4107 0.707423 69.3958C0.706561 69.3956 0.705572 69.3954 0.704461 69.3951C0.667483 69.3866 0.494758 69.3467 0.329227 69.2144C0.229611 69.1347 0.0762671 68.9758 0.020209 68.7222C-0.0388114 68.4551 0.0418461 68.2303 0.128359 68.0902C0.25985 67.8772 0.449156 67.7802 0.48205 67.7634C0.483256 67.7628 0.484252 67.7623 0.485027 67.7619C0.59084 67.7067 0.692769 67.6794 0.725764 67.6706L0.726224 67.6705C0.884822 67.628 1.1419 67.5873 1.32709 67.5873H2.11847C2.32856 67.5873 2.56013 67.5635 2.84195 67.5289C2.88053 67.5242 2.92039 67.5192 2.96133 67.5141C3.20054 67.4842 3.47645 67.4497 3.74644 67.434C3.90639 67.4247 4.07546 67.3926 4.32263 67.3456C4.34121 67.342 4.36023 67.3384 4.37972 67.3347C4.62885 67.2875 4.9618 67.2259 5.30873 67.2259C5.3186 67.2259 5.35452 67.2236 5.43524 67.2029C5.47396 67.193 5.51651 67.1807 5.56826 67.1649C5.5829 67.1604 5.60168 67.1546 5.62223 67.1483C5.66014 67.1366 5.70411 67.123 5.73946 67.1125C5.83538 67.0839 5.92199 67.0716 5.98042 67.0653C6.04155 67.0587 6.09843 67.0561 6.14151 67.0547C6.17808 67.0535 6.21631 67.0529 6.24554 67.0524C6.2471 67.0524 6.24864 67.0524 6.25015 67.0524C6.2965 67.0197 6.33893 66.9943 6.37314 66.9751C6.46992 66.9209 6.56548 66.8817 6.6187 66.86C6.64257 66.8504 6.66042 66.8432 6.67445 66.8376C6.68935 66.8316 6.69994 66.8273 6.70883 66.8236C6.79932 66.7564 6.88507 66.7105 6.94649 66.6803C6.9846 66.6615 7.01974 66.6458 7.04572 66.6344C7.05423 66.6307 7.06079 66.6278 7.06615 66.6255C7.0954 66.5902 7.12177 66.5597 7.14327 66.5349C7.18784 66.4833 7.20505 66.4633 7.21925 66.4447C7.22464 66.4376 7.22712 66.4339 7.22801 66.4325L7.22868 66.4314L7.2287 66.4314C7.22871 66.4314 7.22871 66.4314 7.2287 66.4314L7.22876 66.4312L7.22905 66.4306L7.23053 66.427C7.23192 66.4234 7.23448 66.4162 7.23773 66.4043C7.26995 66.2866 7.31673 66.1942 7.3455 66.1413C7.35246 66.1285 7.35926 66.1164 7.36549 66.1055C7.3786 65.9763 7.3999 65.8395 7.4241 65.7258C7.50193 65.3603 7.50187 64.933 7.50179 64.4254C7.50179 64.4098 7.50179 64.3941 7.50179 64.3783C7.50179 64.0527 7.5291 63.7402 7.553 63.4668L7.55445 63.4502C7.57962 63.162 7.60071 62.9138 7.60071 62.6632C7.60071 61.6673 7.61311 60.6676 7.62544 59.6729L7.62551 59.6672C7.63789 58.6689 7.65017 57.6756 7.65017 56.6859C7.65017 56.2057 8.05235 55.8164 8.54846 55.8164ZM7.40843 66.0323C7.40853 66.0321 7.40833 66.0325 7.40774 66.0336C7.40811 66.0329 7.40835 66.0325 7.40843 66.0323ZM6.73601 66.8115C6.73612 66.8115 6.73464 66.8123 6.73135 66.8138C6.73428 66.8122 6.73591 66.8115 6.73601 66.8115ZM7.61126 72.4294C7.61194 72.4331 7.61174 72.4325 7.61107 72.4284C7.61113 72.4287 7.6112 72.4291 7.61126 72.4294ZM8.03059 71.5868C8.15348 71.5128 8.3091 71.4594 8.499 71.4594C8.32736 71.4594 8.16697 71.506 8.03059 71.5868Z" fill="white"/>
<path fill-rule="evenodd" clip-rule="evenodd" d="M8.74616 57.7057C9.23961 57.7057 9.63963 58.1035 9.63963 58.5941C9.63963 58.7797 9.64659 58.8342 9.65628 58.8705C9.67514 58.9413 9.70489 59.0561 9.73042 59.1759C9.7513 59.2739 9.78721 59.4536 9.78721 59.6226C9.78721 59.8099 9.84026 60.0654 9.90799 60.3916C9.91167 60.4093 9.91539 60.4273 9.91914 60.4454C10.0747 61.196 10.1316 61.9268 10.1316 62.6817C10.1316 62.9189 10.1753 63.1651 10.2397 63.5118L10.2432 63.5307C10.3023 63.8484 10.3776 64.2536 10.3776 64.6859C10.3776 64.8079 10.3795 64.9872 10.3929 65.1548C10.3996 65.2388 10.4081 65.3058 10.4171 65.353C10.4187 65.3619 10.4203 65.3691 10.4215 65.3746C10.53 65.6038 10.5453 65.8152 10.5506 65.9182C10.5634 65.9362 10.577 65.956 10.5901 65.9765C10.6325 66.0425 10.6984 66.1565 10.7386 66.3073C10.8067 66.563 11.049 66.7963 11.4177 66.9134L11.1458 67.7596L11.4177 66.9134C11.7168 67.0084 12.0487 67.0811 12.2925 67.0956C12.5246 67.1094 12.7463 67.157 12.8965 67.1892C12.9061 67.1913 12.9155 67.1933 12.9245 67.1952C13.1001 67.2327 13.1929 67.2498 13.2709 67.253C13.2941 67.2539 13.3188 67.2543 13.3589 67.2549C13.3682 67.255 13.3783 67.2551 13.3894 67.2553C13.4411 67.2561 13.5103 67.2573 13.5835 67.2617C13.6992 67.2687 13.905 67.2864 14.1177 67.3689C14.1281 67.3698 14.1406 67.3709 14.1585 67.3723C14.1608 67.3725 14.1633 67.3727 14.1659 67.3729C14.2088 67.3762 14.2901 67.3826 14.3747 67.3968C14.4684 67.4124 14.5999 67.4424 14.7406 67.5094C14.7401 67.5092 14.7399 67.5091 14.7399 67.509C14.74 67.5089 14.7632 67.5184 14.8391 67.5375C14.8653 67.5441 14.8868 67.5493 14.9124 67.5554C14.9298 67.5596 14.9492 67.5643 14.9732 67.5701C15.0237 67.5824 15.0867 67.5983 15.152 67.6177L14.9941 68.1417L15.152 67.6177C15.2698 67.6528 15.3815 67.6949 15.4712 67.7297C15.5047 67.7427 15.5342 67.7543 15.5616 67.765C15.617 67.7868 15.6636 67.8051 15.7153 67.824C15.7866 67.8502 15.8384 67.8664 15.8785 67.876C15.9138 67.8844 15.929 67.8851 15.9293 67.8851C15.9294 67.8851 15.9292 67.8851 15.9287 67.8851C16.2445 67.8851 16.4833 67.8892 16.6545 67.8975C16.7386 67.9015 16.8206 67.9072 16.8935 67.9162C16.9294 67.9206 16.977 67.9275 17.0285 67.939L17.0295 67.9392C17.0623 67.9465 17.1792 67.9726 17.3049 68.0443C17.366 68.0793 17.5128 68.171 17.6255 68.3525C17.7666 68.5795 17.805 68.8708 17.7001 69.1426C17.6161 69.3602 17.4716 69.483 17.4108 69.5301C17.3392 69.5856 17.2737 69.6192 17.2375 69.6364C17.1198 69.6922 17.0015 69.7171 16.9634 69.7251L16.9605 69.7258C16.8468 69.7498 16.702 69.7701 16.5644 69.787C16.0144 69.8544 15.0768 69.9255 14.8355 69.9255C14.7542 69.9255 14.6516 69.9418 14.4575 69.9811C14.4442 69.9838 14.4303 69.9866 14.4157 69.9896C14.2519 70.0232 14.0096 70.0728 13.7629 70.083C13.6718 70.0867 13.5571 70.0941 13.431 70.1022C13.1857 70.118 12.8976 70.1365 12.6572 70.1365C12.5959 70.1365 12.5024 70.153 12.3066 70.2105C12.2822 70.2176 12.2548 70.2259 12.2246 70.2351C12.0618 70.2843 11.8218 70.3569 11.588 70.3928C11.5373 70.4005 11.4851 70.4062 11.4442 70.4103C11.4147 70.4133 11.381 70.4165 11.3494 70.4194C11.3367 70.4206 11.3243 70.4218 11.3128 70.4229C11.2234 70.4314 11.142 70.4399 11.0682 70.4512C11.0466 70.4545 11.0274 70.4578 11.0104 70.461C10.9614 70.5011 10.916 70.5312 10.8827 70.5519C10.8599 70.566 10.8386 70.5783 10.8209 70.5881C10.7685 70.6668 10.7179 70.7526 10.6671 70.8479C10.5142 71.1349 10.4009 71.3753 10.3619 71.5635C10.3241 71.7459 10.2552 71.9977 10.1514 72.2254C10.1513 72.228 10.1513 72.2306 10.1512 72.2335C10.151 72.2414 10.1507 72.2507 10.1504 72.2632C10.1497 72.2887 10.1486 72.323 10.1463 72.3605C10.1417 72.4339 10.1314 72.5423 10.099 72.6637C10.032 72.9154 9.984 73.2119 9.984 73.4412C9.984 73.5826 10.0011 73.7326 10.0268 73.944L10.0291 73.9634C10.0517 74.149 10.0808 74.3885 10.0823 74.637C10.0824 74.6377 10.0826 74.6385 10.0827 74.6393C10.0854 74.6548 10.0905 74.6787 10.0987 74.7095C10.1157 74.7737 10.1375 74.8355 10.1516 74.8696L9.87771 74.9818L10.1516 74.8696C10.2147 75.0216 10.2338 75.1636 10.2412 75.2544C10.2491 75.3508 10.2473 75.44 10.2445 75.5054C10.2421 75.5609 10.2379 75.6175 10.2351 75.6562C10.2346 75.6626 10.2342 75.6685 10.2338 75.6738C10.2322 75.6956 10.2312 75.7108 10.2306 75.7229C10.2299 75.7353 10.23 75.7384 10.23 75.7355C10.23 75.9471 10.2154 76.1411 10.2034 76.3002L10.2029 76.3072C10.1902 76.4758 10.1808 76.6052 10.1808 76.7376C10.1808 77.0145 10.1198 77.4663 10.07 77.7603C10.0461 77.9011 10.0133 78.076 9.97527 78.1989L9.97486 78.2002C9.96721 78.225 9.94107 78.3096 9.89064 78.4003L9.88928 78.4028C9.8719 78.4343 9.7876 78.587 9.61166 78.7079C9.5052 78.7811 9.31465 78.8768 9.06143 78.8656C8.7968 78.8539 8.59986 78.7319 8.48079 78.6185C8.29765 78.444 8.2437 78.2417 8.23409 78.2057C8.23376 78.2045 8.23348 78.2035 8.23325 78.2026C8.21503 78.136 8.20783 78.08 8.20466 78.0514C8.19793 77.9906 8.19707 77.9345 8.19707 77.898V76.7904C8.19707 76.6909 8.17779 76.5726 8.13749 76.3506L8.13429 76.333C8.09956 76.142 8.04949 75.8666 8.04949 75.5773C8.04949 75.5205 8.05285 75.4629 8.05583 75.4194C8.05901 75.3729 8.06322 75.3222 8.06719 75.2751L8.0688 75.256C8.07662 75.1633 8.0841 75.0747 8.08879 74.9886C8.09181 74.9332 8.09303 74.889 8.09306 74.8552C8.04727 74.7515 8.02415 74.6559 8.01147 74.5836C7.99025 74.4626 7.98947 74.354 7.99093 74.2845C7.99212 74.2276 7.996 74.1667 7.9982 74.1322C7.99861 74.1258 7.99896 74.1203 7.99922 74.1159C8.00029 74.0982 8.00071 74.088 8.00089 74.0833C7.99462 73.9836 7.96974 73.8311 7.94713 73.7523C7.92619 73.6794 7.91438 73.6127 7.90711 73.5611C7.89968 73.5085 7.89529 73.4593 7.89239 73.4189C7.88948 73.3785 7.88756 73.3393 7.88609 73.3079C7.88566 73.2986 7.88527 73.2901 7.88491 73.2822C7.88391 73.2604 7.88311 73.2428 7.88209 73.2242C7.882 73.2226 7.88191 73.2211 7.88182 73.2195C7.82357 73.0883 7.80614 72.9703 7.79982 72.8986C7.79734 72.8705 7.79615 72.8432 7.79576 72.8181C7.76057 72.7446 7.72135 72.6708 7.67327 72.5863C7.43038 72.1592 7.58167 71.6172 8.0112 71.3757C8.19592 71.2719 8.40202 71.2405 8.59627 71.2725C8.60182 71.2503 8.60705 71.2277 8.61176 71.2049C8.70891 70.7362 8.94294 70.2885 9.08821 70.016C9.19226 69.8208 9.31125 69.6239 9.4553 69.4309C9.54832 69.3062 9.65161 69.2216 9.7293 69.167C9.78929 69.1249 9.84645 69.0923 9.88396 69.072C10.0617 68.9078 10.2592 68.8321 10.3586 68.7979C10.5148 68.744 10.674 68.7139 10.7968 68.6952C10.8903 68.6809 10.9822 68.6704 11.0613 68.6623C10.9965 68.6438 10.9339 68.6249 10.8739 68.6058C10.1624 68.3798 9.3538 67.8343 9.0478 66.8864C9.0261 66.8577 8.99517 66.8153 8.96562 66.7685C8.92184 66.6991 8.85905 66.5867 8.81996 66.44C8.79017 66.3282 8.77901 66.2295 8.77365 66.1588C8.77098 66.1238 8.76953 66.092 8.76857 66.0691C8.76828 66.0621 8.76804 66.0562 8.76784 66.0511C8.70982 65.9128 8.67919 65.7778 8.66105 65.682C8.63609 65.5504 8.62112 65.4153 8.61154 65.2954C8.59236 65.0551 8.59064 64.8186 8.59064 64.6859C8.59064 64.4328 8.54597 64.1762 8.48251 63.8345C8.48028 63.8225 8.47803 63.8104 8.47576 63.7982C8.41802 63.488 8.34466 63.0938 8.34466 62.6817C8.34466 62.018 8.29483 61.411 8.169 60.804C8.1636 60.7779 8.15762 60.7496 8.15122 60.7193C8.09394 60.4484 8.0035 60.0205 8.00037 59.6426C8.00006 59.6402 7.99965 59.6373 7.99913 59.6338C7.99592 59.6123 7.99039 59.5821 7.98227 59.544C7.96601 59.4677 7.9452 59.3865 7.92897 59.3256C7.8532 59.0413 7.8527 58.776 7.8527 58.5941C7.8527 58.1035 8.25272 57.7057 8.74616 57.7057ZM8.76514 65.9998C8.76517 65.9998 8.76537 66.0012 8.76563 66.0045C8.76524 66.0015 8.76511 65.9999 8.76514 65.9998ZM16.5885 67.988C16.5882 67.9881 16.5878 67.9882 16.5875 67.9882C16.6021 67.9844 16.6045 67.9846 16.5885 67.988ZM9.98404 77.9019C9.98403 77.9019 9.98401 77.901 9.984 77.8992L9.98404 77.9019ZM8.09081 74.7903C8.09082 74.7903 8.09088 74.7908 8.09099 74.7918C8.09085 74.7908 8.0908 74.7903 8.09081 74.7903ZM10.4253 65.3895C10.4253 65.3895 10.4251 65.389 10.4248 65.3878C10.4251 65.3889 10.4253 65.3895 10.4253 65.3895Z" fill="white"/>
<path d="M48.3475 1.61218L48.9371 16.8733C49.1238 21.7052 52.9189 25.6215 57.7427 25.9601L66.8883 26.602L57.7427 27.2439C52.9189 27.5825 49.1238 31.4987 48.9371 36.3307L48.3475 51.5918L47.7578 36.3307C47.5711 31.4987 43.7761 27.5825 38.9522 27.2439L29.8066 26.602L38.9522 25.9601C43.7761 25.6215 47.5711 21.7052 47.7578 16.8733L48.3475 1.61218Z" fill="white"/>
<path fill-rule="evenodd" clip-rule="evenodd" d="M48.3475 1.61218L47.7578 16.8733C47.7572 16.8885 47.7566 16.9037 47.756 16.9189C47.6793 18.6866 47.1196 20.3302 46.2037 21.7191C45.4813 22.8147 44.5373 23.7517 43.4338 24.466C42.1526 25.2955 40.6565 25.8247 39.0428 25.9533C39.0127 25.9557 38.9825 25.9579 38.9522 25.9601L29.8066 26.602L38.9522 27.2439C38.9825 27.246 39.0127 27.2483 39.0428 27.2507C40.6565 27.3793 42.1526 27.9085 43.4338 28.7379C44.5373 29.4523 45.4813 30.3893 46.2037 31.4848C47.1196 32.8737 47.6793 34.5174 47.756 36.285C47.7566 36.3002 47.7572 36.3154 47.7578 36.3307L48.3475 51.5918L48.9371 36.3307C48.9377 36.3154 48.9383 36.3002 48.939 36.285C49.0157 34.5174 49.5753 32.8737 50.4912 31.4848C51.2136 30.3893 52.1576 29.4523 53.2611 28.7379C54.5423 27.9085 56.0384 27.3793 57.6521 27.2507C57.6822 27.2483 57.7124 27.246 57.7427 27.2439L66.8883 26.602L57.7427 25.9601C57.7124 25.9579 57.6822 25.9557 57.6521 25.9533C56.0384 25.8247 54.5423 25.2955 53.2611 24.466C52.1576 23.7517 51.2136 22.8147 50.4912 21.7191C49.5753 20.3302 49.0157 18.6866 48.939 16.9189C48.9383 16.9037 48.9377 16.8885 48.9371 16.8733L48.3475 1.61218ZM48.3475 25.1575C47.9019 25.6753 47.417 26.1583 46.8971 26.602C47.417 27.0456 47.9019 27.5287 48.3475 28.0464C48.793 27.5287 49.2779 27.0456 49.7978 26.602C49.2779 26.1583 48.793 25.6753 48.3475 25.1575Z" fill="white"/>
<path fill-rule="evenodd" clip-rule="evenodd" d="M47.2367 0C48.2951 0 49.1531 0.830514 49.1531 1.855C49.1531 3.99227 49.1265 6.13346 49.1002 8.25949L49.1001 8.26063C49.0737 10.3901 49.0475 12.5042 49.0475 14.6065C49.0475 15.3123 48.9887 15.9857 48.9374 16.573L48.9352 16.598C48.8814 17.2143 48.8365 17.7389 48.8365 18.2655C48.8365 18.336 48.8366 18.4085 48.8367 18.4827C48.8383 19.4549 48.8403 20.7223 48.5919 21.8889C48.5571 22.0525 48.5252 22.29 48.5174 22.436C48.4859 23.0279 48.2285 23.47 48.1408 23.6206L48.1366 23.6278C48.1256 23.6468 48.1126 23.6688 48.1014 23.6876C47.9467 24.1818 47.7292 24.5566 47.4833 24.8787C47.3785 25.016 47.2686 25.1428 47.1956 25.227C47.1891 25.2345 47.183 25.2416 47.1771 25.2483C47.095 25.3432 47.0382 25.41 46.9819 25.4834C46.5536 26.0423 45.9804 26.2958 45.774 26.3871C45.7689 26.3894 45.7641 26.3915 45.7595 26.3935C45.687 26.4257 45.647 26.4429 45.6207 26.4542C45.6109 26.4585 45.603 26.4619 45.5959 26.4649C45.3634 26.6408 45.136 26.752 44.9998 26.8145C44.8729 26.8727 44.7254 26.9317 44.6435 26.9645C44.6412 26.9654 44.6389 26.9663 44.6367 26.9672C44.9916 27.1691 45.3415 27.4131 45.6922 27.706C46.182 28.115 46.5033 28.6238 46.6734 28.8933L46.6793 28.9026C46.7081 28.9481 46.7333 28.9883 46.7561 29.0247C46.8185 29.1241 46.863 29.195 46.913 29.2688C46.9426 29.3124 46.9651 29.3433 46.9823 29.3654C46.9994 29.3874 47.0073 29.3955 47.0063 29.3946C47.3878 29.7928 47.6623 30.2954 47.8363 30.6679C48.0217 31.065 48.1873 31.5203 48.2753 31.9336C48.2748 31.9312 48.2752 31.9326 48.2767 31.9389C48.2803 31.9533 48.2902 31.9932 48.3102 32.0697C48.335 32.1646 48.3677 32.287 48.4064 32.4306C48.4309 32.5218 48.4578 32.6214 48.4861 32.7262C48.5454 32.9458 48.6108 33.188 48.6735 33.423C48.7657 33.7689 48.8582 34.1222 48.9237 34.394C48.9551 34.5244 48.9877 34.666 49.0101 34.7875C49.0192 34.8367 49.0389 34.9459 49.0477 35.0694L49.0479 35.0718C49.051 35.116 49.0633 35.2868 49.0307 35.4961C49.0167 35.5857 48.9698 35.8642 48.7835 36.1691C48.5629 36.5301 48.0239 37.0816 47.1312 37.0816C46.1184 37.0816 45.2891 36.3211 45.2196 35.3578C45.2125 35.3263 45.2031 35.2863 45.1912 35.2367C45.1368 35.0109 45.0542 34.6942 44.9624 34.3503C44.9145 34.1704 44.8611 33.9729 44.8084 33.7777C44.6796 33.3005 44.5546 32.8376 44.5215 32.6824C44.5043 32.6013 44.4442 32.411 44.3438 32.1959C44.297 32.0959 44.2519 32.0129 44.2146 31.9527C44.1968 31.9241 44.1848 31.9072 44.1794 31.8998C43.9807 31.6896 43.825 31.4758 43.7091 31.3049C43.6182 31.1709 43.5258 31.0235 43.4564 30.9127C43.4391 30.8851 43.4233 30.8599 43.4092 30.8376C43.242 30.5727 43.1856 30.5138 43.1862 30.5132C43.1863 30.5131 43.1872 30.5139 43.1888 30.5152C42.6906 30.0992 42.3171 29.9556 41.8487 29.8799C41.3297 29.7961 40.7435 29.7975 39.7554 29.7999C39.5757 29.8004 39.3828 29.8008 39.1746 29.8008C37.7961 29.8008 36.3323 29.5947 35.0343 29.4119L34.9633 29.4019C33.5821 29.2075 32.3775 29.0416 31.3035 29.0416C31.1565 29.0416 30.9943 29.0379 30.8393 29.0228C30.7645 29.0154 30.6452 29.0012 30.5092 28.9694C30.5073 28.969 30.5052 28.9685 30.5029 28.968C30.424 28.9498 30.0555 28.8647 29.7024 28.5824C29.4898 28.4125 29.1627 28.0733 29.0431 27.5323C28.9172 26.9626 29.0893 26.4831 29.2738 26.1841C29.5543 25.7296 29.9582 25.5228 30.0284 25.4869C30.0309 25.4856 30.0331 25.4845 30.0347 25.4836C30.2605 25.366 30.4779 25.3077 30.5483 25.2889L30.5493 25.2886C30.8876 25.198 31.4361 25.1113 31.8311 25.1113H33.5194C33.9676 25.1113 34.4616 25.0604 35.0628 24.9866C35.1451 24.9765 35.2302 24.9659 35.3175 24.955C35.8278 24.8912 36.4164 24.8176 36.9924 24.7842C37.3336 24.7644 37.6943 24.6958 38.2216 24.5956C38.2612 24.588 38.3018 24.5803 38.3434 24.5724C38.8749 24.4716 39.5852 24.3404 40.3253 24.3404C40.3464 24.3404 40.423 24.3353 40.5952 24.2912C40.6778 24.2701 40.7686 24.2438 40.8789 24.2101C40.9102 24.2006 40.9502 24.1882 40.9941 24.1747C41.075 24.1497 41.1688 24.1208 41.2442 24.0983C41.4488 24.0373 41.6336 24.0111 41.7582 23.9976C41.8886 23.9836 42.01 23.978 42.1019 23.975C42.1799 23.9724 42.2615 23.9712 42.3238 23.9702C42.3272 23.9701 42.3304 23.9701 42.3337 23.97C42.4325 23.9003 42.523 23.8461 42.596 23.8052C42.8025 23.6895 43.0064 23.6059 43.1199 23.5598C43.1708 23.5391 43.2089 23.5238 43.2388 23.5118C43.2706 23.499 43.2932 23.4899 43.3122 23.4821C43.5052 23.3386 43.6882 23.2406 43.8192 23.1762C43.9005 23.1363 43.9755 23.1028 44.0309 23.0784C44.049 23.0704 44.063 23.0643 44.0744 23.0593C44.1369 22.9841 44.1931 22.919 44.239 22.866C44.3341 22.7561 44.3708 22.7133 44.4011 22.6736C44.4126 22.6585 44.4178 22.6506 44.4198 22.6476L44.4212 22.6454L44.4212 22.6453C44.4213 22.6452 44.4213 22.6452 44.4212 22.6453L44.4214 22.645L44.422 22.6437L44.4251 22.6359C44.4281 22.6282 44.4336 22.6128 44.4405 22.5875C44.5092 22.3364 44.609 22.1394 44.6704 22.0264C44.6853 21.9991 44.6998 21.9733 44.7131 21.9501C44.741 21.6745 44.7865 21.3826 44.8381 21.1401C45.0041 20.3603 45.004 19.4488 45.0038 18.3659C45.0038 18.3326 45.0038 18.2991 45.0038 18.2655C45.0038 17.5708 45.0621 16.9041 45.1131 16.3208L45.1161 16.2854C45.1699 15.6705 45.2149 15.1412 45.2149 14.6065C45.2149 12.4819 45.2413 10.3492 45.2676 8.22724L45.2678 8.21498C45.2942 6.08523 45.3204 3.9663 45.3204 1.855C45.3204 0.830514 46.1783 0 47.2367 0ZM44.8046 21.794C44.8049 21.7936 44.8044 21.7944 44.8032 21.7967C44.804 21.7952 44.8045 21.7942 44.8046 21.794ZM43.3702 23.4562C43.3704 23.4562 43.3672 23.4578 43.3602 23.4611C43.3665 23.4578 43.3699 23.4562 43.3702 23.4562ZM45.2374 35.441C45.2388 35.4489 45.2384 35.4476 45.2369 35.4388C45.2371 35.4396 45.2372 35.4403 45.2374 35.441ZM46.1319 33.6435C46.3941 33.4855 46.7261 33.3716 47.1312 33.3716C46.765 33.3716 46.4229 33.471 46.1319 33.6435Z" fill="white"/>
<path fill-rule="evenodd" clip-rule="evenodd" d="M47.6591 4.03027C48.7118 4.03027 49.5652 4.87874 49.5652 5.92538C49.5652 6.32136 49.58 6.43753 49.6007 6.51516C49.641 6.6661 49.7044 6.91096 49.7589 7.16665C49.8034 7.37573 49.88 7.75912 49.88 8.11948C49.88 8.51913 49.9932 9.06418 50.1377 9.76015C50.1455 9.79793 50.1535 9.83614 50.1615 9.87481C50.4934 11.4761 50.6147 13.0352 50.6147 14.6455C50.6147 15.1517 50.708 15.6769 50.8454 16.4166L50.8528 16.4568C50.9788 17.1346 51.1395 17.9991 51.1395 18.9212C51.1395 19.1815 51.1435 19.5639 51.1721 19.9216C51.1864 20.1008 51.2046 20.2436 51.2237 20.3445C51.2273 20.3635 51.2305 20.3787 51.2332 20.3904C51.4646 20.8795 51.4973 21.3303 51.5086 21.5501C51.5359 21.5887 51.5648 21.6309 51.5929 21.6746C51.6833 21.8153 51.8239 22.0585 51.9096 22.3802C52.055 22.9257 52.5718 23.4234 53.3585 23.6733L52.7784 25.4785L53.3585 23.6733C53.9964 23.876 54.7046 24.0309 55.2246 24.0619C55.7199 24.0914 56.1928 24.1929 56.5131 24.2616C56.5337 24.266 56.5537 24.2703 56.573 24.2745C56.9475 24.3544 57.1455 24.3908 57.312 24.3977C57.3614 24.3997 57.4141 24.4005 57.4995 24.4017C57.5194 24.402 57.541 24.4023 57.5647 24.4026C57.6749 24.4043 57.8227 24.407 57.9787 24.4164C58.2255 24.4312 58.6647 24.469 59.1185 24.645C59.1406 24.647 59.1673 24.6492 59.2053 24.6522C59.2104 24.6526 59.2157 24.653 59.2213 24.6534C59.3127 24.6606 59.4861 24.6743 59.6666 24.7044C59.8667 24.7378 60.1471 24.8017 60.4473 24.9447C60.4463 24.9443 60.4458 24.944 60.4458 24.944C60.4459 24.9437 60.4955 24.9639 60.6575 25.0047C60.7132 25.0188 60.7591 25.0298 60.8138 25.0429C60.851 25.0519 60.8923 25.0618 60.9435 25.0743C61.0512 25.1006 61.1856 25.1344 61.3249 25.1759L60.9882 26.2937L61.3249 25.1759C61.5762 25.2507 61.8144 25.3405 62.0059 25.4147C62.0772 25.4424 62.1403 25.4671 62.1988 25.4901C62.317 25.5365 62.4163 25.5755 62.5265 25.6159C62.6788 25.6717 62.7893 25.7062 62.8748 25.7268C62.9501 25.7448 62.9826 25.7462 62.9833 25.7463C62.9833 25.7463 62.9829 25.7463 62.982 25.7463C63.6556 25.7463 64.1651 25.7551 64.5303 25.7727C64.7097 25.7813 64.8847 25.7934 65.0402 25.8126C65.1166 25.822 65.2183 25.8367 65.3281 25.8612L65.3303 25.8617C65.4002 25.8773 65.6496 25.9328 65.9177 26.0859C66.0482 26.1605 66.3613 26.3562 66.6018 26.7434C66.9027 27.2277 66.9847 27.849 66.7608 28.429C66.5816 28.893 66.2734 29.1551 66.1438 29.2555C65.9909 29.374 65.8511 29.4456 65.7739 29.4822C65.523 29.6013 65.2704 29.6545 65.1893 29.6716L65.183 29.673C64.9405 29.7243 64.6315 29.7675 64.3381 29.8035C63.1646 29.9474 61.1645 30.0991 60.6497 30.0991C60.4763 30.0991 60.2575 30.1338 59.8433 30.2177C59.815 30.2234 59.7852 30.2295 59.7541 30.2359C59.4047 30.3074 58.8878 30.4133 58.3615 30.435C58.1672 30.443 57.9224 30.4587 57.6535 30.476C57.1302 30.5096 56.5154 30.5491 56.0027 30.5491C55.8719 30.5491 55.6724 30.5844 55.2546 30.7071C55.2028 30.7223 55.1441 30.74 55.0799 30.7595C54.7325 30.8646 54.2205 31.0195 53.7216 31.0959C53.6135 31.1124 53.5022 31.1245 53.415 31.1333C53.352 31.1397 53.2801 31.1464 53.2126 31.1528C53.1856 31.1553 53.1593 31.1578 53.1345 31.1602C52.9439 31.1783 52.7703 31.1966 52.6129 31.2206C52.5668 31.2276 52.5257 31.2347 52.4895 31.2415C52.385 31.3271 52.2881 31.3913 52.2171 31.4353C52.1684 31.4655 52.1229 31.4917 52.0852 31.5126C51.9734 31.6805 51.8656 31.8635 51.7572 32.0668C51.4309 32.679 51.1893 33.192 51.1061 33.5935C51.0254 33.9826 50.8784 34.5198 50.6569 35.0056C50.6568 35.011 50.6567 35.0167 50.6565 35.0228C50.6561 35.0397 50.6556 35.0595 50.6548 35.0861C50.6533 35.1405 50.651 35.2137 50.6461 35.2936C50.6364 35.4503 50.6143 35.6815 50.5453 35.9405C50.4022 36.4775 50.2998 37.1102 50.2998 37.5992C50.2998 37.9008 50.3363 38.2208 50.3911 38.6719L50.3961 38.7133C50.4443 39.1093 50.5064 39.6201 50.5096 40.1503C50.5099 40.1518 50.5101 40.1534 50.5104 40.1551C50.5161 40.1883 50.527 40.2393 50.5445 40.305C50.5809 40.442 50.6273 40.5738 50.6575 40.6464L50.0731 40.8859L50.6575 40.6464C50.7919 40.9708 50.8327 41.2737 50.8486 41.4673C50.8654 41.6731 50.8616 41.8632 50.8555 42.0029C50.8504 42.1213 50.8415 42.2419 50.8354 42.3246C50.8344 42.3382 50.8335 42.3508 50.8327 42.3621C50.8293 42.4087 50.8272 42.4411 50.8258 42.4669C50.8244 42.4933 50.8246 42.4999 50.8246 42.4938C50.8246 42.9452 50.7935 43.3591 50.7679 43.6984L50.7668 43.7135C50.7398 44.073 50.7196 44.3491 50.7196 44.6316C50.7196 45.2223 50.5896 46.1861 50.4832 46.8134C50.4323 47.1136 50.3623 47.4868 50.2812 47.7491L50.2804 47.7519C50.264 47.8047 50.2083 47.9852 50.1007 48.1787L50.0978 48.1839C50.0607 48.2511 49.8809 48.5769 49.5055 48.8349C49.2784 48.9911 48.8719 49.1951 48.3317 49.1712C47.7672 49.1463 47.347 48.8861 47.093 48.6441C46.7023 48.2718 46.5872 47.8404 46.5667 47.7636C46.566 47.7609 46.5654 47.7587 46.5649 47.7569C46.526 47.6147 46.5107 47.4953 46.5039 47.4343C46.4896 47.3046 46.4877 47.185 46.4877 47.107V44.7441C46.4877 44.5319 46.4466 44.2796 46.3606 43.806L46.3538 43.7684C46.2797 43.3609 46.1729 42.7734 46.1729 42.1562C46.1729 42.035 46.1801 41.9123 46.1864 41.8195C46.1932 41.7201 46.2022 41.612 46.2107 41.5115L46.2141 41.4708C46.2308 41.2731 46.2467 41.084 46.2567 40.9004C46.2632 40.7822 46.2658 40.6879 46.2659 40.6157C46.1682 40.3945 46.1188 40.1907 46.0918 40.0364C46.0465 39.7783 46.0449 39.5465 46.048 39.3983C46.0505 39.2769 46.0588 39.1469 46.0635 39.0733C46.0643 39.0597 46.0651 39.048 46.0657 39.0387C46.0679 39.0009 46.0688 38.9791 46.0692 38.9691C46.0558 38.7564 46.0028 38.4311 45.9545 38.263C45.9099 38.1074 45.8847 37.965 45.8691 37.855C45.8533 37.7428 45.8439 37.6379 45.8378 37.5518C45.8315 37.4654 45.8274 37.3819 45.8243 37.315C45.8234 37.2951 45.8226 37.2769 45.8218 37.26C45.8197 37.2135 45.818 37.176 45.8158 37.1364C45.8156 37.1329 45.8154 37.1296 45.8152 37.1263C45.6909 36.8463 45.6537 36.5947 45.6403 36.4418C45.635 36.3816 45.6324 36.3236 45.6316 36.27C45.5565 36.1133 45.4729 35.9557 45.3703 35.7754C44.8521 34.8643 45.1749 33.7081 46.0912 33.1929C46.4853 32.9714 46.925 32.9044 47.3394 32.9726C47.3512 32.9253 47.3624 32.877 47.3724 32.8285C47.5797 31.8286 48.0789 30.8735 48.3888 30.2921C48.6108 29.8756 48.8647 29.4557 49.1719 29.0439C49.3704 28.7779 49.5908 28.5974 49.7565 28.481C49.8845 28.3911 50.0064 28.3217 50.0864 28.2782C50.4657 27.928 50.8869 27.7665 51.099 27.6934C51.4323 27.5785 51.7719 27.5144 52.0338 27.4744C52.2333 27.4439 52.4294 27.4215 52.5981 27.4042C52.4599 27.3648 52.3262 27.3244 52.1983 27.2837C50.6803 26.8015 48.9554 25.6378 48.3026 23.6157C48.2563 23.5543 48.1903 23.4639 48.1273 23.3641C48.0339 23.2161 47.9 22.9763 47.8166 22.6634C47.753 22.4249 47.7292 22.2143 47.7178 22.0635C47.7121 21.9887 47.709 21.921 47.7069 21.8721C47.7063 21.857 47.7058 21.8446 47.7054 21.8338C47.5816 21.5385 47.5163 21.2506 47.4775 21.0463C47.4243 20.7655 47.3924 20.4774 47.3719 20.2215C47.331 19.7089 47.3274 19.2044 47.3274 18.9212C47.3274 18.3812 47.2321 17.8338 47.0967 17.1049C47.0919 17.0794 47.0871 17.0536 47.0823 17.0275C46.9591 16.3656 46.8026 15.5248 46.8026 14.6455C46.8026 13.2298 46.6963 11.9349 46.4279 10.6398C46.4163 10.5842 46.4036 10.5238 46.3899 10.4593C46.2677 9.88123 46.0748 8.96847 46.0681 8.16215C46.0675 8.15712 46.0666 8.15087 46.0655 8.14334C46.0586 8.09764 46.0468 8.0332 46.0295 7.95193C45.9948 7.78908 45.9504 7.61587 45.9158 7.48594C45.7542 6.87944 45.7531 6.31355 45.7531 5.92538C45.7531 4.87874 46.6065 4.03027 47.6591 4.03027ZM47.6996 21.7243C47.6997 21.7242 47.7001 21.7273 47.7007 21.7342C47.6998 21.7279 47.6996 21.7244 47.6996 21.7243ZM64.3895 25.9658C64.3887 25.9659 64.388 25.9661 64.3872 25.9663C64.4185 25.958 64.4235 25.9586 64.3895 25.9658ZM50.2999 47.1153C50.2999 47.1153 50.2999 47.1135 50.2998 47.1096L50.2999 47.1153ZM46.261 40.4773C46.2611 40.4773 46.2612 40.4784 46.2614 40.4806C46.2611 40.4785 46.261 40.4773 46.261 40.4773ZM51.2412 20.4223C51.2412 20.4223 51.2408 20.4211 51.2401 20.4187C51.2409 20.421 51.2412 20.4222 51.2412 20.4223Z" fill="white"/>
</svg>
