<svg width="176" height="176" viewBox="0 0 176 176" fill="none" xmlns="http://www.w3.org/2000/svg">
<g filter="url(#filter0_d_1_4524)">
<path d="M88 18L97.9886 31.7838L112.492 22.8717L116.445 39.4288L133.255 36.7452L130.571 53.5548L147.128 57.5083L138.216 72.0114L152 82L138.216 91.9886L147.128 106.492L130.571 110.445L133.255 127.255L116.445 124.571L112.492 141.128L97.9886 132.216L88 146L78.0114 132.216L63.5083 141.128L59.5548 124.571L42.7452 127.255L45.4288 110.445L28.8717 106.492L37.7838 91.9886L24 82L37.7838 72.0114L28.8717 57.5083L45.4288 53.5548L42.7452 36.7452L59.5548 39.4288L63.5083 22.8717L78.0114 31.7838L88 18Z" fill="#5EBA83"/>
<path d="M69.2098 76.9836L69.8653 78.527L72.7877 77.2859L75.8934 84.5983L77.7531 83.8085L74.6475 76.496L77.5699 75.2549L76.9144 73.7114L69.2098 76.9836Z" fill="white"/>
<path d="M86.1814 80.3783C88.8888 79.2284 89.9476 76.6582 88.7977 73.9509C87.6264 71.1929 85.0202 70.1195 82.3128 71.2694C79.6054 72.4192 78.5681 75.04 79.7394 77.798C80.8893 80.5053 83.474 81.5281 86.1814 80.3783ZM85.5259 78.8348C83.8559 79.5441 82.3656 78.8479 81.5865 77.0135C80.7806 75.1158 81.2983 73.5221 82.9683 72.8128C84.6383 72.1036 86.1447 72.8376 86.9506 74.7353C87.7297 76.5698 87.1958 78.1256 85.5259 78.8348Z" fill="white"/>
<path d="M88.9156 68.6144L92.6768 77.4703L94.5365 76.6805L93.2899 73.7454L95.7316 72.7084C97.5787 71.9239 98.3407 70.1667 97.5992 68.4209C96.8577 66.675 95.0641 66.0031 93.2171 66.7876L88.9156 68.6144ZM92.6344 72.2019L91.4309 69.3681L93.6828 68.4117C94.5684 68.0355 95.3687 68.3378 95.7395 69.2107C96.1102 70.0836 95.7719 70.8694 94.8863 71.2455L92.6344 72.2019Z" fill="white"/>
<path d="M73.8598 98.5286C75.3828 97.5084 75.9037 96.0627 75.2535 94.5318C74.5067 92.7733 72.9095 92.2122 70.9612 93.0397L66.179 95.0707L69.9401 103.927L71.7998 103.137L70.5479 100.189L72.4203 99.3938C73.774 98.8188 74.2707 99.25 75.6205 101.514L77.7839 100.595C76.3271 98.4662 75.6249 97.973 73.8598 98.5286ZM68.6942 95.8243L71.2245 94.7497C72.2745 94.3037 73.0588 94.568 73.4241 95.4283C73.7895 96.2885 73.3155 97.1768 72.2528 97.6281L69.887 98.6329L68.6942 95.8243Z" fill="white"/>
<path d="M88.8685 95.8876L81.9572 88.3696L79.098 89.5839L79.709 99.7777L81.594 98.9771L81.4229 96.6754L85.3068 95.0259L86.8569 96.7419L88.8685 95.8876ZM80.9694 90.1928L84.2243 93.8131L81.3145 95.0489L80.9694 90.1928Z" fill="white"/>
<path d="M84.9614 87.0937L85.6169 88.6372L88.5393 87.396L91.6449 94.7084L93.5047 93.9186L90.399 86.6062L93.3215 85.365L92.666 83.8215L84.9614 87.0937Z" fill="white"/>
<path d="M98.5858 87.4598L103.102 85.5417L102.447 83.9982L97.9303 85.9164L97.0276 83.791L101.936 81.7062L101.281 80.1628L94.5124 83.0374L98.2735 91.8932L105.168 88.9649L104.513 87.4215L99.4777 89.5599L98.5858 87.4598Z" fill="white"/>
<path d="M103.506 79.2177L107.267 88.0736L110.493 86.7034C113.643 85.3655 114.698 82.8567 113.572 80.1693C112.446 77.4818 109.895 76.5043 106.694 77.8637L103.506 79.2177ZM108.471 85.7403L106.021 79.9713L107.552 79.3211C109.412 78.5313 110.976 79.2259 111.718 80.9717C112.454 82.705 111.875 84.2949 110.053 85.0686L108.471 85.7403Z" fill="white"/>
</g>
<defs>
<filter id="filter0_d_1_4524" x="0" y="0" width="176" height="176" filterUnits="userSpaceOnUse" color-interpolation-filters="sRGB">
<feFlood flood-opacity="0" result="BackgroundImageFix"/>
<feColorMatrix in="SourceAlpha" type="matrix" values="0 0 0 0 0 0 0 0 0 0 0 0 0 0 0 0 0 0 127 0" result="hardAlpha"/>
<feOffset dy="6"/>
<feGaussianBlur stdDeviation="12"/>
<feColorMatrix type="matrix" values="0 0 0 0 0 0 0 0 0 0 0 0 0 0 0 0 0 0 0.1 0"/>
<feBlend mode="normal" in2="BackgroundImageFix" result="effect1_dropShadow_1_4524"/>
<feBlend mode="normal" in="SourceGraphic" in2="effect1_dropShadow_1_4524" result="shape"/>
</filter>
</defs>
</svg>
