<svg width="307" height="227" viewBox="0 0 307 227" fill="none" xmlns="http://www.w3.org/2000/svg">
<path d="M312.941 2.39185C323.907 22.1689 325.806 45.0068 322.008 67.015C320.056 77.8967 317.113 88.5773 313.217 98.9233C309.438 109.255 305.639 121.333 299.481 130.451C295.692 135.983 290.021 140.669 283.329 141.656C274.528 142.929 265.825 137.572 260.62 130.362C245.844 109.87 249.48 81.6202 240.005 58.9967C237.882 53.9265 233.3 48.2919 228.07 49.9844C225.429 50.835 223.724 53.3052 222.29 55.6988C213.028 70.8395 205.702 87.1602 195.422 101.683C183.36 118.74 165.354 135.161 145.731 143.01C138.402 145.941 130.213 147.262 122.565 145.312C112.458 142.743 105.213 135.264 97.4015 128.874C88.9938 122.028 78.6202 118.045 67.7913 117.505C46.7392 116.572 27.5549 128.719 10.0105 140.401" stroke="#323232" stroke-width="4.13" stroke-linecap="round" stroke-linejoin="round"/>
<path d="M43.5625 144.716C41.0291 142.253 38.0462 140.301 34.776 138.964C23.329 134.341 19.0489 134.548 10.0455 140.398" stroke="#323232" stroke-width="4.13" stroke-linecap="round" stroke-linejoin="round"/>
<path d="M10.0454 140.398C12.9046 138.497 15.6241 136.79 17.3474 133.728C18.3929 131.799 19.1282 129.717 19.5262 127.56C20.6554 121.92 20.0589 115.83 17.1996 110.846" stroke="#323232" stroke-width="4.13" stroke-linecap="round" stroke-linejoin="round"/>
</svg>
