<svg width="269" height="221" viewBox="0 0 269 221" fill="none" xmlns="http://www.w3.org/2000/svg">
<path d="M-23.7931 127.629C-18.8043 146.605 -7.68655 163.339 8.00605 175.492C30.6135 192.891 78.0371 208.221 99.3866 177.828C114.442 156.378 104.602 129.495 100.305 107.232C97.0102 90.179 96.6743 70.7605 108.109 56.641C117.336 45.2538 132.358 39.7686 146.875 36.832C178.858 30.3025 210.728 34.1086 240.438 44.6946" stroke="white" stroke-width="4.13" stroke-linecap="round" stroke-linejoin="round"/>
<path d="M240.397 44.6631C234.195 42.7399 228.723 39.2239 224.556 34.4843C220.388 29.7447 217.679 23.9564 216.713 17.7267" stroke="white" stroke-width="4.13" stroke-linecap="round" stroke-linejoin="round"/>
<path d="M240.397 44.6631C237.067 43.9685 233.813 43.0648 230.351 43.0306C222.655 42.9399 214.991 46.8621 211.837 53.9848L211.552 54.6801" stroke="white" stroke-width="4.13" stroke-linecap="round" stroke-linejoin="round"/>
</svg>
