<svg width="66" height="79" viewBox="0 0 66 79" fill="none" xmlns="http://www.w3.org/2000/svg">
<path d="M19.3472 28.6123L19.9368 43.8734C20.1235 48.7054 23.9186 52.6216 28.7424 52.9602L37.888 53.6021L28.7424 54.244C23.9186 54.5826 20.1235 58.4989 19.9368 63.3308L19.3472 78.5919L18.7576 63.3308C18.5709 58.4988 14.7758 54.5826 9.95199 54.244L0.806396 53.6021L9.95199 52.9602C14.7758 52.6216 18.5709 48.7053 18.7576 43.8734L19.3472 28.6123Z" fill="#0F3E4D"/>
<path fill-rule="evenodd" clip-rule="evenodd" d="M19.3472 28.6123L18.7576 43.8734C18.757 43.8886 18.7564 43.9039 18.7557 43.9191C18.679 45.6867 18.1194 47.3303 17.2035 48.7192C16.4811 49.8148 15.537 50.7518 14.4336 51.4662C13.1524 52.2956 11.6563 52.8248 10.0426 52.9534C10.0124 52.9558 9.98223 52.9581 9.95199 52.9602L0.806396 53.6021L9.95199 54.244C9.98223 54.2461 10.0124 54.2484 10.0426 54.2508C11.6563 54.3794 13.1524 54.9086 14.4336 55.738C15.537 56.4524 16.4811 57.3894 17.2035 58.485C18.1194 59.8739 18.679 61.5175 18.7557 63.2852C18.7564 63.3004 18.757 63.3156 18.7576 63.3308L19.3472 78.5919L19.9368 63.3308C19.9374 63.3156 19.9381 63.3004 19.9387 63.2851C20.0154 61.5175 20.5751 59.8739 21.4909 58.485C22.2134 57.3894 23.1574 56.4524 24.2608 55.738C25.542 54.9086 27.0382 54.3794 28.6518 54.2508C28.682 54.2484 28.7122 54.2461 28.7424 54.244L37.888 53.6021L28.7424 52.9602C28.7122 52.9581 28.682 52.9558 28.6518 52.9534C27.0382 52.8248 25.542 52.2956 24.2608 51.4662C23.1574 50.7518 22.2134 49.8148 21.4909 48.7192C20.5751 47.3303 20.0154 45.6867 19.9387 43.9191C19.9381 43.9039 19.9374 43.8886 19.9368 43.8734L19.3472 28.6123ZM19.3472 52.1576C18.9017 52.6754 18.4167 53.1584 17.8969 53.6021C18.4167 54.0458 18.9017 54.5288 19.3472 55.0466C19.7927 54.5288 20.2777 54.0458 20.7975 53.6021C20.2777 53.1584 19.7927 52.6754 19.3472 52.1576Z" fill="#0F3E4D"/>
<path fill-rule="evenodd" clip-rule="evenodd" d="M18.2367 27C19.2951 27 20.1531 27.8305 20.1531 28.855C20.1531 30.9923 20.1265 33.1335 20.1002 35.2595L20.1001 35.2606C20.0737 37.3901 20.0475 39.5042 20.0475 41.6065C20.0475 42.3123 19.9887 42.9857 19.9374 43.573L19.9352 43.598C19.8814 44.2143 19.8365 44.7389 19.8365 45.2655C19.8365 45.336 19.8366 45.4085 19.8367 45.4827C19.8383 46.4549 19.8403 47.7223 19.5919 48.8889C19.5571 49.0525 19.5252 49.29 19.5174 49.436C19.4859 50.0279 19.2285 50.47 19.1408 50.6206L19.1366 50.6278C19.1256 50.6468 19.1126 50.6688 19.1014 50.6876C18.9467 51.1818 18.7292 51.5566 18.4833 51.8787C18.3785 52.016 18.2686 52.1428 18.1956 52.227C18.1891 52.2345 18.183 52.2416 18.1771 52.2483C18.095 52.3432 18.0382 52.41 17.9819 52.4834C17.5536 53.0423 16.9804 53.2958 16.774 53.3871C16.7689 53.3894 16.7641 53.3915 16.7595 53.3935C16.687 53.4257 16.647 53.4429 16.6207 53.4542C16.6109 53.4585 16.603 53.4619 16.5959 53.4649C16.3634 53.6408 16.136 53.752 15.9998 53.8145C15.8729 53.8727 15.7254 53.9317 15.6435 53.9645C15.6412 53.9654 15.6389 53.9663 15.6367 53.9672C15.9916 54.1691 16.3415 54.4131 16.6922 54.706C17.182 55.115 17.5033 55.6238 17.6734 55.8933L17.6793 55.9026C17.7081 55.9481 17.7333 55.9883 17.7561 56.0247C17.8185 56.1241 17.863 56.195 17.913 56.2688C17.9426 56.3124 17.9651 56.3433 17.9823 56.3654C17.9994 56.3874 18.0073 56.3955 18.0063 56.3946C18.3878 56.7928 18.6623 57.2954 18.8363 57.6679C19.0217 58.065 19.1873 58.5203 19.2753 58.9336C19.2748 58.9312 19.2752 58.9326 19.2767 58.9389C19.2803 58.9533 19.2902 58.9932 19.3102 59.0697C19.335 59.1646 19.3677 59.287 19.4064 59.4306C19.4309 59.5218 19.4578 59.6214 19.4861 59.7262C19.5454 59.9458 19.6108 60.188 19.6735 60.423C19.7657 60.7689 19.8582 61.1222 19.9237 61.394C19.9551 61.5244 19.9877 61.666 20.0101 61.7875C20.0192 61.8367 20.0389 61.9459 20.0477 62.0694L20.0479 62.0718C20.051 62.116 20.0633 62.2868 20.0307 62.4961C20.0167 62.5857 19.9698 62.8642 19.7835 63.1691C19.5629 63.5301 19.0239 64.0816 18.1312 64.0816C17.1184 64.0816 16.2891 63.3211 16.2196 62.3578C16.2125 62.3263 16.2031 62.2863 16.1912 62.2367C16.1368 62.0109 16.0542 61.6942 15.9624 61.3503C15.9145 61.1704 15.8611 60.9729 15.8084 60.7777C15.6796 60.3005 15.5546 59.8376 15.5215 59.6824C15.5043 59.6013 15.4442 59.411 15.3438 59.1959C15.297 59.0959 15.2519 59.0129 15.2146 58.9527C15.1968 58.9241 15.1848 58.9072 15.1794 58.8998C14.9807 58.6896 14.825 58.4758 14.7091 58.3049C14.6182 58.1709 14.5258 58.0235 14.4564 57.9127C14.4391 57.8851 14.4233 57.8599 14.4092 57.8376C14.242 57.5727 14.1856 57.5138 14.1862 57.5132C14.1863 57.5131 14.1872 57.5139 14.1888 57.5152C13.6906 57.0992 13.3171 56.9556 12.8487 56.8799C12.3297 56.7961 11.7435 56.7975 10.7554 56.7999C10.5757 56.8004 10.3828 56.8008 10.1746 56.8008C8.7961 56.8008 7.33232 56.5947 6.03434 56.4119L5.96326 56.4019C4.58206 56.2075 3.37753 56.0416 2.30353 56.0416C2.15652 56.0416 1.99434 56.0379 1.83928 56.0228C1.7645 56.0154 1.6452 56.0012 1.50917 55.9694C1.50733 55.969 1.50522 55.9685 1.50285 55.968C1.42396 55.9498 1.05548 55.8647 0.702351 55.5824C0.489837 55.4125 0.162703 55.0733 0.0431126 54.5323C-0.0827977 53.9626 0.0892717 53.4831 0.273832 53.1841C0.554347 52.7296 0.9582 52.5228 1.02837 52.4869C1.03095 52.4856 1.03307 52.4845 1.03472 52.4836C1.26046 52.366 1.47791 52.3077 1.5483 52.2889L1.54928 52.2886C1.88762 52.198 2.43606 52.1113 2.83111 52.1113H4.5194C4.96759 52.1113 5.46161 52.0604 6.06283 51.9866C6.14513 51.9765 6.23017 51.9659 6.31751 51.955C6.82781 51.8912 7.41643 51.8176 7.99241 51.7842C8.33363 51.7644 8.69432 51.6958 9.22161 51.5956C9.26124 51.588 9.30182 51.5803 9.3434 51.5724C9.87488 51.4716 10.5852 51.3404 11.3253 51.3404C11.3464 51.3404 11.423 51.3353 11.5952 51.2912C11.6778 51.2701 11.7686 51.2438 11.8789 51.2101C11.9102 51.2006 11.9502 51.1882 11.9941 51.1747C12.075 51.1497 12.1688 51.1208 12.2442 51.0983C12.4488 51.0373 12.6336 51.0111 12.7582 50.9976C12.8886 50.9836 13.01 50.978 13.1019 50.975C13.1799 50.9724 13.2615 50.9712 13.3238 50.9702C13.3272 50.9701 13.3304 50.9701 13.3337 50.97C13.4325 50.9003 13.523 50.8461 13.596 50.8052C13.8025 50.6895 14.0064 50.6059 14.1199 50.5598C14.1708 50.5391 14.2089 50.5238 14.2388 50.5118C14.2706 50.499 14.2932 50.4899 14.3122 50.4821C14.5052 50.3386 14.6882 50.2406 14.8192 50.1762C14.9005 50.1363 14.9755 50.1028 15.0309 50.0784C15.049 50.0704 15.063 50.0643 15.0744 50.0593C15.1369 49.9841 15.1931 49.919 15.239 49.866C15.3341 49.7561 15.3708 49.7133 15.4011 49.6736C15.4126 49.6585 15.4178 49.6506 15.4198 49.6476L15.4212 49.6454L15.4212 49.6453C15.4213 49.6452 15.4213 49.6452 15.4212 49.6453L15.4214 49.645L15.422 49.6437L15.4251 49.6359C15.4281 49.6282 15.4336 49.6128 15.4405 49.5875C15.5092 49.3364 15.609 49.1394 15.6704 49.0264C15.6853 48.9991 15.6998 48.9733 15.7131 48.9501C15.741 48.6745 15.7865 48.3826 15.8381 48.1401C16.0041 47.3603 16.004 46.4488 16.0038 45.3659C16.0038 45.3326 16.0038 45.2991 16.0038 45.2655C16.0038 44.5708 16.0621 43.9041 16.1131 43.3208L16.1161 43.2854C16.1699 42.6705 16.2149 42.1412 16.2149 41.6065C16.2149 39.4819 16.2413 37.3492 16.2676 35.2272L16.2678 35.215C16.2942 33.0852 16.3204 30.9663 16.3204 28.855C16.3204 27.8305 17.1783 27 18.2367 27ZM15.8046 48.794C15.8049 48.7936 15.8044 48.7944 15.8032 48.7967C15.804 48.7952 15.8045 48.7942 15.8046 48.794ZM14.3702 50.4562C14.3704 50.4562 14.3672 50.4578 14.3602 50.4611C14.3665 50.4578 14.3699 50.4562 14.3702 50.4562ZM16.2374 62.441C16.2388 62.4489 16.2384 62.4476 16.2369 62.4388C16.2371 62.4396 16.2372 62.4403 16.2374 62.441ZM17.1319 60.6435C17.3941 60.4855 17.7261 60.3716 18.1312 60.3716C17.765 60.3716 17.4229 60.471 17.1319 60.6435Z" fill="#0F3E4D"/>
<path fill-rule="evenodd" clip-rule="evenodd" d="M18.6586 31.0308C19.7113 31.0308 20.5647 31.8792 20.5647 32.9259C20.5647 33.3219 20.5795 33.438 20.6002 33.5156C20.6405 33.6666 20.7039 33.9114 20.7584 34.1671C20.8029 34.3762 20.8796 34.7596 20.8796 35.12C20.8796 35.5196 20.9927 36.0647 21.1372 36.7606C21.1451 36.7984 21.153 36.8366 21.161 36.8753C21.4929 38.4766 21.6142 40.0357 21.6142 41.646C21.6142 42.1522 21.7075 42.6774 21.8449 43.4171L21.8524 43.4572C21.9783 44.1351 22.139 44.9996 22.139 45.9217C22.139 46.182 22.143 46.5644 22.1716 46.9221C22.1859 47.1013 22.2041 47.2441 22.2232 47.345C22.2268 47.3639 22.23 47.3792 22.2327 47.3909C22.4641 47.88 22.4968 48.3308 22.5081 48.5506C22.5354 48.5891 22.5643 48.6314 22.5924 48.6751C22.6828 48.8158 22.8234 49.059 22.9092 49.3807C23.0545 49.9262 23.5713 50.4239 24.358 50.6738L23.7779 52.479L24.358 50.6738C24.9959 50.8764 25.7041 51.0314 26.2241 51.0624C26.7194 51.0919 27.1923 51.1934 27.5126 51.2621C27.5332 51.2665 27.5532 51.2708 27.5725 51.2749C27.947 51.3549 28.145 51.3913 28.3115 51.3982C28.3609 51.4002 28.4136 51.401 28.4991 51.4022C28.5189 51.4025 28.5405 51.4028 28.5643 51.4031C28.6745 51.4048 28.8222 51.4075 28.9783 51.4169C29.225 51.4317 29.6642 51.4695 30.118 51.6455C30.1401 51.6475 30.1668 51.6496 30.2049 51.6527C30.2099 51.6531 30.2152 51.6535 30.2209 51.6539C30.3122 51.6611 30.4856 51.6748 30.6661 51.7049C30.8662 51.7383 31.1466 51.8022 31.4468 51.9452C31.4458 51.9447 31.4453 51.9445 31.4453 51.9445C31.4454 51.9442 31.495 51.9644 31.657 52.0052C31.7128 52.0193 31.7586 52.0303 31.8133 52.0434C31.8505 52.0523 31.8918 52.0622 31.943 52.0748C32.0507 52.101 32.1851 52.1348 32.3244 52.1763L31.9877 53.2941L32.3244 52.1763C32.5757 52.2512 32.8139 52.3409 33.0055 52.4152C33.0768 52.4429 33.1398 52.4676 33.1983 52.4906C33.3165 52.537 33.4158 52.576 33.526 52.6164C33.6783 52.6722 33.7888 52.7067 33.8744 52.7272C33.9496 52.7453 33.9821 52.7467 33.9828 52.7468C33.9828 52.7468 33.9824 52.7468 33.9815 52.7468C34.6551 52.7468 35.1646 52.7556 35.5299 52.7732C35.7092 52.7818 35.8842 52.7939 36.0397 52.8131C36.1161 52.8225 36.2178 52.8372 36.3276 52.8617L36.3299 52.8622C36.3997 52.8777 36.6491 52.9333 36.9172 53.0864C37.0477 53.1609 37.3608 53.3567 37.6013 53.7439C37.9022 54.2282 37.9842 54.8495 37.7603 55.4295C37.5812 55.8935 37.2729 56.1555 37.1433 56.256C36.9904 56.3745 36.8507 56.4461 36.7734 56.4827C36.5225 56.6018 36.27 56.655 36.1888 56.6721L36.1825 56.6735C35.94 56.7248 35.631 56.768 35.3376 56.804C34.1641 56.9479 32.164 57.0996 31.6492 57.0996C31.4758 57.0996 31.257 57.1342 30.8428 57.2182C30.8145 57.2239 30.7847 57.23 30.7536 57.2364C30.4042 57.3079 29.8873 57.4138 29.361 57.4355C29.1667 57.4435 28.9219 57.4592 28.653 57.4765C28.1297 57.5101 27.515 57.5496 27.0023 57.5496C26.8714 57.5496 26.672 57.5849 26.2541 57.7075C26.2023 57.7228 26.1437 57.7405 26.0794 57.7599C25.7321 57.865 25.22 58.02 24.7211 58.0964C24.613 58.1129 24.5017 58.125 24.4145 58.1338C24.3515 58.1401 24.2796 58.1469 24.2121 58.1533C24.1851 58.1558 24.1588 58.1583 24.134 58.1607C23.9434 58.1788 23.7698 58.197 23.6124 58.2211C23.5663 58.2281 23.5252 58.2351 23.489 58.242C23.3845 58.3276 23.2876 58.3918 23.2166 58.4358C23.168 58.466 23.1225 58.4921 23.0847 58.5131C22.9729 58.681 22.8651 58.864 22.7567 59.0673C22.4304 59.6795 22.1888 60.1924 22.1056 60.594C22.0249 60.9831 21.8779 61.5203 21.6564 62.0061C21.6563 62.0115 21.6562 62.0172 21.656 62.0233C21.6556 62.0402 21.6551 62.06 21.6544 62.0866C21.6529 62.141 21.6505 62.2142 21.6456 62.2941C21.6359 62.4508 21.6138 62.682 21.5448 62.941C21.4017 63.478 21.2994 64.1106 21.2994 64.5997C21.2994 64.9013 21.3358 65.2213 21.3906 65.6723L21.3956 65.7138C21.4438 66.1098 21.5059 66.6206 21.5091 67.1508C21.5094 67.1523 21.5096 67.1539 21.5099 67.1556C21.5156 67.1888 21.5265 67.2397 21.544 67.3055C21.5804 67.4425 21.6268 67.5742 21.657 67.6469L21.0726 67.8864L21.657 67.6469C21.7914 67.9713 21.8322 68.2741 21.8481 68.4678C21.8649 68.6736 21.8611 68.8637 21.855 69.0034C21.8499 69.1218 21.841 69.2424 21.835 69.3251C21.834 69.3387 21.833 69.3513 21.8322 69.3626C21.8289 69.4092 21.8267 69.4416 21.8253 69.4674C21.824 69.4938 21.8241 69.5004 21.8241 69.4943C21.8241 69.9456 21.793 70.3596 21.7675 70.6989L21.7663 70.7139C21.7393 71.0735 21.7192 71.3496 21.7192 71.6321C21.7192 72.2228 21.5891 73.1866 21.4827 73.8139C21.4318 74.1141 21.3619 74.4873 21.2807 74.7495L21.2799 74.7523C21.2635 74.8052 21.2078 74.9857 21.1002 75.1792L21.0973 75.1844C21.0602 75.2516 20.8804 75.5774 20.505 75.8354C20.2779 75.9916 19.8714 76.1956 19.3312 76.1717C18.7667 76.1467 18.3465 75.8866 18.0925 75.6445C17.7018 75.2723 17.5867 74.8409 17.5662 74.7641C17.5655 74.7614 17.5649 74.7592 17.5644 74.7574C17.5255 74.6152 17.5102 74.4958 17.5034 74.4348C17.4891 74.3051 17.4873 74.1855 17.4873 74.1075V71.7446C17.4873 71.5323 17.4461 71.2801 17.3601 70.8065L17.3533 70.7689C17.2792 70.3614 17.1724 69.7739 17.1724 69.1567C17.1724 69.0355 17.1796 68.9128 17.1859 68.8199C17.1927 68.7206 17.2017 68.6125 17.2102 68.512L17.2136 68.4713C17.2303 68.2735 17.2462 68.0845 17.2562 67.9009C17.2627 67.7827 17.2653 67.6883 17.2654 67.6162C17.1677 67.395 17.1184 67.1912 17.0913 67.0369C17.046 66.7787 17.0444 66.5469 17.0475 66.3988C17.05 66.2774 17.0583 66.1474 17.063 66.0738C17.0639 66.0602 17.0646 66.0485 17.0652 66.0392C17.0674 66.0013 17.0683 65.9796 17.0687 65.9696C17.0553 65.7568 17.0023 65.4316 16.954 65.2635C16.9094 65.1079 16.8842 64.9655 16.8687 64.8555C16.8528 64.7433 16.8435 64.6384 16.8373 64.5522C16.8311 64.4659 16.827 64.3824 16.8238 64.3154C16.8229 64.2956 16.8221 64.2774 16.8213 64.2605C16.8192 64.214 16.8175 64.1765 16.8153 64.1369C16.8151 64.1334 16.8149 64.1301 16.8147 64.1268C16.6904 63.8468 16.6533 63.5952 16.6398 63.4423C16.6345 63.3821 16.6319 63.3241 16.6311 63.2705C16.556 63.1137 16.4724 62.9562 16.3698 62.7759C15.8516 61.8648 16.1744 60.7086 17.0907 60.1934C17.4848 59.9718 17.9245 59.9049 18.3389 59.9731C18.3507 59.9258 18.3619 59.8775 18.3719 59.829C18.5792 58.8291 19.0784 57.874 19.3883 57.2925C19.6103 56.8761 19.8642 56.4562 20.1715 56.0444C20.3699 55.7784 20.5903 55.5979 20.756 55.4815C20.884 55.3916 21.0059 55.3222 21.0859 55.2787C21.4652 54.9285 21.8864 54.767 22.0985 54.6939C22.4318 54.579 22.7714 54.5149 23.0333 54.4749C23.2328 54.4444 23.4289 54.422 23.5976 54.4047C23.4594 54.3653 23.3257 54.3248 23.1978 54.2842C21.6799 53.802 19.9549 52.6383 19.3021 50.6162C19.2558 50.5548 19.1899 50.4644 19.1268 50.3645C19.0334 50.2166 18.8995 49.9768 18.8161 49.6639C18.7525 49.4254 18.7287 49.2148 18.7173 49.064C18.7116 48.9892 18.7085 48.9215 18.7065 48.8726C18.7058 48.8575 18.7053 48.845 18.7049 48.8343C18.5811 48.539 18.5158 48.2511 18.4771 48.0468C18.4238 47.766 18.3919 47.4779 18.3715 47.222C18.3305 46.7094 18.3269 46.2049 18.3269 45.9217C18.3269 45.3817 18.2316 44.8343 18.0962 44.1053C18.0914 44.0798 18.0866 44.054 18.0818 44.028C17.9586 43.3661 17.8021 42.5253 17.8021 41.646C17.8021 40.2303 17.6958 38.9354 17.4274 37.6403C17.4158 37.5847 17.4031 37.5243 17.3894 37.4598C17.2672 36.8817 17.0743 35.969 17.0676 35.1626C17.067 35.1576 17.0661 35.1514 17.065 35.1438C17.0581 35.0981 17.0463 35.0337 17.029 34.9524C16.9943 34.7896 16.9499 34.6164 16.9153 34.4864C16.7537 33.8799 16.7526 33.314 16.7526 32.9259C16.7526 31.8792 17.606 31.0308 18.6586 31.0308ZM18.6991 48.7248C18.6992 48.7246 18.6996 48.7278 18.7002 48.7347C18.6993 48.7284 18.6991 48.7249 18.6991 48.7248ZM35.389 52.9663C35.3883 52.9664 35.3875 52.9666 35.3867 52.9667C35.418 52.9585 35.423 52.9591 35.389 52.9663ZM21.2994 74.1158C21.2994 74.1158 21.2994 74.114 21.2994 74.1101L21.2994 74.1158ZM17.2606 67.4778C17.2606 67.4778 17.2607 67.4789 17.2609 67.4811C17.2607 67.4789 17.2605 67.4778 17.2606 67.4778ZM22.2407 47.4228C22.2407 47.4228 22.2403 47.4216 22.2396 47.4192C22.2404 47.4215 22.2407 47.4227 22.2407 47.4228Z" fill="#0F3E4D"/>
<path d="M56.9566 1.45996L57.233 8.61361C57.3205 10.8786 59.0995 12.7143 61.3606 12.873L65.6476 13.1739L61.3606 13.4748C59.0995 13.6335 57.3205 15.4693 57.233 17.7342L56.9566 24.8879L56.6802 17.7342C56.5927 15.4693 54.8138 13.6335 52.5526 13.4748L48.2656 13.1739L52.5526 12.873C54.8138 12.7143 56.5927 10.8786 56.6802 8.61361L56.9566 1.45996Z" fill="#0F3E4D"/>
<path fill-rule="evenodd" clip-rule="evenodd" d="M56.9566 1.45996L56.6802 8.61361C56.68 8.62074 56.6797 8.62787 56.6794 8.635C56.6434 9.46357 56.3811 10.234 55.9518 10.8851C55.6131 11.3986 55.1706 11.8379 54.6534 12.1727C54.0528 12.5615 53.3515 12.8096 52.5951 12.8698C52.581 12.871 52.5668 12.872 52.5526 12.873L48.2656 13.1739L52.5526 13.4748C52.5668 13.4758 52.581 13.4769 52.5951 13.478C53.3515 13.5383 54.0528 13.7864 54.6534 14.1751C55.1706 14.51 55.6131 14.9492 55.9518 15.4628C56.3811 16.1138 56.6434 16.8843 56.6794 17.7129C56.6797 17.72 56.68 17.7271 56.6802 17.7342L56.9566 24.8879L57.233 17.7342C57.2333 17.7271 57.2336 17.72 57.2339 17.7129C57.2699 16.8843 57.5322 16.1138 57.9615 15.4628C58.3001 14.9492 58.7427 14.51 59.2599 14.1751C59.8605 13.7864 60.5618 13.5383 61.3182 13.478C61.3323 13.4769 61.3465 13.4758 61.3606 13.4748L65.6476 13.1739L61.3606 12.873C61.3465 12.872 61.3323 12.871 61.3182 12.8698C60.5618 12.8096 59.8605 12.5615 59.2599 12.1727C58.7426 11.8379 58.3001 11.3986 57.9615 10.8851C57.5322 10.234 57.2698 9.46357 57.2339 8.635C57.2336 8.62787 57.2333 8.62074 57.233 8.61361L56.9566 1.45996ZM56.9566 12.4968C56.7478 12.7395 56.5205 12.966 56.2768 13.1739C56.5205 13.3819 56.7478 13.6083 56.9566 13.851C57.1655 13.6083 57.3928 13.3819 57.6365 13.1739C57.3928 12.966 57.1655 12.7395 56.9566 12.4968Z" fill="#0F3E4D"/>
<path fill-rule="evenodd" clip-rule="evenodd" d="M56.4362 0.704102C56.9323 0.704102 57.3344 1.0934 57.3344 1.57364C57.3344 2.57548 57.322 3.57916 57.3096 4.57574L57.3096 4.57627C57.2973 5.57444 57.285 6.56546 57.285 7.55088C57.285 7.88174 57.2574 8.19739 57.2334 8.47268L57.2323 8.48441C57.2071 8.77333 57.1861 9.01922 57.1861 9.26604C57.1861 9.29912 57.1861 9.33308 57.1862 9.36785C57.1869 9.82357 57.1878 10.4177 57.0714 10.9645C57.0551 11.0412 57.0401 11.1525 57.0365 11.221C57.0217 11.4984 56.9011 11.7057 56.8599 11.7763L56.858 11.7796C56.8528 11.7885 56.8467 11.7989 56.8415 11.8077C56.769 12.0393 56.667 12.215 56.5517 12.366C56.5026 12.4304 56.4511 12.4898 56.4169 12.5293C56.4138 12.5328 56.411 12.5361 56.4082 12.5392C56.3697 12.5837 56.3431 12.615 56.3167 12.6494C56.1159 12.9114 55.8472 13.0303 55.7505 13.0731C55.7481 13.0741 55.7459 13.0751 55.7437 13.0761C55.7097 13.0912 55.691 13.0992 55.6786 13.1045C55.674 13.1065 55.6703 13.1081 55.667 13.1095C55.5581 13.192 55.4514 13.2441 55.3876 13.2734C55.3281 13.3007 55.259 13.3283 55.2206 13.3437C55.2195 13.3441 55.2184 13.3446 55.2174 13.345C55.3838 13.4396 55.5478 13.554 55.7122 13.6913C55.9418 13.883 56.0924 14.1215 56.1721 14.2478L56.1749 14.2522C56.1884 14.2735 56.2002 14.2924 56.2109 14.3094C56.2401 14.356 56.261 14.3893 56.2844 14.4238C56.2983 14.4443 56.3088 14.4588 56.3169 14.4691C56.3249 14.4794 56.3286 14.4833 56.3281 14.4828C56.507 14.6695 56.6357 14.9051 56.7172 15.0797C56.8041 15.2658 56.8818 15.4792 56.923 15.673C56.9228 15.6718 56.9229 15.6725 56.9237 15.6754C56.9253 15.6822 56.93 15.7009 56.9394 15.7368C56.951 15.7812 56.9663 15.8386 56.9844 15.906C56.9959 15.9487 57.0085 15.9954 57.0218 16.0445C57.0496 16.1474 57.0803 16.261 57.1096 16.3711C57.1529 16.5333 57.1962 16.6989 57.2269 16.8263C57.2417 16.8874 57.2569 16.9538 57.2674 17.0107C57.2717 17.0338 57.2809 17.085 57.285 17.1429L57.2851 17.144C57.2866 17.1647 57.2924 17.2448 57.2771 17.3429C57.2705 17.3849 57.2485 17.5154 57.1612 17.6584C57.0578 17.8276 56.8051 18.0861 56.3867 18.0861C55.9119 18.0861 55.5232 17.7296 55.4906 17.2781C55.4873 17.2633 55.4829 17.2445 55.4773 17.2213C55.4518 17.1155 55.4131 16.967 55.3701 16.8058C55.3476 16.7215 55.3226 16.6289 55.2979 16.5374C55.2375 16.3137 55.1789 16.0967 55.1634 16.024C55.1553 15.986 55.1272 15.8967 55.0801 15.7959C55.0582 15.749 55.037 15.7102 55.0195 15.682C55.0112 15.6685 55.0056 15.6606 55.003 15.6571C54.9099 15.5586 54.8369 15.4584 54.7826 15.3783C54.74 15.3155 54.6967 15.2464 54.6641 15.1944C54.656 15.1815 54.6486 15.1697 54.642 15.1592C54.5636 15.0351 54.5372 15.0074 54.5375 15.0072C54.5375 15.0071 54.5379 15.0075 54.5387 15.0081C54.3052 14.8131 54.1301 14.7458 53.9105 14.7103C53.6673 14.671 53.3924 14.6717 52.9293 14.6728C52.8451 14.673 52.7546 14.6732 52.657 14.6732C52.0109 14.6732 51.3247 14.5766 50.7163 14.4909L50.683 14.4862C50.0355 14.3951 49.4709 14.3174 48.9675 14.3174C48.8986 14.3174 48.8225 14.3156 48.7499 14.3085C48.7148 14.3051 48.6589 14.2984 48.5951 14.2835C48.5943 14.2833 48.5933 14.2831 48.5922 14.2828C48.5552 14.2743 48.3825 14.2344 48.2169 14.1021C48.1173 14.0224 47.964 13.8635 47.9079 13.6098C47.8489 13.3428 47.9295 13.118 48.0161 12.9779C48.1475 12.7649 48.3369 12.6679 48.3697 12.6511C48.371 12.6505 48.3719 12.65 48.3727 12.6496C48.4785 12.5944 48.5805 12.5671 48.6135 12.5583L48.6139 12.5581C48.7725 12.5157 49.0296 12.475 49.2148 12.475H50.0062C50.2163 12.475 50.4478 12.4512 50.7296 12.4166C50.7682 12.4119 50.8081 12.4069 50.849 12.4018C51.0882 12.3719 51.3641 12.3374 51.6341 12.3217C51.7941 12.3124 51.9632 12.2803 52.2103 12.2333C52.2289 12.2297 52.2479 12.2261 52.2674 12.2224C52.5165 12.1751 52.8495 12.1136 53.1964 12.1136C53.2063 12.1136 53.2422 12.1113 53.3229 12.0906C53.3617 12.0807 53.4042 12.0684 53.456 12.0526C53.4706 12.0481 53.4894 12.0423 53.5099 12.036C53.5478 12.0243 53.5918 12.0107 53.6272 12.0002C53.7231 11.9716 53.8097 11.9593 53.8681 11.953C53.9292 11.9464 53.9861 11.9438 54.0292 11.9424C54.0658 11.9412 54.104 11.9406 54.1332 11.9401C54.1348 11.9401 54.1363 11.9401 54.1378 11.9401C54.1842 11.9073 54.2266 11.882 54.2608 11.8628C54.3576 11.8086 54.4532 11.7694 54.5064 11.7477C54.5303 11.7381 54.5481 11.7309 54.5621 11.7252C54.577 11.7193 54.5876 11.715 54.5965 11.7113C54.687 11.6441 54.7728 11.5981 54.8342 11.568C54.8723 11.5492 54.9074 11.5335 54.9334 11.5221C54.9419 11.5184 54.9485 11.5155 54.9538 11.5132C54.9831 11.4779 55.0095 11.4474 55.031 11.4226C55.0755 11.371 55.0927 11.351 55.1069 11.3323C55.1123 11.3253 55.1148 11.3216 55.1157 11.3202L55.1164 11.3191L55.1164 11.3191C55.1164 11.3191 55.1164 11.3191 55.1164 11.3191L55.1165 11.3189L55.1167 11.3183L55.1182 11.3147C55.1196 11.3111 55.1222 11.3039 55.1254 11.292C55.1576 11.1743 55.2044 11.0819 55.2332 11.029C55.2402 11.0162 55.247 11.0041 55.2532 10.9932C55.2663 10.864 55.2876 10.7272 55.3118 10.6135C55.3896 10.248 55.3896 9.82073 55.3895 9.31313C55.3895 9.29751 55.3895 9.28181 55.3895 9.26604C55.3895 8.94043 55.4168 8.62792 55.4407 8.35448L55.4421 8.3379C55.4673 8.04966 55.4884 7.80153 55.4884 7.55088C55.4884 6.55501 55.5008 5.55527 55.5131 4.56062L55.5132 4.55487C55.5256 3.55655 55.5379 2.5633 55.5379 1.57364C55.5379 1.0934 55.94 0.704102 56.4362 0.704102ZM55.2961 10.92C55.2962 10.9198 55.296 10.9202 55.2954 10.9213C55.2958 10.9206 55.296 10.9202 55.2961 10.92ZM54.6237 11.6992C54.6238 11.6992 54.6223 11.7 54.619 11.7015C54.622 11.6999 54.6236 11.6992 54.6237 11.6992ZM55.499 17.3171C55.4996 17.3208 55.4994 17.3202 55.4988 17.3161C55.4988 17.3164 55.4989 17.3168 55.499 17.3171ZM55.9183 16.4745C56.0412 16.4004 56.1968 16.347 56.3867 16.347C56.2151 16.347 56.0547 16.3936 55.9183 16.4745Z" fill="#0F3E4D"/>
<path fill-rule="evenodd" clip-rule="evenodd" d="M56.6339 2.59326C57.1273 2.59326 57.5273 2.99098 57.5273 3.48159C57.5273 3.66721 57.5343 3.72166 57.544 3.75805C57.5628 3.8288 57.5926 3.94358 57.6181 4.06344C57.639 4.16145 57.6749 4.34116 57.6749 4.51008C57.6749 4.69741 57.728 4.9529 57.7957 5.27914C57.7994 5.29685 57.8031 5.31476 57.8068 5.33289C57.9624 6.08349 58.0193 6.81433 58.0193 7.56916C58.0193 7.80643 58.063 8.05263 58.1274 8.39935L58.1309 8.41817C58.19 8.73593 58.2653 9.14114 58.2653 9.57339C58.2653 9.69541 58.2672 9.87467 58.2806 10.0423C58.2873 10.1263 58.2958 10.1933 58.3048 10.2405C58.3064 10.2494 58.3079 10.2566 58.3092 10.2621C58.4177 10.4913 58.433 10.7027 58.4383 10.8057C58.4511 10.8238 58.4647 10.8436 58.4778 10.864C58.5202 10.93 58.5861 11.044 58.6263 11.1948C58.6944 11.4505 58.9367 11.6838 59.3054 11.8009L59.0335 12.6471L59.3054 11.8009C59.6045 11.8959 59.9364 11.9686 60.1802 11.9831C60.4123 11.9969 60.634 12.0445 60.7841 12.0767C60.7938 12.0788 60.8032 12.0808 60.8122 12.0827C60.9878 12.1202 61.0806 12.1373 61.1586 12.1405C61.1818 12.1414 61.2065 12.1418 61.2466 12.1424C61.2559 12.1425 61.266 12.1426 61.2771 12.1428C61.3288 12.1436 61.398 12.1448 61.4712 12.1492C61.5869 12.1562 61.7927 12.1739 62.0054 12.2564C62.0158 12.2574 62.0283 12.2584 62.0461 12.2598C62.0485 12.26 62.051 12.2602 62.0536 12.2604C62.0965 12.2637 62.1778 12.2701 62.2624 12.2843C62.3561 12.2999 62.4876 12.3299 62.6283 12.3969C62.6278 12.3967 62.6276 12.3966 62.6276 12.3966C62.6277 12.3964 62.6509 12.4059 62.7268 12.425C62.753 12.4316 62.7745 12.4368 62.8001 12.4429C62.8175 12.4471 62.8369 12.4518 62.8609 12.4576C62.9114 12.47 62.9744 12.4858 63.0397 12.5053L62.8818 13.0292L63.0397 12.5053C63.1575 12.5403 63.2691 12.5824 63.3589 12.6172C63.3923 12.6302 63.4219 12.6418 63.4493 12.6526C63.5047 12.6743 63.5513 12.6926 63.603 12.7115C63.6743 12.7377 63.7261 12.7539 63.7662 12.7635C63.8015 12.772 63.8167 12.7726 63.817 12.7726C63.8171 12.7726 63.8169 12.7726 63.8164 12.7726C64.1322 12.7726 64.371 12.7768 64.5422 12.785C64.6263 12.7891 64.7083 12.7947 64.7812 12.8037C64.8171 12.8081 64.8647 12.815 64.9162 12.8265L64.9172 12.8267C64.95 12.834 65.0669 12.8601 65.1926 12.9319C65.2537 12.9668 65.4005 13.0586 65.5132 13.24C65.6543 13.467 65.6927 13.7583 65.5878 14.0302C65.5038 14.2477 65.3593 14.3705 65.2985 14.4176C65.2269 14.4731 65.1614 14.5067 65.1252 14.5239C65.0075 14.5797 64.8892 14.6046 64.8511 14.6127L64.8482 14.6133C64.7345 14.6373 64.5897 14.6576 64.4521 14.6745C63.902 14.7419 62.9645 14.813 62.7232 14.813C62.6419 14.813 62.5393 14.8293 62.3452 14.8686C62.3319 14.8713 62.3179 14.8742 62.3034 14.8771C62.1396 14.9107 61.8973 14.9603 61.6506 14.9705C61.5595 14.9742 61.4448 14.9816 61.3187 14.9897C61.0734 15.0055 60.7853 15.024 60.5449 15.024C60.4836 15.024 60.3901 15.0405 60.1942 15.098C60.1699 15.1051 60.1425 15.1135 60.1123 15.1226C59.9495 15.1718 59.7095 15.2445 59.4757 15.2803C59.425 15.288 59.3728 15.2937 59.3319 15.2978C59.3024 15.3008 59.2687 15.304 59.2371 15.3069C59.2244 15.3081 59.212 15.3093 59.2005 15.3104C59.1111 15.3189 59.0297 15.3275 58.9559 15.3387C58.9343 15.342 58.9151 15.3453 58.8981 15.3485C58.8491 15.3887 58.8037 15.4188 58.7704 15.4394C58.7476 15.4535 58.7263 15.4658 58.7086 15.4756C58.6562 15.5543 58.6056 15.6401 58.5548 15.7354C58.4019 16.0224 58.2886 16.2628 58.2496 16.451C58.2118 16.6334 58.1429 16.8852 58.0391 17.1129C58.039 17.1155 58.0389 17.1182 58.0389 17.121C58.0387 17.1289 58.0384 17.1382 58.0381 17.1507C58.0374 17.1762 58.0363 17.2105 58.034 17.248C58.0294 17.3214 58.0191 17.4298 57.9867 17.5512C57.9197 17.8029 57.8717 18.0995 57.8717 18.3287C57.8717 18.4701 57.8888 18.6201 57.9144 18.8315L57.9168 18.8509C57.9394 19.0366 57.9685 19.276 57.97 19.5245C57.9701 19.5252 57.9703 19.526 57.9704 19.5268C57.9731 19.5423 57.9782 19.5662 57.9864 19.5971C58.0034 19.6613 58.0252 19.723 58.0393 19.7571L57.7654 19.8693L58.0393 19.7571C58.1024 19.9091 58.1215 20.0511 58.1289 20.1419C58.1368 20.2383 58.135 20.3275 58.1322 20.3929C58.1298 20.4485 58.1256 20.505 58.1228 20.5437C58.1223 20.5501 58.1219 20.556 58.1215 20.5613C58.1199 20.5831 58.1189 20.5983 58.1182 20.6104C58.1176 20.6228 58.1177 20.6259 58.1177 20.623C58.1177 20.8346 58.1031 21.0287 58.0911 21.1877L58.0906 21.1948C58.0779 21.3633 58.0685 21.4927 58.0685 21.6251C58.0685 21.902 58.0075 22.3538 57.9576 22.6479C57.9338 22.7886 57.901 22.9635 57.863 23.0864L57.8626 23.0878C57.8549 23.1125 57.8288 23.1971 57.7783 23.2878L57.777 23.2903C57.7596 23.3218 57.6753 23.4745 57.4994 23.5955C57.3929 23.6687 57.2023 23.7643 56.9491 23.7531C56.6845 23.7414 56.4876 23.6194 56.3685 23.506C56.1853 23.3315 56.1314 23.1293 56.1218 23.0933C56.1215 23.092 56.1212 23.091 56.1209 23.0901C56.1027 23.0235 56.0955 22.9675 56.0924 22.9389C56.0856 22.8781 56.0848 22.822 56.0848 22.7855V21.6779C56.0848 21.5784 56.0655 21.4601 56.0252 21.2381L56.022 21.2205C55.9873 21.0295 55.9372 20.7541 55.9372 20.4648C55.9372 20.408 55.9405 20.3505 55.9435 20.3069C55.9467 20.2604 55.9509 20.2097 55.9549 20.1626L55.9565 20.1435C55.9643 20.0508 55.9718 19.9622 55.9765 19.8761C55.9795 19.8207 55.9807 19.7765 55.9808 19.7427C55.935 19.639 55.9118 19.5434 55.8992 19.4711C55.8779 19.3501 55.8772 19.2415 55.8786 19.172C55.8798 19.1151 55.8837 19.0542 55.8859 19.0197C55.8863 19.0133 55.8867 19.0078 55.8869 19.0035C55.888 18.9857 55.8884 18.9755 55.8886 18.9709C55.8823 18.8711 55.8574 18.7186 55.8348 18.6399C55.8139 18.5669 55.8021 18.5002 55.7948 18.4486C55.7874 18.396 55.783 18.3468 55.7801 18.3065C55.7772 18.266 55.7753 18.2268 55.7738 18.1955C55.7734 18.1861 55.773 18.1776 55.7726 18.1697C55.7716 18.1479 55.7708 18.1303 55.7698 18.1118C55.7697 18.1101 55.7696 18.1086 55.7695 18.107C55.7113 17.9758 55.6938 17.8578 55.6875 17.7861C55.685 17.758 55.6838 17.7308 55.6835 17.7056C55.6483 17.6322 55.609 17.5583 55.561 17.4738C55.3181 17.0467 55.4694 16.5047 55.8989 16.2633C56.0836 16.1594 56.2897 16.128 56.484 16.16C56.4895 16.1378 56.4947 16.1152 56.4995 16.0924C56.5966 15.6237 56.8306 15.176 56.9759 14.9035C57.08 14.7083 57.1989 14.5114 57.343 14.3184C57.436 14.1937 57.5393 14.1091 57.617 14.0545C57.677 14.0124 57.7341 13.9799 57.7717 13.9595C57.9494 13.7953 58.1469 13.7196 58.2463 13.6854C58.4025 13.6315 58.5617 13.6014 58.6845 13.5827C58.778 13.5684 58.8699 13.5579 58.949 13.5498C58.8842 13.5313 58.8216 13.5124 58.7616 13.4933C58.0501 13.2673 57.2415 12.7218 56.9355 11.7739C56.9138 11.7452 56.8829 11.7028 56.8533 11.656C56.8095 11.5866 56.7467 11.4742 56.7077 11.3275C56.6779 11.2158 56.6667 11.117 56.6613 11.0464C56.6587 11.0113 56.6572 10.9795 56.6563 10.9566C56.656 10.9496 56.6557 10.9437 56.6555 10.9387C56.5975 10.8003 56.5669 10.6653 56.5487 10.5695C56.5238 10.4379 56.5088 10.3029 56.4992 10.1829C56.4801 9.94263 56.4783 9.70612 56.4783 9.57339C56.4783 9.32026 56.4337 9.06368 56.3702 8.72197C56.368 8.71002 56.3657 8.69793 56.3635 8.68571C56.3057 8.37547 56.2324 7.98133 56.2324 7.56916C56.2324 6.90553 56.1825 6.29854 56.0567 5.6915C56.0513 5.66543 56.0453 5.63712 56.0389 5.60686C55.9816 5.3359 55.8912 4.90804 55.8881 4.53008C55.8878 4.52772 55.8873 4.52479 55.8868 4.52126C55.8836 4.49984 55.8781 4.46964 55.87 4.43154C55.8537 4.3552 55.8329 4.27401 55.8167 4.21311C55.7409 3.92881 55.7404 3.66355 55.7404 3.48159C55.7404 2.99098 56.1404 2.59326 56.6339 2.59326ZM56.6528 10.8873C56.6529 10.8873 56.6531 10.8888 56.6533 10.892C56.6529 10.889 56.6528 10.8874 56.6528 10.8873ZM64.4762 12.8755C64.4759 12.8756 64.4755 12.8757 64.4751 12.8758C64.4898 12.8719 64.4922 12.8722 64.4762 12.8755ZM57.8717 22.7894C57.8717 22.7894 57.8717 22.7885 57.8717 22.7867L57.8717 22.7894ZM55.9785 19.6778C55.9785 19.6778 55.9786 19.6783 55.9787 19.6793C55.9786 19.6783 55.9785 19.6778 55.9785 19.6778ZM58.313 10.277C58.3129 10.277 58.3128 10.2765 58.3125 10.2753C58.3128 10.2764 58.313 10.277 58.313 10.277Z" fill="#0F3E4D"/>
</svg>
