<svg width="321" height="363" viewBox="0 0 321 363" fill="none" xmlns="http://www.w3.org/2000/svg">
<path d="M346.111 267.602C338.646 275.443 329.525 281.518 319.413 285.383C281.007 299.621 238.542 274.99 205.261 257.946C180.676 245.336 148.142 228.879 119.777 236.333C96.0631 242.589 101.902 267.878 108.945 285.002C115.988 302.126 127.889 319.78 147.246 323.278C161.379 325.843 177.556 318.363 182.557 304.837C186.357 294.549 183.542 283.02 179.468 272.817C172.07 254.294 160.755 237.6 148.7 221.707C108.594 168.836 59.4615 122.542 2.81035 87.7909" stroke="#323232" stroke-width="4.13" stroke-linecap="round" stroke-linejoin="round"/>
<path d="M2.81385 87.7631C6.97687 91.3296 10.6037 95.4781 13.5822 100.08C19.7042 109.731 22.9226 120.938 22.8537 132.367" stroke="#323232" stroke-width="4.13" stroke-linecap="round" stroke-linejoin="round"/>
<path d="M2.81392 87.763C5.64722 88.8747 8.57352 89.7327 11.5585 90.3272C21.5681 92.2027 31.8997 91.3145 41.4424 87.7581" stroke="#323232" stroke-width="4.13" stroke-linecap="round" stroke-linejoin="round"/>
</svg>
