<svg width="24" height="34" viewBox="0 0 24 34" fill="none" xmlns="http://www.w3.org/2000/svg">
<path d="M14.72 13.79L10.43 18.09L8.78 16.44C8.69036 16.3353 8.58004 16.2503 8.45597 16.1903C8.33191 16.1303 8.19678 16.0965 8.05906 16.0912C7.92134 16.0859 7.78401 16.1091 7.65568 16.1594C7.52736 16.2096 7.41081 16.2859 7.31335 16.3833C7.2159 16.4808 7.13964 16.5974 7.08937 16.7257C7.03909 16.854 7.01589 16.9913 7.02121 17.1291C7.02653 17.2668 7.06026 17.4019 7.12028 17.526C7.1803 17.65 7.26532 17.7604 7.37 17.85L9.72 20.21C9.81344 20.3027 9.92426 20.376 10.0461 20.4258C10.1679 20.4755 10.2984 20.5008 10.43 20.5C10.6923 20.4989 10.9437 20.3947 11.13 20.21L16.13 15.21C16.2237 15.117 16.2981 15.0064 16.3489 14.8846C16.3997 14.7627 16.4258 14.632 16.4258 14.5C16.4258 14.368 16.3997 14.2373 16.3489 14.1154C16.2981 13.9936 16.2237 13.883 16.13 13.79C15.9426 13.6037 15.6892 13.4992 15.425 13.4992C15.1608 13.4992 14.9074 13.6037 14.72 13.79ZM12 7C10.0222 7 8.08879 7.58649 6.4443 8.6853C4.79981 9.78412 3.51809 11.3459 2.76121 13.1732C2.00433 15.0004 1.8063 17.0111 2.19215 18.9509C2.578 20.8907 3.53041 22.6725 4.92894 24.0711C6.32746 25.4696 8.10929 26.422 10.0491 26.8079C11.9889 27.1937 13.9996 26.9957 15.8268 26.2388C17.6541 25.4819 19.2159 24.2002 20.3147 22.5557C21.4135 20.9112 22 18.9778 22 17C22 15.6868 21.7413 14.3864 21.2388 13.1732C20.7363 11.9599 19.9997 10.8575 19.0711 9.92893C18.1425 9.00035 17.0401 8.26375 15.8268 7.7612C14.6136 7.25866 13.3132 7 12 7ZM12 25C10.4178 25 8.87104 24.5308 7.55544 23.6518C6.23985 22.7727 5.21447 21.5233 4.60897 20.0615C4.00347 18.5997 3.84504 16.9911 4.15372 15.4393C4.4624 13.8874 5.22433 12.462 6.34315 11.3431C7.46197 10.2243 8.88743 9.4624 10.4393 9.15372C11.9911 8.84504 13.5997 9.00346 15.0615 9.60896C16.5233 10.2145 17.7727 11.2398 18.6518 12.5554C19.5308 13.871 20 15.4177 20 17C20 19.1217 19.1572 21.1566 17.6569 22.6569C16.1566 24.1571 14.1217 25 12 25Z" fill="#5EBA83"/>
</svg>
