<svg width="1440" height="705" viewBox="0 0 1440 705" fill="none" xmlns="http://www.w3.org/2000/svg">
<g clip-path="url(#clip0_104_1120)">
<rect width="1440" height="705" fill="white"/>
<g clip-path="url(#clip1_104_1120)">
<rect width="2234" height="3348" transform="translate(-903 1188) rotate(-90)" fill="#FCE288"/>
<path d="M2713.09 -1934.58C2586.11 -1957.79 2438.06 -1950.74 2328.79 -1874.89C2161.86 -1759.04 2206.56 -1526.05 2149.48 -1356.09C2049.53 -1058.49 1767.76 -1014.68 1495.71 -970.202C1183.82 -919.209 1294.66 -572.822 1313.87 -359.149C1360.29 157.404 741.907 309.856 362.182 126.264C111.652 5.11425 -63.8768 -216.36 -311.564 -340.506C-491.047 -430.47 -698.347 -463.932 -897.063 -435.121C-947.008 -427.873 -1005.51 -408.494 -1017.6 -359.516" stroke="#F6D051" stroke-width="6" stroke-miterlimit="10"/>
<path d="M873.753 607.831C758.869 600.674 643.036 579.664 531.778 564.423C273.56 529.054 -3.56069 536.341 -192.35 740.597C-408.311 974.247 -354.38 1333.47 -49.0142 1450.9C183.565 1540.35 447.954 1491.44 672.523 1401.3C875.554 1319.82 1074.78 1229.61 1270.21 1130.67C1417.19 1056.51 1635.78 982.89 1700.84 815.75C1763.02 655.989 1647.11 483.662 1475.83 480.482C1367.3 478.467 1280.61 543.605 1182.39 577.856C1084.98 611.823 975.62 614.168 873.753 607.831Z" stroke="#F6D051" stroke-width="6" stroke-miterlimit="10"/>
<path d="M610.199 1767.04C610.528 1651.57 693.602 1552.29 786.271 1483.36C908.812 1392.22 1047.55 1340.56 1189.14 1288.46C1469.18 1185.31 1725.57 1062.1 1880.74 796.533C1947.73 681.865 2007.62 558.378 2135.43 500.603C2265.8 441.672 2410.09 428.968 2545.32 385.407C2700.31 335.479 2830.9 251.767 2953.77 147.62C3074.18 45.5259 3278.06 -232.527 3463.3 -139.697C3600.25 -71.0884 3591.59 100.902 3553.17 226.259C3494.85 416.585 3345.99 562.853 3173.43 654.709C2969.48 763.278 2756.67 860.544 2541.71 945.114C2373.08 1011.46 2200.96 1092.91 2103.16 1253.41C1993.7 1433.04 1993.06 1656.01 2002.08 1859.35" stroke="#F6D051" stroke-width="6" stroke-miterlimit="10"/>
<path d="M2036.99 -873.188C1973.91 -902.535 1902.08 -917.4 1833.86 -921.814C1682.37 -931.606 1462.66 -911.163 1400.44 -746.214C1347.97 -607.142 1423.48 -434.914 1427.88 -291.39C1431.11 -185.848 1400.63 -82.3901 1344.94 6.95342C1316.38 52.7746 1281.61 94.1592 1243.08 131.851C1205.45 168.684 1135.52 213.693 1137.61 273.605C1140.17 346.85 1234.19 376.955 1293.84 377.729C1345.2 378.388 1395.9 366.427 1447.21 363.738C1535.79 359.102 1595.3 416.271 1667.88 457.694C1758.87 509.63 1878.91 509.952 1975.85 473.31C2078.03 434.676 2108.82 345.7 2098.79 242.135C2085.05 100.335 2064.76 -23.8877 2093.06 -166.01C2112.33 -262.755 2141.41 -359.754 2177.93 -451.427C2210.12 -532.273 2235.08 -606.084 2206.45 -693.336C2178.08 -779.822 2114.06 -837.32 2036.99 -873.188Z" stroke="#F6D051" stroke-width="6" stroke-miterlimit="10"/>
<path d="M1464 -647.377C1421.19 -530.978 1481.43 -387.699 1483.47 -268.173C1484.94 -182.431 1460.27 -98.4583 1414.93 -25.7575C1391.68 11.5277 1363.47 45.2652 1332.28 76.0834C1301.75 106.289 1245.44 143.045 1246.83 191.732C1248.55 251.207 1323.58 275.589 1371.26 277.796C1412.36 279.696 1453.7 272.432 1496.04 271.605C1568.86 269.988 1619.45 317.158 1680.58 349.616C1758 390.74 1857.49 385.506 1937 352.627C2018.93 318.744 2044.31 246.679 2036.36 161.833C2025.5 45.5563 2009.45 -56.6218 2031.18 -173.228C2039.88 -219.9 2050.7 -266.778 2064.96 -312.73C2075.46 -346.536 2087.78 -379.99 2101.38 -412.709C2129.22 -480.061 2151.88 -541.858 2130.12 -614.23C2108.65 -686.256 2056.85 -734.775 1989.78 -765.394C1936.44 -789.913 1876.45 -801.407 1819.72 -803.706C1693.47 -808.594 1514.65 -784.596 1464 -647.377Z" stroke="#F6D051" stroke-width="11" stroke-miterlimit="10"/>
<path d="M1527.57 -548.54C1494.4 -454.814 1539.4 -340.521 1539.07 -244.948C1538.72 -178.966 1519.97 -114.388 1484.94 -58.4685C1466.99 -29.7191 1445.34 -3.62864 1421.49 20.2857C1398.07 43.8629 1355.36 72.3901 1356.05 109.852C1356.93 155.565 1413.04 174.216 1448.7 177.863C1479.59 181.012 1511.5 178.514 1544.89 179.472C1602 181.112 1643.71 218.029 1693.29 241.537C1757.18 271.827 1835.99 261.153 1898.15 231.944C1959.8 202.973 1979.78 147.658 1973.95 81.5465C1965.96 -9.21456 1954.08 -89.3708 1969.3 -180.423C1975.61 -218.214 1982.97 -256.319 1994.4 -293.528C2002.75 -320.63 2013.25 -347.54 2024.83 -373.983C2048.42 -427.788 2068.52 -477.586 2053.8 -535.077C2039.07 -592.568 1999.59 -632.037 1942.58 -657.561C1898.93 -677.107 1850.84 -685.375 1805.59 -685.536C1704.55 -685.574 1566.62 -658.028 1527.57 -548.54Z" stroke="#F6D051" stroke-width="6" stroke-miterlimit="10"/>
<path d="M-518.197 -1381.74C-494.274 -1213.11 -415.08 -1055.43 -271.905 -957.674C-91.4018 -834.44 59.913 -788.097 140.135 -568.141C220.886 -346.697 245.069 -113.515 473.655 12.263C686.849 129.567 1018.25 93.699 1133.61 -144.165C1243.28 -370.244 1132.77 -624.781 1136.26 -860.653C1137.87 -969.405 1174.59 -1078.95 1274.41 -1134.97C1419.79 -1216.56 1596.06 -1147.15 1747.81 -1204.06C1901.88 -1261.85 2022.75 -1406.82 2089.58 -1552.6C2158.22 -1702.36 2137.25 -1864.15 1977.13 -1938.9C1710.33 -2063.44 1399.59 -2086.86 1109.45 -2099.76C798.13 -2113.62 491.652 -2082.14 185.918 -2025.17C15.0727 -1993.31 -171.762 -1978.02 -320.394 -1879.28C-470.628 -1779.48 -537.313 -1593.32 -522.29 -1417.64C-521.278 -1405.82 -519.914 -1393.86 -518.197 -1381.74Z" stroke="#F6D051" stroke-width="11" stroke-miterlimit="10"/>
<path d="M-738.895 -345.364C-489.361 -314.163 -274.235 -172.194 -71.2733 -29.7577C29.1383 40.7364 132.056 108.242 241.382 164.193C319.565 204.198 402.301 234.051 484.938 263.283C526.873 278.118 570.494 288.975 608.75 312.759C690.912 363.844 676.31 447.571 582.161 464.475C435.659 490.78 284.237 434.446 135.804 457.15C-17.7179 480.627 -164.319 545.643 -321.083 550.891C-406.847 553.765 -484.463 516.089 -558.315 477.011C-632.168 437.932 -698.064 407.827 -782.448 395.398C-938.362 372.411 -1099.97 364.373 -1137.8 180.981C-1162.23 62.6202 -1139.63 -72.6441 -1089.19 -181.642C-1024.23 -322.055 -883.702 -363.463 -738.895 -345.364Z" stroke="#F6D051" stroke-width="6" stroke-miterlimit="10"/>
<path d="M-1012.95 -126.549C-960.72 -241.063 -845.784 -275.912 -725.175 -261.055C-539.766 -238.067 -375.444 -141.222 -221.185 -36.5463C-205.585 -25.9517 -190.086 -15.2985 -174.69 -4.58642C-91.578 53.0042 -6.73402 108.488 82.5096 154.975C126.545 177.963 172.067 197.272 217.759 215.286C238.584 223.577 259.449 231.461 280.144 239.4C313.87 252.349 348.363 262.234 378.371 281.788C442.987 323.855 429.842 390.908 352.433 404.141C233.288 424.922 110.265 379.445 -10.3136 397.107C-135.077 415.359 -254.268 466.735 -381.56 470.237C-451.143 472.168 -514.211 441.664 -574.274 409.98C-634.337 378.296 -687.931 353.899 -756.364 343.578C-882.836 324.506 -1011.82 316.897 -1045.91 169.986C-1068.32 73.4322 -1053.57 -37.1362 -1012.95 -126.549Z" stroke="#F6D051" stroke-width="11" stroke-miterlimit="10"/>
<path d="M-936.714 -71.4326C-897.2 -160.079 -807.857 -188.368 -711.454 -176.752C-567.214 -159.129 -436.787 -85.0334 -314.768 -4.05717C-302.458 4.11605 -290.229 12.3506 -278.083 20.6464C-212.263 65.3412 -145.478 108.764 -76.3476 145.819C-42.0084 164.362 -6.79539 180.055 27.9961 195.234C43.9623 202.207 59.8135 208.85 75.3735 215.586C100.929 226.65 126.2 235.554 148.015 250.878C195.063 283.926 183.358 334.054 122.72 343.869C30.8705 358.742 -63.6773 324.507 -156.409 337.127C-252.42 350.153 -344.201 387.882 -442.007 389.645C-495.424 390.641 -543.951 367.286 -590.217 343.042C-636.368 318.852 -677.782 300.056 -730.272 291.85C-827.311 276.67 -923.89 269.445 -954.013 159.083C-974.479 84.1601 -967.504 -1.62814 -936.714 -71.4326Z" stroke="#F6D051" stroke-width="6" stroke-miterlimit="10"/>
<path d="M878.39 251.935C814.249 285.374 802.506 369.017 777.511 430.867C767.922 454.621 761.928 482.32 774.997 505.959C800.544 552.209 866.44 552.002 912.032 549.083C961.854 545.895 1012.9 548.217 1061.37 533.904C1089.26 525.674 1128.59 499.959 1130.67 467.44C1133.19 427.749 1087.43 423.366 1060.61 410.6C997.182 380.426 1013.68 302.875 969.396 259.031C944.186 234.036 907.824 236.595 878.39 251.935Z" stroke="#F6D051" stroke-width="6" stroke-miterlimit="10"/>
<path d="M944.002 393.813C942.469 387.783 938.821 382.718 932.643 380.189C909.311 370.657 897.031 403.176 894.655 420.432C893.352 429.887 894.9 440.929 902.726 446.392C911.449 452.476 924.242 448.454 931.248 440.454C941.197 429.091 947.743 408.816 944.002 393.813Z" stroke="#F6D051" stroke-width="11" stroke-miterlimit="10"/>
<path d="M654.334 676.946C477.901 658.387 304.312 639.117 129.695 692.799C14.1759 728.338 -100.73 799.008 -146.483 918.196C-177.748 999.663 -173.172 1098.91 -142.65 1179.92C-91.9153 1314.56 37.3013 1365.98 173.286 1360.49C596.663 1343.39 1008.6 1174.09 1355.7 937.352C1381.13 919.984 1406.25 902.185 1431.06 883.953C1477.44 849.84 1527.6 812.294 1545.9 754.98C1556.72 721.074 1553.49 681.421 1531.52 653.391C1509.56 625.362 1472.36 612.888 1436.78 612.543C1350.62 611.723 1274.14 661.713 1191.23 676.846C1037.16 704.967 879.187 699.021 724.04 684.056C700.761 681.811 677.544 679.382 654.334 676.946Z" stroke="#F6D051" stroke-width="11" stroke-miterlimit="10"/>
<path d="M608.191 755.501C469.784 742.475 333.017 727.962 195.814 769.209C104.753 796.533 14.6206 850.89 -23.8348 942.525C-50.3787 1005.79 -50.1564 1084.15 -25.659 1148.47C4.36478 1227.5 70.3375 1268.77 145.999 1282.76C171.992 1287.44 198.421 1289.25 224.81 1288.17C458.34 1279.59 687.723 1214.92 898.978 1114.12C989.302 1070.88 1076.3 1021 1159.26 964.914C1179.37 951.286 1199.16 937.251 1218.65 922.81C1255.16 895.731 1294.16 865.801 1308.69 820.723C1317.27 794.074 1315 763.087 1298.66 740.544C1282.11 717.702 1254.11 706.891 1226.99 705.443C1164.29 702.102 1106.31 735.464 1042.9 748.743C1039.67 749.417 1036.43 750.053 1033.17 750.628C911.242 771.922 786.134 770.129 663.371 760.298C644.929 758.827 626.541 757.187 608.191 755.501Z" stroke="#F6D051" stroke-width="6" stroke-miterlimit="10"/>
<path d="M-1059.91 540.647C-895.338 488.09 -677.928 498.979 -549.217 627.079C-473.05 702.89 -456.624 799.199 -451.772 901.921C-441.493 1119.69 -446.46 1378.74 -222.466 1492.14C-146.743 1530.45 -64.513 1549.07 19.0892 1560.37C95.5092 1570.7 184.109 1566.33 255.079 1598.79C352.141 1643.18 375.987 1776.61 276.541 1834.98" stroke="#F6D051" stroke-width="6" stroke-miterlimit="10"/>
<path d="M-1055.86 676.44C-940.477 640.596 -796.712 638.228 -685.156 694.922C-654.159 710.683 -625.775 730.935 -601.155 755.976C-534.278 823.926 -519.607 910.136 -514.334 1001.56C-512.663 1030.25 -511.214 1059.68 -509.267 1089.3C-500.245 1226.4 -480.577 1367.25 -385.646 1461.69C-362.206 1484.98 -334.175 1505.48 -300.564 1522.45C-232.959 1556.58 -159.804 1573.85 -85.7449 1585.28C-62.2593 1588.91 -37.5474 1591.07 -12.6821 1593.61C34.1971 1598.39 81.5974 1604.56 122.222 1624.36C207.158 1665.52 228.283 1783.49 141.791 1836.8" stroke="#F6D051" stroke-width="11" stroke-miterlimit="10"/>
</g>
</g>
<defs>
<clipPath id="clip0_104_1120">
<rect width="1440" height="705" fill="white"/>
</clipPath>
<clipPath id="clip1_104_1120">
<rect width="2234" height="3348" fill="white" transform="translate(-903 1188) rotate(-90)"/>
</clipPath>
</defs>
</svg>
