<svg width="20" height="20" viewBox="0 0 20 20" fill="none" xmlns="http://www.w3.org/2000/svg">
<g clip-path="url(#clip0_203_487)">
<path d="M19.7099 18.29L15.9999 14.61C17.44 12.8144 18.1374 10.5353 17.9487 8.24133C17.76 5.94733 16.6996 3.81281 14.9854 2.27667C13.2713 0.740533 11.0337 -0.0804635 8.73283 -0.0175031C6.43194 0.0454573 4.24263 0.987588 2.61505 2.61517C0.987466 4.24275 0.0453353 6.43207 -0.0176251 8.73295C-0.0805855 11.0338 0.74041 13.2714 2.27655 14.9855C3.81269 16.6997 5.94721 17.7601 8.2412 17.9488C10.5352 18.1375 12.8143 17.4401 14.6099 16L18.2899 19.68C18.3829 19.7738 18.4935 19.8482 18.6153 19.8989C18.7372 19.9497 18.8679 19.9758 18.9999 19.9758C19.1319 19.9758 19.2626 19.9497 19.3845 19.8989C19.5063 19.8482 19.6169 19.7738 19.7099 19.68C19.8901 19.4936 19.9909 19.2444 19.9909 18.985C19.9909 18.7257 19.8901 18.4765 19.7099 18.29ZM8.9999 16C7.61544 16 6.26206 15.5895 5.11091 14.8203C3.95977 14.0511 3.06256 12.9579 2.53275 11.6788C2.00293 10.3997 1.86431 8.99226 2.13441 7.63439C2.4045 6.27653 3.07119 5.02925 4.05016 4.05028C5.02912 3.07131 6.27641 2.40463 7.63427 2.13453C8.99214 1.86443 10.3996 2.00306 11.6787 2.53287C12.9578 3.06268 14.051 3.95989 14.8202 5.11103C15.5894 6.26218 15.9999 7.61556 15.9999 9.00003C15.9999 10.8565 15.2624 12.637 13.9497 13.9498C12.6369 15.2625 10.8564 16 8.9999 16Z" fill="#323232"/>
</g>
<defs>
<clipPath id="clip0_203_487">
<rect width="20" height="20" fill="white"/>
</clipPath>
</defs>
</svg>
