<svg width="46" height="63" viewBox="0 0 46 63" fill="none" xmlns="http://www.w3.org/2000/svg">
<path d="M37.2837 0.73584L37.5528 7.70029C37.638 9.90535 39.3699 11.6925 41.5712 11.847L45.7449 12.14L41.5712 12.4329C39.3699 12.5874 37.638 14.3746 37.5528 16.5797L37.2837 23.5441L37.0146 16.5797C36.9294 14.3746 35.1975 12.5874 32.9962 12.4329L28.8226 12.14L32.9962 11.847C35.1975 11.6925 36.9294 9.90534 37.0146 7.70028L37.2837 0.73584Z" fill="#0F3E4D"/>
<path fill-rule="evenodd" clip-rule="evenodd" d="M37.2837 0.73584L37.0146 7.70028C37.0144 7.70723 37.0141 7.71417 37.0138 7.72111C36.9788 8.52777 36.7234 9.27785 36.3054 9.91169C35.9757 10.4116 35.5449 10.8393 35.0414 11.1652C34.4567 11.5438 33.7739 11.7853 33.0375 11.844C33.0238 11.845 33.01 11.8461 32.9962 11.847L28.8226 12.14L32.9962 12.4329C33.01 12.4339 33.0238 12.4349 33.0375 12.436C33.7739 12.4947 34.4567 12.7362 35.0414 13.1147C35.5449 13.4407 35.9757 13.8683 36.3054 14.3683C36.7234 15.0021 36.9788 15.7522 37.0138 16.5589C37.0141 16.5658 37.0144 16.5727 37.0146 16.5797L37.2837 23.5441L37.5528 16.5797C37.5531 16.5727 37.5533 16.5658 37.5536 16.5589C37.5886 15.7522 37.844 15.0021 38.262 14.3683C38.5917 13.8683 39.0225 13.4407 39.5261 13.1147C40.1107 12.7362 40.7935 12.4947 41.5299 12.436C41.5437 12.4349 41.5574 12.4339 41.5712 12.4329L45.7449 12.14L41.5712 11.847C41.5574 11.8461 41.5437 11.845 41.5299 11.844C40.7935 11.7853 40.1107 11.5438 39.5261 11.1652C39.0225 10.8393 38.5917 10.4116 38.262 9.91169C37.844 9.27785 37.5886 8.52776 37.5536 7.72111C37.5533 7.71417 37.5531 7.70723 37.5528 7.70029L37.2837 0.73584ZM37.2837 11.4808C37.0804 11.7171 36.8591 11.9375 36.6219 12.14C36.8591 12.3425 37.0804 12.5629 37.2837 12.7992C37.487 12.5629 37.7083 12.3425 37.9456 12.14C37.7083 11.9375 37.487 11.7171 37.2837 11.4808Z" fill="#0F3E4D"/>
<path fill-rule="evenodd" clip-rule="evenodd" d="M36.777 0C37.2599 0 37.6515 0.379007 37.6515 0.846536C37.6515 1.82188 37.6394 2.79902 37.6273 3.76924L37.6273 3.76975C37.6153 4.74153 37.6033 5.70633 37.6033 6.66569C37.6033 6.9878 37.5765 7.2951 37.5531 7.56311L37.5521 7.57453C37.5275 7.85581 37.507 8.09519 37.507 8.33549C37.507 8.36769 37.5071 8.40075 37.5071 8.4346C37.5078 8.87827 37.5087 9.45668 37.3954 9.98907C37.3795 10.0637 37.365 10.1721 37.3614 10.2387C37.347 10.5088 37.2296 10.7106 37.1895 10.7793L37.1876 10.7826C37.1826 10.7913 37.1767 10.8013 37.1716 10.8099C37.101 11.0354 37.0017 11.2065 36.8895 11.3535C36.8416 11.4161 36.7915 11.474 36.7582 11.5124C36.7552 11.5158 36.7524 11.519 36.7498 11.5221C36.7123 11.5654 36.6864 11.5959 36.6607 11.6294C36.4652 11.8844 36.2036 12.0002 36.1094 12.0418C36.1071 12.0428 36.1049 12.0438 36.1028 12.0448C36.0697 12.0594 36.0515 12.0673 36.0395 12.0725C36.035 12.0744 36.0314 12.0759 36.0282 12.0773C35.9221 12.1576 35.8183 12.2083 35.7562 12.2368C35.6982 12.2634 35.6309 12.2903 35.5936 12.3053C35.5925 12.3057 35.5914 12.3061 35.5904 12.3065C35.7524 12.3987 35.9121 12.51 36.0721 12.6437C36.2956 12.8303 36.4422 13.0625 36.5199 13.1855L36.5226 13.1898C36.5357 13.2105 36.5472 13.2289 36.5576 13.2455C36.5861 13.2908 36.6064 13.3232 36.6292 13.3569C36.6427 13.3768 36.653 13.3909 36.6608 13.4009C36.6686 13.411 36.6722 13.4147 36.6718 13.4143C36.8459 13.596 36.9712 13.8254 37.0506 13.9954C37.1352 14.1766 37.2108 14.3843 37.2509 14.573C37.2507 14.5719 37.2509 14.5725 37.2516 14.5754C37.2532 14.5819 37.2577 14.6002 37.2668 14.6351C37.2782 14.6784 37.2931 14.7342 37.3107 14.7998C37.3219 14.8414 37.3342 14.8869 37.3471 14.9347C37.3742 15.0349 37.404 15.1454 37.4326 15.2527C37.4747 15.4105 37.5169 15.5717 37.5468 15.6958C37.5612 15.7553 37.576 15.8199 37.5862 15.8754C37.5904 15.8978 37.5994 15.9476 37.6034 16.004L37.6035 16.0051C37.6049 16.0252 37.6105 16.1032 37.5956 16.1987C37.5892 16.2396 37.5679 16.3667 37.4828 16.5059C37.3822 16.6706 37.1362 16.9223 36.7288 16.9223C36.2666 16.9223 35.8881 16.5752 35.8564 16.1356C35.8532 16.1213 35.8489 16.103 35.8435 16.0803C35.8186 15.9773 35.7809 15.8328 35.7391 15.6758C35.7172 15.5937 35.6929 15.5036 35.6688 15.4145C35.61 15.1968 35.553 14.9855 35.5379 14.9147C35.53 14.8777 35.5026 14.7908 35.4568 14.6927C35.4354 14.647 35.4148 14.6092 35.3978 14.5817C35.3897 14.5687 35.3842 14.5609 35.3817 14.5575C35.2911 14.4616 35.22 14.364 35.1671 14.2861C35.1257 14.2249 35.0835 14.1576 35.0518 14.1071C35.0439 14.0945 35.0367 14.083 35.0303 14.0728C34.9539 13.9519 34.9282 13.925 34.9285 13.9248C34.9285 13.9247 34.9289 13.9251 34.9297 13.9257C34.7023 13.7359 34.5319 13.6703 34.3181 13.6358C34.0813 13.5975 33.8137 13.5982 33.3628 13.5993C33.2808 13.5995 33.1928 13.5997 33.0978 13.5997C32.4687 13.5997 31.8007 13.5056 31.2084 13.4222L31.1759 13.4176C30.5456 13.3289 29.9959 13.2532 29.5058 13.2532C29.4387 13.2532 29.3647 13.2515 29.2939 13.2446C29.2598 13.2413 29.2054 13.2348 29.1433 13.2203C29.1425 13.2201 29.1415 13.2199 29.1404 13.2196C29.1044 13.2113 28.9363 13.1725 28.7751 13.0436C28.6781 12.9661 28.5288 12.8113 28.4743 12.5644C28.4168 12.3045 28.4953 12.0856 28.5796 11.9492C28.7076 11.7418 28.8919 11.6474 28.9239 11.631C28.9251 11.6304 28.926 11.6299 28.9268 11.6295C29.0298 11.5758 29.129 11.5492 29.1612 11.5406L29.1616 11.5405C29.316 11.4992 29.5663 11.4596 29.7466 11.4596H30.517C30.7216 11.4596 30.947 11.4364 31.2214 11.4027C31.2589 11.3981 31.2977 11.3932 31.3376 11.3883C31.5705 11.3592 31.8391 11.3256 32.1019 11.3103C32.2577 11.3013 32.4223 11.27 32.6629 11.2242C32.681 11.2208 32.6995 11.2173 32.7185 11.2137C32.961 11.1677 33.2852 11.1078 33.6229 11.1078C33.6325 11.1078 33.6675 11.1055 33.7461 11.0854C33.7838 11.0757 33.8252 11.0637 33.8756 11.0483C33.8898 11.044 33.9081 11.0384 33.9281 11.0322C33.965 11.0208 34.0078 11.0076 34.0423 10.9973C34.1356 10.9695 34.2199 10.9575 34.2768 10.9514C34.3363 10.945 34.3917 10.9424 34.4337 10.941C34.4693 10.9399 34.5065 10.9393 34.5349 10.9389C34.5365 10.9388 34.538 10.9388 34.5394 10.9388C34.5846 10.9069 34.6259 10.8822 34.6592 10.8636C34.7534 10.8108 34.8464 10.7726 34.8982 10.7516C34.9215 10.7421 34.9389 10.7351 34.9525 10.7297C34.967 10.7238 34.9773 10.7197 34.986 10.7161C35.0741 10.6506 35.1576 10.6059 35.2174 10.5765C35.2545 10.5583 35.2887 10.543 35.314 10.5319C35.3222 10.5282 35.3286 10.5255 35.3338 10.5232C35.3623 10.4889 35.388 10.4592 35.4089 10.435C35.4523 10.3848 35.4691 10.3653 35.4829 10.3471C35.4881 10.3403 35.4906 10.3367 35.4914 10.3353L35.4921 10.3343L35.4921 10.3342C35.4921 10.3342 35.4921 10.3342 35.4921 10.3342L35.4922 10.3341L35.4924 10.3335L35.4939 10.33C35.4952 10.3264 35.4977 10.3194 35.5009 10.3078C35.5323 10.1933 35.5778 10.1033 35.6058 10.0518C35.6126 10.0393 35.6192 10.0276 35.6253 10.017C35.638 9.8912 35.6588 9.758 35.6823 9.64733C35.7581 9.29145 35.758 8.87551 35.758 8.38133C35.758 8.36612 35.758 8.35084 35.758 8.33549C35.758 8.01849 35.7846 7.71424 35.8078 7.44804L35.8092 7.43189C35.8337 7.15128 35.8543 6.90971 35.8543 6.66569C35.8543 5.69616 35.8663 4.72287 35.8783 3.75452L35.8784 3.74892C35.8905 2.77701 35.9024 1.81003 35.9024 0.846536C35.9024 0.379007 36.294 0 36.777 0ZM35.6671 9.94572C35.6672 9.94554 35.667 9.94593 35.6664 9.94695C35.6668 9.94627 35.667 9.94585 35.6671 9.94572ZM35.0124 10.7043C35.0125 10.7043 35.0111 10.705 35.0079 10.7065C35.0108 10.705 35.0123 10.7043 35.0124 10.7043ZM35.8645 16.1736C35.8652 16.1772 35.865 16.1766 35.8644 16.1726C35.8644 16.1729 35.8645 16.1733 35.8645 16.1736ZM36.2728 15.3533C36.3924 15.2812 36.5439 15.2292 36.7288 15.2292C36.5617 15.2292 36.4056 15.2746 36.2728 15.3533Z" fill="#0F3E4D"/>
<path fill-rule="evenodd" clip-rule="evenodd" d="M36.9693 1.83936C37.4497 1.83936 37.8391 2.22656 37.8391 2.70419C37.8391 2.8849 37.8459 2.93791 37.8553 2.97334C37.8737 3.04222 37.9027 3.15396 37.9275 3.27065C37.9478 3.36606 37.9828 3.54102 37.9828 3.70547C37.9828 3.88786 38.0345 4.13659 38.1004 4.4542C38.104 4.47144 38.1076 4.48888 38.1113 4.50652C38.2627 5.23728 38.3181 5.94879 38.3181 6.68365C38.3181 6.91464 38.3607 7.15433 38.4234 7.49188L38.4268 7.51021C38.4842 7.81956 38.5575 8.21405 38.5575 8.63487C38.5575 8.75366 38.5594 8.92818 38.5724 9.09139C38.579 9.17317 38.5873 9.23836 38.596 9.28438C38.5976 9.29304 38.5991 9.29998 38.6003 9.30536C38.7059 9.52854 38.7208 9.73428 38.726 9.83458C38.7385 9.85216 38.7517 9.87144 38.7645 9.89138C38.8057 9.95561 38.8699 10.0666 38.909 10.2134C38.9754 10.4623 39.2112 10.6895 39.5702 10.8035L39.3055 11.6273L39.5702 10.8035C39.8613 10.896 40.1845 10.9667 40.4218 10.9808C40.6478 10.9943 40.8637 11.0406 41.0098 11.072C41.0192 11.074 41.0283 11.076 41.0371 11.0778C41.208 11.1143 41.2984 11.1309 41.3744 11.1341C41.3969 11.135 41.421 11.1353 41.46 11.1359C41.469 11.136 41.4789 11.1362 41.4897 11.1363C41.54 11.1371 41.6075 11.1383 41.6787 11.1426C41.7913 11.1494 41.9917 11.1666 42.1988 11.2469C42.2089 11.2478 42.2211 11.2488 42.2384 11.2502C42.2407 11.2504 42.2432 11.2506 42.2457 11.2508C42.2874 11.2541 42.3666 11.2603 42.4489 11.274C42.5402 11.2893 42.6682 11.3184 42.8052 11.3837C42.8047 11.3835 42.8045 11.3834 42.8045 11.3834C42.8046 11.3832 42.8272 11.3925 42.9011 11.4111C42.9266 11.4175 42.9475 11.4225 42.9725 11.4285C42.9894 11.4326 43.0083 11.4371 43.0317 11.4428C43.0808 11.4548 43.1421 11.4703 43.2057 11.4892L43.052 11.9993L43.2057 11.4892C43.3204 11.5233 43.4291 11.5643 43.5165 11.5982C43.549 11.6108 43.5778 11.6221 43.6045 11.6326C43.6585 11.6538 43.7038 11.6716 43.7541 11.69C43.8236 11.7155 43.874 11.7312 43.913 11.7406C43.9474 11.7488 43.9622 11.7495 43.9625 11.7495C43.9625 11.7495 43.9623 11.7495 43.9619 11.7495C44.2693 11.7495 44.5018 11.7535 44.6685 11.7615C44.7504 11.7655 44.8302 11.771 44.9012 11.7798C44.9361 11.7841 44.9824 11.7908 45.0326 11.8019L45.0336 11.8022C45.0655 11.8093 45.1793 11.8346 45.3016 11.9045C45.3612 11.9385 45.5041 12.0279 45.6138 12.2045C45.7512 12.4255 45.7886 12.7091 45.6864 12.9738C45.6046 13.1855 45.464 13.3051 45.4048 13.3509C45.335 13.405 45.2713 13.4377 45.236 13.4544C45.1215 13.5087 45.0063 13.533 44.9692 13.5409L44.9663 13.5415C44.8557 13.5649 44.7147 13.5846 44.5808 13.601C44.0453 13.6667 43.1325 13.7359 42.8976 13.7359C42.8184 13.7359 42.7186 13.7517 42.5296 13.79C42.5166 13.7927 42.5031 13.7954 42.4889 13.7983C42.3294 13.831 42.0935 13.8793 41.8533 13.8892C41.7647 13.8929 41.653 13.9 41.5302 13.9079C41.2915 13.9233 41.0109 13.9413 40.7769 13.9413C40.7172 13.9413 40.6262 13.9574 40.4355 14.0134C40.4119 14.0203 40.3851 14.0284 40.3558 14.0373C40.1973 14.0852 39.9636 14.1559 39.7359 14.1908C39.6866 14.1984 39.6358 14.2039 39.596 14.2079C39.5673 14.2108 39.5344 14.2139 39.5036 14.2168C39.4913 14.2179 39.4793 14.2191 39.468 14.2201C39.381 14.2284 39.3018 14.2367 39.2299 14.2477C39.2089 14.2509 39.1902 14.2541 39.1737 14.2573C39.126 14.2963 39.0818 14.3256 39.0493 14.3457C39.0271 14.3595 39.0064 14.3714 38.9892 14.381C38.9381 14.4576 38.8889 14.5411 38.8395 14.6339C38.6905 14.9133 38.5803 15.1474 38.5423 15.3306C38.5055 15.5082 38.4384 15.7533 38.3374 15.975C38.3373 15.9775 38.3372 15.9801 38.3372 15.9828C38.337 15.9906 38.3367 15.9996 38.3364 16.0118C38.3357 16.0366 38.3346 16.07 38.3324 16.1065C38.328 16.178 38.3179 16.2835 38.2864 16.4017C38.2211 16.6467 38.1744 16.9354 38.1744 17.1586C38.1744 17.2963 38.191 17.4423 38.216 17.6481L38.2183 17.667C38.2403 17.8477 38.2686 18.0808 38.2701 18.3228C38.2702 18.3235 38.2704 18.3242 38.2705 18.325C38.2731 18.3402 38.278 18.3634 38.286 18.3934C38.3027 18.4559 38.3238 18.5161 38.3376 18.5492L38.0709 18.6585L38.3376 18.5492C38.399 18.6973 38.4176 18.8355 38.4248 18.9238C38.4325 19.0177 38.4307 19.1045 38.428 19.1682C38.4256 19.2223 38.4216 19.2773 38.4188 19.3151C38.4184 19.3213 38.4179 19.327 38.4176 19.3322C38.416 19.3534 38.4151 19.3682 38.4144 19.38C38.4138 19.392 38.4139 19.395 38.4139 19.3923C38.4139 19.5982 38.3997 19.7872 38.388 19.942L38.3875 19.9489C38.3752 20.1129 38.366 20.2389 38.366 20.3679C38.366 20.6374 38.3066 21.0773 38.2581 21.3635C38.2348 21.5005 38.2029 21.6708 38.1659 21.7905L38.1655 21.7918C38.1581 21.8159 38.1326 21.8983 38.0835 21.9866L38.0822 21.989C38.0653 22.0196 37.9832 22.1683 37.8119 22.2861C37.7083 22.3573 37.5227 22.4504 37.2762 22.4395C37.0186 22.4281 36.8269 22.3094 36.7109 22.199C36.5327 22.0291 36.4801 21.8322 36.4708 21.7972C36.4705 21.7959 36.4702 21.7949 36.47 21.7941C36.4522 21.7292 36.4452 21.6747 36.4421 21.6469C36.4356 21.5877 36.4347 21.5331 36.4347 21.4975V20.4192C36.4347 20.3223 36.416 20.2072 36.3767 19.9911L36.3736 19.9739C36.3398 19.788 36.291 19.5199 36.291 19.2382C36.291 19.1829 36.2943 19.1269 36.2972 19.0845C36.3003 19.0392 36.3044 18.9899 36.3083 18.944L36.3099 18.9254C36.3175 18.8352 36.3247 18.7489 36.3293 18.6651C36.3323 18.6112 36.3334 18.5681 36.3335 18.5352C36.2889 18.4343 36.2664 18.3412 36.254 18.2708C36.2334 18.153 36.2326 18.0472 36.234 17.9797C36.2352 17.9242 36.239 17.8649 36.2411 17.8313C36.2415 17.8251 36.2419 17.8198 36.2421 17.8155C36.2431 17.7983 36.2436 17.7883 36.2437 17.7838C36.2376 17.6867 36.2134 17.5382 36.1914 17.4615C36.171 17.3905 36.1595 17.3255 36.1524 17.2754C36.1452 17.2241 36.1409 17.1763 36.1381 17.137C36.1353 17.0976 36.1334 17.0594 36.132 17.0289C36.1316 17.0198 36.1312 17.0115 36.1308 17.0038C36.1299 16.9826 36.1291 16.9655 36.1281 16.9474C36.128 16.9458 36.1279 16.9443 36.1278 16.9428C36.0711 16.815 36.0541 16.7002 36.048 16.6304C36.0456 16.603 36.0444 16.5765 36.044 16.552C36.0098 16.4805 35.9716 16.4086 35.9248 16.3263C35.6883 15.9105 35.8356 15.3829 36.2538 15.1478C36.4336 15.0467 36.6343 15.0161 36.8234 15.0472C36.8288 15.0257 36.8339 15.0036 36.8385 14.9815C36.933 14.5252 37.1609 14.0893 37.3023 13.824C37.4036 13.6339 37.5194 13.4423 37.6597 13.2544C37.7502 13.133 37.8508 13.0506 37.9264 12.9975C37.9848 12.9565 38.0405 12.9248 38.077 12.9049C38.2501 12.7451 38.4423 12.6715 38.5391 12.6381C38.6912 12.5857 38.8462 12.5564 38.9657 12.5381C39.0567 12.5242 39.1462 12.514 39.2232 12.5061C39.1601 12.4881 39.0991 12.4697 39.0408 12.4511C38.348 12.2311 37.5609 11.7 37.263 10.7772C37.2418 10.7492 37.2117 10.708 37.1829 10.6624C37.1403 10.5948 37.0792 10.4854 37.0411 10.3426C37.0121 10.2338 37.0013 10.1377 36.9961 10.0689C36.9935 10.0347 36.992 10.0038 36.9911 9.98153C36.9908 9.97464 36.9906 9.96894 36.9904 9.96402C36.9339 9.82929 36.9041 9.69789 36.8864 9.60467C36.8621 9.4765 36.8476 9.34504 36.8382 9.22825C36.8196 8.99434 36.8179 8.76409 36.8179 8.63487C36.8179 8.38844 36.7744 8.13864 36.7126 7.80597C36.7105 7.79433 36.7083 7.78256 36.706 7.77066C36.6498 7.46863 36.5784 7.08491 36.5784 6.68365C36.5784 6.03757 36.5299 5.44664 36.4074 4.85565C36.4021 4.83027 36.3963 4.80271 36.3901 4.77325C36.3343 4.50945 36.2463 4.09291 36.2432 3.72495C36.2429 3.72265 36.2425 3.7198 36.242 3.71636C36.2389 3.69551 36.2335 3.6661 36.2256 3.62901C36.2098 3.55469 36.1895 3.47565 36.1737 3.41636C36.1 3.13958 36.0995 2.88134 36.0995 2.70419C36.0995 2.22656 36.4889 1.83936 36.9693 1.83936ZM36.9878 9.91406C36.9878 9.914 36.988 9.91544 36.9883 9.91858C36.9879 9.91569 36.9877 9.91412 36.9878 9.91406ZM44.6042 11.8497C44.6039 11.8497 44.6035 11.8498 44.6032 11.8499C44.6175 11.8461 44.6198 11.8464 44.6042 11.8497ZM38.1744 21.5013C38.1744 21.5013 38.1744 21.5005 38.1744 21.4987L38.1744 21.5013ZM36.3313 18.472C36.3313 18.472 36.3313 18.4725 36.3314 18.4735C36.3313 18.4726 36.3313 18.4721 36.3313 18.472ZM38.604 9.31988C38.604 9.3199 38.6038 9.31936 38.6035 9.31825C38.6038 9.31931 38.604 9.31987 38.604 9.31988Z" fill="#0F3E4D"/>
<path d="M14.8584 23.7124L15.3113 35.4326C15.4546 39.1434 18.3692 42.151 22.0738 42.411L29.0974 42.904L22.0738 43.397C18.3692 43.657 15.4546 46.6646 15.3113 50.3754L14.8584 62.0956L14.4056 50.3754C14.2622 46.6646 11.3477 43.657 7.64312 43.397L0.619507 42.904L7.64312 42.411C11.3477 42.151 14.2622 39.1434 14.4056 35.4326L14.8584 23.7124Z" fill="#0F3E4D"/>
<path fill-rule="evenodd" clip-rule="evenodd" d="M14.8584 23.7124L14.4056 35.4326C14.4052 35.4443 14.4047 35.456 14.4042 35.4677C14.3453 36.8251 13.9155 38.0874 13.2121 39.1541C12.6573 39.9954 11.9323 40.715 11.0849 41.2637C10.101 41.9006 8.95197 42.3071 7.7127 42.4058C7.68954 42.4077 7.66635 42.4094 7.64312 42.411L0.619507 42.904L7.64312 43.397C7.66635 43.3986 7.68954 43.4004 7.7127 43.4022C8.95197 43.5009 10.101 43.9074 11.0849 44.5444C11.9323 45.093 12.6573 45.8126 13.2121 46.6539C13.9155 47.7206 14.3453 48.9829 14.4042 50.3404C14.4047 50.3521 14.4052 50.3637 14.4056 50.3754L14.8584 62.0956L15.3113 50.3754C15.3117 50.3637 15.3122 50.3521 15.3127 50.3404C15.3716 48.9829 15.8014 47.7206 16.5048 46.6539C17.0596 45.8126 17.7846 45.093 18.632 44.5444C19.6159 43.9074 20.7649 43.5009 22.0042 43.4022C22.0274 43.4004 22.0505 43.3986 22.0738 43.397L29.0974 42.904L22.0738 42.411C22.0505 42.4094 22.0274 42.4077 22.0042 42.4058C20.7649 42.3071 19.6159 41.9006 18.632 41.2637C17.7846 40.715 17.0596 39.9954 16.5048 39.1541C15.8014 38.0874 15.3716 36.8251 15.3127 35.4676C15.3122 35.456 15.3117 35.4443 15.3113 35.4326L14.8584 23.7124ZM14.8584 41.7947C14.5163 42.1923 14.1439 42.5633 13.7446 42.904C14.1439 43.2447 14.5163 43.6157 14.8584 44.0133C15.2006 43.6157 15.573 43.2447 15.9723 42.904C15.573 42.5633 15.2006 42.1923 14.8584 41.7947Z" fill="#0F3E4D"/>
<path fill-rule="evenodd" clip-rule="evenodd" d="M14.0054 22.4736C14.8182 22.4736 15.4771 23.1114 15.4771 23.8982C15.4771 25.5396 15.4567 27.184 15.4365 28.8167L15.4365 28.8176C15.4162 30.453 15.3961 32.0766 15.3961 33.6911C15.3961 34.2331 15.3509 34.7503 15.3115 35.2013L15.3098 35.2205C15.2685 35.6939 15.234 36.0967 15.234 36.5011C15.234 36.5553 15.2341 36.6109 15.2342 36.6679C15.2354 37.4145 15.2369 38.3879 15.0461 39.2839C15.0194 39.4094 14.9949 39.5919 14.9889 39.704C14.9647 40.1586 14.7671 40.4981 14.6997 40.6138L14.6965 40.6193C14.688 40.6339 14.678 40.6508 14.6695 40.6652C14.5507 41.0447 14.3836 41.3326 14.1948 41.5799C14.1143 41.6854 14.0299 41.7827 13.9738 41.8474C13.9688 41.8531 13.9641 41.8586 13.9596 41.8638C13.8966 41.9366 13.8529 41.9879 13.8097 42.0443C13.4808 42.4735 13.0406 42.6682 12.8821 42.7384C12.8782 42.7401 12.8744 42.7417 12.8709 42.7433C12.8152 42.768 12.7846 42.7812 12.7643 42.7899C12.7568 42.7931 12.7507 42.7958 12.7453 42.7981C12.5668 42.9332 12.3921 43.0186 12.2875 43.0665C12.19 43.1113 12.0768 43.1566 12.0139 43.1818C12.0121 43.1825 12.0103 43.1832 12.0086 43.1839C12.2812 43.3389 12.5499 43.5263 12.8193 43.7512C13.1954 44.0653 13.4421 44.4561 13.5728 44.663L13.5773 44.6702C13.5994 44.7052 13.6188 44.736 13.6363 44.764C13.6842 44.8403 13.7184 44.8948 13.7568 44.9514C13.7795 44.9849 13.7968 45.0087 13.81 45.0256C13.8231 45.0425 13.8292 45.0488 13.8284 45.048C14.1215 45.3538 14.3323 45.7398 14.4658 46.0259C14.6083 46.3309 14.7355 46.6805 14.803 46.9979C14.8026 46.9961 14.8029 46.9972 14.8041 47.002C14.8068 47.013 14.8144 47.0437 14.8298 47.1025C14.8488 47.1753 14.874 47.2693 14.9037 47.3796C14.9225 47.4497 14.9432 47.5262 14.9649 47.6067C15.0104 47.7753 15.0607 47.9613 15.1088 48.1417C15.1796 48.4074 15.2507 48.6787 15.301 48.8875C15.3251 48.9876 15.3501 49.0964 15.3673 49.1897C15.3743 49.2274 15.3894 49.3113 15.3962 49.4062L15.3963 49.408C15.3988 49.4419 15.4082 49.5731 15.3831 49.7339C15.3724 49.8027 15.3364 50.0165 15.1933 50.2507C15.0239 50.528 14.6099 50.9515 13.9244 50.9515C13.1465 50.9515 12.5097 50.3674 12.4563 49.6276C12.4508 49.6035 12.4436 49.5727 12.4345 49.5346C12.3927 49.3612 12.3292 49.118 12.2588 48.8539C12.222 48.7157 12.181 48.564 12.1405 48.4142C12.0416 48.0477 11.9456 47.6922 11.9202 47.573C11.9069 47.5107 11.8608 47.3645 11.7837 47.1994C11.7478 47.1225 11.7131 47.0588 11.6844 47.0126C11.6708 46.9907 11.6616 46.9777 11.6574 46.972C11.5048 46.8106 11.3853 46.6463 11.2963 46.5151C11.2265 46.4122 11.1555 46.299 11.1022 46.2139C11.0889 46.1927 11.0768 46.1733 11.066 46.1562C10.9375 45.9528 10.8942 45.9076 10.8947 45.9071C10.8948 45.9071 10.8954 45.9076 10.8967 45.9086C10.5141 45.5892 10.2273 45.4789 9.86752 45.4208C9.46897 45.3564 9.01872 45.3575 8.25988 45.3593C8.12192 45.3597 7.97376 45.36 7.81386 45.36C6.75521 45.36 5.63106 45.2017 4.63424 45.0613L4.57966 45.0537C3.51892 44.9043 2.59387 44.7769 1.76906 44.7769C1.65616 44.7769 1.53161 44.7741 1.41253 44.7625C1.35509 44.7569 1.26348 44.7459 1.15901 44.7215C1.1576 44.7212 1.15598 44.7208 1.15416 44.7204C1.09357 44.7064 0.810589 44.6411 0.53939 44.4243C0.376184 44.2938 0.124952 44.0333 0.0331095 43.6178C-0.0635868 43.1804 0.0685587 42.812 0.210297 42.5824C0.425726 42.2334 0.735876 42.0746 0.789768 42.047C0.791744 42.046 0.793376 42.0452 0.794645 42.0445C0.968005 41.9541 1.135 41.9094 1.18906 41.8949L1.18981 41.8947C1.44965 41.8252 1.87084 41.7586 2.17423 41.7586H3.4708C3.815 41.7586 4.1944 41.7194 4.65612 41.6628C4.71932 41.6551 4.78464 41.6469 4.85171 41.6385C5.24361 41.5895 5.69565 41.533 6.138 41.5074C6.40004 41.4922 6.67705 41.4395 7.08199 41.3625C7.11243 41.3567 7.14359 41.3508 7.17553 41.3447C7.58369 41.2673 8.12918 41.1665 8.69758 41.1665C8.71375 41.1665 8.77259 41.1626 8.90485 41.1288C8.96828 41.1125 9.03799 41.0923 9.12277 41.0665C9.14676 41.0592 9.17752 41.0497 9.2112 41.0393C9.2733 41.0201 9.34534 40.9979 9.40327 40.9806C9.56042 40.9337 9.7023 40.9136 9.79804 40.9033C9.89818 40.8925 9.99139 40.8882 10.062 40.8859C10.1219 40.8839 10.1845 40.883 10.2324 40.8822C10.235 40.8822 10.2375 40.8821 10.24 40.8821C10.3159 40.8285 10.3854 40.7869 10.4414 40.7555C10.6 40.6667 10.7566 40.6024 10.8438 40.567C10.8829 40.5511 10.9121 40.5394 10.9351 40.5302C10.9595 40.5204 10.9769 40.5134 10.9914 40.5073C11.1397 40.3972 11.2802 40.3219 11.3808 40.2725C11.4432 40.2418 11.5008 40.216 11.5434 40.1973C11.5573 40.1912 11.5681 40.1865 11.5768 40.1827C11.6248 40.1249 11.668 40.075 11.7032 40.0342C11.7762 39.9499 11.8044 39.9169 11.8277 39.8865C11.8365 39.8749 11.8406 39.8688 11.842 39.8665L11.8431 39.8648L11.8432 39.8647C11.8432 39.8647 11.8432 39.8647 11.8432 39.8647L11.8433 39.8645L11.8437 39.8635L11.8462 39.8575C11.8484 39.8516 11.8526 39.8398 11.858 39.8203C11.9107 39.6275 11.9874 39.4762 12.0345 39.3894C12.0459 39.3684 12.0571 39.3486 12.0673 39.3308C12.0888 39.1192 12.1236 38.895 12.1633 38.7088C12.2908 38.1099 12.2907 37.4099 12.2906 36.5783C12.2906 36.5527 12.2906 36.527 12.2906 36.5011C12.2906 35.9676 12.3353 35.4556 12.3745 35.0077L12.3768 34.9805C12.4181 34.5083 12.4527 34.1017 12.4527 33.6911C12.4527 32.0595 12.473 30.4216 12.4932 28.792L12.4933 28.7826C12.5136 27.147 12.5337 25.5197 12.5337 23.8982C12.5337 23.1114 13.1926 22.4736 14.0054 22.4736ZM12.1376 39.2109C12.1378 39.2106 12.1375 39.2113 12.1365 39.213C12.1371 39.2118 12.1375 39.2111 12.1376 39.2109ZM11.036 40.4874C11.0361 40.4874 11.0337 40.4887 11.0283 40.4912C11.0331 40.4887 11.0358 40.4875 11.036 40.4874ZM12.4699 49.6916C12.471 49.6976 12.4707 49.6966 12.4696 49.6899C12.4697 49.6905 12.4698 49.691 12.4699 49.6916ZM13.1569 48.3111C13.3583 48.1898 13.6132 48.1023 13.9244 48.1023C13.6432 48.1023 13.3804 48.1786 13.1569 48.3111Z" fill="#0F3E4D"/>
<path fill-rule="evenodd" clip-rule="evenodd" d="M14.3297 25.5688C15.1382 25.5688 15.7935 26.2205 15.7935 27.0242C15.7935 27.3284 15.805 27.4176 15.8208 27.4772C15.8517 27.5931 15.9005 27.7812 15.9423 27.9775C15.9765 28.1381 16.0353 28.4325 16.0353 28.7093C16.0353 29.0162 16.1223 29.4348 16.2332 29.9693C16.2392 29.9983 16.2453 30.0276 16.2515 30.0573C16.5064 31.2871 16.5995 32.4845 16.5995 33.7211C16.5995 34.1098 16.6712 34.5132 16.7767 35.0813L16.7824 35.1121C16.8792 35.6327 17.0025 36.2966 17.0025 37.0048C17.0025 37.2047 17.0057 37.4984 17.0276 37.773C17.0386 37.9106 17.0526 38.0204 17.0673 38.0978C17.07 38.1124 17.0725 38.1241 17.0745 38.1331C17.2522 38.5087 17.2773 38.8549 17.286 39.0237C17.307 39.0533 17.3292 39.0857 17.3508 39.1193C17.4202 39.2274 17.5282 39.4141 17.594 39.6612C17.7057 40.0801 18.1026 40.4624 18.7067 40.6543L18.2612 42.0406L18.7067 40.6543C19.1966 40.8099 19.7405 40.9289 20.1399 40.9527C20.5202 40.9753 20.8834 41.0533 21.1294 41.1061C21.1452 41.1095 21.1605 41.1128 21.1754 41.1159C21.463 41.1774 21.615 41.2053 21.7429 41.2106C21.7809 41.2121 21.8213 41.2127 21.887 41.2136C21.9022 41.2139 21.9188 41.2141 21.937 41.2144C22.0217 41.2156 22.1351 41.2177 22.255 41.2249C22.4445 41.2363 22.7818 41.2653 23.1303 41.4005C23.1473 41.402 23.1678 41.4037 23.197 41.406C23.2008 41.4063 23.2049 41.4066 23.2093 41.407C23.2794 41.4125 23.4126 41.423 23.5512 41.4461C23.7049 41.4718 23.9202 41.5208 24.1508 41.6307C24.15 41.6303 24.1496 41.6301 24.1496 41.6301C24.1497 41.6299 24.1878 41.6454 24.3122 41.6768C24.355 41.6876 24.3902 41.696 24.4322 41.7061C24.4608 41.713 24.4925 41.7206 24.5319 41.7302C24.6145 41.7504 24.7177 41.7763 24.8248 41.8082L24.5661 42.6666L24.8248 41.8082C25.0177 41.8656 25.2007 41.9346 25.3478 41.9916C25.4025 42.0129 25.451 42.0319 25.4959 42.0495C25.5867 42.0852 25.6629 42.1151 25.7476 42.1461C25.8645 42.189 25.9494 42.2155 26.0151 42.2313C26.0728 42.2451 26.0978 42.2462 26.0983 42.2463C26.0984 42.2463 26.0981 42.2463 26.0973 42.2463C26.6147 42.2463 27.006 42.253 27.2865 42.2665C27.4242 42.2732 27.5586 42.2825 27.678 42.2972C27.7367 42.3044 27.8148 42.3157 27.8991 42.3345L27.9008 42.3349C27.9545 42.3468 28.146 42.3895 28.3519 42.5071C28.4521 42.5643 28.6926 42.7147 28.8773 43.012C29.1084 43.3839 29.1713 43.8611 28.9994 44.3065C28.8618 44.6629 28.6251 44.8641 28.5256 44.9412C28.4081 45.0322 28.3008 45.0872 28.2415 45.1154C28.0488 45.2068 27.8548 45.2477 27.7925 45.2609L27.7877 45.2619C27.6015 45.3013 27.3642 45.3345 27.1388 45.3621C26.2376 45.4727 24.7016 45.5891 24.3062 45.5891C24.173 45.5891 24.005 45.6157 23.6869 45.6802C23.6651 45.6846 23.6423 45.6893 23.6184 45.6942C23.3501 45.7491 22.9531 45.8304 22.5489 45.8471C22.3997 45.8532 22.2117 45.8653 22.0052 45.8786C21.6033 45.9044 21.1312 45.9348 20.7374 45.9348C20.637 45.9348 20.4838 45.9619 20.1629 46.056C20.1231 46.0677 20.0781 46.0813 20.0287 46.0963C19.762 46.177 19.3687 46.296 18.9856 46.3546C18.9026 46.3674 18.817 46.3766 18.7501 46.3834C18.7018 46.3883 18.6465 46.3935 18.5947 46.3983C18.5739 46.4003 18.5537 46.4022 18.5347 46.404C18.3883 46.418 18.255 46.4319 18.1341 46.4504C18.0987 46.4558 18.0672 46.4612 18.0394 46.4665C17.9591 46.5322 17.8847 46.5815 17.8302 46.6153C17.7928 46.6385 17.7578 46.6586 17.7289 46.6747C17.643 46.8036 17.5602 46.9441 17.477 47.1003C17.2264 47.5705 17.0408 47.9644 16.9769 48.2728C16.915 48.5716 16.8021 48.9841 16.632 49.3572C16.6319 49.3614 16.6318 49.3657 16.6317 49.3704C16.6313 49.3834 16.6309 49.3986 16.6304 49.419C16.6292 49.4608 16.6274 49.5171 16.6236 49.5784C16.6162 49.6987 16.5993 49.8763 16.5462 50.0752C16.4363 50.4876 16.3577 50.9735 16.3577 51.3491C16.3577 51.5807 16.3857 51.8264 16.4278 52.1728L16.4317 52.2047C16.4687 52.5088 16.5164 52.901 16.5188 53.3083C16.519 53.3094 16.5192 53.3106 16.5195 53.3119C16.5238 53.3374 16.5322 53.3765 16.5456 53.4271C16.5736 53.5322 16.6092 53.6334 16.6324 53.6892L16.1836 53.8731L16.6324 53.6892C16.7357 53.9384 16.767 54.1709 16.7791 54.3197C16.7921 54.4777 16.7891 54.6237 16.7845 54.731C16.7806 54.822 16.7737 54.9146 16.7691 54.9781C16.7683 54.9885 16.7676 54.9982 16.767 55.0069C16.7644 55.0426 16.7627 55.0675 16.7617 55.0873C16.7606 55.1076 16.7607 55.1126 16.7607 55.108C16.7607 55.4546 16.7368 55.7725 16.7172 56.0331L16.7164 56.0447C16.6956 56.3208 16.6801 56.5328 16.6801 56.7498C16.6801 57.2034 16.5803 57.9436 16.4986 58.4254C16.4595 58.6559 16.4057 58.9425 16.3434 59.1439L16.3428 59.1461C16.3302 59.1866 16.2874 59.3253 16.2048 59.4739L16.2026 59.4779C16.1741 59.5295 16.036 59.7796 15.7477 59.9778C15.5733 60.0978 15.2611 60.2544 14.8463 60.2361C14.4127 60.2169 14.09 60.0171 13.895 59.8312C13.5949 59.5453 13.5065 59.2141 13.4908 59.1551C13.4902 59.153 13.4898 59.1513 13.4894 59.1499C13.4595 59.0408 13.4478 58.949 13.4426 58.9022C13.4315 58.8026 13.4301 58.7107 13.4301 58.6508V56.8362C13.4301 56.6732 13.3985 56.4794 13.3325 56.1157L13.3273 56.0869C13.2704 55.7739 13.1883 55.3227 13.1883 54.8487C13.1883 54.7556 13.1939 54.6614 13.1987 54.5901C13.2039 54.5138 13.2108 54.4308 13.2173 54.3536L13.22 54.3223C13.2328 54.1705 13.245 54.0253 13.2527 53.8843C13.2577 53.7935 13.2597 53.7211 13.2597 53.6656C13.1847 53.4958 13.1468 53.3392 13.1261 53.2208C13.0913 53.0225 13.09 52.8445 13.0924 52.7307C13.0943 52.6375 13.1007 52.5377 13.1043 52.4811C13.105 52.4707 13.1055 52.4617 13.106 52.4545C13.1077 52.4255 13.1084 52.4088 13.1087 52.4011C13.0984 52.2377 13.0577 51.9879 13.0206 51.8588C12.9863 51.7393 12.967 51.63 12.9551 51.5455C12.9429 51.4593 12.9357 51.3788 12.931 51.3126C12.9262 51.2463 12.923 51.1822 12.9206 51.1308C12.9199 51.1155 12.9193 51.1016 12.9187 51.0885C12.9171 51.0529 12.9158 51.024 12.9141 50.9936C12.9139 50.991 12.9138 50.9884 12.9136 50.9859C12.8182 50.7708 12.7896 50.5776 12.7793 50.4602C12.7752 50.414 12.7733 50.3694 12.7726 50.3282C12.715 50.2079 12.6507 50.0869 12.572 49.9484C12.174 49.2487 12.4219 48.3608 13.1256 47.9651C13.4282 47.795 13.7659 47.7436 14.0842 47.7959C14.0933 47.7596 14.1018 47.7225 14.1095 47.6853C14.2687 46.9174 14.6521 46.1838 14.8901 45.7373C15.0606 45.4175 15.2556 45.095 15.4915 44.7787C15.644 44.5745 15.8132 44.4359 15.9405 44.3465C16.0387 44.2774 16.1324 44.2241 16.1938 44.1907C16.4851 43.9218 16.8086 43.7978 16.9715 43.7416C17.2274 43.6534 17.4882 43.6041 17.6894 43.5734C17.8426 43.55 17.9932 43.5328 18.1228 43.5195C18.0166 43.4892 17.914 43.4582 17.8157 43.427C16.65 43.0567 15.3253 42.163 14.8239 40.61C14.7884 40.5629 14.7377 40.4935 14.6893 40.4168C14.6176 40.3031 14.5147 40.119 14.4506 39.8787C14.4018 39.6955 14.3836 39.5337 14.3748 39.418C14.3704 39.3605 14.368 39.3085 14.3665 39.271C14.366 39.2594 14.3656 39.2498 14.3653 39.2415C14.2702 39.0148 14.22 38.7937 14.1903 38.6368C14.1494 38.4211 14.1249 38.1999 14.1092 38.0033C14.0778 37.6097 14.0749 37.2222 14.0749 37.0048C14.0749 36.59 14.0018 36.1697 13.8978 35.6098C13.8941 35.5903 13.8904 35.5704 13.8867 35.5504C13.7921 35.0421 13.6719 34.3964 13.6719 33.7211C13.6719 32.6339 13.5903 31.6394 13.3841 30.6448C13.3753 30.6021 13.3655 30.5558 13.355 30.5062C13.2612 30.0623 13.113 29.3613 13.1079 28.742C13.1074 28.7382 13.1067 28.7334 13.1058 28.7276C13.1006 28.6925 13.0915 28.643 13.0782 28.5806C13.0516 28.4555 13.0175 28.3225 12.9909 28.2227C12.8668 27.7569 12.8659 27.3224 12.8659 27.0242C12.8659 26.2205 13.5213 25.5688 14.3297 25.5688ZM14.3608 39.1575C14.3609 39.1574 14.3612 39.1598 14.3616 39.1651C14.361 39.1602 14.3608 39.1576 14.3608 39.1575ZM27.1783 42.4148C27.1777 42.415 27.1771 42.4151 27.1765 42.4152C27.2006 42.4088 27.2044 42.4093 27.1783 42.4148ZM16.3578 58.6572C16.3578 58.6572 16.3578 58.6558 16.3577 58.6528L16.3578 58.6572ZM13.256 53.5594C13.256 53.5594 13.2562 53.5602 13.2563 53.5619C13.2561 53.5602 13.256 53.5594 13.256 53.5594ZM17.0807 38.1575C17.0807 38.1576 17.0804 38.1567 17.0799 38.1548C17.0804 38.1566 17.0807 38.1575 17.0807 38.1575Z" fill="#0F3E4D"/>
</svg>
