<svg width="176" height="176" viewBox="0 0 176 176" fill="none" xmlns="http://www.w3.org/2000/svg">
<g filter="url(#filter0_d_125_3671)">
<path d="M88 18L97.9886 31.7838L112.492 22.8717L116.445 39.4288L133.255 36.7452L130.571 53.5548L147.128 57.5083L138.216 72.0114L152 82L138.216 91.9886L147.128 106.492L130.571 110.445L133.255 127.255L116.445 124.571L112.492 141.128L97.9886 132.216L88 146L78.0114 132.216L63.5083 141.128L59.5548 124.571L42.7452 127.255L45.4288 110.445L28.8717 106.492L37.7838 91.9886L24 82L37.7838 72.0114L28.8717 57.5083L45.4288 53.5548L42.7452 36.7452L59.5548 39.4288L63.5083 22.8717L78.0114 31.7838L88 18Z" fill="#5EBA83"/>
<path d="M46.0535 90.1276L46.7058 91.6842L49.6532 90.449L52.7438 97.8238L54.6194 97.0377L51.5288 89.663L54.4761 88.4278L53.8237 86.8712L46.0535 90.1276Z" fill="white"/>
<path d="M62.6084 93.8397C65.3388 92.6954 66.4169 90.1136 65.2726 87.3832C64.1069 84.6017 61.4889 83.5089 58.7585 84.6532C56.028 85.7974 54.9714 88.4302 56.1371 91.2117C57.2814 93.9422 59.8779 94.984 62.6084 93.8397ZM61.956 92.2831C60.2718 92.9889 58.7752 92.2811 57.9999 90.431C57.1978 88.5172 57.7266 86.9156 59.4108 86.2098C61.095 85.5039 62.6077 86.25 63.4097 88.1639C64.1851 90.0139 63.6402 91.5773 61.956 92.2831Z" fill="white"/>
<path d="M64.9065 82.2266L68.6495 91.158L70.5251 90.372L69.2845 87.4119L71.747 86.3799C73.6099 85.5992 74.3852 83.8343 73.6473 82.0735C72.9094 80.3128 71.1074 79.6279 69.2446 80.4086L64.9065 82.2266ZM68.6322 85.8552L67.4344 82.9972L69.7056 82.0454C70.5987 81.6711 71.4028 81.9792 71.7717 82.8595C72.1407 83.7399 71.7964 84.5292 70.9033 84.9035L68.6322 85.8552Z" fill="white"/>
<path d="M86.8332 81.5575L79.879 75.9519L76.8934 77.2032L80.6363 86.1345L82.5119 85.3485L79.4427 78.0248L86.4034 83.7176L89.4273 82.4504L85.6844 73.519L83.8088 74.305L86.8332 81.5575Z" fill="white"/>
<path d="M95.5776 80.0229C98.3081 78.8786 99.3861 76.2968 98.2418 73.5664C97.0762 70.7849 94.4582 69.6921 91.7277 70.8363C88.9973 71.9806 87.9407 74.6134 89.1063 77.3949C90.2506 80.1253 92.8472 81.1672 95.5776 80.0229ZM94.9253 78.4663C93.2411 79.1721 91.7445 78.4643 90.9691 76.6142C90.1671 74.7004 90.6959 73.0988 92.3801 72.3929C94.0643 71.6871 95.5769 72.4332 96.379 74.3471C97.1543 76.1971 96.6095 77.7605 94.9253 78.4663Z" fill="white"/>
<path d="M96.7658 68.875L97.4182 70.4316L100.366 69.1964L103.456 76.5711L105.332 75.7851L102.241 68.4104L105.188 67.1752L104.536 65.6186L96.7658 68.875Z" fill="white"/>
<path d="M113.333 72.5817C115.783 71.5551 116.858 69.3947 116.243 66.9973L114.189 67.3932C114.719 69.016 114.161 70.4048 112.681 71.0251C110.984 71.7363 109.488 71.0285 108.712 69.1784C107.91 67.2646 108.439 65.663 110.136 64.9518C111.641 64.3208 113.013 64.9459 113.815 66.5L115.474 65.2345C114.16 63.1004 111.895 62.3846 109.484 63.3952C106.74 64.5448 105.684 67.1776 106.849 69.9591C107.994 72.6895 110.59 73.7313 113.333 72.5817Z" fill="white"/>
<path d="M123.157 62.1349L118.985 63.8834L117.445 60.2087L115.569 60.9948L119.312 69.9261L121.188 69.1401L119.632 65.4272L123.804 63.6787L125.36 67.3916L127.248 66.6002L123.505 57.6689L121.617 58.4602L123.157 62.1349Z" fill="white"/>
<path d="M73.0054 95.4927L76.7484 104.424L78.624 103.638L77.3834 100.678L79.8459 99.6459C81.7088 98.8652 82.4841 97.1003 81.7462 95.3396C81.0083 93.5788 79.2063 92.894 77.3435 93.6747L73.0054 95.4927ZM76.7311 99.1213L75.5334 96.2633L77.8045 95.3115C78.6976 94.9372 79.5017 95.2452 79.8706 96.1256C80.2396 97.006 79.8954 97.7952 79.0022 98.1695L76.7311 99.1213Z" fill="white"/>
<path d="M85.7565 96.3289L90.3115 94.42L89.6591 92.8634L85.1041 94.7723L84.2058 92.6288L89.1564 90.5541L88.504 88.9975L81.6779 91.8582L85.4209 100.79L92.3746 97.8754L91.7222 96.3188L86.6441 98.4469L85.7565 96.3289Z" fill="white"/>
<path d="M97.9519 91.788C99.4897 90.7686 100.021 89.316 99.3739 87.7721C98.6307 85.9986 97.0258 85.4262 95.0609 86.2496L90.2379 88.2708L93.9809 97.2022L95.8565 96.4162L94.6106 93.4433L96.499 92.6519C97.8642 92.0798 98.3621 92.5161 99.7097 94.8013L101.892 93.887C100.436 91.7372 99.7311 91.2374 97.9519 91.788ZM92.7659 89.0414L95.3177 87.972C96.3767 87.5282 97.1647 87.7979 97.5283 88.6656C97.8919 89.5332 97.4106 90.4249 96.3389 90.874L93.9529 91.8739L92.7659 89.0414Z" fill="white"/>
<path d="M111.91 89.6886L106.141 85.7311L107.988 80.8322L105.73 81.7786L103.617 88.334L101.596 83.511L99.72 84.2971L103.463 93.2284L105.339 92.4424L104.419 90.2478L105.458 87.5023L109.549 90.6779L111.91 89.6886Z" fill="white"/>
<path d="M116.203 88.0395C118.308 87.1572 119.304 85.5248 118.657 83.981C117.256 80.6381 111.996 84.1926 111.172 82.2277C110.899 81.577 111.292 80.9026 112.287 80.4855C113.703 79.892 115.091 80.3754 115.847 81.8584L117.033 80.3565C115.91 78.6072 113.795 78.2487 111.715 79.1203C109.661 79.9811 108.703 81.5975 109.35 83.1413C110.836 86.6883 116.049 83.019 116.829 84.8818C117.097 85.5198 116.692 86.1996 115.722 86.6059C114.216 87.2369 112.635 86.8645 111.715 85.4202L110.522 86.9401C111.867 88.7167 114.097 88.9217 116.203 88.0395Z" fill="white"/>
</g>
<defs>
<filter id="filter0_d_125_3671" x="0" y="0" width="176" height="176" filterUnits="userSpaceOnUse" color-interpolation-filters="sRGB">
<feFlood flood-opacity="0" result="BackgroundImageFix"/>
<feColorMatrix in="SourceAlpha" type="matrix" values="0 0 0 0 0 0 0 0 0 0 0 0 0 0 0 0 0 0 127 0" result="hardAlpha"/>
<feOffset dy="6"/>
<feGaussianBlur stdDeviation="12"/>
<feColorMatrix type="matrix" values="0 0 0 0 0 0 0 0 0 0 0 0 0 0 0 0 0 0 0.1 0"/>
<feBlend mode="normal" in2="BackgroundImageFix" result="effect1_dropShadow_125_3671"/>
<feBlend mode="normal" in="SourceGraphic" in2="effect1_dropShadow_125_3671" result="shape"/>
</filter>
</defs>
</svg>
