<svg width="17" height="11" viewBox="0 0 17 11" fill="none" xmlns="http://www.w3.org/2000/svg">
<path d="M16.6505 4.68903C16.6029 4.56628 16.5315 4.45414 16.4405 4.35903L12.4405 0.359033C12.3473 0.265795 12.2366 0.191834 12.1147 0.141374C11.9929 0.0909133 11.8624 0.0649414 11.7305 0.0649414C11.4642 0.0649414 11.2088 0.170729 11.0205 0.359033C10.8322 0.547337 10.7264 0.802732 10.7264 1.06903C10.7264 1.33533 10.8322 1.59073 11.0205 1.77903L13.3205 4.06903H1.73049C1.46528 4.06903 1.21092 4.17439 1.02339 4.36193C0.835849 4.54946 0.730492 4.80382 0.730492 5.06903C0.730492 5.33425 0.835849 5.5886 1.02339 5.77614C1.21092 5.96368 1.46528 6.06903 1.73049 6.06903H13.3205L11.0205 8.35903C10.9268 8.452 10.8524 8.5626 10.8016 8.68446C10.7508 8.80632 10.7247 8.93702 10.7247 9.06903C10.7247 9.20104 10.7508 9.33175 10.8016 9.45361C10.8524 9.57547 10.9268 9.68607 11.0205 9.77903C11.1135 9.87276 11.2241 9.94716 11.3459 9.99792C11.4678 10.0487 11.5985 10.0748 11.7305 10.0748C11.8625 10.0748 11.9932 10.0487 12.1151 9.99792C12.2369 9.94716 12.3475 9.87276 12.4405 9.77903L16.4405 5.77903C16.5315 5.68393 16.6029 5.57178 16.6505 5.44903C16.7505 5.20557 16.7505 4.93249 16.6505 4.68903Z" fill="#323232"/>
</svg>
