<svg width="690" height="394" viewBox="0 0 690 394" fill="none" xmlns="http://www.w3.org/2000/svg">
<path d="M38.8729 337.891C70.0405 356.283 101.544 374.283 133.326 391.601C133.574 391.739 133.848 391.823 134.131 391.849C134.414 391.875 134.7 391.841 134.971 391.751C135.241 391.66 135.491 391.514 135.703 391.321C135.915 391.129 136.086 390.895 136.204 390.634C144.183 372.583 153.057 354.939 162.793 337.769C167.218 330.025 170.162 323.45 175.247 314.931C178.8 308.983 183.261 297.903 185.481 292.148C185.658 291.67 185.735 291.162 185.708 290.654C185.68 290.146 185.55 289.65 185.324 289.197C185.098 288.744 184.781 288.343 184.394 288.019C184.006 287.695 183.556 287.454 183.071 287.313C176.181 285.28 161.628 281.227 153.838 280.797C145.245 280.342 136.624 279.888 128.048 280.489C111.578 281.648 95.5827 286.707 81.3724 295.253C67.5774 303.594 64.2185 307.288 52.7394 318.567C51.4472 319.834 49.0368 322.193 46.6797 324.525C42.9271 328.192 40.9454 329.569 37.8206 333.783C37.4243 334.474 37.3124 335.292 37.5092 336.06C37.706 336.828 38.1957 337.485 38.8729 337.891Z" fill="#F3CADF"/>
<path d="M242.232 447.169C260.625 416.001 278.625 384.498 295.942 352.716C296.08 352.468 296.165 352.193 296.19 351.91C296.216 351.627 296.183 351.341 296.092 351.071C296.001 350.8 295.855 350.551 295.663 350.339C295.471 350.126 295.237 349.956 294.976 349.837C276.924 341.859 259.28 332.985 242.11 323.249C234.366 318.824 227.792 315.88 219.272 310.794C213.324 307.242 202.245 302.781 196.49 300.56C196.012 300.384 195.503 300.307 194.995 300.334C194.488 300.361 193.992 300.492 193.538 300.718C193.085 300.944 192.684 301.26 192.36 301.648C192.036 302.035 191.796 302.485 191.655 302.971C189.621 309.861 185.569 324.413 185.139 332.203C184.684 340.797 184.229 349.418 184.83 357.993C185.989 374.464 191.049 390.459 199.594 404.669C207.936 418.464 211.63 421.823 222.908 433.302C224.175 434.594 226.535 437.005 228.866 439.362C232.534 443.114 233.91 445.096 238.124 448.221C238.815 448.617 239.633 448.729 240.401 448.532C241.169 448.336 241.827 447.846 242.232 447.169Z" fill="#D2CCFC"/>
<path d="M343.759 245.924C312.591 227.532 281.088 209.532 249.306 192.214C249.058 192.076 248.783 191.992 248.5 191.966C248.217 191.94 247.931 191.974 247.661 192.064C247.39 192.155 247.141 192.301 246.928 192.493C246.716 192.686 246.545 192.92 246.427 193.181C238.449 211.232 229.575 228.876 219.838 246.046C215.414 253.79 212.47 260.365 207.384 268.884C203.832 274.832 199.371 285.912 197.15 291.666C196.974 292.145 196.897 292.653 196.924 293.161C196.951 293.669 197.081 294.165 197.307 294.618C197.533 295.071 197.85 295.472 198.238 295.796C198.625 296.12 199.075 296.36 199.561 296.502C206.45 298.535 221.003 302.588 228.793 303.018C237.387 303.473 246.008 303.927 254.583 303.326C271.054 302.167 287.049 297.108 301.259 288.562C315.054 280.221 318.413 276.526 329.892 265.248C331.184 263.981 333.595 261.621 335.952 259.29C339.704 255.623 341.686 254.246 344.811 250.032C345.207 249.341 345.319 248.523 345.122 247.755C344.925 246.987 344.436 246.329 343.759 245.924Z" fill="#F3CADF"/>
<path d="M144.344 138.905C125.95 170.074 107.952 201.575 90.6356 233.354C90.4976 233.602 90.4131 233.876 90.3873 234.16C90.3615 234.443 90.3951 234.729 90.486 234.999C90.5768 235.27 90.7229 235.519 90.915 235.731C91.1071 235.944 91.3411 236.114 91.6021 236.232C109.654 244.211 127.298 253.085 144.467 262.821C152.212 267.246 158.788 270.186 167.306 275.276C173.253 278.828 184.335 283.285 190.088 285.51C190.566 285.686 191.075 285.763 191.582 285.736C192.09 285.709 192.586 285.579 193.039 285.353C193.492 285.127 193.893 284.81 194.218 284.423C194.542 284.035 194.782 283.585 194.923 283.1C196.958 276.206 201.008 261.659 201.438 253.869C201.892 245.276 202.346 236.656 201.747 228.077C200.586 211.607 195.527 195.613 186.982 181.403C178.64 167.609 174.946 164.25 163.67 152.767C162.401 151.479 160.043 149.065 157.712 146.708C154.047 142.951 152.667 140.974 148.453 137.849C147.762 137.452 146.943 137.34 146.174 137.538C145.406 137.736 144.748 138.226 144.344 138.905Z" fill="#D2CCFC"/>
<path d="M627.922 57.0782C567.033 51.6167 469.419 51.0982 403.674 53.93C402.334 53.9864 400.922 54.2198 399.561 54.6096C398.201 54.9994 396.934 55.5336 395.873 56.1651C394.812 56.7966 393.99 57.5058 393.478 58.2303C392.966 58.9547 392.782 59.6721 392.94 60.3189L421.589 176.371C421.766 177.064 422.331 177.652 423.229 178.075C424.126 178.497 425.323 178.74 426.699 178.778C428.075 178.817 429.582 178.649 431.067 178.293C432.552 177.936 433.963 177.404 435.157 176.749C495.916 143.187 555.081 108.937 612.652 73.9988L629.539 63.4901C630.538 62.8654 631.305 62.1727 631.778 61.4694C632.25 60.766 632.414 60.0723 632.256 59.4455C632.098 58.8188 631.623 58.2772 630.869 57.8655C630.115 57.4538 629.105 57.1839 627.922 57.0782Z" fill="#F9EF85"/>
<path d="M379.463 71.1598C394.194 137.269 410.321 203.065 426.678 268.792C428.385 275.632 430.16 282.635 433.322 288.673C438.038 297.676 447.766 293.862 447.157 285.666C446.139 271.974 441.894 261.076 438.808 247.617C435.362 232.566 431.785 217.512 428.077 202.454C420.819 172.772 415.08 145.037 407.468 115.453L394.486 64.9756C389.994 47.7573 378.086 57.9833 379.463 71.1598Z" fill="#8EC5B0"/>
</svg>
