<svg width="18" height="18" viewBox="0 0 18 18" fill="none" xmlns="http://www.w3.org/2000/svg">
<path d="M15.5417 5.99917L5.88168 0.459172C5.35896 0.157331 4.76567 -0.000790498 4.16207 0.000867396C3.55847 0.00252529 2.96606 0.163903 2.44501 0.468611C1.92396 0.773318 1.49283 1.2105 1.19542 1.73575C0.898015 2.261 0.744917 2.8556 0.75168 3.45917V14.5792C0.75168 15.4862 1.112 16.3561 1.75337 16.9975C2.39475 17.6389 3.26464 17.9992 4.17168 17.9992C4.77212 17.9982 5.36177 17.8395 5.88168 17.5392L15.5417 11.9992C16.0607 11.6988 16.4917 11.2671 16.7913 10.7476C17.0909 10.2281 17.2486 9.63889 17.2486 9.03917C17.2486 8.43945 17.0909 7.85027 16.7913 7.33074C16.4917 6.8112 16.0607 6.37958 15.5417 6.07917V5.99917ZM14.5417 10.1892L4.88168 15.8092C4.66517 15.9319 4.42055 15.9964 4.17168 15.9964C3.92281 15.9964 3.67819 15.9319 3.46168 15.8092C3.24578 15.6845 3.0665 15.5052 2.94186 15.2893C2.81723 15.0734 2.75164 14.8285 2.75168 14.5792V3.41917C2.75164 3.16987 2.81723 2.92495 2.94186 2.70903C3.0665 2.49312 3.24578 2.31382 3.46168 2.18917C3.67909 2.06833 3.92298 2.00306 4.17168 1.99917C4.42021 2.00427 4.66382 2.06946 4.88168 2.18917L14.5417 7.76917C14.7577 7.89377 14.937 8.07304 15.0617 8.28896C15.1864 8.50488 15.2521 8.74983 15.2521 8.99917C15.2521 9.24852 15.1864 9.49347 15.0617 9.70938C14.937 9.9253 14.7577 10.1046 14.5417 10.2292V10.1892Z" fill="#FAFAFA"/>
</svg>
