<svg width="16" height="12" viewBox="0 0 16 12" fill="none" xmlns="http://www.w3.org/2000/svg">
<path d="M14.995 4.99915H3.40501L5.70501 2.70915C5.79825 2.61591 5.87221 2.50522 5.92267 2.3834C5.97313 2.26157 5.9991 2.13101 5.9991 1.99915C5.9991 1.86729 5.97313 1.73672 5.92267 1.6149C5.87221 1.49308 5.79825 1.38239 5.70501 1.28915C5.61178 1.19591 5.50108 1.12195 5.37926 1.07149C5.25744 1.02103 5.12687 0.995055 4.99501 0.995055C4.86315 0.995055 4.73259 1.02103 4.61076 1.07149C4.48894 1.12195 4.37825 1.19591 4.28501 1.28915L0.285014 5.28915C0.193973 5.38425 0.122608 5.4964 0.0750135 5.61915C-0.0250045 5.86261 -0.0250045 6.13569 0.0750135 6.37915C0.122608 6.5019 0.193973 6.61404 0.285014 6.70915L4.28501 10.7091C4.37798 10.8029 4.48858 10.8773 4.61044 10.928C4.7323 10.9788 4.863 11.0049 4.99501 11.0049C5.12703 11.0049 5.25773 10.9788 5.37959 10.928C5.50145 10.8773 5.61205 10.8029 5.70501 10.7091C5.79874 10.6162 5.87314 10.5056 5.9239 10.3837C5.97467 10.2619 6.00081 10.1312 6.00081 9.99915C6.00081 9.86714 5.97467 9.73643 5.9239 9.61457C5.87314 9.49271 5.79874 9.38211 5.70501 9.28915L3.40501 6.99915H14.995C15.2602 6.99915 15.5146 6.89379 15.7021 6.70625C15.8897 6.51872 15.995 6.26436 15.995 5.99915C15.995 5.73393 15.8897 5.47958 15.7021 5.29204C15.5146 5.1045 15.2602 4.99915 14.995 4.99915Z" fill="#323232"/>
</svg>
