<svg width="1440" height="402" viewBox="0 0 1440 402" fill="none" xmlns="http://www.w3.org/2000/svg">
<g clip-path="url(#clip0_437_866)">
<rect width="1440" height="402" fill="#FCE288"/>
<path d="M1237.34 -488.575C1184.74 -499.792 1123.41 -496.384 1078.15 -459.719C1009 -403.71 1027.52 -291.073 1003.87 -208.908C962.47 -65.0373 845.75 -43.8599 733.055 -22.3564C603.863 2.29564 649.776 169.752 657.732 273.05C676.961 522.771 420.806 596.472 263.511 507.717C159.732 449.148 87.0224 342.079 -15.5781 282.062C-89.9264 238.57 -175.797 222.394 -258.112 236.322C-278.801 239.826 -303.033 249.194 -308.044 272.872" stroke="#E1F8DE" stroke-opacity="0.18" stroke-width="6" stroke-miterlimit="10"/>
<path d="M1695.41 -510.446C1657.17 -423.143 1687.28 -318.904 1704.22 -222.863C1713.41 -170.79 1718.48 -117.843 1719.37 -64.6894C1720.01 -26.5573 1718.23 12.8934 1703.93 47.1803C1677.39 110.813 1612.81 142.31 1552.16 143.836C1491.52 145.363 1432.64 122.837 1373.87 105.312C1315.11 87.7868 1252.38 75.1848 1194.46 96.2141C1104.42 128.901 1048.15 235.125 1022.96 341.157C1007.08 408.005 1002.56 487.288 1041.83 539.362C1081.73 592.256 1153.88 595.979 1209.51 568.552C1265.14 541.126 1308.7 489.329 1352.71 441.077C1396.71 392.824 1445.32 345.339 1504.33 330.344C1526.02 324.836 1549.1 324.047 1570.04 332.674C1616.97 351.992 1642.01 413.976 1644.39 471.978C1648.57 573.764 1598.12 670.228 1531.2 735.723C1464.27 801.219 1382.09 841.007 1301.28 879.68C1252.14 903.198 1202.93 926.698 1155.54 954.651C1113.36 979.525 1071.68 1008.92 1042.64 1052.42C994.319 1124.76 988.69 1223.68 993.199 1315.27" stroke="#E1F8DE" stroke-opacity="0.18" stroke-width="6" stroke-miterlimit="10"/>
<path d="M1260.18 149.111C1208.34 156.675 1160.91 183.887 1125.99 232.228C1089.42 282.851 1061.9 357.315 1060.78 423.844C1059.64 492.199 1103.75 540.463 1162.74 529.346C1205 521.385 1239.01 488.932 1266.91 453.215C1300.47 410.246 1335.49 371.847 1376.93 339.438C1407.72 315.36 1460.37 271.594 1438.37 220.838C1412.86 161.98 1345.9 147.907 1294.86 146.959C1283.27 146.73 1271.68 147.45 1260.18 149.111V149.111Z" stroke="#E1F8DE" stroke-opacity="0.18" stroke-width="11" stroke-miterlimit="10"/>
<path d="M1258.59 181.772C1217.08 187.825 1179.1 209.614 1151.13 248.324C1121.86 288.856 1099.82 348.48 1098.93 401.748C1098.01 456.483 1133.33 495.126 1180.56 486.225C1214.4 479.85 1241.63 453.868 1263.97 425.267C1290.85 390.861 1318.9 360.116 1352.07 334.163C1376.73 314.871 1418.88 279.844 1401.26 239.2C1380.84 192.074 1327.22 180.806 1286.35 180.046C1277.07 179.863 1267.8 180.439 1258.59 181.772Z" stroke="#E1F8DE" stroke-opacity="0.18" stroke-width="6" stroke-miterlimit="10"/>
<path d="M1256.99 214.429C1225.82 218.978 1197.3 235.344 1176.28 264.415C1154.29 294.861 1137.74 339.642 1137.07 379.656C1136.38 420.773 1162.91 449.789 1198.39 443.107C1223.79 438.317 1244.26 418.799 1261.03 397.318C1281.22 371.477 1302.28 348.384 1327.2 328.892C1345.73 314.401 1377.39 288.089 1364.16 257.566C1348.81 222.168 1308.54 213.703 1277.84 213.114C1270.88 212.984 1263.91 213.424 1256.99 214.429Z" stroke="#E1F8DE" stroke-opacity="0.18" stroke-width="6" stroke-miterlimit="10"/>
<path d="M1255.4 247.086C1234.55 250.128 1215.48 261.07 1201.42 280.51C1186.72 300.865 1175.65 330.807 1175.2 357.559C1174.74 385.045 1192.48 404.456 1216.2 399.985C1233.19 396.781 1246.87 383.734 1258.09 369.369C1271.59 352.092 1285.67 336.652 1302.33 323.617C1314.71 313.93 1335.88 296.339 1327.04 275.928C1316.78 252.261 1289.85 246.601 1269.33 246.223C1264.67 246.13 1260.02 246.419 1255.4 247.086V247.086Z" stroke="#E1F8DE" stroke-opacity="0.18" stroke-width="6" stroke-miterlimit="10"/>
<path d="M1253.8 279.747C1243.29 281.281 1233.67 286.785 1226.58 296.602C1219.17 306.87 1213.59 321.972 1213.36 335.467C1213.13 349.328 1222.07 359.119 1234.04 356.863C1242.61 355.248 1249.51 348.665 1255.17 341.424C1261.97 332.707 1269.07 324.921 1277.48 318.346C1283.73 313.46 1294.4 304.588 1289.94 294.294C1284.77 282.355 1271.19 279.503 1260.83 279.31C1258.48 279.263 1256.13 279.409 1253.8 279.747V279.747Z" stroke="#E1F8DE" stroke-opacity="0.18" stroke-width="6" stroke-miterlimit="10"/>
<path d="M1051.3 -180.478C1048.26 -154.348 1043.97 -128.548 1036.14 -103.799C1019.76 -52.0428 1017.94 14.1048 1066.45 42.5797C1122.43 75.4294 1189.55 46.5248 1248.68 46.6767C1317.2 46.8545 1385.81 70.4545 1453.95 83.7752C1512.84 95.2918 1633.49 126.237 1662.49 15.1457C1703.36 -141.39 1652.71 -449.414 1519.48 -488.92C1438.14 -513.05 1351.08 -459.567 1268.69 -465.757C1207.07 -470.395 1141.72 -457.378 1101.32 -397.839C1058.39 -334.58 1060.11 -256.142 1051.3 -180.478Z" stroke="#E1F8DE" stroke-opacity="0.18" stroke-width="6" stroke-miterlimit="10"/>
<path d="M1503.87 -446.843C1434.51 -467.957 1357.68 -424.873 1284.62 -430.722C1230.52 -435.011 1173.46 -424.106 1137.4 -374.161C1098.69 -320.545 1098.4 -253.364 1091.6 -186.323C1089.34 -163.99 1085.84 -142.016 1079.6 -120.958C1066.54 -76.9135 1065.91 -21.086 1107.25 3.05484C1141.81 23.1284 1181.17 16.6459 1219.47 11.2821C1234.96 9.10023 1250.35 7.1592 1265.25 7.27033C1324.33 7.64076 1384.03 27.7588 1443.26 39.0828C1495.52 48.9696 1598.92 74.5848 1624.85 -19.4747C1661.65 -152.981 1617.64 -412.152 1503.87 -446.843Z" stroke="#E1F8DE" stroke-opacity="0.18" stroke-width="11" stroke-miterlimit="10"/>
<path d="M1488.26 -404.744C1430.88 -422.876 1364.27 -390.186 1300.55 -395.687C1253.98 -399.628 1205.17 -390.838 1173.49 -350.494C1138.97 -306.521 1136.67 -250.634 1131.91 -192.184C1130.4 -173.662 1127.72 -155.511 1123.07 -138.12C1113.33 -101.773 1113.82 -56.1991 1148.06 -36.4738C1177.33 -19.6155 1210.67 -24.783 1243.08 -29.0652C1256.09 -30.8062 1269.11 -32.3065 1281.83 -32.1324C1331.47 -31.5804 1382.25 -14.9296 1432.57 -5.6022C1478.2 2.65837 1564.38 22.9209 1587.2 -54.084C1619.97 -164.572 1582.57 -374.865 1488.26 -404.744Z" stroke="#E1F8DE" stroke-opacity="0.18" stroke-width="6" stroke-miterlimit="10"/>
<path d="M366.248 1300.93C366.384 1245.11 400.796 1197.11 439.183 1163.79C489.944 1119.73 547.413 1094.75 606.064 1069.57C722.066 1019.7 828.274 960.133 892.551 831.75C920.301 776.315 945.108 716.617 998.053 688.686C1052.06 660.197 1111.83 654.055 1167.84 632.996C1232.05 608.859 1286.14 568.39 1337.04 518.041C1386.91 468.685 1471.37 334.263 1548.1 379.141C1604.83 412.309 1601.24 495.456 1585.33 556.058C1561.17 648.069 1499.51 718.78 1428.03 763.187C1343.54 815.673 1255.39 862.696 1166.35 903.58C1096.49 935.652 1025.2 975.028 984.683 1052.62C939.342 1139.46 939.075 1247.25 942.813 1345.55" stroke="#E1F8DE" stroke-opacity="0.18" stroke-width="6" stroke-miterlimit="10"/>
<path d="M1400.39 503.642C1339.29 574.976 1262.79 628.206 1179.96 657.03C1149.95 667.472 1118.88 674.881 1090.83 691.109C1062.77 707.338 1037.32 734.449 1029.91 769.922C1022.5 805.394 1038.96 848.519 1069.39 857.132C1084.5 861.407 1100.3 857.102 1115.4 852.805C1188.94 831.861 1262.83 810.639 1332.57 776.297C1379.62 753.134 1432.14 721.284 1475.25 679.089C1518.36 636.893 1552.05 584.359 1561.42 519.83C1562.75 510.656 1563.54 501.385 1563.77 492.085C1564.06 480.261 1562.5 469.566 1559.54 458.235C1553.07 433.546 1539.06 405.215 1515.27 400.785C1496.31 397.255 1478.34 410.683 1464.35 424.048C1440.01 447.337 1422.47 477.857 1400.39 503.642Z" stroke="#E1F8DE" stroke-opacity="0.18" stroke-width="11" stroke-miterlimit="10"/>
<path d="M957.272 24.5435C931.144 10.3561 901.39 3.16976 873.132 1.03609C810.379 -3.698 719.367 6.18502 693.592 85.9274C671.858 153.16 703.136 236.422 704.959 305.807C706.299 356.83 693.671 406.845 670.601 450.037C658.774 472.189 644.371 492.196 628.407 510.417C612.82 528.224 583.854 549.983 584.721 578.947C585.781 614.356 624.727 628.91 649.436 629.284C670.709 629.603 691.712 623.82 712.966 622.52C749.658 620.279 774.31 647.917 804.375 667.942C842.066 693.05 891.792 693.206 931.947 675.492C974.275 656.815 987.029 613.8 982.873 563.733C977.18 495.181 968.776 435.127 980.501 366.42C988.483 319.65 1000.53 272.757 1015.66 228.439C1028.99 189.355 1039.33 153.671 1027.47 111.491C1015.72 69.6803 989.201 41.8833 957.272 24.5435Z" stroke="#E1F8DE" stroke-opacity="0.18" stroke-width="6" stroke-miterlimit="10"/>
<path d="M719.923 133.709C702.19 189.981 727.14 259.247 727.988 317.031C728.594 358.482 718.377 399.077 699.596 434.224C689.966 452.249 678.278 468.559 665.359 483.457C652.712 498.06 629.385 515.829 629.963 539.366C630.674 568.119 661.755 579.906 681.508 580.973C698.529 581.891 715.656 578.38 733.195 577.98C763.359 577.198 784.314 600.002 809.636 615.693C841.705 635.574 882.921 633.044 915.853 617.149C949.792 600.768 960.304 565.93 957.015 524.912C952.516 468.699 945.864 419.303 954.865 362.931C958.469 340.368 962.952 317.705 968.861 295.49C973.211 279.147 978.314 262.974 983.946 247.157C995.478 214.596 1004.86 184.721 995.85 149.734C986.959 114.913 965.502 91.4578 937.717 76.6554C915.621 64.8017 890.773 59.2452 867.274 58.1339C814.976 55.7706 740.901 67.3725 719.923 133.709Z" stroke="#E1F8DE" stroke-opacity="0.18" stroke-width="11" stroke-miterlimit="10"/>
<path d="M746.254 181.491C732.516 226.802 751.154 282.055 751.017 328.258C750.873 360.157 743.108 391.376 728.595 418.41C721.162 432.308 712.192 444.921 702.311 456.483C692.611 467.881 674.919 481.672 675.205 499.782C675.57 521.882 698.812 530.898 713.583 532.661C726.378 534.184 739.599 532.976 753.427 533.439C777.085 534.232 794.364 552.079 814.904 563.444C841.368 578.087 874.015 572.927 899.761 558.806C925.299 544.8 933.576 518.059 931.16 486.098C927.852 442.221 922.93 403.47 929.233 359.452C931.849 341.183 934.897 322.761 939.631 304.773C943.089 291.671 947.439 278.662 952.236 265.878C962.009 239.867 970.335 215.792 964.235 187.999C958.136 160.206 941.781 141.125 918.164 128.786C900.085 119.336 880.165 115.339 861.422 115.262C819.568 115.243 762.432 128.56 746.254 181.491Z" stroke="#E1F8DE" stroke-opacity="0.18" stroke-width="6" stroke-miterlimit="10"/>
<path d="M772.582 229.272C762.778 263.596 775.202 304.84 774.037 339.486C773.287 361.749 767.778 383.545 757.58 402.596C752.347 412.372 746.077 421.27 739.253 429.508C732.478 437.687 720.441 447.496 720.434 460.202C720.457 475.649 735.907 481.935 745.648 484.354C754.284 486.495 763.527 487.547 773.643 488.903C790.789 491.195 804.416 504.123 820.155 511.191C841.054 520.578 865.035 512.925 883.657 500.449C900.803 488.965 906.836 470.174 905.292 447.266C903.178 415.728 899.927 387.598 903.587 355.952C905.204 341.972 906.826 327.799 910.392 314.034C912.954 304.177 916.532 294.327 920.517 284.592C928.49 265.119 935.815 246.842 932.605 226.25C929.366 205.483 918.066 190.729 898.603 180.902C884.553 173.812 869.538 171.378 855.558 172.382C824.156 174.608 783.886 189.714 772.582 229.272Z" stroke="#E1F8DE" stroke-opacity="0.18" stroke-width="6" stroke-miterlimit="10"/>
<path d="M798.914 277.054C793.103 300.421 799.371 327.544 797.059 350.71C795.789 363.349 792.481 375.777 786.581 386.783C783.519 392.371 780.048 397.641 776.208 402.533C772.373 407.504 765.962 413.328 765.68 420.618C765.337 429.412 773.141 433.19 777.726 436.042C782.4 438.95 787.461 442.091 793.878 444.362C804.47 448.111 814.538 456.09 825.423 458.942C840.822 462.976 856.015 453.264 867.569 442.121C876.373 433.635 880.12 422.322 879.441 408.464C878.52 389.265 876.812 371.714 877.958 352.481C878.536 342.768 878.774 332.874 881.165 323.324C882.835 316.708 885.632 310.019 888.814 303.321C894.97 290.378 901.349 277.884 900.993 264.515C900.622 250.735 894.38 240.322 879.056 233.028C869.772 228.563 859.577 227.333 849.706 229.487C828.728 234.088 805.416 250.917 798.914 277.054Z" stroke="#E1F8DE" stroke-opacity="0.18" stroke-width="6" stroke-miterlimit="10"/>
<path d="M825.235 324.836C823.492 337.264 824.632 350.525 820.075 361.938C816.602 370.639 809.893 378.137 809.775 387.731C809.633 399.44 820.739 408.456 830.661 406.69C840.584 404.923 848.331 394.91 851.455 383.782C854.579 372.654 853.836 360.567 852.3 348.995C851.576 343.554 850.693 337.927 851.912 332.604C855.583 316.605 886.607 296.442 859.482 285.166C839.561 276.884 827.775 306.703 825.235 324.836Z" stroke="#E1F8DE" stroke-opacity="0.18" stroke-width="6" stroke-miterlimit="10"/>
<path d="M-101.173 -221.311C-91.2632 -139.786 -58.458 -63.5595 0.849876 -16.3002C75.6205 43.276 138.3 65.6796 171.531 172.015C204.981 279.069 214.998 391.798 309.686 452.604C397.999 509.313 535.278 491.973 583.063 376.981C628.493 267.686 582.714 144.633 584.162 30.6036C584.829 -21.9714 600.037 -74.928 641.387 -102.01C701.609 -141.453 774.627 -107.9 837.485 -135.412C901.305 -163.35 951.376 -233.435 979.057 -303.909C1007.49 -376.309 998.806 -454.526 932.478 -490.661C821.959 -550.87 693.243 -562.191 573.055 -568.429C444.095 -575.126 317.142 -559.909 190.496 -532.368C119.726 -516.965 42.3327 -509.575 -19.2359 -461.841C-81.468 -413.593 -109.091 -323.594 -102.868 -238.665C-102.449 -232.953 -101.884 -227.168 -101.173 -221.311Z" stroke="#E1F8DE" stroke-opacity="0.18" stroke-width="11" stroke-miterlimit="10"/>
<path d="M20.9992 -445.569C-35.1748 -401.41 -59.9534 -319.889 -54.5049 -242.833C-54.1387 -237.647 -53.6412 -232.399 -53.0126 -227.089C-44.2525 -153.133 -14.8795 -84.1036 37.4368 -40.4337C103.635 14.8233 157.662 38.6753 188.493 135.78C219.961 234.406 233.02 332.574 318.069 384.152C397.478 432.308 519.752 416.195 562.99 312.66C604.118 214.188 564.318 103.649 566.743 1.47673C567.826 -45.6086 581.889 -92.9828 619.218 -117.242C633.382 -126.451 648.325 -131.248 663.67 -133.734C707.255 -140.79 754.186 -129.251 796.072 -147.71C853.459 -172.966 898.355 -236.046 923.098 -299.56C948.499 -364.67 940.435 -434.356 881.505 -467.854C781.231 -524.855 661.99 -537.494 551.274 -542.621C435.741 -547.989 321.98 -534.523 208.629 -509.475C145.263 -495.462 76.062 -488.498 20.9992 -445.569Z" stroke="#E1F8DE" stroke-opacity="0.18" stroke-width="6" stroke-miterlimit="10"/>
<path d="M61.2373 -429.292C10.9563 -389.456 -10.8377 -316.185 -6.14488 -247C-5.82949 -242.345 -5.39874 -237.633 -4.85262 -232.864C2.76764 -166.48 28.7051 -104.636 74.0203 -64.5707C131.658 -13.607 177.021 11.6673 205.47 99.5295C234.96 189.736 251.004 273.298 326.467 315.682C396.954 355.263 504.238 340.401 542.917 248.301C579.748 160.654 545.924 62.6236 549.325 -27.6945C550.823 -69.2863 563.73 -111.041 597.056 -132.526C609.69 -140.675 623.016 -144.939 636.716 -147.176C675.576 -153.522 717.402 -143.472 754.697 -160.056C805.654 -182.652 845.372 -238.71 867.182 -295.263C889.541 -353.091 882.105 -414.297 830.582 -445.105C740.52 -498.947 630.798 -512.846 529.547 -516.865C427.397 -520.917 326.832 -509.167 226.778 -486.616C170.801 -473.958 109.651 -467.653 61.2373 -429.292Z" stroke="#E1F8DE" stroke-opacity="0.18" stroke-width="6" stroke-miterlimit="10"/>
<path d="M101.472 -413.019C57.1764 -377.38 38.2909 -312.477 42.2153 -251.167C42.4799 -247.041 42.844 -242.866 43.3076 -238.643C49.7626 -179.826 72.2995 -125.143 110.62 -88.708C159.713 -42.0117 196.211 -15.2593 222.428 63.3125C249.734 145.177 268.89 214.014 334.846 247.249C396.329 278.228 488.705 264.659 522.828 183.987C555.351 107.164 527.512 21.6466 531.89 -56.8178C533.795 -92.9198 545.543 -129.081 574.872 -147.754C585.984 -154.833 597.688 -158.578 609.728 -160.564C643.864 -166.194 680.584 -157.667 713.287 -172.347C757.812 -192.254 792.347 -241.318 811.227 -290.885C830.55 -341.426 823.752 -394.234 779.615 -422.272C699.714 -473.021 599.568 -488.135 507.778 -491.028C419.037 -493.821 331.665 -483.745 244.902 -463.686C196.338 -452.455 143.317 -446.672 101.472 -413.019Z" stroke="#E1F8DE" stroke-opacity="0.18" stroke-width="6" stroke-miterlimit="10"/>
<path d="M141.71 -396.742C103.371 -365.296 87.4161 -308.773 90.5912 -255.334C90.8029 -251.736 91.1003 -248.097 91.4834 -244.418C96.7732 -193.173 115.897 -145.61 147.191 -112.845C187.762 -70.3642 215.519 -42.2412 239.377 27.0772C264.667 100.559 286.629 154.657 343.203 178.798C395.592 201.153 473.154 188.862 502.714 119.655C530.938 53.6556 509.223 -19.3339 514.433 -85.9593C516.824 -116.56 527.353 -147.136 552.668 -163.009C562.247 -169.021 572.354 -172.24 582.717 -173.977C612.125 -178.896 643.743 -171.873 671.855 -184.664C709.957 -201.896 739.31 -243.933 755.25 -286.576C771.535 -329.828 765.388 -374.35 728.629 -399.506C658.825 -447.291 568.324 -463.508 485.984 -465.257C410.658 -466.853 336.478 -458.389 263.003 -440.808C221.876 -430.948 176.986 -425.676 141.71 -396.742Z" stroke="#E1F8DE" stroke-opacity="0.18" stroke-width="6" stroke-miterlimit="10"/>
<path d="M181.958 -380.469C149.572 -353.202 136.535 -305.068 138.939 -259.502C139.101 -256.435 139.329 -253.327 139.628 -250.197C143.781 -206.519 159.497 -166.009 183.778 -136.979C215.846 -98.6355 234.852 -69.2345 256.338 -9.15458C279.615 55.9299 304.143 95.2398 351.592 110.346C394.745 124.081 457.64 113.087 482.635 55.326C506.556 0.132064 490.849 -60.3183 497.005 -115.097C499.828 -140.205 509.185 -165.187 530.493 -178.256C538.548 -183.201 547.023 -185.894 555.742 -187.383C580.422 -191.587 606.934 -186.072 630.455 -196.977C662.111 -211.531 686.302 -246.581 699.304 -282.239C712.551 -318.204 707.086 -354.595 677.672 -376.698C617.901 -421.676 537.132 -438.882 464.225 -439.46C402.327 -439.934 341.33 -433.007 281.142 -417.931C247.416 -409.444 210.664 -404.662 181.958 -380.469Z" stroke="#E1F8DE" stroke-opacity="0.18" stroke-width="6" stroke-miterlimit="10"/>
<path d="M222.184 -364.193C195.795 -341.085 185.67 -301.36 187.299 -263.673C187.409 -261.132 187.572 -258.565 187.788 -255.972C190.791 -219.866 203.085 -186.294 220.361 -161.116C243.93 -126.769 254.208 -96.2313 273.3 -45.3899C294.573 11.2858 321.218 35.8268 359.98 41.8944C393.566 47.1545 442.111 37.3085 462.555 -9.0063C482.174 -53.3578 472.468 -101.295 479.58 -144.239C482.828 -163.846 491.011 -183.238 508.321 -193.506C514.846 -197.388 521.704 -199.555 528.763 -200.792C548.718 -204.286 570.128 -200.274 589.052 -209.29C614.275 -221.17 633.227 -249.241 643.346 -277.908C653.465 -306.576 648.836 -335.08 626.702 -353.928C576.891 -396.353 505.927 -414.308 442.45 -413.667C393.979 -413.171 346.156 -407.629 299.253 -395.046C272.954 -387.941 244.359 -383.629 222.184 -364.193Z" stroke="#E1F8DE" stroke-opacity="0.18" stroke-width="6" stroke-miterlimit="10"/>
<path d="M-127.358 -55.2359C-81.4838 -30.9246 -37.01 -3.00537 5.43801 28.5811C73.3282 79.104 136.437 146.007 158.202 239.919C160.945 251.772 162.746 264.108 161.431 276.272C151.442 368.672 46.9526 285.581 15.7158 261.389C-13.2824 238.929 -44.8748 220.375 -78.1055 207.969C-130.225 188.51 -186.574 183.824 -240.776 178.275C-277.715 174.493 -312.146 170.407 -341.522 140.821C-393.229 88.7463 -408.672 -42.7784 -362.662 -106.54C-329.031 -153.14 -260.944 -115.557 -221.906 -99.5356C-189.882 -86.3952 -158.366 -71.6287 -127.358 -55.2359Z" stroke="#E1F8DE" stroke-opacity="0.18" stroke-width="11" stroke-miterlimit="10"/>
<path d="M-317.842 -73.3906C-290.034 -111.119 -234.038 -81.0103 -201.173 -67.8675C-174.654 -57.1769 -148.466 -45.1009 -122.824 -31.658C-84.551 -11.6326 -47.5165 11.36 -12.876 37.4752C44.4379 80.6784 91.6676 136.75 106.432 211.029C108.296 220.412 109.334 230.143 108.099 239.726C98.6401 313.16 15.3221 246.531 -10.282 226.905C-33.8413 208.78 -59.4803 193.789 -86.4306 183.732C-128.704 167.952 -174.381 164.129 -218.325 159.432C-233.835 157.772 -248.856 156.016 -263.037 151.46C-277.217 146.904 -290.374 139.332 -302.287 126.812C-343.348 83.6566 -355.439 -21.9935 -317.842 -73.3906Z" stroke="#E1F8DE" stroke-opacity="0.18" stroke-width="6" stroke-miterlimit="10"/>
<path d="M-273.035 -40.2409C-251.168 -69.2159 -207.12 -46.5604 -180.452 -36.1995C-159.417 -28.0278 -138.626 -18.5671 -118.302 -8.08023C-87.6308 7.66302 -58.0452 25.7437 -31.2028 46.3729C15.5316 82.2712 46.8731 127.46 54.6458 182.143C55.6332 189.077 55.9158 196.167 54.7537 203.183C45.8031 257.592 -16.3497 207.536 -36.2925 192.441C-54.4256 178.683 -74.0827 167.2 -94.7558 159.491C-127.186 147.393 -162.186 144.418 -195.873 140.599C-208.402 139.173 -220.579 137.636 -232.022 133.724C-243.679 129.825 -254.336 122.644 -263.056 112.813C-293.486 78.6373 -302.363 -1.3458 -273.035 -40.2409Z" stroke="#E1F8DE" stroke-opacity="0.18" stroke-width="6" stroke-miterlimit="10"/>
<path d="M-228.202 -7.09493C-212.206 -27.25 -180.192 -12.0513 -159.706 -4.53525C-144.11 1.23667 -128.774 7.92276 -113.756 15.4976C-90.6853 26.9549 -68.5579 40.1608 -49.5073 55.2558C-13.365 83.8788 2.07556 118.099 2.88203 153.245C2.98326 157.767 2.49398 162.28 1.43101 166.629C-7.04018 201.82 -47.9832 168.481 -62.2839 157.939C-74.9843 148.545 -88.6945 140.617 -103.087 135.254C-125.672 126.834 -149.996 124.678 -173.432 121.744C-182.976 120.548 -192.308 119.225 -201.017 115.969C-209.726 112.713 -217.41 106.875 -223.83 98.7923C-243.684 73.7772 -249.19 19.35 -228.202 -7.09493Z" stroke="#E1F8DE" stroke-opacity="0.18" stroke-width="6" stroke-miterlimit="10"/>
<path d="M-192.594 279.714C-89.2279 294.798 -0.115303 363.431 83.9584 432.29C125.552 466.369 168.185 499.004 213.471 526.053C245.857 545.393 280.129 559.825 314.36 573.957C331.731 581.128 349.801 586.377 365.648 597.875C399.682 622.572 393.633 663.049 354.633 671.22C293.947 683.937 231.223 656.703 169.737 667.679C106.143 679.029 45.4158 710.46 -19.5216 712.998C-55.0479 714.387 -87.199 696.173 -117.791 677.281C-148.383 658.389 -175.68 643.835 -210.635 637.826C-275.219 626.713 -342.163 622.828 -357.836 534.169C-367.952 476.949 -358.591 411.557 -337.699 358.863C-310.79 290.982 -252.578 270.964 -192.594 279.714Z" stroke="#E1F8DE" stroke-opacity="0.18" stroke-width="6" stroke-miterlimit="10"/>
<path d="M-306.116 385.497C-284.481 330.137 -236.871 313.29 -186.91 320.472C-110.107 331.585 -42.0394 378.404 21.8596 429.008C28.322 434.13 34.7421 439.28 41.1198 444.459C75.5475 472.3 110.693 499.123 147.661 521.597C165.902 532.71 184.759 542.045 203.685 550.753C212.312 554.761 220.955 558.573 229.528 562.411C243.498 568.671 257.786 573.45 270.217 582.903C296.983 603.239 291.538 635.656 259.472 642.053C210.118 652.099 159.158 630.114 109.21 638.653C57.5288 647.476 8.15584 672.313 -44.5732 674.006C-73.3968 674.94 -99.5216 660.193 -124.402 644.876C-149.282 629.559 -171.482 617.764 -199.83 612.774C-252.219 603.554 -305.647 599.876 -319.769 528.854C-329.053 482.176 -322.941 428.723 -306.116 385.497Z" stroke="#E1F8DE" stroke-opacity="0.18" stroke-width="11" stroke-miterlimit="10"/>
<path d="M-274.537 412.142C-258.169 369.287 -221.16 355.611 -181.227 361.227C-121.477 369.747 -67.4498 405.567 -16.9053 444.714C-11.806 448.665 -6.74067 452.646 -1.70918 456.657C25.5555 478.264 53.2202 499.256 81.8565 517.17C96.081 526.135 110.667 533.721 125.079 541.059C131.693 544.43 138.259 547.642 144.705 550.898C155.29 556.247 165.759 560.551 174.795 567.96C194.284 583.936 189.436 608.17 164.317 612.915C126.27 620.105 87.105 603.554 48.6925 609.655C8.92108 615.953 -29.0977 634.193 -69.6121 635.045C-91.7394 635.526 -111.841 624.235 -131.006 612.515C-150.123 600.821 -167.278 591.734 -189.022 587.767C-229.218 580.429 -269.225 576.935 -281.703 523.582C-290.181 487.362 -287.291 445.889 -274.537 412.142Z" stroke="#E1F8DE" stroke-opacity="0.18" stroke-width="6" stroke-miterlimit="10"/>
<path d="M-242.954 438.787C-231.956 408.39 -205.45 397.936 -175.54 401.985C-132.851 407.938 -92.8603 432.731 -55.6671 460.402C-51.9289 463.195 -48.2194 466.008 -44.5384 468.84C-24.4367 484.217 -4.23986 499.319 16.0523 512.732C26.2825 519.493 36.5698 525.431 46.4698 531.354C51.0674 534.102 55.5665 536.703 59.8783 539.366C67.0826 543.811 73.725 547.631 79.3703 553.002C91.5627 564.607 87.343 580.74 69.156 583.747C42.4374 588.193 15.0457 576.965 -11.8315 580.628C-39.69 584.396 -66.345 596.042 -94.6606 596.049C-110.092 596.079 -124.167 588.248 -137.62 580.121C-151.006 572.027 -163.081 565.674 -178.22 562.711C-206.212 557.258 -232.972 553.894 -243.627 518.259C-251.378 492.437 -251.721 463.024 -242.954 438.787Z" stroke="#E1F8DE" stroke-opacity="0.18" stroke-width="6" stroke-miterlimit="10"/>
</g>
<defs>
<clipPath id="clip0_437_866">
<rect width="1440" height="402" fill="white"/>
</clipPath>
</defs>
</svg>
