<svg width="137" height="167" viewBox="0 0 137 167" fill="none" xmlns="http://www.w3.org/2000/svg">
<path d="M-36.1268 49.9244C-29.9841 39.3485 -20.5301 31.1357 -9.08643 26.4341C7.38181 19.7261 38.419 18.3743 46.2106 40.1753C51.7023 55.5599 41.334 70.0825 35.0624 82.748C30.2562 92.4492 26.836 104.062 31.3672 114.441C35.0239 122.813 43.1417 128.599 51.3781 132.769C69.514 141.993 89.2957 144.988 108.902 143.551" stroke="black" stroke-width="4.3117" stroke-linecap="round" stroke-linejoin="round"/>
<path d="M108.873 143.564C104.827 143.691 100.956 144.897 97.6665 147.055C94.3768 149.212 91.7896 152.241 90.1764 155.824" stroke="black" stroke-width="4.3117" stroke-linecap="round" stroke-linejoin="round"/>
<path d="M108.873 143.564C106.757 143.429 104.651 143.433 102.566 142.88C97.9257 141.659 93.9704 138.032 93.2559 133.229L93.2 132.764" stroke="black" stroke-width="4.3117" stroke-linecap="round" stroke-linejoin="round"/>
</svg>
