<svg width="223" height="187" viewBox="0 0 223 187" fill="none" xmlns="http://www.w3.org/2000/svg">
<path d="M241.156 14.0362C249.866 29.6816 253.125 47.725 250.476 65.644C246.591 91.3875 225.062 131.455 191.797 124.942C168.327 120.337 157.813 96.4208 146.57 79.0492C137.96 65.7403 125.907 52.7447 109.454 50.6779C96.183 49.0134 82.8266 54.8979 71.414 62.1406C46.2326 78.0579 27.658 100.708 14.7913 126.456" stroke="black" stroke-width="4.13" stroke-linecap="round" stroke-linejoin="round"/>
<path d="M14.798 126.409C17.6653 121.223 19.0452 115.449 18.7928 109.695C18.5404 103.941 16.6651 98.4181 13.3636 93.7062" stroke="black" stroke-width="4.13" stroke-linecap="round" stroke-linejoin="round"/>
<path d="M14.798 126.409C16.5511 123.847 18.1222 121.195 20.3793 118.985C25.3887 114.06 32.9132 111.798 39.4914 114.493L40.1183 114.771" stroke="black" stroke-width="4.13" stroke-linecap="round" stroke-linejoin="round"/>
</svg>
