<svg width="423" height="399" viewBox="0 0 423 399" fill="none" xmlns="http://www.w3.org/2000/svg">
<path d="M-97.0001 280.44C-32.3614 258.73 29.9521 231.215 89.1388 198.247C100.546 191.894 114.087 185.134 126.336 190.244C144.472 197.961 144.768 224.856 161.301 235.45C176.157 244.964 195.533 236.657 210.862 228.334C279.958 190.45 348.038 149.68 420.632 118.22" stroke="black" stroke-width="4.13" stroke-linecap="round" stroke-linejoin="round"/>
<path d="M420.548 118.197C416.081 120.189 412.082 123.029 408.785 126.553C402.544 133.608 399.231 142.684 399.472 152.06C399.528 154.6 399.85 157.132 400.433 159.617" stroke="black" stroke-width="4.13" stroke-linecap="round" stroke-linejoin="round"/>
<path d="M420.597 118.239C412.212 121.837 402.798 122.673 393.777 120.62C385.027 118.667 377.048 114.192 370.901 107.786" stroke="black" stroke-width="4.13" stroke-linecap="round" stroke-linejoin="round"/>
</svg>
