<svg width="48" height="53" viewBox="0 0 48 53" fill="none" xmlns="http://www.w3.org/2000/svg">
<path d="M0.50893 26.8823L12.142 28.6105C17.2239 29.354 21.1765 33.6795 21.8559 39.2408L23.4351 51.9713C23.5498 52.7147 24.5644 52.7147 24.5644 51.9713L26.1436 39.2408C26.823 33.6795 30.7756 29.354 35.8575 28.6105L47.4906 26.8823C48.1699 26.7568 48.1699 25.6465 47.4906 25.6465L35.8575 23.9183C30.7756 23.1748 26.823 18.8493 26.1436 13.288L24.6746 0.557577C24.5599 -0.185859 23.5453 -0.185859 23.5453 0.557577L21.9661 13.288C21.2867 18.8493 17.3341 23.1748 12.2522 23.9183L0.509606 25.6465C-0.169743 25.7672 -0.17042 26.8823 0.50893 26.8823Z" fill="black"/>
</svg>
