<svg width="1150" height="1000" viewBox="0 0 1150 1000" fill="none" xmlns="http://www.w3.org/2000/svg">
<rect width="1150" height="1000" fill="url(#paint0_linear_25_547)"/>
<mask id="mask0_25_547" style="mask-type:alpha" maskUnits="userSpaceOnUse" x="0" y="0" width="1150" height="1000">
<rect width="1150" height="1000" fill="#F5F5EB"/>
</mask>
<g mask="url(#mask0_25_547)">
<path d="M1184.74 -651.973V183.713C1184.74 194.597 1179.25 199.525 1168.25 197.542C1145.51 193.441 1124.16 185.111 1103.46 175.026C1064.8 156.202 1031.52 129.753 999.663 101.341C951.411 58.3262 907.912 10.6525 864.01 -36.6583C832.653 -70.442 800.96 -103.964 763.103 -130.695C750.47 -139.61 736.66 -146.931 723.046 -154.34C718.394 -156.875 712.766 -158.031 707.442 -158.824C689.209 -161.514 676.744 -150.871 676.112 -132.443C675.646 -119.315 678.847 -106.317 685.356 -94.9075C699.535 -69.9244 714.366 -45.2908 729.554 -20.9059C765.617 36.9937 801.156 95.2496 838.523 152.309C904.293 252.753 970.755 352.746 1037.91 452.288C1058.28 482.637 1080.94 511.513 1107.77 536.523C1123.49 551.179 1140.79 564.182 1157.78 577.42C1165.31 583.275 1173.95 587.504 1184.74 587.309V594.974C1184.74 710.047 1184.55 825.127 1185 940.207C1185.05 953.929 1181.78 965.902 1174.62 976.989C1169.32 985.347 1163.44 993.323 1157.02 1000.86C1120.37 1043.14 1091.46 1090.46 1065.39 1139.72C1051.94 1165.13 1037.96 1190.27 1023.77 1215.28C1020.46 1221.1 1015.75 1226.3 1010.96 1231.06C1001.92 1240.02 992.879 1239.53 986.418 1228.47C979.415 1216.61 973.536 1204.12 968.857 1191.17C949.104 1135.61 934.751 1078.46 920.625 1021.29C889.934 897.104 862.249 772.243 840.338 646.19C829.816 585.682 821.513 524.791 811.395 464.215C800.181 397.125 788.153 330.169 776.219 263.194C768.151 217.725 750.672 176.405 719.846 141.451C713.442 134.156 706.302 127.541 698.54 121.712C685.544 112.024 674.108 111.957 661.832 122.431C652.876 130.156 644.877 138.925 638.005 148.551C620.216 173.319 607.462 200.89 596.422 229.228C562.229 316.952 540.331 407.855 526.73 500.843C514.683 583.249 513.156 666.232 514.353 749.263C515.826 850.708 518.911 952.134 520.626 1053.57C521.601 1111.48 521.244 1169.41 521.486 1227.32C521.486 1230.42 521.486 1233.52 521.486 1237.52H514.723C459.145 1237.52 403.542 1237.55 347.915 1237.6C343.949 1237.6 342.033 1236.72 340.473 1232.56C313.432 1160.66 280.765 1091.66 235.242 1029.28C200.86 982.173 160.064 941.209 115.248 904.231C88.5837 882.226 61.0121 861.318 33.6556 840.167C29.2587 836.765 23.934 834.512 18.8647 832.099C17.3319 831.373 15.2142 831.89 13.3654 831.836C13.3654 833.853 12.5854 836.227 13.4056 837.793C17.1908 844.994 20.7203 852.49 25.5946 858.937C47.4851 887.941 69.6155 916.763 91.9856 945.404C142.06 1009.86 182.593 1079.56 207.503 1157.63C214.972 1181.04 220.438 1205.09 226.589 1228.89C228.606 1236.84 227.833 1237.52 219.631 1237.52C199.816 1237.52 180.021 1237.52 160.246 1237.52C142.907 1159.91 106.272 1091.99 58.955 1029.34C29.6689 990.556 -3.38879 955.038 -36.5944 919.627C-68.8654 885.198 -101.136 850.735 -132.406 815.371C-175.508 766.568 -208.377 711.25 -233.797 651.327C-249.771 613.718 -266.418 576.344 -288.927 541.995C-294.117 534.062 -300.356 526.801 -306.098 519.217C-307.698 517.106 -309.278 514.968 -310.865 512.844L-312.781 514.531C-311.94 516.131 -311.194 517.785 -310.253 519.318C-284.12 561.674 -264.462 607.156 -247.64 653.781C-219.719 731.144 -176.489 798.866 -121.77 859.751C-88.0061 897.326 -54.209 934.889 -20.9227 972.908C24.7139 1025.08 65.1333 1080.83 93.2898 1144.67C105.252 1171.72 114.319 1199.96 120.337 1228.92C120.868 1231.47 120.687 1234.18 120.855 1237.17H-18.0653C-25.259 1193.99 -41.8585 1154.63 -62.8146 1116.94C-88.0734 1071.52 -119.47 1030.47 -154.081 991.928C-183.28 959.395 -213.433 927.715 -243.284 895.787C-246.296 892.56 -250.007 889.924 -253.644 887.356C-254.888 886.475 -257.523 885.816 -258.35 886.489C-259.554 887.464 -260.515 889.958 -260.139 891.444C-258.485 898.006 -257.153 904.89 -254.189 910.853C-241.28 936.973 -227.861 962.83 -214.596 988.768C-195.738 1025.63 -174.593 1061.42 -160.865 1100.71C-148.514 1136.09 -138.436 1172.09 -135.102 1209.63C-134.429 1217.26 -135.256 1225.09 -135.868 1232.75C-136.11 1235.78 -138.06 1237.7 -141.852 1237.65C-156.031 1237.43 -170.217 1237.56 -184.147 1237.56C-174.372 1209.21 -178.453 1180.41 -181.108 1151.92C-186.103 1098.46 -207.261 1050.49 -233.434 1004.37C-253.846 968.41 -274.694 932.67 -293.996 896.13C-318.63 849.471 -334.57 799.444 -347.936 748.543C-356.831 714.686 -366.66 681.13 -381.733 649.317C-401.607 607.398 -430.926 574.219 -470.956 550.601C-489.364 539.743 -507.752 528.872 -526.032 517.806C-528.56 516.279 -530.415 513.63 -532.58 511.499L-531.619 509.482C-528.432 509.482 -525.198 509.146 -522.052 509.536C-490.379 513.415 -459.15 519.237 -429.568 531.803C-392.114 547.717 -365.161 575.167 -346.928 610.706C-331.014 641.72 -316.526 673.54 -302.871 705.63C-277.269 765.835 -243.203 820.649 -200.148 869.735C-168.765 905.515 -136.043 940.112 -104.343 975.617C-79.246 1003.73 -54.8005 1032.43 -30.0527 1060.85C-25.797 1065.73 -21.4606 1070.55 -17.1644 1075.39L-15.5308 1074.31C-16.351 1072.09 -16.7947 1069.61 -18.0452 1067.7C-30.8595 1047.79 -42.4098 1026.87 -56.999 1008.35C-87.5154 969.594 -119.632 932.099 -151.123 894.126C-193.109 843.508 -233.602 791.854 -259.883 730.848C-273.43 699.391 -285.713 667.388 -299.052 635.837C-311.322 606.806 -326.019 579.047 -345.482 554.07C-369.591 523.144 -400.571 501.307 -437.051 487.726C-465.672 477.077 -494.944 468.229 -523.86 458.326C-549.845 449.445 -574.956 438.54 -596.289 420.865C-603.45 414.915 -609.826 408.079 -615.261 400.52C-623.329 389.347 -621.574 379.934 -610.555 371.712C-603.435 366.4 -595.636 361.896 -587.817 357.593C-551.391 337.686 -515.429 316.797 -478.177 298.537C-439.028 279.342 -398.615 262.73 -358.747 245.001C-317.608 226.707 -277.236 207.015 -240.164 181.131C-213.379 162.447 -188.335 141.646 -164.502 119.365C-109.197 67.6713 -59.3319 10.8339 -8.94873 -45.5127C43.9982 -104.73 96.9629 -163.93 149.946 -223.111C193.337 -271.585 237.057 -319.763 280.079 -368.566C324.451 -418.882 366.585 -470.966 402.386 -527.851C427.046 -567.033 448.991 -607.661 465.543 -651.025C465.72 -651.372 465.934 -651.699 466.182 -652H515.173C503.072 -626.217 492.214 -599.721 478.492 -574.818C456.595 -535.105 433.898 -495.734 409.412 -457.58C388.57 -425.135 365.57 -393.986 342.073 -363.376C299.455 -307.87 251.741 -256.727 202.978 -206.633C144.635 -146.694 85.9192 -87.1199 26.8318 -27.9114C-9.30286 8.43829 -45.8207 44.4093 -82.7217 80.0016C-108.193 104.433 -134.342 128.155 -161.167 151.166C-207.133 190.456 -258.794 221.04 -313.11 247.307C-346.087 263.254 -379.293 278.751 -411.94 295.323C-425.948 302.426 -439.293 310.766 -451.815 320.246C-464.078 329.571 -464.488 347.414 -453.832 356.605C-449.2 360.639 -443.821 364.552 -438.1 366.32C-417.534 372.673 -396.894 379.094 -375.877 383.645C-334.866 392.486 -294.696 403.492 -257.302 423.043C-255.918 423.754 -254.487 424.367 -253.019 424.878C-248.75 426.404 -246.296 424.65 -246.719 420.333C-247.152 415.115 -248.16 409.961 -249.724 404.964C-252.931 395.397 -256.824 386.059 -260.407 376.613C-268.22 356.013 -264.912 337.303 -250.74 320.508C-247.734 316.945 -244.857 313.113 -241.26 310.242C-221.554 294.483 -202.266 278.112 -181.68 263.57C-140.084 234.176 -98.4337 204.85 -59.8967 171.51C-7.15601 125.878 45.2104 79.8111 97.2028 33.3094C139.478 -4.52173 180.408 -43.8655 218.394 -86.033C245.43 -116.032 271.65 -146.763 297.055 -178.227C318.797 -205.254 339.35 -233.317 359.183 -261.789C378.553 -289.596 396.685 -318.264 414.757 -346.965C442.913 -391.667 470.599 -436.665 498.413 -481.589C517.365 -512.199 536.15 -542.917 555.082 -573.548C570.606 -598.652 585.679 -623.971 595.67 -651.96H629.5C628.364 -646.467 627.483 -640.9 626.045 -635.495C620.666 -615.5 610.272 -598.04 598.244 -581.441C575.07 -549.459 551.142 -517.994 528.909 -485.367C508.013 -454.703 488.657 -422.963 469.073 -391.431C441.965 -347.798 415.785 -303.58 388.227 -260.236C366.545 -226.13 343.928 -192.588 320.7 -159.517C301.425 -132.073 281.134 -105.295 260.427 -78.9131C217.769 -24.5633 170.398 25.6047 121.386 74.1995C75.2853 119.917 28.2772 164.68 -17.6821 210.518C-44.2184 236.987 -70.3311 263.994 -95.0587 292.137C-121.279 321.987 -134.873 357.613 -135.982 397.656C-136.655 422.653 -134.08 447.36 -129.38 471.853C-126.731 485.669 -123.504 499.371 -120.539 513.12C-119.383 512.447 -119.195 511.903 -119.235 511.398C-119.423 507.909 -119.618 504.413 -119.907 500.93C-121.958 473.742 -120.223 446.93 -111.9 420.791C-101.688 388.721 -82.4999 362.299 -59.4597 338.425C-31.9957 309.926 -0.887695 285.595 29.7228 260.706C82.97 217.429 136.358 174.341 186.775 127.702C250.604 68.6529 304.289 1.03162 355.102 -69.1512C393.263 -121.847 430.536 -175.269 474.458 -223.528C489.007 -239.509 504.41 -254.609 522.569 -266.556C545.548 -281.683 570.081 -287.283 596.9 -278.241C598.195 -277.921 599.516 -277.709 600.846 -277.609C599.401 -284.695 597.525 -291.237 596.812 -297.892C594.688 -317.39 599.34 -335.777 607.401 -353.338C622.468 -386.174 645.965 -408.932 682.741 -415.662C690.573 -417.094 698.345 -418.909 706.07 -420.825C725.93 -425.746 738.287 -438.507 744.621 -457.708C749.831 -473.639 752.14 -490.376 751.438 -507.123C750.443 -533.074 748.789 -559.066 745.797 -584.849C743.188 -607.352 738.348 -629.599 734.489 -651.96H779.971C782.976 -633.363 785.914 -614.761 788.993 -596.158C797.242 -546.326 805.579 -496.494 806.473 -445.815C806.904 -421.47 805.942 -397.22 798.755 -373.655C793.175 -355.362 782.694 -341.055 765.617 -331.871C761.87 -329.823 758.275 -327.509 754.86 -324.946C748.318 -320.099 745.629 -313.376 747.175 -305.449C748.211 -300.158 749.582 -294.692 752.016 -289.986C756.7 -280.604 761.965 -271.523 767.782 -262.798C789.639 -230.742 815.771 -202.189 841.824 -173.588C877.026 -134.93 911.691 -95.7479 950.483 -60.5523C970.236 -42.6284 990.822 -25.7534 1014.51 -13.1071C1025.2 -7.39246 1036.36 -2.90149 1048.65 -2.07452C1066.17 -0.897949 1079.58 -8.42114 1086.42 -24.5768C1089.88 -32.8047 1092.35 -41.4147 1093.77 -50.2256C1097.73 -74.5634 1096.38 -99.0826 1094.45 -123.508C1090.16 -176.97 1085.69 -230.419 1081.05 -283.855C1078.58 -312.3 1076.83 -340.894 1072.49 -369.07C1061.24 -442.137 1036.74 -510.438 992.482 -570.307C971.641 -598.544 948.11 -624.798 925.809 -651.953L1184.74 -651.973ZM-58.1688 501.441C-58.1688 502.786 -58.2159 504.164 -58.1688 505.522C-55.2778 573.91 -5.50647 645.431 57.7784 671.691C99.4888 689.006 137.862 683.28 172.899 654.514C190.675 639.898 204.672 622.034 217.271 603.015C245.69 560.087 268.609 514.135 289.599 467.301C329.938 377.386 369.416 287.121 409.116 196.93C445.932 113.281 484.792 30.6403 530.455 -48.6255C547.626 -78.4359 565.328 -107.93 582.391 -137.794C590.217 -151.496 596.665 -165.904 598.285 -181.932C601.646 -215.608 576.065 -235.381 545.118 -222.069C534.052 -217.302 523.51 -210.357 514.192 -202.632C481.168 -175.222 455.028 -141.452 430.206 -106.875C393.021 -55.1066 356.965 -2.53168 320.431 49.7071C289.33 94.1739 256.494 137.269 219.772 177.319C176.549 224.462 127.974 265.688 78.546 306.02C47.6801 331.211 16.5521 356.141 -9.78235 386.341C-38.5842 419.419 -57.8192 456.47 -58.1688 501.441Z" fill="#FCE288"/>
<path d="M22.8585 -651.973C12.5923 -628.973 2.39331 -605.946 -7.96033 -582.994C-18.2333 -560.216 -28.5399 -537.451 -39.0616 -514.794C-49.422 -492.48 -59.9906 -470.26 -70.5997 -448.067C-78.9565 -430.587 -87.4749 -413.208 -95.993 -395.808C-105.52 -376.311 -114.959 -356.814 -124.734 -337.478C-140.695 -305.88 -156.454 -274.166 -173.101 -242.931C-201.338 -189.878 -229.394 -136.705 -259.157 -84.453C-283.243 -42.0652 -312.051 -2.54132 -345.031 33.3632C-386.083 78.0183 -434.247 112.246 -491.482 132.61C-536.157 148.504 -581.094 163.886 -626.556 177.326C-661.772 187.733 -697.089 185.434 -729.144 165.318C-739.686 158.703 -750.02 150.527 -757.758 140.94C-770.875 124.643 -786.822 112.031 -803.099 99.418C-832.042 77.0165 -860.306 53.7006 -889.619 31.8168C-930.825 1.03833 -974.505 -25.6256 -1023.54 -42.3864C-1048.13 -50.8036 -1073.74 -55.8669 -1099.68 -57.4395C-1127.5 -59.1539 -1154.62 -56.653 -1180.6 -46.4405C-1203.87 -37.2903 -1222.33 -22.6204 -1230.35 2.28888C-1236.9 22.6533 -1233.1 42.1167 -1224.43 60.9549C-1213 85.8305 -1195.57 106.45 -1174.32 122.909C-1143.93 146.44 -1111.85 167.826 -1080.64 190.335C-1067.43 199.855 -1054.54 209.832 -1041.64 219.789C-1039.22 221.672 -1037.55 224.542 -1035.53 226.956L-1036.7 229.174C-1043.22 227.4 -1049.93 226.115 -1056.2 223.796C-1120.3 199.915 -1184.39 176.062 -1248.32 151.717C-1263.78 145.834 -1279.05 146.077 -1294.98 148.067C-1308.21 149.714 -1321.63 149.768 -1334.97 150.521V122.532C-1327.05 121.86 -1318.84 122.23 -1311.27 120.253C-1288.7 114.377 -1266.82 114.552 -1245.17 123.937C-1241.18 125.672 -1236.5 126.156 -1232.08 126.499C-1226.11 126.963 -1224.01 124.159 -1226.21 118.619C-1228.09 114.141 -1230.34 109.827 -1232.94 105.724C-1242.71 89.5888 -1252.55 73.5272 -1258.4 55.4285C-1267.05 28.6301 -1267.57 2.31573 -1252.76 -22.7078C-1239.54 -45.0084 -1218.93 -58.1119 -1195.06 -66.3611C-1154.85 -80.2579 -1113.65 -79.3031 -1072.35 -72.8825C-1035.77 -67.1948 -1001.03 -55.1805 -968.38 -38.0298C-936.6 -21.3363 -905.815 -2.75348 -874.378 14.6057C-857.57 23.8836 -840.54 32.8119 -823.147 40.9066C-817.096 43.7437 -809.62 44.49 -802.77 44.6177C-794.648 44.7656 -789.619 38.7283 -791.011 30.6874C-792.255 23.5272 -794.218 16.1788 -797.492 9.74481C-809.506 -13.8534 -827.517 -32.853 -847.304 -49.8558C-950.241 -138.285 -1067.25 -195.829 -1203.59 -210.129C-1226.52 -212.536 -1249.31 -210.747 -1272 -206.841C-1294.19 -203.029 -1314.69 -194.605 -1334.98 -185.394V-651.973H-194.063C-194.205 -648.558 -193.774 -645.008 -194.561 -641.761C-204.599 -600.4 -214.011 -558.864 -225.172 -517.806C-241.273 -458.542 -258.659 -399.627 -275.528 -340.571C-291.219 -285.643 -306.414 -230.56 -322.852 -175.854C-334.644 -136.604 -348.171 -97.8657 -360.824 -58.8715C-362.411 -54.0858 -363.577 -49.1704 -364.307 -44.1815C-364.643 -41.7679 -363.352 -39.1391 -362.794 -36.6045C-360.165 -37.3373 -356.931 -37.3441 -355.009 -38.9374C-349.9 -43.1134 -345.154 -47.715 -340.823 -52.6929C-311.375 -87.223 -288.55 -126.137 -267.608 -166.112C-185.485 -322.882 -111.06 -483.283 -42.5845 -646.46C-41.8651 -648.181 -41.6836 -650.131 -41.2399 -651.973H22.8585Z" fill="#FCE288"/>
<path d="M-1335 262.461C-1328.36 263.617 -1321.74 265.721 -1315.1 265.762C-1295.35 265.896 -1275.53 265.937 -1255.84 264.646C-1237.28 263.429 -1219.27 265.318 -1201.3 269.52C-1145.61 282.596 -1090.5 297.69 -1036.77 317.442C-999.71 331.064 -962.639 344.779 -928.761 365.56C-901.479 382.294 -877.275 402.766 -855.392 426.068C-809.049 475.49 -773.995 532.569 -743.922 592.715C-718.334 643.898 -694.467 695.948 -670.317 747.844C-641.811 809.092 -607.658 867.2 -572.59 924.79C-522.166 1007.57 -477.995 1093.45 -441.307 1183.19C-434.584 1199.61 -425.844 1215.21 -418.065 1231.19C-417.231 1232.9 -416.384 1234.6 -414.946 1237.5H-1335V262.461Z" fill="#FCE288"/>
<path d="M-1335 188.977C-1324.92 192.749 -1314.72 196.312 -1304.75 200.406C-1300.19 202.262 -1294.66 204.292 -1294.44 210.209C-1294.22 216.125 -1299.37 219.13 -1303.85 220.858C-1314.02 224.764 -1324.58 227.675 -1334.98 230.997L-1335 188.977Z" fill="#FCE288"/>
</g>
<defs>
<linearGradient id="paint0_linear_25_547" x1="575" y1="0" x2="575" y2="1000" gradientUnits="userSpaceOnUse">
<stop stop-color="#FEF1C2"/>
<stop offset="1" stop-color="#FCE288"/>
</linearGradient>
</defs>
</svg>
