<svg width="87" height="45" viewBox="0 0 87 45" fill="none" xmlns="http://www.w3.org/2000/svg">
<path d="M-41 43.7076C-25.1636 38.3887 -9.89685 31.6475 4.60381 23.5704C7.39855 22.014 10.7162 20.3579 13.7171 21.6098C18.1604 23.5004 18.2329 30.0895 22.2836 32.6851C25.9233 35.0159 30.6703 32.9809 34.426 30.9418C51.3544 21.6603 68.0338 11.6716 85.8192 3.96387M85.7988 3.95843C84.7041 4.44629 83.7245 5.14217 82.9168 6.00555C81.3877 7.73397 80.5759 9.95751 80.6351 12.2548C80.6487 12.877 80.7276 13.4973 80.8706 14.1063M85.8106 3.96863C83.7563 4.85011 81.4501 5.05486 79.2398 4.55198C77.096 4.07357 75.1413 2.97697 73.6352 1.40771" stroke="black" stroke-width="2" stroke-linecap="round" stroke-linejoin="round"/>
</svg>
