<svg width="21" height="20" viewBox="0 0 21 20" fill="none" xmlns="http://www.w3.org/2000/svg">
<g clip-path="url(#clip0_251_9869)">
<path d="M20.2099 18.2899L16.4999 14.6099C17.94 12.8143 18.6374 10.5352 18.4487 8.2412C18.26 5.94721 17.1996 3.81269 15.4854 2.27655C13.7713 0.74041 11.5337 -0.0805855 9.23283 -0.0176251C6.93194 0.0453353 4.74263 0.987466 3.11505 2.61505C1.48747 4.24263 0.545335 6.43194 0.482375 8.73283C0.419414 11.0337 1.24041 13.2713 2.77655 14.9854C4.31269 16.6996 6.44721 17.76 8.7412 17.9487C11.0352 18.1374 13.3143 17.44 15.1099 15.9999L18.7899 19.6799C18.8829 19.7736 18.9935 19.848 19.1153 19.8988C19.2372 19.9496 19.3679 19.9757 19.4999 19.9757C19.6319 19.9757 19.7626 19.9496 19.8845 19.8988C20.0063 19.848 20.1169 19.7736 20.2099 19.6799C20.3901 19.4934 20.4909 19.2442 20.4909 18.9849C20.4909 18.7256 20.3901 18.4764 20.2099 18.2899ZM9.4999 15.9999C8.11544 15.9999 6.76206 15.5894 5.61091 14.8202C4.45977 14.051 3.56256 12.9578 3.03275 11.6787C2.50293 10.3996 2.36431 8.99214 2.63441 7.63427C2.9045 6.27641 3.57119 5.02912 4.55016 4.05016C5.52912 3.07119 6.77641 2.4045 8.13427 2.13441C9.49214 1.86431 10.8996 2.00293 12.1787 2.53275C13.4578 3.06256 14.551 3.95977 15.3202 5.11091C16.0894 6.26206 16.4999 7.61544 16.4999 8.9999C16.4999 10.8564 15.7624 12.6369 14.4497 13.9497C13.1369 15.2624 11.3564 15.9999 9.4999 15.9999Z" fill="#323232"/>
</g>
<defs>
<clipPath id="clip0_251_9869">
<rect width="20" height="20" fill="white" transform="translate(0.5)"/>
</clipPath>
</defs>
</svg>
