<svg width="1413" height="59" viewBox="0 0 1413 59" fill="none" xmlns="http://www.w3.org/2000/svg">
<rect width="1413" height="59" fill="url(#paint0_linear_31_492)"/>
<rect width="1413" height="59" fill="url(#paint1_linear_31_492)"/>
<path d="M237.951 16.2339C233.117 16.2339 230.15 20.489 230.15 23.9779C230.15 31.5229 238.672 38.5275 244.688 42.9849C250.705 38.5258 259.227 31.5229 259.227 23.9779C259.227 20.4887 256.261 16.2339 251.425 16.2339C248.725 16.2339 246.418 18.4006 244.688 20.4576C242.957 18.4003 240.651 16.2339 237.951 16.2339Z" fill="black"/>
<path d="M272.262 16.2339C267.428 16.2339 264.461 20.489 264.461 23.9779C264.461 31.5229 272.983 38.5275 278.999 42.9849C285.016 38.5258 293.538 31.5229 293.538 23.9779C293.538 20.4887 290.572 16.2339 285.736 16.2339C283.036 16.2339 280.729 18.4006 278.999 20.4576C277.268 18.4003 274.962 16.2339 272.262 16.2339Z" fill="black"/>
<path d="M306.573 16.2339C301.739 16.2339 298.772 20.489 298.772 23.9779C298.772 31.5229 307.294 38.5275 313.31 42.9849C319.327 38.5258 327.849 31.5229 327.849 23.9779C327.849 20.4887 324.883 16.2339 320.048 16.2339C317.347 16.2339 315.04 18.4006 313.31 20.4576C311.579 18.4003 309.273 16.2339 306.573 16.2339Z" fill="black"/>
<path d="M21.9943 42.9537C27.726 42.9537 31.4851 40.2368 31.4851 35.8449C31.4851 25.8703 13.5456 30.746 13.5456 23.1161C13.5456 20.4736 15.9276 18.7615 19.7611 18.7615C24.8229 18.7615 28.2842 22.1484 28.3959 28.029L31.0384 26.6519C30.5174 19.8781 25.7534 16.1562 19.6123 16.1562C14.1039 16.1562 10.4192 18.8732 10.4192 23.3394C10.4192 33.6118 28.3587 28.4384 28.3587 35.9566C28.3587 38.5619 26.0139 40.3484 22.0315 40.3484C16.8953 40.3484 12.3546 36.9987 11.9824 30.8204L9.3771 32.2347C10.1215 39.1574 15.5182 42.9537 21.9943 42.9537ZM35.3538 16.5284V42.5815H38.4802V32.793H47.3755C52.2883 32.793 55.6753 29.4433 55.6753 24.6793C55.6753 19.8409 52.2883 16.5284 47.3755 16.5284H35.3538ZM38.4802 30.1505V19.1337H47.0777C50.353 19.1337 52.5489 21.3668 52.5489 24.6793C52.5489 27.9918 50.353 30.1505 47.0777 30.1505H38.4802ZM73.6577 32.2347C78.0868 31.3042 80.7665 28.4012 80.7665 24.2327C80.7665 19.5059 77.6774 16.5284 72.2807 16.5284H59.2169V42.5815H62.3432V32.7558H69.8986C74.1416 32.7558 75.6303 34.3562 77.1935 42.5815H80.841C79.2034 35.3239 77.7146 32.8674 73.6577 32.2347ZM62.3432 19.1337H71.6852C75.5187 19.1337 77.6402 21.1807 77.6402 24.3815C77.6402 27.8057 74.8488 30.1132 70.6802 30.1132H62.3432V19.1337ZM88.568 30.7087H102.934V28.1034H88.568V19.1337H104.125V16.5284L85.4416 16.5284V42.5815H104.349V39.9762H88.568V30.7087ZM130.897 42.5815L121.034 16.5284H116.27L106.407 42.5815H109.608L112.287 35.3611H124.793L127.51 42.5815H130.897ZM118.54 18.5754L123.937 32.9791H113.181L118.54 18.5754ZM134.038 16.5284V42.5815H142.04C151.382 42.5815 156.742 37.6314 156.742 29.555C156.779 21.4785 151.419 16.5284 141.966 16.5284H134.038ZM137.165 39.9762V19.1337H142.301C149.484 19.1337 153.615 23.0789 153.615 29.555C153.615 36.0683 149.521 39.9762 142.375 39.9762H137.165ZM166.171 16.5284V19.1337H171.493V42.5815H174.62V19.1337H179.905V16.5284H166.171ZM191.179 28.029H184.107V16.5284L181.018 16.5284V42.5815H184.107V30.6343H191.179V42.5815H194.268V16.5284H191.179V28.029ZM199.973 30.7087L207.529 30.7087V28.1034L199.973 28.1034V19.1337H207.789V16.5284H196.884V42.5815L208.012 42.5815V39.9762L199.973 39.9762V30.7087Z" fill="black"/>
<path d="M391.698 15.9468V18.5522H401.077V42H404.203V18.5522H413.583V15.9468H391.698ZM420.228 30.1272H434.595V27.5219H420.228V18.5522H435.786V15.9468H417.102V42H436.009V39.3947H420.228V30.1272ZM443.836 15.9468H440.71V42H458.575V39.3947H443.836V15.9468ZM465.008 15.9468H461.882V42H479.747V39.3947H465.008V15.9468ZM495.977 33.1419L491.772 15.9468H488.348L494.377 35.71V42H497.503V35.71L503.57 15.9468H500.146L495.977 33.1419ZM509.514 42.3722C513.794 42.3722 516.288 37.4965 516.288 29.0479C516.288 20.4875 513.794 15.5746 509.514 15.5746C505.271 15.5746 502.777 20.4875 502.777 29.0479C502.777 37.4965 505.271 42.3722 509.514 42.3722ZM509.514 39.7669C507.094 39.7669 505.866 36.4544 505.866 29.0479C505.866 21.5669 507.094 18.18 509.514 18.18C511.97 18.18 513.161 21.5669 513.161 29.0479C513.161 36.4544 511.97 39.7669 509.514 39.7669ZM524.585 42.3722C528.828 42.3722 531.322 39.7297 531.322 35.2262V15.9468H528.233V35.5239C528.233 38.3153 526.967 39.7669 524.585 39.7669C522.203 39.7669 520.975 38.3153 520.975 35.5239V15.9468H517.849V35.2262C517.849 39.7297 520.342 42.3722 524.585 42.3722ZM540.95 32.8442C544.374 31.9881 546.086 29.0479 546.086 24.2466C546.086 18.9616 543.555 15.9468 539.015 15.9468H533.506V42H536.595V33.4025H538.791C541.322 33.4025 541.918 34.3701 542.96 42H546.347C545.156 35.3378 544.114 33.328 540.95 32.8442ZM536.595 18.5522H538.531C541.545 18.5522 542.997 20.3759 542.997 24.5816C542.997 28.9362 541.62 30.7971 538.791 30.7971H536.595V18.5522ZM577.936 15.9468L559.587 15.9468V42H562.714V31.4671H576.931V28.8245H562.714V18.5522L577.936 18.5522V15.9468ZM595.528 31.6532C599.957 30.7227 602.637 27.8196 602.637 23.6511C602.637 18.9243 599.547 15.9468 594.151 15.9468H581.087V42L584.213 42V32.1742H591.769C596.012 32.1742 597.5 33.7746 599.064 42H602.711C601.073 34.7423 599.585 32.2859 595.528 31.6532ZM584.213 18.5522H593.555C597.389 18.5522 599.51 20.5992 599.51 23.8C599.51 27.2241 596.719 29.5317 592.55 29.5317H584.213V18.5522ZM610.438 42V15.9468H607.312V42H610.438ZM619.289 30.1272H633.656V27.5219H619.289V18.5522H634.847V15.9468H616.163V42H635.07V39.3947H619.289V30.1272ZM659.683 39.4691L644.646 15.9468H639.771V42H642.86V18.3288L657.859 42H662.809V15.9468H659.72L659.683 39.4691ZM668.539 15.9468V42H676.542C685.883 42 691.243 37.0499 691.243 28.9734C691.28 20.8969 685.921 15.9468 676.467 15.9468H668.539ZM671.666 39.3947V18.5522H676.802C683.985 18.5522 688.117 22.4973 688.117 28.9734C688.117 35.4867 684.023 39.3947 676.877 39.3947H671.666ZM706.102 42.3722C711.834 42.3722 715.593 39.6552 715.593 35.2634C715.593 25.2888 697.653 30.1644 697.653 22.5346C697.653 19.892 700.035 18.18 703.869 18.18C708.931 18.18 712.392 21.5669 712.504 27.4474L715.146 26.0704C714.625 19.2965 709.861 15.5746 703.72 15.5746C698.212 15.5746 694.527 18.2916 694.527 22.7579C694.527 33.0303 712.466 27.8569 712.466 35.3751C712.466 37.9804 710.122 39.7669 706.139 39.7669C701.003 39.7669 696.462 36.4172 696.09 30.2389L693.485 31.6532C694.229 38.5759 699.626 42.3722 706.102 42.3722Z" fill="black"/>
<path d="M747.273 22.4871L749.98 19.7918C750.471 19.4052 751.174 19.4477 751.616 19.8898C752.058 20.3319 752.1 21.0344 751.714 21.5255L749.017 24.2218H749.018C748.536 24.7042 747.754 24.7042 747.272 24.2229C746.789 23.7405 746.788 22.9586 747.271 22.4762L747.273 22.4871ZM747.192 16.3648C746.892 16.2134 746.543 16.1927 746.226 16.306C745.909 16.4203 745.655 16.6588 745.52 16.967L743.965 20.5585C743.71 21.1477 743.953 21.8326 744.522 22.131C744.994 22.3727 745.569 22.2845 745.946 21.9099C746.058 21.7999 746.147 21.6693 746.208 21.5255L747.75 17.9373C748.004 17.3482 747.761 16.6632 747.192 16.3648V16.3648ZM753.568 23.7558L749.98 25.2978C749.393 25.5853 749.136 26.2822 749.395 26.8823C749.654 27.4812 750.339 27.772 750.95 27.5411L754.539 25.986C754.68 25.924 754.81 25.8368 754.92 25.7269C755.313 25.3076 755.361 24.6716 755.036 24.1979C754.711 23.7242 754.101 23.5402 753.568 23.7558L753.568 23.7558ZM752.804 32.9271C753.305 33.4291 753.305 34.2415 752.804 34.7425C752.303 35.2434 751.49 35.2434 750.99 34.7425L750.237 33.99L746.504 35.6485C747.364 36.8398 747.563 38.3862 747.032 39.756C746.502 41.126 745.313 42.1344 743.874 42.435C742.436 42.7355 740.942 42.2869 739.908 41.2436L738.062 39.3978L734.599 40.9365C734.986 41.444 734.939 42.1584 734.488 42.6092C733.986 43.1101 733.175 43.1101 732.674 42.6092L728.891 38.8292C728.431 38.3512 728.411 37.6019 728.847 37.1021C729.282 36.6022 730.026 36.5162 730.563 36.9061L737.515 21.2681L736.763 20.5157C736.397 20.1498 736.287 19.5976 736.485 19.1196C736.684 18.6404 737.151 18.3279 737.669 18.3279C738.009 18.3268 738.336 18.4618 738.575 18.7036L752.804 32.9271ZM744.271 36.8802L744.103 36.7125L740.527 38.3014L741.686 39.4611V39.4622C742.4 40.1755 743.557 40.1755 744.271 39.4622C744.984 38.7489 744.984 37.5914 744.271 36.8781L744.271 36.8802Z" fill="black"/>
<path d="M781.003 22.4871L783.71 19.7918C784.201 19.4052 784.903 19.4477 785.345 19.8898C785.788 20.3319 785.83 21.0344 785.443 21.5255L782.747 24.2218H782.748C782.266 24.7042 781.484 24.7042 781.001 24.2229C780.519 23.7405 780.518 22.9586 781 22.4762L781.003 22.4871ZM780.922 16.3648C780.621 16.2134 780.273 16.1927 779.956 16.306C779.639 16.4203 779.384 16.6588 779.249 16.967L777.694 20.5585C777.439 21.1477 777.682 21.8326 778.252 22.131C778.723 22.3727 779.298 22.2845 779.676 21.9099C779.787 21.7999 779.877 21.6693 779.938 21.5255L781.48 17.9373C781.733 17.3482 781.49 16.6632 780.922 16.3648V16.3648ZM787.298 23.7558L783.71 25.2978C783.123 25.5853 782.866 26.2822 783.125 26.8823C783.384 27.4812 784.069 27.772 784.68 27.5411L788.268 25.986C788.41 25.924 788.539 25.8368 788.649 25.7269C789.043 25.3076 789.09 24.6716 788.766 24.1979C788.44 23.7242 787.83 23.5402 787.298 23.7558L787.298 23.7558ZM786.534 32.9271C787.034 33.4291 787.034 34.2415 786.534 34.7425C786.033 35.2434 785.22 35.2434 784.719 34.7425L783.967 33.99L780.234 35.6485C781.094 36.8398 781.293 38.3862 780.762 39.756C780.231 41.126 779.042 42.1344 777.604 42.435C776.165 42.7355 774.672 42.2869 773.638 41.2436L771.792 39.3978L768.329 40.9365C768.715 41.444 768.668 42.1584 768.218 42.6092C767.716 43.1101 766.904 43.1101 766.403 42.6092L762.62 38.8292C762.161 38.3512 762.141 37.6019 762.577 37.1021C763.011 36.6022 763.756 36.5162 764.293 36.9061L771.245 21.2681L770.493 20.5157C770.127 20.1498 770.017 19.5976 770.215 19.1196C770.413 18.6404 770.88 18.3279 771.399 18.3279C771.739 18.3268 772.065 18.4618 772.305 18.7036L786.534 32.9271ZM778 36.8802L777.833 36.7125L774.256 38.3014L775.416 39.4611V39.4622C776.13 40.1755 777.287 40.1755 778 39.4622C778.714 38.7489 778.714 37.5914 778 36.8781L778 36.8802Z" fill="black"/>
<path d="M814.732 22.4871L817.439 19.7918C817.93 19.4052 818.633 19.4477 819.075 19.8898C819.517 20.3319 819.56 21.0344 819.173 21.5255L816.477 24.2218H816.478C815.995 24.7042 815.213 24.7042 814.731 24.2229C814.249 23.7405 814.247 22.9586 814.73 22.4762L814.732 22.4871ZM814.652 16.3648C814.351 16.2134 814.002 16.1927 813.686 16.306C813.369 16.4203 813.114 16.6588 812.979 16.967L811.424 20.5585C811.169 21.1477 811.412 21.8326 811.981 22.131C812.453 22.3727 813.028 22.2845 813.406 21.9099C813.517 21.7999 813.606 21.6693 813.667 21.5255L815.209 17.9373C815.463 17.3482 815.22 16.6632 814.652 16.3648V16.3648ZM821.027 23.7558L817.439 25.2978C816.852 25.5853 816.595 26.2822 816.855 26.8823C817.114 27.4812 817.799 27.772 818.41 27.5411L821.998 25.986C822.139 25.924 822.269 25.8368 822.379 25.7269C822.772 25.3076 822.82 24.6716 822.495 24.1979C822.17 23.7242 821.56 23.5402 821.027 23.7558L821.027 23.7558ZM820.263 32.9271C820.764 33.4291 820.764 34.2415 820.263 34.7425C819.762 35.2434 818.95 35.2434 818.449 34.7425L817.696 33.99L813.963 35.6485C814.823 36.8398 815.023 38.3862 814.491 39.756C813.961 41.126 812.772 42.1344 811.333 42.435C809.895 42.7355 808.402 42.2869 807.367 41.2436L805.521 39.3978L802.058 40.9365C802.445 41.444 802.398 42.1584 801.947 42.6092C801.445 43.1101 800.634 43.1101 800.133 42.6092L796.35 38.8292C795.89 38.3512 795.871 37.6019 796.306 37.1021C796.741 36.6022 797.486 36.5162 798.022 36.9061L804.975 21.2681L804.222 20.5157C803.856 20.1498 803.746 19.5976 803.945 19.1196C804.143 18.6404 804.61 18.3279 805.128 18.3279C805.468 18.3268 805.795 18.4618 806.034 18.7036L820.263 32.9271ZM811.73 36.8802L811.562 36.7125L807.986 38.3014L809.146 39.4611V39.4622C809.859 40.1755 811.017 40.1755 811.73 39.4622C812.443 38.7489 812.443 37.5914 811.73 36.8781L811.73 36.8802Z" fill="black"/>
<path fill-rule="evenodd" clip-rule="evenodd" d="M359.252 42.9849C366.64 42.9849 372.628 36.9965 372.628 29.6094C372.628 22.2223 366.64 16.2339 359.252 16.2339C351.865 16.2339 345.877 22.2223 345.877 29.6094C345.877 36.9965 351.865 42.9849 359.252 42.9849ZM363.964 29.0375L368.888 29.7072V29.7075C369.222 29.7561 369.222 30.1396 368.888 30.1863L363.964 30.8092C361.812 31.0973 360.139 32.7734 359.852 34.9283L359.183 39.8611C359.183 40.1492 358.754 40.1492 358.705 39.8611L358.037 34.9283C357.749 32.7734 356.076 31.0973 353.925 30.8092L349 30.1396C348.713 30.1396 348.713 29.7094 349 29.6607L353.925 28.9911C356.076 28.703 357.749 27.0269 358.037 24.872L358.705 19.9392C358.705 19.6511 359.135 19.6511 359.183 19.9392L359.852 24.9185C360.139 27.0734 361.812 28.7495 363.964 29.0375Z" fill="black"/>
<path fill-rule="evenodd" clip-rule="evenodd" d="M855.31 42.9849C862.697 42.9849 868.685 36.9965 868.685 29.6094C868.685 22.2223 862.697 16.2339 855.31 16.2339C847.923 16.2339 841.934 22.2223 841.934 29.6094C841.934 36.9965 847.923 42.9849 855.31 42.9849ZM860.021 29.0375L864.945 29.7072V29.7075C865.279 29.7561 865.279 30.1396 864.945 30.1863L860.021 30.8092C857.87 31.0973 856.196 32.7734 855.909 34.9283L855.24 39.8611C855.24 40.1492 854.811 40.1492 854.762 39.8611L854.094 34.9283C853.806 32.7734 852.133 31.0973 849.982 30.8092L845.057 30.1396C844.77 30.1396 844.77 29.7094 845.057 29.6607L849.982 28.9911C852.133 28.703 853.806 27.0269 854.094 24.872L854.762 19.9392C854.762 19.6511 855.192 19.6511 855.24 19.9392L855.909 24.9185C856.196 27.0734 857.87 28.7495 860.021 29.0375Z" fill="#323232"/>
<path d="M886.099 30.1272H900.465V27.5219H886.099V18.5522H901.656V15.9468H882.972L882.972 42H901.879V39.3947H886.099V30.1272ZM928.427 42L918.564 15.9468H913.8L903.937 42H907.138L909.818 34.7796H922.323L925.04 42H928.427ZM916.071 17.9939L921.467 32.3975H910.711L916.071 17.9939ZM946.01 31.6532C950.439 30.7227 953.119 27.8196 953.119 23.6511C953.119 18.9243 950.029 15.9468 944.633 15.9468H931.569V42H934.695V32.1742H942.251C946.494 32.1742 947.982 33.7746 949.546 42H953.193C951.555 34.7423 950.067 32.2859 946.01 31.6532ZM934.695 18.5522H944.037C947.871 18.5522 949.992 20.5992 949.992 23.8C949.992 27.2241 947.201 29.5317 943.032 29.5317H934.695V18.5522ZM977.706 39.4691L962.669 15.9468L957.794 15.9468V42H960.883V18.3288L975.882 42H980.832V15.9468H977.743L977.706 39.4691Z" fill="black"/>
<path d="M1009.55 19.998L1010.53 19.0171C1011.38 18.1677 1011.21 17.4321 1011.09 17.1557C1010.98 16.8781 1010.58 16.2339 1009.38 16.2339H1005.81C1004.61 16.2339 1004.21 16.8781 1004.1 17.1546C1003.98 17.4321 1003.81 18.1678 1004.66 19.016L1005.64 19.9968C1001.17 20.9064 997.787 24.8711 997.787 29.6095V40.3098C997.787 41.7845 998.988 42.9849 1000.46 42.9849H1014.73C1016.2 42.9849 1017.4 41.7845 1017.4 40.3098V29.6095C1017.4 24.8714 1014.03 20.9065 1009.55 19.998L1009.55 19.998ZM1007.6 31.3928C1009.07 31.3928 1010.27 32.5933 1010.27 34.0679C1010.27 35.2293 1009.52 36.2091 1008.49 36.5792V37.6347C1008.49 38.1274 1008.09 38.5264 1007.6 38.5264C1007.1 38.5264 1006.7 38.1274 1006.7 37.6347V36.743H1005.81C1005.32 36.743 1004.92 36.344 1004.92 35.8513C1004.92 35.3586 1005.32 34.9596 1005.81 34.9596H1007.6C1008.09 34.9596 1008.49 34.5595 1008.49 34.0679C1008.49 33.5764 1008.09 33.1762 1007.6 33.1762C1006.12 33.1762 1004.92 31.9758 1004.92 30.5011C1004.92 29.3397 1005.67 28.36 1006.7 27.9899V26.9344C1006.7 26.4417 1007.1 26.0427 1007.6 26.0427C1008.09 26.0427 1008.49 26.4417 1008.49 26.9344V27.826H1009.38C1009.87 27.826 1010.27 28.2251 1010.27 28.7177C1010.27 29.2104 1009.87 29.6094 1009.38 29.6094H1007.6C1007.1 29.6094 1006.7 30.0096 1006.7 30.5011C1006.7 30.9927 1007.1 31.3928 1007.6 31.3928Z" fill="black"/>
<path d="M1036.3 19.998L1037.28 19.0171C1038.13 18.1677 1037.96 17.4321 1037.84 17.1557C1037.73 16.8781 1037.33 16.2339 1036.13 16.2339H1032.56C1031.36 16.2339 1030.97 16.8781 1030.85 17.1546C1030.74 17.4321 1030.56 18.1678 1031.41 19.016L1032.39 19.9968C1027.92 20.9064 1024.54 24.8711 1024.54 29.6095V40.3098C1024.54 41.7845 1025.74 42.9849 1027.21 42.9849H1041.48C1042.96 42.9849 1044.16 41.7845 1044.16 40.3098V29.6095C1044.16 24.8714 1040.78 20.9065 1036.3 19.998L1036.3 19.998ZM1034.35 31.3928C1035.82 31.3928 1037.02 32.5933 1037.02 34.0679C1037.02 35.2293 1036.28 36.2091 1035.24 36.5792V37.6347C1035.24 38.1274 1034.84 38.5264 1034.35 38.5264C1033.85 38.5264 1033.46 38.1274 1033.46 37.6347V36.743H1032.56C1032.07 36.743 1031.67 36.344 1031.67 35.8513C1031.67 35.3586 1032.07 34.9596 1032.56 34.9596H1034.35C1034.84 34.9596 1035.24 34.5595 1035.24 34.0679C1035.24 33.5764 1034.84 33.1762 1034.35 33.1762C1032.87 33.1762 1031.67 31.9758 1031.67 30.5011C1031.67 29.3397 1032.42 28.36 1033.46 27.9899V26.9344C1033.46 26.4417 1033.85 26.0427 1034.35 26.0427C1034.84 26.0427 1035.24 26.4417 1035.24 26.9344V27.826H1036.13C1036.62 27.826 1037.02 28.2251 1037.02 28.7177C1037.02 29.2104 1036.62 29.6094 1036.13 29.6094H1034.35C1033.86 29.6094 1033.46 30.0096 1033.46 30.5011C1033.46 30.9927 1033.86 31.3928 1034.35 31.3928Z" fill="black"/>
<path d="M1063.05 19.998L1064.03 19.0171C1064.88 18.1677 1064.71 17.4321 1064.59 17.1557C1064.48 16.8781 1064.08 16.2339 1062.88 16.2339H1059.31C1058.11 16.2339 1057.72 16.8781 1057.6 17.1546C1057.49 17.4321 1057.31 18.1678 1058.16 19.016L1059.14 19.9968C1054.67 20.9064 1051.29 24.8711 1051.29 29.6095V40.3098C1051.29 41.7845 1052.49 42.9849 1053.96 42.9849H1068.23C1069.71 42.9849 1070.91 41.7845 1070.91 40.3098V29.6095C1070.91 24.8714 1067.53 20.9065 1063.05 19.998L1063.05 19.998ZM1061.1 31.3928C1062.57 31.3928 1063.77 32.5933 1063.77 34.0679C1063.77 35.2293 1063.03 36.2091 1061.99 36.5792V37.6347C1061.99 38.1274 1061.59 38.5264 1061.1 38.5264C1060.61 38.5264 1060.21 38.1274 1060.21 37.6347V36.743H1059.31C1058.82 36.743 1058.42 36.344 1058.42 35.8513C1058.42 35.3586 1058.82 34.9596 1059.31 34.9596H1061.1C1061.59 34.9596 1061.99 34.5595 1061.99 34.0679C1061.99 33.5764 1061.59 33.1762 1061.1 33.1762C1059.62 33.1762 1058.42 31.9758 1058.42 30.5011C1058.42 29.3397 1059.17 28.36 1060.21 27.9899V26.9344C1060.21 26.4417 1060.61 26.0427 1061.1 26.0427C1061.59 26.0427 1061.99 26.4417 1061.99 26.9344V27.826H1062.88C1063.37 27.826 1063.77 28.2251 1063.77 28.7177C1063.77 29.2104 1063.37 29.6094 1062.88 29.6094H1061.1C1060.61 29.6094 1060.21 30.0096 1060.21 30.5011C1060.21 30.9927 1060.61 31.3928 1061.1 31.3928Z" fill="black"/>
<path d="M1097.52 15.9468H1086.69V42H1089.78V31.0949H1096.63V28.4524H1089.78L1089.78 18.5522H1097.52V15.9468ZM1104.67 42.3722C1108.95 42.3722 1111.44 37.4965 1111.44 29.0479C1111.44 20.4875 1108.95 15.5746 1104.67 15.5746C1100.42 15.5746 1097.93 20.4875 1097.93 29.0479C1097.93 37.4965 1100.42 42.3722 1104.67 42.3722ZM1104.67 39.7669C1102.25 39.7669 1101.02 36.4544 1101.02 29.0479C1101.02 21.5669 1102.25 18.18 1104.67 18.18C1107.12 18.18 1108.31 21.5669 1108.31 29.0479C1108.31 36.4544 1107.12 39.7669 1104.67 39.7669ZM1120.85 32.8442C1124.28 31.9881 1125.99 29.0479 1125.99 24.2466C1125.99 18.9616 1123.46 15.9468 1118.92 15.9468H1113.41V42H1116.5V33.4025H1118.7C1121.23 33.4025 1121.82 34.3701 1122.86 42H1126.25C1125.06 35.3378 1124.02 33.328 1120.85 32.8442ZM1116.5 18.5522H1118.43C1121.45 18.5522 1122.9 20.3759 1122.9 24.5816C1122.9 28.9362 1121.52 30.7971 1118.7 30.7971H1116.5V18.5522ZM1153.93 31.6532C1158.36 30.7227 1161.04 27.8196 1161.04 23.6511C1161.04 18.9243 1157.95 15.9468 1152.55 15.9468H1139.49V42H1142.62V32.1742H1150.17C1154.42 32.1742 1155.9 33.7746 1157.47 42H1161.12C1159.48 34.7423 1157.99 32.2859 1153.93 31.6532ZM1142.62 18.5522H1151.96C1155.79 18.5522 1157.91 20.5992 1157.91 23.8C1157.91 27.2241 1155.12 29.5317 1150.95 29.5317L1142.62 29.5317V18.5522ZM1168.84 30.1272H1183.21V27.5219H1168.84V18.5522H1184.4V15.9468H1165.72V42H1184.62V39.3947H1168.84V30.1272ZM1207.67 15.9468H1189.32V42H1192.45V31.4671H1206.67V28.8245H1192.45V18.5522H1207.67V15.9468ZM1213.95 30.1272H1228.32V27.5219H1213.95V18.5522H1229.51V15.9468H1210.82V42H1229.73V39.3947H1213.95V30.1272ZM1248.87 31.6532C1253.3 30.7227 1255.98 27.8196 1255.98 23.6511C1255.98 18.9243 1252.89 15.9468 1247.49 15.9468H1234.43V42H1237.56V32.1742H1245.11C1249.36 32.1742 1250.84 33.7746 1252.41 42H1256.06C1254.42 34.7423 1252.93 32.2859 1248.87 31.6532ZM1237.56 18.5522H1246.9C1250.73 18.5522 1252.85 20.5992 1252.85 23.8C1252.85 27.2241 1250.06 29.5317 1245.89 29.5317H1237.56V18.5522ZM1275.1 31.6532C1279.53 30.7227 1282.21 27.8196 1282.21 23.6511C1282.21 18.9243 1279.12 15.9468 1273.72 15.9468L1260.66 15.9468V42H1263.78V32.1742H1271.34C1275.58 32.1742 1277.07 33.7746 1278.63 42H1282.28C1280.64 34.7423 1279.15 32.2859 1275.1 31.6532ZM1263.78 18.5522H1273.12C1276.96 18.5522 1279.08 20.5992 1279.08 23.8C1279.08 27.2241 1276.29 29.5317 1272.12 29.5317H1263.78V18.5522ZM1308.73 42L1298.86 15.9468H1294.1L1284.24 42H1287.44L1290.12 34.7796H1302.62L1305.34 42H1308.73ZM1296.37 17.9939L1301.77 32.3975H1291.01L1296.37 17.9939ZM1315 15.9468H1311.87V42H1329.73V39.3947H1315V15.9468ZM1342.93 42.3722C1348.66 42.3722 1352.42 39.6552 1352.42 35.2634C1352.42 25.2888 1334.48 30.1644 1334.48 22.5346C1334.48 19.892 1336.86 18.18 1340.69 18.18C1345.75 18.18 1349.22 21.5669 1349.33 27.4474L1351.97 26.0704C1351.45 19.2965 1346.68 15.5746 1340.54 15.5746C1335.04 15.5746 1331.35 18.2916 1331.35 22.7579C1331.35 33.0303 1349.29 27.8569 1349.29 35.3751C1349.29 37.9804 1346.95 39.7669 1342.96 39.7669C1337.83 39.7669 1333.29 36.4172 1332.91 30.2389L1330.31 31.6532C1331.05 38.5759 1336.45 42.3722 1342.93 42.3722Z" fill="black"/>
<path fill-rule="evenodd" clip-rule="evenodd" d="M1381.61 42.9849C1388.99 42.9849 1394.98 36.9965 1394.98 29.6094C1394.98 22.2223 1388.99 16.2339 1381.61 16.2339C1374.22 16.2339 1368.23 22.2223 1368.23 29.6094C1368.23 36.9965 1374.22 42.9849 1381.61 42.9849ZM1386.32 29.0375L1391.24 29.7072V29.7075C1391.58 29.7561 1391.58 30.1396 1391.24 30.1863L1386.32 30.8092C1384.17 31.0973 1382.49 32.7734 1382.21 34.9283L1381.54 39.8611C1381.54 40.1492 1381.11 40.1492 1381.06 39.8611L1380.39 34.9283C1380.1 32.7734 1378.43 31.0973 1376.28 30.8092L1371.35 30.1396C1371.07 30.1396 1371.07 29.7094 1371.35 29.6607L1376.28 28.9911C1378.43 28.703 1380.1 27.0269 1380.39 24.872L1381.06 19.9392C1381.06 19.6511 1381.49 19.6511 1381.54 19.9392L1382.21 24.9185C1382.49 27.0734 1384.17 28.7495 1386.32 29.0375Z" fill="black"/>
<defs>
<linearGradient id="paint0_linear_31_492" x1="-64.4225" y1="0" x2="1492.02" y2="0" gradientUnits="userSpaceOnUse">
<stop stop-color="#FFC9D4"/>
<stop offset="0.270833" stop-color="#FEF1C2"/>
<stop offset="0.630208" stop-color="#DFCDEA"/>
<stop offset="1" stop-color="#FFC9D4"/>
<stop offset="1" stop-color="#FFC9D4"/>
</linearGradient>
<linearGradient id="paint1_linear_31_492" x1="0" y1="0" x2="1413" y2="0" gradientUnits="userSpaceOnUse">
<stop stop-color="#FFC9D4"/>
<stop offset="0.322917" stop-color="#FEF1C2"/>
<stop offset="0.630208" stop-color="#DFCDEA"/>
<stop offset="1" stop-color="#FFC9D4"/>
<stop offset="1" stop-color="#FFC9D4"/>
</linearGradient>
</defs>
</svg>
