<svg width="329" height="225" viewBox="0 0 329 225" fill="none" xmlns="http://www.w3.org/2000/svg">
<path d="M414.454 83.6917C363.525 59.0955 302.098 69.2903 259.649 105.848C246.339 117.212 235.334 131.03 227.234 146.549C219.841 160.904 217.254 178.961 225.339 192.92C228.266 197.826 232.324 201.961 237.173 204.978C242.022 207.995 247.522 209.808 253.214 210.265C265.434 211.192 275.16 201.727 281.113 192.005C289.493 178.362 293.308 162.34 294.659 146.392C298.824 97.5573 272.916 46.7855 226.745 27.4162C201.327 16.7592 172.935 14.1298 145.736 17.6923C120.652 20.9479 96.4633 29.3374 73.8298 40.5095C54.2274 50.1924 32.3612 65.9139 33.2159 90.5267" stroke="black" stroke-width="4.13" stroke-linecap="round" stroke-linejoin="round"/>
<path d="M32.3498 95.5589C32.4651 94.3838 33.7868 84.2646 26.2977 76.754C22.4348 72.9847 17.336 70.7472 11.9485 70.4571" stroke="black" stroke-width="4.13" stroke-linecap="round" stroke-linejoin="round"/>
<path d="M32.3505 95.5586C32.4921 92.5335 33.3054 89.5779 34.7312 86.9066C36.1569 84.2352 38.1595 81.9153 40.5932 80.1153C49.1407 74.0788 58.6895 77.7748 59.3631 78.0411" stroke="black" stroke-width="4.13" stroke-linecap="round" stroke-linejoin="round"/>
</svg>
