<svg width="21" height="20" viewBox="0 0 21 20" fill="none" xmlns="http://www.w3.org/2000/svg">
<g clip-path="url(#clip0_251_9756)">
<path d="M12.87 10.79C12.7479 10.7415 12.6174 10.7174 12.4859 10.7192C12.3545 10.7211 12.2247 10.7488 12.104 10.8008C11.9833 10.8528 11.874 10.9281 11.7824 11.0223C11.6908 11.1166 11.6186 11.2279 11.57 11.35C11.5214 11.4722 11.4974 11.6027 11.4992 11.7341C11.501 11.8655 11.5288 11.9953 11.5808 12.116C11.6328 12.2367 11.708 12.346 11.8023 12.4377C11.8965 12.5293 12.0079 12.6015 12.13 12.65C13.59 13.23 14.5 14.13 14.5 15C14.5 16.42 12.04 18 8.5 18C4.96 18 2.5 16.42 2.5 15C2.5 14.13 3.41 13.23 4.87 12.65C5.11665 12.5519 5.31422 12.3598 5.41924 12.116C5.52426 11.8722 5.52813 11.5967 5.43 11.35C5.33187 11.1034 5.13978 10.9058 4.89598 10.8008C4.65218 10.6958 4.37665 10.6919 4.13 10.79C1.86 11.69 0.5 13.26 0.5 15C0.5 17.8 4.01 20 8.5 20C12.99 20 16.5 17.8 16.5 15C16.5 13.26 15.14 11.69 12.87 10.79ZM7.5 7.86004V15C7.5 15.2653 7.60536 15.5196 7.79289 15.7072C7.98043 15.8947 8.23478 16 8.5 16C8.76522 16 9.01957 15.8947 9.20711 15.7072C9.39464 15.5196 9.5 15.2653 9.5 15V7.86004C10.4427 7.61665 11.2642 7.03782 11.8106 6.23204C12.357 5.42626 12.5908 4.44886 12.4681 3.48304C12.3454 2.51723 11.8747 1.62931 11.1442 0.985722C10.4137 0.342133 9.47357 -0.0129395 8.5 -0.0129395C7.52643 -0.0129395 6.58627 0.342133 5.85577 0.985722C5.12526 1.62931 4.65456 2.51723 4.53188 3.48304C4.40921 4.44886 4.64299 5.42626 5.1894 6.23204C5.73581 7.03782 6.55734 7.61665 7.5 7.86004ZM8.5 2.00004C8.89556 2.00004 9.28224 2.11734 9.61114 2.3371C9.94004 2.55687 10.1964 2.86922 10.3478 3.23468C10.4991 3.60013 10.5387 4.00226 10.4616 4.39022C10.3844 4.77819 10.1939 5.13455 9.91421 5.41426C9.63451 5.69396 9.27814 5.88444 8.89018 5.96161C8.50222 6.03878 8.10009 5.99918 7.73463 5.8478C7.36918 5.69643 7.05682 5.44008 6.83706 5.11118C6.6173 4.78229 6.5 4.39561 6.5 4.00004C6.5 3.46961 6.71071 2.9609 7.08579 2.58583C7.46086 2.21076 7.96957 2.00004 8.5 2.00004Z" fill="#323232"/>
</g>
<defs>
<clipPath id="clip0_251_9756">
<rect width="16" height="20" fill="white" transform="translate(0.5)"/>
</clipPath>
</defs>
</svg>
