<svg width="21" height="20" viewBox="0 0 21 20" fill="none" xmlns="http://www.w3.org/2000/svg">
<path d="M19.82 3.04481L13.82 1.04481H13.75C13.7035 1.04013 13.6566 1.04013 13.61 1.04481H13.38H13.25H13.18L7.5 2.99481L1.82 1.04481C1.66962 0.995217 1.50961 0.982051 1.35314 1.00639C1.19667 1.03073 1.04822 1.09188 0.920003 1.18481C0.790762 1.27682 0.685268 1.39827 0.612238 1.53911C0.539208 1.67996 0.500737 1.83616 0.500003 1.99481V15.9948C0.499462 16.2044 0.564822 16.409 0.686845 16.5794C0.808868 16.7499 0.981382 16.8777 1.18 16.9448L7.18 18.9448C7.38145 19.0105 7.59856 19.0105 7.8 18.9448L13.5 17.0448L19.18 18.9948C19.2862 19.0092 19.3938 19.0092 19.5 18.9948C19.7091 18.9977 19.9132 18.9309 20.08 18.8048C20.2092 18.7128 20.3147 18.5913 20.3878 18.4505C20.4608 18.3097 20.4993 18.1535 20.5 17.9948V3.99481C20.5005 3.78516 20.4352 3.58065 20.3132 3.41018C20.1911 3.2397 20.0186 3.11189 19.82 3.04481ZM6.5 16.6048L2.5 15.2748V3.38481L6.5 4.71481V16.6048ZM12.5 15.2748L8.5 16.6048V4.71481L12.5 3.38481V15.2748ZM18.5 16.6048L14.5 15.2748V3.38481L18.5 4.71481V16.6048Z" fill="#323232"/>
</svg>
