<svg width="21" height="22" viewBox="0 0 21 22" fill="none" xmlns="http://www.w3.org/2000/svg">
<path d="M17.4615 8.62825C17.3319 7.27008 16.8772 5.96307 16.136 4.81767C15.3947 3.67227 14.3886 2.72214 13.2027 2.04757C12.0168 1.373 10.6859 0.993803 9.32252 0.942035C7.95916 0.890266 6.60337 1.16744 5.36972 1.75014C4.13607 2.33284 3.06081 3.20394 2.23481 4.28983C1.40881 5.37571 0.856333 6.64448 0.624073 7.98891C0.391812 9.33333 0.486592 10.7139 0.900402 12.014C1.31421 13.3141 2.03489 14.4954 3.00154 15.4582L8.30154 20.7682C8.39451 20.862 8.50511 20.9364 8.62697 20.9871C8.74883 21.0379 8.87953 21.064 9.01154 21.064C9.14355 21.064 9.27426 21.0379 9.39612 20.9871C9.51798 20.9364 9.62858 20.862 9.72154 20.7682L15.0015 15.4582C15.8927 14.5737 16.5759 13.5019 17.0014 12.3205C17.4269 11.1392 17.5841 9.8779 17.4615 8.62825ZM13.6015 14.0482L9.00154 18.6482L4.40154 14.0482C3.72363 13.3703 3.20434 12.5506 2.88101 11.648C2.55768 10.7454 2.43833 9.78244 2.53154 8.82825C2.62536 7.85935 2.93331 6.92341 3.43311 6.08809C3.93292 5.25277 4.6121 4.53895 5.42154 3.99825C6.48249 3.29348 7.72785 2.91754 9.00154 2.91754C10.2752 2.91754 11.5206 3.29348 12.5815 3.99825C13.3885 4.53686 14.0662 5.24753 14.5659 6.07918C15.0656 6.91084 15.3749 7.84285 15.4715 8.80825C15.5678 9.76567 15.4499 10.7325 15.1265 11.6388C14.8031 12.5451 14.2822 13.3681 13.6015 14.0482ZM10.7915 5.24825C10.6986 5.15452 10.588 5.08012 10.4661 5.02935C10.3443 4.97859 10.2136 4.95245 10.0815 4.95245C9.94953 4.95245 9.81882 4.97859 9.69697 5.02935C9.57511 5.08012 9.46451 5.15452 9.37154 5.24825L5.79154 8.82825C5.6068 9.01451 5.50265 9.26591 5.50154 9.52825V11.9982C5.50154 12.2635 5.6069 12.5178 5.79444 12.7054C5.98197 12.8929 6.23633 12.9982 6.50154 12.9982H8.92154C9.05315 12.999 9.18361 12.9738 9.30545 12.924C9.42729 12.8743 9.5381 12.8009 9.63154 12.7082L13.2115 9.12825C13.3978 8.94088 13.5023 8.68743 13.5023 8.42325C13.5023 8.15906 13.3978 7.90561 13.2115 7.71825L10.7915 5.24825ZM8.51154 10.9982H7.51154V9.99825L10.0915 7.41825L11.0915 8.41825L8.51154 10.9982Z" fill="#323232"/>
</svg>
