<svg width="68" height="20" viewBox="0 0 68 20" fill="none" xmlns="http://www.w3.org/2000/svg">
<path d="M9.31894 16.4105V10.0106H4.08597V16.4105H0V0.410645H4.08597V6.4216H9.31894V0.410645H13.4049V16.4105H9.31894Z" fill="#727272"/>
<path d="M20.5078 16.4108V4.41088H23.8808V5.68687H23.9238C24.5508 4.41087 25.5448 3.99988 26.9288 3.99988V7.61085C24.7888 7.63285 24.0998 8.43185 24.0998 9.79984V16.4158L20.5078 16.4108Z" fill="#727272"/>
<path d="M30.8282 11.4998C31.0282 12.8618 32.1692 13.7698 33.6392 13.7698C34.6122 13.7698 35.2392 13.4028 35.8231 12.6458H39.5001C38.3531 15.2648 36.1691 16.7998 33.6392 16.7998C32.8043 16.8002 31.9775 16.636 31.2061 16.3167C30.4348 15.9973 29.7339 15.5291 29.1436 14.9387C28.5533 14.3483 28.0852 13.6474 27.7659 12.8759C27.4467 12.1045 27.2827 11.2777 27.2832 10.4428C27.2832 6.98386 30.0502 3.99988 33.5742 3.99988C37.1631 3.99988 39.9091 6.83286 39.9091 10.5508C39.9138 10.8703 39.8849 11.1894 39.8231 11.5028L30.8282 11.4998ZM36.3201 9.08084C36.0391 7.84885 34.9582 7.02686 33.5742 7.02686C32.2742 7.02686 31.1532 7.80585 30.8742 9.08084H36.3201Z" fill="#727272"/>
<path d="M50.4613 16.4105V15.1105H50.4173C49.7473 16.2105 48.5363 16.7975 46.8283 16.7975C43.1963 16.7975 40.8184 14.0085 40.8184 10.3766C40.8184 6.7866 43.2613 3.99762 46.7633 3.99762C48.1473 3.99762 49.2713 4.40862 50.2883 5.42461V0.410645H53.8773V16.4105H50.4613ZM50.4823 10.3566C50.4823 8.69159 49.2073 7.3506 47.4343 7.3506C45.7473 7.3506 44.4073 8.60559 44.4073 10.3566C44.4073 12.1726 45.6823 13.4486 47.4123 13.4486C49.1633 13.4486 50.4823 12.1296 50.4823 10.3566Z" fill="#727272"/>
<path d="M15.1055 16.4104V4.41052H18.6944V16.4104H15.1055Z" fill="#727272"/>
<path d="M16.8966 3.58998C17.8879 3.58998 18.6915 2.78633 18.6915 1.79499C18.6915 0.803644 17.8879 0 16.8966 0C15.9052 0 15.1016 0.803644 15.1016 1.79499C15.1016 2.78633 15.9052 3.58998 16.8966 3.58998Z" fill="#727272"/>
<path d="M67.6913 20.0001H55.6914V16.4111H67.6913V20.0001Z" fill="#727272"/>
</svg>
