<svg width="23" height="23" viewBox="0 0 23 23" fill="none" xmlns="http://www.w3.org/2000/svg">
<path d="M10.5619 0.698429C10.9298 -0.0407513 11.9844 -0.0407528 12.3523 0.698427L15.4619 6.94551C15.5589 7.14031 15.7167 7.29816 15.9115 7.39512L22.1586 10.5047C22.8978 10.8727 22.8978 11.9272 22.1586 12.2952L15.9115 15.4048C15.7167 15.5017 15.5589 15.6596 15.4619 15.8544L12.3523 22.1015C11.9844 22.8407 10.9298 22.8407 10.5619 22.1015L7.45225 15.8544C7.35529 15.6596 7.19744 15.5017 7.00264 15.4048L0.755558 12.2952C0.0163776 11.9272 0.0163761 10.8727 0.755556 10.5047L7.00264 7.39512C7.19744 7.29816 7.35529 7.14031 7.45225 6.94551L10.5619 0.698429Z" fill="#323232"/>
</svg>
