<svg width="337" height="29" viewBox="0 0 337 29" fill="none" xmlns="http://www.w3.org/2000/svg">
<path d="M-139.16 28.8C-132.48 28.8 -128.24 23.32 -128.24 14.52C-128.24 5.56 -132.48 0 -139.16 0C-145.76 0 -150 5.56 -150 14.52C-150 23.32 -145.76 28.8 -139.16 28.8ZM-139.16 24.96C-143.12 24.96 -145.44 21.48 -145.44 14.52C-145.44 7.4 -143.12 3.84 -139.16 3.84C-135.16 3.84 -132.84 7.4 -132.84 14.52C-132.84 21.48 -135.16 24.96 -139.16 24.96Z" fill="#323232"/>
<path d="M-107.072 0.4H-123.512V28.4H-118.912V17.64H-108.072V13.8H-118.912V4.24H-107.072V0.4Z" fill="#323232"/>
<path d="M-87.0528 0.4H-103.493V28.4H-98.8928V17.64H-88.0528V13.8H-98.8928V4.24H-87.0528V0.4Z" fill="#323232"/>
<path d="M-78.8741 16.24H-67.6341V12.44H-78.8741V4.24H-66.7941V0.4H-83.4741V28.4H-66.4741V24.56H-78.8741V16.24Z" fill="#323232"/>
<path d="M-49.3775 18.36C-44.8175 17.44 -42.2575 14.2 -42.2575 9.16C-42.2575 3.72 -45.4175 0.4 -50.9375 0.4H-61.6975V28.4H-57.0975V19H-52.6975C-49.2575 19 -48.3375 20.28 -47.2975 28.4H-42.0975C-43.4575 20.96 -44.8175 18.84 -49.3775 18.36ZM-57.0975 4.24H-51.7775C-48.4975 4.24 -46.8575 6 -46.8575 9.52C-46.8575 13.24 -48.7775 15.16 -52.0575 15.16H-57.0975V4.24Z" fill="#323232"/>
<path d="M-8.215 28.4L-15.855 0.4H-23.095L-30.695 28.4H-26.135L-24.495 22H-14.775L-13.135 28.4H-8.215ZM-19.615 3.16L-15.695 18.48H-23.575L-19.615 3.16Z" fill="#323232"/>
<path d="M6.79405 0.4L5.75406 4.72H12.1141L6.23405 28.4H12.1541L18.0341 4.72H24.4741L25.5141 0.4H6.79405Z" fill="#323232"/>
<path d="M46.3959 7.56C46.3959 3.12 43.1559 0.4 38.1959 0.4H29.0759L22.1159 28.4H27.9959L30.2759 19.16H33.0759C35.9959 19.16 36.6359 20.36 35.2359 28.4H41.6759C42.6359 21.56 41.5959 19.24 36.6359 18.68C42.8759 17.4 46.3959 12.48 46.3959 7.56ZM31.3959 14.72L33.8759 4.72H37.0359C39.3159 4.72 40.5959 6.12 40.5959 8.2C40.5959 11.48 38.1959 14.72 34.5159 14.72H31.3959Z" fill="#323232"/>
<path d="M61.2513 19.4C60.4913 22.56 58.6512 24.48 56.2912 24.48C53.7312 24.48 52.4913 22.36 53.2513 19.32L57.9312 0.4H52.0513L47.7712 17.8C46.0912 24.56 49.4913 28.8 55.9713 28.8C61.6513 28.8 65.7313 25.24 67.3313 18.88L71.9713 0.4H66.0513L61.2513 19.4Z" fill="#323232"/>
<path d="M80.2162 28.8C85.6162 28.8 89.4962 25.24 89.5762 20.04C89.6562 12.96 79.4563 11.4 79.4563 6.52C79.4563 4.76 80.6163 3.64 82.3363 3.64C84.9763 3.64 87.7762 6.24 89.0562 11.08L92.8163 5.96C91.0163 2.52 87.2962 0 82.8562 0C77.3762 0 73.8562 3.72 73.8562 9.04C73.8162 16.16 84.0163 18.12 84.0163 22.6C84.0163 24.16 82.8562 25.16 81.2162 25.16C78.0562 25.16 74.8162 21.04 73.5762 16.64L69.7762 22.52C71.3762 26.08 75.7362 28.8 80.2162 28.8Z" fill="#323232"/>
<path d="M95.6972 0.4L94.6572 4.72H101.017L95.1372 28.4H101.057L106.937 4.72H113.377L114.417 0.4H95.6972Z" fill="#323232"/>
<path d="M134.219 0.4H117.979L111.019 28.4H127.699L128.739 24.08H117.979L119.819 16.6H129.499L130.579 12.28H120.899L122.779 4.72H133.179L134.219 0.4Z" fill="#323232"/>
<path d="M138.623 0.4L131.663 28.4H139.103C149.743 28.4 155.543 19.64 155.543 10.6C155.543 4.52 151.223 0.4 144.863 0.4H138.623ZM138.623 24.08L143.423 4.72H144.783C147.863 4.72 149.863 7.04 149.863 10.52C149.863 16.28 145.983 24.08 140.343 24.08H138.623Z" fill="#323232"/>
<path d="M177.104 28.8C182.384 28.8 185.904 25.96 185.904 21.16C185.904 10.76 171.504 14.6 171.504 7.2C171.504 4.96 173.024 3.6 175.584 3.6C178.824 3.6 181.264 5.68 181.224 11.56L185.384 10.12C185.104 3.32 181.224 0 175.624 0C170.424 0 167.024 2.88 167.024 7.64C167.024 18.8 181.424 14.64 181.424 21.64C181.424 23.84 179.904 25.2 177.304 25.2C173.584 25.2 170.864 22.48 170.704 17.2L166.424 18.64C167.024 25.12 171.344 28.8 177.104 28.8Z" fill="#323232"/>
<path d="M199.713 28.8C206.393 28.8 210.633 23.32 210.633 14.52C210.633 5.56 206.393 0 199.713 0C193.113 0 188.873 5.56 188.873 14.52C188.873 23.32 193.113 28.8 199.713 28.8ZM199.713 24.96C195.753 24.96 193.433 21.48 193.433 14.52C193.433 7.4 195.753 3.84 199.713 3.84C203.713 3.84 206.033 7.4 206.033 14.52C206.033 21.48 203.713 24.96 199.713 24.96Z" fill="#323232"/>
<path d="M219.962 0.4H215.362V28.4H231.482V24.56H219.962V0.4Z" fill="#323232"/>
<path d="M243.291 28.8C249.331 28.8 253.011 25.44 253.011 19.44V0.4H248.411V19.6C248.411 23.16 246.571 24.96 243.291 24.96C240.051 24.96 238.211 23.16 238.211 19.6V0.4H233.571V19.44C233.571 25.44 237.291 28.8 243.291 28.8Z" fill="#323232"/>
<path d="M256.451 0.4V4.24H263.891V28.4H268.491V4.24H275.931V0.4H256.451Z" fill="#323232"/>
<path d="M284.51 28.4V0.4H279.91V28.4H284.51Z" fill="#323232"/>
<path d="M300.081 28.8C306.761 28.8 311.001 23.32 311.001 14.52C311.001 5.56 306.761 0 300.081 0C293.481 0 289.241 5.56 289.241 14.52C289.241 23.32 293.481 28.8 300.081 28.8ZM300.081 24.96C296.121 24.96 293.801 21.48 293.801 14.52C293.801 7.4 296.121 3.84 300.081 3.84C304.081 3.84 306.401 7.4 306.401 14.52C306.401 21.48 304.081 24.96 300.081 24.96Z" fill="#323232"/>
<path d="M332.289 23.96L322.569 0.4H315.729V28.4H320.209L320.049 4.84L329.769 28.4H336.609V0.4H332.129L332.289 23.96Z" fill="#323232"/>
</svg>
