<svg width="514" height="29" viewBox="0 0 514 29" fill="none" xmlns="http://www.w3.org/2000/svg">
<path d="M12.4411 18.36C17.0011 17.44 19.5611 14.2 19.5611 9.16C19.5611 3.72 16.4011 0.4 10.8811 0.4H0.121094V28.4H4.72109V19H9.12109C12.5611 19 13.4811 20.28 14.5211 28.4H19.7211C18.3611 20.96 17.0011 18.84 12.4411 18.36ZM4.72109 4.24H10.0411C13.3211 4.24 14.9611 6 14.9611 9.52C14.9611 13.24 13.0411 15.16 9.76109 15.16H4.72109V4.24Z" fill="#323232"/>
<path d="M28.9195 16.24H40.1595V12.44H28.9195V4.24H40.9995V0.4H24.3195V28.4H41.3195V24.56H28.9195V16.24Z" fill="#323232"/>
<path d="M55.3902 28.8C61.6302 28.8 65.6301 24.08 66.1102 16.52L61.4702 15.48C61.2702 21.96 59.1102 24.96 55.4302 24.96C51.3902 24.96 49.0302 21.72 49.0302 14.52C49.0302 7.16 51.3902 3.84 55.4302 3.84C59.1902 3.84 61.2702 6.88 61.4702 13.4L66.0702 12.28C65.5502 4.6 61.5902 0 55.4302 0C48.7102 0 44.4702 5.56 44.4702 14.52C44.4702 23.32 48.7102 28.8 55.3902 28.8Z" fill="#323232"/>
<path d="M75.4414 16.24H86.6814V12.44H75.4414V4.24H87.5214V0.4H70.8414V28.4H87.8414V24.56H75.4414V16.24Z" fill="#323232"/>
<path d="M97.218 28.4V0.4H92.618V28.4H97.218Z" fill="#323232"/>
<path d="M111.708 24.64L105.828 0.4H100.828L108.388 28.4H115.068L122.628 0.4H117.588L111.708 24.64Z" fill="#323232"/>
<path d="M130.81 16.24H142.05V12.44H130.81V4.24H142.89V0.4H126.21V28.4H143.21V24.56H130.81V16.24Z" fill="#323232"/>
<path d="M177.191 0.4H160.951L153.991 28.4H170.671L171.711 24.08H160.951L162.791 16.6H172.471L173.551 12.28H163.871L165.751 4.72H176.151L177.191 0.4Z" fill="#323232"/>
<path d="M194.355 0.4L187.115 11.8L185.515 0.4H179.595L182.395 13.96L172.475 28.4H179.155L186.595 16.64L188.235 28.4H194.035L191.315 13.96L200.835 0.4H194.355Z" fill="#323232"/>
<path d="M206.18 28.8C212.22 28.8 216.74 23.52 218.78 17.36L213.58 14.96C212.22 19.76 209.66 24.48 206.74 24.48C204.74 24.48 203.62 22.96 203.62 20.36C203.62 15.76 207.14 4.32 211.5 4.32C214.38 4.32 215.1 7.56 213.94 13.28L219.9 12.4C220.54 5.4 218.22 0 211.94 0C203.3 0 198.06 10.88 198.06 19.44C198.06 25.08 201.1 28.8 206.18 28.8Z" fill="#323232"/>
<path d="M233.02 0.4H227.14L220.18 28.4H236.3L237.38 24.08H227.14L233.02 0.4Z" fill="#323232"/>
<path d="M253.729 19.4C252.969 22.56 251.129 24.48 248.769 24.48C246.209 24.48 244.969 22.36 245.729 19.32L250.409 0.4H244.529L240.249 17.8C238.569 24.56 241.969 28.8 248.449 28.8C254.129 28.8 258.209 25.24 259.809 18.88L264.449 0.4H258.529L253.729 19.4Z" fill="#323232"/>
<path d="M272.694 28.8C278.094 28.8 281.974 25.24 282.054 20.04C282.134 12.96 271.934 11.4 271.934 6.52C271.934 4.76 273.094 3.64 274.814 3.64C277.454 3.64 280.254 6.24 281.534 11.08L285.294 5.96C283.494 2.52 279.774 0 275.334 0C269.854 0 266.334 3.72 266.334 9.04C266.294 16.16 276.494 18.12 276.494 22.6C276.494 24.16 275.334 25.16 273.694 25.16C270.534 25.16 267.294 21.04 266.054 16.64L262.254 22.52C263.854 26.08 268.214 28.8 272.694 28.8Z" fill="#323232"/>
<path d="M289.905 28.4L296.865 0.4H290.985L284.025 28.4H289.905Z" fill="#323232"/>
<path d="M304.22 25.6L305.94 0.4H300.02L299.3 28.4H308.22L321.42 0.4H314.9L304.22 25.6Z" fill="#323232"/>
<path d="M340.739 0.4H324.499L317.539 28.4H334.219L335.259 24.08H324.499L326.339 16.6H336.019L337.099 12.28H327.419L329.299 4.72H339.699L340.739 0.4Z" fill="#323232"/>
<path d="M362.747 15.16C366.547 14.24 368.627 11.6 368.627 7.8C368.627 3.12 365.667 0.4 360.187 0.4H350.107V28.4H360.667C366.147 28.4 369.267 26 369.267 21.52C369.267 18.16 367.107 15.92 362.747 15.16ZM364.147 8.24C364.147 10.92 362.387 12.52 359.267 12.52H354.707V4.12H359.947C362.627 4.12 364.147 5.6 364.147 8.24ZM354.707 24.76V15.92H359.587C362.907 15.92 364.787 17.44 364.787 20.24C364.787 23.04 363.187 24.76 360.187 24.76H354.707Z" fill="#323232"/>
<path d="M378.124 16.24H389.364V12.44H378.124V4.24H390.204V0.4H373.524V28.4H390.524V24.56H378.124V16.24Z" fill="#323232"/>
<path d="M411.861 23.96L402.141 0.4H395.301V28.4H399.781L399.621 4.84L409.341 28.4H416.181V0.4H411.701L411.861 23.96Z" fill="#323232"/>
<path d="M426.56 16.24H437.8V12.44H426.56V4.24H438.64V0.4H421.96V28.4H438.96V24.56H426.56V16.24Z" fill="#323232"/>
<path d="M460.177 0.4H443.737V28.4H448.337V17.64H459.177V13.8H448.337V4.24H460.177V0.4Z" fill="#323232"/>
<path d="M468.355 28.4V0.4H463.755V28.4H468.355Z" fill="#323232"/>
<path d="M472.326 0.4V4.24H479.766V28.4H484.366V4.24H491.806V0.4H472.326Z" fill="#323232"/>
<path d="M504.401 28.8C509.681 28.8 513.201 25.96 513.201 21.16C513.201 10.76 498.801 14.6 498.801 7.2C498.801 4.96 500.321 3.6 502.881 3.6C506.121 3.6 508.561 5.68 508.521 11.56L512.681 10.12C512.401 3.32 508.521 0 502.921 0C497.721 0 494.321 2.88 494.321 7.64C494.321 18.8 508.721 14.64 508.721 21.64C508.721 23.84 507.201 25.2 504.601 25.2C500.881 25.2 498.161 22.48 498.001 17.2L493.721 18.64C494.321 25.12 498.641 28.8 504.401 28.8Z" fill="#323232"/>
</svg>
