<svg width="95" height="97" viewBox="0 0 95 97" fill="none" xmlns="http://www.w3.org/2000/svg">
<path d="M59.5088 13.0091L64.1487 21.4374L73.7587 21.9062L74.284 31.5151L82.7419 36.1071L79.0433 44.9899L84.6685 52.7984L77.4845 59.1983L79.166 68.6715L69.9147 71.3229L67.3218 80.589L57.8365 78.9608L51.4764 86.1828L43.6383 80.603L34.7773 84.3511L30.1343 75.9217L20.5243 75.4529L19.9989 65.844L11.5442 61.2531L15.2397 52.3692L9.6144 44.5607L16.7984 38.1608L15.117 28.6876L24.3683 26.0362L26.9644 16.7712L36.4465 18.3983L42.8065 11.1763L50.6447 16.7561L59.5088 13.0091Z" fill="#F87F5B"/>
<path d="M42.4587 24.906L45.2085 32.0924L43.8577 32.6066L42.4269 28.8635L41.689 26.7362L41.6667 26.7446L41.9102 33.3553L40.6783 33.8237L36.4607 28.7345L36.4435 28.7285L37.334 30.8057L38.7677 34.5498L37.4053 35.0696L34.6556 27.8832L36.834 27.0536L39.6288 30.477L40.7059 31.9231L40.7281 31.9147L40.5791 30.1236L40.3625 25.703L42.4587 24.906Z" fill="white"/>
<path d="M52.4096 25.3294C53.0836 25.465 53.709 25.7786 54.2209 26.2375C54.6876 26.6699 55.0144 27.2319 55.1593 27.8514C55.3192 28.5668 55.3067 29.3099 55.1228 30.0195C54.9776 30.7381 54.6645 31.4122 54.209 31.9866C53.8071 32.4796 53.2677 32.8421 52.6594 33.0278C51.9975 33.2165 51.2973 33.2251 50.631 33.0527C49.9565 32.9127 49.3301 32.5989 48.814 32.1426C48.3454 31.71 48.0166 31.1474 47.8699 30.5267C47.7119 29.8104 47.7257 29.0667 47.9102 28.3567C48.0554 27.6381 48.3686 26.9641 48.8241 26.3896C49.2264 25.8949 49.7684 25.5327 50.3794 25.3504C51.0424 25.1638 51.743 25.1565 52.4096 25.3294ZM52.1133 26.6118C51.7365 26.5143 51.3392 26.5313 50.9721 26.6607C50.6076 26.8006 50.2958 27.0505 50.0799 27.3758C49.8099 27.7885 49.6208 28.2488 49.5228 28.7321C49.3998 29.2086 49.369 29.7042 49.4322 30.1922C49.4811 30.5778 49.6487 30.9387 49.9117 31.2249C50.1863 31.5014 50.5368 31.6901 50.9188 31.7673C51.2933 31.8643 51.6882 31.8476 52.0532 31.7192C52.4173 31.5787 52.7289 31.3289 52.9454 31.0042C53.215 30.5924 53.4037 30.1331 53.5015 29.6507C53.627 29.1722 53.6597 28.674 53.598 28.1831C53.5499 27.7989 53.3844 27.439 53.1242 27.1523C52.8493 26.8745 52.497 26.6861 52.1133 26.6118Z" fill="white"/>
<path d="M63.2651 31.0497C63.7408 31.4687 64.1209 31.985 64.3799 32.5636C64.6079 33.1009 64.7004 33.6861 64.6493 34.2676L63.2873 34.4236C63.3274 33.9662 63.2672 33.5056 63.111 33.0739C62.9426 32.6531 62.6777 32.2777 62.3377 31.978C62.1408 31.7847 61.9087 31.6309 61.6539 31.5252C61.4734 31.4481 61.2744 31.425 61.081 31.4586C60.9222 31.4987 60.7795 31.5863 60.6719 31.7098C60.6008 31.7817 60.5468 31.8687 60.5137 31.9642C60.4806 32.0597 60.4692 32.1614 60.4805 32.2619C60.5433 32.5628 60.6732 32.8456 60.8604 33.0894L61.6968 34.3006C62.0784 34.7818 62.3175 35.3601 62.3872 35.9702C62.3915 36.2109 62.3476 36.45 62.258 36.6735C62.1683 36.8969 62.0348 37.1001 61.8654 37.2711C61.5602 37.6214 61.1497 37.8634 60.6954 37.9607C60.2329 38.0448 59.756 37.9968 59.3196 37.8221C58.8016 37.6171 58.328 37.314 57.925 36.9295C57.5538 36.597 57.2311 36.2141 56.9664 35.7919C56.7342 35.4202 56.5584 35.0163 56.4446 34.5931C56.3416 34.2128 56.3021 33.8182 56.3277 33.4251L57.7313 33.2416C57.6942 33.5548 57.7083 33.872 57.773 34.1806C57.8402 34.514 57.9594 34.8347 58.1265 35.131C58.3036 35.4474 58.531 35.733 58.7998 35.9764C58.9961 36.1671 59.2225 36.3239 59.4699 36.4407C59.6505 36.531 59.8528 36.5688 60.0538 36.5497C60.2312 36.5231 60.3933 36.4343 60.5112 36.2991C60.5781 36.2299 60.6304 36.1479 60.6648 36.058C60.6993 35.9681 60.7153 35.8722 60.7118 35.776C60.6786 35.4971 60.565 35.2339 60.385 35.0184L59.4708 33.7062C59.2297 33.3646 59.0336 32.9935 58.8873 32.6019C58.7701 32.2837 58.7413 31.9398 58.8038 31.6066C58.8785 31.2692 59.0451 30.959 59.2852 30.7105C59.5794 30.3824 59.9672 30.1525 60.3962 30.0519C60.8555 29.9518 61.3336 29.9826 61.7763 30.1406C62.3323 30.3327 62.8402 30.6428 63.2651 31.0497Z" fill="white"/>
<path d="M70.57 43.6051L69.3576 44.0545L68.4625 41.6375L62.4596 43.8537L61.8984 42.332L67.9012 40.1158L67.0062 37.6891L68.2186 37.2397L70.57 43.6051Z" fill="white"/>
<path d="M31.6025 43.9705C31.4504 44.4703 31.1887 44.9298 30.8367 45.3157C30.5361 45.6362 30.1488 45.8623 29.722 45.9665C29.2631 46.0651 28.7856 46.0304 28.3458 45.8663C27.8978 45.7314 27.4973 45.4719 27.191 45.1181C26.9121 44.7774 26.7391 44.3624 26.6932 43.9244C26.6492 43.4026 26.7212 42.8776 26.9041 42.3869L27.4345 40.857L24.8374 39.9857L25.3647 38.4645L32.6565 40.9117L31.6025 43.9705ZM28.1774 42.5609C28.0245 42.916 28.0006 43.3135 28.1101 43.6843C28.1788 43.8392 28.2819 43.9763 28.4115 44.0854C28.5411 44.1945 28.6938 44.2727 28.8581 44.3141C29.015 44.381 29.1851 44.4113 29.3554 44.4028C29.5258 44.3943 29.692 44.3473 29.8415 44.2652C30.1573 44.0391 30.385 43.7105 30.4859 43.3354L30.9365 42.0356L28.628 41.2611L28.1774 42.5609Z" fill="white"/>
<path d="M31.3323 51.7629C31.4833 52.4337 31.4534 53.1326 31.2456 53.788C31.0418 54.3908 30.6624 54.9189 30.1562 55.3044C29.5695 55.7437 28.8861 56.0359 28.1632 56.1565C27.4485 56.3196 26.7053 56.3104 25.9949 56.1297C25.3787 55.9655 24.8251 55.6222 24.4041 55.1433C23.9624 54.6153 23.6681 53.9799 23.5512 53.3014C23.4006 52.6294 23.4299 51.9296 23.636 51.2725C23.8384 50.6673 24.2175 50.1367 24.7246 49.7493C25.3125 49.311 25.9957 49.018 26.7185 48.8943C27.4333 48.734 28.1757 48.7442 28.8858 48.9241C29.503 49.0878 30.0566 49.4335 30.4746 49.9162C30.9185 50.4453 31.2144 51.0824 31.3323 51.7629ZM30.0395 52.017C29.975 51.6337 29.7976 51.2783 29.53 50.9964C29.2516 50.725 28.896 50.5466 28.512 50.4856C28.0259 50.4084 27.5295 50.4244 27.0493 50.5326C26.5627 50.6157 26.0964 50.7908 25.6754 51.0485C25.3439 51.2504 25.084 51.5513 24.9327 51.9088C24.7952 52.2742 24.7694 52.6722 24.8584 53.0524C24.9224 53.4346 25.1007 53.7884 25.3698 54.0672C25.6483 54.335 26.0018 54.5114 26.3831 54.5731C26.8702 54.6501 27.3674 54.6345 27.8486 54.5271C28.3344 54.4438 28.7998 54.2683 29.2197 54.0102C29.5502 53.8082 29.8102 53.5091 29.9643 53.1538C30.1029 52.791 30.1291 52.3949 30.0395 52.017Z" fill="white"/>
<path d="M35.1652 59.5781C35.5162 59.9623 35.7779 60.4194 35.9318 60.9165C36.057 61.3366 36.0553 61.7842 35.927 62.2033C35.7779 62.6482 35.5063 63.042 35.1434 63.3394C34.7977 63.6552 34.3703 63.8675 33.9098 63.9522C33.4744 64.0195 33.0289 63.9569 32.6289 63.7723C32.1576 63.5502 31.7418 63.2256 31.412 62.8222L30.3515 61.5977L28.2897 63.3826L27.2358 62.1669L33.0538 57.1292L35.1652 59.5781ZM32.2105 61.8105C32.4417 62.1213 32.7758 62.3398 33.1532 62.4272C33.3213 62.4464 33.4916 62.4271 33.6512 62.3708C33.8107 62.3145 33.9555 62.2227 34.0744 62.1023C34.2106 62.0015 34.3221 61.8709 34.4005 61.7206C34.4788 61.5703 34.5219 61.4041 34.5265 61.2347C34.49 60.8496 34.3195 60.4896 34.0449 60.2173L33.1458 59.1776L31.3077 60.7631L32.2105 61.8105Z" fill="white"/>
<path d="M44.6596 64.9414L43.0777 69.328C42.7226 70.3152 42.1929 70.9605 41.4885 71.2639C40.7842 71.5674 39.9269 71.5376 38.9168 71.1745C37.9045 70.8236 37.2304 70.2871 36.8834 69.6063C36.5363 68.9255 36.5406 68.0862 36.895 67.101L38.4769 62.7144L39.9921 63.259L38.4332 67.5795C38.2204 68.0476 38.1856 68.5773 38.3355 69.0692C38.4343 69.2802 38.5778 69.4671 38.7563 69.6169C38.9347 69.7666 39.1436 69.8756 39.3685 69.9363C39.5791 70.0332 39.8085 70.0824 40.0403 70.0804C40.2722 70.0783 40.5006 70.0251 40.7095 69.9244C41.1356 69.6392 41.4445 69.2099 41.5796 68.7153L43.1386 64.3948L44.6596 64.9414Z" fill="white"/>
<path d="M49.5355 71.0647L53.5469 70.4581L53.7472 71.7387L48.1467 72.59L46.9891 64.9828L48.5802 64.7419L49.5355 71.0647Z" fill="white"/>
<path d="M64.2277 65.5798L62.8866 66.5677L61.2552 65.4384L58.8789 67.1916L59.4762 69.0834L58.1526 70.058L55.8517 62.1994L57.4006 61.0581L64.2277 65.5798ZM58.4685 66.0153L60.2571 64.7026L57.3621 62.665L58.4685 66.0153Z" fill="white"/>
<path d="M61.9021 54.9305C62.1684 54.2411 62.6727 53.6698 63.3237 53.3198C63.6124 53.1821 63.9288 53.1121 64.2488 53.1152C64.5687 53.1184 64.8836 53.1946 65.1696 53.338C65.4757 53.457 65.7496 53.6461 65.9693 53.8901C66.1891 54.1341 66.3485 54.4262 66.4349 54.743C66.582 55.4586 66.4776 56.2029 66.1393 56.8503L66.1582 57.0373L65.4741 58.5461L68.1614 59.7611L67.506 61.2057L60.4992 58.0294L61.9021 54.9305ZM65.0311 56.5531C65.2043 56.2382 65.2637 55.8731 65.1994 55.5195C65.1498 55.3706 65.0673 55.2347 64.958 55.1221C64.8487 55.0095 64.7154 54.923 64.568 54.869C64.4298 54.7932 64.2761 54.7498 64.1186 54.7421C63.9612 54.7343 63.804 54.7625 63.659 54.8244C63.3524 55.0088 63.1178 55.2922 62.9939 55.6279L62.3246 57.1031L64.3647 58.0294L65.0311 56.5531ZM65.7299 55.829L70.2524 55.1419L69.5079 56.7876L65.5884 57.2778L65.7299 55.829Z" fill="white"/>
</svg>
