<svg width="514" height="29" viewBox="0 0 514 29" fill="none" xmlns="http://www.w3.org/2000/svg">
<path d="M23.1909 28.4L15.5509 0.4H8.31094L0.710938 28.4H5.27094L6.91094 22H16.6309L18.2709 28.4H23.1909ZM11.7909 3.16L15.7109 18.48H7.83094L11.7909 3.16Z" fill="#323232"/>
<path d="M35.6603 28.8C41.9003 28.8 45.9003 24.08 46.3803 16.52L41.7403 15.48C41.5403 21.96 39.3803 24.96 35.7003 24.96C31.6603 24.96 29.3003 21.72 29.3003 14.52C29.3003 7.16 31.6603 3.84 35.7003 3.84C39.4603 3.84 41.5403 6.88 41.7403 13.4L46.3403 12.28C45.8203 4.6 41.8603 0 35.7003 0C28.9803 0 24.7403 5.56 24.7403 14.52C24.7403 23.32 28.9803 28.8 35.6603 28.8Z" fill="#323232"/>
<path d="M61.0697 28.8C67.3097 28.8 71.3097 24.08 71.7897 16.52L67.1497 15.48C66.9497 21.96 64.7897 24.96 61.1097 24.96C57.0697 24.96 54.7097 21.72 54.7097 14.52C54.7097 7.16 57.0697 3.84 61.1097 3.84C64.8697 3.84 66.9497 6.88 67.1497 13.4L71.7497 12.28C71.2297 4.6 67.2697 0 61.1097 0C54.3897 0 50.1497 5.56 50.1497 14.52C50.1497 23.32 54.3897 28.8 61.0697 28.8Z" fill="#323232"/>
<path d="M81.1209 16.24H92.3609V12.44H81.1209V4.24H93.2009V0.4H76.5209V28.4H93.5209V24.56H81.1209V16.24Z" fill="#323232"/>
<path d="M107.343 28.8C112.623 28.8 116.143 25.96 116.143 21.16C116.143 10.76 101.743 14.6 101.743 7.2C101.743 4.96 103.263 3.6 105.823 3.6C109.063 3.6 111.503 5.68 111.463 11.56L115.623 10.12C115.343 3.32 111.463 0 105.863 0C100.663 0 97.2631 2.88 97.2631 7.64C97.2631 18.8 111.663 14.64 111.663 21.64C111.663 23.84 110.143 25.2 107.543 25.2C103.823 25.2 101.103 22.48 100.943 17.2L96.6631 18.64C97.2631 25.12 101.583 28.8 107.343 28.8Z" fill="#323232"/>
<path d="M129.667 28.8C134.947 28.8 138.467 25.96 138.467 21.16C138.467 10.76 124.067 14.6 124.067 7.2C124.067 4.96 125.587 3.6 128.147 3.6C131.387 3.6 133.827 5.68 133.787 11.56L137.947 10.12C137.667 3.32 133.787 0 128.187 0C122.987 0 119.587 2.88 119.587 7.64C119.587 18.8 133.987 14.64 133.987 21.64C133.987 23.84 132.467 25.2 129.867 25.2C126.147 25.2 123.427 22.48 123.267 17.2L118.987 18.64C119.587 25.12 123.907 28.8 129.667 28.8Z" fill="#323232"/>
<path d="M171.911 0.4H155.791L148.831 28.4H154.711L157.351 17.84H166.231L167.311 13.52H158.391L160.591 4.72H170.831L171.911 0.4Z" fill="#323232"/>
<path d="M180.987 0.4H175.107L168.147 28.4H184.267L185.347 24.08H175.107L180.987 0.4Z" fill="#323232"/>
<path d="M210.78 0.4H194.54L187.58 28.4H204.26L205.3 24.08H194.54L196.38 16.6H206.06L207.14 12.28H197.46L199.34 4.72H209.74L210.78 0.4Z" fill="#323232"/>
<path d="M227.943 0.4L220.703 11.8L219.103 0.4H213.183L215.983 13.96L206.063 28.4H212.743L220.183 16.64L221.823 28.4H227.623L224.903 13.96L234.423 0.4H227.943Z" fill="#323232"/>
<path d="M236.505 28.4L243.465 0.4H237.585L230.625 28.4H236.505Z" fill="#323232"/>
<path d="M265.02 6.92C265.02 2.88 261.78 0.4 257.3 0.4H248.58L241.62 28.4H252.06C258.46 28.4 262.26 25.2 262.26 21C262.26 18.36 260.22 16.56 256.82 15.96C261.82 15 265.02 11.52 265.02 6.92ZM251.5 12.32L253.38 4.72H256.18C258.18 4.72 259.34 5.88 259.34 7.64C259.34 10.28 257.34 12.32 254.22 12.32H251.5ZM248.58 24.08L250.5 16.32H253.1C255.5 16.32 256.9 17.56 256.9 19.24C256.9 21.92 254.94 24.08 251.94 24.08H248.58Z" fill="#323232"/>
<path d="M277.213 0.4H271.333L264.373 28.4H280.493L281.573 24.08H271.333L277.213 0.4Z" fill="#323232"/>
<path d="M307.006 0.4H290.766L283.806 28.4H300.486L301.526 24.08H290.766L292.606 16.6H302.286L303.366 12.28H293.686L295.566 4.72H305.966L307.006 0.4Z" fill="#323232"/>
<path d="M316.374 0.4V28.4H320.974V19.52H325.934C331.494 19.52 335.094 15.76 335.094 10C335.094 4.16 331.574 0.4 326.134 0.4H316.374ZM320.974 15.64V4.24H325.814C328.814 4.24 330.494 6.2 330.494 10C330.494 13.72 328.814 15.64 325.814 15.64H320.974Z" fill="#323232"/>
<path d="M351.252 18.36C355.812 17.44 358.372 14.2 358.372 9.16C358.372 3.72 355.212 0.4 349.692 0.4H338.932V28.4H343.532V19H347.932C351.372 19 352.292 20.28 353.332 28.4H358.532C357.172 20.96 355.812 18.84 351.252 18.36ZM343.532 4.24H348.852C352.132 4.24 353.772 6 353.772 9.52C353.772 13.24 351.852 15.16 348.572 15.16H343.532V4.24Z" fill="#323232"/>
<path d="M372.501 28.8C379.181 28.8 383.421 23.32 383.421 14.52C383.421 5.56 379.181 0 372.501 0C365.901 0 361.661 5.56 361.661 14.52C361.661 23.32 365.901 28.8 372.501 28.8ZM372.501 24.96C368.541 24.96 366.221 21.48 366.221 14.52C366.221 7.4 368.541 3.84 372.501 3.84C376.501 3.84 378.821 7.4 378.821 14.52C378.821 21.48 376.501 24.96 372.501 24.96Z" fill="#323232"/>
<path d="M404.347 18.12C403.867 22.32 401.627 24.96 398.267 24.96C394.147 24.96 391.707 21.24 391.707 14.44C391.707 7.72 394.107 3.84 398.187 3.84C401.427 3.84 403.667 6.68 404.107 12.36L408.667 10.56C407.867 3.8 403.907 0 398.307 0C391.427 0 387.187 5.56 387.187 14.56C387.187 23.64 391.107 28.8 396.827 28.8C401.067 28.8 404.187 25.68 404.947 20.56L405.667 28.4H408.627V14.4H395.267V18.12H404.347Z" fill="#323232"/>
<path d="M426.386 18.36C430.946 17.44 433.506 14.2 433.506 9.16C433.506 3.72 430.346 0.4 424.826 0.4H414.066V28.4H418.666V19H423.066C426.506 19 427.426 20.28 428.466 28.4H433.666C432.306 20.96 430.946 18.84 426.386 18.36ZM418.666 4.24H423.986C427.266 4.24 428.906 6 428.906 9.52C428.906 13.24 426.986 15.16 423.706 15.16H418.666V4.24Z" fill="#323232"/>
<path d="M458.585 28.4L450.945 0.4H443.705L436.105 28.4H440.665L442.305 22H452.025L453.665 28.4H458.585ZM447.185 3.16L451.105 18.48H443.225L447.185 3.16Z" fill="#323232"/>
<path d="M476.15 24.28L469.79 0.4H462.19V28.4H466.63V4.24L473.07 28.4H479.27L485.75 4.04V28.4H490.15V0.4H482.51L476.15 24.28Z" fill="#323232"/>
<path d="M505.199 28.8C510.479 28.8 513.999 25.96 513.999 21.16C513.999 10.76 499.599 14.6 499.599 7.2C499.599 4.96 501.119 3.6 503.679 3.6C506.919 3.6 509.359 5.68 509.319 11.56L513.479 10.12C513.199 3.32 509.319 0 503.719 0C498.519 0 495.119 2.88 495.119 7.64C495.119 18.8 509.519 14.64 509.519 21.64C509.519 23.84 507.999 25.2 505.399 25.2C501.679 25.2 498.959 22.48 498.799 17.2L494.519 18.64C495.119 25.12 499.439 28.8 505.199 28.8Z" fill="#323232"/>
</svg>
