<svg width="16" height="11" viewBox="0 0 16 11" fill="none" xmlns="http://www.w3.org/2000/svg">
<path d="M15.92 5.15314C15.8724 5.03039 15.801 4.91825 15.71 4.82314L11.71 0.823144C11.6168 0.729906 11.5061 0.655945 11.3842 0.605485C11.2624 0.555025 11.1319 0.529053 11 0.529053C10.7337 0.529053 10.4783 0.634841 10.29 0.823144C10.1017 1.01145 9.99591 1.26684 9.99591 1.53314C9.99591 1.79945 10.1017 2.05484 10.29 2.24314L12.59 4.53314H1C0.734784 4.53314 0.48043 4.6385 0.292893 4.82604C0.105357 5.01357 0 5.26793 0 5.53314C0 5.79836 0.105357 6.05271 0.292893 6.24025C0.48043 6.42779 0.734784 6.53314 1 6.53314H12.59L10.29 8.82314C10.1963 8.91611 10.1219 9.02671 10.0711 9.14857C10.0203 9.27043 9.9942 9.40113 9.9942 9.53314C9.9942 9.66516 10.0203 9.79586 10.0711 9.91772C10.1219 10.0396 10.1963 10.1502 10.29 10.2431C10.383 10.3369 10.4936 10.4113 10.6154 10.462C10.7373 10.5128 10.868 10.5389 11 10.5389C11.132 10.5389 11.2627 10.5128 11.3846 10.462C11.5064 10.4113 11.617 10.3369 11.71 10.2431L15.71 6.24314C15.801 6.14804 15.8724 6.0359 15.92 5.91314C16.02 5.66968 16.02 5.39661 15.92 5.15314Z" fill="#323232"/>
</svg>
