<svg width="234" height="143" viewBox="0 0 234 143" fill="none" xmlns="http://www.w3.org/2000/svg">
<path d="M-76 103.647C-68 111.817 -53.92 109.847 -44.55 103.337C-35.18 96.8273 -28.82 86.9173 -20.81 78.7873C-10.35 68.1873 4.26995 60.3473 19.0099 62.4373C55.1999 67.5673 74.06 115.867 102.87 134.307C123.63 147.587 148.52 139.557 148.73 113.067C148.94 87.0673 137.56 62.3073 136.93 36.0673C136.77 29.6573 137.09 23.0673 139.42 17.1273C141.75 11.1873 146.42 5.80728 152.55 3.99728C173.32 -2.08272 190.66 20.9973 200 36.4073C208.15 49.8973 213.79 64.7173 219.37 79.4573" stroke="black" stroke-width="4.13" stroke-linecap="round" stroke-linejoin="round"/>
<path d="M219.37 79.4473C217.059 73.093 217.006 66.1365 219.22 59.7478C221.435 53.3591 225.782 47.9278 231.53 44.3673" stroke="black" stroke-width="4.13" stroke-linecap="round" stroke-linejoin="round"/>
<path d="M219.1 78.7673C217.661 75.9735 215.746 73.4523 213.44 71.3173C202.44 61.1973 186.44 64.2073 183.89 64.7273" stroke="black" stroke-width="4.13" stroke-linecap="round" stroke-linejoin="round"/>
</svg>
