<svg width="15" height="11" viewBox="0 0 15 11" fill="none" xmlns="http://www.w3.org/2000/svg">
<path d="M13.7319 0.480247C13.639 0.386518 13.5284 0.312124 13.4065 0.261355C13.2846 0.210586 13.1539 0.184448 13.0219 0.184448C12.8899 0.184448 12.7592 0.210586 12.6373 0.261355C12.5155 0.312124 12.4049 0.386518 12.3119 0.480247L4.86192 7.94025L1.73192 4.80025C1.6354 4.70701 1.52146 4.63369 1.3966 4.58449C1.27175 4.53529 1.13843 4.51116 1.00424 4.51348C0.870064 4.5158 0.737655 4.54453 0.614576 4.59802C0.491498 4.65151 0.380161 4.72873 0.286922 4.82525C0.193684 4.92177 0.12037 5.03571 0.0711659 5.16056C0.0219619 5.28542 -0.00216855 5.41874 0.000152918 5.55292C0.00247438 5.6871 0.0312022 5.81951 0.0846957 5.94259C0.138189 6.06567 0.215401 6.17701 0.311922 6.27025L4.15192 10.1102C4.24489 10.204 4.35549 10.2784 4.47735 10.3291C4.59921 10.3799 4.72991 10.406 4.86192 10.406C4.99393 10.406 5.12464 10.3799 5.2465 10.3291C5.36836 10.2784 5.47896 10.204 5.57192 10.1102L13.7319 1.95025C13.8334 1.8566 13.9144 1.74295 13.9698 1.61645C14.0252 1.48995 14.0539 1.35335 14.0539 1.21525C14.0539 1.07714 14.0252 0.94054 13.9698 0.81404C13.9144 0.687541 13.8334 0.573889 13.7319 0.480247Z" fill="#327B50"/>
</svg>
