<svg width="122" height="33" viewBox="0 0 122 33" fill="none" xmlns="http://www.w3.org/2000/svg">
<g clip-path="url(#clip0_2692_112861)">
<path d="M13.6804 0.5C22.2388 0.5 27.1248 6.3241 27.1248 13.7972C27.1248 21.2702 22.7237 27.1439 13.6804 27.1439C4.63714 27.1439 0.235962 21.1246 0.235962 13.7972C0.235962 6.46978 5.45869 0.5 13.6804 0.5ZM13.6804 23.0184C18.4676 23.0184 21.4172 19.0386 21.4172 13.7972C21.4172 8.55579 18.4646 4.52945 13.6804 4.52945C8.89624 4.52945 5.94359 8.55579 5.94359 13.7972C5.94359 19.0386 8.89315 23.0184 13.6804 23.0184ZM36.2638 26.3659C36.3596 26.5581 36.3133 26.6077 36.2175 26.7534C35.8284 27.3361 35.0562 27.9188 33.8949 27.9188C32.3939 27.9188 31.4766 27.1408 30.8465 26.803C30.5562 26.6573 30.1701 26.6108 29.9292 26.8991L27.8012 29.23C27.4121 29.5709 27.4121 30.104 27.8012 30.4419C29.1571 31.753 32.0572 32.624 34.1358 32.4814C38.6328 32.0909 39.9886 29.6174 42.4533 24.0847L50.0943 7.00291C50.3353 6.46978 49.9029 5.88706 49.3685 5.88706H44.9674C44.6276 5.88706 44.3373 6.12883 44.1921 6.46978L39.0652 20.3497C38.9694 20.5914 38.6297 20.5914 38.5339 20.3497L33.1166 6.46978C32.9715 6.12883 32.7275 5.88706 32.3908 5.88706H27.9433C27.3627 5.88706 26.9735 6.46978 27.1681 7.00291C27.2638 7.00291 36.1156 26.0746 36.2577 26.369L36.2638 26.3659ZM60.5892 27.1439C66.056 27.1439 69.4379 24.4752 69.4379 20.7371C69.4379 12.9727 55.2213 15.2509 55.2213 10.9332C55.2213 9.67164 56.3795 8.89365 58.3624 8.89365C61.0216 8.89365 63.5851 10.0095 65.1325 12.1451C65.3734 12.4861 65.8089 12.5821 66.1486 12.3869L68.8079 10.9301C69.2433 10.6883 69.3885 10.2017 69.0982 9.81422C66.7756 6.41709 62.569 5.15556 58.6033 5.15556C53.4794 5.15556 49.9955 7.67861 49.9955 11.5128C49.9955 19.4725 63.7766 16.8007 63.7766 20.8301C63.7766 22.0916 63.0014 22.9161 60.827 22.9161C58.2172 22.9161 55.8452 21.9924 54.2021 20.1513C53.9612 19.8599 53.6709 19.4229 53.1397 19.6647L49.3685 21.3632C48.9331 21.5554 48.8373 22.042 49.1771 22.4295C52.8493 26.7968 57.2042 27.1377 60.5892 27.1377V27.1439ZM69.0518 6.27451L75.0961 1.08272C75.6274 0.64568 76.3037 1.08272 76.3037 1.51976V5.79097C76.3037 5.84057 76.3532 5.88706 76.3995 5.88706H81.8662C82.3017 5.88706 82.6878 6.27761 82.6878 6.71155V9.08892C82.6878 9.52906 82.3017 9.91341 81.8662 9.91341H76.3995C76.3532 9.91341 76.3037 9.963 76.3037 10.0095V17.87C76.3037 19.1811 76.3995 22.6744 79.2533 22.5783C80.1243 22.5783 80.9953 22.3365 81.6716 21.9955C81.8631 21.8995 82.1535 21.9491 82.2986 22.1877L84.2815 25.1509C84.4266 25.3927 84.3772 25.684 84.1363 25.8297C82.1071 27.1408 78.8178 27.333 76.9801 26.9921C73.3048 26.2637 70.7413 24.2737 70.7413 18.6945V10.2544C70.7413 9.72123 70.5961 9.38028 70.2595 8.99283L68.8542 7.34386C68.5639 7.00291 68.709 6.56587 69.0488 6.27761L69.0518 6.27451ZM93.3278 5.15866C100.342 5.10907 103.968 9.86691 104.113 16.8069C104.159 17.2439 103.773 17.6313 103.338 17.6313H88.4417C88.2966 17.6313 88.2502 17.7274 88.2502 17.8235C88.7815 21.4128 90.8137 23.1114 93.717 23.1114C96.3268 23.1114 97.8742 21.6081 98.7451 20.1513C98.8903 19.8599 99.23 19.7143 99.5667 19.8103L103.387 20.9262C103.776 21.0223 103.968 21.4593 103.823 21.8468C102.371 25.0517 98.5536 27.1377 93.717 27.1377C86.5577 27.1377 82.592 22.7208 82.592 15.9266C82.592 9.13231 87.3793 5.15246 93.3278 5.15246V5.15866ZM88.3954 14.0885L98.4054 14.042C98.4548 14.042 98.5505 14.042 98.5011 13.8499C97.9699 10.8402 96.228 8.99593 93.3278 8.99593C90.4277 8.99593 88.6857 11.2276 88.2502 13.8995C88.2039 14.0916 88.346 14.0916 88.3954 14.0916V14.0885ZM121.569 8.70147C121.81 8.99283 121.86 9.42987 121.52 9.72123L118.617 12.1482C118.277 12.4396 117.842 12.39 117.554 12.0521C117.119 11.4694 116.297 10.3535 114.846 10.3535C113.734 10.4031 112.671 10.7441 111.8 12.1482C111.173 13.0719 110.979 14.1381 110.979 15.254V25.7367C110.979 26.1738 110.639 26.5147 110.204 26.5147H106.142C105.707 26.5147 105.367 26.1738 105.367 25.7367V6.71155C105.367 6.27451 105.707 5.88706 106.142 5.88706H108.656C108.996 5.88706 109.286 5.98315 109.431 6.51937L109.966 8.55579C110.012 8.65188 110.157 8.70147 110.256 8.60539C110.982 7.43995 112.48 5.79097 115.334 5.54611C118.042 5.35393 119.88 6.56587 121.573 8.70147H121.569Z" fill="#323232"/>
</g>
<defs>
<clipPath id="clip0_2692_112861">
<rect width="121.528" height="32" fill="white" transform="translate(0.235962 0.5)"/>
</clipPath>
</defs>
</svg>
