<svg width="201" height="184" viewBox="0 0 201 184" fill="none" xmlns="http://www.w3.org/2000/svg">
<path d="M188.33 106.508C186.958 106.13 185.376 106.056 184.268 105.29C183.089 104.482 181.354 105.041 180.839 104.337C179.514 102.517 177.412 103.853 175.953 102.621C175.122 101.917 173.576 102.091 172.378 101.778C170.456 101.274 168.557 100.689 166.652 100.135C166.486 100.086 166.315 99.9707 166.167 99.9973C163.997 100.351 162.09 99.6008 160.08 98.8687C158.74 98.376 157.044 98.9427 155.529 98.8065C152.976 98.5769 150.438 98.1573 147.887 97.8494C147.431 97.7952 146.945 97.8194 146.497 97.916C144.35 98.3837 141.901 98.2481 140.523 100.393C140.077 101.084 140.134 102.115 140.003 102.996C139.921 103.522 139.729 104.133 139.904 104.57C140.33 105.622 140.871 106.65 141.514 107.591C141.894 108.14 142.313 108.508 141.502 108.965C141.959 109.763 142.453 110.535 142.855 111.361C143.254 112.181 142.266 113.445 143.665 113.97C143.917 114.066 144.162 114.172 144.526 114.322C144.165 114.795 143.881 115.158 143.574 115.561C146.153 115.553 144.248 118.479 145.987 118.901C145.711 119.527 144.667 120.271 146.353 120.356C146.526 120.365 146.973 121.842 146.71 122.313C146.18 123.28 146.4 123.504 147.224 124.113C147.992 124.681 148.328 125.829 148.864 126.74C148.06 127.348 147.076 127.88 148.31 128.905C148.344 128.93 148.364 129.011 148.348 129.047C147.4 131.266 149.333 134.164 146.719 135.966C146.391 136.19 145.891 136.158 145.291 136.29C145.325 136.574 145.377 137.032 145.432 137.523C144.476 138.013 143.55 138.754 142.521 138.951C141.068 139.225 139.52 139.245 138.044 139.103C136.414 138.948 134.795 138.542 133.193 138.141C132.051 137.856 130.951 137.381 129.822 137.026C128.331 136.554 126.769 136.259 125.355 135.636C122.154 134.222 118.753 133.255 115.817 131.208C114.397 130.216 112.64 129.691 111.051 128.932C110.771 128.795 110.556 128.526 110.294 128.344C108.79 127.325 107.316 126.256 105.762 125.318C104.43 124.512 102.563 124.184 101.714 123.061C100.5 121.444 98.7504 120.754 97.3145 119.594C94.1863 117.063 90.7987 114.861 87.5242 112.509C86.2245 111.575 84.9441 110.609 83.661 109.652C82.8675 109.062 82.0934 108.455 81.3054 107.862C78.6715 105.884 76.0624 103.873 73.3871 101.952C70.8975 100.16 68.3141 98.5003 65.8162 96.7198C64.7247 95.9453 63.8507 94.8279 62.6937 94.1993C61.3906 93.4912 59.9579 92.6669 58.9666 91.8412C56.3896 89.687 53.4995 88.0862 50.7551 86.2354C47.915 84.3213 44.8794 82.6967 41.9512 80.9119C39.7593 79.5782 37.3893 78.6093 35.1016 77.4721C32.5724 76.2198 30.1268 74.651 27.4513 73.8667C23.0304 72.5657 18.7728 70.5283 14.0451 70.4371C13.2376 70.4225 12.3254 70.5598 11.6363 70.9408C11.2083 71.174 11.1129 72.0019 11.2147 72.7077C10.8668 73.1245 10.5216 73.5469 10.1792 73.9608C10.5468 74.1305 10.9919 74.2184 11.2542 74.484C11.4941 74.7331 11.5319 75.177 11.6669 75.564C12.6094 75.3761 16.0885 79.5385 15.9968 81.0312C18.1994 81.4541 18.9226 82.2769 18.1777 84.1251C19.2661 82.8518 19.6851 83.4233 20.4268 84.1452C21.9751 85.6612 23.4938 87.2836 25.597 88.1154C26.2897 88.3852 26.6096 89.6952 26.2144 90.4309C28.1061 89.6025 28.9284 91.4411 30.2444 92.0374C30.713 92.2536 31.1412 92.6238 31.4942 93.0115C31.8584 93.4075 32.1146 93.9079 32.5596 94.5713C33.5326 94.073 34.4551 95.0111 35.4099 95.8065C36.7757 96.9387 38.1139 98.0991 39.5561 99.3255C39.4461 99.5082 39.1986 99.9156 38.9621 100.303C39.627 100.889 41.062 99.635 41.1093 101.344C41.5616 101.323 42.0111 101.296 42.7203 101.256C42.1665 101.764 41.8231 102.081 41.4825 102.388C41.5257 102.528 41.569 102.667 41.615 102.798C43.4597 101.741 44.422 103.03 45.5405 104.009C46.1603 104.547 46.957 104.883 47.5324 105.459C47.9753 105.899 48.1108 106.629 48.5289 107.103C48.896 107.518 49.46 107.77 49.9995 108.097C50.5194 108.414 51.0751 108.676 51.5425 109.055C52.6969 109.993 53.8294 110.971 54.9369 111.969C56.6419 113.503 58.3662 115.02 59.9771 116.644C60.6428 117.314 61.0429 118.246 61.7039 119.29C61.6144 119.28 62.0311 119.326 62.5765 119.391C62.4532 119.643 62.3986 119.769 62.3354 119.879C62.1678 120.168 61.9917 120.455 61.8213 120.739C62.1463 120.839 62.5624 121.117 62.7764 121.001C64.1799 120.247 63.8526 121.937 64.5255 122.182C63.6816 123.028 64.7519 123.063 65.0378 123.457C65.5843 124.209 66.5985 124.805 65.8897 126.038C65.7633 126.257 66.1847 126.792 66.3672 127.176C66.544 127.549 66.6599 127.981 66.9281 128.271C68.5518 130.072 65.8632 131.687 66.7216 133.5C66.8813 133.84 66.5164 134.813 66.1795 134.936C64.8463 135.443 65.1094 136.368 65.2713 136.931C64.6543 137.836 64.2671 138.533 63.7615 139.122C63.0542 139.933 62.2595 140.67 61.4986 141.432C61.1915 141.736 60.9041 142.066 60.5517 142.31C59.9994 142.684 60.1485 144.235 58.8408 143.34C58.6538 143.646 58.5463 144.094 58.2739 144.234C56.2892 145.264 54.3685 146.557 52.2482 147.144C49.6933 147.856 47.0061 148.461 44.2693 147.694C42.6727 147.248 41.0303 146.987 39.4203 146.612C39.1879 146.555 38.9983 146.309 38.8012 146.143C37.9423 145.439 37.1166 144.69 36.2275 144.036C35.6535 143.614 35.8795 141.849 36.6397 141.306C36.8561 141.153 37.084 141.022 37.045 141.042C37.907 141.779 38.6366 142.409 39.3634 143.034C39.0934 143.425 38.8511 143.787 38.6032 144.153C39.0192 144.129 39.4374 144.041 39.843 144.093C40.2794 144.151 40.7082 144.303 41.1205 144.464C42.2226 144.903 43.3318 145.205 44.547 145.207C44.8711 145.21 45.1933 145.88 45.343 146.049C52.7282 145.355 58.8963 142.147 63.3701 135.904C63.766 134.663 64.2651 133.116 64.84 131.32C64.7657 130.86 64.7069 129.977 64.4698 129.144C63.7668 126.648 62.4828 124.442 60.9125 122.39C58.3747 119.079 55.5712 116.03 52.3467 113.366C50.0713 111.485 47.8014 109.588 45.6005 107.62C43.7463 105.959 42.1543 103.974 40.1459 102.546C39.1333 101.83 38.0577 101.251 37.1383 100.346C36.357 99.5743 35.2632 99.1379 34.3491 98.4902C32.0763 96.8891 29.7235 95.3781 27.5971 93.5967C23.4543 90.1391 19.4136 86.552 15.3867 82.9507C13.6255 81.3754 11.6469 79.8552 10.4352 77.9002C9.56387 76.4866 8.43521 75.0365 8.47045 72.899C8.49537 70.851 8.88314 69.3471 10.7523 68.7899C12.5963 68.2385 14.6074 68.2051 16.5587 68.055C16.8351 68.0327 17.1595 68.6526 17.439 68.9516C18.8982 67.0183 20.3995 70.8953 22.0368 68.8988C22.425 71.2054 23.684 69.9501 24.6659 69.7981C24.606 69.9552 24.546 70.1122 24.4861 70.2692C25.835 70.8065 27.1758 71.3691 28.5411 71.8699C29.0346 72.0523 29.6316 71.9711 30.0892 72.207C31.4763 72.9283 32.8654 74.4486 34.1551 74.3495C35.8021 74.2219 35.8493 74.7662 35.9299 75.8829C35.9364 75.9778 36.0518 76.0661 36.1906 76.2687C37.5841 75.3445 38.5548 75.7737 39.1312 77.3102C39.2143 77.5273 39.5389 77.8734 39.614 77.842C41.5781 76.9905 42.8231 79.2022 44.9428 78.8465C44.606 79.2576 44.4708 79.4321 44.341 79.5898C46.4097 79.7375 52.8829 84.1141 52.8459 85.4945C53.1365 85.2123 53.358 85.0006 53.4797 84.8821C54.3839 85.3595 55.2348 85.815 56.0576 86.2569C55.8499 86.7422 55.645 87.2191 55.3472 87.912C56.7256 86.8762 59.0322 87.3512 60.1793 88.9744C61.0319 90.187 62.1677 90.9387 63.2989 91.777C63.7856 92.1383 64.22 92.5615 64.9835 93.2302C66.1627 92.6824 67.1299 93.324 67.2993 95.2444C67.9079 95.1994 68.4382 95.1524 69.1138 95.1011C69.0058 95.4933 68.9303 95.7706 68.987 95.5661C69.8737 96.2699 70.5776 96.8358 70.8957 97.087C73.7051 99.0098 76.1485 100.643 78.5341 102.355C78.9139 102.63 79.0345 103.263 79.305 103.792C80.004 103.567 82.8047 104.87 83.2297 105.782C83.3295 105.99 83.5823 106.128 83.7572 106.305C85.0346 107.538 86.2376 108.873 87.6227 109.975C88.3208 110.529 89.3529 110.653 90.2332 110.975C90.2836 110.991 90.3483 111.035 90.3627 111.077C90.8531 112.678 92.4961 113.009 93.5476 113.993C93.6548 114.093 93.7826 114.315 93.8468 114.303C95.8862 113.736 95.2163 115.237 95.2968 116.34C96.4787 115.208 97.2357 115.782 97.9778 116.833C98.2413 117.211 98.8459 117.336 99.2428 117.645C99.6481 117.957 99.9844 118.353 100.661 119.017C100.608 119.023 101.03 118.969 101.56 118.894C102.063 120.11 102.882 120.75 104.342 121.161C105.891 121.596 107.112 123.132 108.552 124.079C109.243 124.539 110.1 124.745 110.883 125.067C111.034 125.13 111.3 125.184 111.309 125.256C111.463 127.255 113.534 126.531 114.443 127.483C116.39 129.532 119.551 129.359 121.563 131.163C123.429 132.847 125.885 132.641 127.918 133.692C128.94 134.221 130.094 134.5 131.116 135.03C131.402 135.178 131.447 135.8 131.602 136.198C132.686 135.411 136.376 135.901 137.228 136.798C140.485 136.428 143.902 136.77 145.885 133.284C145.881 133.152 145.842 132.597 145.84 132.044C145.818 130.041 146.063 127.985 145.715 126.044C145.443 124.527 144.388 123.166 143.798 121.685C143.495 120.928 143.724 119.814 143.247 119.307C142.226 118.231 142.188 116.951 141.821 115.687C141.434 114.369 140.654 113.175 140.061 111.921C139.747 111.254 139.495 110.555 139.164 109.896C138.982 109.54 138.703 109.227 138.411 108.822C138.501 108.656 138.917 108.247 138.83 107.997C138.214 106.081 137.503 104.199 136.823 102.309C136.956 102.199 137.08 102.086 137.213 101.975C137.458 102.166 137.706 102.348 138.173 102.712C137.307 100.692 137.922 98.672 139.627 97.6023C141.24 96.5866 143.045 95.9993 144.972 95.9388C145.262 95.9304 145.559 96.2768 145.862 96.4582C146.704 95.1287 149.747 95.1496 150.612 96.552C150.844 96.2928 151.088 95.796 151.342 95.7851C152.264 95.7623 153.217 95.8005 154.099 96.0295C154.844 96.2234 155.503 96.7283 156.174 97.0794C156.622 96.8991 157.279 96.3731 157.841 96.4571C159.103 96.6461 160.366 97.5502 161.544 97.4103C163.179 97.2185 164.385 97.408 165.403 98.7252C167.314 97.8798 173.531 99.468 174.26 101.179C175.544 99.2586 176.938 100.734 178.21 101.093C179.627 101.49 180.89 102.682 182.291 102.842C183.813 103.017 185.041 103.757 186.401 104.071C187.972 104.438 188.279 105.215 188.341 106.488L188.352 106.496L188.33 106.508Z" fill="black"/>
<path d="M190.48 106.319C190.944 106.131 191.409 105.942 191.835 105.773C192.421 106.287 192.979 106.773 193.32 107.069C193.27 107.67 193.224 108.142 193.194 108.536L195.691 107.258C195.513 108.008 195.443 108.501 195.271 108.961C195.179 109.205 194.816 109.608 194.749 109.572C193.306 108.865 191.396 109.219 190.333 107.665C190.385 107.217 190.431 106.772 190.48 106.319Z" fill="black"/>
<path d="M196.746 108.03C197.54 108.746 198.008 109.166 198.546 109.641L199.58 109.112C199.655 109.614 199.712 110.027 199.775 110.437C199.485 110.473 199.078 110.653 198.921 110.523C198.172 109.91 196.436 110.385 196.746 108.03Z" fill="black"/>
<path d="M190.479 106.32C190.428 106.767 190.382 107.212 190.333 107.665C189.785 107.636 189.237 107.608 188.43 107.566C188.768 107.076 188.937 106.843 189.187 106.483C188.869 106.492 188.606 106.5 188.344 106.508C188.344 106.508 188.333 106.499 188.327 106.502C188.618 105.96 188.914 105.416 189.205 104.888C189.618 105.35 190.05 105.838 190.49 106.328L190.479 106.32Z" fill="black"/>
</svg>
