<svg width="84" height="84" viewBox="0 0 84 84" fill="none" xmlns="http://www.w3.org/2000/svg">
<path d="M34.544 18.4929C34.6676 18.5996 34.7911 18.7007 34.9203 18.8074C35.3303 19.0658 35.7347 19.3298 36.1447 19.5881C35.2573 19.4646 34.5721 19.2455 34.2463 20.4868C33.988 21.4584 33.314 22.3234 32.8141 23.2613C32.9826 23.5141 33.1848 23.8061 33.241 23.896C32.7917 24.1993 32.3199 24.3509 32.157 24.6598C31.7526 25.4349 31.4886 26.2774 31.1685 27.0974C30.6799 27.2996 30.1969 27.5018 29.7082 27.7096C29.6184 27.4961 29.3993 27.1311 29.4499 27.0861C30.6911 26.0583 30.8203 24.6149 31.0337 23.1771C31.0786 22.8738 31.4999 22.621 31.7358 22.3571C31.82 22.4582 31.9773 22.6604 32.4097 23.1939C32.1963 20.9192 33.4488 19.7454 34.544 18.4929Z" fill="black"/>
<path d="M37.1951 15.4153C36.6671 14.6627 36.5717 13.7978 37.3524 13.208C37.9365 12.7587 38.3128 10.894 39.3574 12.433C38.6273 13.4383 37.8915 14.4661 37.2007 15.4153H37.1951Z" fill="black"/>
<path d="M24.8673 15.2694C24.7549 14.7246 24.6426 14.1798 24.5303 13.6294C25.2716 14.2472 26.0186 14.865 26.6533 15.3986H25.5806C25.457 15.5615 25.3334 15.7243 25.2099 15.8928C25.7491 15.9939 26.2882 16.095 26.833 16.1905C26.541 16.4433 26.2545 16.696 25.9681 16.9431C25.603 16.3871 25.238 15.8254 24.8729 15.2694H24.8673Z" fill="black"/>
<path d="M23.4291 80.5442C23.9683 80.5947 24.5131 80.6509 25.0748 80.7071C25.0579 80.9654 25.0411 81.2575 25.0355 81.3473C24.193 81.7574 23.4965 82.0887 22.8057 82.4257C22.7271 82.2965 22.6485 82.173 22.5698 82.0438C22.8619 81.5439 23.1539 81.0384 23.446 80.533L23.4291 80.5442Z" fill="black"/>
<path d="M12.5672 35.3538C12.4324 34.927 12.292 34.5057 12.1572 34.0789C12.4717 34.1463 12.7807 34.2193 13.0783 34.2867C12.3875 32.5119 13.7579 31.2931 14.3196 29.8272C14.6453 28.9735 14.7857 28.1422 15.9652 28.3107C16.1056 29.2094 16.2516 30.1136 16.3921 31.0235C16.0888 31.6076 14.8644 29.7654 15.0666 31.4784C15.1115 31.8547 15.8641 32.1524 16.0944 32.7365C15.7125 32.5624 15.3305 32.3883 14.5105 32.0232C14.8588 32.9556 15.0666 33.5172 15.3081 34.18C14.8475 34.2193 14.3757 34.2586 13.9096 34.2979C13.8927 34.3934 13.8703 34.4945 13.8534 34.59C14.1061 34.7192 14.3589 34.8539 15.0385 35.2078C14.2803 35.6066 13.713 35.9042 13.1457 36.2019C12.9492 35.9211 12.7582 35.6403 12.5616 35.3594L12.5672 35.3538Z" fill="black"/>
<path d="M60.9585 58.9431C62.02 57.8647 62.8007 59.1003 63.6881 59.3194C64.0532 59.4092 64.3228 59.8754 64.6317 60.1675C64.6317 60.5718 64.6317 60.9762 64.6317 61.3806C63.66 61.639 61.3966 60.5831 60.9192 59.6507C60.9304 59.4148 60.9417 59.179 60.9529 58.9431H60.9585Z" fill="black"/>
<path d="M53.6401 54.9777C53.6963 54.8991 53.7805 54.7531 53.7974 54.7587C54.8421 55.2024 55.9092 55.6236 56.9146 56.1516C57.1336 56.2639 57.1504 56.7638 57.2796 57.1513C57.3526 57.1457 57.6391 57.112 57.9311 57.0839C57.9761 57.5557 58.0266 58.0275 58.0996 58.752C57.5717 58.4263 57.0943 58.1342 56.6169 57.8309C55.6228 57.2075 54.6343 56.5784 53.6401 55.9494C53.6401 55.6236 53.6401 55.3035 53.6401 54.9777Z" fill="black"/>
<path d="M43.1709 52.8099C43.2945 52.4223 43.4236 52.0348 43.6202 51.4282C44.4964 51.9 45.3389 52.3493 46.3105 52.8717C46.2881 52.8885 46.5071 52.7369 46.4622 52.7649C46.8778 53.2086 47.1811 53.5288 47.4844 53.8489L47.5012 53.9893C47.1081 54.1298 46.625 54.4836 46.3274 54.3656C45.2434 53.9332 44.2156 53.3434 43.1709 52.8155V52.8099Z" fill="black"/>
<path d="M27.9055 49.7039C29.2254 49.8218 30.5453 49.9454 31.8595 50.0633C31.5113 50.4621 31.1182 51.2315 30.8205 51.1978C29.8207 51.0855 28.8547 50.6867 27.8718 50.4003L27.9055 49.7039Z" fill="black"/>
<path d="M39.2288 50.9395C39.9926 51.0349 40.7508 51.1529 41.5203 51.2203C42.0426 51.2652 42.5762 51.2259 42.9918 51.2259C43.0648 51.6977 43.1491 52.2706 43.2333 52.8378C41.6438 53.1074 40.3521 52.5514 39.2681 51.4056C39.2568 51.2484 39.24 51.0911 39.2288 50.9338V50.9395Z" fill="black"/>
<path d="M39.2288 50.9395C39.24 51.0968 39.2569 51.254 39.2681 51.4113C39.2176 51.5461 39.1839 51.7932 39.1165 51.7988C38.1897 51.928 37.263 52.0516 36.3363 52.1077C36.179 52.119 36.0049 51.7932 35.8364 51.6247C35.8364 51.5068 35.8364 51.3888 35.8364 51.2709C36.6957 50.0521 38.01 49.9229 39.2232 50.9395H39.2288Z" fill="black"/>
<path d="M35.8414 51.271C35.8414 51.3889 35.8414 51.5069 35.8414 51.6248C34.9877 51.3328 34.1396 51.0295 33.2859 50.7487C32.8646 50.6139 31.9716 51.2541 32.2019 50.0747C32.567 49.9343 32.9208 49.7265 33.2971 49.6703C33.9599 49.5748 34.8473 49.1367 34.7518 50.524C34.7349 50.7487 35.4651 51.0182 35.847 51.271H35.8414Z" fill="black"/>
<path d="M60.9585 58.9432C60.9472 59.1791 60.936 59.415 60.9248 59.6509C59.8913 59.533 59.6442 59.1791 59.2904 58.4827C59.0095 57.9323 58.358 57.5728 57.8694 57.1291C58.4086 57.292 59.3072 56.1574 59.5375 57.5784C59.5375 57.6065 60.0767 57.5447 59.9587 57.556C60.3687 58.1288 60.6664 58.5388 60.9585 58.9545V58.9432Z" fill="black"/>
<path d="M11.0169 49.7769C10.9945 48.3447 12.0953 48.9625 12.7524 48.8783C13.1175 48.8333 13.5163 49.0355 14.0723 49.1647C14.0049 49.4175 13.8757 49.8612 13.7409 50.3554C13.8926 50.3554 14.1622 50.3554 14.4374 50.3554C13.6735 50.2656 12.539 50.4397 12.2301 50.0184C11.7471 49.3557 11.382 49.9229 11.0169 49.7769Z" fill="black"/>
<path d="M23.446 80.5385C23.1933 80.4711 22.7383 80.4374 22.7215 80.3251C22.4014 78.4548 20.5928 78.1402 19.3909 77.3989C16.622 75.6971 13.752 74.2424 11.5728 71.6925C10.4607 70.3895 8.88247 69.4965 7.57945 68.3451C7.16383 67.9744 6.883 67.3959 6.67519 66.8567C5.50135 63.8744 3.42325 61.302 2.74365 58.0838C2.45721 56.7358 1.91803 55.444 1.49118 54.1297C1.47433 54.0848 1.40693 54.0511 1.40131 54.0118C1.24405 51.636 1.10925 49.2603 0.929527 46.8901C0.873362 46.1656 0.693635 45.4523 0.553223 44.6266C0.985692 44.7165 1.24967 44.7671 1.7383 44.8682C0.407194 43.6157 0.974459 42.6384 1.51926 41.3803C1.99104 40.2851 1.7046 38.8529 1.72707 37.5723C1.72707 37.2915 1.49118 36.8871 1.60912 36.7467C2.20447 36.0447 2.87845 35.41 3.72092 34.5507C3.83887 34.2642 2.69872 33.0174 4.24325 33.1241C4.40052 32.4501 4.46791 31.72 4.74312 31.0797C5.27669 29.8553 5.84957 28.6253 6.56286 27.4964C7.5289 25.9799 8.57918 24.5084 9.71371 23.1099C10.7808 21.7956 11.9491 20.5488 13.1735 19.3693C14.5551 18.0326 15.9649 16.6846 17.5319 15.595C18.2789 15.0783 18.9416 13.9101 20.2222 14.4605C20.2839 14.4886 20.4693 14.1741 20.6209 14.0561C22.143 12.916 23.6258 11.714 25.2096 10.6694C25.9622 10.1751 26.9676 10.0796 27.7483 9.6247C28.9333 8.92825 30.0791 8.32729 31.5225 8.56318C31.7977 8.60811 32.174 8.31044 32.4436 8.0914C34.0219 6.83892 35.9652 6.73782 37.8186 6.34467C38.7285 6.14809 39.6159 5.8111 40.5314 5.66507C42.7499 5.31123 44.9796 5.03603 47.2038 4.73274C49.192 4.46314 51.169 4.12054 53.1629 3.98574C53.8031 3.94081 54.4659 4.53054 55.1511 4.67095C55.9206 4.8226 56.7462 4.71027 57.5213 4.86192C58.1559 4.98548 58.7513 5.32808 59.2343 5.88973C59.7566 5.86165 60.2846 5.83357 60.9979 5.79425C60.5429 6.38398 60.2789 6.73782 59.9925 7.10851C57.4876 6.44577 57.3528 5.83918 53.4493 6.81084C53.4942 6.34467 53.5392 5.88973 53.5785 5.51904C51.2083 5.64822 48.9112 5.62014 46.6758 5.95151C45.2885 6.15371 43.9799 6.9007 42.7162 7.37249C42.9072 6.53001 41.8119 6.34467 41.5704 6.75467C40.5932 8.41715 39.0486 7.51851 37.8018 7.84427C37.5659 7.90605 37.2064 7.83304 37.0941 7.97907C35.9596 9.44497 34.3308 9.37757 32.7301 9.47305C32.4605 9.4899 32.2134 9.73703 31.9438 9.84936C30.944 10.265 29.9443 10.6806 28.9389 11.0625C28.9109 11.0737 28.7648 10.7705 28.5402 10.3773V11.5399C27.4787 11.7927 26.4733 12.0342 25.3388 12.3038C25.3893 12.4273 25.5185 12.7475 25.6477 13.0676C25.277 13.2586 24.9063 13.4439 24.53 13.6349C24.6423 14.1797 24.7547 14.7245 24.867 15.2749C24.7097 15.9657 24.6423 16.6397 23.6651 16.7745C23.1652 16.8419 22.7215 17.3418 22.0531 17.7798C22.8394 18.1281 23.036 18.2123 23.2494 18.3078C22.3227 19.2008 20.9186 19.7905 21.879 21.908C20.8849 21.3969 20.3289 21.1104 19.5201 20.6948C20.1604 21.2284 19.155 22.127 20.3176 22.346C20.0031 22.8403 19.6886 23.3345 19.228 24.0647C19.228 24.0591 19.419 24.3624 19.419 24.3624C19.0034 25.3789 18.6889 26.154 18.4474 26.7381C18.9753 27.0583 19.4639 27.384 19.9807 27.6368C20.1098 27.6986 20.3513 27.5413 20.5367 27.4739C20.6883 27.4177 20.9467 27.2661 20.9635 27.2886C22.1823 29.0634 24.8726 27.7435 26.0184 29.6756C26.0858 29.7935 26.3722 29.8553 26.5351 29.8272C27.3383 29.6756 28.1302 29.4846 28.6918 29.3554C29.0625 28.7601 29.3883 28.2377 29.714 27.7154C30.2027 27.5132 30.6857 27.311 31.1743 27.1032C31.0507 27.7042 30.9272 28.2995 30.725 29.2656C31.4888 30.3664 32.9884 30.7595 34.7071 30.9056C35.5889 30.9786 36.4257 31.5515 37.5041 31.9896C37.6277 31.8772 38.032 31.5065 38.223 31.3324C39.0205 31.4391 39.571 31.5121 40.009 31.5683C40.1382 32.0401 40.2562 32.467 40.3741 32.8938C40.5651 32.7815 40.8908 32.7028 40.9245 32.5568C41.2054 31.2594 42.778 31.6526 42.8847 31.7874C43.89 32.9781 45.2099 32.3265 46.2883 32.349C47.4509 32.3771 47.8834 32.6804 47.844 33.8149C49.7705 32.4389 51.7924 32.4782 53.4605 34.1463V21.2171C53.4886 21.2003 53.82 21.1273 53.9379 20.9251C54.0559 20.7285 54.039 20.223 53.9323 20.1725C53.483 19.9647 52.9831 19.7793 52.4889 19.7625C51.6408 19.7231 50.7758 19.7231 49.9446 19.8748C48.7708 20.0882 47.7205 19.9871 46.7544 19.2457C46.6196 19.1446 46.3107 19.1053 46.1759 19.184C44.5528 20.1612 43.1599 19.5097 41.6771 18.7459C40.9863 18.3864 40.0371 18.2629 39.2621 18.392C38.3353 18.5493 37.5434 18.8301 36.5886 18.3415C36.2123 18.1505 35.4878 18.6279 34.9261 18.802C34.8026 18.6953 34.679 18.5942 34.5498 18.4875C34.5779 18.319 34.6116 18.1505 34.6397 17.9764C33.522 17.7855 32.3762 17.69 31.2979 17.3698C30.6576 17.1845 30.124 16.6509 29.304 16.123C29.5118 16.7239 29.6354 17.0665 29.8376 17.645C28.6469 17.1564 27.6921 16.7689 26.7148 16.3701C26.917 15.9489 27.1529 15.4546 27.2821 15.185C28.0291 15.2412 28.6862 15.2917 29.4332 15.3479C29.4388 15.4602 29.4557 15.7186 29.4613 15.8815C30.2869 15.7691 31.0957 15.6568 32.1235 15.5164C31.9606 16.0668 31.8595 16.3982 31.6517 17.1002C32.438 16.5498 32.9323 16.196 33.3423 15.9095C33.9938 16.1623 34.5948 16.3982 35.235 16.6453C35.4878 16.1005 35.69 15.6624 35.9652 15.0558C38.0938 17.9259 41.2447 16.7745 43.9799 17.4541C43.8451 17.7181 43.6878 18.027 43.5306 18.3359C43.5867 18.3696 43.6429 18.4089 43.7047 18.4426C44.008 18.0831 44.3169 17.7237 44.4742 17.5383C46.204 17.645 47.7991 17.7405 49.4335 17.8416C49.5065 18.1056 49.6132 18.465 49.7143 18.8189C49.8098 18.8189 49.8997 18.8077 49.9952 18.8077C50.0345 18.5324 50.0738 18.2572 50.1075 17.9989C50.6972 18.1281 51.287 18.2629 52.0676 18.437C52.0564 18.3808 52.1294 18.7009 52.2137 19.0829C52.6911 18.5605 53.2752 18.1898 53.4324 17.69C53.6403 17.0272 53.6403 16.2353 53.5223 15.5332C53.2808 14.1235 52.9887 12.7587 53.8874 11.4332C54.0222 11.231 53.6515 10.7199 53.5785 10.338C53.3988 9.41127 53.2527 8.48455 53.1292 7.77126C54.1851 8.26551 55.0781 8.68674 55.7184 8.99003C55.4151 9.53483 55.0556 10.1358 54.7804 10.7705C54.7636 10.8098 55.3477 11.1131 55.5892 11.2591C55.3027 11.6129 54.977 12.0229 54.7355 12.3206C55.1679 12.8261 55.5106 13.2249 55.9318 13.7191C55.3421 13.8146 54.9264 13.8876 54.5164 13.955C54.522 14.0505 54.5277 14.146 54.5333 14.2414C54.8703 14.2639 55.2016 14.292 55.5386 14.3145C55.5948 14.9042 55.651 15.4827 55.7127 16.078C55.3252 16.2185 54.9096 16.3757 54.3704 16.5723C55.3926 17.1508 56.207 17.8248 57.1281 18.0663C57.8639 18.2572 58.7344 17.9315 59.5432 17.8304C59.5544 17.9652 59.56 18.1 59.5713 18.2348C60.0711 18.0438 60.981 17.6338 61.0091 17.6844C61.5651 18.7515 63.0142 16.2465 63.1939 18.2909C63.7219 17.9259 64.1936 17.5945 64.8171 17.162C64.7497 17.836 64.7104 18.2404 64.671 18.6392C64.9575 18.4257 65.2551 18.0213 65.5304 18.0382C66.5189 18.0887 67.2996 16.4937 68.4397 17.6844C68.5576 17.8079 69.0463 17.5889 69.3608 17.5215C69.8438 17.4148 70.3212 17.2912 70.7986 17.1789C71.2086 17.0834 71.6243 16.9935 72.0343 16.898C72.0062 16.7745 71.9781 16.6509 71.95 16.5274C71.7197 16.5611 71.4838 16.5948 71.5288 16.5891C66.9345 9.73141 61.464 4.13739 53.4718 1.48079C53.5167 1.75038 53.5729 2.10422 53.5897 2.22217H47.9732C49.046 0.503521 52.4496 -0.468132 53.7526 1.14942C53.9155 -0.147992 54.5782 0.144065 55.3308 0.52037C56.0497 0.879825 56.808 1.16627 57.5662 1.44147C58.3356 1.7223 59.1219 1.94696 59.9532 2.21093C59.8914 2.50299 59.8072 2.91861 59.7117 3.3904C60.2958 3.21628 60.7901 3.07587 60.9529 3.02532C65.5472 5.29438 68.406 9.15853 71.6467 12.7531C71.5063 12.9328 71.3097 13.1968 70.9559 13.6573C71.5849 13.545 71.9949 13.472 72.2589 13.4214C74.4662 17.3586 76.651 21.2564 78.8808 25.2385C78.3753 25.4463 78.1113 25.5587 77.7069 25.7272C78.1899 25.9911 78.5887 26.2046 79.0549 26.4517C77.7125 28.2995 79.7401 29.2094 80.2624 30.709C79.8299 30.6809 79.448 30.6584 79.0661 30.636C80.8128 31.0235 80.8297 32.5063 80.869 33.725C80.9027 34.8034 82.1776 36.0671 80.5095 37.0837C82.5876 38.2295 80.6443 39.8976 81.206 41.3915C80.7454 41.2062 80.3972 41.0658 80.0546 40.9254C79.9928 41.077 79.9254 41.2231 79.8636 41.3747C81.1217 41.8633 82.3798 42.352 83.6772 42.8518C82.318 43.5595 81.06 44.2166 79.8243 44.8625C80.0939 45.149 80.5601 45.5702 80.5264 45.6152C80.195 46.0589 79.7794 46.4408 79.3357 46.8901C79.4199 46.9519 79.6221 47.0923 79.9704 47.3394C78.3753 47.8393 80.8297 49.8163 78.6392 50.2038C79.9591 51.7371 78.3528 52.4111 77.7799 53.3996C77.7238 53.4951 77.5272 53.5063 77.398 53.5569C77.4486 53.6186 77.4991 53.6804 77.5553 53.7366C78.2854 54.478 77.4766 54.7307 77.0835 54.8655C75.9433 55.253 75.8142 56.0169 76.0557 57.0166C76.1961 57.5951 75.5726 58.7465 75.0615 59.061C74.8537 59.1902 74.5617 59.5721 74.6178 59.6844C75.421 61.302 74.0113 61.2795 73.18 61.7064C73.3148 63.6609 72.961 64.1889 71.4052 64.29C71.5119 64.7056 71.6186 65.1156 71.7197 65.5312C71.321 65.6267 70.9278 66.1659 70.6357 66.7668C70.5459 66.9522 70.1977 67.0027 70.0292 67.1712C69.4788 67.716 69.0182 68.3732 68.406 68.8281C67.7433 69.3223 66.9513 69.6312 66.0527 69.7211C65.7494 70.5355 65.4461 71.3555 65.1765 72.0913C64.0251 72.7259 62.8738 73.3606 62.2223 73.7201C59.7229 75.3095 57.6617 76.6182 55.606 77.9268C55.6678 78.0391 55.7296 78.1515 55.797 78.2638C55.3027 78.1009 54.8085 77.938 54.2525 77.7527C54.3255 78.056 54.3929 78.3368 54.4827 78.6907C52.9494 78.9939 51.0623 78.2975 50.1019 80.3756C49.8379 80.0891 49.6638 79.8926 49.3773 79.5837C49.3156 79.915 49.2762 80.1565 49.2313 80.4093C48.1136 80.5329 46.7039 79.505 46.1086 81.0271C45.4683 80.9934 44.901 80.7912 44.5359 80.9822C43.9855 81.2686 43.5755 81.8303 43.1093 82.274C43.2161 82.4088 43.3172 82.5379 43.4239 82.6727C43.0195 82.8244 42.6207 82.9704 42.1096 83.1614C42.0141 82.7514 41.9355 82.3975 41.8063 81.8359C41.6378 82.3245 41.5255 82.6447 41.3345 83.2007C40.7785 82.6671 40.318 82.2234 39.863 81.7741C39.7844 81.6955 39.7282 81.4877 39.6721 81.4933C38.2399 81.6056 36.8076 81.8527 35.3811 81.8359C33.9152 81.819 32.4156 81.6842 30.989 81.3585C28.8828 80.8755 26.8384 80.1116 24.7378 79.6174C24.4008 79.5387 23.8841 80.2183 23.4516 80.5441L23.4685 80.5329L23.446 80.5385ZM69.1193 64.1271C69.8775 63.3239 70.6301 62.5208 71.6018 61.4986C71.5962 61.5547 71.54 61.1391 71.7085 60.8639C73.4384 58.1343 74.8818 55.2924 75.7805 52.1471C75.9658 51.4956 76.4376 50.8441 76.5331 50.0803C76.5331 50.0409 76.9431 50.0466 77.1621 50.0353C77.252 48.8222 76.6117 47.4742 77.9934 46.5419C78.1394 46.4464 77.9653 45.5253 77.6844 45.2501C77.4148 44.9861 76.8027 44.9917 76.3477 45.0254C75.8984 45.0591 75.4659 45.3231 75.011 45.3905C74.2696 45.4972 73.517 45.5477 72.77 45.5814C72.4162 45.5983 72.0567 45.5197 71.8714 45.5028C71.1525 47.1091 70.4392 48.6986 69.6866 50.3779C69.8775 50.524 70.164 50.7486 70.4448 50.9677C70.0292 52.0573 69.4226 53.0458 69.3046 54.096C69.1586 55.3991 69.372 56.7246 67.5242 57.4435C70.3381 58.1568 67.0468 58.9487 67.8219 59.6058C67.4961 59.6395 67.1816 59.6676 66.8671 59.7013C67.2771 60.5101 67.6871 61.3245 68.1196 62.1838C68.0578 62.2343 67.8556 62.4197 67.6478 62.605C65.4686 62.9813 65.2327 64.7955 64.8058 66.2782H63.5758C63.778 66.7331 63.9858 67.1825 64.2498 67.7778C64.188 68.3001 62.8569 68.918 64.2273 69.8784C65.873 67.9463 67.4905 66.0423 69.1137 64.1383L69.1193 64.1271ZM14.4035 50.3835C15.201 49.3108 19.3011 48.5076 20.385 49.2097C20.4244 49.2378 20.4524 49.2827 20.4861 49.3108C21.0197 49.7152 21.5589 50.114 22.1823 50.5801C22.289 49.6141 21.8903 48.4515 23.4348 49.0244C23.5078 49.0524 23.8897 48.4402 24.0189 48.0864C24.1144 47.8112 24.0358 47.4798 24.0358 47.1934C24.339 47.2383 24.5525 47.272 24.5693 47.2776C24.6311 46.7328 24.6143 46.2723 24.7491 45.8623C25.1591 44.6042 24.5974 43.9134 23.2157 43.801C21.8903 43.6943 20.5648 43.4809 19.2674 43.1944C16.7456 42.6328 14.2406 41.9757 11.8929 41.4028C11.921 41.8016 12.0333 42.1666 11.9547 42.4868C11.8255 42.9979 11.4043 43.4753 11.4043 43.9639C11.4043 44.958 11.1852 45.413 10.1069 45.6713C10.6067 45.9409 10.9887 46.1431 11.5672 46.452C10.9943 46.6486 10.6404 46.7665 10.2922 46.8901C10.4158 46.98 10.5337 47.0698 10.6573 47.1597C10.3708 47.7045 10.0788 48.2549 9.76426 48.8559C10.0956 49.0805 10.5899 49.4119 11.0841 49.7489C11.2414 49.923 11.393 50.0971 11.5503 50.2712C11.3256 50.3723 11.0561 50.6082 10.8763 50.5577C9.89344 50.2768 9.91029 50.2544 9.93276 51.2316C9.93276 51.3721 9.91029 51.5686 9.81481 51.6529C8.65781 52.6975 9.34303 53.1132 10.5674 53.321C10.3147 54.8374 10.0844 56.2415 9.81481 57.8591C11.174 58.0388 12.7354 58.5555 14.1844 58.3253C15.2403 58.1568 15.6391 58.2129 15.8357 59.3138C16.3299 58.9655 16.695 58.4938 17.0488 58.505C18.599 58.5443 20.1604 58.651 21.6937 58.8869C22.6204 59.0273 23.0473 59.061 22.8057 57.904C22.6597 57.1963 22.7215 56.4044 22.8675 55.6855C23.1259 54.4387 23.6819 53.2311 23.7774 51.9786C23.8167 51.4956 23.3393 49.8893 22.9349 50.3049C21.7386 51.5518 20.2952 49.9679 19.2168 50.9508C19.1382 51.0182 18.4754 50.4453 18.1216 50.1926C16.9758 50.2544 15.6897 50.3274 14.4035 50.3948V50.3835ZM27.9111 49.704L27.8774 50.4004C26.9507 50.7711 25.7825 50.9452 26.243 52.4616C25.8836 52.5122 25.5297 52.5684 25.3163 52.5964C25.3837 53.54 25.4343 54.3376 25.4904 55.107C25.1759 55.2587 24.7715 55.4609 24.6367 55.5283C24.9962 56.3258 25.2602 56.8987 25.4848 57.3929C24.9456 57.4435 24.603 57.4322 24.2997 57.5333C24.2323 57.5558 24.1986 58.1175 24.3166 58.1961C25.0917 58.7409 25.8555 59.3755 26.7317 59.6957C28.1021 60.1956 29.5736 60.4258 30.9721 60.8695C31.4888 61.0324 31.9213 61.4649 32.3875 61.7738C33.3142 61.9367 34.269 62.2456 35.2126 62.5601C35.6731 62.7117 36.1224 62.8802 36.5718 63.06C38.1668 63.7002 39.7619 64.3237 41.3289 65.0201C41.4806 65.0875 41.4356 65.6042 41.4862 65.9188C42.9802 65.1324 43.3846 65.9637 43.4014 66.9073C44.1596 66.8342 44.8336 66.7668 45.384 66.7163C45.384 66.2052 45.1762 65.4301 45.4233 65.2392C46.2658 64.5933 46.7039 63.9642 46.6309 62.8185C46.5972 62.2512 47.2768 61.6446 47.6306 61.0549C47.9171 60.4708 47.6812 59.1228 47.8272 59.0779C48.9561 58.7409 48.6809 57.6513 48.9112 57.0166C49.3324 55.8765 49.3942 54.4892 47.5408 54.2758C47.5127 54.2758 47.5071 54.0848 47.4902 53.9893L47.4734 53.8489C47.7879 53.5119 48.1249 52.8773 48.4113 52.8997C48.9168 52.9391 49.3942 53.3771 49.9053 53.6636C49.9558 53.4389 49.9839 53.1469 50.0794 52.8829C50.4164 51.9618 51.2926 50.7936 51.0005 50.1926C50.5793 49.3445 50.95 49.0187 51.2139 48.4683C51.6127 47.6427 51.2645 47.1653 50.4276 47.0586C49.7986 46.98 49.1527 47.0698 48.5236 47.0024C48.3383 46.9856 48.1866 46.6879 47.9788 46.4801C47.7149 46.716 47.4228 47.199 47.1364 47.1934C45.2829 47.1597 43.4295 47.0361 41.5817 46.9182C40.3573 46.8395 39.1273 46.6037 37.9085 46.6598C36.7683 46.7104 35.8753 45.9858 34.5611 46.1712C32.8536 46.4127 30.9665 45.6376 29.2085 45.1209C27.6921 44.6716 25.9285 45.1546 25.5803 46.0645C26.0465 46.6767 26.5632 47.0642 26.6474 47.536C26.7541 48.1201 26.507 48.766 26.4508 49.1479C27.0069 49.367 27.4506 49.5411 27.8943 49.7208L27.9111 49.704ZM12.5725 35.3538C12.7691 35.6347 12.96 35.9155 13.1566 36.1963C13.0218 36.4041 12.887 36.6119 12.7466 36.8197C13.0836 37.1286 13.415 37.4319 13.7688 37.7633C13.1959 38.1508 12.7522 38.4485 12.258 38.7799C13.3026 40.2907 14.9033 39.9313 16.2288 40.2683C17.6161 40.6221 19.0315 40.8524 20.4749 41.1444C20.2446 41.5263 20.0761 41.8016 19.8122 42.2396C21.8959 40.9928 23.5808 42.5822 25.1197 42.4868C25.5859 40.5098 25.7376 38.4373 26.6137 36.7355C27.0911 35.8088 27.1024 35.2527 26.7036 34.3822C27.1866 34.4383 27.5236 34.4777 27.8606 34.517C28.3829 34.9214 28.9053 35.3257 29.422 35.7301C28.8772 36.2075 28.4672 36.567 27.9954 36.977C28.2931 37.0612 28.5065 37.1174 28.8772 37.2185C27.9898 37.9037 27.4506 38.6395 28.2762 39.3078C27.6303 40.2402 27.0687 41.0489 26.5239 41.8633C26.507 41.8858 26.6811 42.015 26.7429 42.1105C27.3888 43.0765 28.1751 43.5595 29.1524 42.8069C29.2759 43.2562 29.3658 43.6044 29.4613 43.9583C29.905 43.7112 30.3487 43.4584 30.5677 43.3405C31.2586 43.4809 31.8202 43.5707 32.3706 43.7168C32.9323 43.8684 33.4771 44.0706 34.3926 44.3683C34.6678 44.3514 35.3811 44.2335 36.0775 44.2784C37.3075 44.3571 38.5263 44.5986 39.7563 44.6547C41.1492 44.7165 42.5533 44.6042 43.9518 44.6547C46.1984 44.7446 48.4394 44.9075 50.686 45.0367C50.686 45.0928 50.6523 45.3961 50.6074 45.896C52.5844 44.5087 51.8823 42.6047 52.1294 40.9366C52.4046 39.0495 52.8933 37.1904 53.3651 34.9831C51.8261 34.9944 50.3209 35.0337 48.8157 35C48.2934 34.9888 47.6362 34.9831 47.2712 34.6855C46.0075 33.652 44.5135 34.5451 43.1655 34.062C42.2332 33.7307 41.1155 33.9666 40.0933 33.8318C37.886 33.5509 35.6844 33.2308 33.4939 32.8433C32.9828 32.7534 32.5335 32.3153 32.0561 32.0345C32.0786 31.866 32.1066 31.7031 32.1291 31.5346C31.618 31.8323 30.8261 32.0233 30.6464 32.4557C30.1858 33.5678 29.3939 33.6296 28.4447 33.5397C28.6581 32.1917 28.1358 31.5402 26.7261 31.3324C25.7713 31.192 24.8782 30.6191 23.6932 30.1305C22.8394 30.6753 19.5201 29.4677 17.9194 27.5581C17.8295 27.9232 17.7509 28.2321 17.661 28.5916C17.0657 28.5073 16.4984 28.4231 15.9368 28.3445C15.128 27.6649 14.3024 26.9965 13.5217 26.2888C13.2802 26.0698 13.0387 25.744 12.9937 25.4351C12.96 25.2273 13.2296 24.8173 13.4318 24.7667C13.6733 24.6994 14.0159 24.8791 14.2631 25.0307C14.3698 25.0981 14.3754 25.5137 14.4035 25.5081C14.6843 25.48 14.9595 25.4014 15.0381 25.3789C15.2291 25.8283 15.3751 26.1821 15.5829 26.682C16.1446 25.5868 16.5321 24.7443 16.9983 23.9467C17.7341 22.6886 18.6102 21.5092 19.2505 20.2118C19.6886 19.3188 20.576 18.5886 20.43 17.4204C20.4187 17.3361 21.0759 17.2126 21.3792 17.0272C21.5982 16.8924 21.924 16.5948 21.8903 16.4319C21.8229 16.123 21.5364 15.859 21.4241 15.6905C20.649 16.0163 19.756 16.2016 19.1269 16.7071C18.4361 17.2575 17.3072 17.3024 17.0994 18.5549C17.0151 19.0548 16.1502 19.4479 15.6054 19.8467C15.3976 19.9984 14.937 19.9703 14.8753 20.1331C14.2238 21.7732 13.2184 23.0256 11.3593 23.5985C11.6907 23.6996 11.9322 23.7726 12.2524 23.8737C11.8985 24.1714 11.6065 24.4185 11.2976 24.6769C11.7581 24.9465 12.185 25.1936 12.8758 25.598C11.3818 25.8114 10.3091 25.9574 9.10152 26.1316C9.88782 28.1816 8.08493 28.7994 7.20876 29.9901C7.3941 30.0743 7.65246 30.1923 7.54575 30.1417C7.09081 30.7876 6.75944 31.2089 6.48423 31.6638C6.39437 31.8154 6.51793 32.1749 6.42245 32.2367C5.25984 32.9556 6.27642 34.9045 4.65887 35.3651C4.61956 35.3763 4.65887 35.7358 4.69257 35.9267C4.79929 36.4266 4.93408 36.9208 5.08011 37.5218C5.29915 37.5218 5.64176 37.4151 5.76532 37.5386C6.98972 38.7293 8.52863 38.6676 10.0507 38.6507C10.6067 38.6507 11.2133 38.9315 11.2021 37.7464C11.1965 36.9995 11.0785 35.5223 12.5725 35.337V35.3538ZM53.6403 54.9778V55.9495C53.5953 56.5505 53.0337 56.9942 52.4889 56.6628C51.1522 55.8428 51.2533 56.7414 51.1185 57.6063C50.9893 58.4207 50.8208 59.8305 50.4613 59.9035C48.2428 60.336 50.1187 61.1504 50.2142 61.8468C49.8435 61.7738 49.4841 61.7064 49.0516 61.6278C49.0628 63.1105 49.3717 64.7168 47.0409 64.9471C47.5464 65.256 47.8216 65.4245 48.0856 65.5874C48.0238 65.7278 48.0013 65.8289 47.9451 65.8907C47.097 66.8286 46.7544 67.8284 47.2206 68.0811C48.0575 68.5417 48.9617 68.8899 49.7593 69.4066C50.4052 69.8278 50.9331 70.4288 51.6239 71.0522C52.6124 70.7152 53.747 71.4735 53.9099 72.8607C54.0166 73.7762 54.0559 73.7201 54.9657 73.4505C55.3364 73.3438 55.8869 73.692 56.2856 73.9447C56.3923 74.0121 56.2463 74.4839 56.1508 75.3151C56.7181 74.7479 56.9933 74.439 57.3022 74.1694C57.6223 73.8942 57.9706 73.647 58.3132 73.3999C58.4592 73.2932 58.7063 73.2539 58.7737 73.1191C59.3298 71.9733 59.6106 70.5692 60.4587 69.7267C61.4584 68.7214 61.7729 67.6149 62.0481 66.3793C62.0538 66.3512 62.1605 66.3512 62.1773 66.3175C62.9973 64.6719 63.8173 63.0263 64.6317 61.3806C64.6317 60.9762 64.6317 60.5719 64.6317 60.1675C65.1765 59.6676 65.7213 59.1677 66.1819 58.7465C66.1819 57.9321 66.0022 57.0672 66.2212 56.3146C66.5919 55.0396 67.2265 53.8377 67.7096 52.5908C67.7826 52.4055 67.5804 52.1303 67.5691 51.8944C67.5523 51.5237 67.4961 50.8553 67.6141 50.816C68.7149 50.4566 67.8612 49.4961 68.2544 48.912C68.5015 48.547 68.4397 47.9909 68.5745 47.536C68.7205 47.0474 68.934 46.5756 69.1361 46.0589C68.3274 46.3397 67.8163 46.6205 67.2883 46.6767C66.6087 46.7441 65.8112 46.8339 65.2495 46.5475C64.306 46.0645 63.8117 47.1878 63.3624 47.0474C61.5988 46.5082 59.7004 47.6259 58.0267 46.525C57.9537 46.4801 57.8077 46.4632 57.7347 46.5026C56.2407 47.3956 54.2412 46.9294 52.9101 48.3672C52.2923 49.0356 52.3092 48.9457 52.736 49.9398C53.0449 50.6588 52.9213 51.5686 52.9944 52.3886C52.0845 51.9562 52.3148 52.7032 52.2081 53.13C52.0676 53.686 51.8767 54.2252 51.7587 54.6071C52.2923 54.7139 52.9607 54.843 53.6346 54.9722L53.6403 54.9778ZM55.0163 26.3787C56.3755 27.2661 56.3923 27.8839 55.3589 28.7432C55.5948 29.1869 55.8138 29.6025 55.9486 29.8553C55.3589 30.2765 54.9096 30.5967 54.303 31.0291C54.8366 31.1808 55.0893 31.2538 55.3758 31.338C54.7692 32.0963 55.0331 33.0567 55.8475 33.1971C57.3022 33.4498 58.7569 33.7531 60.2228 33.8542C61.1664 33.916 62.1268 33.6296 63.0816 33.5566C63.2894 33.5397 63.514 33.7981 63.441 33.7531C65.0867 33.7531 66.5469 33.8037 68.0016 33.7307C68.7261 33.6913 69.5237 33.5678 70.1134 33.2027C70.4448 33.0005 70.4223 32.2311 70.6133 31.4953C70.5627 31.5065 70.8099 31.4391 70.8211 31.4391C70.8211 30.4675 70.8885 29.6194 70.8042 28.7825C70.6301 27.0695 70.5122 25.3396 70.383 23.6434C70.237 21.7395 70.5684 19.9141 69.2766 18.9705C67.6422 19.1783 66.4234 19.3019 65.2215 19.5041C63.9409 19.7175 62.7727 19.7625 61.4472 19.3075C60.4699 18.9705 59.1781 19.5322 58.0211 19.6951C58.0211 19.5827 58.0211 19.4704 58.0211 19.3637C57.0719 19.9197 56.1284 20.4701 55.3814 20.9082C55.6847 21.6608 55.9093 22.2169 56.134 22.7673C55.9767 22.728 55.8251 22.6943 55.6678 22.6549C55.3252 23.3233 54.8478 23.9636 54.7018 24.6713C54.64 24.9521 55.3084 25.3846 55.6453 25.7496C55.7689 25.8844 55.8981 26.0192 56.0216 26.154C55.7521 26.2158 55.4768 26.2776 55.0051 26.3843L55.0163 26.3787ZM29.5848 62.5769C29.5848 62.6556 29.5848 62.7342 29.5848 62.8128C27.8325 62.4365 26.0858 62.0602 24.3334 61.6783C25.5017 62.796 24.2492 63.4026 24.311 64.0653C24.53 65.0594 24.7491 66.0592 24.9849 67.16C24.5637 66.8455 24.193 66.5759 23.9627 66.4018C24.1369 67.2836 24.1088 68.3788 24.5862 69.1707C25.0355 69.9233 26.0128 70.367 26.7598 70.9455C26.7598 70.9062 26.7485 70.8669 26.7485 70.8276C29.6579 72.3215 32.5672 73.8155 35.5102 75.332C35.4316 75.6409 35.353 75.9554 35.353 75.9666C36.3415 76.5227 37.1896 77.0001 38.0377 77.4719C37.9759 77.5449 37.9085 77.6235 37.8467 77.6965C38.3915 77.792 38.9307 77.8931 39.2621 77.9493C39.981 76.5788 40.6718 75.2533 41.3514 73.9559C41.6491 74.1188 41.8569 74.2311 42.2613 74.4558C42.1602 73.6133 42.0871 73.0124 42.0085 72.3609C42.368 72.4395 42.6039 72.49 42.4803 72.4676C43.0869 71.2825 43.6317 70.1985 44.3394 68.8169C39.5204 66.7725 34.5554 64.6663 29.5905 62.5657L29.5848 62.5769ZM54.9657 40.785C54.23 41.1781 53.7133 41.4533 53.4605 41.5937C53.9379 42.2453 54.2974 42.7283 54.8029 43.4191C54.0053 43.4191 53.6908 43.4191 53.7189 43.4191C53.9885 44.0032 54.2862 44.6547 54.5782 45.2894C55.8981 45.0423 57.4482 44.4525 59.0152 45.3905C59.1837 45.4916 59.4421 45.4972 59.6443 45.4691C60.981 45.2782 62.3065 45.031 63.6488 44.8682C64.5756 44.7502 65.7382 44.3627 66.3953 44.7558C67.3726 45.3456 67.7489 44.8008 68.4453 44.4862C69.3103 44.0931 69.2878 43.3854 69.4282 42.689C69.6697 41.487 69.9056 40.2851 70.1303 39.0776C70.2763 38.2969 70.2201 37.4375 70.5515 36.7523C71.1132 35.5841 70.1583 35.3931 69.5798 34.9607C69.5349 34.927 69.1418 35.5616 68.8609 35.6122C67.85 35.7919 66.8222 35.9436 65.8 35.9155C65.2495 35.9042 64.7104 35.5055 64.0027 35.219C63.9072 35.2808 63.5028 35.7638 63.0928 35.7751C61.5427 35.8144 59.9869 35.7358 58.4367 35.6347C56.6844 35.5167 54.859 35.1292 54.0053 37.4881C54.2637 37.4488 54.4771 37.4151 54.6119 37.3982C54.7973 38.2744 54.9826 39.1674 55.1792 40.111C54.6793 39.9818 54.2749 39.8751 53.8705 39.7684C53.8481 39.847 53.8256 39.9256 53.8031 40.0043C54.157 40.2402 54.5052 40.4761 54.9657 40.785ZM9.68001 64.9977C9.44412 65.0875 9.1633 65.1942 9.15768 65.1942C9.27001 66.1153 9.35426 66.8118 9.42727 67.4184H16.3131C16.4198 67.6543 16.549 67.9575 16.6838 68.2608C18.262 67.424 18.9135 69.2381 20.1997 69.5021C20.3008 69.0471 20.3963 68.6147 20.5086 68.1204C21.0983 68.3844 21.7049 68.6596 22.7159 69.1201C22.4856 68.1204 22.0138 67.3116 22.2441 66.896C23.1427 65.3066 22.5137 63.689 22.5586 62.1052C22.5979 60.7235 21.4634 60.0664 20.0256 60.364C19.4527 60.482 18.8574 60.5999 18.2789 60.5606C18.0261 60.5438 17.7958 59.926 17.5599 59.9316C16.1951 59.9484 14.8303 60.1562 13.4655 60.1338C12.5163 60.1169 11.5672 59.8361 10.618 59.6901C10.208 59.6283 9.79234 59.6002 9.37672 59.5609C9.43289 59.9428 9.48905 60.3247 9.55084 60.7291C9.42727 60.7628 9.197 60.8302 8.87124 60.9257C10.9774 62.4084 9.02289 63.0431 7.91082 64.2113C8.70836 64.0148 9.06782 63.9249 9.43289 63.835C9.50029 64.1496 9.59015 64.5708 9.68001 64.9977ZM9.93276 40.6895C9.5059 40.7232 8.74768 40.8524 8.73083 40.7794C8.47247 39.8133 7.6637 40.1615 7.06835 39.9874C6.25396 39.7459 5.47888 39.3696 4.67011 39.1337C4.38367 39.0495 4.02983 39.1955 3.62544 39.2517C3.90627 39.8077 4.11408 40.2289 4.36682 40.7344H3.46256C3.66476 41.2455 3.85572 41.7342 3.8838 41.8016C3.16489 42.3744 2.70995 42.7451 2.10899 43.2225C3.47941 43.4977 4.04106 43.9695 3.05256 44.6884C3.19297 45.441 3.54119 46.1262 3.32777 46.4464C2.96831 46.9856 3.04133 47.2608 3.19297 47.8505C3.36147 48.4964 4.37805 49.7489 2.58639 49.9848C3.97366 51.1474 4.70942 55.371 3.70969 56.7976C4.11969 56.7077 4.43422 56.6403 4.41737 56.6459C5.10819 57.5053 5.67546 58.2073 6.48423 59.2183C7.0515 58.1118 7.65808 57.2694 7.89959 56.337C8.07932 55.6462 7.43904 54.6352 7.74794 54.1073C8.88809 52.1584 6.93355 49.6983 8.87686 47.9628C8.90494 47.9404 8.88809 47.8617 8.89371 47.8112C9.13521 46.2161 8.83192 44.5649 9.86536 43.0484C10.2697 42.4587 9.93276 41.3579 9.93276 40.6839V40.6895ZM41.0874 77.9605C41.0649 78.2357 40.9975 78.4997 41.0425 78.7468C41.0874 79.0052 41.2503 79.4657 41.3289 79.4601C42.6319 79.3702 44.0866 79.5331 45.2043 79.0052C47.3442 77.9942 49.8772 78.4042 51.8598 76.8428C52.6012 76.2587 53.8031 76.2475 54.8815 75.9498C54.786 75.6914 54.7692 75.332 54.5838 75.1972C53.3707 74.3154 52.1407 73.4561 50.8769 72.6473C50.085 72.1418 49.2257 71.7487 48.3945 71.3106C47.889 71.041 47.3835 70.777 46.878 70.513L46.9679 69.9626C46.3051 70.2996 45.648 70.6366 45.0133 70.9624C45.2661 71.2656 45.4121 71.4398 45.6031 71.6644C44.1315 71.7094 43.7159 72.7147 44.272 74.2255C43.1543 75.5342 42.1208 76.7473 41.0874 77.9661V77.9605ZM71.1356 43.655C71.9051 44.6547 72.7476 44.0032 73.6013 43.7168C74.4213 43.4416 75.2918 43.1664 76.05 44.0875C76.4151 43.6662 76.8195 43.2001 77.2014 42.762C77.6564 43.1776 78.0664 43.5539 78.6786 44.1099V34.1351C77.589 34.4271 76.3814 34.8203 75.1514 35.0618C74.1067 35.264 73.034 35.2977 72.0006 35.3988C72.4218 36.4266 72.697 37.1062 73.0508 37.9599H71.5288C71.9275 38.2519 72.2702 38.5103 72.888 38.9652C72.023 38.8922 71.5737 38.8529 71.1188 38.8136C71.0963 38.9259 71.0738 39.0439 71.057 39.1562C71.467 39.3247 71.8826 39.4932 72.3881 39.701C70.6751 40.6502 73.2137 42.7002 71.1469 43.6606L71.1356 43.655ZM78.0664 32.7365C77.9765 31.6301 77.8979 30.5293 77.7799 29.4284C77.7575 29.2038 77.5834 28.9847 77.4598 28.7769C77.0666 28.1198 76.4432 27.5076 76.3196 26.7999C76.0557 25.3228 75.6288 23.5648 74.9548 22.6325C74.1292 21.4811 74.0618 18.9481 71.4052 19.3468C71.4895 19.6726 71.4726 20.0882 71.6748 20.3073C72.0174 20.6948 72.4892 20.9644 72.9104 21.2845C72.8543 21.3688 72.7925 21.453 72.7363 21.5373C72.2982 21.5092 71.8658 21.4811 71.0289 21.4249C73.1913 22.5033 73.2867 23.767 71.54 24.9633C72.0792 24.9184 72.4836 24.8791 73.0284 24.8341C72.5847 25.2554 72.2589 25.5699 71.8995 25.9125C73.4833 26.6314 73.5563 27.238 72.4218 28.4568C72.7026 29.0577 72.9722 29.6306 73.2193 30.153C72.8374 30.2541 72.5341 30.3327 72.2308 30.4113C72.6184 31.4672 73.0059 32.5287 73.3317 33.4218C74.1067 33.1971 74.7863 32.8601 74.8874 32.9893C75.8535 34.2081 76.5275 33.2364 77.3194 32.7927C77.6002 32.6354 78.0271 32.7309 78.0664 32.7309V32.7365ZM23.5359 74.776C23.8111 75.1579 24.0582 75.3713 24.1537 75.6409C24.8052 77.4719 26.917 78.8928 28.8716 79.0052C30.8036 79.1119 32.7188 79.4376 34.6453 79.6174C35.2238 79.6735 35.8191 79.5556 36.4089 79.5219C36.465 79.3309 36.5268 79.1343 36.583 78.9434C34.5386 77.7415 32.5223 76.4778 30.4386 75.3488C28.4559 74.2761 26.3891 73.3494 24.3615 72.3609C24.867 73.692 24.6255 74.6636 23.5303 74.7816L23.5359 74.776ZM23.7044 73.9222C23.0473 73.2707 22.4968 72.9674 22.334 72.5237C21.7835 71.041 20.7276 70.5692 19.2449 70.5524C18.6832 70.5467 18.1384 70.1592 17.5656 70.0076C15.7627 69.5358 13.9485 69.0977 11.7693 68.5473C12.2748 69.255 12.5107 69.7548 12.8926 70.0862C14.5102 71.4959 16.1558 72.872 17.8183 74.2312C18.4642 74.7591 19.1269 75.5286 19.8515 75.6184C21.132 75.7813 21.8566 76.1688 21.8116 77.7527C23.1371 76.2194 22.2329 74.8995 21.8229 73.5291C22.3115 73.6302 22.7777 73.7257 23.7044 73.9166V73.9222ZM7.86027 59.7013H5.18121C6.05176 60.5606 6.83246 61.3301 7.86027 62.341V59.7013Z" fill="black"/>
</svg>
