<svg width="190" height="77" viewBox="0 0 190 77" fill="none" xmlns="http://www.w3.org/2000/svg">
<path d="M41.1384 36.5237C41.0372 35.6036 40.9639 34.6806 40.8304 33.7641C40.6586 32.5851 40.4135 31.4189 40.2608 30.2425C40.1956 29.735 40.2825 29.206 40.3106 28.4824C38.2706 29.2494 36.3786 29.9581 34.1988 30.7732C34.9752 30.9826 35.4137 31.0982 36.1418 31.2942C35.0527 31.9006 34.8772 32.2193 35.8035 32.8989C36.526 33.4278 36.9563 34.4052 37.3991 35.2409C37.5293 35.4886 37.2751 35.9423 37.194 36.3115C36.7554 36.2802 36.3769 36.2001 36.0076 36.2454C35.6562 36.2841 35.3201 36.4614 35 36.5714C34.1124 35.2653 33.9281 33.8865 33.8903 32.3933C33.875 31.8288 33.7609 30.6201 32.5173 30.6726C32.4526 30.6797 32.2641 30.2419 32.3186 30.1844C33.6151 28.8254 32.7431 27.3631 32.5578 25.9329C32.4652 25.2178 32.4095 24.4987 32.3354 23.7816C32.4432 23.7838 32.5506 23.7813 32.6584 23.7835C32.3056 23.3403 31.9522 22.8926 31.5558 22.3934C32.1209 22.2985 32.4882 22.2347 32.6808 22.1995C32.3613 21.8042 32.0638 21.4391 31.6633 20.9451C32.4098 21.1812 32.914 21.341 33.4187 21.5054C33.5564 21.4388 33.6936 21.3676 33.8314 21.301C33.7573 21.8191 33.6833 22.3373 33.6387 22.6557C33.9078 23.1455 34.4793 23.705 34.3751 24.0767C33.9166 25.6946 35.2907 26.8724 35.1232 28.2852C36.5433 27.8811 37.9053 27.5864 39.1617 27.0552C39.4166 26.9476 39.2981 25.9547 39.3368 25.3702C39.3399 25.3137 39.1716 25.2293 39.1865 25.1949C39.7173 23.7235 38.6669 22.4258 38.7517 21.0268C38.7811 20.5276 39.192 20.0519 39.4335 19.5669C39.5634 19.5572 39.6939 19.5523 39.8239 19.5427C40.3979 21.019 40.9987 22.483 41.5141 23.9798C41.6114 24.2686 41.2642 24.6857 41.2792 25.035C41.2958 25.3561 41.5219 25.6681 41.6971 26.07C41.5173 26.1365 41.2614 26.2348 40.9644 26.3424C41.0747 26.4098 41.1614 26.4751 41.2595 26.5158C41.8812 26.7656 42.1876 26.9987 42.0689 27.8773C41.9223 28.9275 42.3165 30.0446 42.4277 31.1413C42.5018 31.9006 42.4788 32.6705 42.5118 33.4389C42.5289 33.7645 42.583 34.0861 42.6491 34.6872C42.6537 34.6866 42.3474 34.7952 42.2082 34.8479C42.6677 35.4525 43.1374 36.0653 43.6026 36.6786L43.39 37.0435C42.5333 37.0394 41.6714 37.0312 40.8147 37.0271C40.9228 36.8609 41.036 36.6987 41.144 36.5324L41.1384 36.5237Z" fill="black"/>
<path d="M22.6975 27.8778C23.2395 28.2113 23.7274 30.8622 23.1054 31.333C23.8772 31.9266 23.8675 31.923 23.4913 32.9282C23.4511 33.0309 23.5233 33.2195 23.609 33.3177C24.1255 33.93 24.3582 35.238 23.9758 35.8883C23.7082 36.3482 23.3569 36.7705 22.9769 37.1445C22.8797 37.2394 22.3836 37.1535 22.318 37.0251C22.109 36.6129 21.7973 36.0763 21.9107 35.7035C22.3078 34.3778 22.2979 33.1811 21.4847 31.9977C21.3293 31.7762 21.6571 31.2676 21.5876 30.9336C21.4844 30.463 21.0432 30.0249 21.0653 29.5873C21.0863 29.1405 20.1111 28.5692 21.1589 28.1827C21.2488 28.1494 21.3207 27.7391 21.2366 27.6126C20.343 26.2089 20.4188 24.6003 20.2624 23.05C20.2213 22.6755 18.9544 22.4311 20.4867 21.8977C20.3363 21.8066 20.1864 21.7201 20.036 21.629C19.3362 21.9025 18.6311 22.1718 17.9379 22.4633C17.8531 22.5006 17.7871 22.7512 17.7676 22.744C16.0826 22.1431 14.6451 23.2838 13.0713 23.396C12.6999 23.4227 12.3113 23.2081 11.9349 23.1044C12.0483 22.8159 12.2869 22.5183 12.2616 22.245C12.1484 21.0877 13.0624 21.3147 13.6604 21.1788C15.4735 20.7736 17.313 20.5667 19.1201 20.0218C20.4246 19.6304 21.8555 19.2813 23.1979 18.9793C24.9108 18.5992 26.976 19.1676 28.4894 17.5694C28.8417 17.1985 30.1165 16.7917 30.9392 17.7213C31.4896 18.3439 31.3094 18.7474 30.7052 18.9121C29.0102 19.3698 27.1954 19.5038 25.6039 20.1794C24.7144 20.5579 23.5088 19.764 22.8745 21.0175C22.7711 21.2254 21.9089 21.0441 21.3942 21.0446C21.3273 21.1595 21.2563 21.2796 21.1894 21.3946C21.4611 21.4396 21.7373 21.4841 22.1851 21.5565C21.6702 21.8097 21.4523 21.9132 21.1989 22.0346C21.5452 22.3755 21.8921 22.6369 22.1218 22.9813C22.2449 23.1643 22.1628 23.4821 21.9586 23.7525C22.6594 24.9342 22.9578 26.2022 22.6965 27.8686L22.6975 27.8778Z" fill="black"/>
<path d="M56.2746 31.4535C55.7938 31.5063 55.5529 31.5702 55.3217 31.5535C54.4389 31.4821 53.538 31.4595 52.6748 31.269C51.7203 31.0557 50.6609 30.868 49.9029 30.315C49.1398 29.7578 48.5327 28.8326 48.1635 27.9421C47.7895 27.052 47.7913 26.0037 47.6368 25.024C47.6205 24.9182 47.6361 24.7621 47.7035 24.6939C48.2156 24.1603 49.0025 23.7416 48.4443 22.7923C49.1605 22.5825 49.0819 22.1654 49.055 21.4945C49.0296 20.7954 49.4245 19.9192 49.9193 19.3969C50.8465 18.4246 51.9722 17.6411 53.041 16.8077C53.3685 16.5518 53.7607 16.3309 54.1599 16.2168C54.4183 16.1416 54.7428 16.2838 55.0658 16.3278C55.3421 15.4365 55.9842 15.4454 57.3953 16.6192C56.1577 16.8535 55.742 18.7334 54.4515 18.0611C54.0382 18.3873 53.8211 18.7106 53.5838 18.7226C52.6212 18.777 52.2397 19.5208 51.7459 20.1366C51.3586 20.6143 50.942 21.0812 50.645 21.6145C50.5004 21.8737 50.5579 22.2698 50.5894 22.5986C50.6377 23.0378 50.7507 23.4699 50.8252 23.85C52.1283 23.8706 53.4493 23.9266 54.7714 23.9076C55.5418 23.893 56.3378 23.5997 57.0808 23.7192C58.0766 23.8811 59.0278 24.3193 59.9941 24.6389C59.958 24.7786 59.9218 24.9182 59.8811 25.0584L57.1198 25.5632C57.1469 25.6818 57.1688 25.7964 57.1412 25.6731C56.6621 25.6135 56.1901 25.5343 55.7146 25.5071C54.7921 25.4587 53.8447 25.3102 52.9539 25.4643C52.2742 25.5811 51.7948 25.3063 51.2237 25.2193C51.0384 25.1929 50.6112 25.9043 50.5219 26.3259C50.3907 26.9205 50.4711 27.5667 50.4531 28.4671C51.6109 28.8686 53.0032 29.4033 54.4316 29.7984C54.7068 29.8758 55.4328 30.1797 55.6439 29.2487C55.7105 28.9607 56.9669 28.9396 57.5623 28.8226C57.8262 30.202 56.673 30.7359 56.2798 31.4576L56.2746 31.4535Z" fill="black"/>
<path d="M132.511 50.5206C131.555 50.0829 131.242 49.1909 131.739 47.7138C131.897 47.2378 131.848 46.663 132.094 46.257C132.311 45.8962 132.805 45.7016 133.193 45.4483C133.359 45.3412 133.596 45.3199 133.731 45.188C134.826 44.1271 136.027 43.9811 137.355 44.7007C137.449 44.7512 137.587 44.7267 137.703 44.7186C139.37 44.6009 139.385 44.6132 139.317 46.2865C139.032 46.2523 138.757 46.2171 138.478 46.1869C138.456 46.2455 138.434 46.304 138.413 46.3625C138.533 46.4382 138.64 46.5575 138.769 46.5807C139.504 46.7151 139.967 47.689 139.527 48.2381C139.272 48.5608 138.961 48.8383 138.67 49.1323C138.393 49.4155 138.11 49.6946 137.823 49.9788C139.097 50.4985 140.726 50.4691 141.385 52.1607C142.309 54.5204 142.309 55.035 141.044 55.9976C142.911 57.0605 140.501 57.7793 140.966 58.7388C140.351 58.7596 139.866 58.7755 139.419 58.7919C139.455 58.9984 139.545 59.1711 139.509 59.3154C139.207 60.5652 138.1 60.7617 137.109 61.1046C136.888 61.1804 136.661 61.2474 136.447 61.3412C135.907 61.583 135.374 61.8381 134.67 62.1635C134.643 62.2132 134.484 62.5115 134.324 62.8051C133.913 62.4666 133.433 62.1826 133.103 61.779C132.615 61.1775 132.244 60.4836 131.787 59.8508C131.715 59.7557 131.453 59.7985 131.263 59.7726C131.457 59.3255 131.647 58.8835 131.864 58.3824C132.389 58.6476 132.874 58.889 133.132 59.0198C133.091 57.7095 133.087 56.3109 132.985 54.9183C132.888 53.5253 132.694 52.1429 132.515 50.5155L132.511 50.5206ZM135.11 51.4328C135.004 52.1697 133.913 53.1412 135.375 53.8415C135.395 53.8533 135.398 53.9232 135.388 53.9617C135.074 55.3671 135.053 56.7919 135.158 58.2168C135.196 58.732 135.406 59.2331 135.555 59.8203C136.527 59.2174 137.313 58.8316 137.98 58.2997C139.077 57.4304 139.295 56.0449 139.896 54.8745C140.246 54.1857 140.058 53.7946 139.764 53.3777C139.133 52.4878 138.266 51.7082 137.165 51.7449C136.107 51.7817 135.521 51.2987 134.988 50.749C135.208 50.4113 135.415 50.164 135.548 49.8827C135.788 49.3837 135.751 48.8356 136.493 48.5247C136.945 48.3347 137.177 47.3781 137.274 46.731C137.304 46.5359 136.521 45.9669 136.175 46.0142C135.451 46.1125 134.77 46.5103 133.958 46.8334C134.798 47.6208 135.766 48.1648 134.33 48.8935C134.579 49.203 134.769 49.4441 135.019 49.7582C134.639 49.8703 134.375 49.946 133.994 50.0534C134.379 50.5305 134.71 50.9433 135.105 51.4287L135.11 51.4328Z" fill="black"/>
<path d="M106.59 52.1065C106.842 52.6076 107.184 53.2998 107.527 53.9875C108.394 53.8359 109.295 54.5371 109.346 55.2146C110.248 55.8407 111.013 56.3742 111.783 56.9073C112.527 57.4243 113.272 57.9414 114.209 58.5917C115.112 58.0761 115.212 59.2395 115.596 59.7963C115.39 60.0996 115.193 60.388 114.939 60.7621C114.944 60.7616 114.705 60.6756 114.466 60.6691C114.156 60.6611 113.739 60.8706 113.551 60.7323C111.38 59.118 109.185 57.5344 107.134 55.776C106.353 55.1037 105.663 54.4029 104.64 54.1644C104.415 54.1143 104.154 54.2131 103.915 54.2442C103.963 54.426 104.062 54.6069 104.054 54.7857C104.007 55.8108 103.872 56.8364 103.9 57.858C103.917 58.441 104.186 59.015 104.371 59.7153C104.281 59.7532 103.969 59.8905 103.808 59.9597C104.055 60.2882 104.38 60.6034 104.557 60.9816C104.741 61.3778 104.792 61.8402 104.851 62.0863C104.28 62.4672 103.766 62.8092 103.12 63.2358C102.823 62.0659 102.654 60.7837 102.155 59.6501C101.713 58.6505 102.758 57.4689 101.593 56.5769C101.353 56.3927 101.687 55.5605 101.603 55.0504C101.463 54.2002 101.198 53.3729 100.942 52.3623C101.472 51.986 102.158 51.5034 102.87 50.9994C102.463 49.5982 102.707 48.411 104.091 47.6319C104.209 47.5627 104.283 47.3815 104.338 47.2398C105.016 45.3638 106.548 44.5777 108.333 44.1709C108.639 44.0999 109.174 44.2469 109.326 44.4736C109.756 45.1095 111.09 45.2857 110.429 46.5515C110.313 46.7748 110.253 47.1183 110.594 47.5861C111.19 48.405 110.359 48.7677 109.523 48.7755C110.13 49.7428 109.299 49.937 108.757 50.1511C108.281 50.339 107.977 50.4239 107.946 51.0731C107.932 51.3741 107.23 51.6337 106.58 52.1029L106.59 52.1065ZM109.474 46.9325C108.933 46.5194 108.642 46.2987 108.443 46.1475C107.973 46.3817 107.545 46.5738 107.14 46.8055C106.801 47.0018 106.198 47.2646 106.212 47.4736C106.268 48.5857 105.569 48.7796 104.953 48.8379C104.749 49.7447 104.575 50.5499 104.381 51.4182C104.804 51.1845 105.194 50.9872 105.563 50.7642C105.896 50.5638 106.264 50.3783 106.519 50.0976C107.353 49.173 108.669 48.5839 108.704 47.0734C108.7 47.041 109.02 47.0152 109.479 46.9366L109.474 46.9325Z" fill="black"/>
<path d="M186.405 40.4783C187.481 41.0713 187.511 41.7698 187.087 42.7242C186.709 43.5846 186.768 44.6263 186.553 45.567C186.418 46.1668 186.134 46.736 185.753 47.2692C185.885 48.8175 185.577 49.7591 184.533 50.1359C184.541 50.5093 185.429 51.3101 184.169 51.2942C184.127 51.2942 183.96 51.8646 184.058 52.0692C184.352 52.6638 184.391 53.0572 183.592 53.1498C183.513 53.1584 183.379 53.2574 183.381 53.318C183.379 53.4305 183.521 53.5693 183.488 53.6571C183.138 54.5987 180.933 55.0985 180.033 54.4487C181.516 53.3826 181.641 52.6436 181.041 50.6788C180.756 49.7416 180.855 48.6873 180.713 47.6968C180.565 46.6884 180.175 45.6926 180.163 44.6925C180.149 43.3324 179.407 42.1086 179.749 40.6298C179.936 39.8185 179.113 38.8 178.835 37.8479C178.716 37.4446 178.693 36.895 178.885 36.5557C179.065 36.2364 179.584 36.1045 179.965 35.9082C180.062 35.8555 180.222 35.9034 180.304 35.8383C180.587 35.6059 180.862 35.1265 181.116 35.1407C182.472 35.2209 183.893 35.2051 184.946 36.2731C185.12 36.4505 185.036 36.8808 185.048 36.9825C185.648 37.4594 186.434 37.8034 186.689 38.379C186.944 38.9545 187.561 39.8787 186.405 40.4783ZM180.177 36.8536C181.188 38.196 181.534 39.3543 181.214 40.3284C181.457 40.5403 181.726 40.7774 181.985 41.0017C181.729 41.4416 181.505 41.8311 181.336 42.1258C182.788 42.6072 180.977 43.8403 182.064 44.4461C182.493 44.6845 182.454 45.8257 182.549 46.5639C182.655 47.3524 182.668 48.1511 182.717 48.9365C184.645 48.9865 183.005 46.6214 184.41 46.5044C184.442 45.1392 184.473 43.8819 184.517 42.6231C184.519 42.5573 184.601 42.4547 184.665 42.4383C185.983 42.0408 185.34 40.7077 185.212 40.3054C184.358 37.6479 182.934 36.7844 180.181 36.8484L180.177 36.8536Z" fill="black"/>
<path d="M53.6217 50.7374C54.3152 51.0869 54.7288 51.4017 55.1904 51.5148C56.6661 51.8719 58.0349 52.4046 59.0633 53.5877C59.1597 53.6987 59.3522 53.7899 59.3649 53.9054C59.4884 55.0289 59.4792 55.0299 59.9304 55.6868C59.8412 56.4079 59.7779 56.9389 59.7095 57.4658C59.8194 57.4865 59.9288 57.5025 60.0387 57.5232C59.7336 57.9825 59.5325 58.6223 59.11 58.8652C57.9608 59.5203 59.3405 60.2811 58.8973 61.1439C58.4654 61.9822 58.1125 62.4327 57.6322 62.4902C57.5501 63.276 57.4851 63.9195 57.4093 64.6343C56.6091 64.5913 56.3479 64.854 55.932 65.5828C55.3402 66.6258 54.052 67.4646 52.8763 67.9214C51.9205 68.2932 51.8801 66.8611 51.3815 66.2842C51.3328 66.2241 51.934 65.6059 52.4174 65.024C52.3044 64.634 52.087 63.8905 51.8384 63.0335C52.0116 62.8647 52.2693 62.6118 52.4091 62.4795C52.3486 61.9293 52.2681 61.4515 52.2476 60.9672C52.2247 60.2912 52.2902 59.6102 52.2304 58.9383C52.1894 58.4796 51.6404 57.913 52.6185 57.8288C52.6012 57.6295 52.6457 57.3954 52.5539 57.2417C51.9983 56.2734 52.2548 55.2017 52.1564 54.1785C52.1345 53.9797 52.386 53.7555 52.5167 53.5399C52.0281 53.224 51.1199 53.7309 51.1373 52.4844C51.1521 51.2147 52.1062 51.3812 52.7266 51.0229C53.0566 50.8322 53.4722 50.7819 53.6165 50.7332L53.6217 50.7374ZM58.1117 56.0412C57.3298 54.5035 56.1173 53.4342 54.5282 53.3656C54.4055 54.6331 54.2597 55.9031 54.1611 57.1773C54.1241 57.6914 53.9795 58.3764 54.239 58.6941C54.9924 59.6314 54.3713 60.1535 54.0607 60.4778L54.4866 64.352C55.0076 63.7707 55.6907 63.3447 55.8609 62.7645C56.44 60.7964 57.6163 58.9826 57.4806 56.8124C57.468 56.6126 57.8129 56.3875 58.1112 56.0366L58.1117 56.0412Z" fill="black"/>
<path d="M168.143 47.1697C168.158 47.215 167.963 46.8059 168.032 46.7561C169.193 45.908 170.352 45.0413 171.587 44.316C172.765 43.625 174.018 43.0614 175.267 42.5077C176.079 42.147 176.942 41.9118 177.835 41.6031L178.006 43.1611C177.051 44.1318 176.025 45.0587 174.818 44.6392C174.06 45.0595 173.569 45.4878 173.02 45.5996C172.278 45.7513 171.64 45.6905 171.447 46.7411C171.362 47.209 170.392 47.4513 170.073 47.9496C169.626 48.6538 169.411 49.5057 169.028 50.4508C171.634 49.9772 174.167 49.521 176.676 49.0673C176.838 49.6017 176.959 50.0189 177.025 50.2408C176.551 50.4801 176.05 50.7318 175.549 50.9834L175.639 51.1232L169.231 51.8276C169.206 52.7895 169.192 53.3853 169.18 53.92C170.239 53.9767 171.551 54.1226 172.858 54.0866C173.562 54.0654 174.254 53.6758 174.966 53.56C176.01 53.3892 177.073 53.3144 178.127 53.1986L178.323 53.79C177.38 54.4458 176.469 55.6081 175.492 55.664C173.14 55.8009 170.682 56.5998 168.386 55.2894C167.277 54.6579 166.544 53.26 166.65 52.0177C166.678 51.7198 166.584 51.412 166.551 51.1115C166.527 50.8988 166.419 50.6393 166.5 50.4761C166.75 49.99 167.11 49.5574 167.355 49.0672C167.616 48.5472 167.803 47.9886 168.134 47.1708L168.143 47.1697Z" fill="black"/>
<path d="M60.2371 63.1584C61.7687 62.7046 63.0003 62.3305 64.2396 61.9838C64.5803 61.8902 65.2243 61.9597 65.2614 61.8293C65.4306 61.1978 65.5054 60.5157 65.4892 59.8578C65.472 59.1906 65.3012 58.5309 65.1998 57.8635C65.1014 57.224 64.9989 56.5895 64.9051 55.9494C64.7777 55.0884 64.3264 54.0899 64.6148 53.3938C65.0908 52.2325 64.5789 51.236 64.5518 50.1815C64.5415 49.7896 64.0689 49.4064 63.827 49.3768C63.0143 49.5176 62.1834 49.8336 61.393 49.752C60.4707 49.6615 59.9815 48.9573 60.1113 48.2225C61.5046 47.9149 62.7788 47.5877 64.0692 47.3663C65.2498 47.1663 66.4527 47.1276 67.6333 46.9277C68.4553 46.7859 69.242 46.4514 70.0604 46.2772C70.9431 46.0913 71.84 45.9927 72.815 45.8387C72.5479 47.5806 71.2336 47.5847 70.2316 47.9195C69.0899 48.3023 67.898 48.5269 66.6817 48.5717C66.4219 48.9325 66.1569 49.2891 65.9131 49.6248C66.0441 50.0502 67.3249 50.1668 66.1961 50.9646C66.0701 51.0534 66.6303 52.1054 66.9155 52.8274C66.6454 52.8384 66.3798 52.8488 66.3705 52.8499C66.6733 53.9864 66.9745 55.109 67.2777 56.2501C66.9981 56.4727 66.6629 56.7435 66.3056 57.0261C66.6587 57.2165 67.0895 57.347 67.0832 57.46C67.0424 58.536 68.0683 59.6959 66.8622 60.6848C67.4398 61.2997 67.9501 61.0471 68.7002 60.8477C69.9364 60.5153 71.3066 60.6782 72.6215 60.6366C72.6665 60.8328 72.7068 61.0296 72.7518 61.2258C72.2025 61.4219 71.6517 61.6041 71.1147 61.8269C70.6491 62.0185 70.1974 62.2506 69.6231 62.2623C69.0886 62.5503 68.824 63.4637 67.9394 62.6953C67.8825 62.6455 67.4762 63.1206 67.1941 63.1937C65.9014 63.523 64.5939 63.8024 63.2926 64.0952C62.859 64.1943 62.3435 64.4849 62.0005 64.3448C61.3839 64.0991 60.8699 63.5941 60.2453 63.1481L60.2371 63.1584Z" fill="black"/>
<path d="M130.256 39.8427C129.195 40.3197 128.161 40.8311 127.083 41.2443C126.464 41.4809 125.787 41.5787 125.128 41.712C124.34 41.8687 123.54 41.9941 122.667 42.1462C123.393 43.4982 123.311 44.6848 122.422 45.7058C122.707 46.208 122.973 46.6747 123.235 47.1372C122.932 47.2828 122.631 47.4329 122.342 47.5723C123.613 48.111 122.822 49.3818 123.164 50.2847C123.236 50.4732 122.707 50.8964 122.559 51.0811L122.753 52.8426L127.237 52.3496C127.044 53.4891 126.461 53.8854 125.406 54.0809C123.251 54.477 121.147 55.1715 118.989 55.5537C118.397 55.6562 117.17 55.9876 117.15 54.6095C118.562 53.963 119.948 53.3334 121.526 52.6172C120.379 51.5968 120.922 50.7885 121.078 49.8682C121.286 48.6522 121.037 47.3602 120.977 46.0986C120.954 45.549 120.885 44.9999 120.899 44.4508C120.914 43.9018 121.008 43.3579 121.085 42.6523C120.114 42.9229 119.442 43.1091 118.497 43.3673C118.402 43.2748 118.071 43.0258 117.826 42.7112C117.701 42.5518 117.621 42.2142 117.708 42.069C117.795 41.9237 118.113 41.9215 118.331 41.8555C118.846 41.6913 119.366 41.5311 119.876 41.3581C121.189 40.9189 122.491 40.4577 123.811 40.0365C124.977 39.665 126.152 39.3299 127.33 39.018C127.485 38.9776 127.828 39.2954 127.871 39.2534C128.987 38.0451 129.615 38.9493 130.247 39.8484L130.256 39.8427Z" fill="black"/>
<path d="M86.1394 49.3992C86.1214 48.5543 86.3874 48.1648 87.5463 48.0654C88.8212 47.958 90.0568 47.2373 91.2875 46.7277C92.2007 46.3513 93.1864 45.4007 93.949 45.5695C95.0468 45.8091 95.4534 45.1234 96.1707 44.8387C96.5248 44.6968 97.0028 44.8735 97.4609 44.9121C97.718 44.2287 99.3145 43.6415 99.8825 44.1265C100.125 44.3338 99.8718 45.4332 99.5547 45.5709C98.4077 46.076 97.256 46.5816 96.1096 47.0914C95.8418 47.2097 95.5424 46.6998 95.214 47.3723C94.9545 47.9062 94.757 48.1525 94.9226 48.808C95.0565 49.3455 94.576 50.0393 94.29 50.8849C94.7194 51.2588 95.7287 51.6719 95.4289 52.9028C95.2322 53.7105 96.2917 54.7076 94.8687 55.3834C95.4407 55.5639 95.8334 55.6891 96.2211 55.8103C96.1147 55.8641 96.0129 55.9174 95.9065 55.9712C96.0113 56.4136 96.1957 56.8565 96.207 57.2998C96.2482 58.5259 96.2524 59.756 96.1431 60.9752C96.1348 61.0697 95.095 61.2308 94.633 61.071C94.2736 60.9515 93.8077 60.0762 93.838 60.0542C94.7563 59.256 94.0137 58.2474 94.0933 57.3964C94.2088 56.1906 93.691 54.928 93.4608 53.6853C93.3092 52.8597 93.2038 52.029 93.0574 51.2076C92.8895 50.2762 92.6939 49.3478 92.4804 48.2577C90.8537 49.2506 88.7432 48.7808 87.7642 50.5588C87.2034 50.4801 86.676 50.4492 86.1748 50.3171C85.8472 50.2315 85.5506 50.002 85.2426 49.8394C85.5222 49.701 85.7966 49.5586 86.1204 49.3966L86.1394 49.3992Z" fill="black"/>
<path d="M159.468 40.5713L157.771 40.7578C157.657 40.2276 157.525 39.6198 157.322 38.7156C158.329 39.232 159.066 39.8949 159.474 38.5399C159.543 38.3125 160.515 38.1729 161 38.2926C162.231 38.5878 162.217 37.9109 162.13 37.0735C162.117 36.958 162.146 36.8378 162.156 36.7197C162.583 36.7664 162.976 36.8121 163.469 36.8655C163.328 37.2039 163.213 37.4785 163.062 37.8507C164.721 37.4438 166.259 37.0501 167.806 36.6929C168.094 36.6285 168.411 36.7059 168.716 36.7191C168.685 36.9847 168.635 37.2522 168.627 37.5198C168.615 37.9235 168.631 38.3287 168.641 38.716L164.48 39.1734C164.163 39.5639 163.61 40.2423 162.959 41.0438C165.329 41.532 163.63 43.1833 164.221 44.1384C163.883 44.2129 163.605 44.2763 163.043 44.3989C163.621 44.6816 163.947 44.8376 164.274 44.9982C164.153 45.7695 164.036 46.5357 163.963 46.9835C164.035 47.64 164.075 48.0053 164.116 48.3751C164.157 48.7496 164.176 49.1359 164.277 49.4945C164.362 49.7987 164.689 50.0949 164.653 50.3655C164.6 50.7784 164.334 51.1634 163.972 51.5307C163.827 52.2157 165.341 52.7886 164.397 53.3556C164.498 54.2756 164.661 54.9502 164.617 55.6148C164.581 56.1335 164.294 56.6329 164.048 57.3337C163.536 57.4461 162.736 57.3188 162.578 56.3489C162.459 55.6086 162.662 54.8143 162.727 54.0445C162.748 53.8036 162.851 53.5536 162.812 53.3239C162.548 51.8603 162.256 50.3997 161.974 48.9381C161.933 48.7321 161.817 48.4408 161.907 48.3279C162.747 47.281 162.091 46.216 162.003 45.1543C161.96 44.6396 162.148 44.0902 162.047 43.596C161.86 42.7041 162.503 41.6648 161.603 40.8794C161.587 40.8624 161.908 40.4576 162.237 40.0049L159.504 40.3053C159.518 40.2195 159.485 40.4291 159.459 40.5723L159.468 40.5713Z" fill="black"/>
<path d="M83.0665 60.7751C82.8862 60.327 82.698 59.6365 82.3422 59.0392C81.7332 58.0113 80.4832 58.3873 79.5992 57.923C78.6758 57.4396 77.6022 57.1225 76.8453 56.4524C76.1768 55.8614 76.8977 53.8216 77.7201 53.3007C77.9782 53.1367 78.1624 52.8123 78.3133 52.5243C78.8023 51.6096 79.3348 50.8352 80.5429 51.6522C80.5305 51.2839 80.4457 50.8534 80.5259 50.8165C81.7464 50.2987 82.9735 49.7988 84.2365 49.412C84.3993 49.3613 84.7654 49.9668 85.1234 50.372C84.5543 50.3456 84.1362 50.3308 83.4449 50.2991C83.7959 50.6396 83.9688 50.8077 84.2571 51.0895C83.3718 51.3787 82.2741 51.4385 81.7012 52.0162C81.1618 52.5574 79.8715 52.1846 79.9182 53.5457C79.9311 53.9187 78.9044 54.3263 78.2839 54.7688C78.6096 55.6455 79.2108 55.8367 80.3667 56.0512C81.9376 56.3371 83.9485 56.7103 84.6437 58.6927C84.9969 59.6926 85.46 60.7553 84.5461 61.7635C84.3877 61.94 84.4253 62.2822 84.2895 62.4936C84.0059 62.9365 83.6711 63.3383 83.3367 63.7868C83.8477 64.2641 83.8421 64.2553 82.9546 64.6524C82.7937 64.7215 82.5799 64.9041 82.572 65.0454C82.4616 66.7232 81.0513 66.6209 79.9774 66.9823C78.2628 67.5591 77.2282 66.4048 76.1311 65.4492C76.0013 65.3325 75.9356 64.9046 76.0328 64.8096C76.3069 64.5362 76.7434 64.1232 77.0032 64.1883C77.7832 64.388 78.509 64.8182 79.2703 65.1041C79.5193 65.1984 79.9517 65.2585 80.0911 65.1215C80.8439 64.3931 81.7511 63.7927 82.0519 62.6554C82.2139 62.0433 82.6506 61.504 83.0516 60.7674L83.0665 60.7751Z" fill="black"/>
<path d="M151.805 38.2413C152.226 37.8535 152.613 37.4975 153.165 36.9876C153.625 37.812 154.153 38.5307 154.433 39.3328C154.733 40.1888 154.77 41.116 153.539 41.3682C154.158 43.0408 153.28 45.0979 151.66 45.9029C152.074 46.3862 152.767 46.9089 151.474 47.1493C151.327 47.1748 151.137 47.397 151.103 47.5551C150.824 48.8912 149.685 49.1755 148.669 49.6381C148.518 49.7062 148.458 49.9702 148.398 50.0703C145.954 49.581 144.584 48.2342 143.845 45.7607C143.201 43.6135 143.198 41.7984 144.284 39.7092C144.728 40.3435 145.061 40.8216 145.395 41.3043C145.284 41.4053 145.173 41.5018 145.063 41.6028C145.298 41.6986 145.533 41.7944 145.768 41.8902C145.652 41.9029 145.542 41.9244 145.427 41.9371C145.535 42.9172 145.605 43.8968 145.758 44.8672C145.881 45.6445 146.11 46.4054 146.321 47.304C146.171 47.3018 146.38 47.2414 146.496 47.3176C148.362 48.5442 148.995 47.2814 149.838 45.8833C150.597 44.6207 151.213 43.3271 151.684 41.9511C151.911 41.2852 152.098 40.6095 152.358 39.7762C152.225 39.4211 152.004 38.8183 151.797 38.247L151.805 38.2413Z" fill="black"/>
<path d="M10.2215 60.51C10.1941 59.3245 10.1761 58.5217 10.158 57.7189C10.2643 57.7072 10.3712 57.7001 10.478 57.6931C10.1902 57.4159 9.90237 57.1387 9.60429 56.8533C9.78489 56.5808 9.9408 56.339 10.1168 56.067C8.99903 54.8376 7.99141 56.0573 6.96454 56.1655C6.1 56.2606 5.20671 56.7752 4.46513 55.818C4.81879 54.6935 5.64899 54.5415 6.71843 54.48C7.57368 54.4281 8.45707 54.0362 9.21979 53.6108C9.49321 53.4591 9.45757 52.7518 9.56907 52.2763C9.67318 52.4146 9.84343 52.6439 10.0357 52.9035C10.2529 52.538 10.4583 52.1926 10.7665 51.6768C11.1886 52.1966 11.5128 52.5914 11.8477 52.9991C13.9209 52.832 15.9981 51.4246 18.147 52.3721C18.1571 52.5488 18.1723 52.7297 18.1824 52.9064C15.8799 53.6695 13.5775 54.4326 11.3382 55.1747C11.5712 55.7621 11.6946 56.0761 11.8175 56.3854C11.6634 56.4304 11.5144 56.4796 11.3603 56.5246C12.8996 57.3754 12.5347 58.4823 11.9236 59.6491C12.9709 60.1095 12.8157 60.6553 12.2013 61.1112C12.2998 61.6666 12.384 62.1346 12.4636 62.6031C12.3439 62.6209 12.2201 62.6439 12.1004 62.6617C12.3932 63.0273 12.6167 63.4847 12.9862 63.7388C13.9325 64.3881 14.7074 63.6479 15.5096 63.2836C15.9865 63.0674 16.4132 62.7351 16.906 62.578C17.0098 62.5432 17.4422 63.0291 17.447 63.2859C17.4629 63.7286 17.2637 64.1717 17.2151 64.3688C16.0281 64.8081 14.9989 65.1927 13.7266 65.6648C13.2767 65.2323 12.7974 65.299 12.5336 66.4323C12.4546 66.7778 11.8277 66.9918 11.3856 67.3118C11.3297 67.229 11.4246 67.3683 11.52 67.5123C11.297 67.5274 11.0499 67.6201 10.8594 67.5474C8.93108 66.8189 8.93006 66.8097 8.03368 67.3387C7.45012 66.9677 6.86143 66.5925 6.11671 66.1176C7.58378 65.5446 8.84562 65.2327 9.88135 64.5667C10.3008 64.296 10.3544 63.2514 10.3305 62.5662C10.3043 61.7736 9.54505 60.954 10.2179 60.5198L10.2215 60.51Z" fill="black"/>
<path d="M29.823 63.9656C29.74 64.7 29.686 65.1879 29.6305 65.6619C29.3214 66 28.0236 65.0056 28.5627 66.4624C27.7716 66.6289 27.6093 67.9195 26.4597 67.5498C25.9262 67.3792 25.2685 67.6527 24.6825 67.6002C22.7643 67.432 22.5832 67.2741 22.2357 64.8792C23.0151 65.1164 23.7222 65.2913 24.3957 65.5448C25.8363 66.093 26.8235 65.6242 27.7548 64.3052C28.3181 63.5134 29.0236 62.865 28.3107 61.9139C27.982 61.4775 27.4204 61.1789 26.9143 60.9164C26.1705 60.5349 25.3454 60.3074 24.6217 59.8957C22.9247 58.9312 22.8067 57.5591 23.8776 55.8084C24.8178 54.2733 25.8452 53.276 27.7863 53.1421C28.3436 53.1043 29.0139 52.689 29.6896 52.8768C29.8729 52.9268 30.1058 53.2147 30.1015 53.3883C30.0971 53.5619 29.8647 53.7886 29.6756 53.8983C28.5315 54.5575 27.3751 55.19 26.2248 55.8358C26.1544 55.8763 26.1019 55.9523 26.0315 55.9928C25.6542 56.2214 24.9173 56.541 24.9485 56.6546C25.1219 57.2953 25.3439 58.0382 25.8109 58.4548C26.2521 58.8508 27.0117 58.9077 27.6391 59.082C28.7826 59.3962 29.5094 60.3036 30.3812 60.9985C30.453 61.0561 30.3644 61.3139 30.3544 61.4787C30.3325 61.8321 30.1588 62.3378 30.3281 62.5157C31.608 63.8583 30.2536 63.7966 29.8276 63.9651L29.823 63.9656Z" fill="black"/>
<path d="M131.491 21.8701C131.928 22.1403 132.103 22.2473 132.279 22.359L132.455 22.218C132.21 21.7302 131.959 21.2384 131.714 20.7507C131.803 20.7549 131.897 20.7586 131.987 20.7628C131.981 20.4593 131.933 20.1464 131.975 19.8516C132.052 19.352 132.017 18.6164 132.322 18.4098C133.541 17.574 132.69 16.0486 133.596 15.0974C134.195 14.4653 134.514 13.5786 134.978 12.8118C135.362 12.1754 135.67 11.4489 136.196 10.956C136.981 10.2239 137.858 9.98714 139.107 10.154C140.281 10.3151 139.552 10.7555 139.605 11.1053C140.256 11.2958 140.465 12.1493 140.233 13.6659C139.899 13.6512 139.551 13.6379 139.269 13.6268C139.099 14.3334 138.944 14.968 138.775 15.6884C138.436 15.5432 138.166 15.4232 137.974 15.3413C137.267 16.1864 136.71 17.0805 135.939 17.7222C135.008 18.4936 135.221 19.0316 135.992 19.6581C136.151 19.7856 136.358 19.8799 136.465 20.0413C137.307 21.2775 139.072 21.0742 139.97 22.3418C140.269 22.7674 141.248 22.6926 141.898 22.8972C142.944 23.2221 143.981 23.5854 145.03 23.9379C144.736 25.0932 144.139 25.4115 142.931 24.9781C141.309 24.3938 139.641 23.9034 138.082 23.1763C137.16 22.7443 136.274 22.1819 135.368 21.6872C134.029 20.9547 134.066 20.9086 133.624 22.3328C133.575 22.4879 133.324 22.5811 133.246 22.6411C133.492 23.0071 133.707 23.3016 133.878 23.6198C133.889 23.6419 133.605 23.8229 133.476 23.9213C134.187 24.6012 134.306 25.814 133.691 26.3916C134.013 26.9785 134.325 27.5619 134.641 28.1401L134.379 28.4402C133.64 27.9319 132.719 27.5559 132.223 26.8712C131.854 26.3643 132.049 25.4585 131.955 24.7342C131.903 24.3422 131.749 23.9614 131.687 23.5705C131.605 23.0788 131.574 22.5816 131.495 21.8696L131.491 21.8701ZM136.187 15.1307C136.99 14.1814 137.766 13.2727 138.681 12.1941C138.664 12.1633 138.503 11.8534 138.403 11.6679C137.209 12.0799 137.361 13.9723 135.805 13.8719C135.909 14.2207 136.026 14.601 136.187 15.1307Z" fill="black"/>
<path d="M158.857 25.4268C158.443 25.7062 158.065 26.0566 157.613 26.242C157.191 26.41 156.651 26.5583 156.244 26.4345C154.89 26.0359 153.599 25.228 152.233 25.1021C149.831 24.8795 149.232 22.7508 147.728 21.7511C147.295 21.6443 146.802 21.6236 146.449 21.3911C146.231 21.2465 146.047 20.5929 146.157 20.4873C146.529 20.1235 147.043 19.9033 147.329 19.7362C147.802 18.0418 148.235 16.3565 148.764 14.7028C148.959 14.0918 149.345 13.5206 149.737 12.9956C149.884 12.8016 150.281 12.7954 150.629 12.6823C150.7 11.5796 151.548 10.7891 152.806 10.693C153.107 10.6692 153.384 10.3347 153.624 10.1773C154.016 10.2933 154.427 10.4165 154.843 10.5346C154.902 10.1772 154.956 9.8203 155.037 9.32013C155.62 9.48055 156.222 9.59219 156.763 9.82755C156.94 9.90635 157.128 10.3817 157.048 10.5449C156.891 10.8663 156.594 11.189 156.275 11.3458C155.364 11.7828 154.43 12.1896 153.474 12.51C151.84 13.0546 151.099 14.4461 150.299 15.7693C149.979 16.3006 149.812 16.9177 149.587 17.504C149.561 17.5677 149.581 17.7059 149.631 17.7332C150.959 18.5791 149.791 18.8947 149.313 19.4853C152.57 19.5718 155.446 18.2824 158.37 17.0392C158.695 17.1485 159.093 17.2779 159.598 17.4469C158.37 18.8734 156.903 19.9097 154.92 20.2166C153.838 20.3822 152.767 20.7246 151.731 21.0911C151.069 21.3277 150.626 21.7648 151.387 22.4719C151.626 22.6935 151.741 23.0553 151.971 23.1048C152.613 23.4132 153.256 23.7217 153.898 24.0301C153.908 23.9962 153.918 23.9577 153.928 23.9238C154.442 24.1247 154.939 24.3975 155.47 24.5029C155.959 24.6036 156.483 24.5601 156.988 24.5139C157.265 24.4834 157.533 24.323 157.807 24.218C157.447 23.3265 157.472 23.2207 158.366 23.0055C158.562 22.9605 158.997 23.1747 159.028 23.3257C159.175 24.063 159.221 24.8206 159.303 25.5696C159.157 25.5201 159.012 25.4752 158.866 25.4258L158.857 25.4268Z" fill="black"/>
<path d="M81.3045 32.3141C80.9749 32.5937 80.4402 33.0502 79.8371 33.5657C78.5838 33.1887 79.3542 31.8968 79.0634 31.0398C78.7077 29.9746 78.7086 28.7907 78.5702 27.6595C78.473 26.8607 78.3944 26.0599 78.2973 25.1769C77.5356 25.1857 76.7266 25.1904 75.7127 25.2036C76.2373 24.1867 76.3529 23.2382 77.6671 23.4026C77.9136 23.4316 78.4601 22.5714 78.5357 22.0671C78.6733 21.191 78.4689 20.2683 78.563 19.3783C78.6528 18.5356 78.8372 17.659 79.1884 16.8952C79.3578 16.5209 80.0052 16.3655 80.3944 15.9905C80.8493 15.7019 81.2679 15.2956 81.7663 15.1472C82.9264 14.8045 84.1178 14.5752 85.3066 14.3229C85.7546 14.2269 86.3164 14.3569 86.6613 14.1319C87.8708 13.3438 88.7186 13.4799 89.2562 14.9228C86.3573 15.7936 83.4538 16.6649 80.4547 17.5608C81.438 18.2902 81.0033 18.848 80.6898 19.444C80.6562 20.0326 80.5949 20.6242 80.5943 21.2138C80.5959 21.5693 80.5629 22.0782 80.7672 22.2336C80.992 22.4054 81.4621 22.2555 81.8309 22.2477C82.6573 22.2317 83.3 21.2252 84.2998 21.8499C84.4754 21.957 85.0569 21.4158 85.4691 21.1646C85.8787 21.4424 86.3237 21.7444 87.0463 22.2312C86.1228 22.6415 85.3514 22.9883 84.5755 23.3357C84.5258 23.2241 84.4761 23.1126 84.4269 23.0057C84.4385 23.1963 84.4455 23.3874 84.4465 23.3966C83.1467 23.6612 81.9091 23.8534 80.7233 24.2177C80.5105 24.2832 80.2933 25.1586 80.4532 25.4639C80.8908 26.2955 81.1088 27.0015 80.4756 27.8384C80.3367 28.0222 80.4989 28.5611 80.6824 28.8264C81.1198 29.4427 81.6 29.9374 80.7373 30.6452C80.5913 30.7642 81.0597 31.6205 81.3091 32.3136L81.3045 32.3141Z" fill="black"/>
<path d="M124.262 23.956C123.588 23.8289 123.22 23.7617 123.034 23.726C122.701 24.0153 122.469 24.3777 122.188 24.4179C121.414 24.5264 120.555 24.9718 119.868 24.2144C119.255 23.5331 118.579 22.8682 118.15 22.0777C117.798 21.4286 117.782 20.6022 117.602 19.8593C117.551 19.6543 117.464 19.4533 117.36 19.2729C117.284 19.1408 117.147 19.039 117.04 18.9197C118.121 18.1926 116.739 17.1561 117.358 16.3581C117.411 16.2914 117.341 16.1259 117.319 16.0067C117.256 15.6862 117.188 15.3707 117.125 15.0548C118.108 14.9234 117.681 13.8099 118.357 13.2724C118.68 14.0463 119.938 14.376 119.026 15.4915C118.993 15.5326 119.018 15.6749 119.066 15.7212C120.386 17.0078 118.707 16.4624 118.427 16.7692C119.156 17.9057 119.732 19.0636 119.671 20.5022C119.622 21.6727 121.235 22.7727 122.395 22.3411C122.867 22.1675 123.294 21.4982 123.461 20.9699C123.747 20.0447 123.442 18.8851 124.669 18.3852C124.755 18.3524 124.754 18.0063 124.728 17.8126C124.571 16.7256 124.852 15.8337 125.605 14.9789C125.929 14.611 125.813 13.8471 125.894 13.2627C126.011 12.3702 126.123 11.4735 126.236 10.5907C127.065 10.7242 127.741 10.8323 128.851 11.0098C128.242 11.6429 127.915 11.9831 127.583 12.3283C128.338 13.1998 128.129 14.4862 127.102 15.1512C127.276 15.324 127.45 15.5014 127.623 15.6742C127.335 15.7807 127.047 15.8825 126.777 15.9824C127.457 16.8481 127.303 17.3143 126.187 17.7177C126.466 20.1342 124.693 21.8358 124.262 23.956Z" fill="black"/>
<path d="M115.143 9.15263C114.696 9.04271 114.34 8.95549 113.936 8.85948C114.268 9.6185 114.084 9.90077 113.267 9.92499C112.708 9.94436 112.157 10.2529 111.461 10.4745C111.471 10.4827 111.258 10.2909 111.045 10.0991C111.046 10.2347 111.052 10.3698 111.052 10.5054C110.81 10.56 110.557 10.5972 110.329 10.6879C110.23 10.7268 110.172 10.8782 110.114 10.9876C109.62 11.8607 109.168 12.7338 110.595 13.3632C110.184 13.5019 109.95 13.5838 109.72 13.6605C110.785 14.5822 109.284 14.4243 109.174 14.9558C111.242 15.4677 110.138 17.4234 110.926 18.6796C110.582 18.652 110.341 18.6316 110.393 18.6353C110.658 20.0661 110.918 21.4973 111.2 23.0385C111.023 23.0907 110.729 23.1838 110.665 23.2002C111.042 24.3753 111.407 25.5237 111.786 26.7127C110.983 26.6044 110.276 26.5137 109.459 26.4023C110.068 23.9864 108.707 21.8574 108.871 19.4389C109.028 17.1195 108.049 14.7285 107.558 12.3026C106.889 12.5961 106.252 12.9749 105.564 13.1487C105.068 13.2735 104.166 13.5785 104.175 12.6792C104.18 12.1312 104.717 11.3562 105.226 11.0943C106.173 10.6019 107.283 10.4331 108.305 10.0681C108.719 9.91966 109.925 9.48757 110.307 9.38478C110.757 9.26512 111.198 9.06686 111.614 8.84803C112.123 8.58154 112.394 7.68147 113.243 8.29471C113.324 8.3513 113.722 7.80219 114.007 7.76143C114.998 7.62443 114.859 8.52414 115.138 9.15314L115.143 9.15263Z" fill="black"/>
<path d="M97.8652 23.6013C97.5261 23.7509 97.1874 23.9051 96.8431 24.0506C96.7002 24.1131 96.544 24.2238 96.4105 24.2011C95.5334 24.0542 93.9782 22.2084 93.6969 21.224C93.3782 20.1126 92.8961 19.0473 92.5276 17.9508C92.4518 17.7299 92.5205 17.4182 92.6219 17.1918C92.8537 16.661 93.1394 16.1523 93.405 15.6318C94.7637 16.3715 95.482 19.6287 94.541 20.6025C94.9533 21.1186 96.1041 20.8611 95.9688 21.9709C95.962 22.0371 96.1858 22.1576 96.3183 22.2132C97.3384 22.6392 97.4933 21.4524 98.1516 21.1835C98.2903 21.1261 98.214 20.559 98.3258 20.2566C99.1831 17.5421 99.6204 14.7099 100.385 11.9213C100.7 11.8071 101.186 11.6274 101.731 11.4319C101.967 11.7054 102.225 12.0092 102.552 12.3897C102.244 12.4844 101.813 12.5178 101.788 12.6374C101.734 12.9101 101.88 13.2169 101.947 13.5277C101.662 13.8258 101.334 14.1659 101.036 14.4748C101.484 14.8888 101.874 15.2436 102.535 15.8541C101.348 15.9986 100.842 15.9887 101.389 17.1312C101.728 17.8332 101.204 19.7063 100.642 19.9177C99.5455 20.3284 100.634 21.4206 99.77 21.6045C100.13 22.5803 99.5405 22.9212 98.7584 23.213C98.4845 23.318 98.3084 23.6742 98.0873 23.9185C98.0109 23.8193 97.9339 23.7154 97.8575 23.6162L97.8652 23.6013Z" fill="black"/>
</svg>
