<svg width="276" height="211" viewBox="0 0 276 211" fill="none" xmlns="http://www.w3.org/2000/svg">
<path d="M260.904 195.967C259.109 194.322 256.759 192.976 255.669 190.946C254.505 188.798 251.428 188.296 251.193 186.822C250.595 183.019 246.353 183.414 245.093 180.401C244.377 178.681 241.888 177.741 240.307 176.331C237.775 174.066 235.339 171.694 232.871 169.365C232.657 169.162 232.486 168.853 232.241 168.778C228.662 167.624 226.344 164.996 223.854 162.314C222.198 160.52 219.175 160.06 216.974 158.671C213.267 156.332 209.731 153.714 206.088 151.257C205.436 150.819 204.678 150.477 203.919 150.274C200.287 149.313 196.665 147.198 192.894 149.388C191.676 150.093 190.96 151.706 190.074 152.945C189.54 153.682 188.77 154.462 188.696 155.263C188.525 157.197 188.546 159.184 188.792 161.118C188.941 162.25 189.294 163.137 187.702 163.201C187.777 164.772 187.926 166.331 187.894 167.902C187.862 169.462 185.373 170.615 187.093 172.506C187.403 172.848 187.691 173.201 188.129 173.714C187.211 174.152 186.495 174.483 185.715 174.857C189.646 176.854 184.465 179.824 186.783 181.822C185.875 182.559 183.706 182.88 186.206 184.322C186.463 184.472 185.993 187.068 185.223 187.58C183.664 188.638 183.824 189.151 184.604 190.721C185.33 192.185 184.946 194.193 185.053 195.999C183.354 196.298 181.442 196.341 182.521 198.862C182.553 198.926 182.521 199.065 182.467 199.108C179.294 201.747 179.978 207.665 174.594 208.37C173.921 208.456 173.183 208.018 172.168 207.751C171.998 208.21 171.72 208.947 171.421 209.738C169.583 209.738 167.596 210.144 165.876 209.642C163.451 208.926 161.079 207.751 158.943 206.383C156.581 204.877 154.434 202.997 152.308 201.138C150.791 199.813 149.488 198.232 148.046 196.811C146.144 194.931 143.997 193.264 142.33 191.213C138.559 186.566 134.136 182.442 131.262 177.036C129.873 174.419 127.608 172.25 125.781 169.857C125.461 169.43 125.343 168.853 125.087 168.372C123.591 165.648 122.181 162.87 120.547 160.231C119.147 157.966 116.562 156.011 116.145 153.64C115.558 150.232 113.432 147.817 112.15 144.933C109.361 138.64 105.921 132.647 102.77 126.515C101.52 124.079 100.323 121.611 99.1159 119.154C98.3681 117.637 97.663 116.109 96.9258 114.592C94.458 109.528 92.0543 104.432 89.4796 99.4218C87.0865 94.7532 84.4477 90.2127 82.0333 85.5548C80.9757 83.525 80.5163 81.1426 79.245 79.2837C77.8134 77.1898 76.275 74.8181 75.4097 72.7882C73.1662 67.5 70.0146 62.81 67.2796 57.853C64.4486 52.725 61.094 47.8854 58.0279 42.8857C55.731 39.1465 52.8785 35.824 50.2825 32.3092C47.4087 28.4311 44.9088 24.1364 41.4474 20.8567C35.7318 15.4295 30.8389 9.00886 23.7131 5.18423C22.4952 4.53255 20.9995 4.03043 19.6534 4.07317C18.8201 4.09453 18.0296 5.28038 17.6343 6.43418C16.7796 6.79741 15.9249 7.17133 15.081 7.53456C15.5083 8.07941 16.1172 8.56016 16.3095 9.16911C16.4805 9.73532 16.192 10.4404 16.0959 11.1348C17.677 11.5835 19.7282 20.6323 18.4248 22.8331C21.4482 25.1941 21.9076 27.0102 19.3329 29.2431C21.9824 28.1534 22.1747 29.3499 22.7409 31.0272C23.9161 34.542 24.963 38.1957 27.5163 41.1015C28.3603 42.0524 27.8262 44.2958 26.651 45.1078C30.1765 45.3214 29.9949 48.7615 31.5333 50.6952C32.0781 51.3896 32.4413 52.287 32.6764 53.1523C32.9221 54.039 32.9221 55.0005 33.0823 56.3573C34.9519 56.3573 35.625 58.5047 36.4583 60.4597C37.6548 63.2481 38.7872 66.0578 40.0265 69.0491C39.7167 69.2414 39.0223 69.6687 38.3599 70.0747C38.9154 71.4849 42.0777 70.6943 40.8171 73.3331C41.5222 73.6536 42.2273 73.9634 43.3383 74.4548C42.0991 74.7967 41.3299 75.0104 40.5714 75.2134C40.5286 75.4591 40.4859 75.7048 40.4538 75.9398C44.0862 75.7689 44.5455 78.4825 45.4857 80.8435C46.0092 82.1468 46.96 83.2793 47.3873 84.604C47.7185 85.6189 47.3553 86.8368 47.6223 87.8838C47.8574 88.8025 48.5197 89.6252 49.086 90.5439C49.6308 91.4306 50.2718 92.2639 50.6885 93.2041C51.7141 95.533 52.6755 97.9047 53.5836 100.287C54.9831 103.951 56.4254 107.605 57.6112 111.334C58.1027 112.872 57.9852 114.603 58.1775 116.707C58.0493 116.622 58.6475 117.017 59.4274 117.541C59.0428 117.829 58.8612 117.979 58.6796 118.096C58.1988 118.406 57.7074 118.705 57.2266 119.004C57.6433 119.41 58.0599 120.158 58.4766 120.147C61.2008 120.094 59.3847 122.412 60.218 123.31C58.2736 123.94 59.8761 124.827 60.0043 125.649C60.25 127.22 61.329 128.918 59.2885 130.243C58.9253 130.478 59.1496 131.621 59.1283 132.348C59.1069 133.053 58.9467 133.801 59.1283 134.452C60.1966 138.459 54.8443 138.822 54.7374 142.251C54.7161 142.892 53.402 144.089 52.7931 144.014C50.368 143.747 50.0475 145.36 49.8552 146.343C48.2099 147.24 47.0775 147.999 45.8489 148.501C44.1396 149.185 42.3555 149.687 40.6034 150.253C39.8983 150.477 39.2039 150.755 38.4774 150.851C37.345 150.99 36.3621 153.469 35.0694 151.086C34.546 151.407 34.0332 152.005 33.5097 152.005C29.6851 152.026 25.7536 152.496 22.0679 151.738C17.6236 150.83 13.0618 149.655 9.49358 146.354C7.41034 144.431 5.11342 142.753 2.95539 140.926C2.64558 140.659 2.54943 140.136 2.37849 139.73C1.61998 137.989 0.94693 136.204 0.102948 134.516C-0.441901 133.427 1.27811 130.916 2.85924 130.681C3.30794 130.617 3.75664 130.596 3.68186 130.596C4.41901 132.39 5.03864 133.918 5.65827 135.435C4.94249 135.82 4.29081 136.183 3.62844 136.546C4.28013 136.835 4.98522 137.027 5.56212 137.422C6.18176 137.85 6.71592 138.416 7.21804 138.982C8.55345 140.51 10.0064 141.835 11.8546 142.785C12.346 143.042 12.314 144.313 12.4101 144.687C24.1938 149.388 36.0844 149.313 47.7612 143.298C49.3317 141.717 51.2974 139.751 53.5729 137.465C53.8187 136.707 54.4169 135.318 54.7054 133.865C55.5814 129.517 55.3464 125.158 54.5558 120.81C53.2738 113.791 51.3829 106.964 48.5518 100.394C46.554 95.7574 44.5776 91.0995 42.7614 86.3881C41.2337 82.4139 40.3577 78.1513 38.4133 74.4121C37.4305 72.5319 36.2446 70.8118 35.5502 68.7179C34.9626 66.9338 33.6379 65.4168 32.7512 63.7181C30.5397 59.5089 28.136 55.3745 26.2878 51.005C22.6768 42.5117 19.3222 33.901 15.9997 25.2795C14.5468 21.5083 12.7199 17.6517 12.3994 13.7309C12.1751 10.8998 11.5875 7.81233 13.3075 4.58596C14.9421 1.4878 16.7048 -0.499294 19.9846 0.109655C23.2216 0.707921 26.3091 2.22495 29.3966 3.51763C29.8346 3.69925 29.8453 4.89578 30.0376 5.56883C33.7661 3.76335 33.0289 10.8357 37.0779 9.07296C35.8707 12.8869 38.7659 11.9575 40.3791 12.4916C40.1654 12.6839 39.9517 12.8762 39.7381 13.0685C41.3726 14.9381 42.9751 16.8397 44.6631 18.6666C45.272 19.3289 46.2442 19.6708 46.757 20.3866C48.3061 22.566 49.2355 25.9633 51.276 26.8179C53.8828 27.9076 53.5302 28.773 52.7824 30.5357C52.7183 30.6853 52.8251 30.9097 52.8785 31.3263C55.7203 31.0058 56.8634 32.416 56.5429 35.2043C56.5002 35.5996 56.7245 36.3795 56.8634 36.3902C60.5171 36.6252 60.688 40.9627 64.1922 42.0737C63.3589 42.437 63.017 42.5972 62.6965 42.7361C65.7306 44.5736 72.1726 56.2825 71.0402 58.3551C71.7025 58.1521 72.2047 58.0025 72.4824 57.9171C73.4866 59.3486 74.4268 60.7054 75.3349 62.0195C74.6405 62.5964 73.9567 63.1626 72.9632 63.9852C75.869 63.4831 79.0099 66.0043 79.4907 69.3696C79.8432 71.8802 80.9863 73.91 82.0547 76.068C82.5141 76.9975 82.8452 77.9803 83.4862 79.5935C85.7084 79.679 86.6805 81.4097 85.4413 84.4651C86.4028 84.8711 87.2468 85.213 88.3151 85.6617C87.845 86.1744 87.5138 86.5377 87.7596 86.2706C88.5608 88.0333 89.1911 89.4435 89.4796 90.0739C92.2572 95.1912 94.7037 99.582 97.0006 104.048C97.3639 104.763 97.054 105.821 97.054 106.836C98.2933 107.039 101.541 111.205 101.477 112.925C101.466 113.321 101.744 113.727 101.872 114.133C102.855 117.007 103.646 119.976 104.896 122.733C105.526 124.122 107 125.115 108.09 126.29C108.154 126.354 108.218 126.472 108.207 126.547C107.705 129.367 109.949 131.151 110.782 133.469C110.868 133.705 110.889 134.143 110.996 134.175C114.543 134.901 112.353 136.664 111.615 138.405C114.297 137.604 115.002 139.068 115.312 141.247C115.419 142.027 116.241 142.689 116.605 143.469C116.978 144.26 117.181 145.125 117.694 146.663C117.609 146.631 118.292 146.877 119.158 147.176C118.976 149.42 119.724 151.033 121.626 152.796C123.645 154.665 124.307 157.956 125.76 160.52C126.455 161.759 127.598 162.742 128.538 163.842C128.719 164.056 129.083 164.344 129.04 164.462C127.715 167.624 131.433 168.137 132.074 170.295C133.441 174.931 138.388 177.132 140.044 181.448C141.571 185.465 145.471 187.068 147.746 190.251C148.89 191.854 150.428 193.179 151.571 194.781C151.892 195.23 151.475 196.213 151.4 196.939C153.665 196.587 158.9 200.208 159.498 202.238C164.744 204.214 169.679 207.398 175.416 203.638C175.512 203.435 175.886 202.558 176.314 201.715C177.841 198.648 179.818 195.71 180.801 192.484C181.57 189.963 181.025 187.068 181.281 184.354C181.41 182.965 182.627 181.448 182.296 180.305C181.58 177.869 182.521 175.893 182.948 173.682C183.386 171.374 183.13 168.949 183.204 166.577C183.247 165.316 183.407 164.056 183.418 162.795C183.418 162.111 183.236 161.417 183.108 160.573C183.375 160.391 184.326 160.092 184.39 159.644C184.946 156.246 185.33 152.828 185.768 149.42C186.057 149.356 186.335 149.281 186.623 149.217C186.847 149.697 187.082 150.168 187.51 151.086C187.766 147.336 190.277 144.74 193.706 144.441C196.954 144.153 200.159 144.666 203.139 146.076C203.588 146.289 203.77 147.048 204.09 147.561C206.409 146.193 211.024 148.597 211.248 151.407C211.804 151.193 212.562 150.627 212.957 150.809C214.378 151.492 215.799 152.293 216.964 153.33C217.946 154.206 218.555 155.488 219.303 156.545C220.126 156.62 221.536 156.332 222.327 156.898C224.1 158.169 225.318 160.53 227.22 161.235C229.858 162.218 231.546 163.447 232.07 166.246C235.638 166.449 243.864 173.714 243.64 176.886C247.091 174.964 248.063 178.297 249.719 179.835C251.567 181.544 252.56 184.343 254.569 185.679C256.748 187.132 258.041 189.215 259.868 190.753C261.972 192.538 261.834 193.958 260.936 195.946L260.947 195.967H260.904Z" fill="white"/>
<path d="M264.322 197.356C265.177 197.43 266.031 197.505 266.811 197.58C267.303 198.819 267.773 199.994 268.061 200.71C267.516 201.586 267.078 202.27 266.726 202.847H271.523C270.668 203.851 270.177 204.546 269.557 205.112C269.226 205.411 268.36 205.742 268.286 205.635C266.64 203.435 263.457 202.484 263.051 199.289C263.478 198.648 263.895 198.007 264.322 197.356Z" fill="white"/>
<path d="M272.528 204.845C273.18 206.554 273.565 207.558 274.013 208.701H276.001C275.723 209.524 275.488 210.197 275.263 210.87C274.793 210.699 274.035 210.656 273.896 210.336C273.234 208.819 270.221 208.189 272.528 204.845Z" fill="white"/>
<path d="M264.322 197.356C263.895 197.997 263.478 198.638 263.051 199.289C262.239 198.819 261.427 198.349 260.23 197.655C261.128 197.174 261.566 196.95 262.228 196.597C261.737 196.362 261.331 196.17 260.925 195.978C260.925 195.978 260.914 195.956 260.904 195.956C261.769 195.358 262.645 194.76 263.5 194.183C263.767 195.208 264.044 196.287 264.333 197.377L264.322 197.356Z" fill="white"/>
</svg>
