<svg width="468" height="352" viewBox="0 0 468 352" fill="none" xmlns="http://www.w3.org/2000/svg">
<path d="M129.424 244.06C130.773 244.298 132.228 244.308 133.457 244.83C134.678 245.34 135.778 246.266 136.767 247.195C138.102 248.442 139.284 249.863 140.679 251.367C140.926 251.265 141.557 251.004 142.097 250.781C143.999 252.318 145.869 253.825 147.872 255.447C147.725 255.593 148.019 255.301 147.832 255.488C151.739 257.644 155.35 259.647 159.061 261.695C158.534 262.862 157.661 264.41 160.702 263.724C161.569 263.531 163.105 264.077 163.599 264.795C164.958 266.775 167.336 266.778 168.999 268.094C170.034 268.913 171.441 269.326 172.293 270.273C173.47 271.592 174.593 272.382 176.446 271.629C176.39 272.192 176.338 272.655 176.334 272.755C180.207 274.802 183.908 276.766 187.934 278.891C187.925 278.97 187.877 279.626 187.803 280.509C194.735 281.509 200.457 285.646 206.875 288.587C206.752 289.923 207.654 290.416 209.598 290.373C210.871 290.339 212.171 291.192 213.433 291.702C213.875 291.881 214.311 292.463 214.668 292.408C217.582 291.914 214.947 293.589 215.338 294.059C215.435 293.83 215.531 293.6 215.63 293.361C218.633 294.619 221.612 295.932 224.641 297.125C226.95 298.032 229.313 298.8 231.875 299.708C231.938 299.45 231.833 299.88 231.826 299.908C233.144 300.442 234.377 300.904 235.592 301.443C235.967 301.605 236.237 302.076 236.614 302.188C240.411 303.305 244.319 304.126 247.979 305.595C249.206 306.086 250.215 307.425 251.772 307.764C254.678 308.381 257.55 309.141 260.568 309.876C260.588 310.418 260.604 311.1 260.628 311.834C263.897 310.627 268.21 311.951 268.304 313.806C269.148 313.627 270.056 313.18 270.875 313.309C272.894 313.618 274.975 313.387 276.914 314.648C278.049 315.391 279.833 315.087 281.28 315.419C283.081 315.837 284.814 316.492 286.612 316.92C287.94 317.244 289.319 317.357 290.668 317.554C295.263 318.218 299.848 318.88 304.844 319.602C305.434 321.081 330.44 322.377 332.766 321.304C332.729 321.913 332.701 322.402 332.673 322.891C332.84 322.952 333.065 323.108 333.16 323.05C335.916 321.293 338.977 322.271 341.897 322.082C343.08 322.006 344.317 322.783 345.495 322.685C347.952 322.484 350.37 321.95 352.814 321.594C353.474 321.502 354.151 321.465 354.812 321.494C356.024 321.547 357.264 321.859 358.453 321.713C364.239 321.018 370.106 320.616 375.767 319.313C380.904 318.126 385.781 315.843 390.815 314.165C396.28 312.339 401.101 309.415 406.044 306.49C411.353 303.351 414.414 298.844 416.749 293.665C417.761 291.422 418.63 287.939 417.585 286.248C416.156 283.926 416.459 281.521 415.495 279.413C414.847 278.001 412.911 277.185 411.418 276.001C411.521 275.702 411.723 275.084 411.746 275.029C409.873 273.206 408.22 271.599 406.083 269.53C404.541 269.751 402.784 269.111 403.41 265.711C402.279 266.285 401.618 266.63 401.213 266.835C399.931 265.329 398.73 263.903 397.534 262.498C396.829 262.731 395.697 263.518 395.027 263.233C392.748 262.243 391.987 261.298 392.007 260.261C390.291 261.32 388.527 262.54 387.78 260.162C386.771 260.108 385.989 260.161 385.247 260.01C383.721 259.709 382.214 259.291 380.551 258.886C380.55 258.724 380.561 258.14 380.572 257.93C376.729 258.087 372.957 258.24 369.154 258.397C369.207 257.681 369.242 257.244 369.242 257.204C367.127 257.579 364.824 258.597 362.795 258.203C359.674 257.595 359.06 260.947 357.044 261.164C353.921 261.516 355.305 265.183 352.7 265.742C352.505 265.503 352.18 265.09 352.178 265.099C350.752 266.756 349.398 268.328 347.801 270.186C347.744 270.172 347.148 270.128 346.554 270.074C346.703 270.293 346.842 270.509 346.989 270.737C345.026 272.313 343.169 274.037 341.065 275.406C339.404 276.489 337.44 277.114 335.266 278.102C334.539 282.419 328.817 281.601 325.96 284.771C325.587 284.64 324.815 284.361 324.342 284.185C322.256 285.478 320.405 286.636 318.545 287.792C318.349 287.431 318.154 287.069 318.28 287.302C315.724 288.238 313.443 289.291 311.057 289.904C305.745 291.272 300.465 292.839 294.784 292.022C293.407 291.818 292.582 291.05 292.564 290.418C292.527 289.154 292.866 287.638 293.614 286.646C295.058 284.751 296.743 282.986 298.594 281.494C301.494 279.144 304.618 277.082 307.626 274.869C310.069 273.066 312.38 271.059 314.917 269.41C317.754 267.571 320.79 266.034 323.737 264.363C324.02 264.199 324.343 264.035 324.537 263.779C325.33 262.727 325.994 261.331 327.137 262.662C335.056 258.448 343.324 256.04 351.784 254.174C354.496 254.38 357.435 256.027 360.046 253.121C360.962 252.1 361.838 251.038 362.738 250.002C363.049 249.643 363.361 249.273 363.688 248.928C364.61 247.969 365.537 247.031 366.575 245.968C366.451 245.897 366.788 246.091 367.408 246.454C366.628 244.007 368.149 242.789 369.321 241.303C370.841 239.387 372.044 237.231 373.513 235.271C373.814 234.869 374.663 234.873 374.741 234.842C375.471 233.218 375.983 231.906 376.622 230.654C377.588 228.765 378.372 226.709 379.693 225.108C381.905 222.429 382.398 219.077 383.782 216.095C385.188 213.068 385.853 209.546 387.789 206.961C388.962 205.385 388.893 204.67 388.225 203.303C388.022 202.889 388.225 202.928 389.479 202.06C389.918 201.752 390.289 200.688 390.09 200.215C388.898 197.425 390.784 195.456 391.742 193.23C391.81 193.074 392.066 192.853 392.035 192.815C390.431 190.593 392.862 188.797 392.711 186.594C392.546 184.236 393.574 181.805 394.051 179.391C394.143 178.928 394.19 178.362 394.018 177.946C392.855 175.203 393.82 172.655 394.62 170.077C394.725 169.728 394.658 169.216 394.467 168.917C393.54 167.405 394.302 166.022 394.663 164.582C394.745 164.248 394.821 163.77 394.657 163.528C393.584 162.032 394.234 160.531 394.277 158.942C394.328 156.779 393.28 154.601 392.589 151.993C394.112 149.358 394.05 148.534 391.792 146.294C390.871 145.381 389.472 137.581 390.108 136.259C389.453 136.453 388.918 136.616 388.099 136.862C388.434 135.487 388.781 134.397 388.919 133.287C388.963 132.944 388.496 132.243 388.209 132.213C385.52 131.912 385.886 130.079 386.061 128.198C385.486 128.312 384.824 128.454 383.633 128.69C384.254 127.637 384.847 126.992 384.973 126.264C385.056 125.798 384.549 125.017 384.091 124.733C383.1 124.107 381.854 123.864 380.953 123.159C380.563 122.851 380.773 121.779 380.699 121.002C379.105 120.027 376.466 119.728 377.596 116.582C376.422 116.418 375.358 116.26 374.281 116.109C374.402 115.986 374.523 115.864 374.634 115.739C374.035 115.168 373.433 114.607 372.833 114.035L372.268 114.525C372.296 114.289 372.277 114.032 372.376 113.833C372.482 113.606 372.689 113.423 373.063 112.968C369.913 112.352 366.19 112.973 365.32 108.774C363.259 109.385 361.502 110.323 359.672 108.116C359.093 107.419 356.711 107.972 355.249 108.324C353.291 108.798 351.825 108.836 351.315 106.444C351.251 106.166 350.609 106.019 350.226 105.805C348.82 108.751 348.477 108.87 347.261 107.339C346.072 107.9 344.58 108.123 344.042 108.963C343.345 110.038 343.03 111.662 343.2 112.958C343.485 115.112 344.522 117.167 344.779 119.314C344.942 120.679 344.211 122.141 343.974 123.571C343.808 124.583 343.705 125.631 343.773 126.639C343.878 128.203 344.362 129.748 344.337 131.3C344.299 134.782 344.009 138.254 343.89 141.737C343.848 142.82 344.241 143.948 344.057 144.996C343.852 146.17 343.222 147.261 342.608 148.782C343.43 149.812 343.834 151.226 341.974 152.716C341.371 153.196 341.26 154.607 341.332 155.555C341.599 159.486 339.99 162.808 338.176 166.101C338.032 166.359 338.139 166.75 338.129 167.081C338.064 168.846 338.978 171.033 336.05 171.584C335.765 171.636 335.747 173.038 335.582 173.798C334.879 177.098 333.85 180.157 331.769 183.009C329.791 185.726 328.707 189.095 327.12 192.119C326.684 192.954 325.767 193.519 325.202 194.303C324.696 195.009 324.362 195.839 324.256 196.774C322.917 198.654 321.447 200.492 319.994 202.385C318.276 204.618 317.115 207.432 314.291 208.93C312.268 210.005 310.583 211.811 308.957 213.5C306.345 216.203 302.968 216.646 299.631 217.3C299.343 216.531 299.137 215.965 298.928 215.408C297.87 215.849 296.98 216.219 296.204 216.536C296.911 214.674 296.157 213.822 293.915 214.136C291.241 214.517 291.756 212.861 292.374 211.322C291.453 211.239 290.73 211.174 289.997 211.107C290.283 210.185 290.578 209.265 290.863 208.343C288.103 206.587 287.807 203.276 287.117 200.416C286.471 197.709 286.771 194.776 286.644 191.598C286.852 191.618 286.32 191.559 286.32 191.559C287.422 181.636 287.769 171.53 291.789 162.217C292.462 159.456 292.498 156.236 294.047 154.114C294.974 152.842 294.802 151.515 295.553 150.342C297.032 148.051 297.834 145.341 298.928 142.805C299.763 140.873 300.507 138.898 301.531 137.063C302.39 135.532 303.56 134.177 304.622 132.766C306.302 130.564 307.884 128.268 309.739 126.22C311.675 124.091 312.963 121.46 315.752 119.943C317.875 118.79 319.289 116.392 321.194 114.762C322.791 113.4 324.553 112.149 326.414 111.196C329.598 109.553 332.916 108.145 336.196 106.688C337.364 106.173 338.614 105.819 339.756 105.409C338.909 103.736 337.291 102.36 338.717 100.248C338.844 100.056 338.036 99.3432 337.864 98.8053C337.288 96.9748 336.811 95.1079 336.266 93.2749C336.137 92.8488 335.675 92.4628 335.682 92.0597C335.694 91.3442 335.955 90.6486 336.108 89.9371C335.638 89.9136 335.17 89.8807 334.71 89.8596C334.817 88.6713 334.913 87.4902 335.029 86.2232C334.712 86.237 334.037 86.2649 333.262 86.2886C333.065 84.8136 332.878 83.3814 332.693 81.9802C332.343 82.0873 331.898 82.2116 331.45 82.3454C331.169 81.2143 330.898 80.0855 330.592 78.8472C329.419 78.8447 327.815 79.0308 328.685 76.5406C328.821 76.1487 327.707 75.3207 326.948 74.4476C327.528 72.9393 327.444 73.2832 325.479 72.7941C323.883 72.4054 322.285 71.1963 323.385 68.4687C322.364 69.2522 321.8 69.7016 321.064 70.2712C320.727 69.4504 320.456 68.7772 320.461 68.7986C319.025 68.3374 318.168 68.1589 317.405 67.8009C315.812 67.0688 314.267 66.2267 312.679 65.4754C312.561 65.4165 312.275 65.8022 312.113 65.7626C311.587 65.6346 311.083 65.4206 310.112 65.083C309.397 65.9005 308.033 66.6813 306.54 65.1639C305.431 65.4806 304.176 66.1058 302.902 66.1396C301.221 66.1855 299.525 65.752 297.833 65.5523C297.569 65.5181 297.211 65.5727 297.009 65.7361C296.176 66.4136 295.491 67.5219 294.565 67.7921C291.825 68.5717 289.353 69.9124 286.791 71.0391C285.271 71.7112 283.904 72.7138 282.418 73.4549C281.519 73.9038 280.519 74.1459 279.3 74.5777C279.887 77.8581 275.884 76.8423 274.368 78.5779C271.941 81.3565 267.961 82.2388 265.846 85.5592C265.223 86.5407 263.574 86.8678 262.307 87.5407C262.593 89.0677 262.894 90.6995 263.194 92.3313C263.113 92.3318 263.03 92.3418 262.958 92.3447C263.632 93.8144 264.307 95.2842 265.073 96.9586C264.673 97.5595 263.203 98.527 265.554 99.3023C265.843 99.4032 265.675 100.799 265.766 101.591C266.198 105.258 266.156 109.084 267.281 112.525C267.954 114.582 268.121 115.847 266.623 117.385C268.005 118.278 269.383 119.059 267.453 120.917C266.953 121.392 267.21 123.367 267.806 124.12C269.003 125.646 268.858 126.613 267.612 127.948C267.188 128.402 267.116 129.902 267.514 130.303C269.561 132.37 266.599 134.806 268.156 136.805C266.287 138.161 266.867 140.6 266.973 141.992C267.184 144.907 266.762 147.678 266.086 150.327C265.249 153.595 265.344 157.069 263.013 160.114C261.657 161.899 261.855 164.952 261.595 167.47C261.23 170.964 259.884 174.329 257.809 176.739C256.428 178.335 255.141 178.882 256.803 180.825C252.982 186.705 249.208 192.516 245.389 198.386C244.639 198.143 243.929 197.899 243.929 197.899C243.343 199.061 243.109 200.269 242.371 200.849C239.729 202.927 236.926 204.795 233.817 207.003C233.972 205.785 234.066 205.029 234.138 204.439C232.016 205.299 229.792 206.204 227.346 207.187C227.446 205.2 226.443 204.413 224.339 204.825C224.202 203.931 224.073 203.009 223.921 201.97C223.373 202.474 223.02 202.803 222.667 203.132C222.143 202.539 221.25 202.008 221.166 201.359C220.75 197.999 220.821 197.997 217.917 196.459C216.64 192.353 215.354 188.244 214.284 184.786C214.354 180.552 214.323 176.901 214.513 173.254C214.622 171.185 215.354 169.137 215.318 167.084C215.243 163.281 216.66 159.871 217.55 156.303C218.137 153.977 218.311 151.6 220.088 149.665C220.595 149.121 220.082 147.741 220.343 146.833C221.06 144.346 221.911 141.892 222.806 139.468C222.904 139.189 223.65 139.158 223.65 139.158C224.373 137.148 224.618 135.103 225.709 133.739C227.783 131.127 228.936 128.18 230.115 125.168C230.59 123.968 231.331 122.711 232.302 121.885C234.076 120.375 234.527 118.278 235.376 116.329C235.71 115.581 236.183 114.886 236.653 114.202C238.102 112.075 239.516 109.93 241.042 107.863C242.946 105.28 244.961 102.786 246.925 100.249C248.252 98.5378 249.489 96.7442 250.934 95.1329C252.661 93.1956 254.652 91.5048 256.336 89.5368C257.266 88.4581 257.809 87.0621 258.637 85.6143L256.889 85.1883L257.53 84.7576C256.35 82.79 255.158 80.8297 253.869 78.6839C254.375 78.3112 254.904 77.9241 255.458 77.5225C254.503 77.037 253.604 76.5749 252.714 76.1152C254.064 73.0236 253.546 72.1586 249.869 71.4651C250.198 70.948 250.507 70.4668 250.909 69.8158C249.904 69.662 249.092 69.5452 248.164 69.4101C248.408 68.407 248.856 67.4432 248.798 66.5183C248.755 65.8198 248.023 64.5483 247.653 64.5696C243.968 64.7848 243.988 61.3791 242.472 59.5018C242.068 58.9986 241.458 58.2225 241.021 58.268C238.691 58.53 238.909 56.6804 238.412 55.3956C237.405 55.5415 236.724 54.4311 236.37 52.0643C235.908 52.5893 235.56 52.9801 234.863 53.7618C234.243 52.5683 233.564 51.4515 233.094 50.2643C232.557 48.8986 232.563 49.2038 231.03 49.2654C229.855 49.313 228.644 48.2185 227.737 47.2891C226.964 47.3438 225.867 47.7343 225.481 47.3669C224.75 46.6726 224.416 45.5489 223.883 44.5386C222.317 45.5233 220.712 44.7173 219.199 43.367C219.034 43.2154 218.739 42.931 218.713 42.955C216.428 44.898 214.59 41.9303 212.344 42.3444C211.379 42.5243 210.185 41.4034 208.681 40.6827C207.617 41.5166 205.945 41.8175 204.097 40.3047C203.752 40.0182 202.737 40.6514 202.032 40.6819C201.009 40.7262 199.987 40.5987 198.891 40.3215C197.948 40.1626 197.009 39.863 196.079 39.8995C195.385 39.9227 194.699 40.3728 194.004 40.6083C191.807 41.3584 189.662 42.3132 187.409 42.7965C185.436 43.2066 183.351 43.0831 181.187 43.2034C181.667 45.4255 179.272 45.7022 177.742 46.6248C176.366 47.4534 174.819 47.9873 173.207 48.7076C173.065 48.501 172.769 48.0544 172.449 47.5817C172.207 47.8264 171.969 47.971 171.991 48.0471C172.675 50.3897 170.265 50.1466 169.374 51.144C168.872 51.7098 167.991 51.9607 167.525 52.5454C166.72 53.5638 167.15 55.6622 164.923 55.3727C163.807 58.5822 160.788 60.5892 159.337 63.2212C157.896 65.8555 157.389 69.183 155.375 71.7993C155.108 72.149 155.891 73.1698 155.745 73.7717C155 76.8287 153.049 80.0575 153.564 82.8447C154.104 85.739 152.595 88.1949 153.262 90.8977C153.548 92.0502 153.165 93.3737 153.084 94.6191C153.038 95.3062 152.785 96.0541 152.958 96.6732C153.676 99.1252 153.567 101.608 153.694 104.119C153.844 107.202 154.892 110.25 155.714 113.274C155.933 114.076 156.753 114.701 157.206 115.459C158.335 117.344 159.406 119.264 160.533 121.158C160.75 121.515 161.043 121.849 161.364 122.109C161.685 122.37 162.089 122.539 162.455 122.74C162.157 123.092 161.858 123.444 161.529 123.84C162.003 124.056 162.548 124.311 163.304 124.657C162.81 125.022 162.444 125.277 162.086 125.544C165.48 129.64 166.184 134.143 164.025 139.558C163.802 138.937 163.757 138.703 163.644 138.503C163.519 138.27 163.344 138.076 163.139 137.793C162.362 138.242 161.599 138.673 160.979 139.018C159.785 137.229 158.599 135.493 157.463 133.718C156.753 132.604 156.514 131.463 156.62 130.032C156.693 129.027 155.411 127.976 154.882 126.865C154.399 125.857 154.13 124.759 153.844 123.941C153.437 122.162 153.176 120.782 152.815 119.44C152.249 117.359 151.598 115.297 151.013 113.212C150.86 112.678 151.006 111.955 150.689 111.594C149.908 110.686 148.836 110.019 148.1 109.091C146.736 107.382 145.532 105.551 144.068 103.504C143.504 103.286 142.261 102.902 141.16 102.269C140.964 102.161 141.367 101.004 141.506 100.228C140.18 100.229 138.41 100.516 138.993 97.9968C138.296 98.2824 137.747 98.5027 136.95 98.8247C138.056 93.6191 132.559 96.0345 131.412 93.2654C131.572 92.8185 131.808 92.1374 132.301 90.6988C131.321 91.5226 130.915 91.8589 130.673 92.0631C128.913 90.855 127.109 89.6161 125.081 88.2212C125.399 86.7908 123.643 85.027 121.634 85.5899C120.112 86.0188 119.276 85.3799 118.986 83.5787C118.292 83.8547 117.597 84.1307 116.757 84.4625C116.573 83.1018 116.433 82.0557 116.32 81.1883C114.993 81.4419 113.93 81.9419 113.044 81.7159C112.509 81.5855 112.258 80.3302 111.838 79.479C110.756 79.5189 109.287 79.8997 108.011 79.5687C106.127 79.0791 104.38 78.0665 102.57 77.3118C102.295 77.1942 101.926 77.2966 101.627 77.1934C100.7 76.8866 99.4904 76.7841 98.9499 76.1363C97.7657 74.7244 97.2474 74.9827 96.9997 75.8331C89.8521 75.387 82.8738 74.9518 75.7286 74.4962C75.7802 73.9521 75.8636 73.1527 75.9471 72.3533C75.3808 74.968 73.6846 75.6579 71.1877 75.2721C71.1848 74.7857 71.177 74.2778 71.1676 73.901C69.8979 74.543 68.5831 75.2043 67.3847 75.8029C66.592 75.2353 65.8374 74.677 65.5093 74.4452C64.8468 75.3363 64.2981 76.0932 63.3637 77.3532C63.4985 75.9692 63.5707 75.2987 63.5884 75.0601C61.363 76.5925 59.1494 78.1177 56.7151 79.8017C56.5141 79.2973 56.4265 78.9926 56.2747 78.7431C56.1591 78.553 55.9484 78.4207 55.8501 78.3259C54.89 80.4804 53.5199 81.867 51.0462 81.7602C50.8171 81.7448 50.481 81.754 50.3768 81.8906C48.0723 84.9522 45.5112 87.7792 43.4251 91.0661C41.3932 94.2548 42.3906 97.9286 40.752 101.082C40.3536 101.845 41.4117 103.317 41.6738 104.484C42.8385 109.798 43.9077 115.128 45.1152 120.432C45.316 121.311 46.0098 122.077 46.4797 122.89C46.8074 123.456 47.4331 124.003 47.4484 124.563C47.5384 127.641 49.3185 129.806 51.0493 132.09C51.6911 132.944 51.7275 134.248 51.9078 134.879C52.9144 136.106 53.8237 137.026 54.5241 138.098C55.7347 139.941 56.8123 141.873 57.9397 143.767C59.3489 146.125 60.7463 148.489 62.1555 150.846C62.3073 151.096 62.4574 151.477 62.6771 151.53C65.7514 152.37 65.972 156.158 68.7025 157.33C67.7828 159.069 69.6852 160.15 70.2611 160.736C72.6102 163.14 74.3684 166.017 77.1976 168.154C78.9512 169.472 81.3284 171.387 82.1408 174.034C82.2576 174.427 82.3917 174.915 82.6912 175.139C84.6579 176.621 86.6909 177.996 88.6316 179.501C89.0054 179.795 89.0622 180.517 89.249 181.038C89.3823 181.405 89.3568 181.925 89.6062 182.148C91.7518 184.016 93.7842 186.1 96.1732 187.593C98.263 188.902 99.5468 191.026 101.85 192.124C104.227 193.25 106.999 194.623 108.283 196.707C110.804 200.773 116.008 200.765 118.63 204.501C119.411 205.612 121.447 205.774 122.697 206.666C124.043 207.621 125.145 208.912 126.344 210.054C126.484 210.189 126.614 210.484 126.726 210.481C130.86 210.254 132.784 214.072 135.882 215.394C138.156 216.363 140.648 217.598 142.768 218.62C145.53 219.951 148.451 221.422 151.205 222.994C154.093 224.638 157.222 225.877 160.193 227.39C162.877 228.752 165.401 230.44 168.144 231.644C171.044 232.908 174.189 233.623 177.111 234.841C179.784 235.958 182.208 237.723 184.93 238.679C188.424 239.915 192.082 240.685 195.7 241.536C196.674 241.774 197.751 241.55 198.421 241.542C199.097 242.05 199.58 242.725 200.138 242.8C205.344 243.491 210.543 244.374 215.772 244.595C218.818 244.72 221.91 243.702 224.982 243.267C225.747 243.16 226.551 243.305 227.183 243.327C229.858 242.36 232.554 241.387 235.25 240.415C235.65 240.269 236.119 240.171 236.418 239.9C237.851 238.589 237.91 238.594 238.838 240.145C239.038 240.488 239.404 240.729 240.016 241.333C236.82 243.277 234.003 245.242 230.204 245.136C229.359 245.113 228.487 246.034 227.546 246.573C227.375 246.319 226.94 245.656 226.285 244.647C226.07 245.819 225.936 246.535 225.793 247.33C224.318 247.528 222.802 247.725 221.294 247.934C221.029 247.445 220.686 246.815 220.344 246.185C220.237 246.25 220.118 246.322 220.011 246.387C220.066 247.159 220.13 247.934 220.136 248.037C218.444 248.374 217.063 248.644 215.438 248.957C215.396 248.258 215.358 247.541 215.313 246.771C214.199 247.187 213.174 247.575 211.948 248.036C211.512 248.081 210.597 248.182 209.725 248.273C209.717 247.725 209.694 246.778 209.678 245.559C208.721 246.784 208.168 247.479 207.623 248.176C207.447 247.819 207.283 247.455 207.041 246.951C205.144 248.715 203.857 248.432 203.404 245.68C203.349 245.323 202.725 245.06 202.363 244.759C202.15 245.051 202.003 245.45 201.713 245.602C200.902 246.022 200.033 246.347 199.198 246.7C198.838 245.813 198.499 245.001 197.916 243.574C197.562 244.571 197.435 244.924 197.304 245.297C196.252 245.334 195.067 245.38 193.668 245.433C193.685 244.82 193.701 244.176 193.738 242.941C191.665 243.225 189.664 243.507 187.455 243.808C187.617 243.433 187.749 243.101 187.603 243.45C186.177 242.364 184.905 241.396 183.616 240.414C181.294 243.633 180.622 239.786 179.082 238.712C178.587 239.209 178.07 239.71 177.565 240.204C177.464 239.289 177.373 238.417 177.229 237.097C176.324 238.03 175.769 238.603 175.755 238.62C174.735 238.321 174.156 238.079 173.559 237.994C172.865 237.895 171.638 238.153 171.529 237.894C170.702 235.891 168.672 236.621 167.597 235.964C165.498 234.694 162.163 235.298 161.09 232.142C160.559 232.286 159.923 232.445 158.98 232.701C159.468 231.696 159.781 231.034 160.309 229.948C158.901 230.577 157.89 231.029 157.119 231.367C156.843 230.298 156.594 229.326 156.494 228.948C155.176 229.375 154.35 229.65 153.403 229.966C153.428 229.071 153.434 228.506 153.451 228.065C152.378 228.147 151.432 228.21 150.524 228.282C150.833 227.305 151.092 226.488 151.448 225.36C150.352 225.872 149.7 226.179 149.186 226.418C148.277 225.417 147.35 224.402 146.265 223.207C145.85 223.662 145.488 224.07 145.405 224.161L141.268 223.153C141.534 221.396 141.542 221.489 138.925 221.722C138.367 221.768 137.654 220.957 137.138 220.416C135.698 218.932 133.628 218.873 131.958 217.96C131.475 217.7 131.246 216.977 131.202 216.369C130.246 215.6 129.278 214.837 128.314 214.056C126.902 215.615 126.22 215.175 123.823 210.766C123.271 211.289 122.72 211.803 121.867 212.607C121.349 211.448 120.893 210.416 120.334 209.177C119.837 209.39 119.212 209.673 118.35 210.05C118.297 209.399 118.241 208.839 118.154 207.866C116.039 210.772 116.357 206.518 114.959 207.189C114 205.144 111.503 205.214 110.142 203.698C109.712 203.219 109.109 202.91 109.171 202.409C108.325 202.061 107.469 201.711 106.622 201.363C107.485 199.691 105.472 200.354 105.085 199.531C104.691 198.696 103.634 198.176 102.862 197.522L103.201 196.795C102.583 197.049 101.957 197.291 101.26 197.577C101.085 196.633 100.923 195.764 100.757 194.823C97.2191 195.803 97.3582 192.74 96.4723 190.561C95.5141 191.046 94.6916 191.473 93.5931 192.035C93.6064 191.067 93.6263 190.404 93.6343 189.748C93.492 189.875 93.3473 190.012 93.205 190.139C92.5548 189.485 91.8904 188.847 91.2662 188.169C90.7598 187.631 90.3033 187.054 89.5372 186.169C89.5302 186.197 89.603 185.608 89.6758 185.019L89.0184 185.557C87.8351 184.681 86.6398 183.813 85.4374 182.933C85.738 182.156 86.0151 181.435 86.2969 180.694C85.6573 180.619 84.7683 180.321 84.6384 180.522C83.5628 182.112 83.0189 180.897 82.5802 180.122C81.8644 178.865 81.3341 177.511 80.6658 176.225C80.5332 175.98 80.1237 175.708 79.8567 175.724C76.9129 175.968 75.7918 174.339 75.4303 171.711C75.4027 171.491 74.31 171.407 73.6222 171.24C73.7422 170.581 73.8693 169.893 73.9431 169.466C70.1128 169.028 69.7238 165.807 68.016 163.761C68.179 163.507 68.3516 163.256 68.5123 163.012C68.0534 163.234 67.5826 163.463 66.4245 164.021C66.0114 161.937 65.64 160.055 65.2906 158.249C65.2053 158.35 64.8594 158.731 64.5373 159.098C63.7011 158.459 62.9512 157.882 62.2085 157.316C62.5476 156.589 62.8795 155.85 63.2444 155.059C61.7223 155.366 60.7815 155.572 60.2204 153.472C59.8788 152.174 58.9506 150.501 57.3201 149.425C55.6298 148.305 54.5016 146.29 53.2346 144.594C53.0904 144.397 53.6251 143.698 53.6463 143.652C52.7883 142.937 52.1507 142.397 51.5108 141.867C53.6205 139.729 51.0295 139.149 50.1462 138.205C48.7901 136.751 47.8097 135.126 47.0598 133.344C46.7017 132.488 46.6553 131.515 46.1994 130.645C45.7258 129.224 45.2427 127.801 44.7328 126.28C43.5125 126.387 41.8805 123.075 41.4996 120.401C41.063 119.576 40.6192 118.74 40.1826 117.915C41.8259 117.151 40.4651 116.506 40.1127 115.793C39.8882 115.343 39.4805 114.566 39.6275 114.42C42.2902 111.84 39.1703 112.142 37.9655 111.272C39.9978 109.743 39.5747 107.99 38.0613 106.559C36.5479 105.128 38.2937 103.944 38.0546 102.641C37.9585 102.121 38.5384 101.403 38.3452 100.991C37.0258 98.099 38.6838 95.4062 38.8819 92.641C38.9304 91.9849 40.2292 91.431 41.0385 90.7679C40.7646 90.4381 40.426 90.0418 39.9552 89.4818C43.087 89.9615 40.2829 84.8557 43.1223 85.4969C44.0831 84.2534 44.7133 83.1622 45.5861 82.3628C51.6081 76.8369 58.3255 72.7354 66.7543 72.0768C69.6624 71.8543 72.5411 71.0882 75.457 70.9587C78.3419 70.8317 81.2439 71.1745 84.14 71.3336C84.5789 71.3596 85.0284 71.5501 85.4527 71.5118C87.3641 71.3096 89.3018 70.7089 91.1655 70.91C93.1891 71.1197 95.1151 72.1456 97.1212 72.6344C98.8695 73.0603 100.667 73.2857 102.454 73.5492C104.584 73.8656 106.736 74.0459 108.439 75.655C108.818 76.0104 109.58 75.9534 110.128 76.1576C112.563 77.085 115.032 77.9598 117.402 79.0331C118.021 79.3156 118.37 80.2102 119.136 80.2247C121.124 81.2454 123.182 82.1417 125.083 83.3132C126.825 84.3855 128.4 85.7307 130.015 86.9945C130.542 87.4063 130.944 87.9596 131.428 88.4217C132.117 89.0853 132.74 89.9354 133.565 90.3287C135.497 91.2448 137.977 91.1608 138.382 94.2754C138.497 95.1332 140.532 95.7507 141.705 96.4615C141.935 96.5984 142.35 96.6389 142.399 96.8127C143.425 100.493 147.688 101.148 149.35 104.255C149.663 104.837 150.348 105.226 150.964 105.812C150.859 103.792 150.773 102.112 150.67 100.083C150.912 99.9598 150.451 100.191 150.67 100.083C150.479 98.4575 150.189 97.1118 150.193 95.7668C150.197 94.8772 151.076 93.4721 150.753 93.1807C149.345 91.8965 150.614 90.0097 150.174 89.4066C148.835 87.5926 150.929 86.8884 150.869 85.5175C150.706 81.8649 150.635 78.2547 152.23 74.656C153.602 71.5595 153.979 68.0181 154.835 64.5026C155.338 64.7261 155.83 64.9473 156.285 65.1592C156.434 65.0033 156.486 64.9553 156.531 64.8954C154.269 63.0488 156.811 61.8364 157.323 60.5646C158.157 58.5111 159.467 56.5429 160.94 54.8576C165.033 50.1874 169.697 46.122 175.09 43.0133C177.916 41.3843 180.97 40.1449 183.958 38.8083C184.457 38.5859 185.143 38.763 185.739 38.7666C186.912 38.7691 188.024 38.7768 189.211 38.3881C193.37 37.0229 197.612 36.5587 202.027 37.088C204.466 37.3787 207.009 36.7028 209.499 36.7428C210.911 36.763 212.302 37.3652 213.936 37.7632C213.925 38.307 213.922 39.1059 213.908 39.9121C214.049 39.9565 214.181 39.9987 214.322 40.0431C214.475 39.706 214.625 39.3784 214.743 39.1034C219.812 38.4864 224.021 41.2324 228.117 43.5259C228.851 44.2513 229.45 45.4091 230.221 45.5261C234.057 46.1471 236.158 49.3612 239.103 51.2729C241.612 52.8962 243.644 55.3547 245.635 57.6513C247.863 60.2184 250.376 62.7837 251.691 65.8165C252.84 68.4544 255.227 70.1596 256 72.888C256.168 73.4855 256.217 74.1148 256.232 74.1791C257.982 77.7531 259.535 80.9347 261.155 84.2542C261.618 84.0535 262.186 83.969 262.529 83.6378C264.977 81.36 267.151 78.8739 270.314 77.3168C272.661 76.158 274.305 73.6036 276.596 72.2591C279.75 70.4063 283.57 69.5559 286.479 67.4208C289.508 65.2039 292.859 64.0367 296.238 63.1293C300.071 62.1 304.133 61.7943 308.119 61.5105C310.672 61.333 313.62 61.0698 315.775 62.111C318.653 63.5103 322.386 63.6406 324.304 66.9417C324.689 67.6023 326.213 67.5384 326.732 68.1911C329.12 71.1817 332.121 74.0279 333.377 77.4712C334.533 80.6576 337.103 82.8219 338.014 85.9788C338.956 89.2141 340.508 92.3552 340.931 95.6461C341.358 98.9584 343.119 101.867 342.616 105.469C344.698 104.691 346.16 103.842 347.714 103.654C349.177 103.464 350.73 103.944 352.241 104.18C352.553 104.226 352.978 104.725 353.102 104.633C356.48 102.359 359.731 105.378 363.115 104.867C364.459 104.668 366.024 105.677 367.442 106.255C369.245 106.998 371.192 107.604 372.727 108.737C375.568 110.826 378.154 113.257 380.843 115.552C381.505 116.118 382.209 116.674 382.729 117.367C383.111 117.875 383.253 118.578 383.45 119.223C383.657 119.911 383.66 121.147 384.001 121.24C386.763 121.994 387.021 124.465 387.937 126.52C388.205 127.122 389.032 127.465 389.31 128.069C390.192 129.974 390.946 131.949 391.561 133.992C396.203 142.106 396.484 151.293 397.254 160.305C397.357 161.17 397.512 162.028 397.536 162.884C397.577 164.543 397.637 166.208 397.528 167.861C397.245 172.427 397.225 177.037 396.465 181.528C395.832 185.29 395.451 189.094 394.704 192.828C394.328 194.7 393.17 196.421 392.425 198.234C392.307 198.509 392.574 198.908 392.562 199.249C392.508 200.966 392.425 202.677 392.341 204.559L390.115 204.016C393.247 205.7 390.419 207.794 390.351 209.529C390.281 211.394 389.088 213.259 388.192 215.024C387.799 215.809 386.939 216.348 386.699 216.583C386.264 218.37 386.136 219.766 385.586 220.988C384.129 224.225 382.615 227.449 380.897 230.553C379.694 232.749 378.108 234.731 376.735 236.835C375.383 238.894 374.022 240.951 372.775 243.076C371.807 244.723 371.889 244.763 370.486 243.419C370.699 248.481 366.455 250.493 363.551 253.894C368.653 254.014 373.751 253.859 378.781 254.356C382.179 254.698 385.511 255.895 388.831 256.846C391.32 257.553 393.716 258.562 396.191 259.286C397.711 259.738 399.356 259.795 400.84 260.308C401.232 260.444 401.242 261.651 401.354 262.063C402.603 262.751 403.957 263.466 405.29 264.226C407.958 265.736 409.541 268.753 412.685 269.64C412.895 269.692 413.087 270.022 413.163 270.253C414.039 272.845 416.243 274.556 417.552 276.828C418.755 278.912 419.672 281.251 420.259 283.58C420.808 285.768 420.858 288.098 420.922 290.37C420.945 291.105 420.32 291.843 419.824 292.967C420.814 294.756 419.792 297.624 417.061 299.196C417.212 299.657 417.64 300.349 417.47 300.55C416.225 302.089 414.886 303.554 413.514 304.991C412.767 305.77 411.947 306.521 411.061 307.125C410.526 307.491 409.797 307.576 408.84 307.89C408.107 310.565 406.654 311.669 405.046 310.295C405.032 311.101 405.017 311.867 405.002 312.47C402.508 314.271 399.159 314.144 396.826 316.368C396.444 316.731 395.218 316.614 394.631 316.279C393.385 315.58 392.575 314.999 392.474 317.16C392.457 317.561 391.143 317.888 390.253 317.924C389.157 319.226 384.992 321.531 383.166 321.258C382.923 321.219 382.769 320.564 382.489 320.01C380.993 323.491 377.229 321.785 374.94 323.494C374.586 322.831 374.241 322.17 373.901 321.53C373.603 321.63 373.339 321.677 373.337 321.727C373.23 324.615 370.991 323.918 369.447 323.815C368.111 323.733 368.131 323.444 367.538 324.757C367.29 323.947 367.081 323.269 366.872 322.591C366.358 324.824 365.209 325.262 363.073 325.015C361.362 324.81 359.554 325.584 357.768 325.726C356.829 325.801 355.854 325.442 354.892 325.319C353.763 325.175 352.117 324.541 351.597 325.053C349.745 326.838 347.589 325.179 345.712 325.987C345.046 326.27 344.141 325.958 343.349 325.968C341.198 325.99 339.061 326.036 336.908 326.068C334.025 326.104 331.135 326.21 328.252 326.125C327.488 326.101 326.743 325.504 325.791 325.09C324.761 326.205 322.469 326.183 321.129 324.703C320.013 323.47 319.055 323.165 318.716 324.803C317.172 325.034 315.836 325.245 314.365 325.464C314.41 324.867 314.475 324.185 314.523 323.569C313.63 323.665 312.829 323.753 311.299 323.927C309.85 325.72 305.546 325.066 303.947 322.075C302.663 322.572 301.406 323.49 300.197 323.428C298.778 323.356 297.415 322.427 295.617 321.705C294.721 322.519 291.513 322.517 289.638 321.24C289.169 320.924 288.383 321.076 287.7 321.011C287.844 320.712 288.021 320.36 288.261 319.873C286.315 319.429 283.784 321.302 282.636 318.036C280.543 320.978 279.68 318.166 278.547 318.082C277.709 318.364 276.886 318.832 276.033 318.887C275.282 318.937 274.291 318.644 275.513 317.616C275.562 317.578 275.234 316.81 275.002 316.763C274.577 316.68 274.091 316.845 273.651 316.991C272.925 317.229 272.227 317.727 271.516 317.736C271.121 317.74 270.711 316.973 269.981 316.228C269.531 316.29 268.356 316.46 267.181 316.629C267.17 315.887 267.165 315.158 267.15 313.848C266.067 315.76 265.256 316.888 263.583 315.155C262.849 314.389 261.676 314.053 260.461 313.392C259.916 313.675 258.989 314.157 257.76 314.799C257.79 313.926 257.806 313.363 257.808 313.313C256.571 312.657 255.543 312.103 254.287 311.443C252.713 313.579 250.827 311.521 248.998 311.136C248.448 311.022 248.289 309.516 247.701 308.897C247.25 308.423 246.394 308.113 245.722 308.131C244.112 308.174 242.507 308.451 240.602 308.665L241.215 306.153C241.1 306.084 240.994 306.018 240.877 305.959C240.539 306.352 240.2 306.745 239.788 307.232C239.367 306.674 238.954 306.128 238.701 305.793C237.809 306.214 237.04 306.755 236.215 306.858C235.956 306.885 235.557 305.695 235.169 304.963C234.886 305.046 234.341 305.207 233.993 305.304C234.012 304.479 234.026 303.713 234.053 302.232C233.269 303.417 232.919 303.939 232.553 304.487C231.286 301.71 229.196 302.395 226.969 303.147C227.067 302.493 227.162 301.899 227.277 301.178C224.64 302.155 223.167 301.513 222.769 299.159C221.968 299.54 221.221 299.905 220.66 300.173C219.777 298.936 218.916 297.734 217.997 296.438C217.048 297.259 215.992 298.894 215.252 296.285C215.186 296.056 214.366 295.765 214.131 295.9C210.986 297.674 212.347 295.081 212.214 294.047C210.155 293.818 208.134 293.599 205.995 293.361C206.059 292.81 206.145 292.123 206.182 291.808C204.959 291.51 203.86 291.242 202.771 290.977C201.688 290.713 201.377 289.956 201.837 288.705C200.329 288.995 198.938 289.264 197.59 289.522C197.365 288.617 197.199 287.97 197.035 287.312C195.525 289.565 195.862 282.907 193.985 286.994C193.947 286.196 193.932 285.716 193.941 285.931C192.642 285.24 191.747 284.759 190.395 284.035C188.314 284.641 185.155 282.738 184.442 280.307C183.183 280.284 181.721 280.676 181.231 280.152C180.506 279.389 180.488 277.967 180.032 276.348C179.489 277.167 179.222 277.558 178.952 277.958C178.684 278.105 178.405 278.249 178.135 278.406C177.985 277.773 177.929 277.091 177.644 276.515C177.412 276.054 176.9 275.747 176.377 275.235C175.998 275.71 175.622 276.174 175.29 276.58C174.618 276.142 173.919 275.689 173.16 275.19C173.207 275.08 173.364 274.724 173.324 274.805C171.627 274.088 170.13 273.46 168.533 272.788C168.557 272.48 168.592 271.962 168.634 271.416C167.987 271.541 167.401 271.662 167.189 271.701C166.487 270.508 165.909 269.517 165.396 268.633C164.521 269.108 163.589 269.61 162.888 269.995C162.715 268.546 162.58 267.481 162.539 267.107C160.573 266.83 159.241 266.647 157.654 266.433C157.357 265.49 155.078 265.167 155.432 263.088C155.456 262.993 154.872 262.648 154.583 262.669C153.553 262.742 152.529 262.917 151.757 263.012C151.625 261.685 151.539 260.793 151.452 259.902C151.192 259.93 150.935 259.948 150.675 259.976C150.68 260.372 150.694 260.77 150.705 261.39C149.764 260.766 148.85 260.28 148.088 259.629C147.074 258.764 146.183 257.768 145.02 256.604C145.043 256.59 144.595 257.017 144.199 257.396C142.156 255.937 140.113 254.478 138.07 253.018C138.049 253.104 138.05 253.185 138.029 253.271C137.587 252.759 137.147 252.237 136.705 251.724C136.58 251.825 136.461 251.938 136.335 252.039C136.125 250.702 135.914 249.366 135.77 248.46C132.939 247.578 130.361 246.778 127.926 246.013C128.328 245.483 128.922 244.707 129.516 243.931L129.326 244.006L129.424 244.06ZM330.147 179.821C330.29 179.815 330.433 179.81 330.576 179.804C330.632 179.16 330.587 178.471 330.784 177.871C331.208 176.547 331.756 175.254 332.237 173.944C333.682 169.965 335.359 166.072 336.415 161.947C336.694 160.842 337.485 159.881 337.841 158.793C338.218 157.62 338.32 156.37 338.614 155.166C338.665 154.956 339.251 154.836 339.264 154.657C339.332 152.841 338.855 150.853 339.439 149.244C340.967 145.052 339.819 140.664 340.81 136.432C341.319 134.259 340.654 131.425 341.171 129.719C342.038 126.823 340.423 124.396 341.181 121.494C342.009 118.346 339.683 114.601 341.142 111.02C341.198 110.872 340.614 110.446 340.295 110.176C338.423 108.556 337.032 110.818 335.416 111.052C332.645 111.459 330.097 113.318 327.453 114.576C327.177 114.712 326.813 114.876 326.724 115.117C326.083 116.793 325.985 116.82 324.998 115.972C324.124 117.065 323.434 118.404 322.343 119.141C321.194 119.913 319.657 120.115 318.26 120.574C318.443 121.651 319.283 123.02 317.039 123.465C316.401 123.593 316 124.74 315.388 125.299C314.316 126.293 313.162 127.206 311.504 128.614C309.514 132.005 307.025 136.114 303.736 140.1C303.652 139.988 303.981 140.463 304.162 140.72C303.124 142.572 302.015 144.255 301.199 146.07C299.855 149.052 298.63 152.083 297.506 155.159C296.256 158.589 295.087 162.059 294.058 165.573C293.128 168.767 292.865 172.215 291.538 175.211C290.239 178.133 289.962 181.223 290.407 183.963C290.752 186.121 290.326 186.665 289.34 186.972C289.689 190.275 290.172 193.317 290.277 196.379C290.377 199.247 292.564 201.946 291.411 205.055C291.815 205.518 292.577 206.21 293.121 207.051C293.682 207.906 293.799 209.463 294.492 209.733C297.181 210.783 299.198 214.674 302.881 211.979C302.98 211.902 303.265 212.103 303.391 212.043C305.912 210.795 308.812 209.943 310.78 208.095C312.027 206.921 313.053 205.288 314.339 203.912C317.052 201 319.24 197.586 321.503 194.282C323.467 191.411 325.221 188.407 327.064 185.456C327.56 184.666 328.047 183.873 328.488 183.06C329.061 181.995 329.588 180.909 330.135 179.828L330.147 179.821ZM249.053 100.777C248.784 104.041 249 105.936 244.351 107.819C243.983 107.962 243.421 108.564 243.481 108.69C244.628 111.044 242.529 112.142 241.601 113.666C240.808 114.971 239.98 116.247 239.082 117.485C237.568 119.586 235.116 121.468 234.667 123.767C234.1 126.675 231.707 128.187 230.937 130.975C229.787 135.198 227.44 139.181 225.121 142.967C223.826 145.081 224.722 147.637 222.45 149.775C220.636 151.489 220.716 155.273 220.099 158.179C219.602 160.507 219.909 163.193 218.834 165.157C216.942 168.603 218.552 172.295 217.347 175.827C216.829 177.33 217.827 179.921 217.478 182.062C217.445 182.277 217.452 182.501 217.501 182.715C217.778 184.109 218.099 185.493 218.346 186.889C218.383 187.07 218.131 187.312 218.021 187.518C220.097 187.842 219.477 189.806 219.818 190.941C220.9 194.514 222.783 197.463 225.545 199.876C227.772 201.826 230.157 203.54 233.349 202.031C236.141 200.707 239.658 200.603 241.141 197.047C241.482 196.23 242.87 195.89 243.658 195.191C244.733 194.229 245.957 193.272 246.611 192.045C247.578 190.236 247.954 188.111 248.88 186.262C249.276 185.468 250.767 185.204 251.132 184.412C252.869 180.605 254.379 176.692 255.987 172.834C256.93 170.584 257.928 168.358 258.845 166.091C259.242 165.126 259.503 164.096 259.863 162.99C259.766 162.723 259.154 161.957 259.322 161.431C260.083 158.975 261.204 156.617 261.907 154.147C262.526 151.98 262.729 149.692 263.169 147.471C263.389 146.361 263.707 145.264 264.1 143.65C264.127 142.169 264.159 140.001 264.192 137.873C264.34 137.848 263.949 137.915 264.013 137.9C264.201 136.175 264.378 134.366 264.594 132.567C264.788 131.025 265.706 129.083 265.087 128.052C264.251 126.664 264.842 125.735 264.854 124.564C264.877 121.605 264.954 118.587 264.467 115.685C264.039 113.081 262.87 110.611 264.299 107.983C264.481 107.653 264.512 106.861 264.409 106.826C261.572 105.76 262.759 102.841 261.893 100.91C260.762 98.4081 262.071 95.0329 259.624 92.6961C259.478 92.5491 259.59 92.1311 259.578 91.845C259.222 92.1023 258.828 92.3098 258.51 92.6169C258.256 92.8688 258.171 93.3439 257.898 93.5101C255.243 95.1405 253.354 97.4126 251.865 100.116C251.36 101.026 250.734 102.684 249.077 100.763L249.053 100.777ZM298.418 287.24L298.962 288.081C303.93 287.216 309.179 287.645 313.648 284.463C313.98 284.22 314.902 284.799 315.542 284.996C315.336 284.844 315.138 284.705 314.932 284.553C317.096 283.522 319.16 282.193 321.429 281.522C327.111 279.84 331.941 276.675 336.738 273.391C337.686 272.741 339.545 272.88 339.967 272.103C341.54 269.177 344.761 268.292 346.868 266.002C349.498 263.141 352.806 260.901 355.787 258.429C352.81 257.481 350.112 257.34 347.955 259.921C347.528 258.846 347.25 258.16 346.95 257.399C346.077 258.532 345.355 260.289 344.571 260.311C342.713 260.374 340.812 261.905 338.907 260.419C338.737 260.286 338.095 260.595 337.765 260.828C336.649 261.629 335.593 262.516 334.475 263.326C332.803 264.538 330.545 263.836 328.778 265.48C326.72 267.408 323.972 268.59 321.506 270.074C321.149 270.291 320.711 270.346 320.318 270.503C319.733 270.745 319.078 270.899 318.582 271.274C317.552 272.056 316.658 273.022 315.623 273.782C314.773 274.405 313.786 274.842 312.871 275.358C312.609 275.77 311.543 275.368 311.458 275.51C310.769 276.759 309.714 277.473 308.564 278.246C306.821 279.42 305.237 280.855 303.659 282.262C301.873 283.861 300.166 285.55 298.428 287.202L298.418 287.24ZM160.405 131.652L161.422 127.477C160.896 127.602 160.424 127.71 160.005 127.81C159.7 126.653 159.398 125.527 159.027 124.141C158.379 124.681 157.909 125.073 157.731 125.222C158.61 127.349 159.454 129.366 160.405 131.652Z" fill="white"/>
<path d="M129.423 244.06L129.614 243.985C128.62 244.492 127.624 245.008 126.259 245.708C126.417 244.522 126.558 243.484 126.693 242.474C126.279 242.596 125.606 242.948 125.471 242.794C123.856 241.034 122.321 239.193 120.76 237.375C120.916 237.191 121.07 237.016 121.226 236.831C120.504 236.807 119.774 236.771 118.91 236.742C119.259 237.262 119.49 237.602 119.969 238.296L116.864 237.539L117.432 235.208C117.298 235.135 117.162 235.071 117.028 234.998C116.81 235.31 116.585 235.609 115.926 236.531C116.02 235.147 116.063 234.429 116.114 233.723C116.696 233.825 117.342 233.79 117.859 234.037C120.799 235.472 123.494 237.161 125.521 239.891C126.206 240.817 127.855 240.986 129.01 241.602C130.111 242.194 130.588 243.018 129.443 244.065L129.423 244.06Z" fill="white"/>
<path d="M110.015 227.855C108.961 228.316 107.905 228.788 106.918 229.225C106.819 228.26 106.68 226.921 106.55 225.584C106.4 225.577 106.252 225.562 106.092 225.553C105.891 226.091 105.698 226.631 105.346 227.577C103.235 224.614 101.429 221.846 99.3442 219.314C98.806 218.657 97.3662 218.751 96.1052 218.444C96.4781 218.201 96.8606 217.96 97.2194 217.734C96.8596 217.383 96.3702 216.899 95.8712 216.413C95.9178 216.222 95.9762 216.024 96.0323 215.835C97.1647 216.172 98.579 216.183 99.3678 216.891C101.641 218.943 103.649 221.294 105.837 223.446C106.081 223.688 106.836 223.416 106.896 223.917C107.479 224.474 107.982 225.356 108.658 225.53C110.146 225.903 110.622 226.525 109.927 227.924L110.022 227.867L110.015 227.855Z" fill="white"/>
<path d="M109.929 227.915C110.252 227.629 110.563 227.351 110.693 227.231C112.481 228.739 114.228 230.207 116.084 231.773C115.472 232.787 114.827 233.855 113.8 235.538C113.481 234.023 113.324 233.256 113.162 232.467C112.477 232.786 111.818 233.081 111.166 233.388C111.322 232.788 111.653 232.181 111.59 231.609C111.507 230.91 111.097 230.264 110.807 229.546C110.035 230.056 109.518 230.517 108.918 230.735C108.752 230.796 108.045 229.915 108.074 229.882C108.692 229.172 109.368 228.517 110.036 227.85L109.941 227.908L109.929 227.915Z" fill="white"/>
<path d="M96.5463 214.594C95.6129 215.642 94.9188 216.414 94.2081 217.213C93.7696 216.063 93.3553 214.981 92.7011 213.263C94.4814 211.065 94.9563 215.098 96.5368 214.592L96.5463 214.594Z" fill="white"/>
</svg>
