<svg width="101" height="103" viewBox="0 0 101 103" fill="none" xmlns="http://www.w3.org/2000/svg">
<path d="M18.0911 16.4002V17.9841C18.3976 17.9841 18.602 18.0425 18.7261 17.9768C19.9304 17.3053 20.9596 17.0644 22.3318 17.9768C23.5799 18.8016 25.3316 18.8308 26.6819 19.5534C28.7621 20.6628 30.6891 22.0642 32.4043 23.5313C33.0904 23.6335 33.7765 23.7503 34.4626 23.8233C35.0976 23.8963 35.9516 24.1809 36.3239 23.8817C36.6815 23.597 36.6742 22.6774 36.5939 22.0642C36.4115 20.6263 35.9297 19.2103 35.8932 17.7724C35.864 16.6995 36.3312 15.6339 35.1049 14.8967C35.0028 14.8383 35.2509 14.2252 35.3093 13.8675C35.3896 13.3347 35.6451 12.7216 35.4699 12.2836C34.7765 10.5027 35.4699 6.46635 37.0538 5.52478C37.9296 5.00656 39.2435 5.21823 40.5427 5.08685C40.4478 5.57588 40.3821 5.91163 40.3164 6.25468C40.6595 6.34957 41.3383 6.37146 41.3967 6.56854C41.8857 8.31299 43.6885 8.83851 44.579 10.1596C44.8491 10.5538 44.6228 11.2837 44.6228 12.0355C46.6373 11.926 47.5424 13.5317 48.4839 14.9988C49.3598 16.3637 51.5641 16.9623 50.9218 19.1884C51.5787 19.2614 52.221 19.3344 52.4765 19.3636C57.812 13.8967 63.06 8.51006 68.3882 3.04313C68.7678 3.48107 69.0816 3.84602 69.8042 4.6927C68.7167 1.96289 70.8407 1.47386 71.8625 1.34248C73.0012 1.1965 73.9062 -1.21216 75.2931 0.795054C76.2492 -0.117317 78.417 0.108951 79.4316 1.22569C80.9716 2.92635 80.9497 5.22553 79.2856 6.8021C79.7965 7.37872 80.5191 7.88965 80.76 8.56845C80.9351 9.06478 80.4607 9.78008 80.1907 10.6997C81.0519 11.707 80.4315 15.2251 79.2856 15.663C79.7381 16.8163 80.1834 17.9549 80.6943 19.2468C79.8914 19.1447 79.4097 19.0863 78.782 18.9987C78.8622 21.7066 79.8549 24.4583 77.6798 26.794C78.2272 27.0348 78.7528 27.2684 79.8257 27.7428C78.4608 28.1151 77.7236 28.3195 76.9791 28.5238C79.0082 28.6625 78.2199 30.2245 78.2272 31.0566C78.2272 31.8668 77.6944 32.6842 77.3295 33.4798C76.658 34.9542 77.4024 35.5016 78.7163 36.2388C81.3585 37.7278 83.2343 35.6841 85.4605 35.363C85.7671 35.3192 86.0444 35.0053 86.3437 34.9834C88.3947 34.8228 90.4457 34.706 92.4967 34.5674C93.8032 34.4798 95.2484 33.9762 96.3798 34.3776C98.0074 34.9542 100.708 33.8886 101 37.0636C99.5329 36.7279 99.0293 37.2753 99.7592 38.538C97.1462 40.1803 94.5623 41.7496 92.0442 43.4137C89.5625 45.056 87.1247 46.7639 84.7233 48.523C84.0445 49.0266 83.5774 49.8222 83.1321 50.355C81.8329 51.3112 80.8403 52.0484 79.6432 52.9243C79.6286 53.1797 79.5994 53.822 79.5556 54.5811C78.9133 54.6979 78.2856 54.8074 77.8696 54.8804C77.6871 55.4643 77.6798 56.1504 77.3441 56.4278C75.8916 57.6102 75.804 58.8729 76.3003 60.6466C77.1105 63.5516 79.1031 65.6245 80.6505 68.1353C80.4826 68.5878 80.2563 69.1937 80.0155 69.8506C80.76 69.6608 81.4461 69.4856 82.6431 69.1791C82.1468 70.033 81.9424 70.3907 81.9862 70.3177C83.519 72.2008 84.9569 73.938 86.3583 75.697C87.8838 77.6167 89.3582 79.5655 90.2632 81.9887C91.9055 81.7479 91.5114 83.8719 92.358 84.7696C93.0295 85.4776 92.7376 87.0688 93.3799 87.8425C94.8835 89.6308 92.2048 90.0979 92.6135 91.3241C87.7159 91.5139 84.7744 88.0761 81.3512 85.609C77.782 83.0398 74.2785 80.3684 70.8261 77.6386C69.9137 76.916 69.4247 75.6459 68.505 74.9379C66.527 73.4125 64.3957 72.084 62.2206 70.5951C60.8411 71.179 59.228 71.8651 57.5274 72.5877C57.1916 73.2592 56.7537 74.1351 56.3011 75.0328C55.7975 74.9306 55.3012 74.8358 54.9289 74.7628C54.98 75.208 55.1917 75.6897 55.0311 75.916C54.0896 77.2225 53.3086 78.9305 52.0093 79.6239C50.462 80.456 49.9802 81.9814 48.7759 82.9449C47.2577 84.1565 46.4913 86.1564 45.2505 87.2805C43.9586 88.4483 43.3455 90.3753 41.4988 90.9957C40.7689 91.2438 40.1485 91.8277 39.4113 92.3022C39.769 93.6963 35.0903 98.4479 33.3386 98.6158C33.032 99.4333 32.9809 100.324 32.543 100.587C31.9299 100.959 31.0394 100.871 30.2292 100.981C30.2365 102.024 28.7256 103.207 27.4629 102.908C26.2659 102.623 24.8791 102.966 24.5944 101.003C24.4412 99.915 23.3974 99.1267 23.777 97.6596C24.4047 95.251 24.7331 92.7255 24.8864 90.2293C25.0032 88.3899 25.5068 86.7842 26.1564 85.0762C27.1637 82.3975 27.587 79.4998 28.2731 76.7043C28.4994 75.77 28.6162 74.7555 29.0541 73.9234C29.9811 72.1497 29.222 70.4856 28.8789 68.8141C28.6381 67.6536 26.0323 67.0259 24.7039 67.2886C22.631 67.712 20.653 68.4492 18.5728 68.8506C17.7334 69.0112 16.9743 69.5805 16.1495 69.8798C15.7554 70.0257 15.281 69.9673 14.7846 70.0038C13.7482 70.6826 12.646 71.7264 11.3395 72.1935C8.93816 73.0548 6.34702 73.4052 3.97486 74.3321C2.78513 74.7993 1.87276 74.5365 1.22315 73.9161C0.588139 73.3103 1.06987 72.2373 1.08447 71.376C1.13556 67.639 3.96756 66.1062 6.12075 63.9311C7.06232 62.9822 8.55861 62.2815 9.02574 61.5808C10.7191 59.0481 13.5219 58.0919 15.6167 56.2161C17.0254 54.9534 18.529 53.6177 20.1348 52.5009C22.7843 50.647 22.8573 46.815 20.4121 44.8516C18.7115 43.4794 17.186 41.859 15.7116 40.2387C13.3467 37.6475 11.0986 34.9469 8.77028 32.3193C7.29589 30.6551 5.35436 29.2537 4.3763 27.3487C3.55152 25.7502 2.23041 24.7503 1.24505 23.3927C-0.506706 20.984 -0.506706 16.6776 1.86546 15.5974C3.6975 14.7653 5.98937 14.4733 8.02578 14.6412C11.3687 14.9186 14.6605 15.7579 18.0911 16.3856V16.4002ZM95.4163 36.9176C95.4674 36.9468 95.2265 36.6768 95.0367 36.706C92.2777 37.1731 89.5333 37.7497 86.7597 38.1658C85.0518 38.4212 83.3073 38.2096 81.5994 38.83C80.7673 39.1365 79.4097 38.3482 78.7747 38.7789C77.1689 39.8445 76.0448 39.0708 75.3004 38.0198C74.5997 37.0271 74.1471 35.633 74.1617 34.4141C74.1763 32.6039 74.6434 30.7865 75.0157 28.991C75.1179 28.4946 75.7894 28.0567 75.7894 27.5969C75.7675 25.451 75.6799 23.3562 76.3587 21.2395C76.8404 19.7286 76.8769 18.0717 77.0594 16.4732C77.1178 15.9769 76.9718 15.4587 76.928 14.9477C76.9791 14.9113 77.0302 14.8675 77.0886 14.831C77.3441 12.9259 77.5995 11.0209 77.8112 9.42973C77.5411 8.08672 76.9426 6.87509 77.1543 5.83134C77.5046 4.08689 77.1762 2.5833 75.5339 2.576C74.169 2.576 72.5559 3.284 71.5122 4.20367C70.6071 4.99926 70.8918 5.32041 69.5926 5.86783C67.4102 7.59039 66.4978 10.6852 63.7169 11.145C63.3154 12.1157 62.987 13.415 62.7607 13.4004C61.5126 13.3055 61.2425 14.3565 60.6951 14.955C58.7609 17.079 56.1771 18.7067 55.4472 21.7431C55.0384 21.6263 54.6881 21.5241 54.3377 21.4292C54.199 21.5752 54.0604 21.7285 53.929 21.8745C54.5859 22.6555 55.3669 23.3708 55.8851 24.2393C56.6004 25.4437 57.1113 26.7721 57.7463 28.0275C57.9945 28.5165 58.4616 28.9107 58.6222 29.407C59.0456 30.7427 59.0091 32.3923 59.8046 33.4068C60.644 34.4725 59.9652 35.0929 59.8995 35.9323C59.8557 36.4651 60.2791 37.3702 60.0966 37.487C59.5565 37.83 58.8193 37.8665 58.1624 38.0198C58.2354 37.5161 58.3376 37.0052 58.374 36.5016C58.3813 36.3848 58.1478 36.268 58.0748 36.1293C57.1113 34.2754 57.177 31.9032 55.2209 30.531C55.0676 30.4216 55.2428 29.9325 55.126 29.6844C54.5859 28.5457 54.1115 27.3268 53.3159 26.3852C53.148 26.1882 51.7685 27.1151 50.9072 27.3633C50.3598 27.5239 49.7248 27.3925 49.1555 27.3925C49.6372 25.5604 49.9948 24.1955 50.3671 22.7649C50.1992 22.4073 50.0021 21.8672 49.7175 21.3781C49.0606 20.2541 48.5277 19.006 47.6592 18.0644C45.9585 16.2178 43.6812 14.9623 42.5791 12.4807C41.9222 11.0063 40.9879 9.51732 39.1997 8.99909C38.9661 8.9334 38.7471 8.80202 38.5209 8.69983C38.426 8.9334 38.2289 9.17427 38.2435 9.40053C38.3603 10.7581 38.5282 12.1157 38.6741 13.4734C38.4406 13.6047 38.0902 13.8091 37.8275 13.9551C39.3091 15.1959 38.7617 16.2689 37.7618 17.2907C39.7033 18.2688 39.9296 19.5315 38.9004 20.8526C39.3821 22.0496 40.1193 23.0277 40.0609 23.9547C40.0026 25.0422 39.3967 26.1882 38.769 27.137C38.2216 27.9618 35.032 27.6334 33.813 26.9254C32.1051 25.94 30.3533 25.0203 28.5943 24.1444C26.7841 23.2394 24.6747 22.7284 23.1711 21.4657C21.6238 20.1665 19.8063 20.2541 18.164 19.7359C15.7408 18.9695 12.8431 19.3855 10.6388 18.3053C7.87251 16.9477 5.43465 18.1374 2.50777 17.8673C3.23766 19.1811 3.79238 20.1811 4.3836 21.2322C3.86537 21.5971 3.35445 21.9621 3.23766 22.0423C4.04055 22.7211 4.93832 23.3051 5.60253 24.0934C6.23024 24.8451 6.46381 25.9473 7.12801 26.6407C9.12793 28.7209 11.2884 30.6405 13.3248 32.6842C15.5656 34.9323 17.4925 37.4724 19.7187 39.7423C21.4924 41.5525 23.0981 43.5524 24.6382 45.5742C26.1491 47.5595 25.8207 49.8222 24.0105 51.1433C24.266 51.6032 24.5287 52.0776 24.8864 52.7272C24.2003 52.8367 23.3317 52.8294 23.2879 53.0118C22.8062 55.114 20.3391 55.0264 19.4122 56.6248C19.1859 57.0117 18.3903 57.0336 18.0546 57.4058C17.2736 58.2744 16.6313 60.0189 15.8941 60.0408C13.0402 60.1283 12.5001 63.4056 10.0622 63.8362C9.90162 66.1208 7.47836 65.2303 6.37622 66.5222C8.17176 67.0332 6.84335 68.0039 6.41271 68.0331C4.45659 68.1499 4.44929 69.7776 3.77049 71.0403C4.20843 71.0622 4.63177 71.2082 4.96022 71.0841C6.41271 70.5294 7.82871 69.8725 9.28121 69.3104C11.4271 68.4784 13.5949 67.6901 15.7481 66.8799C16.6897 66.5295 17.6385 66.1865 18.6093 65.8288C18.6896 66.077 18.7626 66.3252 18.8429 66.5806C19.7698 66.1135 20.6457 65.4493 21.6238 65.2303C23.777 64.7486 25.9739 64.369 28.1782 64.1939C29.9592 64.0552 30.9445 65.4931 30.3533 66.8945C31.0613 67.0697 31.7912 67.2521 32.6233 67.4638C32.2438 68.0331 32.0248 68.3543 31.8715 68.5732C32.3678 68.9382 32.762 69.2229 33.1488 69.5075C33.0904 69.6024 33.0247 69.6973 32.9663 69.7922C32.6817 69.7484 32.4043 69.7046 32.1051 69.6608C32.2875 71.2009 34.1269 72.9088 31.5649 73.9015C32.0905 74.2664 32.543 74.5803 33.1634 75.0109C32.0832 75.6094 31.5504 75.9014 31.0175 76.2007C31.1781 76.3174 31.3387 76.4342 31.4993 76.551C31.4263 77.0765 31.3898 77.6167 31.2511 78.1276C31.2073 78.3028 30.7329 78.4487 30.7548 78.5436C31.2949 80.7771 29.9154 82.6165 29.3315 84.558C29.0322 85.536 27.9812 86.1784 29.0176 87.3024C29.0906 87.3827 28.7548 87.8206 28.6381 88.1053C28.3899 88.6819 28.1636 89.2731 27.9301 89.857C29.4118 90.1636 28.4921 91.0541 28.2877 91.638C27.3315 94.3678 27.025 97.1487 27.2221 100.433C29.1271 99.1924 31.1124 98.4041 32.3021 96.9662C33.2218 95.8422 34.0758 94.8787 35.2728 94.032C36.2582 93.3386 36.718 91.9372 37.5866 91.0103C38.3895 90.149 39.4113 89.4921 40.3383 88.7476C41.3237 87.6162 42.1849 86.2294 43.1703 84.9375C44.1703 83.6237 44.9731 82.0909 46.6884 81.4632C46.9658 81.361 47.0534 80.7771 47.2577 80.4341C47.5351 79.9523 47.7832 79.4341 48.1409 79.0108C48.7978 78.2298 49.4912 77.478 50.2211 76.7627C51.4108 75.6094 52.6736 74.5292 53.856 73.3614C54.9946 72.2446 55.9362 70.887 57.1989 69.96C58.3813 69.0988 59.8849 68.6608 61.2498 68.055C61.4177 67.982 61.6513 67.9893 61.8411 68.0331C64.549 68.6462 66.8627 70.0038 68.9794 71.7556C70.5341 73.0475 72.1983 74.2007 73.3734 75.9233C73.7165 76.4269 74.6434 76.4926 75.1836 76.9087C77.7455 78.9159 80.2928 80.9523 82.7964 83.0252C83.8401 83.8938 84.7087 84.9886 85.7817 85.8134C86.7232 86.5287 87.8473 87.0104 88.621 87.4411C89.2049 88.0323 89.6355 88.4702 90.0662 88.9082C90.1027 87.8425 89.8545 87.1053 89.5552 86.3827C88.6283 84.12 87.3363 82.1712 85.643 80.3246C83.4752 77.9524 81.7964 75.1423 79.9425 72.4928C77.8915 69.5586 75.7237 66.6828 73.9208 63.5953C73.0815 62.1648 72.5048 60.2305 72.7019 58.6394C72.9063 57.0336 73.1691 54.8512 75.5339 54.3622C75.8478 54.2965 76.1908 53.8804 76.3149 53.5447C76.6434 52.6615 77.3879 51.3477 77.9426 50.9097C80.125 49.1799 82.3074 47.4427 84.4897 45.7056C86.3218 44.2531 88.11 42.7495 90.0005 41.3773C90.9566 40.6839 92.0953 40.2314 93.3288 39.5745C93.4091 39.6328 93.7667 39.8737 93.9565 39.9978C94.4601 38.9686 94.9127 38.0417 95.4382 36.9687L95.4163 36.9176Z" fill="white"/>
</svg>
