<svg width="88" height="89" viewBox="0 0 88 89" fill="none" xmlns="http://www.w3.org/2000/svg">
<path d="M76.6564 69.5499C76.6945 69.9181 76.904 70.4768 76.7453 70.6291C75.6788 71.6003 74.4156 72.3685 73.457 73.4286C72.8667 74.0824 72.708 75.1298 72.308 76.1138C71.9018 75.9805 71.4511 75.8281 70.9686 75.6694C71.0702 76.2598 71.159 76.774 71.2733 77.4214C70.6703 77.1231 70.2386 76.9136 69.7244 76.666V78.2784C69.2293 78.1769 68.823 78.088 68.6008 78.0436C68.1628 80.4939 66.3155 80.6843 64.9952 80.7986C64.5444 81.5413 64.3794 82.1507 63.9922 82.3792C62.9955 82.9505 61.7577 83.1664 60.8817 83.8647C59.8025 84.7216 58.4694 84.8042 57.3395 85.4326C57.0348 85.604 56.1905 85.3882 56.1842 85.4326C55.9239 87.3116 54.0322 86.3086 53.0609 87.1402C52.4135 87.6988 50.7757 87.1021 49.5188 87.0133C49.7029 87.191 49.9187 87.3941 50.2488 87.6988C47.2335 88.0543 44.269 88.6193 41.2981 88.6637C39.5461 88.6955 37.8004 87.8258 36.023 87.502C33.579 87.0513 31.1096 86.7212 28.6466 86.3404C28.5387 86.3213 28.4308 86.2769 28.3229 86.2388C25.8027 85.3183 23.2699 84.4423 20.7815 83.452C20.1403 83.1981 19.569 82.6712 19.0865 82.157C17.4932 80.4621 15.6713 80.3987 13.6209 81.135C13.0813 81.3318 12.4085 81.1668 11.6848 81.1668C12.5799 80.0368 13.2337 79.2179 14.0399 78.2086C13.1194 77.5802 11.9006 77.1612 11.3928 76.3106C10.6882 75.1362 8.98055 74.9394 8.8409 73.1747C8.77742 72.3621 7.5586 71.6956 7.03172 70.8576C6.04778 69.3151 5.17176 67.709 4.28304 66.1093C3.60381 64.8905 2.97536 63.6463 2.34056 62.4021C2.15647 62.0466 1.97238 61.6785 1.88351 61.2912C1.35662 58.9996 0.728173 56.7207 0.385382 54.3973C0.112419 52.5247 0.194943 50.6012 0.118767 48.6968C0.074331 47.5224 -0.0589766 46.3481 0.0298951 45.18C0.125115 43.9739 0.436166 42.7869 0.747217 41.1046C0.277466 40.5143 0.588518 39.3589 1.17888 38.1909C1.51532 37.5244 1.9089 36.8705 2.09934 36.1596C2.18186 35.8549 1.82003 35.4105 1.61689 35.0614C1.4201 34.7249 1.16618 34.4202 1.21697 34.4964C2.01681 33.8108 2.91188 33.3728 3.29276 32.6555C3.94025 31.4494 4.4354 30.1036 4.66392 28.7642C4.86706 27.5834 5.46377 26.9296 6.25092 26.1107C7.14599 25.1775 7.33642 23.5969 8.18071 22.5939C8.85994 21.7877 9.04403 20.0674 10.5358 20.461C12.2307 17.2997 14.9857 15.3128 17.6075 12.9386C17.4234 12.5451 17.0869 11.8468 16.7949 11.2374H18.7755C18.7882 11.1675 18.7437 11.3326 18.7247 11.4976C18.7057 11.65 18.7247 11.8087 18.7247 12.3927C21.1242 10.8755 23.2826 9.49803 25.4663 8.16495C25.6821 8.03164 26.082 8.19669 26.6851 8.24748C27.2627 7.03501 27.942 5.59402 28.5514 4.30538C29.5925 4.90209 30.7224 5.55593 31.6936 6.11455C35.5088 2.92152 40.1618 3.94989 44.2626 2.62316C43.247 2.40098 41.7108 2.87708 42.0853 0.788595C44.1865 0.515632 46.3829 0.141101 48.592 0.0014451C49.1633 -0.0366428 49.7854 0.687027 50.4837 1.12504C51.804 0.648939 54.4004 1.27104 54.7813 2.33116C55.962 2.00106 56.9078 2.06454 57.987 3.06117C58.9582 3.95624 60.577 4.14033 61.891 4.67991C62.4687 4.91478 63.0082 5.24488 63.5605 5.53054L63.4399 5.9749C63.8398 5.83524 64.2397 5.69559 64.2905 5.67654C72.8032 10.3042 78.9798 16.8617 82.6997 25.7362C82.5537 25.7933 82.3061 25.8885 81.7284 26.117C85.3785 26.1361 82.8965 27.7993 82.7886 28.4468C83.544 28.9482 84.1661 29.253 84.6104 29.7291C84.7628 29.8941 84.4644 30.4845 84.3819 30.8336C84.5406 31.4113 84.731 32.0905 84.9151 32.7634C84.7691 32.8078 84.6231 32.8523 84.4708 32.8967C84.8834 33.1633 85.2897 33.4363 85.6959 33.7029C85.3214 34.2361 84.9786 34.7186 84.6168 35.2264C86.4704 36.0136 86.9909 37.9053 85.6261 39.0098C86.0324 39.232 86.3879 39.4351 87.1814 39.8795C86.1466 40.1905 85.4738 40.4 84.6676 40.6412C85.2833 40.7111 85.7785 40.7745 86.8068 40.8952C86.2482 41.9553 85.7785 42.8376 85.3024 43.7391C85.6007 43.8089 85.9816 43.8914 86.2165 43.9485C86.172 44.7103 86.153 45.4086 86.0768 46.1005C86.0133 46.6337 85.7975 47.1606 85.7848 47.6938C85.7658 48.3794 85.8864 49.065 85.9499 49.7506C86.1466 49.8268 86.3434 49.9093 86.5402 49.9855C85.8864 50.3156 85.2325 50.6457 84.3819 51.0773C84.9469 51.5026 85.3658 51.8137 86.0133 52.2898C85.4547 52.4485 85.0992 52.55 84.6231 52.6834C84.9596 53.2483 85.277 53.7816 85.6642 54.4354C85.0865 54.3529 84.6168 54.2894 83.9375 54.1878C84.2867 54.7401 84.547 55.1654 84.9469 55.8002C84.1661 55.8891 83.5947 55.9526 82.8266 56.0351C83.1821 56.3208 83.4488 56.5302 83.836 56.8413C83.0361 57.2983 82.3442 57.6475 83.2583 58.5933C83.544 58.8917 83.29 59.9201 83.0171 60.4787C82.7505 61.031 82.1411 61.4118 81.5317 62.0212C81.8745 63.2147 81.665 63.4241 79.7415 63.6654C79.7415 64.4843 79.7733 65.2079 79.7161 65.9316C79.7034 66.0966 79.3416 66.2109 79.2591 66.4014C78.948 67.0933 77.2277 66.9663 78.1164 68.4327C78.218 68.6041 77.361 69.3595 76.9421 69.842C76.8405 69.7467 76.7453 69.6579 76.6437 69.5626L76.6564 69.5499ZM31.9666 82.5062C32.1316 82.5379 32.2967 82.5697 32.4617 82.6014C33.014 82.5443 33.5599 82.4935 34.6264 82.3856C32.1761 83.3759 34.0487 84.6074 33.871 85.2358C34.5058 85.3501 35.0581 85.4199 35.5913 85.5532C35.9468 85.6421 36.2769 85.9531 36.6197 85.9531C38.2067 85.9531 39.8 85.7437 41.3807 85.8516C43.6723 86.0039 45.9195 86.2642 48.1667 85.4643C48.7062 85.2739 49.468 85.7437 50.0457 85.604C50.8772 85.4009 51.639 84.9121 52.6356 84.4487C52.5214 85.1787 52.4833 85.4072 52.4452 85.6548C52.9848 85.0517 53.5434 84.036 53.9052 84.0995C55.2383 84.3281 56.2794 84.436 56.5016 82.6649C56.9015 83.0013 57.2443 83.2933 57.5807 83.5726C59.8787 82.1063 62.1195 80.678 64.8492 78.9386C65.0459 74.476 65.2681 69.3468 65.503 63.9129C60.7357 62.7957 56.0572 61.7038 51.4359 60.6183C50.4519 62.3958 51.3724 63.9701 51.2899 65.5698C50.9344 65.4872 50.5852 65.4047 50.344 65.3476C50.4329 66.8267 50.5218 68.2613 50.6106 69.7594C49.2776 70.0768 49.3029 70.0578 50.3313 71.3337C50.5027 71.5496 50.4837 72.0193 50.4011 72.3304C50.0139 73.7714 50.6297 74.7109 52.2103 75.06C52.4325 75.1108 52.8134 75.4345 52.788 75.5171C52.2992 76.9263 53.7719 76.6724 54.0449 76.6153C55.3399 76.3486 55.524 77.3453 55.9874 78.0436C56.127 78.2594 56.1715 78.5641 56.3556 78.7228C57.1681 79.4528 58.0187 80.1511 58.8503 80.8557C58.7932 81.0398 58.7297 81.2302 58.6726 81.4143C57.9552 81.4842 57.2443 81.554 56.3048 81.6492C56.3746 81.4588 56.273 81.7381 56.1715 82.0174C54.9273 80.1638 54.1655 77.9928 51.5946 77.6055C50.6678 77.4659 50.5091 77.5548 50.6868 78.5704C50.7185 78.7609 50.6297 78.9831 50.5662 79.1798C50.0774 80.6653 49.5759 82.1443 49.03 83.7567C47.5826 82.6078 46.9415 79.8019 47.5826 78.3102C48.1159 77.0787 47.6334 76.0312 46.6114 75.6123C44.6118 74.7997 42.5042 74.2348 40.4158 73.6698C39.1335 73.3207 37.8067 73.1302 36.4864 72.9398C34.2963 72.6224 33.8012 72.9906 33.1029 75.3203C32.8744 76.082 32.6458 76.8374 32.4237 77.5992C32.0555 76.3169 31.6809 75.041 31.281 73.6571C29.4084 73.5619 27.4405 74.1268 25.6059 75.3457C25.06 75.7075 24.2157 75.625 23.2826 75.7837C22.8445 76.7422 22.8382 76.6978 21.1814 76.7486C20.883 76.7549 20.6037 77.2881 20.3054 77.5675C20.1086 77.7515 19.8991 77.9229 19.6769 78.0753C19.2198 78.3927 18.7501 78.6974 18.2867 79.0084C18.3375 79.0973 18.3819 79.1862 18.4327 79.2814C18.9151 79.2497 19.3976 79.2243 19.88 79.1925C19.8229 79.3322 19.7721 79.4718 19.715 79.6115C21.3401 80.7224 23.2826 81.281 24.9838 82.2523C27.0152 83.4139 29.0529 84.017 31.3572 84.2773C31.1795 83.5409 31.0334 82.9061 30.8367 82.0936C31.3508 82.2713 31.6555 82.3792 31.9666 82.4871V82.5062ZM33.5028 68.7374C33.6932 68.985 33.8646 69.2452 34.0741 69.4674C34.4867 69.9118 34.9248 70.3434 35.1914 70.6164C36.5689 70.7434 37.9972 70.7434 39.3683 71.029C41.4378 71.4543 43.4755 72.0574 45.5132 72.6287C46.0845 72.7874 46.6114 73.1112 47.3351 73.4413C47.4303 73.3397 47.8937 73.0731 47.9127 72.7811C48.0397 71.0417 48.0016 69.296 48.1349 67.563C48.2555 65.957 47.9254 64.4271 48.5539 62.7005C49.3982 60.3708 48.738 59.8756 46.3829 59.2916C45.7417 59.1329 45.1133 58.8599 44.4658 58.7965C41.6155 58.5045 38.7589 58.2442 35.9024 58.0347C35.4961 58.003 35.0644 58.3394 34.6455 58.5045C34.8105 58.8473 34.9565 59.2027 35.1533 59.5265C35.3691 59.8883 35.6357 60.2184 35.8897 60.5739C35.6294 60.6374 35.3945 60.7009 35.3945 60.7009C35.6167 61.6213 35.8198 62.4973 36.0293 63.3734C35.8579 63.3353 35.6865 63.2972 35.5151 63.2654C35.3501 63.6146 35.185 63.9637 35.02 64.3129C34.6328 64.6493 34.2455 64.9794 33.852 65.3158C33.3568 64.9667 32.868 64.6176 32.2205 64.1605C32.9442 63.6527 33.4393 63.3099 33.9345 62.9607C33.014 61.3293 33.1219 58.3458 34.1186 57.5205H16.5791C16.9727 58.3458 17.3028 58.7203 17.2901 59.0821C17.2583 59.882 17.0996 61.3484 16.9028 61.3611C14.5287 61.5388 15.9824 62.8338 16.2173 63.6209C15.519 63.9447 14.7255 63.8114 15.1508 65.0746C15.2904 65.4745 14.7572 66.7314 14.4779 67.5821C14.4144 67.7662 13.9256 67.7789 13.786 67.9757C13.5257 68.3438 13.1512 68.839 13.2274 69.1945C13.5701 70.7561 13.0242 71.7717 11.2785 71.9304C13.1956 73.9428 14.9667 75.7964 16.668 77.5738C17.4043 76.9898 17.9185 76.4946 18.5152 76.1138C20.0387 75.1425 21.5686 74.1776 23.1493 73.308C24.1522 72.7557 25.2187 72.2478 26.3232 71.9558C27.5548 71.6257 28.8561 71.5813 30.1193 71.3782C31.8142 71.0989 32.3729 69.6452 33.1283 68.401C33.2552 68.5152 33.3822 68.6358 33.5155 68.7501L33.5028 68.7374ZM76.6691 65.4872C76.4977 65.6269 76.3009 65.9189 76.1549 65.8935C74.6568 65.6142 73.1714 65.2778 71.6796 64.9794C71.3495 64.9159 70.994 64.9032 70.6576 64.9413C69.9466 65.0238 69.242 65.1508 68.3215 65.2905C68.3215 66.0586 68.7214 67.3916 68.239 67.9312C67.2106 69.0675 67.2106 69.8547 67.9914 71.0481C68.1755 71.3274 67.5724 72.1272 67.3312 72.6922C67.1916 73.0223 66.8424 73.4349 66.9376 73.6698C67.255 74.4379 67.7311 75.1489 68.2834 76.1201C69.1531 75.352 70.2894 74.5268 71.1908 73.4984C72.308 72.2161 73.1968 70.7434 74.2505 69.4103C74.4029 69.2199 74.9488 69.3341 75.4439 69.3024C75.1075 68.9088 74.9107 68.6803 74.9742 68.7501C75.6915 67.7027 76.3073 66.8267 76.8913 65.9252C76.9294 65.8618 76.7326 65.6459 76.6501 65.4999C76.7812 64.8101 77.1939 64.5393 77.8879 64.6874C78.5164 63.2528 78.948 61.7991 79.7606 60.612C80.243 59.9074 80.5223 60.0597 80.0081 59.4376C80.5223 59.3043 81.0683 59.1583 81.3412 59.0885C81.3412 58.2061 81.2523 57.5332 81.3603 56.8984C81.5951 55.5463 81.9189 54.2132 82.2363 52.8738C82.3379 52.4485 82.4204 51.82 82.7124 51.6677C84.1407 50.944 83.7661 50.1124 83.0044 49.1856C82.9219 49.0904 82.8965 48.9507 82.7822 48.6841C83.1821 48.8365 83.417 48.9254 83.8169 49.0777C83.5947 48.1572 84.0518 46.9194 82.3696 47.2876C82.687 46.6909 82.998 46.0878 83.4488 45.2372V44.3104C84.7882 44.5262 83.9883 43.5105 83.9883 43.1804C83.9883 42.0378 83.7662 40.8952 83.6963 39.7462C83.6265 38.5908 83.8106 37.4038 83.5821 36.2865C83.1694 34.3123 82.5219 32.3889 81.9824 30.4464C81.5888 29.0371 80.1922 28.4785 78.8084 29.126C78.0974 29.4561 77.3166 29.6465 76.5866 29.9385C76.1549 30.1163 75.755 30.3765 75.336 30.6051C75.6217 30.9796 75.9137 31.3478 76.1867 31.7287C76.2374 31.7921 76.212 31.9128 76.2247 32.0461C75.7613 32.0715 75.317 32.0905 74.8726 32.1159C75.0059 32.8015 75.1329 33.4363 75.2662 34.1028C74.6631 34.2869 74.0982 34.4646 73.9141 34.5154C74.2061 35.3153 74.46 36.0009 74.8028 36.934C74.2632 36.642 74.022 36.5087 73.9458 36.4643C73.0761 39.1114 73.9141 42.2219 71.2606 44.3802C72.0668 44.3231 72.8349 43.9231 73.019 44.1072C74.1299 45.2118 75.2535 45.5165 76.631 44.6722C76.7008 44.6278 76.9484 44.7801 77.05 44.9007C78.2688 46.3036 80.0653 45.5546 81.5444 46.0751V47.2812C77.926 46.9765 74.314 46.6718 70.6131 46.3608C70.7782 47.605 70.8924 48.462 71.0004 49.2555C70.5369 49.2301 70.0609 49.1983 69.5848 49.1729C69.7308 49.5982 69.9275 50.0172 69.9974 50.4552C70.0608 50.8044 69.9974 51.1852 69.9466 51.5407C69.7625 52.7976 69.5594 54.0545 69.3689 55.2987C68.3279 55.4892 67.5597 55.8002 68.5691 57.0063C68.7786 57.2539 69.1023 57.5586 69.0896 57.8189C69.0007 59.463 68.8357 61.1008 68.696 62.6751C71.1337 63.1385 73.4507 63.5765 75.7677 64.0145C75.6725 64.1415 75.5836 64.2684 75.4884 64.3954C75.882 64.7636 76.2692 65.1318 76.6628 65.4999L76.6691 65.4872ZM53.7021 36.8071C53.9179 35.7914 54.1591 35.0106 54.2417 34.2107C54.3496 33.1506 55.5938 32.3444 54.9463 31.1573C54.7305 30.7638 54.3178 30.2178 53.9687 30.2052C53.1371 30.1607 52.2738 30.5543 51.4486 30.4781C49.1823 30.275 46.9415 29.856 44.6753 29.6529C43.5834 29.5577 42.4408 29.6529 41.3553 29.8687C39.6223 30.2052 40.822 31.7223 40.4094 32.5412C40.0603 32.4904 39.7365 32.446 39.3239 32.3889C39.5969 33.0617 39.8 33.5505 39.9968 34.052C40.3142 34.8519 40.365 35.6644 39.2223 35.5438C38.5875 35.474 37.7496 35.0233 37.4703 34.4964C37.21 34.0139 37.5147 33.1824 37.6734 32.5285C37.9274 31.4811 38.4225 30.4718 38.4923 29.4243C38.5241 28.9419 37.8829 28.1992 37.3624 27.9389C34.3407 26.4218 31.2683 25.0125 28.2149 23.5715C28.2911 23.4382 28.3609 23.3112 28.4371 23.1779C27.9483 23.4699 27.4595 23.7619 26.9263 24.0793C27.2691 24.2698 27.5103 24.4094 27.8277 24.5872C27.4341 25.1458 27.0469 25.6854 26.666 26.225C27.8277 26.8661 27.3707 28.2944 25.5869 29.4497C26.3867 30.7405 26.3529 31.4853 25.4853 31.6842C25.7837 32.1032 26.0566 32.4841 26.2471 32.7443C25.8789 33.2014 25.3266 33.6458 25.4028 33.8362C25.8027 34.8519 25.4282 35.3724 24.5204 35.7469C24.4315 35.785 24.5395 36.2103 24.4887 36.4452C24.1713 37.9687 25.1489 38.7432 25.9678 39.4097C26.8438 39.2383 27.4976 38.9844 28.1388 39.0035C30.6272 39.086 33.1092 39.2256 35.5976 39.4034C36.7657 39.4859 37.1212 39.0796 36.9307 38.0195C36.7847 37.2324 36.9498 36.3881 36.9752 35.6644C38.194 36.369 39.0763 36.8769 40.1492 37.4926H39.2033C39.2795 38.375 39.3493 39.1368 39.4572 40.4127C43.4818 41.0792 47.7921 41.7966 51.9056 42.4758C52.5087 40.5905 53.1498 38.5591 53.7148 36.7944L53.7021 36.8071ZM3.66729 54.1878C3.59111 54.9813 3.43876 55.5146 3.50859 56.016C3.60381 56.727 3.71807 57.5142 4.09895 58.0791C4.29574 58.3585 5.33046 58.4664 5.60977 58.2251C8.18705 56.0034 11.488 56.6508 14.4335 56.0605C15.4936 55.8447 15.8681 55.6733 16.2426 54.8099C16.414 54.4164 16.96 54.1878 17.4297 53.8006C17.1377 52.7595 16.9536 51.5471 18.3502 50.6964C18.5406 50.5758 18.5343 50.1124 18.5914 49.8014C18.7057 49.1412 18.6993 48.4366 18.9215 47.8145C19.4039 46.456 20.1784 45.18 20.4894 43.7898C20.7561 42.6155 20.5466 41.3395 20.5466 40.1144C16.9854 39.6383 13.3797 39.1431 10.1422 37.2133C9.86292 37.4799 9.50109 37.8164 9.15195 38.1465C10.5104 39.1685 9.59631 39.816 8.78376 40.6412C8.88533 40.8253 9.08847 41.1935 9.29795 41.5871C7.34912 42.3615 7.31738 43.7771 7.93948 45.5292C7.50147 45.2689 7.27294 45.1356 6.85398 44.8817V48.0874C6.51119 48.1319 5.88908 48.2144 4.86071 48.354C7.53956 49.8966 5.03211 51.3058 5.14002 52.7722C4.86071 52.8167 4.44809 52.8865 3.84503 52.9881C4.20687 53.5149 4.45444 53.8895 4.76549 54.3402C4.30209 54.2704 3.90851 54.2132 3.66729 54.1815V54.1878ZM23.9618 31.6081C23.8729 30.9733 23.6 30.3004 23.7206 29.71C24.0951 27.9262 24.622 26.1805 25.0981 24.4221C25.2441 23.8826 25.5297 23.3557 25.5615 22.8161C25.6694 20.9181 24.203 19.9468 23.0286 18.8677C21.7146 17.6615 20.2927 16.576 18.8644 15.3953C17.8741 16.2586 16.4775 17.2997 15.2904 18.5439C14.1669 19.7246 13.2718 21.1212 12.3831 22.2892C13.0623 22.4479 13.5828 22.5749 14.1034 22.6955C13.6082 23.1462 14.5668 24.1492 13.4051 24.4094C13.0115 24.4983 12.7068 25.0188 12.3386 25.3616C13.3861 26.0536 13.8304 27.8056 13.2972 28.4848C12.91 28.3135 12.5354 28.1484 11.6975 27.7802C12.5164 28.834 13.786 29.2656 12.6941 30.421C12.3069 30.8336 12.218 31.5319 11.9514 32.1921C9.87562 32.3381 11.1643 34.0901 10.7326 35.4613C14.5731 36.3246 18.2613 37.1562 21.8035 37.956C21.9622 37.061 21.8416 35.9755 22.2605 35.7025C23.5301 34.8709 23.3651 33.8933 23.0667 32.738C22.8763 31.9953 22.8128 31.2335 23.9618 31.6208V31.6081ZM68.0993 45.3324C67.4709 45.5355 66.8361 45.9545 66.233 45.9037C64.6143 45.7704 63.0146 45.8466 61.4149 45.8593C59.6692 45.872 57.9045 45.1547 56.0128 45.142C54.7495 45.1293 53.9433 45.2689 53.2133 46.2021C54.0258 47.0908 53.4101 48.8111 52.0516 49.6617C53.1244 50.6837 53.7402 51.7121 52.2294 52.8992C52.0453 53.0452 51.8739 53.4705 51.9501 53.6546C52.6547 55.3241 51.5565 56.4096 50.6741 57.6792C51.5628 58.0093 52.3944 58.4156 53.2768 58.6251C54.1338 58.8219 55.2891 58.2759 55.4732 59.2472C57.2189 59.7042 58.8186 60.1105 60.4056 60.5358C60.8055 60.6437 61.1864 60.8405 61.5863 60.9357C62.3734 61.1198 63.2304 61.1325 63.9477 61.4626C64.9888 61.9387 65.5792 61.8118 65.7823 60.6374C65.9918 59.4122 66.1568 58.1744 66.4108 56.9556C66.7091 55.5209 67.0583 54.099 67.4201 52.677C67.6105 51.9216 68.0168 51.1852 68.0676 50.4298C68.1692 48.8111 68.0993 47.186 68.0993 45.3387V45.3324ZM73.6475 29.9893C71.7685 29.9893 70.2767 29.9258 68.7976 30.0084C67.4709 30.0782 66.1505 30.2559 64.8365 29.5323C64.9126 30.0591 64.9444 30.3004 64.9634 30.4146C62.5258 29.5894 60.2024 30.1353 57.8791 30.6114C57.6632 30.6559 57.4982 30.9098 57.2887 31.0812C57.6251 31.589 57.8854 31.9826 58.2155 32.4841C57.4855 32.884 56.857 33.2331 56.2984 33.5378C57.0284 34.763 56.4508 35.3724 55.7081 35.766C55.8985 36.4325 56.1968 37.499 55.9239 37.6704C54.8003 38.3877 55.3716 39.4542 55.1177 40.3238C54.9526 40.9015 54.832 41.4919 54.5972 42.4758C55.816 42.7361 57.2824 43.0535 58.7487 43.3645C59.6946 43.5677 60.6404 43.7708 61.5863 43.9422C62.3734 44.0882 63.4018 44.5643 63.916 44.2405C65.1793 43.4597 66.2775 43.5169 67.5851 43.9549C69.0642 44.45 70.0862 43.447 70.1116 41.7077C70.118 41.257 70.3338 40.7999 70.4989 40.3619C70.7147 39.7843 71.0448 39.2447 71.1971 38.6607C71.559 37.2768 71.7938 35.8549 72.1747 34.4773C72.581 33.03 73.0952 31.6144 73.6348 29.9766L73.6475 29.9893ZM19.7086 55.1718H34.0932C34.3407 51.7058 34.2011 48.1572 36.3086 45.2562C35.9785 44.1834 35.6357 43.0471 35.3437 42.0886C34.8676 41.9172 34.3344 41.7267 33.7504 41.5173C33.4901 41.6315 33.0394 42.0061 32.6014 41.9934C30.8303 41.9426 29.1862 40.9396 27.3516 41.257C26.9898 41.3205 26.6026 41.4474 26.2534 41.3776C25.2695 41.1872 24.2982 40.9205 23.6507 40.7555C23.4857 41.7775 23.2318 42.3615 23.3397 42.8567C23.6444 44.2088 23.5809 45.1547 21.7273 44.8055C22.1844 45.326 22.5589 45.745 23.1746 46.4496H21.156C21.4988 47.3637 21.7781 48.1001 22.0955 48.9317C21.7019 48.9317 21.4036 48.9317 21.5496 48.9317C20.883 50.1124 20.3434 51.0646 19.8039 52.0105C19.6642 51.9279 19.5182 51.8518 19.3785 51.7692C19.4801 52.8167 19.5817 53.8641 19.7086 55.1654V55.1718ZM60.1136 28.6816C60.8372 28.396 61.4657 27.958 62.1068 27.9326C63.8716 27.8627 65.6427 27.9707 67.5534 28.0087C67.5851 28.0786 67.7565 28.415 67.9216 28.7578C68.3786 28.4023 68.842 28.0532 69.3943 27.6215C71.2987 28.0976 73.3872 28.98 75.1519 27.3422C75.336 26.3392 75.4947 25.4949 75.6725 24.5301C75.8693 24.5301 76.2565 24.5301 76.2501 24.5301C76.7516 23.6477 77.2214 22.9113 77.5769 22.1242C77.7165 21.8195 77.7229 21.2799 77.5388 21.0323C75.9327 18.893 74.2696 16.7919 72.4794 14.4812C72.2001 15.2049 72.1303 15.7444 71.9525 15.7825C70.5623 16.0872 69.1594 16.3348 67.7438 16.5189C66.2013 16.7157 64.646 16.83 62.9638 16.9886C64.0747 19.5342 61.5292 18.4995 60.9642 19.5278C61.4466 19.877 61.8846 20.188 62.4687 20.607C61.8466 20.8292 61.4403 20.9752 61.2752 21.0387C61.3768 21.7052 61.6561 22.2765 61.4911 22.6764C61.1673 23.4699 60.7674 24.4158 60.1072 24.8538C59.0598 25.5521 59.4216 26.1678 59.739 26.9867C59.9739 27.5961 60.0374 28.2754 60.1199 28.6753L60.1136 28.6816ZM57.403 26.8026C57.6569 25.9457 56.1968 24.5491 58.2346 24.3269C58.2917 24.3269 58.2917 23.8254 58.3234 23.5588C58.3806 23.0637 58.4186 22.5685 58.5266 22.0861C58.571 21.8829 58.8757 21.7242 58.8884 21.5402C58.9455 20.6832 58.7233 19.7881 59.7517 19.2295C60.0755 19.0517 60.3611 18.4169 60.304 18.0424C60.2659 17.7821 59.6438 17.4647 59.2502 17.414C57.2252 17.1791 55.1812 16.7728 53.1689 16.8998C51.0804 17.0331 49.2966 16.3412 47.3922 15.8079C46.5987 15.5857 45.6211 14.8875 44.7641 15.7698C44.3198 16.2269 43.9389 16.7601 43.4945 17.2997C44.0595 17.6488 44.4721 17.9028 45.1069 18.29C44.6626 18.7788 44.2563 19.2168 43.8691 19.6358C43.5707 21.0894 43.247 22.6828 42.9296 24.2444C42.2482 23.8297 41.7933 24.6697 41.5648 26.7645C42.7963 27.0883 44.1928 27.1645 45.2148 27.8183C46.1607 28.4214 46.4908 27.9834 47.0304 27.52C47.1383 27.4311 47.2652 27.3676 47.4176 27.2787C47.7159 27.704 47.9699 28.0722 48.0524 28.1865C49.9758 28.0976 51.766 27.7739 53.4863 27.9897C56.0001 28.3071 55.981 28.4721 56.6856 26.1996C56.9396 26.4091 57.1554 26.5931 57.403 26.7963V26.8026ZM36.9307 45.9608C36.8736 46.0688 36.8165 46.1767 36.7593 46.2846C37.21 46.6464 37.6607 47.0083 38.194 47.4399C37.4893 47.6875 36.9371 47.8779 36.3023 48.1001C36.8419 48.4873 37.2608 48.7857 37.6607 49.065C35.1089 50.5187 37.2164 53.4578 35.2231 55.0639C39.0636 55.7494 42.6439 56.3842 46.2876 57.0317C46.2876 57.0698 46.3257 57.3364 46.3384 57.4443C47.2271 57.3555 48.0778 57.2666 49.1633 57.1587C49.3664 54.8226 49.5696 52.4231 49.8108 50.0236C49.8235 49.8776 50.1663 49.7887 50.2996 49.63C50.4964 49.4015 50.7376 49.1539 50.7947 48.8809C51.0042 47.8843 51.1058 46.8686 51.3279 45.8783C51.5692 44.8055 51.5946 44.012 50.0964 44.1961C49.3537 44.285 48.5856 44.2278 47.8429 44.1453C46.4844 43.993 45.1387 43.7771 43.7802 43.5867C43.4184 43.117 42.9169 42.8821 42.409 42.8567C41.9012 42.8376 41.3934 43.0408 40.8792 43.1296C40.2634 43.2376 39.6032 43.2185 39.0383 43.447C38.5495 43.6502 38.1686 44.1199 37.7623 44.4564C37.9464 44.9007 38.1686 45.4403 38.4098 46.037C37.8385 46.0116 37.3814 45.9926 36.9244 45.9672L36.9307 45.9608ZM48.2619 13.4528C48.2492 13.6115 48.2365 13.7702 48.2301 13.9353C48.8205 14.0749 49.4109 14.2273 50.0012 14.3606C50.617 14.5002 51.2391 14.6526 51.8612 14.7669C52.4261 14.8748 53.0102 14.8811 53.5624 15.0335C54.0639 15.1731 54.5654 15.681 55.0098 15.6175C56.2984 15.4334 57.5807 14.5574 58.7995 15.8079C58.863 15.8714 59.1106 15.8778 59.1233 15.8524C59.6565 14.4748 60.9642 15.5286 61.8466 14.9509C62.7353 12.6974 63.6557 10.3614 64.5127 8.19034C59.0661 5.67019 53.8037 3.18178 47.8937 2.58507C48.6427 3.03578 49.3918 3.48649 49.9568 3.82928C48.5793 5.20679 47.3795 6.40656 46.2178 7.56824C46.9923 7.86025 47.4938 8.05069 47.9889 8.24113C47.6398 8.48235 47.3097 8.74897 46.9415 8.9521C46.5035 9.19967 46.0401 9.39011 46.021 9.39646C46.3765 11.1802 46.6939 12.7482 47.0113 14.3225C47.3605 14.0813 47.8112 13.7702 48.2682 13.4592L48.2619 13.4528ZM39.5334 26.2567C39.489 24.0222 40.5046 21.5592 40.9934 21.4767C41.6536 18.9438 42.2694 16.5951 42.8661 14.2971C40.7649 13.256 38.2828 12.9196 36.7085 10.9263C36.6006 10.9962 36.3086 11.3009 36.188 11.2437C34.6328 10.482 33.1219 9.63134 31.554 8.90132C31.1096 8.69183 30.4431 8.61566 30.0305 8.8061C29.8019 8.91401 29.8591 9.70116 29.8527 10.1836C29.8527 10.7613 29.9099 11.3389 29.9416 11.8468C29.3703 11.9674 28.8561 12.0817 28.1134 12.2404C29.694 13.8274 30.1511 15.2747 28.5895 16.8553C28.4435 17.0077 28.6339 17.5092 28.691 17.8456C28.7291 18.0805 28.9259 18.4042 28.837 18.5312C27.9864 19.6865 27.9356 20.4864 29.5036 21.1212C30.7605 21.6354 31.8841 22.4797 33.0711 23.1843C32.9569 23.4319 32.8299 23.7112 32.8807 23.5969C35.1533 24.5047 37.3179 25.3743 39.5334 26.2631V26.2567ZM10.4152 69.9753C11.2468 68.2359 11.9578 66.7505 12.6624 65.2651C12.9226 64.7128 13.2274 64.1796 13.4368 63.6082C13.8304 62.51 14.1542 61.3928 14.535 60.2946C14.7572 59.6471 15.0365 59.0123 15.2841 58.3712C14.8017 58.46 14.3256 58.5489 13.8431 58.6251C13.7987 58.6314 13.7415 58.5362 13.7035 58.5425C12.3513 58.7393 11.0056 58.9933 9.65344 59.1329C8.34575 59.2726 7.12694 60.7961 5.70499 59.336C5.41299 59.6471 4.98132 59.8947 4.91784 60.2184C4.77184 60.9421 4.51157 62.1863 4.80993 62.364C6.67623 63.4559 7.0952 65.246 7.51417 67.0869C7.5586 67.271 7.65382 67.5567 7.78713 67.6011C9.06308 67.982 9.33604 68.8644 8.9742 70.153C9.67248 70.0705 10.2501 70.007 10.4152 69.988V69.9753ZM43.6532 11.4596C44.4277 9.52342 45.272 7.41589 46.0655 5.42262C44.8403 5.0227 44.0849 4.78148 43.3295 4.53391C43.3866 4.66087 43.4374 4.79417 43.4945 4.92113C42.9677 5.07348 42.4535 5.32106 41.9202 5.3528C40.7205 5.42262 39.3747 5.04809 38.34 5.47341C37.0386 6.00664 35.8579 6.68587 34.3915 6.49543C34.2519 6.47639 34.0932 6.63509 33.9599 6.70492V8.03799C35.2104 8.36174 36.6705 8.32365 37.4259 9.03463C38.2892 9.85352 40.676 9.32028 39.9905 11.1993C41.1267 11.2755 42.1995 11.3516 43.6532 11.4532V11.4596ZM6.67623 44.5072C4.77819 43.3709 5.6669 42.3171 6.38423 41.403C7.57765 39.8795 7.84426 38.2036 7.73 36.8261C6.47945 36.2992 5.53995 35.9056 4.70201 35.5565C4.27035 36.7753 3.40702 37.9624 3.58477 38.959C4.00373 41.3205 3.11502 43.3836 2.74048 45.5673C2.71509 45.7196 2.59448 45.9481 2.65161 45.9989C3.77521 47.059 2.63257 47.2177 1.78829 47.6558C2.42308 48.6143 3.01345 49.5094 3.36893 50.0426C3.98469 48.2017 4.61314 46.3481 5.27333 44.3612C5.34316 44.3675 5.8256 44.4183 6.67623 44.5072ZM11.0309 26.8471V23.8826C10.8596 23.8 10.4215 23.5842 9.67883 23.216C9.97084 24.0159 10.1486 24.492 10.3009 24.9173C9.72326 25.0442 9.26621 25.1522 8.79011 25.2537C9.85023 26.3773 8.6695 26.7074 8.13627 27.2597C7.91409 27.4882 7.55226 27.7104 7.52052 27.9643C7.41895 28.7515 7.66017 29.5196 6.68893 30.0972C6.18744 30.3892 5.97796 31.3224 5.83195 32.008C5.71769 32.5285 5.73038 33.4871 5.99065 33.6077C6.65084 33.9124 7.64113 34.1853 8.2061 33.8997C9.71692 33.1379 10.7389 30.2686 10.5104 28.5864C10.4406 28.0405 10.8405 27.4374 11.0246 26.8471H11.0309ZM26.8184 13.9226C26.92 12.1578 26.9898 10.9454 27.0596 9.73925L26.5454 9.63768C25.371 10.7676 24.6156 12.6276 22.4637 12.0309C22.7938 12.1134 23.1239 12.1896 23.784 12.3546C22.6795 12.9323 21.905 13.3322 21.3083 13.6496C21.6702 14.6843 22.051 15.7635 22.2605 16.3665C23.7269 16.9442 24.9203 17.414 26.1645 17.9028C25.2631 16.4618 28.4244 15.1223 26.812 13.9289L26.8184 13.9226ZM71.3495 13.6433C70.2767 12.6466 69.4134 11.7198 68.4231 10.9644C67.8518 10.5327 67.0773 10.3423 66.3727 10.1328C66.2203 10.0884 65.7442 10.5454 65.7696 10.6026C66.4869 12.0753 65.0142 12.2023 64.3857 12.5578C63.1415 13.2624 63.6557 13.9226 64.3413 14.3796C64.8174 14.697 65.6109 14.7034 66.2267 14.6272C67.4391 14.4748 68.6262 14.1574 69.826 13.9226C70.41 13.8083 71.0004 13.7131 71.3495 13.656V13.6433ZM78.9607 28.4531C81.4047 26.8344 79.64 25.1839 79.5066 23.4255C78.8972 24.073 78.4338 24.5618 77.9577 25.0569C78.1228 25.2982 78.3069 25.5648 78.3767 25.6663C78.0149 25.9457 77.4563 26.3456 77.4753 26.3773C77.9387 27.0946 78.4592 27.7802 78.9607 28.4531Z" fill="white"/>
<path d="M35.0118 64.3003C35.3165 65.2779 35.7799 66.2174 34.9102 67.2204C34.669 67.4997 34.9293 68.2043 34.961 68.7312H33.4946C33.3677 68.6169 33.2407 68.4963 33.1074 68.382V65.9254C33.1074 65.9254 33.4693 65.6207 33.8438 65.3033C34.231 64.9668 34.6182 64.6367 35.0118 64.3003Z" fill="white"/>
<path d="M31.9661 82.5066C31.8074 81.3639 31.8836 80.1134 31.4265 79.1041C30.9377 78.0186 31.9788 78.4693 32.1184 78.1011C32.3025 78.5073 32.5184 78.9009 32.658 79.3199C32.9056 80.0816 33.1087 80.8624 33.3944 81.8718C33.3499 81.9035 32.9056 82.2527 32.4612 82.6018C32.2962 82.5701 32.1311 82.5383 31.9661 82.5066Z" fill="white"/>
</svg>
