<svg width="225" height="303" viewBox="0 0 225 303" fill="none" xmlns="http://www.w3.org/2000/svg">
<path d="M253.796 3.96022C254.022 4.54043 254.19 4.9947 254.367 5.44379C254.511 5.26596 254.65 5.07882 254.804 4.8958C255.654 5.37194 256.752 5.66081 257.293 6.36974C257.875 7.12922 257.931 8.27876 258.241 9.3598C258.679 9.35925 259.288 9.36056 260.254 9.34593C259.441 10.2249 259.196 10.4834 258.833 10.8805C262.244 10.7327 260.406 14.9709 263.358 15.2006L261.054 16.4843C261.119 16.667 261.189 16.8353 261.254 17.018C262.064 17.0294 262.878 17.0263 263.164 17.0374C263.655 18.334 264.038 19.3262 264.42 20.3183C264.65 20.2509 264.88 20.1835 265.111 20.116C264.907 20.6678 264.703 21.2197 264.474 21.8345C265.033 21.8999 265.497 21.9458 266.024 22.0175C265.758 22.3483 265.568 22.5758 265.274 22.9222C269.046 23.3771 265.503 24.9495 265.876 26.1658C268.129 26.1888 266.976 27.3305 266.392 28.1183C267.139 28.4324 267.775 28.6991 268.41 28.9659C268.189 29.2233 267.976 29.4756 268.031 29.4208C268.971 31.9161 269.888 34.3268 270.854 36.8686C270.665 37.0103 270.27 37.3279 269.851 37.6465C272.266 38.8572 270.181 40.1406 270 41.4102C270.562 41.9373 271.18 42.4571 271.73 43.0514C272.346 43.7189 273.267 44.4108 271.857 45.2451C271.727 45.3176 271.73 45.803 271.825 46.0177C272.308 47.1244 272.851 48.2093 273.412 49.3695C272.569 49.6691 272.115 49.837 271.332 50.1148C272.177 50.5816 272.767 50.898 273.299 51.1979C273.11 51.7538 272.801 52.2056 272.854 52.627C273.018 54.1668 273.414 55.6867 273.487 57.2163C273.531 58.0808 273.104 58.9758 272.859 59.977C273.466 60.2593 274.6 60.6989 273.029 61.8784C272.85 62.0149 272.896 62.5127 272.896 62.8412C272.882 64.1271 272.892 65.412 272.895 66.5307C272.714 66.534 273.042 66.5336 273.371 66.5332C273.338 66.7584 273.301 66.9981 273.268 67.2233C272.826 67.3478 272.399 67.4764 271.915 67.6123C272.542 69.1743 274.399 70.8907 271.226 72.1227C273.073 73.0779 272.175 74.2844 271.915 75.5005C271.53 77.322 271.352 79.1865 271.068 81.1463C270.838 81.2137 270.387 81.3434 270.156 81.4108C270.413 82.5704 270.637 83.6506 270.9 84.8432C269.987 84.9745 269.174 85.0871 268.365 85.2089C268.355 85.2998 268.339 85.3815 268.329 85.4724C269.176 85.682 270.024 85.8917 270.958 86.126C269.879 87.2263 268.926 88.183 268.253 88.8748C268.689 89.4837 269.203 90.2081 269.975 91.2876C268.501 91.1344 268.755 91.2612 268.253 92.2833C267.153 94.5034 266.868 97.0725 265.209 99.0557C264.898 99.4362 265.18 100.314 265.192 101.232C265.183 101.237 264.806 101.325 264.284 101.458C264.395 102.029 264.507 102.624 264.642 103.304C264.114 103.403 263.642 103.496 263.443 103.533C263.001 104.596 262.791 105.552 262.271 106.28C260.824 108.292 261.089 111.127 258.513 112.732C257.305 113.491 257.127 115.903 256.521 117.458C255.109 118.792 253.707 120.121 252.151 121.61C252.768 122.544 252.533 123.454 251.215 124.432C249.815 125.48 248.738 126.956 247.565 128.28C247.36 128.503 247.259 128.888 247.249 129.198C247.225 131.013 245.864 131.017 244.94 131.02C244.739 131.948 244.817 132.83 244.411 133.238C242.922 134.738 241.322 136.128 239.678 137.458C236.733 139.842 234.59 143.142 230.876 144.712C229.339 145.362 228.267 147.042 226.877 148.109C225.726 148.994 224.409 149.667 223.139 150.338C222.325 150.755 221.5 151.153 220.705 151.584C219.683 152.13 218.68 152.713 217.679 153.319C213.617 156.167 209.137 158.286 204.556 160.071C205.457 161.164 206.348 162.238 207.314 163.404L205.772 164.263C206.745 165.157 207.58 165.934 208.533 166.815C208.311 166.963 208.016 167.176 208.261 167.003C208.404 168.92 208.517 170.5 208.654 172.079C208.693 172.52 208.631 173.152 208.898 173.368C210.974 175.084 211.206 175.697 210.428 178.408C211.076 178.741 211.767 179.086 212.517 179.471C212.038 180.14 211.513 180.858 211.002 181.557C211.952 182.367 212.753 183.04 213.762 183.89C212.838 184.198 212.187 184.427 211.15 184.774C212.065 184.885 212.591 184.957 213.18 185.03C213.19 185.244 213.242 185.446 213.212 185.633C213.06 186.497 212.079 187.555 213.778 187.96C213.673 188.383 213.568 188.807 213.454 189.236C213.342 189.188 213.231 189.141 213.128 189.089C213.181 190.167 213.234 191.245 213.287 192.323C212.673 193.165 215.062 192.515 213.781 194.215C213.35 194.796 213.723 195.989 213.759 196.906C213.79 197.704 213.676 198.571 213.928 199.307C214.774 201.83 214.375 204.195 213.484 206.615C213.14 207.549 213.363 208.692 213.276 209.738C213.257 209.944 213.003 210.122 212.837 210.348C213.553 211.13 214.556 211.861 213.15 213.205C211.827 214.478 212.324 215.698 213.829 216.345C213.342 218.989 212.875 221.514 212.367 224.317C212.287 224.349 211.697 224.557 211.734 224.536C211.594 226.404 211.478 227.966 211.335 229.871L209.867 230.689C210.431 230.959 210.801 231.143 210.821 231.156C210.474 232.871 210.156 234.485 209.754 236.474C209.717 236.494 209.054 236.681 208.608 236.82C208.408 238.1 208.267 239.092 208.038 240.559C208.183 240.514 207.737 240.653 207.916 240.602C207.354 241.67 207.017 242.332 206.618 243.102C207.742 244.923 207.058 246.534 204.545 247.508C205.988 248.591 205.42 249.845 201.821 253.566C203.945 255.171 201.518 255.841 201.111 256.835C200.616 258.024 199.928 259.126 199.111 260.652C196.654 260.439 196.43 263.314 195.874 265.025C195.069 267.469 192.657 268.363 191.804 270.457C190.68 273.226 187.267 273.764 186.183 276.779C185.608 278.39 183.469 279.423 182.062 280.743C180.911 281.823 180.202 283.435 178.135 283.308C177.605 283.275 176.983 284.364 176.418 284.946C173.468 288.063 169.697 289.97 166.003 291.991C164.53 292.8 163.095 293.697 161.552 294.337C159.79 295.064 157.926 295.542 156.121 296.17C155.747 296.306 155.471 296.752 155.093 296.902C154.424 297.165 153.716 297.316 153.019 297.485C152.69 297.571 152.282 297.494 152.013 297.668C148.071 300.206 143.349 300.317 139.013 301.187C136.408 301.713 133.457 302.359 130.433 301.913C126.959 301.402 123.291 302.399 119.742 302.149C114.805 301.808 109.881 301.033 104.997 300.199C102.522 299.777 100.12 298.875 97.7149 298.097C93.6426 296.775 89.456 295.663 85.5557 293.928C81.5438 292.146 77.778 289.801 73.9886 287.567C71.9989 286.399 69.945 285.182 68.3399 283.568C67.0089 282.228 65.3329 281.689 63.9062 280.658C62.1157 279.367 60.1745 278.221 58.5881 276.706C54.3699 272.653 50.0681 268.647 46.2522 264.224C42.8884 260.328 40.1529 255.899 37.1141 251.712C36.7385 251.191 36.2339 250.766 35.8955 250.224C34.9268 248.683 33.9529 247.131 33.0957 245.527C32.5138 244.439 32.188 243.221 31.6247 242.123C30.7322 240.368 29.6342 238.703 28.8583 236.896C28.705 236.555 29.6212 235.752 29.3138 235.266C28.947 234.302 28.6318 233.321 28.2092 232.388C27.9181 231.734 27.3741 231.173 27.1585 230.502C26.8184 229.498 26.9723 227.83 26.3728 227.519C24.5652 226.591 25.0257 224.861 25.2342 223.88C25.7332 221.521 24.4524 219.812 23.9675 217.806C23.5698 216.152 23.8558 214.35 23.8293 212.161C23.9172 212.209 23.483 211.976 23.0345 211.739C23.2317 211.678 23.4341 211.626 23.6313 211.565C23.5434 210.665 23.4317 209.765 23.3769 208.858C23.3452 208.255 23.4229 207.652 23.4507 206.784C23.4115 206.757 23.0445 206.536 22.9908 206.505C23.152 202.446 23.298 198.579 23.4677 194.711C23.5319 193.165 23.6632 191.631 23.7749 190.084C23.7891 189.869 23.9571 189.581 23.8712 189.47C22.4549 187.606 24.5617 185.75 24.1438 184.388C23.3587 181.843 25.3765 179.806 24.6815 177.466C24.6203 177.269 25.2758 176.916 25.4551 176.56C25.7075 176.03 25.8958 175.45 25.9931 174.861C26.3745 172.53 26.7269 170.191 26.9573 168.638C27.7704 167.978 28.299 167.769 28.4256 167.406C28.7993 166.395 28.9404 165.293 29.3286 164.286C29.4264 164.024 30.0708 163.957 30.6185 163.324C29.5058 163.14 28.388 162.947 27.357 162.779C27.4999 163.101 27.6916 163.554 27.6657 163.508C26.1422 164.357 24.7488 165.133 23.3553 165.91C23.2624 165.961 23.1437 165.967 23.0301 165.981C21.9175 166.155 21.4294 166.772 21.5657 167.832C20.8401 167.469 20.2458 167.168 19.4862 166.787C19.55 167.47 19.6096 168.058 19.7121 169.072C19.0681 168.615 18.6567 168.357 18.2669 168.051C18.0001 167.834 17.7684 167.55 17.3392 167.107C17.2797 168.224 17.4035 168.97 17.1222 169.492C16.981 169.741 16.0532 169.54 15.4934 169.584C15.1898 169.607 14.7084 169.596 14.6116 169.771C13.4541 171.78 11.9554 171.799 10.1805 170.645C10.0482 170.561 9.77362 170.702 9.49069 170.762C9.47797 171.329 9.47347 171.867 9.47653 171.829C8.45745 172.141 7.81541 172.475 7.16473 172.508C5.49775 172.597 3.67618 172.955 2.17786 172.451C0.558634 171.904 0.290239 170.374 0.779747 168.652C1.39327 168.639 2.46664 168.796 2.54281 168.583C3.5959 165.732 6.51271 164.849 8.62954 163.536C10.9868 162.064 12.8175 159.036 16.2815 159.638C16.3487 159.649 16.4519 159.616 16.4828 159.562C18.5799 156.531 22.5119 157.164 25.1723 155.231C25.5778 154.932 26.3911 155.234 26.9352 155.053C27.8355 154.746 28.8598 154.443 29.4591 153.792C29.9583 153.246 29.9023 152.206 30.0872 151.446C31.7365 152.877 33.8603 152.996 35.7674 151.677C36.788 150.975 38.5684 151.505 39.2204 152.566C39.6572 153.284 40.2086 154.011 40.8827 154.5C43.1757 156.169 43.2219 158.371 41.0217 159.95C40.1825 162.048 44.0591 163.784 41.7218 165.598C42.0132 167.322 42.2536 168.759 42.5605 170.511C41.9238 170.221 41.5011 170.03 41.0877 169.834C42.8435 173.007 42.875 175.948 40.7077 179.006C44.3122 181.258 38.809 182.109 40.1146 184.583C39.0003 183.938 38.4773 183.633 37.9491 183.318C37.9277 183.834 36.8013 183.982 34.57 183.765C33.5507 181.411 32.2174 179.062 31.5191 176.541C30.8271 174.054 30.7742 171.381 30.4091 168.541C27.8266 168.276 31.605 172.501 28.4725 171.86C28.8466 172.881 30.8978 173.613 28.6254 174.429C28.5036 174.472 28.7529 175.575 28.8332 176.2C28.1601 176.477 27.3889 176.798 26.2853 177.242C26.9944 177.663 27.3758 177.888 27.5567 177.994C27.225 179.518 26.8342 180.893 26.6449 182.301C26.4638 183.68 26.479 185.083 26.3951 186.615C26.5584 186.646 27.014 186.721 27.0956 186.736C26.9584 187.714 26.6093 188.529 26.796 189.192C27.4298 191.334 25.845 192.729 25.2894 194.463C25.168 194.835 25.6325 195.428 25.914 195.868C26.2069 196.35 26.9533 196.859 26.8783 197.205C26.564 198.585 26.0037 199.896 25.5056 201.318C25.9677 201.644 26.4102 201.958 26.956 202.348C26.4215 202.743 26.0159 203.042 25.6382 203.325C27.7095 204.399 27.5744 205.424 25.5965 206.331L27.7084 210.121C27.1973 210.297 26.8927 210.405 26.7802 210.444L27.9914 212.617C27.0549 212.859 26.3723 213.033 25.6898 213.206C27.3005 213.562 28.364 214.881 27.9484 216.233C27.6438 217.194 27.953 218.251 28.2022 219.354C28.385 220.141 27.9265 221.066 27.8512 221.935C27.8287 222.179 28.1648 222.455 28.3231 222.695C28.0046 223.238 27.6377 223.868 27.1914 224.64C28.1853 224.829 28.8526 224.847 29.4251 225.088C30.0844 225.354 30.0494 225.422 29.1918 226.046C29.0216 226.177 28.8382 226.547 28.9106 226.677C29.2067 227.23 29.5586 227.753 29.961 228.234C30.0965 228.39 30.6087 228.348 30.6326 228.457C31.019 230.177 31.2825 231.917 31.7391 233.61C31.9549 234.391 32.655 235.036 32.8945 235.815C33.0884 236.425 32.9251 237.137 32.9164 238.433C33.6662 239.232 35.8824 240.566 35.823 241.792C35.7358 243.886 37.4109 244.511 37.9425 245.967C38.524 247.579 39.6526 248.971 40.4922 250.5C40.7924 251.038 40.9017 251.672 41.1546 252.431C41.3459 252.556 42.0516 252.796 42.421 253.284C43.8436 255.182 45.1692 257.146 46.5133 259.099C46.7068 259.381 46.7528 259.769 46.905 260.086C47.1629 260.636 47.4595 261.628 47.7312 261.635C49.8961 261.609 50.1044 263.818 51.3438 264.601C52.9605 265.623 54.094 266.806 55.0927 268.379C56.0656 269.907 57.1618 271.853 58.6685 272.437C61.3874 273.515 62.2521 276.99 65.4635 277.051C65.2008 278.415 63.7849 280.287 66.9714 279.473C67.6209 279.306 70.5068 278.477 69.8043 280.865C72.5508 282.561 75.1681 284.134 77.7555 285.784C78.0935 285.998 78.214 286.564 78.4366 286.963C79.3993 288.691 81.2682 287.37 82.581 288.196C84.0902 289.157 86.272 289.402 87.3468 290.654C89.7269 293.418 93.03 292.551 95.8397 293.53C97.9095 294.252 99.898 295.286 102.01 295.777C107.162 296.984 112.359 298.009 117.567 298.966C118.853 299.199 120.229 298.871 121.57 298.854C123.878 298.822 126.182 298.828 128.477 298.84C129.773 298.848 131.065 298.895 132.686 298.942C132.97 297.749 133.692 297.93 134.176 298.842C135.348 298.651 136.278 298.486 137.22 298.363C138.63 298.162 140.288 298.407 141.395 297.729C143.953 296.158 146.818 296.777 149.447 296.055C150.406 295.788 151.202 294.639 152.141 294.554C155.52 294.217 158.157 292.09 161.218 291.006C163.711 290.128 165.887 288.331 168.221 286.97C170.095 285.877 172.086 284.95 173.863 283.704C175.105 282.83 176.007 281.499 177.151 280.472C178.085 279.635 179.219 279.028 180.139 278.187C181.246 277.18 182.183 276.001 183.255 274.953C183.989 274.239 184.814 273.622 185.594 272.968C185.743 273.104 185.897 273.249 186.046 273.386C186.236 272.635 186.184 271.471 186.643 271.202C189.921 269.352 190.896 265.485 193.747 262.606C193.574 261.619 194.175 260.578 195.588 260.667C195.958 259.56 196.098 258.654 196.527 257.916C197.656 256.009 198.965 254.208 200.074 252.288C200.489 251.569 200.446 250.596 200.831 249.845C201.102 249.305 201.709 248.93 202.284 248.366C202.37 247.844 202.371 246.906 202.686 246.073C203.926 242.728 206.018 239.468 206.317 236.051C206.532 233.619 208.147 231.733 207.894 229.159C207.741 227.552 208.224 225.469 209.528 223.963C209.632 223.845 209.68 223.538 209.604 223.422C208.209 221.399 209.338 219.188 209.926 217.533C210.855 214.897 210.221 212.207 211.021 209.667C211.113 209.373 211.071 208.861 210.882 208.674C209.502 207.312 210.477 206.769 211.133 206.525C210.939 202.725 210.736 199.15 210.59 195.567C210.525 194.094 209.789 192.447 209.86 191.372C210.024 189.175 208.132 187.003 209.735 184.856C209.812 184.753 209.683 184.325 209.547 184.255C207.794 183.381 208.713 182.126 208.826 180.822C208.901 179.928 208.024 178.944 207.554 178.013C207.439 177.784 207.198 177.614 207.116 177.38C206.79 176.381 206.469 175.367 206.242 174.349C206.147 173.915 206.287 173.423 206.323 172.964C206.539 173.002 206.741 173.036 206.957 173.074C205.766 170.609 204.387 168.2 203.468 165.632C203.097 164.597 203.057 163.585 202.417 162.48C201.617 161.088 200.909 161.434 199.925 161.568C198.86 161.711 197.806 161.872 196.689 162.032C196.761 162.138 196.959 162.429 196.995 162.47C194.89 163.107 192.721 163.78 190.541 164.435C190.241 164.529 189.88 164.645 189.609 164.553C187.748 163.922 186.028 164.856 184.247 165.045C181.158 165.378 178.098 166.048 175.007 166.334C173.49 166.473 171.927 166.005 170.377 165.956C168.037 165.884 165.685 166.099 163.362 165.884C161.162 165.673 158.821 166.43 156.724 165.005C156.292 164.71 155.422 165.158 154.793 165.034C151.392 164.348 147.843 163.988 144.65 162.736C142.01 161.712 139.105 161.261 136.723 159.52C134.129 157.618 131.396 155.903 128.77 154.03C128.283 153.681 128.134 152.911 127.708 152.43C126.589 151.143 125.286 150.006 124.292 148.637C123.769 147.917 123.744 146.824 123.373 145.436C123.216 145.024 122.721 144.18 122.577 143.286C122.366 141.991 122.402 140.657 122.333 139.332C122.317 138.975 122.168 138.511 122.339 138.294C123.998 136.225 124.378 133.323 126.67 131.669C127.025 131.41 127.379 131.127 127.769 130.91C130.23 129.515 132.643 128.012 135.203 126.817C136.438 126.238 137.961 126.217 139.357 126.036C142.486 125.644 145.693 124.757 148.746 125.102C152.004 125.465 155.273 124.362 158.537 125.611C160.398 126.328 162.591 126.092 164.604 126.492C166.313 126.83 167.961 127.47 169.819 128.03C169.567 128.583 169.351 129.069 169.129 129.546C169.187 129.343 169.239 129.131 169.306 128.924C170.847 129.088 172.52 128.923 173.901 129.48C176.092 130.353 178.065 131.774 180.197 132.826C182.047 133.743 183.518 135.029 184.67 136.724C184.757 136.859 185.106 136.786 185.323 136.848C185.932 137.044 186.663 137.111 187.114 137.505C188.381 138.601 189.526 139.825 190.841 141.114C190.463 141.288 190.062 141.487 189.657 141.676C192.434 143.623 195.073 145.476 197.88 147.454C197.473 147.729 197.108 147.97 196.752 148.204C196.67 148.518 196.589 148.831 196.499 149.149C197.212 149.031 197.911 148.91 198.644 148.782C198.049 150.489 198.161 150.669 199.686 151.11C199.989 151.197 200.271 151.527 200.455 151.814C201.324 153.156 202.083 154.583 203.04 155.864C203.861 156.965 204.842 157.088 205.994 156.032C206.566 155.506 207.574 155.48 208.314 155.104C209.166 154.666 209.922 154.014 210.789 153.603C211.745 153.156 212.826 152.955 213.791 152.503C214.654 152.107 215.417 151.487 216.258 151.031C217.397 150.409 218.658 149.986 219.697 149.249C221.353 148.07 222.847 146.666 224.472 145.432C225.527 144.637 226.702 143.994 227.792 143.241C229.565 142.01 231.128 140.445 232.859 139.225C235.157 137.603 236.578 135.107 238.847 133.673C241.236 132.171 242.436 129.737 244.314 127.863C245.908 126.269 247.432 124.568 248.76 122.756C250.541 120.315 252.1 117.718 253.824 115.065C254.19 115.263 254.653 115.504 255.112 115.76C252.956 112.786 256.619 111.779 257.094 109.725C257.326 108.744 257.813 107.827 258.194 106.872C258.434 106.276 258.522 105.363 258.941 105.153C260.236 104.529 260.228 103.377 260.598 102.294C260.763 101.825 260.324 100.317 261.836 101.02C261.968 100.557 262.185 100.095 262.217 99.6275C262.24 99.298 262.001 98.9564 261.877 98.6239C263.693 98.0381 262.568 96.1937 263.381 95.1195C265.039 92.9174 265.645 90.291 265.943 87.569C266.037 86.6889 266.686 85.8886 266.99 85.0134C267.183 84.443 267.227 83.8221 267.319 83.2229C267.427 82.4326 267.487 81.6445 267.594 80.8542C267.975 78.0856 268.336 75.3035 268.788 72.5317C268.918 71.7166 269.523 70.966 269.587 70.1633C269.653 69.4082 269.175 68.6155 269.178 67.8347C269.182 66.4444 269.329 65.0477 269.525 63.6727C269.562 63.433 270.116 63.2702 270.482 63.0301C270.135 60.5939 269.751 57.9833 269.361 55.2301C269.914 55.0197 270.551 54.7865 271.59 54.402C268.77 53.8188 269.615 51.753 269.294 50.2155C269.112 49.3429 268.997 48.4579 268.824 47.5801C268.632 46.5795 268.635 45.6891 268.815 44.6147C269.072 43.1084 268.09 41.3909 267.679 39.7574C267.224 37.9783 266.886 36.1701 266.364 34.4035C266.14 33.6518 265.61 32.9852 265.087 32.047C265.899 32.1059 266.615 32.1453 267.112 32.1849C266.129 30.7484 264.143 29.1282 264.322 27.811C264.676 25.3007 262.02 24.2484 262.329 22.0066C262.369 21.7287 261.494 21.3156 261.549 20.7371C261.225 19.9804 261.019 18.671 260.558 18.5868C259.097 18.2809 259.529 17.0904 259.185 16.3203C258.651 15.1208 258.364 13.8197 257.839 12.615C257.686 12.2743 257.061 12.1356 256.372 11.7522C257.059 11.5644 257.459 11.4514 257.985 11.304C257.431 9.8721 254.052 10.8658 255.423 8.08151C254.809 8.20416 254.2 8.31234 253.53 8.44228C253.855 7.08053 250.649 2.24439 248.559 1.40003C250.071 1.03249 251.102 0.786418 252.035 0.559056C251.913 1.67369 251.748 2.44754 251.806 3.20664C251.823 3.39151 252.586 3.51451 253.002 3.67201C253.699 1.68903 254.553 3.33129 255.393 3.78885C254.932 3.81422 254.462 3.84475 253.816 3.88791L253.796 3.96022ZM143.857 159.587C144.507 159.748 145.151 159.876 145.774 160.077C146.836 160.41 147.861 160.874 148.933 161.116C149.968 161.356 151.056 161.321 152.098 161.508C153.993 161.852 155.872 162.339 157.78 162.639C159.525 162.909 161.298 162.967 163.045 163.175C164.036 163.292 165.553 164.005 165.888 163.624C167.638 161.651 167.919 163.576 168.535 164.353C170.696 162.442 173.324 163.401 175.721 163.136C177.635 162.922 179.552 162.694 181.468 162.527C182.109 162.475 182.771 162.593 183.902 162.656C185.217 162.155 187.021 161.284 188.917 160.799C191.087 160.235 193.36 160.077 195.547 159.588C196.9 159.285 198.196 158.684 200.202 157.981C198.685 155.782 197.437 153.958 196.171 152.144C195.764 151.567 195.394 150.945 194.895 150.444C194.188 149.743 192.953 149.274 192.693 148.457C191.689 145.389 188.645 144.383 186.767 142.215C185.472 140.721 183.215 140.055 181.957 138.541C179.682 135.791 176.379 134.953 173.547 133.256C172.925 132.884 171.986 133.055 171.31 132.738C168.976 131.652 166.8 130.04 164.364 129.426C161.051 128.593 157.569 128.439 154.15 128.092C152.213 127.893 150.255 127.767 148.307 127.854C145.585 127.971 142.865 128.245 140.162 128.594C138.784 128.765 137.385 129.095 136.099 129.604C133.643 130.571 131.256 131.706 129.09 132.669C128.666 133.307 128.28 133.924 127.854 134.515C127.396 135.135 126.352 136.058 126.48 136.266C127.685 138.188 126.201 138.321 125.099 138.484C125.772 140.958 126.397 143.239 126.962 145.323C126.334 145.879 125.826 146.321 124.919 147.119C126.318 146.899 127.084 146.789 128.238 146.608C127.724 147.26 127.508 147.527 127.341 147.729C128.422 148.709 129.544 149.63 130.543 150.68C131.756 151.94 132.874 153.29 134.152 154.732C134.506 154.668 135.338 154.522 135.682 154.464C136.651 156.748 139.623 155.725 140.192 158.013C140.321 158.55 142.813 158.5 144.271 158.735C144.109 159.057 143.961 159.358 143.842 159.583L143.857 159.587ZM38.6294 180.541C37.885 179.118 37.7624 177.762 38.5135 176.248C38.8937 175.488 38.6693 174.408 38.6464 173.471C38.6227 172.729 38.4566 171.994 38.4133 171.239C38.2687 168.751 38.1478 166.262 38.027 163.773C38.0226 163.568 38.0677 163.3 38.1945 163.156C39.7654 161.343 38.2499 159.498 38.7442 157.457C37.6493 158.31 37.0244 159.133 36.2252 159.36C34.185 159.936 32.7148 160.488 33.4268 163.207C34.0349 165.522 34.0411 168.002 34.2959 170.186C33.7379 170.801 33.1984 171.406 32.6631 171.996C33.4456 172.461 34.2229 172.917 34.7655 173.235C35.179 175.987 35.6853 178.578 36.7696 180.896C37.289 180.801 37.8177 180.701 38.6346 180.55L38.6294 180.541ZM16.3514 161.839C16.2877 162.117 16.3328 162.701 16.0584 162.951C15.588 163.396 14.9179 163.635 14.2769 163.993C14.127 163.833 13.8126 163.509 13.5023 163.17C13.5883 163.39 13.6743 163.61 13.7603 163.83C10.8704 165.635 7.98059 167.44 4.72434 169.461C7.56618 168.925 10.2517 168.938 12.4329 167.893C15.5514 166.411 18.2702 164.081 21.9242 163.822C22.1804 163.801 22.5468 163.585 22.6653 163.36C23.8421 161.146 25.7394 160.248 28.1518 159.902C28.8189 159.81 29.8523 158.54 29.7906 157.905C29.6327 156.398 28.4593 157.198 27.7316 157.531C27.0554 157.846 26.4901 158.405 25.8771 158.856C25.8749 158.699 25.8871 158.546 25.8848 158.389C24.8396 158.436 23.7902 158.497 22.745 158.544C22.8526 158.715 22.9696 158.881 23.0772 159.053C21.91 159.886 20.8237 160.929 19.5354 161.501C18.5784 161.925 17.3614 161.75 16.3462 161.829L16.3514 161.839Z" fill="white"/>
</svg>
