<svg width="154" height="40" viewBox="0 0 154 40" fill="none" xmlns="http://www.w3.org/2000/svg">
<path fill-rule="evenodd" clip-rule="evenodd" d="M12.0523 11.554C8.72127 11.554 6.02093 14.2765 6.02093 17.6349C6.02093 20.9934 8.72127 23.7159 12.0523 23.7159C15.3834 23.7159 18.0837 20.9934 18.0837 17.6349C18.0837 14.2765 15.3834 11.554 12.0523 11.554ZM6.02093 25.7436C7.70099 27.016 9.78933 27.7699 12.0523 27.7699C17.604 27.7699 22.1046 23.2323 22.1046 17.6349C22.1046 12.0376 17.604 7.5 12.0523 7.5C6.70344 7.5 2.33032 11.712 2.01787 17.0257C2.00608 17.1145 2 17.2051 2 17.2971V17.6349V30.4725C2 31.5919 2.90011 32.4995 4.01046 32.4995C5.12082 32.4995 6.02093 31.5919 6.02093 30.4725V25.7436ZM64.7695 9.19175C65.6932 9.81272 65.9429 11.0712 65.327 12.0027L57.6228 23.654V30.4725C57.6228 31.5919 56.7227 32.4995 55.6124 32.4995C54.502 32.4995 53.6019 31.5919 53.6019 30.4725V23.654L45.8977 12.0027C45.2818 11.0712 45.5315 9.81272 46.4552 9.19175C47.3791 8.57079 48.6273 8.82249 49.2433 9.75394L55.6124 19.386L61.9814 9.75394C62.5974 8.82249 63.8456 8.57079 64.7695 9.19175ZM126.649 10.8783C126.649 9.75883 125.749 8.85132 124.638 8.85132C123.528 8.85132 122.628 9.75883 122.628 10.8783V24.4468L111.497 9.65323C110.975 8.95977 110.072 8.67958 109.254 8.95711C108.436 9.23463 107.884 10.0079 107.884 10.8783V30.4725C107.884 31.5919 108.785 32.4995 109.895 32.4995C111.005 32.4995 111.905 31.5919 111.905 30.4725V16.904L123.037 31.6976C123.558 32.3911 124.461 32.6712 125.279 32.3937C126.098 32.1161 126.649 31.3429 126.649 30.4725V10.8783ZM135.026 8.85132C133.731 8.85132 132.68 9.91009 132.68 11.2161V30.1347C132.68 31.4407 133.731 32.4995 135.026 32.4995H139.717C146.193 32.4995 151.444 27.2057 151.444 20.6754C151.444 14.1451 146.193 8.85132 139.717 8.85132H135.026ZM136.701 28.4455V12.9053H139.717C143.974 12.9053 147.424 16.3841 147.424 20.6754C147.424 24.9667 143.974 28.4455 139.717 28.4455H136.701ZM101.853 10.8783C101.853 11.9978 100.953 12.9053 99.8426 12.9053H92.4708V18.3106H99.8426C100.953 18.3106 101.853 19.2181 101.853 20.3376C101.853 21.457 100.953 22.3646 99.8426 22.3646H92.4708V28.4455H99.8426C100.953 28.4455 101.853 29.3531 101.853 30.4725C101.853 31.5919 100.953 32.4995 99.8426 32.4995H91.1305C89.65 32.4995 88.4499 31.2895 88.4499 29.7968V20.3376V11.554C88.4499 10.0613 89.65 8.85132 91.1305 8.85132H99.8426C100.953 8.85132 101.853 9.75883 101.853 10.8783ZM72.5661 14.6997C72.8684 13.6373 73.8321 12.9053 74.9284 12.9053H75.2716C76.2114 12.9053 77.1435 13.0757 78.0234 13.4084L79.032 13.7897C80.0717 14.1828 81.2305 13.6517 81.6204 12.6035C82.0103 11.5553 81.4835 10.387 80.4439 9.99388L79.4353 9.61254C78.1038 9.10917 76.6935 8.85132 75.2716 8.85132H74.9284C72.0385 8.85132 69.4981 10.781 68.701 13.5815C67.686 17.148 69.8178 20.8497 73.3932 21.7289L77.3967 22.7135C79.0167 23.1118 79.9345 24.8407 79.3646 26.4208L79.3026 26.5926C79.0325 27.3416 78.4203 27.9128 77.6588 28.1266C75.7808 28.6538 73.7692 28.3561 72.1207 27.3069L71.4289 26.8666C70.4899 26.2691 69.2484 26.552 68.6557 27.4986C68.063 28.4454 68.3437 29.6971 69.2826 30.2947L69.9744 30.7349C72.5828 32.395 75.7656 32.8661 78.7372 32.0321C80.7496 31.4672 82.3676 29.9574 83.0815 27.9781L83.1435 27.8062C84.5317 23.9571 82.296 19.7454 78.3495 18.7749L74.346 17.7904C72.9896 17.4569 72.181 16.0527 72.5661 14.6997ZM41.7269 31.3279C42.1955 32.3429 43.3914 32.7826 44.398 32.3102C45.4047 31.8378 45.8408 30.632 45.3723 29.6171L36.3252 10.0229C35.9952 9.30827 35.2843 8.85132 34.5025 8.85132C33.7207 8.85132 33.0098 9.30827 32.6798 10.0229L23.6327 29.6171C23.1641 30.632 23.6003 31.8378 24.607 32.3102C25.6136 32.7826 26.8095 32.3429 27.2781 31.3279L34.5025 15.6813L41.7269 31.3279Z" fill="#323232"/>
</svg>
