<svg width="53" height="40" viewBox="0 0 53 40" fill="none" xmlns="http://www.w3.org/2000/svg">
<path d="M29.1952 12.9054C26.3809 12.9054 24.5257 14.7131 23.8739 17.9687C23.8718 17.9912 23.861 18.012 23.8436 18.0265C23.8263 18.041 23.8039 18.048 23.7814 18.046C23.7588 18.0439 23.7381 18.0331 23.7236 18.0157C23.7091 17.9984 23.7021 17.976 23.7041 17.9535V13.2007H19.9172V21.1242C19.795 23.3851 18.7715 24.9281 16.5411 24.9281C14.0544 24.9281 13.2057 23.4819 13.2057 21.1293V13.1906H9.4375V22.2648C9.4375 25.6766 11.2198 27.9528 14.6061 27.9528C17.3813 27.9528 19.1245 26.1434 19.7492 22.9387C19.7514 22.9162 19.7625 22.8955 19.78 22.8812C19.7976 22.8669 19.82 22.8601 19.8425 22.8623C19.8651 22.8646 19.8857 22.8757 19.9001 22.8932C19.9144 22.9107 19.9212 22.9332 19.9189 22.9557V27.6083H23.7092V19.6746C23.8552 17.4493 24.9483 15.9302 27.1566 15.9302C29.6416 15.9302 30.5684 17.3814 30.5684 19.734V27.5658L34.3502 27.6083L34.3417 18.5934C34.3383 15.1816 32.5815 12.9054 29.1952 12.9054Z" fill="#323232"/>
<path d="M6.4216 12.342C7.66841 12.342 8.67914 11.3312 8.67914 10.0844C8.67914 8.83764 7.66841 7.8269 6.4216 7.8269C5.1748 7.8269 4.16406 8.83764 4.16406 10.0844C4.16406 11.3312 5.1748 12.342 6.4216 12.342Z" fill="#323232"/>
<path d="M8.20561 13.1926H4.58167V28.2418C4.58167 28.6848 4.4951 29.0141 4.32366 29.2262C4.22099 29.3423 4.09478 29.4352 3.95342 29.4987C3.81206 29.5622 3.65879 29.5949 3.50382 29.5946C3.16434 29.5946 2.82486 29.5589 2.5363 29.2653C2.45822 29.1838 2.42428 29.1278 2.36656 29.1261C2.26642 29.1261 2.17306 29.2008 2.10856 29.3586C2.04417 29.5008 2.00841 29.6542 2.00332 29.8101C1.96428 30.4976 2.27151 31.056 2.81468 31.5075C3.35784 31.9591 4.05887 32.1729 4.90417 32.1729C6.00069 32.1729 6.82676 31.8385 7.38237 31.1698C7.93799 30.501 8.21749 29.5097 8.22089 28.1959V13.2079C8.22089 13.2039 8.21928 13.2 8.21641 13.1971C8.21355 13.1942 8.20966 13.1926 8.20561 13.1926Z" fill="#323232"/>
<path d="M42.7137 12.8375C41.2177 12.8372 39.7551 13.2805 38.511 14.1115C37.2669 14.9425 36.2972 16.1237 35.7245 17.5059C35.1518 18.888 35.0019 20.4089 35.2937 21.8763C35.5855 23.3436 36.3059 24.6915 37.3638 25.7494C38.4217 26.8073 39.7695 27.5277 41.2369 27.8195C42.7042 28.1113 44.2252 27.9613 45.6073 27.3887C46.9894 26.816 48.1707 25.8463 49.0017 24.6022C49.8326 23.3581 50.276 21.8955 50.2757 20.3994C50.2757 18.3939 49.479 16.4705 48.0608 15.0524C46.6427 13.6342 44.7193 12.8375 42.7137 12.8375ZM44.5384 25.8566C43.4131 26.23 42.3064 26.1859 41.2353 24.7685C40.682 24.037 39.9691 22.4244 39.6245 21.406C39.2799 20.3875 38.8895 18.6579 38.8946 17.7413C38.8946 15.9641 39.7637 15.2648 40.8873 14.8914C42.011 14.5179 43.1194 14.5621 44.1905 15.9777C44.7438 16.7008 45.4567 18.3099 45.7962 19.342C46.1357 20.374 46.5312 22.0883 46.5261 23.0066C46.5227 24.7821 45.6621 25.4797 44.5384 25.8566Z" fill="#323232"/>
</svg>
