<svg width="144" height="40" viewBox="0 0 144 40" fill="none" xmlns="http://www.w3.org/2000/svg">
<path fill-rule="evenodd" clip-rule="evenodd" d="M132.223 24.5475C132.613 24.7013 132.802 25.1388 132.645 25.5241C132.489 25.9087 132.045 26.0949 131.654 25.9403C130.902 25.6409 130.412 25.5351 130.113 25.5028L129.97 25.4911C129.141 25.4472 128.487 25.7185 128.387 26.2047C128.312 26.5722 128.641 26.7508 129.503 26.9396L130.211 27.0887C131.915 27.452 132.803 28.1724 132.858 29.2336L132.861 29.2926C132.887 30.0584 132.561 30.7102 131.942 31.1285C131.447 31.4643 130.771 31.6484 129.935 31.6745L129.83 31.6758C128.768 31.6758 127.64 31.1765 127.051 30.8723C126.963 30.8273 126.884 30.7653 126.82 30.6898C126.757 30.6143 126.708 30.5268 126.678 30.4325C126.649 30.3382 126.638 30.2389 126.647 30.1403C126.655 30.0418 126.684 29.946 126.73 29.8586C126.925 29.4918 127.387 29.3503 127.759 29.5426C128.263 29.8036 128.753 29.9897 129.182 30.09L129.284 30.1134C130.135 30.3077 131.323 30.1285 131.359 29.4341C131.378 29.0584 130.977 28.8345 130.312 28.658L130.095 28.6051L129.554 28.4904C128.495 28.2659 126.944 27.8187 126.866 26.4499L126.863 26.3861C126.818 25.0118 128 24.0482 129.806 23.9905C130.427 23.9699 131.241 24.1581 132.223 24.5475ZM138.626 24.1917C140.233 24.5681 141.407 25.9183 141.545 27.5159L141.556 27.7267L141.555 27.7377L141.559 27.7501L141.545 27.8895L141.506 28.0186L141.491 28.0516L141.433 28.1573L141.351 28.2604L141.316 28.2919L141.243 28.3538L141.202 28.3785L141.105 28.4307L140.963 28.4746L140.822 28.4932L140.811 28.4918L140.801 28.4932L135.58 28.4939C135.841 29.2349 136.498 29.8345 137.339 30.0323C138.17 30.2267 139.047 29.9939 139.629 29.4238C139.772 29.2841 139.964 29.2061 140.164 29.2065C140.364 29.2069 140.555 29.2857 140.698 29.4259C140.993 29.7171 140.992 30.1896 140.695 30.4794C139.746 31.4101 138.325 31.794 136.988 31.4808C135.198 31.0618 133.918 29.487 133.946 27.7377C133.95 27.4746 133.983 27.2109 134.046 26.9547C134.527 24.9527 136.582 23.713 138.626 24.1917ZM95.641 24.1917C97.2481 24.5681 98.4226 25.9183 98.5599 27.5159L98.5716 27.7267L98.5709 27.7377L98.573 27.7501L98.5606 27.8764L98.5496 27.9245L98.5153 28.0296L98.5057 28.0516L98.4473 28.1573L98.3649 28.2604L98.3306 28.2919L98.2578 28.3538L98.2165 28.3785L98.1307 28.4252L98.0964 28.4389L97.9775 28.4746L97.8361 28.4932L97.8251 28.4918L97.8154 28.4932L92.5936 28.4939C92.8546 29.2349 93.5126 29.8345 94.3532 30.0323C95.1843 30.2267 96.0613 29.9939 96.6431 29.4238C96.786 29.2841 96.978 29.2061 97.1778 29.2065C97.3777 29.2069 97.5694 29.2857 97.7117 29.4259C98.0071 29.7171 98.0057 30.1896 97.7097 30.4794C96.7598 31.4101 95.3402 31.794 94.003 31.4808C92.2132 31.0618 90.9329 29.487 90.9604 27.7377C90.9645 27.4746 90.9975 27.2109 91.06 26.9547C91.5428 24.9527 93.5978 23.713 95.641 24.1917ZM124.279 24.2054C124.688 24.2054 125.021 24.5241 125.036 24.9252V30.6971C125.036 31.1106 124.696 31.4451 124.277 31.4451C123.872 31.4451 123.545 31.1312 123.524 30.737C122.905 31.2535 122.123 31.5818 121.223 31.5818C119.166 31.5818 117.707 30.1086 117.608 27.9698L117.602 27.7363V24.9527C117.602 24.5392 117.942 24.2048 118.361 24.2048C118.772 24.2048 119.105 24.5255 119.12 24.9259V27.7363C119.12 28.873 119.672 30.0859 121.223 30.0859C122.518 30.0859 123.438 28.8448 123.515 27.6718L123.52 27.5131V24.952C123.52 24.5385 123.861 24.2041 124.279 24.2041V24.2054ZM112.591 24.1065C114.682 24.1065 116.383 25.7824 116.383 27.8435C116.383 29.9046 114.681 31.5811 112.591 31.5811C110.499 31.5811 108.799 29.9046 108.799 27.8435C108.799 25.783 110.499 24.1065 112.59 24.1065H112.591ZM79.8904 24.1065C80.7112 24.1061 81.5101 24.3712 82.1679 24.862C82.2132 24.4925 82.5305 24.2048 82.9165 24.2048C83.3272 24.2048 83.661 24.5255 83.6754 24.9259V30.7342C83.6754 31.1477 83.3355 31.4829 82.9172 31.4829C82.7335 31.4834 82.556 31.4168 82.418 31.2954C82.2801 31.1741 82.1914 31.0065 82.1686 30.8242C81.5108 31.3157 80.7116 31.5812 79.8904 31.5811C77.7991 31.5811 76.0979 29.9046 76.0979 27.8435C76.0979 25.783 77.7991 24.1065 79.8904 24.1065ZM69.0142 22.4417C69.3205 22.4417 69.5979 22.6237 69.7147 22.9026L72.1975 28.7864L74.6803 22.9026C74.7595 22.7185 74.9079 22.5731 75.0935 22.4976C75.2791 22.4222 75.4869 22.4228 75.6721 22.4994C76.0594 22.6587 76.2421 23.0962 76.0807 23.4774L72.898 31.0206C72.7813 31.2995 72.5052 31.4808 72.1975 31.4808C71.8912 31.4808 71.6137 31.2995 71.497 31.0206L69.0142 25.1368L66.5313 31.0206C66.4146 31.2995 66.1371 31.4808 65.8308 31.4808C65.5252 31.4808 65.2477 31.2995 65.1303 31.0206L61.9476 23.4774C61.9094 23.3865 61.8897 23.2888 61.8896 23.1902C61.8896 23.0915 61.9091 22.9939 61.9472 22.9029C61.9852 22.8118 62.0409 22.7293 62.1112 22.66C62.1814 22.5908 62.2647 22.5362 62.3562 22.4994C62.7429 22.3421 63.1873 22.5214 63.3487 22.9026L65.8315 28.7864L68.3143 22.9026C68.4311 22.6237 68.7078 22.4424 69.0148 22.4424L69.0142 22.4417ZM86.1383 24.2034C86.5484 24.2034 86.8822 24.5241 86.8966 24.9245V24.9671C87.6438 24.4692 88.6493 24.2048 89.8842 24.2048C90.3025 24.2048 90.6424 24.5392 90.6424 24.9506C90.6424 25.3641 90.3024 25.6986 89.8835 25.6986C87.9563 25.6986 86.9783 26.4183 86.9021 27.8977L86.8973 28.0914V30.7329C86.8973 31.147 86.558 31.4815 86.1383 31.4815C85.9432 31.4827 85.7552 31.4083 85.6138 31.2738C85.4724 31.1393 85.3886 30.9553 85.3801 30.7603L85.3794 24.9513C85.3794 24.5379 85.7187 24.2034 86.1383 24.2034ZM100.721 21.5399C101.131 21.5399 101.464 21.8607 101.479 22.2611V24.9108C102.121 24.3664 102.935 24.068 103.777 24.0688C105.833 24.0688 107.291 25.542 107.392 27.68L107.397 27.9135V30.6971C107.397 31.1106 107.056 31.4451 106.638 31.4451C106.443 31.4465 106.255 31.3722 106.113 31.2377C105.972 31.1032 105.888 30.919 105.879 30.7239L105.879 27.8428C105.856 26.7274 105.295 25.5639 103.777 25.5639C102.482 25.5639 101.562 26.805 101.484 27.9781L101.48 28.1367V30.6971C101.48 31.1106 101.139 31.4451 100.721 31.4451C100.526 31.4463 100.337 31.3719 100.196 31.2374C100.055 31.1029 99.9709 30.9189 99.9624 30.7239L99.9617 22.2879C99.9617 21.8744 100.302 21.5399 100.721 21.5399ZM112.591 25.601C111.337 25.601 110.315 26.6072 110.315 27.8435C110.315 29.0797 111.337 30.0859 112.591 30.0859C113.845 30.0859 114.866 29.0797 114.866 27.8435C114.866 26.6065 113.845 25.601 112.591 25.601ZM79.8904 25.601C78.6356 25.601 77.6144 26.6072 77.6144 27.8435C77.6144 29.0797 78.6356 30.0859 79.8904 30.0859C81.0855 30.0859 82.0663 29.1711 82.1555 28.0152L82.1583 27.9746V27.7116C82.0889 26.5365 81.0992 25.601 79.8904 25.601ZM137.771 25.5784H137.749C136.886 25.5756 136.091 26.0536 135.703 26.805L135.648 26.9163L135.613 26.998L135.597 27.0392L139.9 27.0378C139.88 26.9891 139.858 26.941 139.835 26.8936C139.687 26.5805 139.47 26.3051 139.2 26.0879C138.93 25.8707 138.614 25.7174 138.277 25.6395C138.111 25.6007 137.941 25.5807 137.771 25.5784ZM94.7859 25.5784H94.764C93.9013 25.5756 93.106 26.0536 92.7186 26.805L92.6637 26.9163L92.6287 26.998L92.6122 27.0392L96.915 27.0378C96.895 26.9891 96.8735 26.941 96.8505 26.8936C96.7022 26.5805 96.485 26.3051 96.2151 26.0879C95.9452 25.8707 95.6297 25.7174 95.2921 25.6395C95.1261 25.6007 94.9564 25.5807 94.7859 25.5784ZM89.7482 8.70212C90.1562 8.70212 90.4899 9.0208 90.5037 9.42052L90.5051 10.494H93.6987C93.9947 10.494 94.2619 10.6636 94.3855 10.926L94.3979 10.9535L96.5201 15.9823L98.6307 10.9796C98.7914 10.5984 99.2351 10.4198 99.6197 10.5771C99.9974 10.7323 100.18 11.1527 100.039 11.5277L96.0146 21.066C95.9362 21.25 95.7882 21.3955 95.6029 21.4707C95.4176 21.546 95.2101 21.5449 95.0256 21.4678C94.8455 21.3959 94.7006 21.2563 94.6222 21.0788C94.5437 20.9014 94.5379 20.7003 94.606 20.5187L95.7001 17.9246L93.1932 11.9851H90.5051V17.0077C90.5051 17.4198 90.1658 17.7536 89.7482 17.7536C89.3402 17.7536 89.0064 17.4349 88.9927 17.0352L88.992 11.9851H87.9927C87.7937 11.9863 87.6023 11.9086 87.4605 11.7689C87.3187 11.6292 87.2382 11.4389 87.2365 11.2399C87.2365 10.8374 87.5593 10.5091 87.9646 10.4947H88.992V9.44731C88.992 9.03591 89.3313 8.70212 89.7482 8.70212ZM81.6569 7.95075C82.0738 7.95075 82.4131 8.28523 82.4131 8.69663V17.0077C82.4145 17.4198 82.0752 17.7536 81.6569 17.7536C81.238 17.7536 80.9 17.4191 80.9 17.0077V8.69663C80.9 8.28454 81.2393 7.95075 81.6569 7.95075ZM78.1308 10.7055C78.5498 10.7055 78.887 11.04 78.887 11.4514V17.0077C78.887 17.4198 78.5477 17.7536 78.1308 17.7536C77.7119 17.7536 77.3747 17.4191 77.3747 17.0077V11.4514C77.3747 11.0393 77.7139 10.7055 78.1308 10.7055ZM85.2098 10.7055C85.6287 10.7055 85.9659 11.04 85.9659 11.4514V17.0077C85.9659 17.4198 85.6267 17.7536 85.2098 17.7536C84.7908 17.7536 84.4529 17.4191 84.4529 17.0077V11.4514C84.4529 11.0393 84.7922 10.7055 85.2098 10.7055ZM73.6213 8.70212C74.0292 8.70212 74.363 9.02011 74.3767 9.41984L74.3781 10.4933H75.3767C75.7957 10.4933 76.1336 10.8292 76.1336 11.2406C76.1336 11.6423 75.8108 11.9706 75.4049 11.9851L74.3781 11.9858V17.0077C74.3781 17.4184 74.0402 17.7529 73.6213 17.7529C73.2133 17.7529 72.8795 17.4342 72.8658 17.0352L72.8651 11.9844H71.8658C71.6666 11.9858 71.475 11.9082 71.3331 11.7684C71.1912 11.6287 71.1105 11.4383 71.1089 11.2392C71.1089 10.8367 71.4317 10.5084 71.8376 10.494H72.8651V9.44594C72.8651 9.03454 73.203 8.70075 73.6213 8.70075V8.70212ZM69.1728 8.70212C69.5918 8.70212 69.9297 9.03591 69.9297 9.44731V13.654C69.9317 16.1245 68.3541 17.7199 65.9118 17.7199C63.4689 17.7199 61.8913 16.1245 61.8913 13.654V9.44662C61.8913 9.03454 62.2305 8.70144 62.6481 8.70144C63.0671 8.70144 63.4043 9.03522 63.4043 9.44662V13.654C63.4043 15.812 64.8617 16.2021 65.8047 16.2275L65.9105 16.2289C66.8466 16.2289 68.4166 15.8944 68.4166 13.654V9.44662C68.4166 9.03454 68.7559 8.70212 69.1728 8.70212ZM78.8176 7.91916C78.9997 8.09773 79.1034 8.34361 79.1034 8.59704C79.1032 8.75544 79.0635 8.91129 78.988 9.0505C78.9124 9.18972 78.8034 9.30792 78.6707 9.39443C78.5649 9.46535 78.4457 9.51374 78.3204 9.53659C78.1952 9.56308 78.0658 9.56308 77.9406 9.53659C77.8788 9.52286 77.817 9.50637 77.7586 9.48371C77.6998 9.45925 77.6435 9.42936 77.5903 9.39443C77.4044 9.27243 77.2669 9.08941 77.2015 8.8769C77.136 8.6644 77.1468 8.43573 77.2318 8.23029C77.294 8.08422 77.3909 7.95559 77.5142 7.85562C77.6375 7.75566 77.7835 7.6874 77.9392 7.6568C78.2552 7.59293 78.591 7.69526 78.8176 7.91916ZM85.4 7.65817C85.6522 7.70759 85.8751 7.85378 86.0209 8.06545C86.0552 8.11902 86.0854 8.17397 86.1102 8.23166C86.1356 8.28935 86.1528 8.34842 86.1665 8.41092C86.1931 8.5345 86.1931 8.66233 86.1665 8.78591C86.1405 8.90899 86.0913 9.026 86.0216 9.13069C85.9856 9.18243 85.9449 9.23071 85.9 9.27492C85.7159 9.45349 85.466 9.55583 85.2084 9.55583C85.1454 9.55595 85.0826 9.5495 85.0209 9.53659C84.908 9.51564 84.7998 9.47446 84.7015 9.41503L84.6706 9.39443C84.6276 9.3675 84.5874 9.33645 84.5504 9.30171L84.5236 9.27561C84.4316 9.18842 84.3593 9.08258 84.3114 8.96517C84.2873 8.90754 84.2687 8.84775 84.2558 8.7866C84.2339 8.66233 84.2339 8.53519 84.2558 8.41092C84.2823 8.2878 84.3315 8.17066 84.4007 8.06545C84.5099 7.90795 84.6624 7.78555 84.8398 7.71313C85.0172 7.6407 85.2118 7.62206 85.4 7.65817Z" fill="#323232"/>
<path d="M21.5548 7.76322C21.9687 7.5902 22.4128 7.50082 22.8615 7.50023C23.3101 7.49964 23.7544 7.58786 24.1688 7.75979C24.9495 8.0787 25.5832 8.67719 25.9463 9.43835L26.0197 9.60387L30.429 20.1979L34.8384 9.60387C35.0761 9.03044 35.4659 8.53287 35.9658 8.16489C36.4658 7.79692 37.0567 7.57253 37.6749 7.51597L37.8328 7.50498L37.9915 7.50155C38.6392 7.50031 39.2737 7.68381 39.8208 8.03051C40.3679 8.37721 40.8047 8.87274 41.0801 9.45895L41.1446 9.60387L45.5526 20.1979L49.9632 9.60387C50.2628 8.87811 50.8051 8.27895 51.4976 7.90883L51.6487 7.83328L51.8135 7.75979C52.2278 7.58771 52.6722 7.49941 53.1208 7.5C53.5695 7.50059 54.0136 7.59005 54.4275 7.76322C54.8422 7.93398 55.2189 8.18541 55.5357 8.50292C55.8525 8.82042 56.1031 9.19768 56.2729 9.6128C56.5965 10.3909 56.6185 11.2616 56.3348 12.0551L56.2688 12.2247L48.7071 30.3977C48.4492 31.0213 48.0117 31.5541 47.4503 31.9285C46.8888 32.3028 46.2287 32.5018 45.5539 32.5C44.9063 32.5012 44.2717 32.3177 43.7246 31.971C43.1776 31.6243 42.7407 31.1288 42.4654 30.5426L42.4008 30.3977L37.9915 19.8016L33.5822 30.3977C33.3445 30.9711 32.9546 31.4687 32.4547 31.8366C31.9548 32.2046 31.3638 32.429 30.7457 32.4856L30.5877 32.4966L30.4297 32.5C29.1179 32.5 27.9146 31.763 27.3844 30.6477L27.324 30.5124L25.0568 25.0625C25.0025 24.9279 25.0011 24.7778 25.0529 24.6422C25.1047 24.5066 25.2059 24.3956 25.3361 24.3315C25.4664 24.2674 25.616 24.255 25.7551 24.2967C25.8941 24.3384 26.0122 24.4312 26.0857 24.5564L26.118 24.6209L28.3851 30.0707C28.6983 30.8214 29.5403 31.351 30.4304 31.351C31.3027 31.351 32.0884 30.8565 32.4675 30.0804L32.5238 29.9567L37.4626 18.0866C37.5037 17.988 37.5715 17.9027 37.6584 17.8405C37.7452 17.7782 37.8478 17.7415 37.9544 17.7343C38.061 17.7272 38.1676 17.75 38.262 17.8001C38.3564 17.8502 38.4349 17.9256 38.4887 18.018L38.5231 18.0866L43.4619 29.9561C43.6332 30.37 43.9236 30.7236 44.2964 30.972C44.6692 31.2204 45.1074 31.3523 45.5553 31.351C45.9798 31.3518 46.396 31.2331 46.7562 31.0084C47.1163 30.7837 47.4059 30.4621 47.5917 30.0804L47.648 29.9567L55.2098 11.7831C55.4433 11.224 55.444 10.6087 55.2125 10.0496C55.0997 9.77428 54.9334 9.52408 54.7232 9.31351C54.513 9.10295 54.2631 8.93621 53.9879 8.82297C53.7134 8.70774 53.4188 8.64816 53.1211 8.64769C52.8234 8.64721 52.5286 8.70586 52.2537 8.82022C51.7452 9.02796 51.3304 9.41472 51.0875 9.90744L51.0257 10.0441L46.0862 21.9135C46.0451 22.0122 45.9774 22.0975 45.8905 22.1597C45.8036 22.2219 45.7011 22.2587 45.5944 22.2658C45.4878 22.273 45.3813 22.2502 45.2869 22.2001C45.1925 22.15 45.114 22.0745 45.0601 21.9822L45.0258 21.9135L40.0876 10.0441C39.9162 9.63031 39.6257 9.27678 39.253 9.02841C38.8803 8.78005 38.4421 8.64806 37.9942 8.6492C37.122 8.6492 36.3363 9.14371 35.9572 9.9198L35.9008 10.0434L30.962 21.9135C30.921 22.0122 30.8532 22.0975 30.7663 22.1597C30.6794 22.2219 30.5769 22.2587 30.4702 22.2658C30.3636 22.273 30.2571 22.2502 30.1627 22.2001C30.0683 22.15 29.9898 22.0745 29.9359 21.9822L29.9016 21.9135L24.9627 10.0441C24.8493 9.76897 24.6823 9.51911 24.4715 9.30901C24.2607 9.09892 24.0102 8.93277 23.7347 8.82022C23.4598 8.70577 23.1648 8.64707 22.867 8.64754C22.5692 8.64801 22.2744 8.70764 21.9999 8.82297C21.7247 8.93621 21.4748 9.10295 21.2646 9.31351C21.0544 9.52408 20.8881 9.77428 20.7753 10.0496C20.5644 10.5565 20.5463 11.123 20.7244 11.6423L20.7773 11.7831L23.232 17.6409C24.5726 20.8607 24.4119 24.3304 22.7897 27.1601C21.1585 30.0041 18.2155 31.9093 14.719 32.3874C14.175 32.4622 13.6242 32.5 13.0823 32.5C10.3454 32.5 7.75476 31.5556 5.78569 29.84C3.41139 27.7727 2.07555 24.7439 2.00343 21.2892L2 20.9918V10.9143C2 9.03176 3.53158 7.50017 5.4155 7.50017C6.29502 7.50124 7.14031 7.84121 7.77564 8.44942C8.41097 9.05764 8.78747 9.8873 8.82687 10.7659L8.83031 10.9136V20.9911C8.83031 22.5962 9.3303 23.8757 10.2726 24.6978C11.173 25.4822 12.4196 25.8125 13.7884 25.6264C15.1929 25.4341 16.2815 24.7727 16.8591 23.7672C17.3982 22.8284 17.447 21.6587 16.9965 20.4547L16.9209 20.2638L13.5775 12.2261C13.4043 11.8127 13.3147 11.3691 13.314 10.9209C13.3133 10.4727 13.4015 10.0288 13.5734 9.61486C13.7435 9.19979 13.9943 8.8226 14.3112 8.50511C14.6281 8.18763 15.0048 7.93617 15.4195 7.76528C15.9169 7.55951 16.4557 7.47368 16.9924 7.51472C17.529 7.55576 18.0485 7.72253 18.5088 8.00154C18.6336 8.08307 18.7217 8.20991 18.7547 8.35526C18.7876 8.50061 18.7628 8.65307 18.6854 8.78043C18.608 8.90778 18.4841 9.00005 18.3399 9.03772C18.1957 9.07539 18.0425 9.05552 17.9127 8.98231C17.6071 8.7972 17.2623 8.68647 16.9061 8.65903C16.5499 8.63159 16.1922 8.68821 15.8618 8.82434C15.5869 8.9379 15.3371 9.10484 15.1271 9.3155C14.917 9.52616 14.7507 9.77637 14.638 10.0517C14.4269 10.5585 14.4085 11.125 14.5864 11.6444L14.64 11.7852L17.9834 19.8229C18.651 21.4259 18.6077 23.0303 17.8577 24.3386C17.0988 25.6628 15.708 26.5241 13.9463 26.7651C12.2486 26.9973 10.6751 26.5715 9.51917 25.5639C8.36671 24.5598 7.73691 23.0639 7.68677 21.2336L7.68334 20.9925V10.9143C7.68225 10.3137 7.44306 9.73794 7.01822 9.31335C6.59337 8.88876 6.01751 8.64993 5.41687 8.6492C4.83826 8.64962 4.28167 8.87104 3.86089 9.2682C3.44012 9.66536 3.18695 10.2082 3.15315 10.7859L3.14972 10.9143V20.9918C3.14972 24.237 4.35369 27.0721 6.53774 28.976C8.29734 30.5089 10.6194 31.3537 13.0789 31.3523C13.5734 31.3523 14.0713 31.318 14.559 31.2514C17.7032 30.8207 20.3371 29.1216 21.789 26.5893C23.188 24.1498 23.3611 21.1608 22.2732 18.3469L22.1674 18.0832L19.7128 12.2254C19.539 11.8119 19.4492 11.368 19.4486 10.9195C19.448 10.4709 19.5367 10.0268 19.7093 9.6128C19.8792 9.19768 20.1298 8.82042 20.4466 8.50292C20.7634 8.18541 21.1401 7.93398 21.5548 7.76322Z" fill="#323232"/>
</svg>
