<svg width="292" height="323" viewBox="0 0 292 323" fill="none" xmlns="http://www.w3.org/2000/svg">
<path d="M66.8776 217.391C67.5805 217.638 67.6302 219.199 68.893 218.389C68.9729 218.338 69.5842 218.893 69.5598 218.936C69.1251 219.677 69.591 220.108 69.8731 220.758C70.2781 221.704 70.9051 222.333 71.84 221.879C71.9572 222.359 72.2088 222.84 72.1773 223.299C72.0026 225.504 71.9741 225.501 74.139 224.963C74.8436 225.87 73.5463 227.924 75.9299 228.027C75.8223 228.508 75.6969 229.072 75.569 229.643C75.7017 229.553 75.8369 229.457 75.9696 229.367C76.4621 229.958 76.9148 230.593 77.4626 231.139C78.1819 231.856 78.9757 232.499 79.8464 233.269C79.8951 233.184 79.7336 233.479 79.7093 233.522C80.3247 234.161 80.8442 234.703 81.5181 235.403C82.8763 235.109 82.9206 235.186 83.1179 238.78C85.5326 238.634 87.9038 240.55 87.7783 241.929C88.5188 242.498 89.0052 242.877 89.498 243.259C89.4029 243.386 89.3079 243.513 89.2154 243.634C89.7193 243.608 90.2258 243.576 90.5617 243.559C91.2061 244.031 89.4268 245.505 91.4385 245.11C91.4966 245.095 91.7782 245.633 91.7509 245.892C91.4954 248.245 92.6579 247.537 93.957 246.747C93.9609 247.325 93.9669 247.784 93.9649 248.187C95.2374 248.091 95.872 248.663 96.3311 249.869C96.6764 250.776 97.2311 251.968 98.6317 251.339C98.6765 252.097 98.7201 252.877 98.8067 254.288C100.09 251.72 100.584 254.354 101.749 253.886C101.44 254.347 101.214 254.595 101.09 254.89C100.988 255.149 100.996 255.452 100.952 255.734C101.218 255.741 101.499 255.807 101.744 255.755C102.485 255.583 105.489 257.263 105.696 258.025C105.724 258.126 105.49 258.303 105.204 258.647C105.794 258.46 106.153 258.348 106.414 258.256C107.633 259.755 108.793 261.193 110.062 262.756C112.506 262.344 112.981 262.809 112.597 266.001C113.077 265.315 113.359 264.903 113.869 264.162C114.498 264.994 114.937 265.796 115.581 266.364C116.113 266.836 116.865 267.282 117.55 267.328C118.641 267.407 120.846 268.719 121.102 269.778C121.139 269.949 120.922 270.178 120.75 270.537C121.262 270.395 121.786 270.092 121.95 270.225C123.009 271.069 123.98 272.021 124.993 272.922C125.183 273.087 125.428 273.281 125.658 273.304C126.346 273.381 128.301 273.906 129.01 274.366C129.242 274.517 129.287 274.991 129.517 275.09C130.028 275.313 130.603 275.391 130.686 275.409C131.553 276.035 132.054 276.547 132.658 276.801C135.561 278.014 138.521 279.1 141.392 280.375C141.806 280.561 141.858 281.547 141.951 281.823C142.73 281.726 143.273 281.507 143.706 281.64C144.385 281.856 144.981 282.316 145.61 282.676C145.525 282.852 145.447 283.031 145.365 283.201C145.668 283.058 145.971 282.916 146.355 282.739C146.704 283.789 146.934 284.8 148.464 283.765C148.974 283.421 150.601 283.584 150.539 284.801C152.763 285.365 154.91 285.898 156.904 286.401C156.989 287.19 157.05 287.85 157.117 288.513C157.245 288.511 157.382 288.505 157.51 288.503C157.532 288.145 157.553 287.787 157.573 287.548C159.725 287.784 161.867 287.948 163.979 288.303C164.359 288.364 164.61 289.188 164.97 289.735C166.71 288.775 168.559 288.907 170.296 290.325C170.431 290.438 170.667 290.599 170.766 290.556C172.752 289.656 174.539 290.683 176.406 291.054C176.962 291.161 177.607 290.817 178.2 290.677C178.398 291.294 178.565 291.801 178.746 292.366C180.197 290.889 180.966 290.968 183.619 292.853C183.827 292.516 184.032 292.186 184.162 291.99C186.697 292.295 189.272 290.378 191.384 292.117C192.403 291.809 193.228 291.446 194.089 291.33C196.469 291.005 198.863 290.797 201.244 290.51C203.067 290.287 204.884 289.987 206.704 289.755C208.577 289.522 210.178 288.575 211.294 288.155C212.409 288.325 213.111 288.67 213.539 288.457C214.76 287.847 215.813 286.886 217.039 286.3C219.639 285.059 222.278 283.871 224.971 282.847C226.232 282.364 227.319 281.013 228.169 280.944C229.646 280.824 230.19 279.804 231.167 279.262C232.076 278.76 233.043 278.319 233.833 277.665C236.345 275.604 238.776 273.444 241.257 271.348C242.088 270.644 242.993 270.021 243.831 269.319C244.948 268.383 246.098 267.461 247.116 266.418C247.821 265.694 248.26 264.715 248.923 263.944C251.504 260.93 253.921 257.821 255.709 254.24C256.399 252.851 257.452 251.643 258.25 250.305C258.475 249.922 258.284 249.308 258.485 248.894C258.695 248.438 259.173 248.118 259.467 247.695C259.847 247.149 260.258 246.601 260.485 245.987C261.041 244.485 261.557 242.968 261.971 241.426C262.225 240.479 262.016 239.341 262.459 238.521C264.078 235.501 263.631 232.085 264.477 228.918C264.865 227.462 264.52 225.814 264.611 224.257C264.638 223.789 265.024 223.342 265.057 223.258C264.652 219.888 264.447 216.748 263.847 213.682C263.417 211.492 263.615 209.132 262.345 207.119C262.095 206.728 261.915 206.179 261.97 205.736C262.142 204.353 261.223 203.421 260.773 202.286C260.295 201.072 259.719 200.957 258.606 201.408C258.141 201.599 257.472 201.267 256.896 201.19C256.435 201.127 255.939 200.962 255.51 201.062C254.47 201.309 253.46 201.689 252.271 202.065C252.355 201.283 252.393 200.961 252.457 200.38C250.154 202.367 247.86 201.716 245.571 201.051C244.25 200.665 242.79 201.33 241.52 200.283C239.748 198.82 237.394 199.305 235.334 198.761C233.085 198.166 231.082 196.664 230.949 195.407C229.532 194.354 227.101 195.699 226.585 192.816C226.43 191.94 224.762 191.386 223.885 190.576C223.027 189.774 222.257 188.864 221.525 187.931C221.342 187.694 221.475 187.223 221.437 186.864C221.401 186.52 221.456 186.078 221.265 185.861C220.531 185.01 219.716 184.232 218.847 183.343C219.162 183.093 219.416 182.886 219.653 182.703C218.663 181.287 218.257 179.908 219.285 178.271C219.975 177.166 220.388 175.893 220.92 174.696C221.343 173.741 223.16 174.159 222.98 172.606C223.576 172.744 224.166 172.88 224.763 173.018C224.681 172.903 224.592 172.786 224.51 172.672C225.781 172.088 227.01 171.324 228.349 170.984C229.171 170.778 230.506 169.726 231.085 171.541C231.096 171.568 231.962 171.326 232.519 171.186C232.514 171.446 232.506 171.825 232.502 172.235C233.444 171.896 234.307 171.585 235.179 171.271C235.216 171.555 235.254 171.84 235.294 172.155C235.654 171.945 236.052 171.713 236.742 171.312C236.63 172.031 236.567 172.418 236.495 172.846C237.192 172.635 237.804 172.45 238.041 172.379C239.038 172.981 239.9 173.509 240.771 174.032C240.902 173.889 241.042 173.743 241.173 173.6C241.206 173.934 241.236 174.275 241.279 174.697C241.709 174.403 242.121 174.116 242.422 173.906C243.191 174.838 243.938 175.769 244.709 176.679C245.27 177.342 245.406 178.817 246.939 177.626C247.228 177.404 248.64 178.283 249.246 178.926C249.801 179.512 249.954 180.47 250.35 181.419C250.533 181.335 251.049 181.089 251.729 180.767C251.617 181.658 251.536 182.262 251.486 182.654C254.023 182.69 254.175 185.413 255.764 186.22C255.734 186.942 255.558 187.673 255.747 188.293C255.806 188.504 256.79 188.436 257.33 188.492C257.749 189.002 258.231 189.581 258.742 190.202C258.449 190.527 258.026 191.011 257.332 191.785C259.785 190.972 259.183 192.44 259.171 193.304C259.621 193.339 260.064 193.372 260.672 193.425L260.266 194.454C260.792 195.358 261.14 196.258 261.759 196.907C262.093 197.255 262.882 197.17 263.472 197.269C264.062 197.367 264.657 197.452 265.439 197.574C265.472 197.452 265.635 196.888 265.807 196.282C267.358 198.114 267.933 195.842 268.912 195.562C270.45 195.115 271.723 193.709 273.262 193.336C274.307 193.076 274.773 192.579 275.412 191.926C276.152 191.17 277.084 190.61 277.94 189.976C279.791 188.604 281.691 187.296 282.876 185.205C283.027 184.936 283.718 184.969 284.222 184.846C284.31 184.529 284.29 183.728 284.63 183.511C286.764 182.161 288.188 180.276 289.279 178.043C289.485 177.616 290.214 177.439 290.471 177.279C290.903 176.545 291.347 175.934 291.619 175.263C291.863 174.664 291.739 173.859 292.1 173.381C292.651 172.648 293.633 172.227 294.125 171.472C294.561 170.805 294.585 169.872 294.818 168.939C295.658 167.266 296.953 165.502 297.418 163.546C297.871 161.66 298.999 160.092 299.532 158.23C300.051 156.422 300.596 154.378 301.484 152.544C302.442 150.573 302.904 148.361 303.584 146.257C303.389 146.165 303.193 146.073 302.998 145.981C303.508 145.711 304.015 145.432 304.042 145.42C305.058 142.013 305.969 138.946 306.878 135.885C307.358 135.806 307.835 135.717 308.315 135.637C308.992 137.79 307.612 139.295 306.728 141.041C306.878 141.287 307.344 141.718 307.261 141.985C306.999 142.839 306.531 143.627 306.157 144.422C305.777 145.896 305.409 147.434 304.974 148.953C304.715 149.876 304.349 150.764 304.035 151.673C303.871 152.147 303.752 152.638 303.555 153.099C303.156 154.034 302.508 154.916 302.346 155.877C301.976 158.103 301.008 160.025 300.15 162.066C299.333 164.003 298.342 165.811 297.432 167.682C297.276 168.002 297.626 168.574 297.679 168.782C296.732 170.518 295.88 172.164 294.936 173.759C294.4 174.663 293.893 175.794 292.45 175.128C293.536 176.319 293.174 177.276 291.905 178.309C290.868 179.157 290.203 180.48 289.433 181.635C288.096 183.637 286.669 185.453 284.518 186.751C283.322 187.469 282.453 188.817 281.6 189.991C280.007 192.19 277.74 193.271 275.44 194.548C274.162 195.263 272.929 196.303 271.496 196.957C269.448 197.899 267.468 199.01 265.394 199.905C264.871 200.132 264.108 199.809 263.483 199.742C261.927 201.657 264.35 202.568 264.585 204.06C264.94 206.288 265.56 208.47 265.946 210.695C266.052 211.336 265.135 212.276 266.618 212.329C266.589 212.61 266.576 212.889 266.539 213.174C266.308 215.028 266.794 216.716 267.586 218.368C267.724 218.662 267.241 219.205 267.235 219.636C267.213 222.934 267.48 226.257 267.177 229.527C266.948 232.04 266.033 234.492 265.426 236.976C265.09 238.34 264.764 239.715 264.328 241.085C264.234 241.683 264.237 242.32 264.02 242.871C263.136 245.11 262.222 247.331 261.26 249.54C259.241 254.182 256.669 258.517 253.67 262.571C252.6 264.011 251.149 265.167 249.884 266.456C248.823 267.533 247.49 268.466 246.768 269.745C245.097 272.707 242.142 274.167 239.757 276.285C238.694 277.235 237.663 278.235 236.526 279.088C235.984 279.495 235.23 279.623 234.561 279.876C234.346 280.232 234.165 280.879 233.75 281.134C231.829 282.306 229.885 283.477 227.851 284.44C224.723 285.921 221.534 287.289 218.329 288.605C215.43 289.788 212.516 290.972 209.526 291.894C207.771 292.436 205.86 292.482 204.026 292.768C203.779 292.805 203.551 292.947 203.306 293C200.415 293.595 197.539 294.532 194.633 294.634C193.032 294.691 191.51 294.793 189.913 294.971C187.055 295.294 184.003 295.272 181.24 294.578C179.096 294.038 177.03 294.211 174.943 293.925C173.608 293.743 172.313 293.329 170.991 293.039C169.828 292.782 168.657 292.544 167.488 292.322C166.709 292.172 165.928 292.065 165.234 291.948C164.597 291.989 163.646 292.332 163.341 292.024C161.798 290.51 159.739 290.857 157.962 290.26C157.063 289.958 156.203 289.559 155.302 289.263C153.897 288.805 152.471 288.4 151.054 287.99C150.14 287.727 149.179 287.564 148.299 287.217C146.499 286.506 144.748 285.673 142.946 284.969C142.02 284.604 141.53 283.153 140.186 283.85C139.225 281.45 136.771 282.075 135.019 281.264C132.312 280.008 129.634 278.66 127.01 277.235C126.511 276.963 126.438 275.917 125.935 275.636C124.226 274.677 122.354 273.998 120.653 273.02C119.297 272.245 118.131 271.164 116.846 270.267C115.684 269.457 114.514 268.651 113.277 267.954C112.294 267.393 111.04 267.197 110.927 265.739C110.917 265.63 110.893 265.426 110.865 265.422C107.639 265.084 106.344 261.977 103.874 260.501C101.737 259.223 100.106 257.12 98.1929 255.445C97.6207 254.942 96.8172 254.722 96.1845 254.278C95.968 254.125 95.9453 253.69 95.7869 253.238C95.5119 253.025 94.9973 252.68 94.5482 252.263C93.4269 251.237 92.3275 250.174 91.2203 249.131C91.1762 249.092 91.0909 249.08 91.0622 249.039C89.9335 247.217 88.2134 246.096 86.5816 244.771C84.4893 243.078 83.0447 240.577 81.3212 238.423C80.9352 237.941 80.5299 237.489 80.0641 237.096C78.7735 235.779 76.738 234.624 76.4105 233.103C76.0857 231.575 74.9068 231.529 74.2981 230.967C72.8771 229.658 72.5552 227.668 70.8851 226.44C70.12 225.876 69.1354 224.2 68.9009 222.671C68.8396 222.258 67.9001 221.985 67.278 221.589C67.4027 221.444 67.6303 221.19 67.9362 220.832C67.1725 220.283 66.4218 219.74 65.7514 219.258C65.7802 218.768 65.8064 218.285 65.8301 217.808C66.1706 217.666 66.5151 217.532 66.8556 217.39L66.8776 217.391ZM229.883 173.333C228.235 173.85 226.648 174.271 225.128 174.861C224.113 175.253 222.84 175.671 222.318 176.482C221.132 178.311 220.762 180.575 221.405 182.624C221.867 184.108 223.149 185.333 224.15 186.797C223.554 187.453 223.445 188.203 225.041 188.766C225.764 189.021 226.512 189.683 226.872 190.364C227.45 191.459 227.922 192.29 229.163 191.403C229.221 191.957 229.279 192.511 229.366 193.316C229.894 192.754 230.163 192.471 230.54 192.066C230.742 192.692 230.874 193.095 230.983 193.408C231.591 193.289 232.156 193.183 232.887 193.037C232.74 193.712 232.625 194.213 232.478 194.888C233.041 194.676 233.428 194.53 234.011 194.304L233.329 196.032C233.413 196.065 233.491 196.096 233.575 196.129C233.823 195.786 234.07 195.442 234.151 195.332C234.761 195.625 235.317 196.114 235.575 195.991C237.361 195.125 237.239 196.341 237.21 196.966C238.28 197.059 239.239 197.018 240.128 197.25C241.017 197.481 241.826 198.256 242.694 198.292C245.661 198.416 245.663 198.334 247.013 199.9C247.701 198.952 253.47 198.214 254.361 198.969C254.405 199.009 254.43 199.079 254.444 199.137C254.766 200.409 255.365 199.44 255.816 199.282C256.522 199.029 257.175 198.644 257.881 198.391C258.614 198.127 259.384 197.959 260.136 197.74C260.161 197.735 260.139 197.562 260.138 197.412C259.613 197.339 259.082 197.264 258.55 197.189C258.671 197.072 258.801 196.951 258.925 196.828C255.552 191.269 252.604 185.414 247.131 181.384C246.648 180.998 245.949 180.722 245.544 180.211C243.636 177.804 240.957 176.724 238.176 175.904C235.97 175.257 234.001 173.649 231.578 173.95C230.619 174.065 229.85 174.555 229.882 173.318L229.883 173.333Z" fill="white"/>
<path d="M30.0391 186.658C28.5356 186.828 26.9309 187.482 26.2007 185.502C26.0607 185.118 26.2755 184.612 26.2591 184.71C25.7029 182.897 25.2647 181.467 24.7688 179.842C25.4105 179.998 25.8414 180.101 26.7677 180.332C26.024 179.619 25.6177 179.227 25.3477 178.963C25.5475 177.149 25.7335 175.427 25.937 173.584L26.8045 173.927C25.93 173.185 25.5133 172.781 26.336 171.512C26.9686 170.535 26.4843 168.9 26.7291 167.597C27.0156 166.094 27.5595 164.64 28.0329 163.024C28.3607 163.198 28.7441 163.402 29.4126 163.756C27.7545 161.777 28.5518 160.326 29.6999 159.028C28.5452 156.911 29.7034 154.982 29.8421 153.076C31.2482 153.078 32.4914 153.074 33.8355 153.081L32.0724 157.548C32.8134 158.798 33.5324 160.01 34.2656 161.242C34.3167 161.112 34.6264 160.726 34.5616 160.416C34.3517 159.45 33.5252 158.436 35.0769 157.784C35.1762 157.741 35.0285 157.091 34.9778 156.727C34.8387 155.714 34.3386 154.574 34.6448 153.722C34.9205 152.948 36.0737 152.491 37.1671 151.635C37.0977 152.588 37.0645 152.957 37.0182 153.567C39.6292 151.672 40.7007 154.833 42.8107 155.023C42.6671 155.557 42.5363 156.059 42.3762 156.654C42.6215 156.602 42.8167 156.619 42.9274 156.528C43.7102 155.872 44.2389 155.631 44.8713 156.854C45.2364 157.559 46.3658 157.825 46.998 158.441C47.6639 159.086 48.1549 159.908 48.5683 160.453C49.6463 161.058 50.6751 161.636 51.9798 162.368C51.3254 162.813 50.962 163.051 50.2779 163.514C53.6696 163.072 54.8748 164.663 55.0781 167.579C55.5381 167.551 56.1246 167.506 56.839 167.459C56.5963 168.073 56.0824 168.731 56.233 169.165C56.419 169.717 57.1483 170.087 57.9217 170.781C57.7573 171.861 58.3733 173.75 56.2083 174.534C56.3913 176.687 54.6767 176.481 53.4839 176.489C52.0972 176.496 50.6627 176.206 49.3246 175.805C47.98 175.402 46.7463 174.66 45.427 174.155C44.192 173.682 42.9046 173.361 41.6568 172.921C40.9798 172.683 40.2459 172.439 39.7127 171.989C39.3442 171.671 39.2972 170.994 39.0868 170.485C38.2567 168.399 37.0984 168.054 35.4757 169.568C36.8327 170.433 36.7271 171.364 36.0578 172.813C34.9521 175.197 34.7986 178.107 33.3997 180.249C32.323 181.896 32.7616 184.576 30.2346 185.329C30.0488 185.383 30.0887 186.192 30.0273 186.631L30.0391 186.658ZM37.2752 160.043C36.8374 160.678 36.0974 161.359 36.2279 161.635C37.0931 163.48 37.1809 166.006 39.9534 166.375C40.168 166.4 40.3719 166.622 40.5498 166.797C41.4273 167.645 42.2675 168.53 43.1667 169.342C44.3645 170.421 45.6021 171.455 46.8539 172.473C47.0926 172.665 47.4977 172.795 47.7908 172.753C50.1025 172.394 52.0391 173.383 52.5883 175.081C53.213 174.617 53.9166 174.161 54.537 173.613C54.8588 173.328 55.3189 172.769 55.2221 172.522C54.6886 171.144 54.2037 169.68 53.33 168.52C52.161 166.951 51.0443 165.231 48.9605 164.558C48.6163 164.445 48.5077 163.601 48.3065 163.125C47.3141 162.285 46.2604 161.353 45.1618 160.477C43.8816 159.456 42.3866 158.656 41.3098 157.461C40.0563 156.068 38.7267 155.835 37.6381 156.034C37.0847 157.095 36.7554 157.72 36.3685 158.473C36.5861 158.851 36.9586 159.499 37.2661 160.047L37.2752 160.043ZM28.6017 172.406C28.4546 172.476 27.895 172.756 27.7816 172.816C28.2116 173.584 28.801 174.176 28.8141 174.787C28.8271 175.361 28.3131 176.019 27.8746 176.504C27.2651 177.176 26.3292 177.69 27.7762 178.44C27.92 178.512 27.9527 178.884 27.9512 179.115C27.9476 181.456 28.2221 182.694 29.2914 184.8L33.5203 174.086C33.7347 172.936 33.2071 171.164 33.8689 170.34C35.1578 168.724 34.196 167.237 33.9588 165.962C33.7191 164.692 33.1905 162.695 30.7183 162.722C30.0462 165.809 29.3624 168.906 28.5991 172.413L28.6017 172.406Z" fill="white"/>
<path d="M66.8777 217.391C66.5372 217.533 66.1927 217.667 65.8522 217.809C65.3587 217.562 64.6551 217.449 64.4013 217.05C63.0255 214.905 62 212.48 60.3758 210.567C59.3129 209.317 58.4073 208.257 58.4385 206.585C58.4395 206.526 58.4145 206.419 58.386 206.415C55.7149 205.884 56.0087 202.865 54.3159 201.486C54.05 201.269 54.1375 200.346 54.3564 199.886C54.5625 199.459 55.1572 199.222 55.5758 198.901L55.5061 198.926C55.7456 198.736 55.9851 198.546 56.2247 198.357C56.3156 198.467 56.4105 198.587 56.5015 198.698C56.2504 199.182 56.0083 199.663 55.5997 200.452C56.4122 200.384 56.9368 200.344 57.3928 200.307C57.0105 200.934 56.6269 201.546 56.2497 202.16L58.8909 203.203C58.8924 203.824 57.5915 205.054 59.678 205.473C60.0117 205.538 60.0499 207.109 60.2243 207.956C60.3737 207.843 60.7021 207.599 61.2353 207.196C61.2309 207.927 61.2229 208.44 61.22 208.94C61.5803 208.881 61.9381 208.827 62.2919 208.765C62.1946 208.973 62.0909 209.179 61.9284 209.534C62.3766 209.479 62.7447 209.437 62.6117 209.452C63.0289 210.821 63.3818 211.993 63.7781 213.302C64.0697 212.923 64.2162 212.742 64.4038 212.494C64.5939 213.377 64.7696 214.202 64.9902 215.254L65.4348 214.128C65.7925 215.496 67.5284 215.837 66.8765 217.413L66.8777 217.391Z" fill="white"/>
<path d="M47.8302 186.775C48.5873 187.568 50.2659 187.542 49.9932 189.238C50.2578 189.155 50.5223 189.073 50.4526 189.097C50.5314 190.206 50.5736 191.255 50.7024 192.294C50.7292 192.491 51.152 192.823 51.3237 192.786C53.8802 192.261 52.159 194.29 52.6259 194.946C54.8219 194.728 53.7504 196.115 53.556 197.139C54.2938 197.108 54.9231 197.087 55.7759 197.05C55.6706 197.771 55.5841 198.351 55.5041 198.932C55.5041 198.932 55.5737 198.908 55.5828 198.904C54.5831 198.763 53.5745 198.627 52.5878 198.492C52.2723 197.32 51.9278 196.032 51.5808 194.75C50.5832 195.06 50.2132 194.405 49.8945 193.658C49.6031 192.974 48.4395 192.568 49.3777 191.441C49.5474 191.239 48.7212 189.731 48.0645 189.404C46.2367 188.481 47.6028 187.636 47.9205 186.736L47.8457 186.774L47.8302 186.775Z" fill="white"/>
<path d="M44.2318 182.13C44.5262 182.067 44.8485 181.895 45.1072 181.96C45.7154 182.125 46.2866 182.403 46.908 182.648C46.8327 182.858 46.6644 183.36 46.4922 183.853C46.8661 183.948 47.2426 184.037 47.6644 184.144C47.6728 184.558 47.6753 185.121 47.6823 185.804C48.1239 185.709 48.5344 185.617 49.2548 185.46C48.6191 186.047 48.2292 186.409 47.8328 186.769C47.8328 186.769 47.9075 186.731 47.9011 186.729C46.3911 186.896 45.5247 186.494 45.4713 184.715C45.444 183.836 44.697 182.98 44.2834 182.113L44.2343 182.124L44.2318 182.13Z" fill="white"/>
<path d="M44.2799 182.12C43.6714 181.027 43.0629 179.933 42.3384 178.622C42.7162 178.727 42.9724 178.798 43.2351 178.872L43.1833 178.851C43.9167 179.268 44.6475 179.691 45.7606 180.34C45.33 180.843 44.7901 181.491 44.2438 182.135L44.2864 182.122L44.2799 182.12Z" fill="white"/>
<path d="M43.2295 178.869C42.7484 178.23 43.0007 176.871 41.5624 177.178C41.5921 176.592 41.6282 176.007 41.6721 175.157C43.4411 176.229 44.4635 177.126 43.1699 178.831C43.1764 178.833 43.223 178.866 43.223 178.866L43.2295 178.869Z" fill="white"/>
</svg>
