<svg width="116" height="161" viewBox="0 0 116 161" fill="none" xmlns="http://www.w3.org/2000/svg">
<path d="M28.7907 25.6466V28.1235C29.2701 28.1235 29.5897 28.2148 29.7837 28.112C31.667 27.0619 33.2764 26.6853 35.4223 28.112C37.3741 29.4018 40.1135 29.4475 42.2251 30.5775C45.4781 32.3124 48.4914 34.5039 51.1737 36.7982C52.2466 36.958 53.3195 37.1406 54.3925 37.2547C55.3855 37.3689 56.7209 37.814 57.3031 37.346C57.8623 36.9009 57.8509 35.4627 57.7254 34.5039C57.44 32.2554 56.6867 30.041 56.6296 27.7924C56.584 26.1146 57.3145 24.4481 55.3969 23.2953C55.2371 23.204 55.6252 22.2452 55.7165 21.6859C55.8421 20.8527 56.2415 19.8939 55.9676 19.2091C54.8833 16.424 55.9676 10.112 58.4445 8.63962C59.8142 7.82922 61.8687 8.16023 63.9004 7.95478C63.752 8.71952 63.6493 9.24457 63.5466 9.78103C64.083 9.92941 65.1445 9.96366 65.2358 10.2718C66.0006 12.9998 68.8199 13.8216 70.2124 15.8876C70.6347 16.5039 70.2809 17.6453 70.2809 18.821C73.4312 18.6498 74.8465 21.1609 76.3189 23.4551C77.6886 25.5895 81.1357 26.5255 80.1312 30.0068C81.1585 30.1209 82.1629 30.2351 82.5624 30.2807C90.9061 21.7316 99.1128 13.308 107.445 4.75884C108.039 5.44368 108.529 6.01438 109.659 7.33842C107.959 3.06955 111.28 2.30481 112.878 2.09936C114.659 1.87107 116.074 -1.89557 118.243 1.2433C119.738 -0.18346 123.128 0.170377 124.715 1.91673C127.123 4.57621 127.089 8.17165 124.486 10.6371C125.285 11.5388 126.415 12.3378 126.792 13.3993C127.066 14.1755 126.324 15.294 125.902 16.7322C127.249 18.3073 126.278 23.8089 124.486 24.4938C125.194 26.2972 125.89 28.0778 126.689 30.0981C125.434 29.9383 124.68 29.847 123.699 29.71C123.824 33.9446 125.377 38.2477 121.975 41.9002C122.831 42.2769 123.653 42.6422 125.331 43.3841C123.197 43.9662 122.044 44.2858 120.879 44.6054C124.053 44.8223 122.82 47.2649 122.831 48.5661C122.831 49.833 121.998 51.1114 121.427 52.3555C120.377 54.6612 121.541 55.5172 123.596 56.6701C127.728 58.9985 130.661 55.8026 134.143 55.3004C134.622 55.2319 135.056 54.7411 135.524 54.7068C138.731 54.4557 141.938 54.2731 145.146 54.0562C147.189 53.9193 149.449 53.1317 151.218 53.7595C153.763 54.6612 157.987 52.9947 158.443 57.9599C156.149 57.4348 155.361 58.2909 156.503 60.2655C152.417 62.8337 148.376 65.2877 144.438 67.8901C140.557 70.4583 136.745 73.1292 132.99 75.88C131.928 76.6675 131.198 77.9117 130.502 78.7449C128.47 80.2401 126.918 81.393 125.046 82.7626C125.023 83.1621 124.977 84.1666 124.909 85.3536C123.904 85.5363 122.923 85.7075 122.272 85.8216C121.987 86.7347 121.975 87.8077 121.45 88.2414C119.179 90.0905 119.042 92.0651 119.818 94.8387C121.085 99.3815 124.201 102.623 126.621 106.55C126.358 107.257 126.004 108.205 125.628 109.232C126.792 108.935 127.865 108.661 129.737 108.182C128.961 109.517 128.641 110.077 128.71 109.962C131.106 112.907 133.355 115.624 135.547 118.375C137.932 121.376 140.238 124.424 141.653 128.214C144.221 127.837 143.605 131.158 144.929 132.562C145.979 133.669 145.522 136.158 146.527 137.368C148.878 140.164 144.689 140.895 145.328 142.812C137.67 143.109 133.07 137.733 127.716 133.875C122.135 129.857 116.656 125.68 111.257 121.411C109.831 120.281 109.066 118.295 107.628 117.188C104.535 114.802 101.202 112.725 97.8002 110.396C95.6429 111.309 93.1204 112.382 90.461 113.512C89.9359 114.562 89.2511 115.932 88.5434 117.336C87.7558 117.176 86.9797 117.028 86.3975 116.914C86.4774 117.61 86.8084 118.363 86.5573 118.717C85.0849 120.76 83.8636 123.431 81.8319 124.515C79.4121 125.817 78.6588 128.202 76.7755 129.709C74.4013 131.603 73.2029 134.731 71.2625 136.489C69.2422 138.315 68.2834 141.328 65.3956 142.298C64.2542 142.687 63.284 143.6 62.1312 144.342C62.6905 146.522 55.3741 153.952 52.6347 154.215C52.1553 155.493 52.0754 156.886 51.3906 157.297C50.4318 157.879 49.0393 157.742 47.7723 157.913C47.7837 159.545 45.421 161.394 43.4464 160.926C41.5745 160.481 39.4058 161.018 38.9606 157.947C38.7209 156.246 37.0887 155.014 37.6823 152.72C38.6639 148.953 39.1775 145.004 39.4172 141.1C39.5998 138.224 40.3874 135.713 41.4032 133.042C42.9784 128.853 43.6404 124.321 44.7133 119.95C45.0672 118.489 45.2498 116.902 45.9346 115.601C47.3842 112.827 46.1972 110.225 45.6607 107.611C45.284 105.796 41.2092 104.815 39.1318 105.226C35.8902 105.888 32.797 107.04 29.544 107.668C28.2314 107.919 27.0443 108.81 25.7545 109.278C25.1382 109.506 24.3963 109.415 23.6201 109.472C21.9993 110.533 20.2758 112.165 18.2327 112.896C14.4774 114.243 10.4254 114.791 6.71586 116.24C4.85537 116.971 3.42861 116.56 2.41275 115.59C1.41973 114.642 2.17306 112.964 2.19589 111.617C2.27578 105.773 6.70445 103.376 10.0716 99.9751C11.544 98.4912 13.8839 97.3955 14.6144 96.2997C17.2625 92.3391 21.6455 90.8438 24.9213 87.9104C27.1242 85.9358 29.4755 83.847 31.9866 82.1006C36.1299 79.2015 36.2441 73.2091 32.4204 70.1387C29.7609 67.9928 27.3753 65.4589 25.0697 62.925C21.3715 58.873 17.856 54.6498 14.2149 50.5407C11.9093 47.9383 8.87312 45.7468 7.34363 42.7677C6.05384 40.268 3.9879 38.7043 2.447 36.5813C-0.292384 32.8146 -0.292384 26.0803 3.41719 24.3911C6.28213 23.0898 9.86615 22.6333 13.0507 22.8958C18.2783 23.3295 23.4261 24.6422 28.7907 25.6238V25.6466ZM149.711 57.7316C149.791 57.7772 149.415 57.3549 149.118 57.4006C144.803 58.1311 140.512 59.0328 136.174 59.6834C133.503 60.0829 130.775 59.7519 128.105 60.7221C126.803 61.2015 124.68 59.9687 123.687 60.6422C121.176 62.3086 119.418 61.0987 118.254 59.4551C117.158 57.9028 116.451 55.7227 116.474 53.8165C116.496 50.9859 117.227 48.1437 117.809 45.3359C117.969 44.5597 119.019 43.8749 119.019 43.1558C118.985 39.8001 118.848 36.5242 119.909 33.2141C120.663 30.8514 120.72 28.2604 121.005 25.7607C121.096 24.9846 120.868 24.1742 120.8 23.3752C120.879 23.3181 120.959 23.2496 121.051 23.1926C121.45 20.2135 121.85 17.2344 122.181 14.7462C121.758 12.646 120.822 10.7512 121.153 9.11901C121.701 6.39105 121.188 4.03975 118.619 4.02834C116.485 4.02834 113.963 5.1355 112.33 6.57367C110.915 7.81781 111.36 8.32003 109.328 9.17608C105.916 11.8698 104.489 16.7094 100.14 17.4285C99.5123 18.9465 98.9987 20.9782 98.6449 20.9554C96.693 20.807 96.2707 22.4507 95.4147 23.3866C92.3899 26.7081 88.3493 29.2534 87.2079 34.0017C86.5687 33.8191 86.0209 33.6593 85.473 33.5109C85.2561 33.7392 85.0393 33.9789 84.8338 34.2072C85.8611 35.4285 87.0824 36.547 87.8928 37.9053C89.0114 39.7886 89.8103 41.866 90.8034 43.8292C91.1915 44.594 91.922 45.2103 92.1731 45.9865C92.8351 48.0753 92.778 50.6548 94.0221 52.2414C95.3348 53.9079 94.2733 54.8781 94.1705 56.1907C94.102 57.0239 94.7641 58.4392 94.4787 58.6219C93.6341 59.1583 92.4812 59.2154 91.454 59.4551C91.5681 58.6675 91.7279 57.8685 91.785 57.081C91.7964 56.8983 91.4311 56.7157 91.317 56.4989C89.8103 53.5997 89.9131 49.8901 86.8541 47.7443C86.6144 47.573 86.8883 46.8083 86.7057 46.4202C85.8611 44.6396 85.1192 42.7335 83.875 41.2611C83.6125 40.9529 81.4552 42.4025 80.1084 42.7905C79.2523 43.0417 78.2593 42.8362 77.369 42.8362C78.1223 39.9713 78.6816 37.8368 79.2637 35.5997C79.0012 35.0404 78.693 34.1957 78.2479 33.431C77.2206 31.6732 76.3874 29.7214 75.0291 28.249C72.3696 25.3612 68.8084 23.398 67.0849 19.5172C66.0577 17.2116 64.5966 14.8831 61.8002 14.0727C61.435 13.97 61.0925 13.7645 60.7387 13.6047C60.5903 13.97 60.2821 14.3467 60.305 14.7005C60.4876 16.8235 60.7501 18.9465 60.9784 21.0696C60.6131 21.275 60.0653 21.5946 59.6544 21.8229C61.9714 23.7633 61.1154 25.4411 59.5516 27.0391C62.5878 28.5686 62.9416 30.5432 61.3322 32.6092C62.0856 34.4811 63.2384 36.0106 63.1471 37.4602C63.0558 39.1609 62.1084 40.9529 61.1268 42.4367C60.2707 43.7265 55.2828 43.2129 53.3766 42.1057C50.7057 40.5648 47.9663 39.1266 45.2155 37.7569C42.3849 36.3416 39.0862 35.5426 36.7349 33.568C34.3151 31.5363 31.473 31.6732 28.9048 30.8628C25.1154 29.6644 20.584 30.315 17.1369 28.6257C12.811 26.5027 8.99868 28.3632 4.42163 27.9408C5.56304 29.9954 6.43051 31.5591 7.35505 33.2027C6.54465 33.7734 5.74566 34.3441 5.56304 34.4697C6.81859 35.5312 8.22252 36.4443 9.2612 37.677C10.2428 38.8527 10.6081 40.5762 11.6467 41.6605C14.7742 44.9136 18.1528 47.9155 21.3373 51.1114C24.8414 54.6269 27.8547 58.599 31.336 62.1488C34.1096 64.9795 36.6207 68.107 39.0291 71.2687C41.3918 74.3733 40.8782 77.9117 38.0475 79.9776C38.447 80.6967 38.8579 81.4386 39.4172 82.4545C38.3443 82.6257 36.986 82.6143 36.9175 82.8996C36.1642 86.1869 32.3062 86.0499 30.8566 88.5496C30.5028 89.1545 29.2587 89.1888 28.7336 89.7709C27.5123 91.1292 26.5079 93.8571 25.3551 93.8914C20.8921 94.0283 20.0475 99.1533 16.2352 99.8267C15.9841 103.399 12.1946 102.007 10.4711 104.027C13.279 104.826 11.2016 106.344 10.5282 106.39C7.46919 106.572 7.45778 109.118 6.39627 111.092C7.08111 111.127 7.74313 111.355 8.25676 111.161C10.5282 110.293 12.7425 109.266 15.0139 108.387C18.3696 107.086 21.7596 105.853 25.1268 104.586C26.5992 104.038 28.083 103.502 29.6011 102.943C29.7266 103.331 29.8408 103.719 29.9663 104.118C31.4159 103.388 32.7856 102.349 34.3151 102.007C37.6823 101.253 41.1179 100.66 44.5649 100.386C47.35 100.169 48.8909 102.418 47.9663 104.609C49.0735 104.883 50.2149 105.168 51.5161 105.499C50.9226 106.39 50.5802 106.892 50.3405 107.234C51.1166 107.805 51.733 108.25 52.3379 108.695C52.2466 108.844 52.1439 108.992 52.0526 109.141C51.6074 109.072 51.1737 109.004 50.7057 108.935C50.9911 111.343 53.8674 114.014 49.8611 115.567C50.6829 116.137 51.3906 116.628 52.3608 117.302C50.6715 118.238 49.8382 118.694 49.005 119.162C49.2561 119.345 49.5072 119.527 49.7584 119.71C49.6442 120.532 49.5871 121.376 49.3703 122.175C49.3018 122.449 48.5599 122.678 48.5941 122.826C49.4388 126.319 47.2815 129.195 46.3684 132.231C45.9004 133.761 44.2568 134.765 45.8776 136.523C45.9917 136.649 45.4667 137.333 45.284 137.779C44.896 138.68 44.5421 139.605 44.1769 140.518C46.4939 140.997 45.0557 142.39 44.7362 143.303C43.2409 147.572 42.7615 151.921 43.0697 157.057C46.0488 155.117 49.1534 153.884 51.0139 151.635C52.4521 149.877 53.7875 148.371 55.6594 147.047C57.2003 145.962 57.9194 143.771 59.2777 142.321C60.5332 140.974 62.1312 139.947 63.5808 138.783C65.1217 137.014 66.4686 134.845 68.0095 132.825C69.5732 130.77 70.8287 128.373 73.511 127.392C73.9448 127.232 74.0817 126.319 74.4013 125.782C74.8351 125.029 75.2232 124.219 75.7824 123.557C76.8097 122.335 77.8941 121.16 79.0355 120.041C80.896 118.238 82.8706 116.548 84.7197 114.722C86.5003 112.976 87.9727 110.853 89.9473 109.403C91.7964 108.056 94.1477 107.371 96.2821 106.424C96.5447 106.31 96.9099 106.321 97.2067 106.39C101.441 107.349 105.06 109.472 108.37 112.211C110.801 114.231 113.403 116.035 115.241 118.728C115.777 119.516 117.227 119.619 118.072 120.269C122.078 123.408 126.061 126.593 129.976 129.834C131.609 131.193 132.967 132.905 134.645 134.194C136.117 135.313 137.875 136.066 139.085 136.74C139.998 137.664 140.671 138.349 141.345 139.034C141.402 137.368 141.014 136.215 140.546 135.085C139.096 131.546 137.076 128.499 134.428 125.611C131.038 121.902 128.413 117.507 125.514 113.364C122.306 108.775 118.916 104.278 116.097 99.45C114.784 97.2129 113.883 94.1881 114.191 91.6999C114.51 89.1888 114.921 85.776 118.619 85.0112C119.11 84.9085 119.647 84.2579 119.841 83.7328C120.354 82.3517 121.519 80.2972 122.386 79.6124C125.799 76.9072 129.212 74.1907 132.625 71.4741C135.489 69.2027 138.286 66.8514 141.242 64.7056C142.737 63.6212 144.518 62.9136 146.447 61.8863C146.573 61.9776 147.132 62.3543 147.429 62.5483C148.216 60.9389 148.924 59.4893 149.746 57.8115L149.711 57.7316Z" fill="#E1F8DE"/>
</svg>
