<svg width="136" height="106" viewBox="0 0 136 106" fill="none" xmlns="http://www.w3.org/2000/svg">
<path d="M-16.7576 86.3008C-17.5657 86.3168 -18.3589 86.3343 -19.3064 86.3595C-19.3041 86.3658 -19.4792 86.1455 -19.4366 85.9725C-18.9169 83.5577 -18.4121 81.1413 -17.8158 78.7407C-17.6338 78.0229 -17.2279 77.3501 -16.8597 76.6914C-14.9126 73.2225 -13.0757 69.6876 -10.9291 66.3512C-9.81379 64.6138 -8.14781 63.2422 -6.74228 61.6892C-6.42855 61.3436 -6.03024 60.995 -5.91607 60.5739C-5.48937 59.0578 -4.27384 58.3542 -3.06767 57.6255C-2.81061 57.4724 -2.34865 57.4856 -2.24342 57.2892C-0.760604 54.3364 2.64717 53.25 4.3435 50.4674C4.85372 49.6342 6.02662 49.1607 6.96704 48.6383C8.87687 47.5755 9.86075 45.2374 12.2652 44.8683C12.4735 44.8334 12.697 44.6286 12.828 44.444C14.8063 41.6132 18.1209 40.5259 20.6853 38.4619C21.3109 37.957 21.9289 36.8194 23.2801 37.4933C23.5172 37.6119 24.4913 36.0701 25.2322 35.415C25.5647 35.1195 26.1551 35.1134 26.6266 34.9802C26.7 35.1385 26.7671 35.2991 26.8428 35.4636C28.4091 34.2649 29.9731 33.0598 31.548 31.865C31.6859 31.7564 31.885 31.6392 32.0463 31.6504C34.4788 31.835 36.1447 30.042 38.2099 29.2997C38.5796 29.1617 39.0103 29.1866 39.4073 29.1598C39.8403 29.1339 40.4633 29.3298 40.6798 29.1062C41.9706 27.7817 43.5006 27.2891 45.3132 27.3624C45.7924 27.3835 46.2862 27.042 46.7766 26.9018C48.2039 26.4976 49.7255 26.3081 51.0388 25.675C52.758 24.8476 54.7429 25.9563 56.3994 24.6167C56.9694 24.154 58.1176 24.4752 58.9815 24.3027C59.7593 24.1481 60.4905 23.7538 61.2635 23.5866C61.587 23.5158 61.9813 23.7685 62.3492 23.874C62.6483 23.8338 63.0556 23.7389 63.466 23.7285C63.8128 23.7204 64.1947 23.9207 64.5049 23.8334C66.4899 23.2782 68.41 22.6257 70.4825 23.7587C70.8949 23.9833 71.8372 23.2174 72.3457 22.9919C77.0332 23.3059 81.6744 23.1516 86.1072 24.0463C90.2458 24.8795 94.4703 25.3306 98.4606 26.8189C99.1611 27.0502 99.8828 27.2236 100.548 27.5323C101.801 28.1144 103.841 27.21 104.116 29.3426C105.208 28.4993 106.051 29.4199 106.952 29.6906C108.919 30.2918 110.325 32.5091 112.764 31.7345C112.994 31.6628 113.156 31.3882 112.829 31.1818C112.635 30.4901 112.413 29.8015 112.245 29.1004C112.118 28.5693 112.251 27.8554 111.949 27.5042C110.789 26.1588 111.524 24.7778 111.877 23.5248C112.31 22.0064 115.112 21.1321 116.763 21.9223C117.98 22.5036 119.099 23.3 120.228 24.0495C120.967 24.5377 121.654 25.0955 122.437 25.6816C122.082 27.1421 122.932 28.289 124.093 28.3197C125.025 29.343 125.776 29.9979 126.317 30.7959C127.183 32.0649 127.936 33.412 128.684 34.7466C129.875 36.8657 131.406 38.9008 132.037 41.1858C132.392 42.4814 133.25 43.8037 133.216 44.8592C133.165 46.5778 134.811 48.1197 133.614 49.9235C133.22 50.5133 131.442 52.1409 130.676 51.9628C128.392 51.43 126.125 50.8479 123.767 50.2711C123.834 49.9322 123.913 49.5314 124.04 48.877C123.464 49.1705 123.088 49.3681 122.686 49.575C122.635 49.2084 122.594 48.8881 122.565 48.7135C121.798 48.8783 121.092 49.0346 120.172 49.2282C120.38 48.5434 120.505 48.1113 120.708 47.45C119.388 47.7213 118.233 48.1095 117.606 46.544C117.515 46.2996 115.94 46.6519 115.374 46.7059C114.866 45.9174 114.406 45.2033 114.056 44.6484C113.587 44.9594 113.121 45.2617 112.542 45.6421C112.371 43.2709 110.638 42.7037 109.02 42.0795C108.162 41.7502 107.315 41.6447 108.111 40.3908C108.27 40.1459 107.669 39.4348 107.445 38.9325C107.268 38.5345 106.917 37.823 107.024 37.7472C108.319 36.7571 107.794 35.1605 108.307 33.9124C108.661 33.0445 105.717 31.8726 104.908 32.3459C103.481 31.372 102.149 30.4624 100.769 29.5207C100.334 29.9045 99.8797 30.2953 99.0729 31.0035C99.2145 30.0438 99.2888 29.5733 99.3608 29.0965C95.7316 28.8754 93.3824 28.2575 92.3133 27.2426C91.8337 27.5073 91.4473 29.2654 90.6641 27.3583C90.5112 26.987 89.0232 27.1711 87.9889 27.0787C87.9671 27.0011 87.8417 26.5695 87.6813 25.9867C87.4112 26.4874 87.2086 26.8629 87.2424 26.8003C86.0591 26.8635 85.2329 26.9649 84.4084 26.937C83.8869 26.9174 83.3736 26.7091 82.8691 26.3333C82.0257 26.4268 81.1177 27.2656 80.4999 25.7252C80.4414 25.5685 79.472 25.5733 79.457 25.6289C79.0844 27.1176 78.0448 26.456 77.2816 26.2481C76.3494 25.9891 75.5695 25.4875 74.5528 26.2455C73.7399 26.8417 73.6157 26.681 72.7735 25.4387C72.6221 25.588 72.3042 26.1137 71.8568 26.2735C70.1889 26.8747 68.4574 26.5213 67.6677 25.7449C66.5333 26.1684 65.5499 26.614 64.5198 26.8771C64.1548 26.9705 63.6848 26.5532 63.248 26.4734C62.924 26.4087 62.4127 26.3782 62.2542 26.5659C61.3929 27.5872 60.9215 27.6061 59.7739 26.4063C59.681 26.7123 59.6431 26.955 59.5425 27.1639C59.4161 27.4182 59.2333 27.6364 58.946 28.0721C58.3374 26.6711 57.7972 26.6014 56.6519 27.4931C56.0483 27.9612 55.1133 28.5173 54.2956 28.6797C53.7449 28.7924 53.0155 28.0435 52.2746 27.6274C52.2303 27.9296 52.1742 28.2576 52.107 28.6897C51.2948 28.3502 50.1556 27.2115 50.6983 29.794C50.0109 29.1579 49.6739 28.8481 49.1985 28.3971C49.1175 30.7054 47.3989 29.583 46.4133 29.9652C45.8077 30.1984 45.22 30.4606 44.6097 30.6813C44.3026 30.7959 43.9406 30.9739 43.6502 30.9038C42.3735 30.602 41.417 30.909 40.8176 32.211C40.49 31.8692 40.1757 31.5437 39.8442 31.2104C39.5853 31.5499 39.4014 32.0327 39.1696 32.0621C37.38 32.2802 36.1107 33.3181 34.9328 34.5433C34.0795 35.4331 33.5825 35.2687 32.6479 33.5682C32.7345 35.2925 32.3134 36.1923 30.5406 36.2257C29.7388 36.2393 28.9754 37.2169 28.1541 37.6949C27.2105 38.2471 26.2263 38.7287 25.2248 39.2596C24.343 39.8816 23.3992 40.548 22.3151 41.3169C21.9788 41.0854 21.4492 40.7189 20.8352 40.2983C20.8207 40.5465 20.8611 40.7885 20.7882 40.8228C19.2868 41.5832 19.6666 44.6477 16.9788 43.9515C16.8509 45.1775 14.6971 44.439 14.8486 46.2605C14.887 46.746 13.0804 47.3775 12.0726 47.968C12.8791 49.5164 11.1428 48.1936 10.7297 48.4835C10.2411 49.5085 10.3814 51.4913 8.24579 50.1319C8.12453 50.0558 7.52893 50.3924 7.45262 50.6279C6.27311 54.4316 2.70393 56.0995 0.213885 58.7071C-0.392349 59.3404 -1.28273 60.4369 -2.49038 59.0381C-2.38804 59.714 -2.29198 60.3923 -2.16559 61.2091C-2.71429 61.0783 -3.20975 60.9562 -3.31228 60.9302C-3.98105 62.0082 -4.51401 62.857 -5.03836 63.7097C-6.15852 65.5488 -7.64535 67.0179 -9.47621 68.1583C-9.69567 68.2973 -9.98141 68.7753 -9.90796 68.8765C-9.1189 70.053 -10.164 70.9072 -10.6987 71.3496C-12.2039 72.597 -12.4057 74.4861 -13.3733 75.9113C-15.5118 79.0589 -15.8258 82.6752 -16.742 86.3235L-16.7576 86.3008ZM114.997 23.56C113.609 24.835 113.189 26.4271 113.868 28.1515C114.278 29.1912 115.309 30.0776 115.445 31.1121C115.638 32.6041 116.535 32.2335 117.349 32.2723C117.625 32.2837 117.972 31.9898 118.182 32.0755C119.989 32.8221 121.775 33.6266 123.592 34.4195C123.045 35.1163 122.624 35.652 122.158 36.2401C121.794 35.0097 120.671 34.9791 118.789 36.1481C119.75 37.0602 121.354 37.8754 121.474 38.8661C121.639 40.2257 123.963 39.3937 123.326 41.3026C123.166 41.7909 124.959 42.9212 125.848 43.7533C125.131 44.2635 124.489 44.7246 123.926 45.1277C123.341 44.6891 122.71 44.339 122.243 43.8348C121.834 43.3878 121.608 42.765 121.148 41.9515C121.086 41.96 120.614 42.0149 120.014 42.0892C120.354 41.605 120.61 41.2382 121.088 40.567C118.153 41.6768 119.806 39.3318 119.125 38.6574L117.402 39.3008C117.15 38.8165 116.918 38.3886 116.709 37.9811C117.181 37.5622 117.616 37.1784 118.119 36.7265C116.806 36.1169 115.599 35.5607 114.408 35.0124C114.525 35.9185 114.598 36.4769 114.671 37.0353C114.512 37.0875 114.347 37.1421 114.187 37.1943C113.321 36.4037 112.455 35.6131 111.634 34.8696C110.901 35.5434 110.16 36.2196 109.273 37.0365C109.586 37.8764 109.85 38.9276 110.365 39.8281C110.629 40.2865 111.382 40.4482 111.854 40.8146C112.94 41.6587 114.005 42.5397 115.053 43.4339C116.208 44.4238 117.741 44.5726 119.058 45.2308C121.263 46.3358 123.671 47.0293 125.971 47.8918C125.889 48.0154 125.746 48.2258 125.544 48.5081C126.515 48.4102 127.299 48.3315 128.002 48.2621C128.848 50.3172 130.359 48.4536 131.427 49.0973C131.455 47.7944 131.677 46.6476 131.455 45.5949C131.216 44.456 130.554 43.4105 129.957 42.0408C128.651 41.8141 128.28 41.0102 128.803 39.5796C128.377 38.4389 128.008 37.7555 127.883 37.0381C127.686 35.9189 127.352 35.1009 125.921 35.4566C126.046 34.5101 126.163 33.674 126.283 32.7721C125.562 32.9057 124.895 33.0331 124.395 33.1271C124.448 32.4287 124.503 31.8087 124.548 31.1847C123.558 31.4972 123.208 30.7136 122.753 30.1265C122.17 29.3872 121.604 28.6346 120.983 27.8311C121.001 27.8241 120.688 27.941 120.487 28.0159C120.396 27.1787 120.318 26.4512 120.274 26.0674C119.392 26.247 118.82 26.3604 118.614 26.4016C118.256 25.4427 118.14 24.7503 117.753 24.2877C117.596 24.0964 116.851 24.396 116.42 24.4642C116.331 24.0546 116.231 23.6136 116.079 22.9204C115.931 23.5184 115.849 23.8346 115.73 24.3003C115.359 23.9388 115.123 23.7059 114.984 23.5647L114.997 23.56Z" fill="white"/>
</svg>
