<svg width="273" height="276" viewBox="0 0 273 276" fill="none" xmlns="http://www.w3.org/2000/svg">
<path d="M252.487 256.118C250.142 253.968 247.07 252.209 245.646 249.556C244.124 246.749 240.103 246.093 239.796 244.166C239.014 239.195 233.471 239.712 231.823 235.775C230.887 233.527 227.634 232.298 225.568 230.455C222.259 227.495 219.075 224.395 215.85 221.351C215.571 221.086 215.347 220.681 215.026 220.583C210.349 219.076 207.319 215.641 204.065 212.136C201.901 209.79 197.95 209.19 195.074 207.375C190.229 204.317 185.607 200.896 180.846 197.685C179.994 197.112 179.003 196.666 178.011 196.4C173.264 195.144 168.531 192.379 163.602 195.242C162.01 196.163 161.075 198.271 159.916 199.891C159.218 200.854 158.213 201.874 158.115 202.921C157.891 205.448 157.919 208.045 158.24 210.572C158.436 212.052 158.897 213.211 156.816 213.295C156.914 215.348 157.11 217.386 157.068 219.439C157.026 221.477 153.772 222.985 156.02 225.456C156.425 225.903 156.802 226.364 157.375 227.034C156.174 227.607 155.239 228.039 154.219 228.528C159.357 231.139 152.586 235.021 155.616 237.632C154.429 238.595 151.594 239.014 154.862 240.899C155.197 241.094 154.582 244.487 153.577 245.158C151.538 246.54 151.748 247.21 152.767 249.262C153.717 251.175 153.214 253.8 153.354 256.16C151.134 256.551 148.634 256.607 150.044 259.902C150.086 259.986 150.044 260.167 149.975 260.223C145.828 263.672 146.721 271.407 139.684 272.329C138.805 272.44 137.841 271.868 136.515 271.519C136.291 272.119 135.928 273.083 135.537 274.116C133.136 274.116 130.539 274.646 128.291 273.99C125.121 273.055 122.022 271.519 119.229 269.732C116.143 267.763 113.337 265.305 110.559 262.876C108.576 261.145 106.872 259.078 104.987 257.221C102.502 254.764 99.6956 252.586 97.5175 249.905C92.5887 243.831 86.8083 238.442 83.0523 231.376C81.2372 227.956 78.2771 225.121 75.8896 221.994C75.4707 221.435 75.3171 220.681 74.982 220.053C73.0273 216.492 71.1842 212.862 69.0479 209.413C67.2188 206.453 63.8399 203.898 63.2954 200.799C62.5274 196.345 59.7489 193.189 58.0734 189.419C54.4292 181.195 49.9333 173.362 45.8143 165.348C44.1807 162.164 42.6169 158.939 41.0391 155.728C40.0618 153.745 39.1402 151.748 38.1768 149.766C34.9515 143.147 31.8099 136.487 28.4449 129.939C25.3173 123.837 21.8686 117.903 18.7131 111.815C17.3308 109.163 16.7304 106.049 15.0688 103.619C13.1979 100.883 11.1873 97.7832 10.0563 95.1303C7.12418 88.2188 3.00523 82.0893 -0.569168 75.6107C-4.26923 68.9087 -8.65347 62.5837 -12.6607 56.0492C-15.6626 51.1623 -19.3906 46.82 -22.7835 42.2263C-26.5394 37.1579 -29.8067 31.545 -34.3305 27.2585C-41.8005 20.1656 -48.1953 11.7741 -57.5083 6.77551C-59.1 5.92379 -61.0548 5.26756 -62.8141 5.32341C-63.9031 5.35133 -64.9364 6.90117 -65.453 8.40912C-66.57 8.88385 -67.687 9.37253 -68.79 9.84726C-68.2315 10.5593 -67.4356 11.1877 -67.1843 11.9835C-66.9609 12.7235 -67.3379 13.6451 -67.4636 14.5526C-65.3971 15.1391 -62.7163 26.9653 -64.4197 29.8416C-60.4683 32.9273 -59.868 35.3009 -63.2329 38.2191C-59.7702 36.7949 -59.5189 38.3587 -58.7789 40.5508C-57.243 45.1445 -55.8747 49.9197 -52.5376 53.7175C-51.4346 54.9601 -52.1327 57.8923 -53.6686 58.9534C-49.061 59.2327 -49.2983 63.7286 -47.2877 66.2558C-46.5756 67.1634 -46.1009 68.3362 -45.7937 69.4672C-45.4726 70.6261 -45.4726 71.8827 -45.2632 73.6559C-42.8197 73.6559 -41.9401 76.4624 -40.851 79.0175C-39.2872 82.6618 -37.8072 86.3339 -36.1875 90.2434C-36.5924 90.4947 -37.5 91.0532 -38.3657 91.5838C-37.6396 93.4269 -33.5067 92.3936 -35.1543 95.8424C-34.2328 96.2613 -33.3113 96.6662 -31.8592 97.3084C-33.4788 97.7552 -34.4841 98.0345 -35.4755 98.2998C-35.5313 98.6209 -35.5871 98.9421 -35.629 99.2492C-30.8818 99.0258 -30.2814 102.572 -29.0527 105.658C-28.3685 107.361 -27.1259 108.841 -26.5674 110.573C-26.1345 111.899 -26.6093 113.491 -26.2602 114.859C-25.953 116.06 -25.0873 117.135 -24.3473 118.336C-23.6352 119.495 -22.7975 120.584 -22.253 121.813C-20.9125 124.856 -19.6559 127.956 -18.4691 131.07C-16.64 135.859 -14.7551 140.634 -13.2052 145.507C-12.563 147.518 -12.7166 149.78 -12.4652 152.53C-12.6328 152.418 -11.8509 152.935 -10.8316 153.619C-11.3343 153.996 -11.5716 154.192 -11.809 154.345C-12.4373 154.75 -13.0796 155.141 -13.7079 155.532C-13.1634 156.063 -12.6188 157.04 -12.0743 157.026C-8.51383 156.956 -10.8875 159.986 -9.79839 161.159C-12.3396 161.983 -10.2452 163.142 -10.0776 164.217C-9.7565 166.269 -8.34628 168.489 -11.0131 170.221C-11.4879 170.528 -11.1946 172.022 -11.2226 172.971C-11.2505 173.893 -11.4599 174.87 -11.2226 175.722C-9.82631 180.958 -16.8215 181.433 -16.9612 185.915C-16.9891 186.752 -18.7065 188.316 -19.5023 188.218C-22.6718 187.869 -23.0907 189.978 -23.342 191.262C-25.4923 192.435 -26.9723 193.426 -28.578 194.083C-30.812 194.976 -33.1437 195.632 -35.4336 196.372C-36.3551 196.666 -37.2627 197.029 -38.2121 197.154C-39.6921 197.336 -40.9767 200.575 -42.6661 197.462C-43.3503 197.88 -44.0205 198.662 -44.7047 198.662C-49.7033 198.69 -54.8415 199.305 -59.6585 198.313C-65.4669 197.126 -71.4289 195.591 -76.0924 191.276C-78.8151 188.763 -81.817 186.571 -84.6375 184.183C-85.0424 183.834 -85.168 183.15 -85.3914 182.619C-86.3828 180.343 -87.2624 178.012 -88.3655 175.806C-89.0775 174.382 -86.8296 171.1 -84.7631 170.793C-84.1767 170.709 -83.5903 170.681 -83.688 170.681C-82.7246 173.027 -81.9148 175.024 -81.1049 177.006C-82.0404 177.509 -82.8921 177.984 -83.7578 178.459C-82.9061 178.836 -81.9846 179.087 -81.2306 179.604C-80.4208 180.162 -79.7227 180.902 -79.0664 181.642C-77.3211 183.639 -75.4222 185.37 -73.0067 186.613C-72.3644 186.948 -72.4063 188.609 -72.2806 189.098C-56.88 195.242 -41.3397 195.144 -26.0787 187.283C-24.0262 185.216 -21.4571 182.647 -18.4831 179.659C-18.1619 178.668 -17.38 176.853 -17.003 174.954C-15.8581 169.271 -16.1653 163.575 -17.1985 157.892C-18.874 148.718 -21.3454 139.796 -25.0455 131.209C-27.6564 125.15 -30.2395 119.062 -32.6131 112.905C-34.6098 107.711 -35.7547 102.139 -38.2959 97.2526C-39.5804 94.7952 -41.1303 92.5472 -42.0378 89.8106C-42.8058 87.4788 -44.5371 85.4962 -45.696 83.2761C-48.5862 77.7749 -51.7278 72.3714 -54.1433 66.6607C-58.8627 55.5605 -63.2469 44.3067 -67.5892 33.039C-69.4881 28.1102 -71.8757 23.0698 -72.2946 17.9455C-72.5878 14.2455 -73.3558 10.2103 -71.1078 5.99361C-68.9715 1.94448 -66.6677 -0.65255 -62.3812 0.143313C-58.1506 0.925214 -54.1154 2.90789 -50.0802 4.59735C-49.5078 4.83472 -49.4938 6.39852 -49.2425 7.27816C-44.3696 4.91849 -45.333 14.1617 -40.0412 11.8579C-41.619 16.8425 -37.8351 15.6277 -35.7268 16.3259C-36.006 16.5772 -36.2853 16.8285 -36.5645 17.0798C-34.4283 19.5233 -32.3339 22.0086 -30.1278 24.3962C-29.3319 25.2619 -28.0614 25.7087 -27.3912 26.6442C-25.3666 29.4925 -24.1519 33.9326 -21.485 35.0496C-18.0782 36.4738 -18.5389 37.6047 -19.5163 39.9086C-19.6001 40.104 -19.4604 40.3972 -19.3906 40.9418C-15.6766 40.5229 -14.1826 42.366 -14.6015 46.0102C-14.6573 46.5268 -14.3641 47.546 -14.1826 47.56C-9.40744 47.8672 -9.18404 53.536 -4.60433 54.9881C-5.69341 55.4628 -6.14021 55.6722 -6.55908 55.8537C-2.59373 58.2553 5.82567 73.5582 4.34564 76.2669C5.21132 76.0016 5.86755 75.8062 6.23058 75.6945C7.54305 77.5654 8.77176 79.3387 9.95858 81.0561C9.05101 81.8101 8.15741 82.5501 6.85889 83.6252C10.6567 82.9689 14.7617 86.2641 15.39 90.6623C15.8508 93.9435 17.3447 96.5964 18.741 99.4168C19.3414 100.632 19.7742 101.916 20.612 104.024C23.5162 104.136 24.7868 106.398 23.1671 110.391C24.4237 110.922 25.5268 111.369 26.923 111.955C26.3087 112.625 25.8758 113.1 26.197 112.751C27.2442 115.055 28.068 116.898 28.4449 117.722C32.0752 124.41 35.2726 130.148 38.2746 135.985C38.7493 136.92 38.3444 138.302 38.3444 139.629C39.964 139.894 44.2086 145.339 44.1248 147.587C44.1109 148.104 44.4739 148.635 44.6415 149.165C45.926 152.921 46.9592 156.803 48.5928 160.405C49.4166 162.22 51.3435 163.519 52.7676 165.055C52.8514 165.138 52.9352 165.292 52.9212 165.39C52.265 169.076 55.1971 171.408 56.2862 174.437C56.3979 174.745 56.4258 175.317 56.5654 175.359C61.201 176.308 58.3387 178.612 57.3753 180.888C60.8799 179.841 61.8014 181.754 62.2063 184.602C62.3459 185.621 63.421 186.487 63.8958 187.506C64.3845 188.539 64.6497 189.67 65.3199 191.681C65.2082 191.639 66.1018 191.96 67.2328 192.351C66.9954 195.283 67.9728 197.392 70.4581 199.696C73.0971 202.139 73.9627 206.439 75.8616 209.79C76.7692 211.41 78.2632 212.695 79.4919 214.133C79.7292 214.412 80.204 214.789 80.1481 214.943C78.4168 219.076 83.2757 219.746 84.1135 222.566C85.9007 228.626 92.3653 231.502 94.5295 237.143C96.5262 242.393 101.622 244.487 104.597 248.648C106.09 250.743 108.101 252.474 109.595 254.568C110.014 255.155 109.469 256.439 109.372 257.389C112.332 256.928 119.173 261.661 119.955 264.314C126.811 266.897 133.262 271.058 140.759 266.143C140.885 265.878 141.374 264.733 141.932 263.63C143.929 259.623 146.512 255.783 147.797 251.566C148.802 248.271 148.09 244.487 148.425 240.941C148.592 239.126 150.184 237.143 149.751 235.649C148.816 232.466 150.044 229.883 150.603 226.992C151.175 223.976 150.84 220.807 150.938 217.707C150.994 216.06 151.203 214.412 151.217 212.764C151.217 211.871 150.98 210.963 150.812 209.86C151.161 209.623 152.404 209.232 152.488 208.646C153.214 204.205 153.717 199.737 154.289 195.283C154.666 195.2 155.029 195.102 155.406 195.018C155.699 195.646 156.006 196.261 156.565 197.462C156.9 192.561 160.181 189.168 164.663 188.777C168.908 188.4 173.097 189.07 176.992 190.913C177.579 191.192 177.816 192.184 178.235 192.854C181.265 191.067 187.296 194.208 187.59 197.88C188.316 197.601 189.307 196.861 189.824 197.099C191.681 197.992 193.538 199.039 195.06 200.394C196.344 201.539 197.14 203.214 198.117 204.596C199.193 204.694 201.036 204.317 202.069 205.057C204.387 206.719 205.978 209.804 208.464 210.726C211.912 212.01 214.118 213.616 214.803 217.274C219.466 217.54 230.217 227.034 229.924 231.181C234.434 228.668 235.705 233.024 237.869 235.035C240.284 237.269 241.583 240.927 244.208 242.672C247.056 244.571 248.746 247.294 251.133 249.304C253.884 251.636 253.702 253.493 252.529 256.09L252.543 256.118H252.487Z" fill="#E1F8DE"/>
<path d="M256.956 257.933C258.073 258.031 259.19 258.129 260.21 258.226C260.852 259.846 261.466 261.382 261.843 262.317C261.131 263.462 260.559 264.356 260.098 265.11H266.367C265.25 266.422 264.608 267.33 263.798 268.07C263.365 268.461 262.234 268.894 262.137 268.754C259.986 265.878 255.825 264.635 255.295 260.46C255.853 259.623 256.398 258.785 256.956 257.933Z" fill="#E1F8DE"/>
<path d="M267.678 267.721C268.53 269.955 269.032 271.267 269.619 272.761H272.216C271.853 273.837 271.546 274.716 271.253 275.596C270.638 275.372 269.647 275.317 269.465 274.898C268.6 272.915 264.662 272.091 267.678 267.721Z" fill="#E1F8DE"/>
<path d="M256.955 257.933C256.397 258.771 255.852 259.609 255.294 260.46C254.232 259.846 253.171 259.232 251.607 258.324C252.78 257.696 253.353 257.403 254.218 256.942C253.576 256.635 253.046 256.383 252.515 256.132C252.515 256.132 252.501 256.104 252.487 256.104C253.618 255.322 254.763 254.54 255.88 253.786C256.229 255.127 256.592 256.537 256.969 257.961L256.955 257.933Z" fill="#E1F8DE"/>
</svg>
