<svg width="16" height="11" viewBox="0 0 16 11" fill="none" xmlns="http://www.w3.org/2000/svg">
<path d="M15.92 5.11915C15.8724 4.9964 15.801 4.88425 15.71 4.78915L11.71 0.789148C11.6168 0.695909 11.5061 0.621949 11.3842 0.571488C11.2624 0.521028 11.1319 0.495056 11 0.495056C10.7337 0.495056 10.4783 0.600844 10.29 0.789148C10.1017 0.977452 9.99591 1.23285 9.99591 1.49915C9.99591 1.76545 10.1017 2.02084 10.29 2.20915L12.59 4.49915H1C0.734784 4.49915 0.48043 4.6045 0.292893 4.79204C0.105357 4.97958 0 5.23393 0 5.49915C0 5.76436 0.105357 6.01872 0.292893 6.20625C0.48043 6.39379 0.734784 6.49915 1 6.49915H12.59L10.29 8.78915C10.1963 8.88211 10.1219 8.99271 10.0711 9.11457C10.0203 9.23643 9.9942 9.36714 9.9942 9.49915C9.9942 9.63116 10.0203 9.76186 10.0711 9.88372C10.1219 10.0056 10.1963 10.1162 10.29 10.2091C10.383 10.3029 10.4936 10.3773 10.6154 10.428C10.7373 10.4788 10.868 10.5049 11 10.5049C11.132 10.5049 11.2627 10.4788 11.3846 10.428C11.5064 10.3773 11.617 10.3029 11.71 10.2091L15.71 6.20915C15.801 6.11404 15.8724 6.0019 15.92 5.87915C16.02 5.63569 16.02 5.36261 15.92 5.11915Z" fill="white"/>
</svg>
