<svg width="131" height="205" viewBox="0 0 131 205" fill="none" xmlns="http://www.w3.org/2000/svg">
<path d="M93.3034 -26.0434C94.1422 -24.1758 95.2873 -22.7614 97.5773 -22.5777C98.2325 -22.5226 98.8999 -21.8429 99.4449 -21.3225C102.121 -18.8059 104.711 -16.2036 107.423 -13.7237C109.003 -12.2787 110.864 -11.1275 112.365 -9.60286C113.332 -8.63541 113.632 -6.96381 114.642 -6.0882C115.959 -4.95543 116.002 -3.01439 117.771 -2.10206C118.671 -1.64283 118.837 0.151243 119.48 1.24727C119.81 1.79835 120.484 2.14125 120.484 2.75356C121.102 4.27821 121.819 5.77837 122.315 7.33977C123.147 9.98495 123.839 12.6852 124.58 15.361C124.899 16.4999 125.254 17.6388 125.474 18.8022C126.16 22.4148 126.546 26.0581 126.295 29.7381C126.282 29.9463 126.142 30.1483 125.811 31.0056C126.509 30.6504 126.901 30.4422 127.25 30.2647C126.962 31.2015 126.576 31.8689 126.576 32.5302C126.582 34.6917 126.944 36.8776 126.766 39.0146C126.472 42.3823 125.872 45.7255 125.364 49.0748C125.174 50.2811 125.842 51.6833 124.439 52.6691C124.225 52.8222 124.672 53.9304 124.874 54.8795C124.862 54.8918 124.274 55.1979 124.201 55.6021C123.705 58.2411 123.447 60.9353 122.847 63.556C122.468 65.2215 121.531 66.7583 121.029 68.4116C120.361 70.6588 120.025 73.0162 119.271 75.2266C118.561 77.3085 117.557 79.3046 116.534 81.2579C115.885 82.4947 114.808 83.5112 114.189 84.7541C112.738 87.6626 111.44 90.6507 110.019 93.749C110.436 93.8469 110.969 93.9633 111.942 94.1776C110.668 94.3735 109.86 94.496 109.077 94.6185C109.113 97.0187 105.776 97.8453 105.635 100.742L102.696 103.681C102.923 103.907 103.192 104.177 103.192 104.177C102.133 105.236 101.116 106.216 100.143 107.226C98.3304 109.124 96.7446 111.322 94.6627 112.841C93.6157 113.606 93.7198 114.543 93.1564 115.217C92.1767 116.38 90.8419 117.298 89.5377 118.113C87.9947 119.08 86.2986 119.797 84.7372 120.721C84.5045 120.856 84.6086 121.572 84.5412 122.264C84.4371 122.27 84.033 122.185 83.7758 122.332C81.0939 123.936 80.702 121.572 79.508 120.133C78.1548 118.511 76.3363 117.268 74.6953 115.896C73.6482 115.021 72.6134 114.096 71.4562 113.392C70.8377 113.018 69.9744 113.073 68.7742 112.853C67.9109 111.022 65.8229 111.628 63.9431 111.99C62.3389 112.296 60.8203 113.092 59.2161 113.398C56.4484 113.912 59.0997 116.956 57.3057 117.684C57.4771 118.248 57.7404 118.829 57.82 119.435C57.9425 120.366 57.6118 121.542 58.0649 122.191C59.1487 123.752 60.5509 125.118 61.8919 126.483C62.9144 127.53 64.0411 127.947 64.6901 126.918C66.0862 127.591 67.3108 128.51 68.6457 128.73C70.4826 129.036 72.4297 129.012 74.2789 128.779C76.5751 128.491 78.8345 127.849 81.296 127.322C81.6572 128.247 81.3327 130.016 83.2125 130.353C83.2554 130.359 83.1084 131.069 83.1758 131.418C83.4023 132.563 83.6901 133.696 83.9473 134.835C84.1065 135.533 84.4126 136.243 84.3698 136.935C84.1922 139.733 83.9412 142.519 83.6411 145.305C83.5003 146.597 83.1941 147.871 82.9308 149.334C82.888 149.316 83.3227 149.555 83.335 149.555C82.6737 150.645 82.0063 151.582 81.5225 152.604C81.2409 153.192 81.1613 153.908 81.1551 154.576C81.1368 155.513 81.6327 156.486 79.8877 156.492C79.1284 156.492 79.0917 158.342 79.8081 159.315C77.1445 160.889 73.8809 165.744 74.6647 166.675C73.8258 168.775 71.401 169.069 70.3601 171.396C69.3008 173.766 66.5026 175.352 64.3227 177.421C64.2554 177.293 64.5003 177.782 64.8432 178.456C64.0227 178.676 63.343 178.866 62.5593 179.074C62.7185 179.368 62.8838 179.681 63.2879 180.415C62.5777 179.926 62.198 179.668 62.1429 179.625C59.4426 181.677 56.8464 183.648 53.6257 186.085C51.6663 186.196 48.7823 186.385 46.7433 189.049C46.2045 188.877 45.5003 188.651 44.7962 188.437C44.7288 188.577 44.6553 188.712 44.588 188.853C44.9248 189.067 45.2615 189.282 46.1004 189.827C44.8941 189.882 44.1594 189.857 43.4368 189.967C41.0488 190.323 38.4159 190.212 36.334 191.217C33.0827 192.79 29.2435 190.874 26.3228 193.353C24.8226 191.939 22.6612 193.378 20.9467 191.884C19.171 190.329 16.783 189.459 14.5664 188.235C14.9889 187.555 15.3502 186.961 15.6992 186.404C16.2074 186.716 16.7217 187.022 17.2361 187.341C17.4443 186.63 17.6586 185.926 17.7504 185.602C19.0179 185.253 20.2976 185.075 21.3998 184.524C21.8774 184.291 21.9754 183.312 22.2999 182.558C22.4407 182.638 22.9367 182.914 23.5551 183.263C22.851 180.452 22.9061 180.385 25.9003 179.717C26.0105 178.321 26.1146 177.054 26.2677 175.186C24.5165 175.137 21.7243 174.292 20.7936 175.247C19.6486 176.429 18.5219 176.246 17.4259 176.742C17.1565 176.864 16.7279 177.146 16.7401 177.329C16.9544 179.944 14.3092 179.503 13.1581 180.189C11.1375 181.389 9.58221 182.871 7.68405 184.499C4.9409 182.393 2.68147 185.975 0.244481 185.596L3.13458 188.486L4.27348 187.347C4.44492 187.408 4.6225 187.475 4.79395 187.537C4.57964 188.204 4.52453 188.994 4.11428 189.514C3.06723 190.831 3.29379 192.943 4.72659 193.813C4.92253 193.935 5.22256 193.978 5.32666 194.143C6.62475 196.348 8.98215 197.236 10.9232 198.625C11.6518 199.146 12.4539 199.581 13.2622 199.96C15.4604 200.971 17.6831 201.907 19.8874 202.899C20.1874 203.028 20.4323 203.285 20.7263 203.444C22.2632 204.295 23.5857 205.728 25.6309 204.051C26.3656 203.45 27.9699 203.916 29.1884 203.897C30.2538 199.93 26.3901 198.111 25.1716 195.203C26.482 195.411 27.8719 195.87 29.2435 195.784C31.4111 195.65 33.5603 195.129 35.7217 194.805C37.2586 194.578 38.8445 194.56 40.3263 194.168C41.1713 193.947 41.7897 192.986 42.6347 192.655C43.5042 192.313 44.5329 192.411 45.4575 192.184C47.1291 191.774 50.1722 191.302 50.1784 190.794C50.2457 188.29 51.6051 189.943 52.3643 189.759C52.6092 189.698 52.7195 189.098 52.9154 188.682C55.4504 189.086 56.277 188.577 56.3994 186.238C57.4098 186.343 58.4201 186.447 59.6324 186.569C59.5284 185.669 59.4426 184.983 59.314 183.899C60.1223 184.365 60.6183 184.64 61.4326 185.112C61.2979 184.181 61.2245 183.618 61.1449 183.097C61.898 182.944 62.7491 182.999 63.3002 182.62C64.5677 181.744 65.6759 180.648 66.8638 179.668C67.0659 179.503 67.4149 179.509 67.5986 179.338C68.9641 178.082 70.3846 176.858 71.597 175.462C71.8725 175.137 71.4133 174.164 71.2908 173.49C72.044 173.668 72.6747 173.821 73.4584 174.004C73.2196 173.349 74.1136 172.357 76.4955 170.282L75.1668 168.953C75.2525 168.855 75.326 168.757 75.4117 168.659C75.7668 168.843 76.1158 169.033 76.5996 169.284C76.5383 168.292 76.4771 167.434 76.4159 166.418C77.1935 166.534 77.7201 166.62 78.3079 166.706C78.3079 166.706 78.3691 166.669 78.4365 166.626C76.3301 163.405 80.9776 164.93 80.849 163.185C80.7878 162.315 80.4387 161.477 80.1142 160.185C81.4858 160.785 81.8716 160.95 82.4777 161.213C82.092 159.995 81.7797 159.021 81.4674 158.035C82.3185 157.993 83.0411 157.956 84.1126 157.901L82.7349 156.523C84.9209 156.26 85.5577 154.166 84.4188 151.386C85.1719 150.951 85.925 150.529 86.5557 150.167C86.2557 148.63 85.9373 147.002 85.5332 144.956C87.517 142.397 87.7069 135.851 85.4903 133.414C85.8638 133.114 86.2373 132.814 86.8558 132.318C86.0108 131.963 85.4413 131.724 84.7249 131.424C85.2148 131.18 85.5515 131.002 86.2251 130.659C85.2393 129.955 84.4555 129.404 83.9228 129.018C83.8371 127.23 83.7575 125.632 83.6718 123.918C84.8045 124.181 85.5699 124.358 86.9599 124.683C86.2373 123.544 85.9067 123.017 85.576 122.491C85.6801 122.387 85.7903 122.289 85.9006 122.191C86.2863 122.454 86.6537 122.883 87.0701 122.944C87.7314 123.042 88.76 123.164 89.0417 122.809C89.7336 121.946 89.8438 120.525 90.6337 119.858C91.5216 119.105 92.887 118.927 94.7056 118.26L101.055 111.91C100.927 111.72 100.596 111.255 99.9531 110.343C100.694 110.679 100.976 110.802 101.453 111.022C101 109.369 101.692 108.812 103.137 107.991C105.348 106.724 106.695 104.164 109.034 102.817C109.217 102.707 109.113 101.978 109.04 101.55C108.758 99.9823 109.719 98.9353 110.693 98.0596C111.771 97.0922 113.614 96.8779 113.363 94.7532C113.326 94.447 114.238 94.0245 114.844 93.553L113.448 92.157C114.526 91.4222 115.457 90.7854 116.51 90.0751C115.836 89.475 115.377 89.0648 114.379 88.1647C115.634 88.3545 116.204 88.4341 116.767 88.5199C116.834 87.9382 116.902 87.3687 116.975 86.7197C118.629 86.2788 118.175 85.0419 117.624 83.5969C119.865 84.4908 119.835 82.2804 119.682 81.6497C119.265 79.8863 119.988 79.4087 121.298 79.3474C121.488 78.3984 121.641 77.584 121.843 76.5859C121.868 76.5859 122.376 76.5063 122.896 76.4267C122.909 76.3043 122.921 76.1818 122.921 76.0593C122.364 75.8573 121.806 75.6552 121.084 75.398C123.46 74.3449 123.38 71.7426 122.927 69.3178C123.668 69.3362 124.421 69.3545 125.168 69.379C124.813 68.3381 124.464 67.2911 124.096 66.2134C125.872 64.6949 126.638 62.0681 125.731 60.5618C126.785 59.7168 128.542 59.1841 126.858 57.3778C128.75 57.0655 128.756 56.8512 126.803 53.808C127.158 53.4528 127.544 53.0793 127.917 52.6936C128.236 52.3629 128.523 52.0139 128.879 51.6098C128.211 51.2485 127.574 50.9056 126.57 50.3668C127.452 50.2688 127.96 50.2137 128.75 50.1219C128.474 49.1483 128.028 48.2605 128.034 47.3726C128.04 46.4603 128.248 45.3581 128.793 44.6662C129.809 43.3681 129.932 41.2495 129.252 40.5576C129.742 39.1738 130.103 38.139 130.471 37.098C128.713 36.6878 130.091 35.9836 130.262 35.3346C130.373 34.8937 130.415 34.1406 130.171 33.9446C128.389 32.5669 128.964 31.1219 129.681 29.438C129.981 28.7461 129.448 27.7358 129.442 26.8724C129.436 26.2418 129.675 25.6111 129.907 24.4845L128.658 23.2353C129.093 23.1802 129.485 23.1312 130.109 23.0455C129.479 21.9372 128.793 20.9086 128.315 19.7942C128.083 19.2431 128.26 18.5144 128.236 17.8654C128.211 17.2408 128.193 16.6224 128.107 16.0101C128.04 15.4896 127.801 14.9814 127.801 14.4548C127.801 13.8792 126.625 11.6872 126.387 11.13C126.007 10.2237 124.47 9.75227 125.554 8.16638C126.423 6.89278 125.07 4.82929 123.239 4.05165C123.594 3.65978 123.931 3.27402 124.133 3.04747C119.792 -2.43271 116.963 -8.76399 111.55 -13.5645C106.535 -18.0037 102.28 -23.337 95.9057 -26.8578C95.6118 -26.821 94.6811 -26.6986 93.7626 -26.5761C93.6279 -26.4046 93.4932 -26.2332 93.3524 -26.0679L93.3034 -26.0434ZM60.0856 121.97C60.2509 119.846 60.4284 117.611 60.5999 115.517C61.4449 115.321 62.1919 115.149 62.9389 114.978C62.7858 114.543 62.6328 114.096 62.4736 113.643C64.9718 114.353 67.4455 115.051 69.9193 115.749L70.7949 114.874C71.695 115.774 72.3501 116.551 73.1278 117.17C74.0034 117.874 75.1851 118.284 75.8709 119.117C77.1445 120.672 78.161 122.436 79.2815 124.12C78.6875 124.554 77.7936 125.216 76.7526 125.987C76.6547 125.926 75.7485 125.314 75.724 125.35C74.5789 126.899 73.2686 125.503 72.0807 125.601C71.3888 125.656 70.6295 125.62 70.005 125.865C68.6028 126.422 67.47 126.061 66.2454 125.314C64.3044 124.132 62.2593 123.128 60.1039 121.964L60.0856 121.97ZM24.9757 201.901C21.1855 200.132 17.6769 198.497 14.0337 196.801C14.0582 195.907 14.0888 194.958 14.1317 193.776C15.0318 194.799 15.5951 195.986 16.4217 196.213C17.3769 196.47 18.5648 195.882 20.1078 195.576C20.365 198.209 25.3431 197.75 24.9818 201.907L24.9757 201.901ZM11.7743 186.594C11.6579 186.416 11.5416 186.251 11.4253 186.073C12.6315 184.548 13.8316 183.018 14.7501 181.854C15.6747 181.542 16.4156 181.499 16.8565 181.107C18.2035 179.907 19.4404 178.585 20.5977 177.427C22.006 179.583 20.8671 180.979 19.1832 182.111C17.383 183.324 15.5277 184.457 13.6786 185.596C13.0663 185.975 12.3988 186.263 11.762 186.594L11.7743 186.594ZM12.1539 190.647C13.5622 191.345 14.9522 192.025 16.9116 192.992C14.4011 192.747 12.4846 192.557 10.4517 192.349L12.1539 190.647Z" fill="white"/>
</svg>
