<svg width="225" height="69" viewBox="0 0 225 69" fill="none" xmlns="http://www.w3.org/2000/svg">
<path d="M199.588 43.7085C199.069 43.2824 198.551 42.8491 197.784 42.217C197.741 42.2099 197.059 42.2809 196.818 41.9897C195.149 40.0011 192.187 39.298 191.342 36.4854C191.271 36.2439 190.809 36.1445 190.681 35.8959C190.248 35.0507 189.325 33.7865 189.609 33.3817C190.341 32.3163 191.647 31.9115 193.068 32.4229C194.566 32.9698 196.136 33.3462 197.613 33.9357C198.11 34.1345 198.437 34.7595 199.091 35.4556C200.554 35.832 202.486 36.3292 204.496 36.8476C204.226 37.2667 204.048 37.5366 204.19 37.3235C212.159 42.5721 220.348 47.2668 225 56.1589C224.226 55.8961 223.452 55.6476 222.678 55.3777C222.443 55.2995 222.159 55.2214 222.024 55.051C221.655 54.5822 221.356 54.0566 220.874 53.6518C220.781 54.845 219.808 56.443 218.949 57.1888C218.395 57.6717 218.203 58.5595 217.685 59.1135C217.251 59.5752 216.598 59.8308 216.023 60.1505C215.525 60.4274 214.957 60.605 214.503 60.9459C214.027 61.3081 213.65 61.8053 213.217 62.2599C212.663 61.8053 212.223 61.4502 211.754 61.0667C211.804 62.5653 211.804 62.5226 210.476 62.615C210.199 62.6363 209.815 63.0127 209.716 63.3039C209.318 64.4616 209.346 64.4687 208.246 63.4886C208.082 64.213 207.947 64.8025 207.812 65.392C207.699 65.2499 207.578 65.1079 207.464 64.9658C207.123 65.2499 206.818 65.5838 206.442 65.811C205.923 66.1306 205.376 66.4502 204.801 66.6207C204.062 66.8409 202.905 66.2798 202.926 67.7784C202.926 67.8636 202.116 68.1477 201.995 68.027C200.745 66.7698 198.828 69.071 197.734 67.2031C197.478 67.4162 197.216 67.6363 196.775 68.0057C196.406 66.8622 195.937 65.8252 195.774 64.7386C195.703 64.2627 196.228 63.6945 196.498 63.1761C196.591 62.9985 196.839 62.7783 196.797 62.6789C196.03 61.0809 197.322 60.5198 198.167 59.6249C198.963 58.7868 199.439 57.6575 200.113 56.6987C200.341 56.3791 200.753 56.2015 201.051 55.9246C201.378 55.6121 201.676 55.264 201.981 54.9373C201.584 54.6177 201.228 54.1703 200.767 54.0069C199.559 53.5737 198.309 53.2683 197.074 52.899C194.787 52.21 192.507 51.4785 190.206 50.8322C188.97 50.4842 187.308 50.6901 186.519 49.9302C185.085 48.5452 183.117 49.4756 181.555 48.0552C180.213 46.8335 177.684 46.9401 175.688 46.4074C174.19 46.0097 172.698 45.5764 171.228 45.0935C169.033 44.369 166.867 43.5523 164.673 42.8207C162.577 42.1247 160.454 41.5068 158.359 40.8107C154.701 39.5891 151.185 37.8633 147.251 37.5934C146.043 35.3561 143.38 36.2439 141.512 35.0081C139.949 33.9783 137.478 33.2894 135.098 33.1899C133.209 33.1118 131.334 31.7979 129.523 30.8817C128.017 30.1217 126.554 29.5606 124.8 29.4541C123.436 29.3689 122.122 28.4527 120.78 27.92C118.372 26.9754 115.951 26.0592 113.543 25.0932C110.844 24.0066 108.181 22.8205 105.453 21.7978C103.543 21.0804 101.533 20.6259 99.608 19.9298C98.3083 19.4611 97.1009 18.7366 95.8224 18.1969C94.3025 17.5577 92.7613 16.9895 91.2201 16.4142C89.7215 15.8602 88.2229 15.292 86.703 14.809C83.997 13.9497 81.2484 13.2394 78.5708 12.3019C76.085 11.4283 73.6773 10.3275 71.2128 9.38285C70.8009 9.2266 70.2682 9.41836 69.8349 9.29762C68.2298 8.85017 66.6176 8.40272 65.0551 7.82743C64.1104 7.47942 62.7255 6.30043 62.4414 6.54901C61.3547 7.47942 60.5096 6.75498 59.6289 6.53481C57.6615 6.04474 55.7226 5.41263 53.7694 4.85155C53.2083 4.68819 52.633 4.56745 52.0578 4.43961C51.4683 4.31177 50.8788 4.20524 50.2893 4.07739C49.1174 3.82171 47.9455 3.59443 46.7878 3.28903C45.7722 3.01914 44.6145 3.45239 43.7125 2.35152C43.4071 1.9822 42.0861 2.2876 41.2977 2.52198C40.7011 2.69954 40.3531 2.41544 39.8985 2.34442C38.4497 2.12425 36.9369 2.2805 35.4454 2.31601C35.3317 2.31601 35.2252 2.50777 35.1186 2.61431C34.1385 0.540422 33.0519 2.96943 31.8942 2.57169C31.12 2.30891 30.0618 2.8842 28.897 3.13278C30.0618 4.68819 31.2976 6.24361 32.4127 7.88425C32.6825 8.28198 32.5689 8.9496 32.647 9.64564C32.8601 9.61723 33.2436 9.57461 33.755 9.51779C33.5277 9.99365 33.336 10.4127 33.2862 10.505C33.9112 10.8601 34.5292 11.0448 34.9056 11.4567C35.7721 12.4084 36.9226 13.0761 37.711 14.0278C39.6713 16.4071 41.2267 19.1415 43.3148 21.3787C44.373 22.508 45.1188 23.1401 43.606 24.6245C44.579 24.8163 45.275 24.9512 46.1628 25.1217C45.9071 25.4484 45.7083 25.7041 45.5094 25.9526C46.8588 26.9683 46.873 27.2453 45.552 28.8362C45.9071 28.9214 46.2338 28.9924 46.6031 29.0848C46.1557 29.5677 45.623 29.937 45.41 30.4413C45.2679 30.7822 45.5804 31.3078 45.7154 31.8618C45.0832 31.7268 44.4866 31.599 44.0534 31.5067C43.2437 32.3518 43.4639 33.8931 41.6102 33.6658C40.8076 33.5664 39.9269 34.582 39.0036 34.8448C38.1585 35.0863 37.2138 34.9655 36.3189 35.0365C34.9979 35.1502 33.684 35.2993 32.2422 35.4414C32.2422 35.413 32.2067 35.761 32.1499 36.3079C31.6953 35.9669 31.3757 35.5479 31.0277 35.5124C29.5788 35.3846 28.1086 35.4414 26.6598 35.3064C25.3742 35.1928 24.11 34.9016 22.8316 34.724C22.5475 34.6885 22.1995 34.724 21.958 34.8661C20.9779 35.4272 20.1824 34.9655 19.2378 34.6672C17.8883 34.2411 16.4111 34.2269 14.9906 34.0351C13.6909 33.8575 12.384 33.7013 11.0843 33.5024C9.96212 33.332 8.82574 33.1757 7.72488 32.9129C7.29164 32.8064 6.92232 32.4087 6.73766 32.2808C5.98481 32.4371 5.3527 32.572 4.72059 32.6999C4.74189 32.4655 4.7561 32.2311 4.74189 32.3803C2.02169 31.9115 -0.73402 31.4427 -3.48973 30.9669C-3.52524 31.1302 -3.55365 31.2865 -3.58916 31.4499C-3.90167 31.0095 -4.22127 30.5763 -4.33491 30.42C-6.99829 30.0152 -9.4486 29.6743 -11.8776 29.241C-12.5381 29.1203 -13.1418 28.7083 -13.8165 28.4171C-13.8165 28.4171 -13.8592 28.6941 -13.9018 28.964C-13.9444 28.9995 -13.9941 29.0351 -14.0367 29.0706C-14.5907 27.5862 -16.3734 28.9001 -16.7995 28.0833C-17.9146 25.9526 -20.1874 27.4157 -21.8138 26.2012C-22.936 25.3631 -24.7755 25.0435 -26.0468 23.8219C-26.9133 22.991 -28.213 22.6287 -29.1505 21.8475C-30.5142 20.7111 -31.7216 19.383 -33 18.1329C-32.8864 17.9838 -32.7656 17.8346 -32.652 17.6855C-32.375 17.8204 -32.098 17.9483 -31.7642 18.1116C-31.6719 17.6926 -31.5795 17.2878 -31.4943 16.89C-28.1704 19.3545 -24.8678 21.812 -21.2172 24.518H-17.4387C-17.8933 25.1359 -18.1206 25.4484 -18.1987 25.5549C-17.4387 25.6827 -16.6362 25.7751 -15.8478 25.9526C-13.3904 26.5066 -10.9543 27.1387 -8.48978 27.6501C-7.50256 27.8561 -6.45141 27.7566 -5.45708 27.9413C-4.07923 28.197 -2.72978 28.5805 -1.37323 28.9143C-1.15306 28.964 -0.932884 29.0137 -0.712711 29.0493C1.65947 29.3973 4.04586 29.6388 6.38964 30.1217C8.28596 30.5123 10.1042 31.251 11.9792 31.7197C12.6752 31.8973 13.4494 31.7055 14.1809 31.7624C16.0844 31.9115 18.1014 31.7766 19.8699 32.3519C22.7677 33.2965 25.7364 32.8277 28.6555 33.2041C31.0632 33.5166 33.6343 32.8135 36.1059 32.4229C37.7891 32.153 39.4653 31.7553 41.0704 31.1942C43.2934 30.42 44.0747 27.1529 42.704 25.143C40.8716 22.4583 39.3587 19.5108 37.1925 17.1386C36.3474 16.2082 35.6229 14.6528 33.9965 14.3758C33.7479 14.3332 33.7124 13.5022 33.407 13.3033C31.6598 12.1528 30.6655 10.2919 29.3444 8.78625C27.9169 7.15981 27.3558 4.76632 26.4254 2.70664C27.8032 1.85436 29.0888 0.604343 30.5802 0.249226C32.4198 -0.19112 34.4297 0.0787694 36.3687 0.114281C38.89 0.156895 41.4184 0.227919 43.9398 0.362863C44.9767 0.419682 45.9995 0.639855 47.0293 0.824516C47.5549 0.916847 48.0591 1.11571 48.5847 1.22225C49.4867 1.39981 50.4242 1.46373 51.3049 1.71941C52.0435 1.93248 52.7254 2.35152 53.0592 2.50777C54.6004 2.6001 55.9285 2.47936 57.143 2.78477C59.7993 3.45949 62.413 4.32597 65.0267 5.16405C67.9954 6.11577 70.9429 7.14561 73.9046 8.11153C74.7782 8.39562 75.6802 8.58028 76.5751 8.9283C77.5836 9.21949 78.5921 9.51069 79.5936 9.80189C80.9714 10.1996 82.7186 10.2067 83.649 11.0803C85.1902 12.5292 87.0937 12.0533 88.713 12.7636C90.3465 13.4809 91.9517 14.3119 93.6491 14.8446C95.2614 15.3488 96.8239 16.1443 98.5853 16.1301C98.7628 16.1301 99.054 16.1514 99.1037 16.2579C99.8566 17.7352 101.22 17.6074 102.548 17.6713C102.698 17.6784 102.811 18.3673 102.896 18.6088C106.824 19.9156 110.823 21.2509 114.807 22.6145C114.85 22.6287 114.743 23.0549 114.743 23.062C116.526 23.6302 118.252 24.1841 119.985 24.7381C120.02 24.6103 120.056 24.4824 120.091 24.3546C120.78 24.6387 121.469 24.9228 122.158 25.2069C124.608 26.2012 127.009 27.3802 129.53 28.1331C131.49 28.7154 133.088 30.3064 135.326 30.1359C135.759 30.1004 136.242 30.6331 136.696 30.903C136.973 31.0663 137.236 31.3149 137.535 31.4001C139.054 31.8263 140.581 32.2098 142.108 32.6288C142.272 32.6715 146.988 34.3973 147.151 34.4541C149.481 35.2141 151.817 35.974 154.14 36.7624C155.326 37.1672 156.484 37.6644 157.677 38.055C159.715 38.7227 161.789 39.2624 163.799 40.0082C164.879 40.4059 165.845 41.1161 166.867 41.6843C167.073 41.798 167.443 42.011 167.506 41.94C168.877 40.6261 169.921 41.9826 171.086 42.3378C174.467 43.3747 177.862 44.3761 181.242 45.4344C181.761 45.5977 182.208 45.9955 182.911 46.4216C183.039 46.3648 183.48 46.1588 183.92 45.9529C183.892 46.1091 183.863 46.2654 183.835 46.4216C185.042 46.6915 186.683 46.5637 187.365 47.3094C188.913 48.9998 191.051 48.2824 192.741 49.1844C193.572 49.6248 194.687 49.4969 195.646 49.7526C195.966 49.8378 196.186 50.2995 196.235 50.3492C198.224 50.818 200.22 51.0523 202.017 51.7839C203.295 52.3024 205.653 52.0609 206.513 50.6333C206.754 50.8961 206.967 51.1305 207.344 51.5495C207.386 51.0737 207.308 50.7114 207.457 50.4913C208.622 48.7654 208.189 48.2682 205.98 47.6787C204.403 47.2668 202.983 46.2227 201.541 45.3776C200.838 44.9585 200.248 44.3406 199.609 43.8079L199.659 43.7085L199.538 43.6659L199.588 43.7085ZM198.43 63.3394C199.872 65.74 199.914 65.8323 202.294 64.6107C203.693 63.8934 204.836 62.686 206.221 61.9331C208.409 60.7542 210.717 59.7953 212.94 58.6803C213.253 58.524 213.587 57.9984 213.551 57.6788C213.523 57.4018 213.018 57.0467 212.67 56.9615C211.079 56.5709 209.481 56.095 207.862 55.9814C206.882 55.9174 205.824 56.3933 204.858 56.7697C204.069 57.0751 203.366 57.5794 202.628 57.9984C202.017 59.0993 201.321 60.3635 200.717 61.4644C200.049 61.3863 199.495 61.3294 198.984 61.2655C199.261 62.0113 199.474 62.5795 199.687 63.1405C199.318 63.1974 198.941 63.2613 198.437 63.3394H198.43ZM197.826 39.8164C198.736 40.2639 200.071 40.9244 201.456 41.6062C201.193 41.9542 201.022 42.1744 201.065 42.1176C201.889 42.7071 202.585 43.3463 203.395 43.744C204.957 44.5182 206.754 44.9301 208.153 45.9102C210.76 47.7355 211.065 47.8492 213.579 45.7824C212.599 45.3349 210.937 45.0935 210.639 44.3193C210.071 42.8633 209.332 43.0977 208.679 43.3392C207.457 41.4429 205.106 41.2937 204.069 40.1289C202.471 38.332 200.454 38.3533 198.686 37.4726C197.003 36.6346 195.262 35.903 193.551 35.1289L193.359 35.626C194.147 36.3576 194.936 37.082 195.717 37.8136C196.321 38.3817 196.917 38.9499 197.826 39.8093V39.8164ZM208.53 53.7086C211.619 54.1774 214.673 54.639 217.727 55.0936C217.798 54.8663 217.869 54.639 217.94 54.4118C215.817 52.3095 213.295 50.9813 210.568 50.7825C209.851 51.8052 209.297 52.6078 208.523 53.7086H208.53ZM220.533 53.3535C220.17 50.1574 217.372 50.0935 215.469 48.9003C215.845 49.6177 216.335 50.3634 216.989 50.5623C217.77 50.8038 218.523 50.5197 218.416 51.8904C218.381 52.3166 219.787 52.8634 220.533 53.3535Z" fill="white"/>
<path d="M199.588 43.7085L199.709 43.7582L199.652 43.8576L199.588 43.7085Z" fill="white"/>
</svg>
