<svg width="131" height="173" viewBox="0 0 131 173" fill="none" xmlns="http://www.w3.org/2000/svg">
<path d="M111.863 152.254C112.014 153.091 112.164 153.913 112.347 154.893C112.353 154.89 112.153 155.108 111.967 155.093C109.37 154.954 106.775 154.83 104.181 154.609C103.404 154.539 102.638 154.229 101.892 153.956C97.9628 152.508 93.9836 151.185 90.1594 149.508C88.1683 148.637 86.466 147.134 84.6185 145.931C84.2071 145.662 83.7786 145.306 83.322 145.257C81.6753 145.065 80.7421 143.919 79.7844 142.786C79.5826 142.544 79.5196 142.062 79.298 141.985C75.9826 140.934 74.2875 137.572 71.1136 136.271C70.1629 135.879 69.476 134.739 68.7768 133.848C67.355 132.04 64.7613 131.405 63.9785 128.967C63.9076 128.756 63.6576 128.558 63.4439 128.453C60.1732 126.866 58.4926 123.602 55.9214 121.279C55.2928 120.713 54.0077 120.259 54.4838 118.743C54.5677 118.477 52.8033 117.72 51.9994 117.059C51.6371 116.762 51.5327 116.15 51.316 115.682C51.4683 115.579 51.6241 115.483 51.7826 115.377C50.2765 113.948 48.7642 112.522 47.2608 111.084C47.125 110.958 46.9702 110.771 46.955 110.601C46.7429 108.042 44.6027 106.609 43.4883 104.585C43.2834 104.224 43.2378 103.772 43.144 103.364C43.0451 102.918 43.1453 102.238 42.8769 102.05C41.2859 100.928 40.5199 99.42 40.295 97.5238C40.2374 97.0222 39.8005 96.5657 39.5733 96.0792C38.9162 94.6628 38.4665 93.1126 37.5904 91.8527C36.445 90.2032 37.2677 87.956 35.6003 86.4566C35.0247 85.941 35.1679 84.6943 34.8451 83.8249C34.5553 83.0422 34.024 82.3477 33.7219 81.5719C33.5946 81.2474 33.7918 80.7956 33.8404 80.3958C33.7488 80.0915 33.5826 79.6839 33.5037 79.2591C33.4377 78.8999 33.5824 78.4698 33.4402 78.1619C32.5335 76.1908 31.5364 74.3033 32.37 71.961C32.5349 71.4952 31.5823 70.6429 31.2635 70.1518C30.8116 65.2274 29.8805 60.429 30.0744 55.6729C30.2531 51.2329 30.0206 46.767 30.905 42.3723C31.029 41.6058 31.0894 40.8269 31.2998 40.0843C31.6969 38.6856 30.418 36.715 32.589 36.0753C31.5312 35.0803 32.348 34.0507 32.4798 33.0694C32.7781 30.9253 34.8493 29.0956 33.6392 26.6894C33.5264 26.4619 33.2142 26.3394 33.0539 26.7136C32.3671 27.03 31.6881 27.3744 30.9875 27.6663C30.4566 27.8863 29.6924 27.8662 29.3775 28.239C28.1715 29.6672 26.6143 29.1334 25.2531 28.974C23.603 28.7762 22.2291 26.0095 22.7762 24.1615C23.1783 22.8003 23.8204 21.5055 24.4119 20.207C24.7966 19.3576 25.2623 18.5512 25.7415 17.6401C27.3185 17.7662 28.3695 16.6929 28.2086 15.4808C29.1175 14.3424 29.6734 13.4525 30.413 12.7581C31.5882 11.6468 32.8634 10.6406 34.1264 9.64143C36.1313 8.05173 37.9923 6.12264 40.2625 5.08676C41.5502 4.50253 42.7822 3.39142 43.8849 3.25201C45.6798 3.01979 47.009 1.05217 49.0828 1.99746C49.7613 2.30901 51.7481 3.88638 51.6902 4.71246C51.5157 7.17497 51.2871 9.62769 51.0791 12.1739C50.7158 12.1613 50.2861 12.1459 49.5848 12.1225C49.9855 12.6724 50.2533 13.0305 50.535 13.4132C50.1625 13.5272 49.8364 13.623 49.6597 13.6827C49.9584 14.4524 50.2381 15.16 50.5921 16.0844C49.8457 15.9814 49.3759 15.9238 48.6548 15.8226C49.1559 17.1494 49.7512 18.2852 48.2282 19.197C47.9893 19.3325 48.617 20.9112 48.767 21.49C48.0319 22.1495 47.366 22.7455 46.8473 23.2014C47.2485 23.6377 47.64 24.0714 48.1317 24.6103C45.6954 25.1818 45.3936 27.077 45.0135 28.8628C44.8137 29.8098 44.8447 30.7069 43.4091 30.0879C43.1283 29.9638 42.489 30.7066 42.004 31.022C41.6197 31.2722 40.9384 31.7555 40.8418 31.6564C39.5978 30.4756 38.0254 31.2859 36.643 30.9605C35.6821 30.7362 34.9528 33.9908 35.579 34.7528C34.8038 36.3983 34.0796 37.934 33.3299 39.5245C33.8011 39.9131 34.2827 40.3201 35.1528 41.0411C34.1317 41.0532 33.6303 41.0541 33.1228 41.0585C33.4957 44.8674 33.2434 47.4118 32.3661 48.6915C32.7209 49.1461 34.6124 49.2557 32.7603 50.3865C32.3996 50.6071 32.8381 52.1232 32.9138 53.2135C32.8368 53.249 32.409 53.4511 31.8298 53.7146C32.3951 53.9122 32.8191 54.0604 32.7484 54.0357C33.0106 55.2551 33.2531 56.0971 33.3611 56.9586C33.4273 57.5039 33.296 58.0721 32.9892 58.6588C33.2264 59.52 34.249 60.3245 32.7505 61.2224C32.5974 61.3093 32.7633 62.316 32.8236 62.3224C34.4329 62.4625 33.9178 63.6529 33.8284 64.4807C33.714 65.4926 33.3222 66.3865 34.2789 67.3174C35.0336 68.0634 34.8871 68.2192 33.7357 69.3009C33.916 69.4334 34.5152 69.6766 34.7556 70.115C35.6575 71.7488 35.5777 73.6073 34.9018 74.557C35.5303 75.6658 36.1568 76.6139 36.6013 77.6409C36.759 78.0048 36.4033 78.5626 36.393 79.0298C36.3795 79.3774 36.4327 79.9139 36.6541 80.0474C37.8587 80.7731 37.9565 81.2599 36.9001 82.652C37.2336 82.6977 37.4921 82.6969 37.726 82.7667C38.0113 82.8559 38.2684 83.0097 38.769 83.2359C37.4139 84.1011 37.4311 84.6742 38.5481 85.7166C39.1349 86.2663 39.8682 87.1458 40.1727 87.9687C40.3813 88.5223 39.724 89.4049 39.4145 90.2441C39.736 90.2399 40.0862 90.2438 40.5465 90.2419C40.3285 91.1425 39.3342 92.5156 41.9283 91.5228C41.3812 92.3428 41.1152 92.7445 40.7254 93.3135C43.138 93.0145 42.2569 94.9871 42.8178 95.9481C43.1607 96.5389 43.5308 97.1062 43.8615 97.7039C44.0317 98.0041 44.2768 98.3508 44.2521 98.6643C44.1504 100.041 44.6284 100.985 46.0813 101.391C45.7803 101.789 45.4942 102.169 45.2029 102.569C45.5987 102.782 46.1311 102.893 46.2001 103.129C46.724 104.953 48.0136 106.1 49.4826 107.121C50.5492 107.86 50.4608 108.404 48.8484 109.658C50.6263 109.281 51.6316 109.57 51.9606 111.407C52.1079 112.238 53.2508 112.869 53.884 113.643C54.6146 114.532 55.2786 115.475 55.9968 116.428C56.7897 117.242 57.6391 118.112 58.6183 119.111C58.4335 119.499 58.1405 120.11 57.8053 120.818C58.0657 120.792 58.3105 120.71 58.3583 120.78C59.398 122.214 62.5202 121.311 62.2428 124.22C63.5384 124.15 63.1284 126.511 64.9965 126.051C65.4948 125.93 66.4512 127.703 67.2323 128.653C68.7078 127.557 67.6212 129.582 67.9911 129.963C69.1376 130.301 71.1753 129.826 70.1169 132.271C70.0579 132.41 70.5067 132.973 70.7642 133.013C74.9136 133.607 77.2399 137.04 80.3637 139.195C81.1227 139.72 82.4102 140.464 81.1568 141.951C81.8424 141.733 82.5314 141.52 83.3595 141.253C83.3146 141.845 83.27 142.381 83.26 142.491C84.4915 143.008 85.4622 143.421 86.4356 143.824C88.5332 144.683 90.307 145.984 91.7964 147.698C91.9774 147.903 92.5217 148.121 92.6146 148.028C93.7064 147.012 94.7679 147.956 95.3165 148.439C96.863 149.796 98.86 149.692 100.502 150.461C104.129 152.161 107.94 151.887 111.884 152.234L111.863 152.254ZM24.7718 25.7258C26.3275 26.9566 28.052 27.1286 29.7316 26.1361C30.7442 25.5378 31.4944 24.3193 32.5471 24.0059C34.0658 23.5579 33.5317 22.6869 33.4368 21.8341C33.4029 21.5457 33.0397 21.2335 33.0938 21.0005C33.5698 18.9985 34.1095 17.0089 34.6319 14.9887C35.447 15.4413 36.0738 15.7903 36.7625 16.177C35.544 16.7597 35.6986 17.9321 37.2263 19.6942C38.0146 18.5431 38.5956 16.7406 39.6055 16.4515C40.9913 16.0545 39.7405 13.7766 41.8304 14.1219C42.3646 14.2076 43.2417 12.1563 43.959 11.0941C44.6083 11.754 45.1941 12.3448 45.7067 12.8636C45.348 13.5446 45.0887 14.2581 44.6422 14.8269C44.2456 15.3269 43.6357 15.6646 42.8666 16.2786C42.8856 16.3406 43.0211 16.8224 43.198 17.4344C42.6382 17.1608 42.2144 16.9558 41.4375 16.5706C43.0784 19.4368 40.3666 18.1085 39.7785 18.9275L40.7335 20.6122C40.272 20.9547 39.8656 21.266 39.4768 21.5511C38.9629 21.1301 38.4918 20.7415 37.9387 20.2941C37.5231 21.7601 37.1454 23.1074 36.7731 24.4355C37.6955 24.1635 38.2638 23.9952 38.8322 23.8268C38.9129 23.9835 38.997 24.1462 39.0777 24.3029C38.3998 25.3347 37.7219 26.3665 37.0853 27.3425C37.9076 27.9935 38.7333 28.6505 39.7298 29.4375C40.5507 28.9722 41.5995 28.5234 42.45 27.8389C42.8827 27.4884 42.9257 26.6789 43.2281 26.1271C43.9252 24.8577 44.6641 23.6052 45.4195 22.3675C46.2567 21.0026 46.1566 19.3837 46.6221 17.9057C47.4045 15.4305 47.7255 12.8121 48.24 10.2783C48.3821 10.3434 48.6245 10.4569 48.9515 10.6197C48.6886 9.6274 48.4765 8.82484 48.2877 8.10621C50.2834 6.88595 48.0954 5.62495 48.5871 4.40732C47.2282 4.59476 45.9994 4.55468 44.942 4.95978C43.798 5.39776 42.8211 6.25908 41.4966 7.10697C41.4778 8.5018 40.7039 9.02143 39.1301 8.71549C38.0151 9.34749 37.3662 9.84484 36.6412 10.0939C35.5105 10.4839 34.7158 10.9667 35.3231 12.3952C34.3185 12.4223 33.4302 12.4402 32.4728 12.4648C32.7314 13.1924 32.9745 13.864 33.1553 14.3686C32.4205 14.429 31.767 14.4756 31.1109 14.5319C31.6001 15.5092 30.8437 16.0027 30.3089 16.5729C29.6374 17.3017 28.9492 18.0155 28.2172 18.7947C28.2068 18.7763 28.3804 19.0826 28.4915 19.2787C27.6365 19.5124 26.8933 19.7151 26.5016 19.8238C26.8348 20.7115 27.0477 21.287 27.1247 21.4942C26.1874 22.0255 25.487 22.2607 25.0704 22.7396C24.8977 22.9347 25.3327 23.6594 25.4753 24.0966C25.0643 24.2568 24.6226 24.4343 23.9272 24.707C24.5734 24.7617 24.9157 24.7943 25.4195 24.8406C25.1052 25.2858 24.9025 25.5707 24.7787 25.738L24.7718 25.7258Z" fill="#323232"/>
</svg>
