<svg width="63" height="77" viewBox="0 0 63 77" fill="none" xmlns="http://www.w3.org/2000/svg">
<path d="M28.2265 15.8205C29.2925 15.021 30.2252 14.9719 30.8845 16.129C30.4356 16.9917 30.0569 17.721 29.58 18.6398C30.5899 18.5907 31.2492 18.5626 31.9084 18.5275C31.7892 18.6608 31.6699 18.794 31.5577 18.9343C32.0487 19.4743 32.5396 20.0213 33.0305 20.5614C32.8972 20.6385 32.757 20.7086 32.6237 20.7858C33.0445 21.5993 33.4583 22.4058 33.9001 23.2684C36.5371 19.9442 40.0647 18.4504 43.6694 17.5387C47.2321 16.634 50.9842 16.648 54.3926 18.8992C54.3154 19.0676 54.1331 19.4813 53.7473 20.358C54.61 19.8951 55.0869 19.6426 55.8232 19.2429C54.8905 20.7647 59.0493 20.4702 56.3703 22.5952C58.7898 22.9739 57.6326 24.608 57.7589 25.8142C57.8009 26.228 57.9482 26.6348 58.0464 27.0415C58.2428 27.1046 58.4391 27.1677 58.6355 27.2309C57.7448 28.0935 56.8472 28.9561 55.9775 29.7977C56.4334 30.0992 56.8822 30.3938 57.2469 30.6252C56.9243 31.1723 56.6508 31.6351 56.3703 32.119C56.0336 31.9998 55.6058 31.8455 54.7081 31.5229C55.2411 32.2523 55.4726 32.5609 55.5287 32.638C53.4879 36.874 50.0865 39.8896 47.0358 43.277C48.789 43.6487 50.5283 43.9642 52.2255 44.4271C52.506 44.5043 52.6042 45.2336 52.8426 45.8087C53.1302 45.5843 53.4879 45.3108 53.7123 45.1354C57.5415 46.9308 61.4828 48.5929 62.9276 52.7377C62.7592 53.411 62.5278 53.8949 62.5278 54.3858C62.5418 56.7843 60.6413 58.229 58.1797 57.9204C57.275 57.8082 56.2721 58.5867 55.3463 58.5165C52.9338 58.3342 50.5353 57.9064 48.1298 57.5768C47.5898 57.4996 47.0568 57.3944 46.5028 57.3033C46.5308 57.0648 46.5659 56.7282 46.5939 56.5248C43.8518 57.4014 42.1336 55.0661 39.9525 54.3788C37.7153 53.6775 35.6885 52.3099 33.5705 51.2439C33.6897 50.8862 33.7949 50.5847 33.9492 50.1218C33.1708 50.206 32.5887 50.2621 31.8944 50.3392C32.5115 52.359 31.1369 51.9663 29.9026 52.0504C30.4567 52.366 31.0107 52.6746 31.5157 52.9621V55.5219C31.0388 55.2765 30.5338 55.024 30.0359 54.7645C29.9587 54.8346 29.8886 54.9118 29.8115 54.9819C30.3094 55.6061 30.8073 56.2302 31.3053 56.8544C30.9406 56.9807 30.5689 57.1069 30.0289 57.2962C30.3795 57.8363 30.66 58.2781 30.9686 58.762C30.1832 59.0075 29.4257 59.2459 28.5982 59.5054C29.9377 61.1044 29.8606 62.3106 28.3247 63.0681C28.7595 63.2434 29.0961 63.3767 29.4327 63.5099C29.4327 63.6151 29.4257 63.7133 29.4187 63.8185C28.8717 63.8886 28.3177 63.9587 27.8338 64.0148C28.2265 65.0388 28.5771 65.9294 28.9909 67.0165C28.4509 66.9043 28.0161 66.8061 27.3428 66.6658C28.1283 68.1807 28.1353 69.2046 25.7438 68.5594C26.4311 69.1625 26.7467 69.443 27.1535 69.8007C26.7888 70.0321 26.2979 70.1654 26.1506 70.4669C25.5054 71.8065 25.0285 73.2301 24.3342 74.5346C24.1238 74.9273 23.3874 75.2639 22.9175 75.2359C21.8024 75.1728 20.9468 75.3271 20.2315 76.3159C19.3408 77.5432 16.746 77.0032 16.0236 75.6146C15.4555 74.5205 14.3054 73.6159 14.0669 72.4937C13.7513 70.9859 12.2926 69.7165 13.022 67.9843C13.1202 67.7458 13.2464 67.3251 13.1412 67.2269C12.4469 66.5887 12.7134 66.0487 12.8116 65.2001C13.036 63.2013 12.6082 61.1324 12.489 59.6597C12.8326 58.4254 13.1412 57.703 13.2183 56.9596C13.3586 55.6762 13.2744 54.3647 13.4638 53.0954C13.5269 52.6746 14.1301 52.3379 14.5298 51.9172C13.3306 49.5748 14.5017 47.1763 15.147 44.35C13.8986 45.1915 13.029 45.8718 12.0822 46.3978C11.3178 46.8256 10.4552 47.0711 9.55748 47.4287C9.53644 47.4007 9.71177 47.6602 9.76787 47.7514C8.35122 48.5298 6.91352 49.3083 5.47582 50.0937C5.53193 50.206 5.59505 50.3111 5.65115 50.4234L2.73368 49.8062C1.65366 48.6981 -0.246907 47.548 0.0266057 45.43C0.279079 43.4944 0.826105 41.6289 1.49937 39.7493C2.00431 38.3467 3.0633 37.0423 3.16148 35.4152C3.20356 34.8121 3.87683 34.2651 4.19943 33.6619C4.78152 32.5889 5.034 30.9969 5.91765 30.492C8.5546 28.9771 10.1045 25.7932 13.5409 25.5126C13.9267 25.4846 14.2493 24.9095 14.642 24.8394C15.8483 24.629 17.0686 24.5378 18.2889 24.3976C18.6746 24.3555 19.0603 24.2994 19.446 24.2503C19.3899 23.8786 19.446 23.4368 19.2707 23.1422C18.4221 21.7887 16.5706 20.2528 16.8231 19.2078C17.2229 17.5667 15.1049 16.9566 15.9535 15.5189C16.0657 15.3296 15.6729 14.7966 15.4345 14.4739C14.7262 13.4921 13.5269 12.903 13.9617 11.1848C14.1932 10.2801 13.4568 8.96161 12.8396 8.04289C11.6895 6.33168 11.7666 4.50826 11.8438 2.62172C11.8648 2.15184 11.6404 1.67495 11.5352 1.19805C14.2282 -0.842775 17.4823 -0.260684 19.7827 2.8251C20.5541 3.86305 22.3354 4.22773 22.0198 6.01609C22.4056 6.04414 22.7983 6.06518 22.644 6.05817C23.2401 6.94884 23.6048 8.00782 24.0186 8.02886C25.8841 8.12003 25.9612 9.99956 27.0483 10.8411C27.3569 11.0796 26.9571 12.2368 26.887 12.896C27.3779 12.8749 27.9319 12.8469 28.486 12.8259C28.4299 13.3939 28.3668 13.955 28.3247 14.523C28.2896 14.9649 28.2896 15.4137 28.2686 15.8555C27.8969 15.7083 27.3569 15.6732 27.1956 15.3997C26.5574 14.3547 26.2067 13.1064 25.4423 12.1806C24.4324 10.9604 23.163 9.95748 21.9637 8.91252C21.1713 8.21822 19.8808 7.76937 19.5723 6.93481C19.1865 5.89686 19.1304 4.901 18.1626 4.03136C17.1808 3.14771 16.4304 2.16587 14.6771 2.41834C14.8103 3.73681 14.6911 5.11139 15.1399 6.26155C15.7571 7.83951 15.5327 9.57175 16.6618 11.1357C17.279 11.9913 17.4613 13.436 18.1977 14.5581C18.9341 15.6732 19.1935 17.0969 19.7616 18.6678C20.0001 18.9343 20.5892 19.4252 20.9538 20.0564C21.3045 20.6736 21.3676 21.452 21.6552 22.1183C22.0549 23.037 23.0017 23.9627 22.1601 24.9376C21.2905 25.9475 20.5751 27.2239 18.6325 26.7259C17.286 26.3823 15.6519 26.6909 14.2703 27.1187C13.2955 27.4202 12.5311 28.4091 11.6754 29.0894C11.1775 29.3839 10.918 30.1413 10.4201 30.3728C9.77489 30.6673 8.94032 30.5341 7.9164 30.6112C8.49849 31.0741 8.84214 31.3476 9.04552 31.5089C7.88835 32.7853 7.7551 35.1137 5.33556 34.9313C5.71427 35.1487 6.09298 35.3731 6.70313 35.7308C6.07895 36.3199 5.54596 36.8249 4.9849 37.3649C5.6231 38.2135 5.61609 38.9358 4.45892 39.5109C4.1293 39.6722 3.83475 40.2823 3.84877 40.6751C3.8628 41.3834 4.12229 42.0777 4.25554 42.6598C2.03938 42.9894 3.20356 44.2869 3.39292 45.2196C2.99317 45.1495 2.74771 45.1074 2.19367 45.0092C2.7968 45.5212 3.36487 45.7666 3.39993 46.0752C3.66643 48.4877 5.15322 47.6882 6.37351 47.1693C7.18002 46.8326 7.80419 46.1033 8.58966 45.6825C9.06656 45.43 9.69073 45.43 10.4131 45.2897C10.6235 43.2068 13.5129 41.187 15.9675 41.7691C15.8623 42.3091 15.7501 42.8421 15.6519 43.3471C16.4724 43.5575 17.2018 43.7468 17.7278 43.8871C18.0855 46.5942 17.4683 48.8664 16.1358 50.8371C16.2971 51.2158 16.6688 51.6717 16.6127 52.0714C16.4865 52.9761 16.1498 53.8598 15.8974 54.7435C16.0376 54.7645 16.1779 54.7855 16.3111 54.8066C15.8623 55.1572 15.4135 55.5009 14.9646 55.8515C15.3083 56.0058 15.6519 56.1531 16.0937 56.3495C15.8062 56.8123 15.2592 57.6469 15.2942 57.675C17.321 59.1477 14.5929 59.5124 14.7472 60.4171C15.1189 61.1114 15.4836 61.7917 15.8342 62.4439C15.0838 62.6964 14.5789 62.8647 13.7513 63.1452C14.8033 63.5309 15.4485 63.7624 15.6659 63.8465C15.5537 64.8705 15.1189 65.9014 15.4555 66.3292C16.0797 67.1217 16.4654 67.7248 16.0446 68.7207C15.9324 68.9942 16.2059 69.429 16.3111 69.7867C16.6758 71.042 17.0405 72.3044 17.5455 74.0436C19.6494 75.7478 20.9889 72.8795 22.8965 72.0519C22.7983 71.6732 22.6721 71.2103 22.637 71.0911C23.2261 70.6633 23.8292 70.4529 23.9835 70.0672C24.2921 69.2887 24.2641 68.377 24.5586 67.5845C25.2459 65.705 26.1225 63.8956 26.7537 61.9951C26.9922 61.2727 26.6485 60.368 26.8239 59.6036C26.9361 59.1056 27.7215 58.748 27.8197 58.25C28.0371 57.149 27.974 55.9988 28.0932 54.8767C28.2616 53.3128 28.486 51.7559 28.7034 50.0867C28.9699 50.1078 29.3416 50.1428 29.8325 50.1919C29.6642 49.5818 29.5379 49.1259 29.4047 48.628C29.7483 48.7402 30.1551 48.9366 30.2042 48.8735C31.186 47.562 32.7079 47.9758 33.6617 48.3405C35.962 49.2241 38.4937 50.1639 40.1629 51.847C42.0073 53.7055 44.5251 53.2286 46.4326 54.6944C47.6669 55.6482 49.6727 55.7814 51.3629 55.9076C53.039 56.0269 54.652 57.0087 56.4404 56.1391C57.8991 55.4307 59.5051 55.024 60.7956 54.5681C60.4379 53.6845 60.0662 52.7447 59.6735 51.819C59.5051 51.4333 59.3649 50.8932 59.0493 50.7319C57.0014 49.673 54.9606 48.5508 52.8146 47.7233C50.0935 46.6713 47.2602 45.9139 44.497 44.9531C43.8448 44.7287 43.3118 44.1887 42.7367 43.8029C44.7915 41.7902 47.4425 41.4886 48.3402 38.7114C48.8452 37.1475 51.3278 36.8529 51.8608 34.7069C51.987 34.1879 53.1232 33.7461 52.4289 32.7152C52.3798 32.638 52.5481 32.2733 52.6533 32.2523C54.4627 31.8946 53.7894 30.0642 54.4487 29.0262C54.638 28.7247 54.2803 28.1286 55.0939 28.3179C55.1359 28.0093 55.3393 27.5675 55.2061 27.4132C54.0489 26.0807 55.4024 25.5617 55.8934 24.9516C55.3043 23.9066 54.8905 22.8126 54.1751 21.985C51.8889 19.306 48.7329 19.0465 45.6191 19.6567C43.1294 20.1406 40.766 21.2486 38.3675 22.0762C38.5078 22.3146 38.655 22.5671 38.8023 22.8196C37.9046 23.1001 37.007 23.3877 36.1163 23.6682C35.1976 24.4116 34.4401 25.5407 33.8019 26.7259C33.7248 26.8732 34.2227 27.4342 34.5523 27.6797C34.8539 27.9041 35.2817 27.9672 35.2326 27.9462C34.6505 29.2226 34.1456 30.3377 33.6336 31.4528C33.1567 30.9058 33.1708 30.2956 32.9393 29.7977C32.5536 28.9561 32.0627 28.1426 31.4946 27.4202C31.3824 27.28 30.3655 27.6026 30.3655 27.6446C30.5829 29.6504 28.6613 29.6364 27.8408 30.6393C27.6234 33.0658 25.7999 34.0196 23.6399 34.8261C23.3874 34.4053 23.1069 33.9425 22.6861 33.2482C23.3103 33.3113 23.6399 33.3463 24.0326 33.3884C24.0957 32.8414 24.1518 32.3014 24.215 31.7614C24.3412 31.8946 24.4745 32.0209 24.6007 32.1541C25.0636 31.8245 25.9542 31.4247 25.9192 31.1723C25.5475 28.7667 27.5743 28.1776 28.7875 26.8662C29.6502 25.9334 31.5016 25.2251 30.9265 23.5349C30.5268 22.3637 31.3333 21.964 31.7962 21.2837C29.1242 20.4141 27.8828 17.5948 28.2195 15.8064L28.2265 15.8205Z" fill="white"/>
</svg>
