<svg width="86" height="24" viewBox="0 0 86 24" fill="none" xmlns="http://www.w3.org/2000/svg">
<path d="M58.4408 5.43974C56.9326 5.43974 55.7697 5.97717 54.6907 7.09886V5.70112H51.7288V19.4549H54.9157V11.478C54.9157 9.65183 56.0031 8.49659 57.6532 8.49659C57.953 8.49659 58.2158 8.53363 58.403 8.57067L60.615 5.66338C59.7526 5.51452 59.0027 5.43974 58.4401 5.43974H58.4408ZM85.9238 5.70112H82.2492L78.8562 10.1872L75.4632 5.70042H71.7885L76.9727 12.6311L71.7885 19.4549H75.5379L78.8373 15.1037L82.1367 19.4549H85.9238L80.7047 12.6423L85.9238 5.70112ZM18.9966 2.60722C17.9092 4.06087 17.6464 4.54519 16.5967 4.54519H0.923828V23.1819H7.07318C8.46044 23.1819 9.80995 22.511 10.6724 21.3928C11.7975 19.9021 11.9471 19.4549 13.0345 19.4549H28.7451V0.818115H22.558C21.1708 0.818115 19.8213 1.48903 18.9959 2.60722H18.9966ZM23.8705 14.6466H17.3088C15.8838 14.6466 14.5721 15.2428 13.7096 16.398C12.5845 17.8894 12.3594 18.3367 11.3097 18.3367H5.7607V9.39115H12.3224C13.7467 9.39115 15.0592 8.72023 15.9216 7.60204C17.0467 6.14839 17.3466 5.70112 18.3585 5.70112H23.8705V14.6466ZM47.4168 10.0621C48.8048 9.27933 49.779 7.89976 49.779 6.07361C49.779 3.38995 47.7173 0.818115 44.7178 0.818115H35.7191V19.4549H44.7178C47.9794 19.4549 50.2291 17.1437 50.2291 14.2364C50.2291 12.5221 49.4421 11.0307 47.4168 10.0621ZM38.906 3.72541H44.455C45.8423 3.72541 46.6669 5.0302 46.6669 6.18543C46.6669 7.60204 45.4299 8.57067 44.2677 8.57067H38.906V3.72541ZM44.2677 16.5476H38.906V11.478H44.455C45.88 11.478 47.0422 12.708 47.0422 13.9757C47.0422 15.3916 45.5802 16.5476 44.2677 16.5476Z" fill="#727272"/>
<path d="M68.602 15.5037C68.0771 16.3241 67.0644 16.8084 65.9393 16.8084C64.1781 16.8084 62.7154 15.6155 62.7154 13.7893H72.2389C72.3891 13.2302 72.4262 12.9696 72.4262 12.4845C72.4262 8.3102 69.839 5.43994 65.94 5.43994C62.115 5.43994 59.416 8.16134 59.416 12.5964C59.416 16.9203 62.0025 19.7157 66.0147 19.7157C68.827 19.7157 71.3017 18.3369 72.0138 15.5037H68.602ZM65.9393 8.34724C67.7018 8.34724 69.052 9.46543 69.0143 11.1427H62.7524C62.7524 9.50317 64.1781 8.34724 65.9393 8.34724Z" fill="#727272"/>
</svg>
