<svg width="153" height="22" viewBox="0 0 153 22" fill="none" xmlns="http://www.w3.org/2000/svg">
<path d="M16.7109 12.3978C16.7699 12.4961 16.7902 12.6128 16.7679 12.7252C16.5596 13.6717 16.0527 14.5262 15.3221 15.163C15.2821 15.1933 15.2484 15.2312 15.2229 15.2745C15.2138 15.2944 15.2091 15.3159 15.2091 15.3378C15.2091 15.3596 15.2138 15.3812 15.2229 15.401C15.2375 15.418 15.2559 15.4313 15.2765 15.4399C15.2973 15.4485 15.3196 15.4522 15.342 15.4506C15.4478 15.4224 15.55 15.3825 15.647 15.3316C16.0755 15.0882 16.4541 14.7659 16.7629 14.3818C16.9489 14.1561 17.1324 13.9304 17.3085 13.6973C17.6401 13.2369 17.8855 12.7201 18.0327 12.1722C18.1665 11.7283 18.2806 11.2794 18.4195 10.8355C18.4762 10.6727 18.5451 10.5144 18.6254 10.3619C18.6577 10.3149 18.6951 10.2716 18.7369 10.2329H18.7717C18.8064 10.3494 18.8486 10.4611 18.8733 10.5801C18.9382 10.9544 18.9474 11.3363 18.9006 11.7134C18.8492 12.2042 18.7486 12.6885 18.6006 13.1592C18.4968 13.4485 18.3568 13.7234 18.1839 13.9775C17.7494 14.6938 17.2362 15.3592 16.6538 15.9615C16.2248 16.3757 15.761 16.7524 15.2675 17.0873C15.2316 17.1058 15.1989 17.1301 15.1709 17.1593C15.142 17.194 15.127 17.2381 15.1287 17.2833C15.1391 17.3034 15.1542 17.3207 15.1728 17.3337C15.1913 17.3467 15.2128 17.3549 15.2353 17.3577C15.339 17.357 15.4423 17.3437 15.5428 17.318C16.001 17.1859 16.4296 16.967 16.8051 16.6732C17.8554 15.8988 18.7084 14.8878 19.2949 13.7221C19.6686 12.9615 19.9109 12.1432 20.0116 11.3017C20.0719 10.7705 20.0778 10.2346 20.029 9.70222C19.9864 9.4294 19.9948 9.15107 20.0537 8.88137C20.0694 8.81956 20.0918 8.75964 20.1207 8.70278C20.1877 8.57382 20.2844 8.5664 20.3489 8.70278C20.4167 8.83187 20.4667 8.96954 20.4977 9.11198C20.6338 9.79412 20.6764 10.4916 20.6241 11.1852C20.5279 12.3121 20.2446 13.415 19.7859 14.4487C19.3214 15.5131 18.624 16.4597 17.745 17.2188C17.4598 17.4668 17.187 17.7148 16.8919 17.9479C16.5375 18.2056 16.1577 18.4266 15.7586 18.6075C14.8779 19.0451 13.9406 19.3581 12.9737 19.5375C12.381 19.6403 11.7792 19.6803 11.1782 19.6565C10.8831 19.6565 10.5855 19.6367 10.2904 19.6218C9.62324 19.5849 8.96499 19.4512 8.33622 19.225C7.42574 18.9082 6.5506 18.4976 5.72492 18C4.762 17.4095 3.94075 16.6146 3.31941 15.6713C3.01267 15.2277 2.74547 14.7581 2.52089 14.2677C2.50944 14.2386 2.49101 14.2127 2.46723 14.1924C2.44345 14.1721 2.41503 14.1579 2.38449 14.1512C2.22141 14.1106 2.0697 14.0335 1.9408 13.9256C1.81192 13.8178 1.70923 13.682 1.64052 13.5287C1.45663 13.0796 1.31387 12.6148 1.21398 12.14C1.03223 11.3733 0.934938 10.5892 0.923828 9.80141C0.931276 9.30264 0.976875 8.80522 1.06022 8.31343C1.15436 7.64526 1.32065 6.98922 1.5562 6.35683C1.76453 5.80338 2.05732 5.28556 2.42416 4.82176C2.63744 4.55393 2.81351 4.25386 3.02182 3.98107C4.3439 2.23375 6.23672 1.00521 8.37095 0.509213C8.7826 0.410017 9.19431 0.30586 9.61093 0.228983C9.98288 0.159546 10.3549 0.114908 10.7368 0.0801893C11.1782 0.0405111 11.6196 0.00579262 12.0635 0.000832821C13.8444 -0.0239646 15.5889 0.505548 17.0556 1.51605C17.2227 1.61714 17.3733 1.74345 17.5019 1.89052C17.597 2.00624 17.6602 2.14469 17.6855 2.29226C17.6953 2.32698 17.7151 2.35803 17.7425 2.38154C18.0922 2.7188 18.4642 3.03871 18.7866 3.40077C19.2989 3.9605 19.6697 4.63485 19.8678 5.36734C19.9586 5.66318 19.9902 5.97402 19.9609 6.28208C19.9315 6.59013 19.8417 6.88942 19.6967 7.16279C19.4541 7.57113 19.1131 7.9122 18.7047 8.15475C18.2504 8.46384 17.7055 8.61143 17.1572 8.57382C16.6447 8.55041 16.1583 8.34156 15.7884 7.98609C15.3997 7.58222 14.9855 7.20365 14.5484 6.85278C14.2607 6.63455 13.9631 6.42875 13.6631 6.23282C13.3003 6.01484 12.8985 5.86994 12.4802 5.80628C12.0043 5.71924 11.5197 5.69009 11.0368 5.71948C9.98128 5.7396 8.95997 6.09771 8.12295 6.74121C7.4957 7.21511 6.97943 7.82024 6.61024 8.51433C6.40116 8.93547 6.26929 9.39074 6.22089 9.85845C6.18052 10.147 6.15733 10.4376 6.15146 10.7289C6.17485 11.5591 6.39136 12.3726 6.78383 13.1046C7.07382 13.6725 7.45974 14.1859 7.92457 14.6224C8.35692 15.0108 8.83591 15.3441 9.35054 15.6143C9.93625 15.9318 10.5831 16.1203 11.2477 16.1673C12.1203 16.2584 13.0018 16.1261 13.8094 15.7829C14.1964 15.601 14.5528 15.3601 14.8658 15.0687C15.4064 14.6037 15.8599 14.0461 16.205 13.422C16.3339 13.1964 16.4232 12.9484 16.5323 12.7103C16.5646 12.6384 16.6017 12.5665 16.6389 12.4971C16.6617 12.4634 16.6883 12.4326 16.7183 12.4053" fill="#727272"/>
<path d="M146.586 8.61831C148.372 8.61831 149.562 9.94755 149.562 11.9116C149.562 13.8757 148.372 15.1851 146.586 15.1851C144.801 15.1851 143.591 13.8757 143.591 11.8918C143.591 9.90785 144.781 8.61831 146.586 8.61831ZM94.3099 8.41993C95.6988 8.41993 96.6111 9.19366 96.8298 10.4237H91.8102C92.0283 9.18374 92.9412 8.41993 94.3099 8.41993ZM49.3147 13.2607C49.3147 14.4709 48.6005 15.1851 47.3308 15.1851C46.0611 15.1851 45.3072 14.4709 45.3072 13.2607V6.4757C45.3072 6.4099 45.2811 6.34685 45.2345 6.30029C45.188 6.25379 45.125 6.22769 45.0592 6.22769H42.4801C42.4143 6.22769 42.3513 6.25379 42.3048 6.30029C42.2583 6.34685 42.2321 6.4099 42.2321 6.4757V13.3797C42.2321 16.3953 43.9978 17.9031 46.2198 17.9031C47.8069 17.9031 48.8782 16.9309 49.3345 15.4628V17.3476C49.3381 17.4122 49.3654 17.4732 49.4111 17.5189C49.4569 17.5647 49.5179 17.592 49.5826 17.5956H52.1815C52.2472 17.5956 52.3103 17.5694 52.3568 17.5229C52.4033 17.4764 52.4295 17.4133 52.4295 17.3476V6.4757C52.4295 6.4099 52.4033 6.34685 52.3568 6.30029C52.3103 6.25379 52.2472 6.22769 52.1815 6.22769H49.5726C49.5068 6.22769 49.4438 6.25379 49.3973 6.30029C49.3507 6.34685 49.3246 6.4099 49.3246 6.4757L49.3147 13.2607ZM76.0182 13.2607C76.0182 14.4709 75.3038 15.1851 74.0344 15.1851C72.7643 15.1851 72.0107 14.4709 72.0107 13.2607V6.4757C72.0107 6.4099 71.9844 6.34685 71.9378 6.30029C71.8919 6.25379 71.8288 6.22769 71.7626 6.22769H69.1839C69.1177 6.22769 69.0546 6.25379 69.0081 6.30029C68.9615 6.34685 68.9358 6.4099 68.9358 6.4757V13.3797C68.9358 16.3953 70.7015 17.9031 72.9236 17.9031C74.5104 17.9031 75.582 16.9309 76.0378 15.4628V17.3476C76.0415 17.4122 76.069 17.4732 76.115 17.5189C76.1603 17.5647 76.2216 17.592 76.2859 17.5956H78.8848C78.951 17.5956 79.0141 17.5694 79.0607 17.5229C79.1066 17.4764 79.133 17.4133 79.133 17.3476V6.4757C79.133 6.4099 79.1066 6.34685 79.0607 6.30029C79.0141 6.25379 78.951 6.22769 78.8848 6.22769H76.2761C76.2106 6.22769 76.1475 6.25379 76.1009 6.30029C76.0543 6.34685 76.028 6.4099 76.028 6.4757L76.0182 13.2607ZM81.6725 17.3476C81.6725 17.4133 81.6988 17.4764 81.7448 17.5229C81.7913 17.5694 81.8544 17.5956 81.9206 17.5956H84.4797C84.5453 17.5956 84.6084 17.5694 84.6549 17.5229C84.7015 17.4764 84.7278 17.4133 84.7278 17.3476V11.118C84.7278 9.55073 85.7197 9.25315 87.1087 9.25315H88.1398C88.2059 9.25315 88.269 9.22705 88.3156 9.18055C88.3622 9.13405 88.3879 9.07095 88.3879 9.00515V6.4757C88.3879 6.4099 88.3622 6.34685 88.3156 6.30029C88.269 6.25379 88.2059 6.22769 88.1398 6.22769H87.8922C86.2258 6.22769 85.1941 7.00143 84.718 8.88617V6.48562C84.718 6.41982 84.6917 6.35672 84.6451 6.31022C84.5986 6.26372 84.5355 6.23762 84.4699 6.23762H81.9108C81.8446 6.23762 81.7815 6.26372 81.735 6.31022C81.6884 6.35672 81.6627 6.41982 81.6627 6.48562L81.6725 17.3476ZM121.529 17.3476C121.529 17.4133 121.556 17.4764 121.602 17.5229C121.648 17.5694 121.711 17.5956 121.778 17.5956H124.356C124.422 17.5956 124.485 17.5694 124.532 17.5229C124.578 17.4764 124.604 17.4133 124.604 17.3476V10.4237C124.604 9.31271 125.219 8.61831 126.39 8.61831C127.56 8.61831 128.215 9.31271 128.215 10.4237V17.3476C128.215 17.4133 128.241 17.4764 128.288 17.5229C128.334 17.5694 128.397 17.5956 128.463 17.5956H131.062C131.128 17.5956 131.191 17.5694 131.238 17.5229C131.284 17.4764 131.31 17.4133 131.31 17.3476V10.4237C131.31 9.31271 131.945 8.61831 133.096 8.61831C134.246 8.61831 134.921 9.31271 134.921 10.4237V17.3476C134.924 17.4122 134.952 17.4732 134.998 17.5189C135.043 17.5647 135.104 17.592 135.169 17.5956H137.748C137.813 17.5956 137.877 17.5694 137.923 17.5229C137.97 17.4764 137.996 17.4133 137.996 17.3476V10.3245C137.996 7.38826 136.26 5.90034 134.048 5.90034C132.183 5.90034 131.231 7.11054 130.735 8.62824C130.595 7.87117 130.197 7.18578 129.61 6.68854C129.022 6.1913 128.28 5.91277 127.511 5.90034C125.884 5.90034 125.15 6.89231 124.595 8.36038V6.4757C124.595 6.4099 124.568 6.34685 124.522 6.30029C124.475 6.25379 124.413 6.22769 124.346 6.22769H121.768C121.702 6.22769 121.638 6.25379 121.592 6.30029C121.545 6.34685 121.52 6.4099 121.52 6.4757L121.529 17.3476ZM152.856 11.9116C152.856 8.57861 150.891 5.90034 147.737 5.90034C145.674 5.90034 144.086 6.9915 143.591 8.53897V6.4757C143.591 6.4099 143.564 6.34685 143.518 6.30029C143.471 6.25379 143.408 6.22769 143.343 6.22769H140.754C140.688 6.22769 140.625 6.25379 140.578 6.30029C140.532 6.34685 140.505 6.4099 140.505 6.4757V21.7519C140.505 21.8176 140.532 21.8807 140.578 21.9272C140.625 21.9737 140.688 21.9998 140.754 21.9998H143.353C143.418 21.9998 143.481 21.9737 143.528 21.9272C143.574 21.8807 143.601 21.8176 143.601 21.7519V15.3041C144.096 16.8516 145.684 17.9229 147.747 17.9229C150.901 17.9229 152.865 15.2644 152.865 11.9116H152.856ZM109.884 11.242L111.885 5.84082L113.891 11.242H109.884ZM99.9642 11.9166C99.9642 8.52408 97.9406 5.76642 94.2903 5.76642C90.8582 5.76642 88.6164 8.52408 88.6164 11.9166C88.6164 15.4281 91.1161 18.0469 94.925 18.0469C96.9885 18.0469 98.7542 17.1343 99.5874 15.9241C99.6089 15.8958 99.6248 15.8633 99.6334 15.8288C99.6425 15.7941 99.6444 15.7581 99.6383 15.7228C99.6327 15.6875 99.6205 15.6538 99.6015 15.6236C99.5819 15.5934 99.5574 15.5673 99.528 15.5471L97.7917 13.9997C97.7678 13.9785 97.7396 13.9626 97.709 13.9531C97.6783 13.9435 97.6459 13.9405 97.614 13.9443C97.5828 13.948 97.5515 13.9584 97.5246 13.9748C97.497 13.9912 97.4731 14.0132 97.4547 14.0394C97.1582 14.4671 96.76 14.8144 96.2956 15.0499C95.8318 15.2854 95.3165 15.4017 94.7958 15.3884C93.3278 15.3884 91.9787 14.694 91.7802 12.7895H99.7161C99.7498 12.7926 99.7828 12.7882 99.8147 12.7768C99.846 12.7654 99.8747 12.7473 99.898 12.7237C99.9219 12.6999 99.9403 12.6714 99.9513 12.6399C99.963 12.6084 99.9673 12.5748 99.9642 12.5415V11.9166ZM59.5418 8.64312C59.5418 8.70886 59.5679 8.77197 59.6145 8.81847C59.661 8.86497 59.724 8.89107 59.7898 8.89107H61.4563V14.2179C61.4563 16.3606 62.5475 17.6105 64.8291 17.6105H66.952C67.0175 17.6105 67.0806 17.5843 67.1272 17.5378C67.1738 17.4913 67.1995 17.4282 67.1995 17.3624V15.1305C67.2026 15.0972 67.1983 15.0636 67.1872 15.0321C67.1756 15.0007 67.1578 14.9721 67.1339 14.9484C67.11 14.9247 67.0819 14.9066 67.05 14.8952C67.0188 14.8838 66.9851 14.8795 66.952 14.8826H65.511C64.7966 14.8826 64.5589 14.6346 64.5589 14.0294V8.89603H66.9195C66.9851 8.89603 67.0482 8.86993 67.0947 8.82343C67.1413 8.77693 67.1676 8.71382 67.1676 8.64809V6.48562C67.1676 6.41982 67.1413 6.35672 67.0947 6.31022C67.0482 6.26372 66.9851 6.23762 66.9195 6.23762H64.5589V2.96414C64.5589 2.89837 64.5326 2.83529 64.486 2.78878C64.4394 2.74228 64.3763 2.71615 64.3108 2.71615H61.6745C61.6412 2.7131 61.6076 2.71742 61.5761 2.7288C61.5447 2.74019 61.516 2.75836 61.4924 2.78202C61.4687 2.80569 61.4505 2.83428 61.4392 2.86575C61.4278 2.89722 61.4235 2.93081 61.4265 2.96414V6.21777H59.76C59.6943 6.21777 59.6312 6.24387 59.5847 6.29043C59.5382 6.33693 59.5121 6.39997 59.5121 6.46577L59.5418 8.64312ZM104.101 17.3724C104.09 17.3991 104.086 17.428 104.089 17.4566C104.091 17.4853 104.101 17.5129 104.116 17.5371C104.132 17.5614 104.153 17.5816 104.177 17.5961C104.203 17.6105 104.231 17.6188 104.26 17.6203H107.295C107.371 17.6226 107.445 17.5994 107.506 17.5545C107.567 17.5095 107.611 17.4454 107.632 17.3724L108.842 14.0791H114.952L116.192 17.3724C116.213 17.4454 116.257 17.5095 116.319 17.5545C116.38 17.5994 116.454 17.6226 116.53 17.6203H119.625C119.653 17.6188 119.682 17.6105 119.707 17.5961C119.731 17.5816 119.753 17.5614 119.768 17.5371C119.783 17.5129 119.793 17.4853 119.796 17.4566C119.799 17.428 119.794 17.3991 119.783 17.3724L114.228 2.94926C114.206 2.88356 114.163 2.82684 114.106 2.78752C114.049 2.7482 113.981 2.72839 113.911 2.73103H109.963C109.891 2.72387 109.818 2.74155 109.756 2.78119C109.695 2.82083 109.649 2.88008 109.626 2.94926L104.101 17.3724ZM34.9611 14.8329C32.3224 14.8329 30.5567 12.8689 30.5567 10.1509C30.5567 7.43293 32.3224 5.46884 34.9611 5.46884C35.6863 5.47633 36.3998 5.65228 37.0454 5.98281C37.691 6.31334 38.2508 6.78938 38.6809 7.37338C38.6992 7.4056 38.7249 7.43299 38.7559 7.45333C38.7869 7.47361 38.8223 7.48617 38.8592 7.49009C38.896 7.49395 38.9333 7.48898 38.9678 7.47563C39.0024 7.46221 39.0332 7.44077 39.0578 7.41308L41.1608 5.60771C41.2096 5.56309 41.2404 5.5023 41.2477 5.43661C41.255 5.37093 41.2382 5.30483 41.2005 5.25061C39.9109 3.36588 37.7286 2.4136 34.971 2.4136C30.2592 2.4136 27.1543 5.92514 27.1543 10.1509C27.1543 14.4163 30.2691 17.9279 34.971 17.9279C37.7286 17.9279 40.0498 16.7573 41.2005 15.0512C41.2388 14.9971 41.2559 14.9309 41.2485 14.865C41.2412 14.7992 41.21 14.7384 41.1608 14.694L39.038 12.9581C39.0152 12.9309 38.986 12.9097 38.9529 12.8965C38.9199 12.8833 38.8841 12.8784 38.8488 12.8823C38.8135 12.8862 38.7797 12.8988 38.7503 12.919C38.721 12.9391 38.6972 12.9662 38.6809 12.9978C38.2432 13.5679 37.6799 14.0292 37.0346 14.3459C36.3894 14.6624 35.6798 14.8258 34.9611 14.823V14.8329ZM57.8356 1.92754H55.2069C55.1736 1.92449 55.14 1.92881 55.1085 1.94019C55.0771 1.95158 55.0485 1.96975 55.0249 1.99342C55.0011 2.01708 54.983 2.04567 54.9716 2.07714C54.9602 2.10861 54.9559 2.1422 54.9589 2.17553V17.3525C54.9589 17.4183 54.9851 17.4814 55.0316 17.5279C55.0781 17.5744 55.1412 17.6005 55.2069 17.6005H57.8233C57.889 17.6005 57.9521 17.5744 57.9986 17.5279C58.0451 17.4814 58.0712 17.4183 58.0712 17.3525V2.17057C58.0743 2.13724 58.07 2.10365 58.0586 2.07218C58.0472 2.0407 58.029 2.01212 58.0053 1.98845C57.9817 1.96479 57.9531 1.94662 57.9217 1.93524C57.8902 1.92385 57.8566 1.91953 57.8233 1.92258" fill="#727272"/>
</svg>
