<svg width="79" height="26" viewBox="0 0 79 26" fill="none" xmlns="http://www.w3.org/2000/svg">
<path d="M78.9094 14.638C78.8931 11.39 76.245 8.76294 72.9807 8.76294C69.7164 8.76294 67.0709 11.39 67.0527 14.638V21.7735H70.3333V14.638H70.3313C70.3476 13.1979 71.5299 12.0314 72.9807 12.0314C74.4315 12.0314 75.6119 13.1979 75.6308 14.638H75.6327V21.7735H78.9133V14.638H78.9094Z" fill="#727272"/>
<path d="M58.6351 18.9876C59.9056 18.9876 60.9199 18.4565 61.4793 17.7211L64.1207 19.2389C62.9281 20.9611 61.0223 21.9477 58.5859 21.9477C54.3194 21.9477 51.6289 19.0367 51.6289 15.2657C51.6289 11.4947 54.3461 8.58368 58.3318 8.58368C62.0899 8.58368 64.7559 11.5457 64.7559 15.2657C64.7559 15.7458 64.7047 16.1768 64.6289 16.6078H55.0572C55.5121 18.2788 56.9096 18.9876 58.6351 18.9876ZM61.4793 14.0768C61.0735 12.2546 59.7027 11.5212 58.3318 11.5212C56.5797 11.5212 55.3871 12.4568 55.0059 14.0768H61.4793Z" fill="#727272"/>
<path d="M49.7399 16.6341C49.7399 19.6717 47.2767 21.7718 44.205 21.7718H36.6641V4.05249H43.6722C46.6682 4.05249 49.08 6.07691 49.08 9.03896C49.08 10.5568 48.4448 11.7477 47.4038 12.5832C48.826 13.3942 49.7399 14.7854 49.7399 16.6341ZM40.1681 7.31893V11.2166H43.6722C44.7644 11.2166 45.576 10.3811 45.576 9.26776C45.576 8.15444 44.7891 7.31893 43.6722 7.31893H40.1681ZM46.2624 16.4053C46.2624 15.2164 45.3997 14.3298 44.205 14.3298H40.1681V18.5053H44.205C45.3977 18.5053 46.2624 17.6208 46.2624 16.4053Z" fill="#727272"/>
<path d="M20.7415 6.60895V12.992C20.6339 12.998 20.5242 13 20.4145 13C16.7644 13 13.817 15.9599 13.9165 19.5708C14.014 23.0519 17.0081 25.7821 20.5485 25.7821C24.0626 25.7821 26.9124 22.98 26.9124 19.5249V15.7961V13V6.60895H20.7415Z" fill="#727272"/>
<path d="M16.7578 0.217865H13.914H7.41406V6.28737H13.9059C13.912 6.39322 13.914 6.50107 13.914 6.60892C13.914 10.1979 16.9243 13.0958 20.5968 12.998C24.1373 12.9021 26.914 9.95825 26.914 6.4771V0.217865H16.7578Z" fill="#727272"/>
<path d="M7.41404 13C11.0642 13 14.0115 10.0401 13.912 6.42916C13.8145 2.94804 10.8205 0.217865 7.27795 0.217865C3.7639 0.217865 0.914062 3.01994 0.914062 6.4751V13V25.7821H7.27795C10.8205 25.7821 13.8145 23.0519 13.91 19.5708C14.0115 15.9598 11.0642 13 7.41404 13Z" fill="#727272"/>
</svg>
