<svg width="121" height="18" viewBox="0 0 121 18" fill="none" xmlns="http://www.w3.org/2000/svg">
<g clip-path="url(#clip0_3111_3506)">
<path d="M104.232 8.34592C105.747 8.34592 106.332 9.27331 106.413 10.0808C106.414 10.093 106.413 10.1053 106.409 10.1169C106.405 10.1285 106.399 10.1392 106.391 10.1482C106.382 10.1573 106.372 10.1645 106.361 10.1694C106.35 10.1743 106.338 10.1768 106.326 10.1767H102.163C102.151 10.1767 102.138 10.1741 102.127 10.169C102.116 10.1639 102.106 10.1564 102.097 10.1471C102.089 10.1377 102.083 10.1268 102.079 10.1149C102.076 10.103 102.075 10.0904 102.076 10.0781C102.189 9.28907 102.888 8.34592 104.232 8.34592ZM106.513 13.4802C106.486 13.48 106.458 13.4865 106.434 13.499C106.409 13.5115 106.388 13.5297 106.371 13.5521C105.996 14.0808 105.385 14.4069 104.473 14.4069C103.216 14.4069 102.125 13.5808 102.007 12.4103C102.006 12.3982 102.007 12.3859 102.011 12.3744C102.015 12.3628 102.021 12.3522 102.029 12.3432C102.038 12.3342 102.048 12.3269 102.059 12.322C102.07 12.317 102.082 12.3145 102.094 12.3144H109.573C109.594 12.2487 109.638 11.7473 109.638 11.2891C109.638 7.8014 107.558 5.73016 104.188 5.73016C101.365 5.73016 98.7598 7.95345 98.7598 11.4418C98.7598 15.0829 101.43 17.2192 104.429 17.2192C107.139 17.2192 108.856 15.7028 109.413 13.8699C109.417 13.8589 109.435 13.7904 109.456 13.6904C109.461 13.665 109.461 13.6387 109.454 13.6135C109.448 13.5882 109.437 13.5647 109.42 13.5445C109.404 13.5244 109.383 13.5082 109.36 13.497C109.336 13.4859 109.31 13.4801 109.284 13.4802H106.513ZM113.126 11.3863L109.58 6.33153C109.562 6.30531 109.551 6.27455 109.549 6.24263C109.547 6.21071 109.554 6.17884 109.569 6.1505C109.584 6.12217 109.606 6.09845 109.633 6.08194C109.661 6.06543 109.692 6.05676 109.724 6.05687H113.21C113.27 6.05687 113.325 6.08633 113.358 6.13564L115.18 8.90961C115.214 8.96235 115.292 8.96167 115.326 8.90825L117.106 6.1377C117.122 6.11293 117.144 6.09255 117.17 6.07842C117.195 6.06429 117.224 6.05688 117.254 6.05687H120.54C120.682 6.05687 120.765 6.21646 120.684 6.33222L117.185 11.2541C117.164 11.2834 117.153 11.3184 117.153 11.3544C117.153 11.3903 117.164 11.4254 117.184 11.4548C118.33 13.085 119.639 14.9685 120.813 16.6171C120.895 16.7329 120.813 16.8918 120.671 16.8918H117.208C117.179 16.8919 117.151 16.8848 117.125 16.8712C117.1 16.8576 117.078 16.8378 117.062 16.8137L115.173 13.9493C115.165 13.9373 115.154 13.9275 115.141 13.9207C115.128 13.9139 115.114 13.9103 115.1 13.9103C115.085 13.9103 115.071 13.9139 115.058 13.9207C115.046 13.9275 115.035 13.9373 115.027 13.9493C114.461 14.7904 113.721 15.9617 113.16 16.8137C113.144 16.8379 113.123 16.8577 113.097 16.8713C113.071 16.8849 113.043 16.892 113.014 16.8918H109.786C109.755 16.892 109.723 16.8834 109.696 16.867C109.669 16.8506 109.646 16.8271 109.632 16.7989C109.617 16.7707 109.61 16.7389 109.612 16.7071C109.614 16.6753 109.624 16.6447 109.643 16.6185L113.127 11.585C113.147 11.5558 113.158 11.5211 113.158 11.4856C113.158 11.4501 113.147 11.4155 113.127 11.3863H113.126ZM94.3385 16.7178V1.2829C94.3385 1.18633 94.4173 1.10824 94.5139 1.10824H97.4906C97.5872 1.10824 97.6659 1.18633 97.6659 1.2829V16.7178C97.6659 16.8137 97.5872 16.8918 97.4906 16.8918H94.5139C94.4909 16.8919 94.4682 16.8875 94.447 16.8788C94.4258 16.8701 94.4065 16.8573 94.3902 16.8411C94.3739 16.825 94.361 16.8058 94.3521 16.7846C94.3432 16.7635 94.3386 16.7408 94.3385 16.7178ZM89.4358 16.7178V1.2829C89.4358 1.18633 89.5146 1.10824 89.6111 1.10824H92.5879C92.6844 1.10824 92.7625 1.18633 92.7625 1.2829V16.7178C92.7625 16.8137 92.6844 16.8918 92.5879 16.8918H89.6111C89.5882 16.8919 89.5655 16.8875 89.5443 16.8788C89.523 16.8701 89.5037 16.8573 89.4874 16.8411C89.4712 16.825 89.4582 16.8058 89.4494 16.7846C89.4405 16.7635 89.4359 16.7408 89.4358 16.7178ZM82.0742 14.3411C83.4098 14.3411 84.5474 13.2952 84.5474 11.4637C84.5474 9.58907 83.431 8.60756 82.0742 8.60756C80.6516 8.60756 79.579 9.58907 79.579 11.4637C79.579 13.2514 80.6954 14.3418 82.0742 14.3418V14.3411ZM84.5694 15.4966C84.0879 16.5432 82.994 17.1973 81.6365 17.1973C78.4406 17.1973 76.2303 14.7774 76.2303 11.4418C76.2303 8.21578 78.3098 5.72948 81.5269 5.72948C83.4748 5.72948 84.3283 6.79797 84.5474 7.29934V6.23085C84.5474 6.13496 84.6255 6.05687 84.7228 6.05687H87.5899C87.6858 6.05687 87.7646 6.13496 87.7646 6.23153V16.7178C87.7646 16.8137 87.6865 16.8918 87.5899 16.8918H84.7248C84.7017 16.8918 84.6789 16.8872 84.6575 16.8783C84.6362 16.8694 84.6169 16.8564 84.6006 16.8399C84.5844 16.8235 84.5715 16.804 84.5629 16.7826C84.5542 16.7611 84.5499 16.7382 84.5502 16.7151C84.5557 16.3213 84.5694 15.411 84.5694 15.4966ZM69.131 6.17674L71.1248 12.2165C71.1522 12.2987 71.2687 12.2959 71.292 12.213L72.9954 6.18427C73.0057 6.14755 73.0278 6.11522 73.0582 6.09221C73.0886 6.06921 73.1257 6.0568 73.1639 6.05687H76.0543C76.1728 6.05687 76.257 6.17057 76.2221 6.2829L72.9598 16.7692C72.9488 16.8049 72.9266 16.8362 72.8965 16.8584C72.8664 16.8806 72.83 16.8925 72.7927 16.8925H69.7427C69.706 16.8924 69.6704 16.8809 69.6406 16.8595C69.6109 16.8381 69.5886 16.808 69.5769 16.7733L67.3372 10.1418C67.3098 10.0624 67.1968 10.063 67.1707 10.1418L64.9721 16.7719C64.9606 16.8068 64.9384 16.8372 64.9086 16.8587C64.8789 16.8802 64.8431 16.8918 64.8064 16.8918H61.6906C61.6534 16.8918 61.6172 16.88 61.5871 16.8581C61.5571 16.8362 61.5348 16.8053 61.5235 16.7699L58.2187 6.28359C58.2105 6.25741 58.2086 6.22967 58.2132 6.20262C58.2177 6.17557 58.2285 6.14997 58.2448 6.1279C58.2611 6.10582 58.2823 6.08789 58.3068 6.07555C58.3313 6.06321 58.3584 6.05681 58.3858 6.05687H61.4735C61.5516 6.05687 61.6207 6.10893 61.642 6.18427L63.3454 12.1939C63.3687 12.2761 63.4851 12.2788 63.5125 12.1973L65.5276 6.17674C65.5392 6.14182 65.5616 6.11144 65.5914 6.08993C65.6213 6.06842 65.6572 6.05685 65.694 6.05687H68.9646C69.0399 6.05687 69.1077 6.10482 69.131 6.17674ZM57.3159 9.11304C57.3159 9.13852 57.3103 9.16368 57.2996 9.18677C57.2888 9.20986 57.2731 9.23031 57.2536 9.24669C57.2341 9.26307 57.2112 9.27499 57.1866 9.2816C57.162 9.28821 57.1362 9.28935 57.1111 9.28496C56.8317 9.23772 56.5486 9.21526 56.2653 9.21783C54.9296 9.21783 53.7262 10.0028 53.7262 12.161V16.7178C53.7262 16.8137 53.6481 16.8918 53.5516 16.8918H50.5748C50.5519 16.8919 50.5292 16.8875 50.508 16.8788C50.4867 16.8701 50.4674 16.8573 50.4511 16.8411C50.4349 16.825 50.4219 16.8058 50.4131 16.7846C50.4042 16.7635 50.3996 16.7408 50.3995 16.7178V6.23153C50.3995 6.13564 50.4776 6.05687 50.5748 6.05687H53.442C53.5385 6.05687 53.6166 6.13496 53.6166 6.23153V7.51783C54.1858 6.2966 55.5653 5.94797 56.4406 5.94797C56.7064 5.94797 56.9721 5.97674 57.1796 6.02194C57.2598 6.03975 57.3159 6.11098 57.3159 6.19249V9.11304ZM45.431 16.7178V6.23153C45.431 6.13564 45.5098 6.05687 45.6064 6.05687H48.5831C48.6796 6.05687 48.7584 6.13496 48.7584 6.23153V16.7178C48.7584 16.8137 48.6796 16.8918 48.5831 16.8918H45.6064C45.5834 16.8919 45.5607 16.8875 45.5395 16.8788C45.5182 16.8701 45.4989 16.8573 45.4826 16.8411C45.4664 16.825 45.4534 16.8058 45.4446 16.7846C45.4357 16.7635 45.4311 16.7408 45.431 16.7178ZM47.0728 0.802765C48.1673 0.802765 49.0427 1.67468 49.0427 2.74318C49.0427 3.81167 48.1673 4.68359 47.0728 4.68359C46.0221 4.68359 45.1468 3.81167 45.1468 2.74318C45.1468 1.67468 46.0221 0.802765 47.0728 0.802765ZM34.8303 10.613H38.3481C38.4084 10.613 38.4509 10.5541 38.4303 10.4973L36.6933 5.50687C36.6875 5.4896 36.6763 5.4746 36.6615 5.46395C36.6467 5.4533 36.629 5.44753 36.6107 5.44745C36.5925 5.44738 36.5747 5.453 36.5598 5.46353C36.5449 5.47405 36.5336 5.48897 36.5276 5.50619L34.7488 10.4973C34.7283 10.5535 34.7707 10.6137 34.831 10.6137L34.8303 10.613ZM39.442 13.7528H33.692C33.6559 13.7528 33.6207 13.764 33.5913 13.7849C33.5619 13.8057 33.5396 13.8352 33.5276 13.8692L32.4933 16.7761C32.4813 16.8102 32.4589 16.8397 32.4293 16.8606C32.3998 16.8814 32.3645 16.8926 32.3283 16.8925H29.0721C29.0438 16.8926 29.0158 16.8859 28.9907 16.8729C28.9655 16.8598 28.9439 16.8408 28.9278 16.8176C28.9116 16.7943 28.9013 16.7675 28.8978 16.7394C28.8943 16.7112 28.8977 16.6827 28.9077 16.6562L34.6201 1.54797C34.6326 1.51471 34.655 1.48608 34.6842 1.46588C34.7135 1.44569 34.7482 1.4349 34.7838 1.43496H38.5468C38.6194 1.43496 38.6851 1.48016 38.7105 1.54866L44.3584 16.6569C44.3681 16.6833 44.3713 16.7117 44.3677 16.7396C44.3641 16.7676 44.3537 16.7942 44.3376 16.8173C44.3214 16.8404 44.3 16.8592 44.275 16.8722C44.25 16.8851 44.2222 16.8919 44.194 16.8918H40.8057C40.7695 16.8918 40.7342 16.8806 40.7047 16.8597C40.6751 16.8389 40.6528 16.8094 40.6406 16.7754L39.6064 13.8692C39.5942 13.8353 39.572 13.8059 39.5426 13.785C39.5131 13.7642 39.478 13.7529 39.442 13.7528Z" fill="#727272"/>
<path fill-rule="evenodd" clip-rule="evenodd" d="M24.6909 7.23347C25.1169 7.64817 25.4124 8.17838 25.541 8.75885C25.6697 9.33932 25.6258 9.94473 25.4148 10.5006L23.8073 14.8677C23.3854 16.0143 22.4237 16.9013 21.2354 17.1328C20.641 17.2518 20.0254 17.2069 19.4545 17.003C18.8836 16.7991 18.3788 16.4439 17.9943 15.9752L8.35455 4.42593C8.33059 4.39751 8.29958 4.37588 8.26463 4.3632C8.22968 4.35053 8.19201 4.34725 8.1554 4.3537C8.11878 4.36015 8.0845 4.3761 8.05599 4.39995C8.02747 4.42381 8.00572 4.45473 7.99291 4.48963L4.85661 12.9725C4.79154 13.1479 4.96414 13.3177 5.13537 13.2479L8.984 11.6759C9.20098 11.588 9.43379 11.5458 9.66783 11.5521C9.90187 11.5583 10.1321 11.6129 10.3441 11.7123C10.556 11.8117 10.7452 11.9539 10.8996 12.1298C11.054 12.3058 11.1705 12.5118 11.2415 12.7348C11.5258 13.6068 11.0477 14.5485 10.2059 14.8924L5.17852 16.9451C4.2477 17.3252 3.17852 17.2581 2.34017 16.6985C1.76885 16.3167 1.34291 15.7535 1.13114 15.0998C0.919374 14.4461 0.934135 13.7401 1.17305 13.0958L4.87853 3.07662C5.31757 1.88895 6.31757 1.05059 7.55387 0.834153C8.15592 0.72626 8.77586 0.780757 9.34986 0.992034C9.92386 1.20331 10.4312 1.56374 10.8196 2.03621L16.3525 8.66634L21.4415 6.58758C22.5724 6.12593 23.8176 6.37319 24.6909 7.23347ZM21.7559 10.5636C21.8203 10.3883 21.6477 10.2184 21.4765 10.2889L18.6648 11.4369L20.3511 13.4581C20.375 13.4869 20.4061 13.5088 20.4412 13.5217C20.4764 13.5346 20.5143 13.538 20.5511 13.5315C20.5879 13.5251 20.6224 13.509 20.6511 13.4849C20.6797 13.4608 20.7015 13.4296 20.7141 13.3944L21.7552 10.5636H21.7559Z" fill="#727272"/>
</g>
<defs>
<clipPath id="clip0_3111_3506">
<rect width="120" height="16.4384" fill="white" transform="translate(0.914062 0.780823)"/>
</clipPath>
</defs>
</svg>
