<svg width="48" height="24" viewBox="0 0 48 24" fill="none" xmlns="http://www.w3.org/2000/svg">
<path d="M9.0142 7.5914C7.03522 7.58847 5.12345 8.30916 3.6389 9.61777V1.84163C3.6389 1.4803 3.49536 1.13376 3.23985 0.87826C2.98435 0.622757 2.63781 0.479218 2.27648 0.479218C1.91514 0.479218 1.56861 0.622757 1.31311 0.87826C1.0576 1.13376 0.914062 1.4803 0.914062 1.84163V15.5534C0.914062 19.9434 4.54452 23.5208 9.00358 23.5208C13.4626 23.5208 17.0957 19.9488 17.0957 15.5534C17.0957 11.1581 13.4653 7.58609 9.00358 7.58609L9.0142 7.5914ZM9.00358 20.8278C7.96313 20.8111 6.95084 20.4872 6.09385 19.897C5.23686 19.3068 4.57339 18.4765 4.18679 17.5104C3.80018 16.5443 3.70767 15.4855 3.92089 14.467C4.1341 13.4485 4.64353 12.5157 5.38518 11.7858C6.12683 11.0559 7.06763 10.5614 8.0894 10.3645C9.11117 10.1676 10.1684 10.277 11.1282 10.679C12.088 11.081 12.9076 11.7576 13.484 12.6239C14.0605 13.4902 14.3681 14.5076 14.3683 15.5481C14.3563 16.9581 13.7862 18.3059 12.7827 19.2964C11.7793 20.2869 10.4242 20.8395 9.0142 20.8331" fill="#848484"/>
<path d="M25.3557 22.9604C23.897 22.9625 22.4705 22.5318 21.2567 21.7229C20.0428 20.914 19.0962 19.7631 18.5367 18.416C17.9771 17.0689 17.8297 15.5861 18.1132 14.1552C18.3967 12.7243 19.0983 11.4097 20.1292 10.3777C21.1601 9.34567 22.474 8.64266 23.9045 8.35763C25.3351 8.0726 26.8181 8.21836 28.1658 8.77646C29.5135 9.33455 30.6654 10.2799 31.4756 11.4929C32.2859 12.7058 32.7181 14.1319 32.7176 15.5906C32.7169 17.5436 31.9413 19.4165 30.561 20.7983C29.1808 22.18 27.3087 22.9576 25.3557 22.9604ZM25.3557 9.7479C24.2002 9.7479 23.0705 10.0906 22.1097 10.7326C21.1489 11.3746 20.4 12.2871 19.9578 13.3547C19.5155 14.4223 19.3998 15.5971 19.6253 16.7305C19.8507 17.8639 20.4072 18.9049 21.2243 19.722C22.0414 20.5392 23.0825 21.0956 24.2159 21.3211C25.3493 21.5465 26.524 21.4308 27.5916 20.9886C28.6593 20.5464 29.5718 19.7975 30.2138 18.8367C30.8558 17.8758 31.1985 16.7462 31.1985 15.5906C31.1985 14.041 30.5829 12.5549 29.4872 11.4592C28.3914 10.3635 26.9053 9.7479 25.3557 9.7479Z" fill="#848484"/>
<path d="M40.9201 8.60059C42.3032 8.59796 43.6559 9.00568 44.8072 9.77216C45.9584 10.5386 46.8564 11.6294 47.3875 12.9064C47.9186 14.1835 48.0589 15.5893 47.7907 16.9461C47.5225 18.3029 46.8578 19.5497 45.8808 20.5286C44.9037 21.5075 43.6583 22.1745 42.302 22.4453C40.9457 22.7161 39.5395 22.5785 38.2615 22.0498C36.9835 21.5211 35.891 20.6252 35.1223 19.4754C34.3537 18.3256 33.9434 16.9737 33.9434 15.5906V1.08207C33.9513 0.986485 33.995 0.897393 34.0655 0.832456C34.1361 0.767518 34.2285 0.731476 34.3245 0.731476C34.4204 0.731476 34.5128 0.767518 34.5834 0.832456C34.654 0.897393 34.6976 0.986485 34.7056 1.08207V12.4276C35.2871 11.2781 36.1756 10.3121 37.2725 9.63665C38.3694 8.96117 39.6319 8.60257 40.9201 8.60059ZM40.9201 21.8158C42.1518 21.8179 43.3564 21.4546 44.3815 20.7718C45.4066 20.0891 46.2062 19.1176 46.679 17.9802C47.1518 16.8429 47.2766 15.5909 47.0376 14.3827C46.7986 13.1744 46.2065 12.0642 45.3363 11.1925C44.4662 10.3209 43.357 9.72692 42.1491 9.48586C40.9413 9.24479 39.689 9.36745 38.5509 9.8383C37.4128 10.3092 36.4399 11.107 35.7554 12.131C35.0709 13.1549 34.7056 14.3589 34.7056 15.5906C34.7063 17.2396 35.3609 18.8209 36.5259 19.9879C37.6909 21.1549 39.2711 21.8122 40.9201 21.8158Z" fill="#848484"/>
</svg>
