<svg width="189" height="152" viewBox="0 0 189 152" fill="none" xmlns="http://www.w3.org/2000/svg">
<path d="M0.884369 141.295C2.17845 140.109 3.87306 139.138 4.65875 137.675C5.49837 136.126 7.71678 135.764 7.88625 134.701C8.3176 131.959 11.3756 132.244 12.2846 130.072C12.8006 128.832 14.5954 128.154 15.7354 127.137C17.561 125.504 19.3172 123.794 21.0966 122.115C21.2507 121.969 21.3739 121.745 21.5511 121.691C24.1315 120.859 25.803 118.964 27.5978 117.031C28.7917 115.737 30.9716 115.406 32.5584 114.404C35.2313 112.717 37.7809 110.83 40.4076 109.059C40.8774 108.743 41.4243 108.496 41.9713 108.35C44.5902 107.657 47.2015 106.132 49.9206 107.711C50.7987 108.219 51.3148 109.382 51.9541 110.276C52.3392 110.807 52.8939 111.369 52.9478 111.947C53.071 113.341 53.0556 114.774 52.8784 116.168C52.7706 116.985 52.5164 117.624 53.6641 117.67C53.6102 118.803 53.5024 119.927 53.5255 121.06C53.5486 122.184 55.3434 123.016 54.1032 124.38C53.8798 124.626 53.6718 124.88 53.356 125.25C54.0185 125.566 54.5346 125.805 55.0969 126.074C52.2622 127.515 55.9981 129.656 54.3266 131.096C54.9813 131.628 56.545 131.859 54.7425 132.899C54.5577 133.007 54.8966 134.879 55.4512 135.248C56.5758 136.011 56.4603 136.381 55.898 137.513C55.3742 138.568 55.6515 140.016 55.5744 141.318C56.7992 141.534 58.178 141.565 57.4 143.382C57.3769 143.429 57.4 143.529 57.4385 143.56C59.7263 145.462 59.2333 149.73 63.1155 150.238C63.6008 150.3 64.1323 149.984 64.864 149.791C64.9873 150.122 65.1876 150.654 65.4032 151.224C66.7281 151.224 68.1609 151.517 69.401 151.155C71.1496 150.639 72.8596 149.791 74.4001 148.805C76.1025 147.719 77.6507 146.363 79.1836 145.023C80.2774 144.068 81.2171 142.928 82.257 141.904C83.6281 140.548 85.1764 139.346 86.378 137.867C89.0971 134.516 92.2861 131.543 94.3582 127.646C95.3595 125.758 96.9925 124.195 98.3097 122.469C98.5408 122.161 98.6255 121.745 98.8104 121.399C99.8888 119.434 100.906 117.432 102.084 115.529C103.093 113.896 104.957 112.486 105.258 110.776C105.681 108.319 107.214 106.578 108.139 104.499C110.149 99.9616 112.629 95.6403 114.902 91.2189C115.803 89.4627 116.666 87.6833 117.536 85.9117C118.075 84.8179 118.584 83.7164 119.115 82.6226C120.894 78.9714 122.628 75.2972 124.484 71.6845C126.209 68.3184 128.112 65.0447 129.853 61.6863C130.615 60.2227 130.947 58.505 131.863 57.1647C132.895 55.655 134.005 53.9449 134.629 52.4814C136.246 48.6685 138.518 45.2869 140.49 41.7128C142.532 38.0155 144.95 34.5261 147.161 30.9212C148.817 28.2252 150.874 25.8296 152.746 23.2954C154.818 20.4993 156.62 17.4027 159.116 15.038C163.237 11.1249 166.765 6.49552 171.903 3.73791C172.781 3.26803 173.859 2.906 174.83 2.93681C175.43 2.95222 176 3.80723 176.285 4.63914C176.902 4.90103 177.518 5.17063 178.126 5.43253C177.818 5.82537 177.379 6.172 177.241 6.61106C177.117 7.01931 177.325 7.5277 177.395 8.02838C176.255 8.3519 174.776 14.8762 175.715 16.463C173.536 18.1653 173.204 19.4748 175.061 21.0847C173.15 20.299 173.012 21.1617 172.603 22.371C171.756 24.9053 171.001 27.5396 169.16 29.6348C168.552 30.3204 168.937 31.938 169.784 32.5234C167.242 32.6774 167.373 35.1577 166.264 36.5519C165.871 37.0526 165.609 37.6997 165.44 38.3236C165.263 38.9629 165.263 39.6562 165.147 40.6344C163.799 40.6344 163.314 42.1827 162.713 43.5923C161.85 45.6028 161.034 47.6286 160.14 49.7854C160.364 49.924 160.864 50.2322 161.342 50.5249C160.941 51.5416 158.661 50.9716 159.57 52.8742C159.062 53.1053 158.554 53.3287 157.752 53.683C158.646 53.9295 159.201 54.0836 159.747 54.2299C159.778 54.4071 159.809 54.5843 159.832 54.7537C157.213 54.6305 156.882 56.587 156.204 58.2893C155.827 59.2291 155.141 60.0456 154.833 61.0007C154.594 61.7325 154.856 62.6106 154.664 63.3655C154.494 64.0279 154.017 64.621 153.608 65.2835C153.215 65.9228 152.753 66.5236 152.453 67.2015C151.713 68.8807 151.02 70.5907 150.365 72.3085C149.356 74.9505 148.316 77.5849 147.461 80.2732C147.107 81.3824 147.192 82.6302 147.053 84.1477C147.146 84.0861 146.714 84.3711 146.152 84.7485C146.429 84.9565 146.56 85.0643 146.691 85.1491C147.038 85.3725 147.392 85.5881 147.739 85.8038C147.438 86.0965 147.138 86.6357 146.838 86.628C144.873 86.5895 146.183 88.261 145.582 88.9081C146.984 89.3625 145.828 90.0019 145.736 90.595C145.559 91.7273 144.781 92.952 146.252 93.9072C146.514 94.0767 146.352 94.9008 146.368 95.4246C146.383 95.933 146.499 96.4722 146.368 96.9421C145.597 99.8307 149.456 100.093 149.534 102.565C149.549 103.027 150.496 103.89 150.935 103.836C152.684 103.644 152.915 104.807 153.054 105.515C154.24 106.162 155.056 106.709 155.942 107.071C157.175 107.564 158.461 107.926 159.724 108.335C160.233 108.496 160.733 108.697 161.257 108.766C162.074 108.866 162.782 110.653 163.714 108.935C164.092 109.166 164.462 109.598 164.839 109.598C167.597 109.613 170.431 109.952 173.089 109.405C176.293 108.751 179.582 107.903 182.155 105.523C183.657 104.137 185.313 102.927 186.869 101.61C187.093 101.417 187.162 101.04 187.285 100.747C187.832 99.4917 188.317 98.2054 188.926 96.9883C189.319 96.2026 188.078 94.3925 186.938 94.223C186.615 94.1768 186.291 94.1614 186.345 94.1614C185.814 95.4555 185.367 96.557 184.92 97.6508C185.436 97.9281 185.906 98.19 186.384 98.4519C185.914 98.6598 185.406 98.7985 184.99 99.0835C184.543 99.3916 184.158 99.7999 183.796 100.208C182.833 101.31 181.785 102.265 180.453 102.95C180.098 103.135 180.121 104.052 180.052 104.321C171.556 107.711 162.983 107.657 154.563 103.32C153.431 102.18 152.014 100.763 150.373 99.1143C150.196 98.5674 149.765 97.566 149.557 96.5184C148.925 93.3834 149.094 90.2406 149.664 87.1056C150.589 82.0448 151.952 77.1227 153.993 72.3855C155.434 69.0425 156.859 65.684 158.168 62.2871C159.27 59.4216 159.902 56.3482 161.303 53.6522C162.012 52.2965 162.867 51.0564 163.368 49.5466C163.791 48.2602 164.747 47.1664 165.386 45.9417C166.98 42.9068 168.714 39.9258 170.046 36.7753C172.65 30.6516 175.068 24.4431 177.464 18.2269C178.512 15.5078 179.829 12.7271 180.06 9.90017C180.222 7.85892 180.645 5.6328 179.405 3.30655C178.227 1.07273 176.956 -0.359998 174.591 0.0790628C172.257 0.510421 170.031 1.60422 167.805 2.53626C167.489 2.66721 167.481 3.52993 167.342 4.01521C164.654 2.71343 165.186 7.8127 162.266 6.54173C163.137 9.29164 161.049 8.6215 159.886 9.00664C160.04 9.14529 160.194 9.28394 160.348 9.42259C159.17 10.7706 158.014 12.1417 156.797 13.4589C156.358 13.9364 155.657 14.1829 155.288 14.699C154.171 16.2704 153.5 18.7199 152.029 19.3361C150.15 20.1218 150.404 20.7457 150.943 22.0167C150.989 22.1246 150.912 22.2863 150.874 22.5867C148.825 22.3556 148.001 23.3724 148.232 25.3828C148.263 25.6679 148.101 26.2302 148.001 26.2379C145.366 26.4073 145.243 29.5347 142.717 30.3358C143.317 30.5977 143.564 30.7132 143.795 30.8133C141.607 32.1382 136.963 40.5805 137.779 42.0749C137.301 41.9285 136.939 41.8207 136.739 41.7591C136.015 42.7912 135.337 43.7695 134.682 44.7169C135.183 45.1329 135.676 45.5411 136.392 46.1343C134.297 45.7722 132.033 47.5901 131.686 50.0165C131.432 51.8266 130.608 53.2902 129.837 54.8462C129.506 55.5163 129.267 56.225 128.805 57.3881C127.203 57.4497 126.502 58.6976 127.396 60.9006C126.702 61.1933 126.094 61.4398 125.324 61.7633C125.662 62.133 125.901 62.3949 125.724 62.2024C125.146 63.4733 124.692 64.4901 124.484 64.9446C122.481 68.6342 120.717 71.8001 119.061 75.0199C118.799 75.5359 119.023 76.2985 119.023 77.0303C118.129 77.1767 115.787 80.1807 115.834 81.4209C115.841 81.7059 115.641 81.9986 115.549 82.2913C114.84 84.3634 114.27 86.5048 113.369 88.4921C112.914 89.4935 111.851 90.2098 111.066 91.0571C111.019 91.1034 110.973 91.1881 110.981 91.242C111.343 93.2756 109.725 94.5619 109.124 96.2334C109.063 96.4029 109.047 96.7187 108.97 96.7418C106.413 97.2656 107.992 98.5366 108.524 99.7922C106.59 99.2144 106.082 100.27 105.858 101.841C105.781 102.403 105.188 102.881 104.926 103.443C104.657 104.013 104.511 104.637 104.141 105.746C104.202 105.723 103.709 105.9 103.085 106.116C103.216 107.734 102.677 108.897 101.306 110.168C99.8503 111.516 99.3727 113.888 98.3251 115.737C97.8244 116.631 97.0002 117.339 96.3224 118.133C96.1915 118.287 95.9296 118.495 95.9604 118.579C96.9155 120.859 94.2349 121.229 93.7728 122.785C92.7868 126.128 89.2204 127.715 88.0265 130.827C86.9249 133.723 84.1134 134.879 82.4727 137.174C81.6485 138.329 80.5393 139.285 79.7151 140.44C79.484 140.763 79.7844 141.472 79.8383 141.996C78.2053 141.742 74.431 144.353 73.9996 145.817C70.2175 147.242 66.6588 149.537 62.5224 146.826C62.4531 146.679 62.1835 146.048 61.8753 145.439C60.7738 143.228 59.3488 141.11 58.6402 138.784C58.0856 136.966 58.4784 134.879 58.2935 132.922C58.2011 131.921 57.323 130.827 57.5618 130.003C58.0779 128.246 57.4 126.821 57.0919 125.227C56.7761 123.563 56.961 121.815 56.907 120.104C56.8762 119.196 56.7607 118.287 56.753 117.378C56.753 116.885 56.8839 116.384 56.9764 115.776C56.7838 115.645 56.0982 115.429 56.052 115.105C55.6515 112.656 55.3742 110.191 55.0583 107.734C54.8504 107.688 54.6501 107.634 54.4421 107.587C54.2804 107.934 54.1109 108.273 53.8028 108.935C53.6179 106.232 51.8078 104.36 49.3351 104.144C46.9935 103.936 44.6826 104.306 42.5336 105.323C42.21 105.477 42.0791 106.024 41.848 106.393C40.1765 105.408 36.8489 107.141 36.6871 109.166C36.2866 109.012 35.7397 108.604 35.4547 108.735C34.4302 109.228 33.4057 109.806 32.5661 110.553C31.8574 111.185 31.4184 112.109 30.8792 112.872C30.2861 112.925 29.2693 112.717 28.6993 113.126C27.4206 114.042 26.5425 115.745 25.1714 116.253C23.2688 116.962 22.0517 117.848 21.6743 119.866C19.1016 120.012 13.1704 125.25 13.3321 127.538C10.8441 126.151 10.1432 128.555 8.94923 129.664C7.61664 130.896 6.90027 132.914 5.45215 133.877C3.88077 134.925 2.94873 136.427 1.63155 137.536C0.11409 138.822 0.214233 139.847 0.861267 141.28L0.853561 141.295H0.884369Z" fill="#323232"/>
</svg>
