<svg width="46" height="54" viewBox="0 0 46 54" fill="none" xmlns="http://www.w3.org/2000/svg">
<path d="M22.9958 34.7872C23.0284 35.0266 23.0937 34.4064 22.8326 33.9929C22.2994 33.1333 22.8979 31.0332 20.5258 31.9364C19.8947 32.1758 18.8065 31.2073 17.7293 30.7068C19.1983 29.0637 19.6879 27.2683 22.4735 28.9658C24.1819 30.0104 27.5986 30.5544 28.2188 27.5621C29.481 27.4315 30.21 27.3554 31.5702 27.2139C30.4386 27.9756 29.6007 28.4761 28.839 29.0637C28.4255 29.3793 27.9794 29.8145 27.8706 30.2824C27.7944 30.598 28.197 31.2726 28.5235 31.4032C31.7878 32.6872 35.0848 33.8841 38.371 35.0919C38.5015 35.1463 38.7192 34.994 39.4264 34.7546C38.3383 33.068 37.4243 31.4467 36.3035 29.9669C35.1284 28.4 33.7573 26.9636 32.2666 25.2335C33.3112 22.165 35.1284 20.609 38.001 20.7178V16.8441C37.8922 16.7897 37.3808 16.5394 37.359 16.5286C36.4994 17.04 35.9553 17.4752 35.3351 17.7037C34.334 18.0737 33.1915 18.1281 32.2775 18.6286C30.1012 19.8256 26.913 19.5862 25.5855 17.6167C24.6389 16.213 24.3233 14.3958 23.5725 12.8398C22.8326 11.3273 21.8968 9.90191 20.776 7.97593C20.7543 7.97593 19.9382 8.1065 18.7521 8.29148C19.4268 8.90083 19.7858 9.21639 20.1449 9.54282C19.4812 9.8475 18.9153 10.0978 18.3604 10.3589C19.0677 11.1859 19.7641 12.0129 20.2973 12.644C19.2853 12.9704 18.0775 13.3621 16.8588 13.7647C16.9567 13.9932 17.0438 14.2326 17.1417 14.4611H20.0035C18.6324 16.8768 17.4355 18.9986 16.2386 21.1204C15.5422 22.35 15.4334 24.2325 13.083 23.3402C12.169 22.992 10.9503 23.264 11.9187 24.8853C12.0493 25.103 11.6685 25.8864 11.3311 26.0823C9.67719 27.0289 9.04608 29.3684 6.59781 29.3358C6.15168 29.3358 5.68379 30.8374 4.97651 32.0887C7.72946 31.8058 9.35076 29.8689 11.4726 30.8156C12.2778 30.1736 13.2898 29.3466 14.3126 28.5197C15.2375 29.7384 16.108 30.87 17.1308 32.2193C16.2712 32.5566 15.5857 32.8286 14.737 33.1659C15.5966 34.6458 15.8033 36.0495 13.9862 37.0941C13.5509 37.3443 13.1157 38.0516 13.1265 38.5304C13.1809 40.4999 13.4095 42.4694 13.5509 44.3083C15.2049 43.5357 16.8044 42.7849 18.4257 42.0341C16.9785 40.7284 17.3593 39.5097 18.8609 38.1278C19.8729 37.192 20.504 35.8536 21.4398 34.4934C24.2907 37.3334 20.7978 40.0102 21.6356 42.6979C20.6019 42.8393 19.5138 42.9808 17.9578 43.1875C18.8501 44.1233 19.4485 44.7436 20.4278 45.7773C19.1547 45.984 18.2516 46.1363 17.1744 46.3104C17.392 46.6369 17.6858 47.0612 18.2407 47.8882C16.9676 48.2582 15.8142 48.5411 14.7043 48.9437C14.1385 49.1504 13.6488 49.5639 13.1157 49.8795C13.5291 50.2821 13.9426 50.6956 14.6608 51.4029C13.7903 51.4899 13.2462 51.5334 12.5172 51.6096C12.5934 51.936 12.7239 52.491 12.8327 52.9806C11.6793 52.9806 10.4171 53.3397 9.62279 52.8827C8.73053 52.3713 7.90356 51.1961 7.71858 50.1842C7.52271 49.1178 8.16471 47.91 8.3388 46.7457C8.41497 46.2234 8.09942 45.6467 8.20823 45.1462C8.34969 44.5042 8.61084 43.514 9.0352 43.3943C10.6021 42.9264 10.1995 42.1973 9.54662 41.316C10.2104 40.9895 10.8632 40.674 11.5161 40.3475C11.5923 40.304 11.6358 40.1952 11.0265 40.0864C11.1026 38.3889 11.1788 36.6806 11.2876 34.3411C10.1886 34.7328 8.76317 35.4184 7.27245 35.7121C5.31383 36.093 3.15935 36.6262 1.36395 36.1256C0.547855 35.8971 -0.279118 33.1442 0.0908434 31.882C0.547854 30.3259 2.15827 29.042 3.4205 27.7906C5.28118 25.9626 7.25068 24.2325 9.23106 22.535C9.93834 21.9256 10.8197 21.5339 11.8208 20.9246C11.7011 20.4349 11.4726 19.4556 11.1679 18.1934C12.2343 18.5851 13.0177 18.8789 14.1385 19.2924C15.2919 12.9595 16.4453 6.67018 17.6531 0C20.1776 0.772566 22.615 0.816091 23.6051 2.03479C24.5736 3.23172 24.0513 5.62559 24.1927 7.58421H26.8369C26.8695 7.78007 26.9022 7.97593 26.9348 8.18267C26.271 8.43294 25.5964 8.69409 25.0088 8.9226C26.6084 11.6647 28.1209 14.2544 29.6769 16.9203C34.0294 16.6591 37.8487 10.2175 43.953 14.6135C42.9846 15.299 42.2447 15.8322 41.3851 16.4415C42.2556 17.1161 43.0825 17.769 44.6821 19.0095C39.0347 18.4654 39.6441 23.1117 37.9466 25.3859C38.2948 25.7776 38.8062 26.3434 39.3176 26.9201C38.6865 27.301 38.0445 27.6927 37.2937 28.1497C37.4678 28.5523 37.6963 29.0637 37.9139 29.5751C38.186 29.499 38.371 29.5099 38.4798 29.4119C39.7638 28.2585 40.6234 28.487 41.2436 30.1192C41.5483 30.9244 42.125 31.6317 42.5385 32.4043C43.6919 34.5696 44.8235 36.735 45.9552 38.8786C41.4721 41.4792 37.4134 40.674 33.3982 37.0614C32.3536 36.1256 30.5474 35.9624 29.0458 35.6469C27.1959 35.266 25.2917 35.1137 22.9958 34.809V34.7872Z" fill="black"/>
</svg>
