<svg width="134" height="24" viewBox="0 0 134 24" fill="none" xmlns="http://www.w3.org/2000/svg">
<path d="M17.5352 4.96762C13.4524 4.96762 12.0038 8.25714 11.9048 8.4981C11.4154 7.42307 10.6211 6.51542 9.62054 5.88779C8.61992 5.26017 7.45703 4.9402 6.27619 4.96762C4.60374 4.9933 3.00989 5.68181 1.84476 6.8819C0.667852 8.09408 0.00661531 9.71525 0 11.4048C0 18.34 6.54286 23.961 11.9048 23.961C17.2648 23.961 23.8095 18.34 23.8095 11.4048C23.8027 9.71558 23.1414 8.09479 21.9648 6.88286C20.8003 5.68346 19.2076 4.99501 17.5362 4.96857L17.5352 4.96762ZM18.6114 11.6695C18.6114 13.479 17.9048 15.2143 16.6467 16.4933C16.0286 17.1249 15.2908 17.627 14.4765 17.9703C13.6621 18.3135 12.7875 18.491 11.9038 18.4924C11.0201 18.491 10.1455 18.3135 9.33115 17.9703C8.51681 17.627 7.77904 17.1249 7.16095 16.4933C5.89969 15.2048 5.19453 13.4726 5.19714 11.6695V11.4743H7.56857V11.6695C7.56649 12.836 8.02235 13.9567 8.83809 14.7905C9.23793 15.1989 9.71513 15.5235 10.2418 15.7454C10.7685 15.9673 11.3342 16.082 11.9057 16.0829C12.4773 16.082 13.0429 15.9673 13.5696 15.7454C14.0963 15.5235 14.5735 15.1989 14.9733 14.7905C15.7897 13.9569 16.2462 12.8362 16.2448 11.6695V11.4743H18.6162L18.6114 11.6695ZM123.79 4.97429C118.275 4.97429 114.248 9.02381 114.248 14.4867C114.248 19.9486 118.278 24 123.79 24C129.303 24 133.333 19.9505 133.333 14.4857C133.333 8.92762 129.305 4.97524 123.79 4.97524V4.97429ZM123.79 20.1457C120.768 20.1457 118.707 17.8048 118.707 14.4867C118.707 11.1676 120.768 8.82952 123.79 8.82952C126.813 8.82952 128.873 11.1705 128.873 14.4867C128.873 17.8019 126.81 20.1457 123.79 20.1457ZM102.599 4.97429C97.0848 4.97429 93.0562 9.02381 93.0562 14.4867C93.0562 19.9486 97.0867 24 102.599 24C108.111 24 112.145 19.9505 112.145 14.4857C112.137 8.92762 108.11 4.97524 102.599 4.97524V4.97429ZM102.599 20.1457C99.5781 20.1457 97.5162 17.8048 97.5162 14.4867C97.5162 11.1676 99.5781 8.82952 102.599 8.82952C105.62 8.82952 107.682 11.1705 107.682 14.4867C107.682 17.8019 105.615 20.1457 102.599 20.1457ZM40.6829 4.97429C37.7095 4.97429 35.5019 6.29143 34.2076 8.53619V0H30.1771V14C30.1771 19.9505 33.6295 24 39.5752 24C44.4667 24 49.0229 20.4381 49.0229 14.3905C49.0162 9.26762 46.0057 4.97524 40.6829 4.97524V4.97429ZM39.5324 19.9505C36.2724 19.9505 34.4019 17.561 34.4019 14.4867C34.4019 11.3657 36.2229 8.82952 39.4848 8.82952C42.6029 8.82952 44.5686 11.3657 44.5686 14.4867C44.5667 17.561 42.7924 19.9505 39.5324 19.9505ZM60.5838 4.97524C55.6924 4.97524 51.1362 8.53714 51.1362 14.5848C51.1362 19.7076 54.1562 23.9905 59.4819 23.9905C62.4543 23.9905 64.66 22.6733 65.9543 20.4286V23.8048H69.9848V14.9762C69.9829 9.02381 66.5295 4.97524 60.5838 4.97524ZM60.5838 20.1467C57.3714 20.1467 55.6048 17.7057 55.6048 14.5848C55.6048 11.5124 57.381 9.02381 60.6409 9.02381C63.9009 9.02381 65.7714 11.4143 65.7714 14.4867C65.7619 17.6095 63.8438 20.1467 60.5838 20.1467ZM86.9105 0V8.53714C85.6162 6.29143 83.4114 4.97524 80.4381 4.97524C75.1133 4.97524 72.0924 9.26762 72.0924 14.38C72.0924 20.5276 76.36 23.9895 81.339 23.9895C87.2857 23.9895 90.9295 19.9419 90.9295 13.9895V0.00285694L86.9105 0ZM81.5876 19.9505C78.3276 19.9505 76.5524 17.561 76.5524 14.4867C76.5524 11.3657 78.52 8.82952 81.6352 8.82952C84.8981 8.82952 86.719 11.3171 86.719 14.4867C86.7143 17.561 84.8476 19.9505 81.5876 19.9505Z" fill="#323232"/>
</svg>
