<svg width="123" height="28" viewBox="0 0 123 28" fill="none" xmlns="http://www.w3.org/2000/svg">
<mask id="mask0_3830_8057" style="mask-type:luminance" maskUnits="userSpaceOnUse" x="0" y="0" width="123" height="28">
<path d="M122.796 0H0V28H122.796V0Z" fill="white"/>
</mask>
<g mask="url(#mask0_3830_8057)">
<path d="M10.1614 0H0V5.62161C0 7.70669 1.6909 9.3976 3.77598 9.3976V3.1927H9.36321C11.8805 3.1927 13.2313 4.48206 13.2313 6.72309C13.2313 9.33251 11.5428 10.2842 9.36321 10.2842H3.77598C1.6909 10.2842 0 11.9751 0 14.0602V21.9191H3.77598V13.4781H10.1614C14.6128 13.4781 17.038 10.7152 17.038 6.72432C17.038 2.73344 14.614 0 10.1614 0Z" fill="#323232"/>
<path d="M17.9463 17.4062C17.9463 14.5512 20.218 13.1083 24.1475 12.7706C27.4323 12.525 28.7229 12.1566 28.7229 10.7752C28.7229 9.30162 27.4028 8.44204 25.5609 8.44204C23.5347 8.44204 22.1533 9.20952 22.0305 11.205H18.6229C18.6229 8.19645 21.4165 5.64844 25.5609 5.64844C29.2755 5.64844 32.1919 7.39828 32.1919 11.2971V19.156H33.4812V21.9189H30.9639C29.8588 21.9189 28.9378 21.0594 28.9378 19.9542V19.5244H28.8457C27.5256 21.3357 25.4995 22.318 23.3199 22.318C20.0658 22.318 17.9463 20.4454 17.9463 17.4062ZM24.1475 19.5244C26.4499 19.5244 28.7524 17.9281 28.7524 14.9809V13.9986C27.8314 14.674 26.3885 14.9195 24.8536 15.073C22.6739 15.3186 21.5074 16.0247 21.5074 17.4062C21.5074 18.7876 22.6739 19.5244 24.1475 19.5244Z" fill="#323232"/>
<path d="M34.8951 25.0816H38.5176L39.7456 21.9503L33.5137 6.04688H37.1669L41.3419 17.8354H41.434L45.6091 6.04688H49.2316L41.2498 26.2788C40.8507 27.2919 39.807 27.998 38.7018 27.998H34.8951V25.0816Z" fill="#323232"/>
<path d="M54.1155 8.50364H54.2076C55.1285 6.5082 57.1547 5.64863 59.1808 5.64863C63.2638 5.64863 64.6453 8.04315 64.6453 11.4201V21.9191H61.1763V11.6042C61.1763 9.793 60.1632 8.59574 58.3212 8.59574C55.5276 8.59574 54.1155 10.6833 54.1155 13.3541V21.9204H50.6465V0H54.1155V8.50364Z" fill="#323232"/>
<path d="M67.041 17.4062C67.041 14.5512 69.3127 13.1083 73.2422 12.7706C76.527 12.525 77.8176 12.1566 77.8176 10.7752C77.8176 9.30162 76.4976 8.44204 74.6556 8.44204C72.6295 8.44204 71.248 9.20952 71.1252 11.205H67.7176C67.7176 8.19645 70.5112 5.64844 74.6556 5.64844C78.3702 5.64844 81.2866 7.39828 81.2866 11.2971V19.156H82.576V21.9189H80.0586C78.9535 21.9189 78.0325 21.0594 78.0325 19.9542V19.5244H77.9404C76.6203 21.3357 74.5942 22.318 72.4146 22.318C69.1605 22.318 67.041 20.4454 67.041 17.4062ZM73.2422 19.5244C75.5447 19.5244 77.8471 17.9281 77.8471 14.9809V13.9986C76.9261 14.674 75.4833 14.9195 73.9483 15.073C71.7687 15.3186 70.6021 16.0247 70.6021 17.4062C70.6021 18.7876 71.7687 19.5244 73.2422 19.5244Z" fill="#323232"/>
<path d="M82.792 6.04688H86.5062L89.8217 18.2663H89.9142L92.9841 6.04688H96.2996L99.3695 18.2663H99.4612L102.777 6.04688H106.522L101.487 21.9195H97.5578L94.7032 10.6825H94.6107L91.725 21.9195H87.7955L82.792 6.04688Z" fill="#323232"/>
<path d="M107.938 0H111.406V13.9386L118.437 6.04772H122.612L116.226 12.8629L122.796 21.9191H118.744L114.108 15.1653L111.406 18.051V21.9191H107.938V0Z" fill="#323232"/>
</g>
</svg>
