<svg width="176" height="26" viewBox="0 0 176 26" fill="none" xmlns="http://www.w3.org/2000/svg">
<path d="M42.0787 20.8609C41.3578 20.8609 40.7023 20.8609 39.9814 20.8609C39.9814 20.6676 39.9814 20.5387 39.9814 20.3454C39.9814 18.2191 39.9814 16.0285 39.9814 13.9022C39.9814 13.1934 39.8503 12.4847 39.5881 11.8404C39.2604 10.9383 38.5394 10.3585 37.5563 10.1007C35.0002 9.45645 33.0339 10.8739 33.0339 13.4512C32.9684 15.7063 33.0339 18.0258 33.0339 20.281C33.0339 20.4743 33.0339 20.6676 33.0339 20.8609C32.313 20.8609 31.6575 20.8609 30.9365 20.8609C30.9365 16.7372 30.9365 12.5492 30.9365 8.42551C31.592 8.42551 32.313 8.42551 33.0339 8.42551C33.0339 9.00539 33.0339 9.64974 33.0339 10.294C35.9177 7.26574 39.1949 7.45903 41.62 10.8095C41.751 10.6162 41.8821 10.4229 42.0132 10.294C43.2585 8.55434 45.4869 7.84562 47.6498 8.36105C49.6816 8.87656 51.058 10.4229 51.1235 12.7425C51.2547 15.4486 51.1235 18.1547 51.1235 20.9253C50.4681 20.9253 49.7471 20.9253 49.0918 20.9253C49.0918 20.732 49.0918 20.5387 49.0918 20.3454C49.0918 18.2836 49.0918 16.1573 49.0918 14.0955C49.0918 13.4512 49.0262 12.8068 48.8295 12.1626C48.5019 11.0672 47.7153 10.4229 46.6011 10.1652C44.1761 9.58528 42.2753 10.8739 42.1443 13.3224C42.0132 15.6419 42.0787 18.0258 42.0787 20.3454C42.0787 20.4098 42.0787 20.6031 42.0787 20.8609Z" fill="#323232"/>
<path d="M104.802 10.6814C104.802 8.36189 104.802 6.17118 104.802 3.98047C105.523 3.98047 106.178 3.98047 106.899 3.98047C106.899 9.58604 106.899 15.1916 106.899 20.7972C106.244 20.7972 105.523 20.7972 104.802 20.7972C104.802 20.024 104.802 19.2508 104.802 18.4133C104.671 18.5421 104.671 18.5421 104.605 18.6065C102.705 21.6993 98.4439 21.6348 96.216 19.6374C94.5116 18.091 93.9216 16.1581 94.0527 13.9675C94.1183 12.1633 94.7738 10.6814 96.1504 9.4572C98.3784 7.52425 101.984 7.58871 103.949 9.6505C104.212 9.97263 104.474 10.2948 104.802 10.6814ZM104.802 14.6117C104.736 14.2251 104.736 13.7742 104.671 13.3876C104.277 11.7123 103.229 10.4881 101.525 10.1015C99.755 9.71496 98.2481 10.1659 97.1337 11.5835C96.0849 12.8721 96.0193 14.354 96.3471 15.9004C96.7404 17.5756 97.7237 18.7354 99.4272 19.1864C101.066 19.6374 102.443 19.1864 103.623 17.9622C104.474 16.9957 104.802 15.836 104.802 14.6117Z" fill="#323232"/>
<path d="M145.832 10.6821C145.832 9.84443 145.832 9.13571 145.832 8.36253C146.552 8.36253 147.208 8.36253 147.929 8.36253C147.929 12.4861 147.929 16.6098 147.929 20.7978C147.273 20.7978 146.552 20.7978 145.832 20.7978C145.832 20.0246 145.832 19.2514 145.832 18.4139C145.701 18.5427 145.701 18.6072 145.635 18.6072C143.734 21.6999 139.474 21.6355 137.245 19.638C135.542 18.0917 134.952 16.1587 135.083 13.9681C135.214 12.164 135.803 10.6821 137.18 9.45784C139.409 7.52488 143.013 7.65372 144.98 9.65113C145.308 9.97327 145.504 10.2955 145.832 10.6821ZM137.245 14.548C137.311 14.9989 137.311 15.45 137.442 15.8366C137.901 17.5762 138.95 18.8005 140.785 19.1871C142.554 19.5737 143.996 18.9293 145.045 17.5118C145.832 16.4809 145.963 15.2567 145.832 14.0325C145.635 11.262 143.079 9.39338 140.392 10.1022C138.425 10.5532 137.245 12.2928 137.245 14.548Z" fill="#323232"/>
<path d="M120.926 10.7444C120.926 9.90672 120.926 9.13354 120.926 8.42481C121.647 8.42481 122.302 8.42481 123.023 8.42481C123.023 12.5484 123.023 16.7365 123.023 20.8601C122.368 20.8601 121.647 20.8601 120.926 20.8601C120.926 20.0869 120.926 19.3782 120.926 18.605C120.86 18.5406 120.795 18.5406 120.729 18.4762C120.729 18.5406 120.729 18.605 120.729 18.6695C118.828 21.7622 114.502 21.6977 112.274 19.636C110.636 18.0896 110.046 16.221 110.177 14.0304C110.242 12.2907 110.898 10.7444 112.274 9.52013C114.502 7.58717 118.107 7.65163 120.074 9.71342C120.336 9.97118 120.598 10.2933 120.926 10.7444ZM112.274 14.5458C112.34 14.9969 112.34 15.4478 112.471 15.8344C112.929 17.5741 113.978 18.7983 115.813 19.1849C117.583 19.5715 119.025 18.9271 120.074 17.5097C120.86 16.4788 120.991 15.2545 120.86 14.0304C120.664 11.2598 118.107 9.39129 115.42 10.1C113.519 10.5511 112.274 12.2907 112.274 14.5458Z" fill="#323232"/>
<path d="M88.5472 20.8629C88.5472 20.0897 88.5472 19.3166 88.5472 18.5434C88.1539 18.9944 87.8261 19.4455 87.4328 19.8321C85.5982 21.4428 82.5827 21.5717 80.4851 20.0897C77.2083 17.8347 76.8805 12.4868 79.7648 9.71625C81.9928 7.65446 86.515 7.3967 88.4161 10.5539C88.4161 10.6183 88.4816 10.6183 88.5472 10.6827C88.5472 9.90954 88.5472 9.13636 88.5472 8.36318C89.2682 8.36318 89.9238 8.36318 90.6448 8.36318C90.6448 12.4868 90.6448 16.6749 90.6448 20.7985C89.9893 20.8629 89.3338 20.8629 88.5472 20.8629ZM88.6127 14.6131C88.5472 14.2265 88.5472 13.8399 88.4816 13.4533C88.0883 11.7137 87.105 10.5539 85.3359 10.1028C83.566 9.65179 82.0583 10.1673 80.9439 11.5847C79.8959 12.8734 79.8304 14.3553 80.1581 15.9017C80.5506 17.5125 81.5339 18.7367 83.2383 19.1877C84.8771 19.6388 86.2528 19.1877 87.4328 18.028C88.285 16.997 88.6127 15.8372 88.6127 14.6131Z" fill="#323232"/>
<path d="M66.2629 17.2515C65.8697 18.2824 65.2798 19.0556 64.4933 19.7644C61.2817 22.4061 56.0384 21.053 54.7276 17.1227C54.1377 15.4475 54.1377 13.7722 54.7276 12.097C55.1208 10.8727 55.8417 9.90626 56.8904 9.19754C60.1675 6.87799 65.1487 8.29552 66.394 11.9037C66.7873 12.999 66.8528 14.0944 66.6562 15.3185C63.3136 15.3185 59.9709 15.3185 56.5627 15.3185C56.4316 17.3804 58.0046 19.1844 60.0365 19.3134C61.675 19.4422 63.0514 18.9911 63.9689 17.4448C64.0345 17.3159 64.1656 17.2515 64.2967 17.2515C64.8866 17.2515 65.5419 17.2515 66.2629 17.2515ZM64.4933 13.7722C64.4933 12.3547 63.9689 11.195 62.7237 10.4861C61.2817 9.64859 59.8398 9.64859 58.3979 10.4218C57.1526 11.1305 56.6283 12.3547 56.4971 13.7722C59.1844 13.7722 61.8061 13.7722 64.4933 13.7722Z" fill="#323232"/>
<path d="M169.557 8.16797C173.359 8.16797 175.98 10.8097 175.98 14.6112C175.98 18.3483 173.228 21.0544 169.361 21.0544C165.625 21.0544 163.068 18.4126 163.068 14.6112C163.134 10.8097 165.756 8.16797 169.557 8.16797ZM165.297 14.6112C165.363 15.1266 165.428 15.7065 165.494 16.222C165.953 18.155 167.395 19.3146 169.295 19.3791C171.327 19.3791 173.031 18.1549 173.556 16.2864C173.817 15.3199 173.817 14.289 173.621 13.3226C173.228 11.3896 171.655 9.97209 169.623 9.90763C167.526 9.84317 165.887 11.0029 165.428 13.0648C165.363 13.5158 165.363 14.0958 165.297 14.6112Z" fill="#323232"/>
<path d="M125.972 8.36226C126.496 8.36226 127.021 8.36226 127.545 8.36226C127.545 7.3314 127.545 6.30047 127.545 5.26953C128.266 5.26953 128.922 5.26953 129.708 5.26953C129.708 6.30047 129.708 7.26695 129.708 8.36226C130.822 8.36226 131.871 8.36226 132.985 8.36226C132.985 8.94214 132.985 9.45766 132.985 10.0375C131.936 10.0375 130.887 10.0375 129.708 10.0375C129.708 10.2308 129.708 10.4241 129.708 10.553C129.708 12.937 129.708 15.2565 129.708 17.6404C129.708 18.8647 130.036 19.1868 131.281 19.1868C131.805 19.1868 132.395 19.1868 132.985 19.1868C132.985 19.7667 132.985 20.2822 132.985 20.862C131.674 20.7976 130.364 21.0553 129.118 20.5399C128.069 20.0888 127.61 19.1223 127.61 18.0915C127.545 16.0941 127.61 14.0967 127.61 12.0993C127.61 11.5194 127.61 11.004 127.61 10.4241C127.61 10.1664 127.479 10.0375 127.217 10.0375C126.824 10.0375 126.431 10.0375 125.972 10.0375C125.972 9.45766 125.972 8.94214 125.972 8.36226Z" fill="#323232"/>
<path d="M68.7539 10.0375C68.7539 9.45766 68.7539 8.94214 68.7539 8.36226C69.2782 8.36226 69.8026 8.36226 70.3925 8.36226C70.3925 7.3314 70.3925 6.30047 70.3925 5.26953C71.1134 5.26953 71.7688 5.26953 72.5553 5.26953C72.5553 6.30047 72.5553 7.26695 72.5553 8.36226C73.6695 8.36226 74.7182 8.36226 75.8324 8.36226C75.8324 8.94214 75.8324 9.45766 75.8324 10.0375C74.7837 10.0375 73.735 10.0375 72.5553 10.0375C72.5553 10.2308 72.5553 10.4241 72.5553 10.553C72.5553 12.937 72.5553 15.2565 72.5553 17.6404C72.5553 18.8647 72.883 19.1868 74.1284 19.1868C74.7182 19.1868 75.2425 19.1868 75.8324 19.1868C75.8324 19.7667 75.8324 20.2822 75.8324 20.9265C74.5216 20.8621 73.1452 21.1198 71.8999 20.5399C70.8512 20.0244 70.4579 19.1224 70.4579 18.027C70.3925 15.5787 70.4579 13.1303 70.4579 10.6818C70.4579 10.0375 70.4579 10.0375 69.8026 10.0375C69.4093 10.0375 69.1471 10.0375 68.7539 10.0375Z" fill="#323232"/>
<path d="M6.75081 25.4998C4.52237 25.4998 2.29401 25.4998 0 25.4998C0 23.3091 0 21.1829 0 18.9922C2.22845 18.9922 4.4569 18.9922 6.75081 18.9922C6.75081 21.1184 6.75081 23.3091 6.75081 25.4998Z" fill="#323232"/>
<path d="M15.2713 25.4998C13.0429 25.4998 10.8144 25.4998 8.52051 25.4998C8.52051 23.3091 8.52051 21.1829 8.52051 18.9922C10.7489 18.9922 12.9773 18.9922 15.2713 18.9922C15.2713 21.1184 15.2713 23.3091 15.2713 25.4998Z" fill="#323232"/>
<path d="M23.9892 17.3827C21.7607 17.3827 19.5323 17.3827 17.2383 17.3827C17.2383 15.192 17.2383 13.0657 17.2383 10.875C19.4667 10.875 21.6952 10.875 23.9892 10.875C23.9892 13.0013 23.9892 15.192 23.9892 17.3827Z" fill="#323232"/>
<path d="M15.3367 17.3827C13.1083 17.3827 10.8799 17.3827 8.58594 17.3827C8.58594 15.192 8.58594 13.0657 8.58594 10.875C10.8144 10.875 13.0428 10.875 15.3367 10.875C15.3367 13.0657 15.3367 15.192 15.3367 17.3827Z" fill="#323232"/>
<path d="M17.1064 25.4998C17.1064 23.3091 17.1064 21.1829 17.1064 18.9922C19.3349 18.9922 21.5633 18.9922 23.8572 18.9922C23.8572 21.1829 23.8572 23.3091 23.8572 25.4998C21.6288 25.4998 19.4004 25.4998 17.1064 25.4998Z" fill="#323232"/>
<path d="M8.58594 9.00764C8.58594 6.81693 8.58594 4.69068 8.58594 2.5C10.8144 2.5 13.0428 2.5 15.3367 2.5C15.3367 4.69068 15.3367 6.81693 15.3367 9.00764C13.1083 9.00764 10.8799 9.00764 8.58594 9.00764Z" fill="#323232"/>
<path d="M0.0654297 2.43359C2.29387 2.43359 4.52231 2.43359 6.75075 2.43359C6.75075 4.62431 6.75075 6.75056 6.75075 8.94119C4.52231 8.94119 2.29387 8.94119 0.0654297 8.94119C0.0654297 6.81494 0.0654297 4.68869 0.0654297 2.43359Z" fill="#323232"/>
<path d="M0.0654297 17.2538C0.0654297 15.0631 0.0654297 12.9368 0.0654297 10.7461C2.29387 10.7461 4.52231 10.7461 6.81631 10.7461C6.81631 12.9368 6.81631 15.0631 6.81631 17.2538C4.52231 17.2538 2.29387 17.2538 0.0654297 17.2538Z" fill="#323232"/>
<path d="M24.3824 8.61843C22.1539 8.03854 20.0566 7.45865 17.8281 6.81431C18.418 4.68806 19.0079 2.62625 19.5977 0.5C21.8261 1.07989 23.989 1.65977 26.1519 2.30409C25.562 4.36593 24.9722 6.49218 24.3824 8.61843Z" fill="#323232"/>
<path d="M159.922 20.863C159.202 20.863 158.546 20.863 157.891 20.863C157.891 16.675 157.891 12.5513 157.891 8.36328C158.218 8.36328 158.546 8.36328 158.874 8.36328C159.202 8.36328 159.529 8.36328 159.922 8.36328C159.922 12.4869 159.922 16.675 159.922 20.863Z" fill="#323232"/>
<path d="M158.94 6.36232C158.154 6.36232 157.498 5.71805 157.498 4.94487C157.498 4.17169 158.154 3.52734 158.875 3.52734C159.661 3.52734 160.317 4.10723 160.317 4.94487C160.382 5.65359 159.727 6.29794 158.94 6.36232Z" fill="#323232"/>
<path d="M152.937 20.8623C153.696 20.8503 154.302 20.2349 154.291 19.4876C154.278 18.7404 153.652 18.1444 152.892 18.1564C152.132 18.1684 151.526 18.7839 151.538 19.5311C151.55 20.2783 152.176 20.8743 152.937 20.8623Z" fill="#323232"/>
</svg>
