<svg width="169" height="26" viewBox="0 0 169 26" fill="none" xmlns="http://www.w3.org/2000/svg">
<path d="M20.6384 4.62891H16.6723V7.41987C16.6723 7.93399 16.2316 8.37467 15.7175 8.37467H8.96045C8.81355 8.37467 8.66666 8.52156 8.66666 8.66845V10.7984C8.66666 10.9453 8.81355 11.0922 8.96045 11.0922H13.5141C14.0282 11.0922 14.4689 11.5329 14.4689 12.047V13.8831C14.4689 14.3973 14.0282 14.8379 13.5141 14.8379H8.96045C8.81355 14.8379 8.66666 14.9848 8.66666 15.1317V19.4651C8.66666 19.9792 8.22598 20.4199 7.71186 20.4199H4.9209V24.0922C4.9209 24.6063 5.36158 25.047 5.8757 25.047H20.6384C21.1525 25.047 21.5932 24.6063 21.5932 24.0922V5.65715C21.6667 5.06958 21.226 4.62891 20.6384 4.62891Z" fill="#323232"/>
<path d="M5.87571 4.62712H16.6723V0.954802C16.6723 0.440678 16.2316 0 15.7175 0H0.954802C0.440678 0 0 0.440678 0 0.954802V19.6102C0 20.1243 0.440678 20.565 0.954802 20.565H4.9209V5.65537C4.9209 5.0678 5.36158 4.62712 5.87571 4.62712Z" fill="#323232"/>
<path d="M31.5081 4.77344H40.9826C41.203 4.77344 41.3499 4.92033 41.3499 5.14067V6.97683C41.3499 7.19717 41.203 7.34406 40.9826 7.34406H34.299C34.0787 7.34406 33.9318 7.49095 33.9318 7.71129V11.1633C33.9318 11.3836 34.0787 11.5305 34.299 11.5305H38.6324C38.8527 11.5305 38.9996 11.6774 38.9996 11.8977V13.7339C38.9996 13.9542 38.8527 14.1011 38.6324 14.1011H34.299C34.0787 14.1011 33.9318 14.248 33.9318 14.4684V20.3441C33.9318 20.5644 33.7849 20.7113 33.5646 20.7113H31.4346C31.2143 20.7113 31.0674 20.5644 31.0674 20.3441V5.14067C31.1408 4.92033 31.2877 4.77344 31.5081 4.77344Z" fill="#323232"/>
<path d="M39.5137 15.2026C39.5137 14.3947 39.6606 13.5868 39.9544 12.9258C40.2481 12.2648 40.6888 11.6772 41.2029 11.1631C41.7171 10.6489 42.3781 10.2817 43.0391 10.0614C44.508 9.54725 46.1238 9.54725 47.5928 10.0614C48.2538 10.2817 48.9148 10.7224 49.4289 11.1631C49.9431 11.6772 50.3837 12.2648 50.6775 12.9258C50.9713 13.6602 51.1182 14.4682 51.1182 15.2026C51.1182 16.0105 50.9713 16.8184 50.6775 17.4795C50.3837 18.1405 49.9431 18.728 49.4289 19.2422C48.9148 19.7563 48.2538 20.1235 47.5928 20.4173C46.1238 20.9314 44.508 20.9314 43.0391 20.4173C42.3781 20.197 41.7171 19.7563 41.2029 19.2422C40.6888 18.728 40.2481 18.1405 39.9544 17.4795C39.6606 16.8184 39.5137 16.0105 39.5137 15.2026ZM42.2312 15.2026C42.2312 15.6433 42.3046 16.0105 42.4515 16.3778C42.5984 16.745 42.8188 17.1122 43.1125 17.406C44.2877 18.6546 46.3442 18.728 47.5928 17.5529C47.6662 17.4795 47.6662 17.4795 47.7397 17.406C48.0334 17.1122 48.2538 16.745 48.4007 16.3778C48.6945 15.5698 48.6945 14.7619 48.4007 13.954C48.2538 13.5868 48.0334 13.2196 47.7397 12.9258C47.1521 12.2648 46.2707 11.8975 45.4628 11.971C44.5815 11.971 43.7736 12.3382 43.186 12.9258C42.8922 13.2196 42.6719 13.5868 42.525 13.954C42.3046 14.3947 42.2312 14.7619 42.2312 15.2026Z" fill="#323232"/>
<path d="M52.3672 9.84066H54.3503C54.5706 9.84066 54.7175 9.98755 54.7175 10.2079V11.5299C55.0113 10.9424 55.452 10.4282 55.9661 10.061C56.5537 9.69377 57.2147 9.54688 57.8757 9.54688C58.0226 9.54688 58.1695 9.54688 58.3898 9.62032C58.4633 9.62032 58.5367 9.62032 58.6102 9.69377C58.7571 9.69377 58.9039 9.84066 58.9039 10.061V11.8972C58.9039 12.1175 58.7571 12.2644 58.5367 12.2644H58.4633C58.3898 12.2644 58.3164 12.2644 58.2429 12.1909C57.9492 12.1175 57.8023 12.1175 57.5819 12.1175C56.9209 12.1175 56.4802 12.2644 56.0395 12.4847C55.6723 12.7051 55.3785 12.9254 55.1582 13.2926C54.9378 13.5864 54.8644 13.8802 54.791 14.174C54.7175 14.3943 54.7175 14.6147 54.7175 14.835V20.1966C54.7175 20.4169 54.5706 20.5638 54.3503 20.5638H52.3672C52.1469 20.5638 52 20.4169 52 20.1966V10.2079C52 9.98755 52.1469 9.84066 52.3672 9.84066Z" fill="#323232"/>
<path d="M60.0793 9.84143H61.9154C62.1358 9.84143 62.2827 9.98832 62.2827 10.2087V11.5307H62.3561C62.6499 11.0166 63.0171 10.5024 63.5312 10.2087C64.0454 9.84143 64.7798 9.62109 65.6612 9.62109C67.1301 9.62109 68.1584 10.1352 68.7459 11.09C68.8194 11.2369 69.0397 11.3104 69.2601 11.2369L69.3335 11.1635C69.6273 10.7228 69.9945 10.3556 70.5086 10.1352C71.0962 9.84143 71.7572 9.62109 72.5651 9.62109C73.2996 9.62109 73.8872 9.76799 74.4013 9.98833C74.842 10.2087 75.2827 10.5759 75.5764 10.9431C75.8702 11.3838 76.0906 11.8979 76.2375 12.4121C76.3844 12.9996 76.4578 13.5872 76.4578 14.1748V20.1974C76.4578 20.4177 76.3109 20.5646 76.0906 20.5646H74.1075C73.8872 20.5646 73.7403 20.4177 73.7403 20.1974V14.4686C73.7403 14.1748 73.7403 13.8075 73.6668 13.5137C73.5934 13.22 73.5199 12.9262 73.3731 12.7058C73.2262 12.4855 73.0058 12.2652 72.7855 12.1917C72.4917 12.0448 72.1245 11.9714 71.8307 11.9714C71.4635 11.9714 71.0962 12.0448 70.8024 12.1917C70.5087 12.3386 70.2883 12.5589 70.068 12.8527C69.8476 13.1465 69.7742 13.4403 69.7007 13.7341C69.6273 14.1013 69.5538 14.3951 69.5538 14.7623V20.1974C69.5538 20.4177 69.407 20.5646 69.1866 20.5646H67.2036C66.9832 20.5646 66.8363 20.4177 66.8363 20.1974V14.1748C66.8363 13.5137 66.6894 12.9996 66.3957 12.5589C66.1019 12.1917 65.6612 11.9714 65.0002 11.9714C64.6329 11.9714 64.1923 12.0448 63.8985 12.1917C63.6047 12.3386 63.3109 12.5589 63.164 12.7793C62.9437 12.9996 62.7968 13.3669 62.7233 13.6606C62.6499 14.0279 62.5764 14.3217 62.5764 14.6889V20.1974C62.5764 20.4177 62.4296 20.5646 62.2092 20.5646H60.2262C60.0058 20.5646 59.8589 20.4177 59.8589 20.1974V10.2087C59.712 9.98832 59.8589 9.84143 60.0793 9.84143Z" fill="#323232"/>
<path d="M83.9487 4.77344H85.9317C86.0786 4.77344 86.2255 4.84688 86.2255 4.99378L92.7622 20.1237C92.8357 20.2706 92.7622 20.491 92.5419 20.5644C92.4684 20.5644 92.4684 20.5644 92.395 20.5644H89.9713C89.8244 20.5644 89.6775 20.491 89.6775 20.3441L88.3555 17.1859C88.282 17.039 88.2086 16.9655 88.0617 16.9655H81.6718C81.5249 16.9655 81.3781 17.039 81.3781 17.1859L80.1295 20.3441C80.056 20.491 79.9826 20.5644 79.8357 20.5644H77.4854C77.2651 20.5644 77.1182 20.4175 77.1182 20.1972C77.1182 20.1237 77.1182 20.1237 77.1182 20.0503L83.6549 4.92033C83.6549 4.84688 83.8018 4.77344 83.9487 4.77344ZM87.1069 14.0277L85.1973 8.95988C85.1238 8.81298 84.9035 8.66609 84.7566 8.73954C84.6831 8.73954 84.6097 8.88643 84.5362 8.95988L82.5532 14.0277C82.4797 14.1746 82.5532 14.3949 82.7735 14.4684C82.847 14.4684 82.847 14.4684 82.9204 14.4684H86.8131C87.0334 14.4684 87.1803 14.3215 87.1803 14.1011C87.1069 14.1746 87.1069 14.1011 87.1069 14.0277Z" fill="#323232"/>
<path d="M99.8131 12.5589C99.6662 12.7058 99.4459 12.7058 99.299 12.5589C98.8583 12.0448 98.1238 11.751 97.3894 11.751C97.0222 11.751 96.6549 11.8245 96.3611 12.0448C95.9939 12.1917 95.847 12.5589 95.847 12.9262C95.847 13.22 95.9939 13.5137 96.2877 13.6606C96.6549 13.8075 97.0222 13.9544 97.3894 14.0279C97.8301 14.1013 98.2707 14.2482 98.7849 14.3217C99.299 14.3951 99.7397 14.6154 100.18 14.8358C100.621 15.0561 100.988 15.4234 101.282 15.7906C101.576 16.1578 101.723 16.7454 101.723 17.4064C101.723 18.0674 101.576 18.5815 101.282 19.0222C100.988 19.4629 100.621 19.8301 100.18 20.0505C99.7397 20.3443 99.2255 20.4911 98.7114 20.638C98.1973 20.7849 97.6097 20.7849 97.0956 20.7849C96.2877 20.7849 95.5532 20.638 94.8188 20.4177C94.2312 20.1974 93.6436 19.8301 93.2029 19.3895C93.0561 19.2426 93.0561 19.0222 93.2029 18.8753L94.4515 17.7002C94.5984 17.5533 94.8188 17.5533 94.9657 17.7002C95.2594 17.994 95.5532 18.2143 95.847 18.4347C96.2142 18.655 96.7284 18.8019 97.3159 18.8019C97.5363 18.8019 97.7566 18.8019 97.9035 18.7284C98.1238 18.655 98.2707 18.5815 98.4911 18.5081C98.638 18.4347 98.7849 18.2878 98.9318 18.1409C99.0786 17.994 99.0786 17.7736 99.0786 17.6267C99.0786 17.2595 98.9318 16.9657 98.638 16.8188C98.2707 16.5985 97.977 16.4516 97.5363 16.3782C97.0956 16.2313 96.6549 16.1578 96.1408 16.0844C95.6267 16.0109 95.186 15.864 94.7453 15.6437C94.3046 15.4234 93.9374 15.1296 93.6436 14.7623C93.3498 14.3951 93.2029 13.8075 93.2029 13.1465C93.2029 12.6324 93.3498 12.0448 93.5702 11.6041C93.7905 11.1635 94.1577 10.7962 94.525 10.5024C94.9657 10.2087 95.4063 9.98832 95.9205 9.84143C96.4346 9.69454 96.9487 9.62109 97.5363 9.62109C98.2707 9.62109 99.0052 9.76799 99.6662 9.98833C100.254 10.2087 100.768 10.5024 101.135 10.9431C101.282 11.09 101.282 11.3104 101.135 11.4573L99.8131 12.5589Z" fill="#323232"/>
<path d="M108.847 12.5589C108.7 12.7058 108.48 12.7058 108.333 12.5589C107.892 12.0448 107.158 11.751 106.424 11.751C106.056 11.751 105.689 11.8245 105.395 12.0448C105.028 12.1917 104.881 12.5589 104.881 12.9262C104.881 13.22 105.028 13.5137 105.322 13.6606C105.689 13.8075 106.056 13.9544 106.424 14.0279C106.864 14.1013 107.305 14.2482 107.819 14.3217C108.333 14.3951 108.774 14.6154 109.215 14.8358C109.655 15.0561 110.022 15.4234 110.316 15.7906C110.61 16.1578 110.757 16.7454 110.757 17.4064C110.757 18.0674 110.61 18.5815 110.316 19.0222C110.022 19.4629 109.655 19.8301 109.215 20.0505C108.774 20.3443 108.26 20.4911 107.746 20.638C107.231 20.7849 106.644 20.7849 106.13 20.7849C105.322 20.7849 104.587 20.638 103.853 20.4177C103.265 20.1974 102.678 19.8301 102.237 19.3895C102.09 19.2426 102.09 19.0222 102.237 18.8753L103.486 17.7002C103.633 17.5533 103.853 17.5533 104 17.7002C104.294 17.994 104.587 18.2143 104.881 18.4347C105.248 18.655 105.763 18.8019 106.35 18.8019C106.57 18.8019 106.791 18.8019 106.938 18.7284C107.158 18.655 107.305 18.5815 107.525 18.5081C107.672 18.4347 107.819 18.2878 107.966 18.1409C108.113 17.994 108.113 17.7736 108.113 17.6267C108.113 17.2595 107.966 16.9657 107.672 16.8188C107.305 16.5985 107.011 16.4516 106.57 16.3782C106.13 16.2313 105.689 16.1578 105.175 16.0844C104.661 16.0109 104.22 15.864 103.779 15.6437C103.339 15.4234 102.972 15.1296 102.678 14.7623C102.384 14.3951 102.237 13.8075 102.237 13.1465C102.237 12.6324 102.384 12.0448 102.604 11.6041C102.825 11.1635 103.192 10.7962 103.559 10.5024C104 10.2087 104.441 9.98832 104.955 9.84143C105.469 9.69454 105.983 9.62109 106.57 9.62109C107.305 9.62109 108.039 9.76799 108.7 9.98833C109.288 10.2087 109.802 10.5024 110.169 10.9431C110.316 11.09 110.316 11.3104 110.169 11.4573L108.847 12.5589Z" fill="#323232"/>
<path d="M114.356 16.157C114.136 16.157 113.989 16.3039 113.989 16.5242V16.5977C114.136 17.1852 114.43 17.6994 114.87 18.0666C115.384 18.5073 116.045 18.7276 116.78 18.7276C117.441 18.7276 118.029 18.5807 118.469 18.2869C118.836 18.0666 119.13 17.7728 119.424 17.479C119.571 17.3321 119.718 17.3321 119.865 17.479L121.26 18.5073C121.407 18.6542 121.481 18.8745 121.334 19.0214C120.819 19.609 120.232 20.0497 119.497 20.3434C118.763 20.6372 117.882 20.8576 117.074 20.8576C116.266 20.8576 115.531 20.7107 114.797 20.4903C114.136 20.27 113.475 19.8293 112.961 19.3152C112.447 18.8011 112.006 18.2135 111.712 17.5525C111.125 16.0836 111.125 14.3943 111.712 12.9254C112.006 12.2643 112.447 11.6768 112.961 11.1627C113.475 10.6485 114.136 10.2813 114.797 9.98751C115.531 9.69373 116.266 9.54683 117.074 9.62028C117.808 9.62028 118.469 9.76717 119.13 9.98751C119.718 10.2078 120.305 10.6485 120.746 11.0892C121.187 11.6033 121.554 12.2643 121.774 12.9254C121.995 13.7333 122.142 14.5412 122.142 15.4225V15.7898C122.142 16.0101 121.995 16.157 121.774 16.157H114.356ZM119.057 14.1005C119.277 14.1005 119.424 13.9536 119.424 13.7333C119.424 13.7333 119.424 13.7333 119.424 13.6598C119.351 13.0723 119.13 12.5581 118.69 12.1909C118.249 11.7502 117.514 11.5299 116.707 11.5299C115.899 11.5299 115.238 11.7502 114.797 12.1909C114.43 12.5581 114.136 13.0723 113.989 13.5864C113.916 13.8067 114.062 13.9536 114.283 14.0271H114.356L119.057 14.1005Z" fill="#323232"/>
<path d="M123.39 9.84143H125.226C125.446 9.84143 125.593 9.98832 125.593 10.2087V11.5307H125.667C125.96 11.0166 126.328 10.5024 126.842 10.2087C127.356 9.84143 128.09 9.62109 128.972 9.62109C130.441 9.62109 131.469 10.1352 132.056 11.09C132.13 11.2369 132.35 11.3104 132.57 11.2369C132.644 11.2369 132.644 11.1635 132.644 11.1635C132.938 10.7228 133.305 10.3556 133.746 10.1352C134.333 9.84143 134.994 9.62109 135.802 9.62109C136.537 9.62109 137.124 9.76799 137.638 9.98833C138.079 10.2087 138.52 10.5759 138.813 10.9431C139.107 11.3838 139.328 11.8979 139.474 12.4121C139.621 12.9996 139.695 13.5872 139.695 14.1748V20.1974C139.695 20.4177 139.548 20.5646 139.328 20.5646H137.344C137.124 20.5646 136.977 20.4177 136.977 20.1974V14.4686C136.977 14.1748 136.977 13.8075 136.904 13.5137C136.83 13.22 136.757 12.9262 136.61 12.7058C136.463 12.4855 136.243 12.2652 136.022 12.1917C135.729 12.0448 135.361 11.9714 135.068 11.9714C134.7 11.9714 134.333 12.0448 134.039 12.1917C133.746 12.3386 133.525 12.5589 133.305 12.8527C133.085 13.1465 133.011 13.4403 132.938 13.7341C132.864 14.1013 132.791 14.3951 132.791 14.7623V20.1974C132.791 20.4177 132.644 20.5646 132.424 20.5646H130.367C130.147 20.5646 130 20.4177 130 20.1974V14.1748C130 13.5137 129.853 12.9996 129.559 12.5589C129.265 12.1917 128.825 11.9714 128.164 11.9714C127.796 11.9714 127.356 12.0448 127.062 12.1917C126.768 12.3386 126.474 12.5589 126.328 12.7793C126.107 13.0731 125.96 13.3669 125.887 13.6606C125.813 14.0279 125.74 14.3217 125.74 14.6889V20.1974C125.74 20.4177 125.593 20.5646 125.373 20.5646H123.39C123.169 20.5646 123.022 20.4177 123.022 20.1974V10.2087C123.022 9.98832 123.169 9.84143 123.39 9.84143Z" fill="#323232"/>
<path d="M141.238 4.55469H143.221C143.441 4.55469 143.588 4.70158 143.588 4.92192V11.1649H143.661C143.808 10.9445 143.955 10.7976 144.175 10.6507C144.396 10.4304 144.69 10.2835 144.91 10.1366C145.204 9.98972 145.571 9.84282 145.938 9.76938C146.379 9.62248 146.819 9.62248 147.26 9.62248C147.995 9.62248 148.729 9.76938 149.39 10.0632C150.051 10.3569 150.565 10.7242 151.006 11.2383C151.447 11.7524 151.814 12.34 152.034 13.001C152.328 13.7355 152.401 14.4699 152.401 15.2044C152.401 15.9389 152.255 16.6733 152.034 17.4078C151.814 18.0688 151.447 18.6564 151.006 19.1705C150.565 19.6846 149.978 20.1253 149.317 20.3456C148.656 20.6394 147.848 20.7863 147.113 20.7863C146.379 20.7863 145.644 20.6394 144.983 20.3456C144.322 20.0519 143.808 19.5377 143.441 18.9502H143.367V20.1988C143.367 20.4191 143.221 20.566 143 20.566H141.164C140.944 20.566 140.797 20.4191 140.797 20.1988V4.92192C140.87 4.77503 141.017 4.55469 141.238 4.55469ZM149.757 15.2044C149.757 14.7637 149.684 14.3965 149.537 14.0293C149.39 13.662 149.17 13.2948 148.876 13.001C148.582 12.7072 148.288 12.4869 147.848 12.2666C147.04 11.8993 146.085 11.8993 145.204 12.2666C144.836 12.4134 144.469 12.7072 144.175 13.001C143.882 13.2948 143.661 13.662 143.514 14.0293C143.221 14.8372 143.221 15.6451 143.514 16.453C143.661 16.8202 143.882 17.1875 144.175 17.4812C145.351 18.7298 147.407 18.8033 148.656 17.6281C148.729 17.5547 148.729 17.5547 148.803 17.4812C149.096 17.1875 149.317 16.8202 149.464 16.453C149.684 16.0123 149.757 15.6451 149.757 15.2044Z" fill="#323232"/>
<path d="M153.723 4.55469H155.706C155.926 4.55469 156.073 4.70158 156.073 4.92192V20.1988C156.073 20.4191 155.926 20.566 155.706 20.566H153.723C153.502 20.566 153.355 20.4191 153.355 20.1988V4.92192C153.355 4.77503 153.502 4.55469 153.723 4.55469Z" fill="#323232"/>
<path d="M157.322 9.83984H159.525C159.672 9.83984 159.819 9.91329 159.819 10.0602L162.757 17.2579H162.831L165.401 10.0602C165.475 9.91329 165.622 9.83984 165.768 9.83984H167.825C168.045 9.83984 168.192 9.98674 168.192 10.2071C168.192 10.2805 168.192 10.2805 168.192 10.354L163.345 22.9133C163.198 23.354 162.977 23.7946 162.684 24.2353C162.463 24.6026 162.17 24.8963 161.876 25.1901C161.582 25.4839 161.141 25.6308 160.774 25.7777C160.26 25.9246 159.746 25.998 159.232 25.998C158.644 25.998 158.057 25.9246 157.469 25.7777C157.322 25.7042 157.175 25.5574 157.175 25.4105L157.396 23.7212C157.396 23.5009 157.616 23.4274 157.763 23.4274C157.763 23.4274 157.763 23.4274 157.836 23.4274C158.057 23.5009 158.203 23.5009 158.424 23.5743C158.424 23.5743 158.424 23.5743 158.497 23.5743C158.864 23.5743 159.305 23.5743 159.672 23.5009C160.113 23.4274 160.407 23.1336 160.627 22.7664C160.701 22.5461 160.848 22.3257 160.994 22.0319L161.435 20.9302C161.435 20.8568 161.435 20.7833 161.435 20.6365L157.102 10.4274C157.028 10.2805 157.102 10.0602 157.322 9.98674C157.249 9.83984 157.322 9.83984 157.322 9.83984Z" fill="#323232"/>
</svg>
