<svg width="102" height="30" viewBox="0 0 102 30" fill="none" xmlns="http://www.w3.org/2000/svg">
<path fill-rule="evenodd" clip-rule="evenodd" d="M18.919 7.32644C18.9117 9.82466 16.8819 11.8476 14.3792 11.8476C11.8764 11.8476 9.84668 9.82466 9.83933 7.32644C9.83931 7.32644 9.67571 6.48213 10.5482 4.60285C12.0399 1.39013 14.32 0 14.32 0C14.32 0 16.7922 1.55244 18.2646 4.60285C19.0371 6.20317 18.919 7.32644 18.919 7.32644Z" fill="#323232"/>
<path fill-rule="evenodd" clip-rule="evenodd" d="M18.919 22.6736C18.9117 20.1753 16.8819 18.1524 14.3792 18.1524C11.8764 18.1524 9.84668 20.1753 9.83933 22.6736C9.83931 22.6736 9.67571 23.5179 10.5482 25.3971C12.0399 28.6099 14.32 30 14.32 30C14.32 30 16.7922 28.4476 18.2646 25.3971C19.0371 23.7968 18.919 22.6736 18.919 22.6736Z" fill="#323232"/>
<path fill-rule="evenodd" clip-rule="evenodd" d="M21.2253 10.4746C18.7271 10.4819 16.7042 12.5116 16.7042 15.0144C16.7042 17.5171 18.7271 19.5469 21.2253 19.5542C21.2253 19.5542 22.0696 19.7178 23.9489 18.8453C27.1616 17.3537 28.5518 15.0735 28.5518 15.0735C28.5518 15.0735 26.9993 12.6013 23.9489 11.1289C22.3486 10.3565 21.2253 10.4746 21.2253 10.4746Z" fill="#323232"/>
<path fill-rule="evenodd" clip-rule="evenodd" d="M7.32644 10.4277C9.82466 10.435 11.8476 12.4648 11.8476 14.9675C11.8476 17.4703 9.82466 19.5 7.32644 19.5074C7.32644 19.5074 6.48213 19.671 4.60285 18.7984C1.39013 17.3068 0 15.0266 0 15.0266C0 15.0266 1.55244 12.5544 4.60285 11.0821C6.20317 10.3096 7.32644 10.4277 7.32644 10.4277Z" fill="#323232"/>
<path fill-rule="evenodd" clip-rule="evenodd" d="M47.0644 10.2232C47.0644 11.3792 46.4734 12.8435 44.6492 13.5372C46.9873 14.128 47.9893 16.1318 47.9893 17.5704C47.9893 20.499 45.8568 22.9909 42.3367 22.9909H34.7314V5.29082H41.8229C45.0089 5.29082 47.0644 7.19184 47.0644 10.2232ZM38.5084 12.2784H41.4632C42.4395 12.2784 43.1075 11.5077 43.1075 10.4544C43.1075 9.34977 42.5423 8.60477 41.4375 8.60477H38.5084V12.2784ZM42.0541 15.3868H38.5084V19.677H42.1312C43.3902 19.677 44.0325 18.5466 44.0325 17.4934C44.0325 16.4915 43.3902 15.3868 42.0541 15.3868ZM49.7271 4.46875V22.9909H53.2986V4.46875H49.7271ZM61.1514 19.7027C62.6417 19.7027 63.875 18.6237 63.875 16.9539C63.875 15.3354 62.6417 14.2308 61.1514 14.2308C59.6869 14.2308 58.4536 15.3354 58.4536 16.9539C58.4536 18.6237 59.6869 19.7027 61.1514 19.7027ZM61.1514 23.1964C57.7599 23.1964 54.9336 20.7302 54.9336 16.9539C54.9336 13.1775 57.7599 10.737 61.1514 10.737C64.543 10.737 67.395 13.1775 67.395 16.9539C67.395 20.7302 64.543 23.1964 61.1514 23.1964ZM74.5285 19.7027C76.0187 19.7027 77.252 18.6237 77.252 16.9539C77.252 15.3354 76.0187 14.2308 74.5285 14.2308C73.0639 14.2308 71.8306 15.3354 71.8306 16.9539C71.8306 18.6237 73.0639 19.7027 74.5285 19.7027ZM74.5285 23.1964C71.1369 23.1964 68.3106 20.7302 68.3106 16.9539C68.3106 13.1775 71.1369 10.737 74.5285 10.737C77.92 10.737 80.772 13.1775 80.772 16.9539C80.772 20.7302 77.92 23.1964 74.5285 23.1964ZM95.6649 14.2051C96.7184 14.2051 97.6433 15.0272 97.6433 16.5942V22.9909H101.189V16.1832C101.189 12.561 99.4162 10.737 96.5642 10.737C95.7163 10.737 94.1233 10.9939 92.9671 12.8692C92.2991 11.482 91.0144 10.7627 89.1131 10.7627C87.8284 10.7627 86.5437 11.482 85.9784 12.7408V10.9939H82.407V22.9909H85.9784V16.6456C85.9784 14.8216 86.9805 14.2051 88.0596 14.2051C89.0874 14.2051 90.0123 15.0015 90.038 16.5172V22.9909H93.6094V16.6456C93.6094 14.8987 94.5344 14.2051 95.6649 14.2051Z" fill="#323232"/>
</svg>
