<svg width="99" height="40" viewBox="0 0 99 40" fill="none" xmlns="http://www.w3.org/2000/svg">
<path d="M13.8183 37.3281C13.7229 37.3963 13.6139 37.4644 13.5049 37.5462C13.3959 37.6279 13.2869 37.7097 13.1778 37.7915C13.0824 37.8732 13.0007 37.9686 12.9462 38.0777C12.8917 38.173 12.878 38.2821 12.9053 38.4047C12.9053 38.432 12.9189 38.4456 12.9189 38.4729C12.9189 38.4865 12.9325 38.5137 12.9325 38.5274C12.9462 38.541 12.9462 38.5683 12.9598 38.5819C12.9734 38.5955 12.9734 38.6228 12.9871 38.6364C12.9189 38.7454 12.8508 38.8544 12.7826 38.9635C12.7281 39.0725 12.66 39.1679 12.5919 39.2496C12.5237 39.3314 12.4419 39.3995 12.3466 39.4404C12.2512 39.4813 12.1285 39.5086 11.9922 39.5086C11.856 39.5086 11.7197 39.4813 11.5834 39.4404C11.4471 39.3995 11.3245 39.345 11.2018 39.2769C11.0792 39.2088 10.9565 39.127 10.8475 39.0452C10.7249 38.9635 10.6158 38.8681 10.5068 38.7727C10.5068 38.759 10.5068 38.7454 10.4932 38.7318C10.4932 38.7182 10.4932 38.7045 10.4796 38.6909C10.4796 38.6773 10.4796 38.6636 10.4659 38.65C10.4659 38.6364 10.4523 38.6228 10.4523 38.6091C10.4114 38.5001 10.3705 38.4047 10.316 38.3229C10.2615 38.2412 10.1797 38.1594 10.1116 38.0777C10.0298 38.0095 9.94807 37.9414 9.8663 37.8732C9.78454 37.8187 9.68914 37.7506 9.59375 37.7097C9.59375 37.7097 9.59375 37.7097 9.59375 37.7233C9.59375 37.7233 9.59375 37.7233 9.59375 37.737C9.59375 37.737 9.59375 37.737 9.59375 37.7506C9.59375 37.7506 9.59375 37.7506 9.59375 37.7642C9.59375 37.7778 9.60738 37.7915 9.60738 37.8187C9.60738 37.8324 9.62101 37.846 9.62101 37.8732C9.62101 37.8869 9.63463 37.9141 9.63463 37.9277C9.63463 37.9414 9.64826 37.9686 9.64826 37.9823C9.74365 38.2548 9.87993 38.5137 10.0435 38.759C10.207 38.9907 10.3978 39.1951 10.6158 39.3723C10.8339 39.5494 11.0655 39.6994 11.3108 39.8084C11.5561 39.9174 11.8287 39.9855 12.0876 39.9992C12.3602 40.0128 12.6191 39.9719 12.8508 39.8765C13.0824 39.7811 13.3005 39.6176 13.464 39.4132C13.6412 39.2088 13.7638 38.9498 13.832 38.6636C13.9001 38.3638 13.9137 38.0368 13.8456 37.6961L13.8183 37.3281Z" fill="#323232"/>
<path d="M3.1067 23.9312C3.07944 23.9449 3.05219 23.9585 3.02493 23.9721C2.99768 23.9858 2.97042 23.9994 2.94317 24.013C2.91591 24.0266 2.88865 24.0403 2.8614 24.0675C2.83414 24.0811 2.80689 24.1084 2.77963 24.122C2.62973 24.2174 2.49345 24.3264 2.35717 24.4218C2.2209 24.5309 2.09825 24.6399 1.98922 24.7625C1.8802 24.8852 1.77118 25.0215 1.66216 25.185C1.55314 25.3485 1.45774 25.5393 1.37598 25.7574C1.6349 25.7165 1.89383 25.7165 2.15276 25.7574C2.42531 25.7982 2.68424 25.8664 2.95679 25.9754C3.22935 26.0844 3.5019 26.2343 3.77446 26.4115C4.04701 26.5886 4.31957 26.8067 4.59212 27.052L3.5019 23.8086C3.47465 23.8222 3.43376 23.8222 3.40651 23.8358C3.37925 23.8495 3.33837 23.8495 3.31111 23.8631C3.28386 23.8767 3.24298 23.8904 3.21572 23.904C3.16121 23.904 3.13395 23.9176 3.1067 23.9312Z" fill="#323232"/>
<path d="M3.99316 23.7539L5.06975 26.9019L7.45461 26.9428C7.20931 26.4386 6.93675 25.9889 6.65057 25.5936C6.36439 25.1984 6.07821 24.8714 5.7784 24.5988C5.47859 24.3263 5.17878 24.1219 4.87897 23.972C4.59278 23.8493 4.29297 23.7675 3.99316 23.7539Z" fill="#323232"/>
<path d="M5.41016 27.8945C5.77811 28.3306 6.13243 28.8212 6.48675 29.38C6.84107 29.9387 7.18176 30.5656 7.50883 31.2333C7.83589 31.9147 8.14933 32.6506 8.43551 33.4274C8.7217 34.2178 8.99425 35.0491 9.22592 35.9349C9.23955 35.5533 9.25318 35.1581 9.23955 34.7629C9.22592 34.3677 9.21229 33.9589 9.17141 33.55C9.14416 33.1412 9.08964 32.7187 9.03513 32.3099C8.98062 31.8875 8.89886 31.4786 8.81709 31.0562C8.76258 30.77 8.69444 30.4974 8.6263 30.2249C8.55816 29.9523 8.49002 29.6934 8.40826 29.4345C8.32649 29.1755 8.25835 28.9302 8.17659 28.6849C8.09482 28.4396 7.99943 28.208 7.91766 27.9899L5.41016 27.8945Z" fill="#323232"/>
<path d="M0 4.6875C0.0681387 5.34163 0.149905 5.99576 0.231672 6.64989C0.313438 7.31765 0.408832 7.98541 0.517854 8.6668C0.626876 9.34818 0.735898 10.0296 0.844919 10.7246C0.967569 11.4196 1.09022 12.1146 1.2265 12.8233C1.40366 13.7499 1.59444 14.6494 1.79885 15.5215C2.00327 16.4073 2.20769 17.2659 2.42573 18.1108C2.64377 18.9557 2.86182 19.7734 3.10712 20.5638C3.33879 21.3678 3.5841 22.131 3.8294 22.8805C3.93842 22.8669 4.04744 22.8533 4.15646 22.8533C4.26549 22.8533 4.3745 22.8669 4.48352 22.8805C4.59254 22.8941 4.70156 22.9214 4.81058 22.9623C4.9196 23.0032 5.02863 23.0441 5.13765 23.0986C4.89235 22.5126 4.64705 21.8993 4.40175 21.2724C4.15645 20.6456 3.92479 20.0051 3.69312 19.3509C3.46145 18.6968 3.24339 18.029 3.02535 17.3477C2.80731 16.6663 2.58928 15.9713 2.38486 15.2626C2.11231 14.3359 1.86701 13.4229 1.63533 12.5098C1.40366 11.6104 1.18561 10.711 0.994824 9.82515C0.804036 8.93935 0.626876 8.06718 0.463343 7.20863C0.258927 6.35008 0.12265 5.50516 0 4.6875Z" fill="#323232"/>
<path d="M21.2861 18.1516C21.1498 18.1789 20.9999 18.2061 20.8637 18.2334C20.7274 18.2607 20.5911 18.3015 20.4412 18.3288C20.3049 18.3697 20.1687 18.3969 20.0324 18.4378C19.8961 18.4787 19.7598 18.5196 19.6235 18.5741L19.1738 22.5807C19.6235 22.0628 20.1005 21.5858 20.5911 21.1497C21.0817 20.7137 21.5723 20.3048 22.0902 19.9369C22.5944 19.5689 23.1259 19.2419 23.6574 18.9557C24.1888 18.6695 24.7339 18.4106 25.2791 18.1925C24.952 18.0971 24.6522 18.029 24.3387 17.9881C24.0253 17.9472 23.7255 17.9336 23.3984 17.9336C23.085 17.9336 22.7579 17.9608 22.4172 18.0017C22.0765 18.0426 21.7222 18.0971 21.3406 18.1516H21.327H21.3134H21.2998H21.2861Z" fill="#323232"/>
<path d="M17.8663 24.2305L12.0609 27.1195C11.9791 27.4466 11.911 27.7601 11.8701 28.1007C11.8156 28.4278 11.7747 28.7685 11.7474 29.1092C11.7202 29.4499 11.7066 29.7906 11.7202 30.1313C11.7202 30.472 11.7474 30.8263 11.7747 31.167C11.8292 31.6848 11.911 32.1891 12.0336 32.6797C12.1563 33.1703 12.3062 33.6472 12.4833 34.0969C12.6605 34.5603 12.8785 34.9964 13.1102 35.4052C13.3555 35.8277 13.6144 36.2092 13.9006 36.5772C13.9279 35.378 14.0369 34.1923 14.2413 33.034C14.4457 31.9029 14.7183 30.8127 15.0726 29.7633C15.4133 28.7276 15.8358 27.7464 16.3127 26.8197C16.7761 25.8931 17.2939 25.0345 17.8663 24.2305Z" fill="#323232"/>
<path opacity="0.7" d="M16.1076 0C16.2984 0.72227 16.4483 1.4718 16.5846 2.24858C16.7072 3.03899 16.8026 3.84302 16.8708 4.68794C16.9389 5.54649 16.9934 6.43229 17.0343 7.34535C17.0752 8.27203 17.0888 9.2396 17.1024 10.2344C17.1433 12.5511 16.9662 14.4181 16.6664 15.9717C16.3529 17.5798 15.9032 18.8335 15.4126 19.9101C14.9084 21.0003 14.3633 21.8861 13.8727 22.7174C13.3684 23.576 12.9324 24.3664 12.6598 25.3067C12.6462 25.3339 12.6462 25.3476 12.6325 25.3748C12.6189 25.4021 12.6053 25.4157 12.6053 25.443C12.5917 25.4702 12.5917 25.4975 12.578 25.5111C12.5644 25.5384 12.5644 25.5656 12.5508 25.5792L18.0428 22.9355C18.3289 21.1775 18.5061 19.5285 18.6015 17.9886C18.6969 16.4896 18.7241 15.0859 18.6969 13.7913C18.6696 12.5239 18.5879 11.3383 18.4925 10.2481C18.3835 9.17146 18.2472 8.19027 18.0973 7.30447C17.9882 6.63671 17.852 5.96895 17.7157 5.32844C17.5794 4.68794 17.4159 4.06107 17.2523 3.44782C17.0888 2.8482 16.9117 2.24858 16.7209 1.67621C16.5165 1.10385 16.3257 0.54511 16.1076 0Z" fill="#323232"/>
<path d="M38.9345 30.7726C35.1869 30.7726 33.4971 28.892 33.4971 26.4526L33.6879 26.2618H35.9364L36.1272 26.4526C36.1272 27.7609 36.8767 28.5104 39.1253 28.5104C40.8152 28.5104 41.7555 27.9517 41.7555 26.8206C41.7555 25.5123 41.006 25.1307 38.3758 24.7628C35.7456 24.3948 33.6879 23.4545 33.6879 20.8244C33.6879 18.9437 35.1869 17.2539 38.7574 17.2539C42.3278 17.2539 43.8269 18.9437 43.8269 21.1923L43.6361 21.3831H41.3875L41.1967 21.1923C41.1967 20.0612 40.638 19.5025 38.5666 19.5025C36.8767 19.5025 36.318 20.0612 36.318 20.8107C36.318 21.9418 37.0675 22.3098 39.6977 22.6914C42.3278 23.0729 44.3856 24.1904 44.3856 26.8206C44.372 28.9056 42.873 30.7726 38.9345 30.7726Z" fill="#323232"/>
<path d="M50.7496 30.7692C49.0597 30.7692 48.3102 29.8289 48.3102 29.8289H48.1194V34.1489L47.9286 34.3396H45.68L45.4893 34.1489V21.3933L45.68 21.2025H47.7378L47.9286 21.3933L48.1194 21.952H48.3102C48.3102 21.952 49.0597 21.0117 50.7496 21.0117C52.9981 21.0117 54.8788 22.8923 54.8788 25.8904C54.8788 28.8885 52.9981 30.7692 50.7496 30.7692ZM50.1908 23.2739C48.6918 23.2739 48.133 24.405 48.133 25.9041C48.133 27.4031 48.6918 28.5342 50.1908 28.5342C51.6899 28.5342 52.2486 27.4031 52.2486 25.9041C52.2486 24.3914 51.6899 23.2739 50.1908 23.2739Z" fill="#323232"/>
<path d="M62.006 23.4653H60.6977C59.1987 23.4653 58.6399 24.2149 58.6399 25.9047V30.4018L58.4491 30.5926H56.2006L56.0098 30.4018V21.3939L56.2006 21.2031H58.2583L58.4491 21.3939L58.6399 21.9527H58.8307C58.8307 21.9527 59.2123 21.2031 60.8885 21.2031H62.0196L62.2104 21.3939V23.2745L62.006 23.4653Z" fill="#323232"/>
<path d="M68.9431 30.7697C68.1935 32.6503 67.444 33.7678 64.8139 33.7678H63.8735L63.6828 33.577V31.6964L63.8735 31.5056H64.8139C65.7542 31.5056 65.945 31.3148 66.1221 30.7561V30.5653L63.124 23.2472V21.3666L63.3148 21.1758H65.0046L65.1954 21.3666L67.444 27.7443H67.6348L69.8834 21.3666L70.0742 21.1758H71.764L71.9548 21.3666V23.2472L68.9431 30.7697Z" fill="#323232"/>
<path d="M81.1392 30.5942H80.0081L79.6265 30.4034L77.01 27.5824H76.8192L75.6881 28.7135L75.4973 29.0951V30.4034L75.3066 30.5942H73.058L72.8672 30.4034V17.6478L73.058 17.457H75.3202L75.511 17.6478V25.1567H75.7018L79.4494 21.4091L79.831 21.2183H80.9621L81.1528 21.4091V23.2897L78.9043 25.5383V25.7291L81.3436 28.5364V30.417L81.1392 30.5942Z" fill="#323232"/>
<path d="M90.8829 26.6556L90.6921 26.8464H84.8731L84.6823 27.0372C84.6823 27.4187 85.0639 28.5362 86.5629 28.5362C87.1217 28.5362 87.694 28.3454 87.8712 27.9775L88.062 27.7867H90.3106L90.5014 27.9775C90.3106 29.1086 89.3703 30.7848 86.5629 30.7848C83.3741 30.7848 81.875 28.5362 81.875 25.9061C81.875 23.2759 83.3741 21.0273 86.3722 21.0273C89.3703 21.0273 90.8693 23.2759 90.8693 25.9061V26.6556H90.8829ZM88.0756 24.775C88.0756 24.5842 87.8848 23.2759 86.3858 23.2759C84.8867 23.2759 84.6959 24.5842 84.6959 24.775L84.8867 24.9658H87.8848L88.0756 24.775Z" fill="#323232"/>
<path d="M98.2013 23.4653H96.893C95.394 23.4653 94.8352 24.2149 94.8352 25.9047V30.4018L94.6444 30.5926H92.3959L92.2051 30.4018V21.3939L92.3959 21.2031H94.4537L94.6444 21.3939L94.8352 21.9527H95.026C95.026 21.9527 95.4076 21.2031 97.0838 21.2031H98.2149L98.4057 21.3939V23.2745L98.2013 23.4653Z" fill="#323232"/>
</svg>
