<svg width="103" height="22" viewBox="0 0 103 22" fill="none" xmlns="http://www.w3.org/2000/svg">
<path d="M19.0603 13.7891H15.6908H13.4524H12.8996L9.53014 17.1894L6.16065 13.7891H5.60778H3.36948H0V17.1894H4.76482L7.14747 19.5943L9.53014 21.9991L11.9128 19.5943L14.295 17.1894H19.0603V13.7891Z" fill="#323232"/>
<path d="M19.0603 6.98828H0V10.3891H19.0603V6.98828Z" fill="#323232"/>
<path d="M19.0603 0.1875H0V3.58837H19.0603V0.1875Z" fill="#323232"/>
<path d="M26.6367 0.1875H29.668V16.8757H26.6367V0.1875Z" fill="#323232"/>
<path d="M34.3881 16.3976C33.4309 15.8644 32.6732 15.1345 32.1147 14.2071C31.5553 13.2802 31.2764 12.2599 31.2764 11.1476C31.2764 10.0353 31.5553 9.01547 32.1147 8.08808C32.6732 7.16115 33.4309 6.43082 34.3881 5.89756C35.3444 5.36429 36.3822 5.09766 37.4999 5.09766C38.6173 5.09766 39.6544 5.36429 40.6117 5.89756C41.568 6.43082 42.3258 7.16068 42.8851 8.08808C43.4435 9.015 43.7235 10.0353 43.7235 11.1476C43.7235 12.2599 43.444 13.2797 42.8851 14.2071C42.3258 15.134 41.568 15.8644 40.6117 16.3976C39.6544 16.931 38.6173 17.1975 37.4999 17.1975C36.3822 17.1975 35.3449 16.931 34.3881 16.3976ZM39.096 13.9643C39.5781 13.694 39.9645 13.3115 40.2554 12.817C40.546 12.3224 40.6922 11.7663 40.6922 11.148C40.6922 10.5303 40.5465 9.97409 40.2554 9.47917C39.9645 8.98466 39.5781 8.60219 39.096 8.33178C38.614 8.06146 38.0815 7.92602 37.4999 7.92602C36.918 7.92602 36.3863 8.06146 35.9038 8.33178C35.4217 8.60219 35.0349 8.98466 34.7439 9.47917C34.4525 9.97362 34.3076 10.5303 34.3076 11.148C34.3076 11.7663 34.4525 12.3224 34.7439 12.817C35.0346 13.3115 35.4212 13.694 35.9038 13.9643C36.3859 14.2346 36.9175 14.3701 37.4999 14.3701C38.0815 14.3696 38.6135 14.2346 39.096 13.9643Z" fill="#323232"/>
<path d="M45.3281 0.1875H48.3592V10.131L52.3089 5.42586H55.9139L51.4591 10.7338L56.2354 16.8757H52.3547L48.3592 11.5678V16.8757H45.3281V0.1875Z" fill="#323232"/>
<path d="M59.0946 16.4585C58.2446 15.964 57.5557 15.257 57.0279 14.3376C56.4995 13.4186 56.2354 12.3558 56.2354 11.1505C56.2354 10.0536 56.488 9.04128 56.9932 8.11438C57.4983 7.18747 58.1873 6.4534 59.0603 5.91268C59.9328 5.37193 60.8892 5.10156 61.9306 5.10156C62.6653 5.10156 63.3351 5.2253 63.9395 5.47232C64.5441 5.71935 65.0072 6.05182 65.3287 6.46881V5.42563H68.3601V16.8755H65.3287V15.8324C64.854 16.2806 64.3488 16.6201 63.8131 16.8521C63.2769 17.0838 62.588 17.2001 61.746 17.2001C60.8281 17.2005 59.9444 16.953 59.0946 16.4585ZM64.6172 13.4457C65.1835 12.8279 65.4671 12.063 65.4671 11.151C65.4671 10.2396 65.1835 9.47463 64.6172 8.8564C64.0509 8.23856 63.3005 7.92948 62.3669 7.92948C61.4328 7.92948 60.6823 8.23903 60.116 8.8564C59.5498 9.47463 59.2666 10.2396 59.2666 11.151C59.2666 12.063 59.5498 12.8279 60.116 13.4457C60.6823 14.064 61.4323 14.3727 62.3669 14.3727C63.3005 14.3727 64.0509 14.064 64.6172 13.4457Z" fill="#323232"/>
<path d="M70.5654 0.1875H73.5968V16.8757H70.5654V0.1875Z" fill="#323232"/>
<path d="M75.9642 3.29113C75.5968 2.92037 75.4131 2.47209 75.4131 1.94676C75.4131 1.40602 75.5968 0.946526 75.9642 0.567824C76.3315 0.189586 76.7757 0 77.2961 0C77.8315 0 78.2872 0.189586 78.6623 0.567824C79.0368 0.946526 79.2253 1.40602 79.2253 1.94676C79.2253 2.47209 79.0376 2.92037 78.6623 3.29113C78.2872 3.6619 77.8315 3.84729 77.2961 3.84729C76.7757 3.84775 76.3315 3.6619 75.9642 3.29113ZM75.8031 5.42374H78.8343V16.8736H75.8031V5.42374Z" fill="#323232"/>
<path d="M80.9033 16.0842L81.5927 13.2102H81.7301C82.725 13.9831 83.7433 14.3692 84.7845 14.3692C85.2132 14.3692 85.561 14.2878 85.8295 14.1259C86.0973 13.9639 86.2316 13.7285 86.2316 13.4189C86.2316 13.0944 86.0738 12.8319 85.7604 12.6312C85.4464 12.4303 84.8607 12.1833 84.004 11.8891C83.1317 11.5959 82.4541 11.1705 81.972 10.6143C81.4899 10.0581 81.248 9.40163 81.248 8.64423C81.248 7.57816 81.6421 6.72034 82.4305 6.07127C83.2188 5.42219 84.2176 5.09766 85.4276 5.09766C86.04 5.09766 86.5834 5.15556 87.0584 5.27137C87.5327 5.38717 87.9842 5.57675 88.4129 5.83918L88.5283 8.75954H88.3673C87.8161 8.40419 87.3262 8.13806 86.8974 7.96015C86.4687 7.78268 85.9866 7.69348 85.4511 7.69348C85.0679 7.69348 84.7539 7.771 84.5096 7.92511C84.2647 8.07965 84.1422 8.28096 84.1422 8.52797C84.1422 8.85251 84.2953 9.1191 84.6015 9.32785C84.907 9.53659 85.4817 9.78782 86.3235 10.081C87.2877 10.4056 88.0186 10.7997 88.5164 11.2634C89.0142 11.7266 89.2632 12.4452 89.2632 13.4189C89.2632 14.2224 89.0638 14.9103 88.6657 15.4819C88.2676 16.0539 87.743 16.4827 87.0921 16.7684C86.442 17.0542 85.726 17.1971 84.9455 17.1971C83.368 17.1971 82.0207 16.8263 80.9033 16.0842Z" fill="#323232"/>
<path d="M93.5319 16.3851C92.5826 15.8443 91.8367 15.1066 91.2934 14.1717C90.7492 13.2367 90.4775 12.1978 90.4775 11.0542C90.4775 9.94191 90.7343 8.93329 91.247 8.02969C91.7606 7.12566 92.4727 6.41121 93.3835 5.88589C94.2935 5.36056 95.3237 5.09766 96.4717 5.09766C97.6346 5.09766 98.6419 5.37223 99.4915 5.92044C100.34 6.46912 100.983 7.19898 101.42 8.11091C101.856 9.02293 102.075 10.004 102.075 11.0547V11.9587H93.371C93.5547 12.8244 93.9488 13.4811 94.5534 13.9288C95.1588 14.377 95.9582 14.6007 96.9538 14.6007C98.4692 14.6007 99.793 14.0987 100.926 13.0943H101.248L101.133 15.9913C100.444 16.3934 99.7169 16.6946 98.9513 16.8955C98.1858 17.0962 97.4509 17.1966 96.7465 17.1966C95.553 17.1961 94.4812 16.9257 93.5319 16.3851ZM99.044 9.87185C98.967 9.17651 98.6796 8.63159 98.1825 8.23796C97.6847 7.84432 97.0763 7.64679 96.357 7.64679C95.6527 7.64679 95.0363 7.83637 94.5079 8.21457C93.9803 8.59331 93.6238 9.14577 93.4401 9.87185H99.044Z" fill="#323232"/>
</svg>
