<svg width="259" height="121" viewBox="0 0 259 121" fill="none" xmlns="http://www.w3.org/2000/svg">
<path d="M45.6774 96.836C47.2233 96.8241 49.7172 93.244 51.6883 97.2303C53.9482 94.7985 54.9606 97.5055 56.5965 98.2512C58.5076 99.1208 60.7262 99.3344 62.8182 99.8078C66.9507 100.732 71.2211 101.285 75.1963 102.649C79.9111 104.257 84.254 107.561 89.0373 108.241C92.5403 108.743 95.059 109.392 97.0889 112.135L97.5578 110.976C102.892 113.215 108.23 115.469 114.024 117.893C113.51 118.539 113.094 118.946 112.835 119.435C112.589 119.907 112.53 120.454 112.138 121.947C113.83 120.566 114.835 119.752 115.262 119.406C117.739 119.999 119.803 120.493 121.883 120.985C122.01 120.551 122.124 120.135 122.25 119.702C119.272 117.13 116.214 114.636 113.329 111.969C112.207 110.925 111.592 109.362 110.508 108.263C106.676 104.378 102.654 100.669 98.8896 96.7232C94.4944 92.0868 90.3161 87.253 86.0418 82.4998C83.1515 79.2805 80.7941 75.0799 77.2138 73.1073C73.0874 70.8231 70.9547 67.6874 68.6888 63.9915C67.2079 61.5749 64.4755 59.9223 62.7082 57.4944C60.0362 57.7422 59.0625 55.7706 57.4439 53.3789C54.322 48.7958 50.0919 44.9824 46.5292 40.6687C42.5164 35.7891 38.3992 30.9442 35.0371 25.6465C33.2672 22.8557 31.9328 18.8961 34.2945 15.7191C36.3753 12.9091 39.6187 12.4154 43.1228 13.5331C50.0129 15.7266 57.2384 17.0696 63.8238 19.9344C69.3807 22.3541 74.2251 26.4194 79.4008 29.698C80.1513 30.1779 81.1188 30.2867 81.9166 30.679C83.9319 31.6876 85.8874 32.8019 87.925 33.7591C88.7353 34.1334 89.682 34.2144 90.5771 34.4469C90.5003 35.5034 90.4358 36.7156 90.331 38.1404C93.4687 37.7607 97.2094 34.6969 97.2502 40.5814C97.2641 40.6579 97.7103 40.7665 97.9744 40.8292C103.53 42.2854 107.592 46.1294 112.07 49.3924C114.802 51.3925 117.863 52.9382 121.105 54.8773C120.529 55.3608 120.047 55.7485 119.057 56.56C120.75 56.6635 121.965 56.7432 123.576 56.83C122.943 57.6083 122.351 58.3476 121.756 59.0716C127.423 56.1795 127.972 62.6036 131.055 64.0979C133.461 65.2568 135.217 67.7973 137.178 69.811C137.836 70.4813 138.185 71.4448 138.791 71.9983C143.18 75.467 148.09 78.0672 151.499 83.2774C154.556 87.9356 159.232 91.5101 164.16 96.5554C166.547 96.5647 167.207 99.3355 166.864 102.841C168.675 103.508 170.465 104.147 172.328 104.836C172.104 106.472 171.739 107.944 171.737 109.413C171.722 111.422 172.425 111.642 174.452 111.148C175.224 110.96 176.585 111.408 176.979 112.016C177.487 112.809 177.318 114.056 177.467 115.403C181.357 114.555 181.05 118.607 182.72 121.021C184.197 123.154 186.822 124.478 189.218 126.366C187.917 126.855 187.088 127.163 186.26 127.471C186.29 127.639 186.308 127.826 186.323 127.997C187.437 127.953 188.553 127.924 188.507 127.932C190.6 130.759 192.166 132.86 193.88 135.171C197.592 130.991 195.658 126.161 194.614 121.454C194.002 118.69 193.529 115.996 192.225 113.247C190.559 109.726 191.141 105.182 190.393 101.148C190.149 99.8018 188.788 98.6586 188.889 97.2977C187.859 93.3618 186.844 89.4231 185.76 85.2758C186.372 85.1649 187.32 84.9929 187.32 84.9929C185.887 80.5772 184.128 76.363 183.188 71.9683C181.959 66.2363 181.473 60.3377 180.437 54.539C180.09 52.6274 179.055 50.8406 178.227 48.7162C180.247 48.9658 181.796 49.1429 183.347 49.3354C179.852 47.221 176.613 45.7392 178.431 40.7813C178.77 39.8667 178.027 38.4693 177.577 37.382C176.866 35.7261 175.13 34.256 177.122 32.3467C177.336 32.1341 177.336 31.439 177.153 31.1248C173.583 24.6801 176.366 17.5566 175.038 10.8473C174.476 8.01114 175.392 4.87532 175.585 2.45514C177.364 1.99014 178.388 1.70973 179.414 1.44461C180.167 1.24472 181.293 0.661297 181.614 0.950572C184.11 3.21471 186.45 5.66506 188.825 8.04592C188.612 8.35306 188.415 8.65743 188.202 8.96457C187.209 8.89189 186.232 8.81644 184.759 8.70466C185.235 9.67656 185.378 10.7248 185.892 10.9474C188.494 12.055 188.835 14.2835 190.698 17.1521C191.903 19.0029 191.548 20.2678 191.913 21.8444C192.06 22.4811 193.957 22.5791 194.487 23.3203C195.063 24.1477 194.967 25.4446 195.272 27.1268C198.828 28.2668 200.772 35.7646 197.563 41.4963C201.393 40.2328 202.484 42.4991 202.43 45.3364C202.367 48.9966 201.505 52.6913 205.874 54.7421C206.27 54.923 206.368 56.7691 205.951 57.4293C204.29 60.1158 204.184 60.056 207.158 61.8226C207.249 61.8852 207.292 62.0354 207.41 62.2509C204.741 65.0413 204.846 67.5339 208.118 69.9887C208.886 70.5604 209.189 72.3218 209.047 73.4534C208.706 76.0111 208.759 77.0913 210.188 79.0436C209.572 79.2185 208.956 79.3934 207.889 79.6975C208.876 80.7822 209.569 81.5567 210.38 82.4523C209.711 83.2055 209.026 83.9615 207.872 85.2608C209.966 85.3075 211.392 85.3331 212.074 85.3514C213.291 81.2607 213.386 76.6468 215.729 73.9787C219.672 69.5039 220.762 63.6671 224.653 59.1701C228.102 55.1956 229.957 49.8359 232.545 45.1174C234.905 40.8033 238.254 37.3209 241.886 32.1759C241.852 29.6389 245.691 24.5038 250.025 23.2279C250.399 23.1127 251.031 22.8558 251.044 22.6639C251.053 17.2285 256.934 18.0412 259.251 14.9671C261.25 12.3141 264.386 12.7087 267.338 13.658C269.469 14.3455 271.635 14.9636 272.972 15.3686C274.339 16.9845 275.824 18.0263 276.247 19.4027C276.725 20.9905 276.54 22.9352 276.112 24.5768C275.641 26.3366 275.6 27.9394 276.886 29.191C278.329 30.6193 277.598 37.7338 275.682 38.492C276.44 39.0971 277.089 39.6269 277.735 40.1416C277.642 40.4112 277.548 40.6809 277.455 40.9505C276.258 40.7096 275.059 40.4533 273.172 40.0689C274.194 41.6054 275.016 42.8304 275.996 44.3113C275.628 44.5517 274.983 45.0005 273.73 45.8438C275.205 46.2239 276.036 46.4522 276.301 46.5148C276.504 48.5946 276.678 50.4269 276.889 52.6317C275.523 53.6377 272.992 54.7446 275.575 57.5774C275.829 57.8471 275.158 59.5484 274.517 59.9332C270.639 62.327 270.371 66.0719 274.043 68.3754C271.057 70.1175 270.015 75.8668 272.429 77.9404C271.078 79.1966 269.738 80.4347 268.185 81.8854C268.983 82.104 269.832 82.3448 270.663 82.5731C270.22 84.4858 269.778 86.3984 269.296 88.4445C268.757 88.2581 267.832 87.9519 265.796 87.263C267.291 89.061 268.019 89.9399 268.708 90.7784C266.994 92.7323 265.341 94.5958 263.483 96.7178C267.454 99.1883 264.052 102.38 264.014 105.388C264.011 106.068 263.864 106.742 263.785 107.436C262.919 107.451 262.022 107.471 260.604 107.492C261.537 108.539 262.129 109.19 262.882 110.032C261.137 110.602 259.524 111.115 256.807 111.987C259.102 112.708 260.257 113.068 261.546 113.466C262.683 116.861 252.625 116.363 258.821 121.431C255.836 122.131 252.781 130.109 253.413 135.16L248.933 135.973C248.937 138.089 248.954 140.36 248.966 142.949C246.799 142.931 244.636 143.197 245.804 147.203C246.6 149.933 240.463 158.076 238.096 159.39C239.545 159.458 241.116 159.932 242.416 159.522C244.942 158.732 247.987 158.622 249.074 155.297C249.299 154.625 250.713 153.973 251.567 153.976C256.609 153.993 260.282 150.294 264.511 148.532C268.639 146.819 273.149 143.727 277.253 142.666C283.048 141.173 288.45 137.255 295.246 138.754C297.796 139.318 301.028 136.758 303.991 135.588C303.98 135.875 303.96 136.463 303.952 136.591C308.929 134.945 314.039 135.772 319.22 135.685C324.685 135.594 328.413 139.166 333.26 139.851C333.33 141.544 333.401 143.237 333.478 145.403C335.837 141.516 336.92 141.651 340.802 145.986C339.839 146.682 338.905 147.372 337.97 148.048C339.377 149.103 340.659 150.071 341.555 150.746C341.66 153.76 341.742 156.477 341.84 159.192C341.402 159.303 340.961 159.399 340.523 159.51C341.239 160.233 341.954 160.957 343.64 162.673C340.946 162.277 339.435 162.045 337.453 161.742C338.362 162.746 339.073 163.533 340.221 164.809C339.022 164.648 338.39 164.557 337.356 164.429C337.913 165.844 338.395 167.02 338.972 168.464C337.172 169.248 335.46 170.001 332.99 171.097C334.416 171.47 335.131 171.672 337.219 172.209C333.493 175.176 330.428 177.612 327.252 180.131C327.338 180.257 327.852 181.001 328.36 181.715C325.922 182.899 323.701 183.981 321.173 185.198L321.601 187.553C319.04 188.239 316.494 188.922 312.892 189.876C314.668 190.612 315.3 190.876 315.915 191.128C316.012 191.489 316.112 191.866 316.224 192.225C312.486 193.472 308.729 194.706 304.999 195.999C303.201 196.625 301.045 196.321 300.236 199.09C299.84 200.473 297.624 202.281 296.247 202.262C290.565 202.203 285.745 203.583 282.103 208.146C282.052 208.218 281.89 208.279 281.805 208.247C277.491 206.581 273.843 209.375 269.971 210.236C265.34 211.265 260.951 213.452 256.328 214.527C251.632 215.632 246.762 216.042 241.946 216.663C239.477 216.984 232.508 219.054 231.132 220.093C230.532 219.397 229.932 218.7 229.971 218.74L210.442 222.283C210.697 226.217 210.762 225.353 215.009 225.688C216.707 225.822 219.422 225.377 220.984 226.673C225.812 230.647 232.064 229.844 237.415 232.175C237.382 232.86 237.338 233.753 237.275 234.712C242.295 233.564 248.849 236.861 248.564 240.167C252.005 239.369 254.16 240.716 255.457 242.55C256.75 244.368 259.22 245.358 261.259 246.757C259.967 248.081 259.007 249.061 258.181 249.906C260.151 250.228 262.959 250.208 263.116 250.812C263.659 253.019 266.998 256.015 261.897 257.588C262.688 258.029 263.165 258.306 262.917 258.161C262.444 259.732 262.35 261.218 261.6 262.223C260.376 263.835 258.894 266.11 257.252 266.376C253.58 266.947 250.55 268.792 247.309 270.17C245.11 271.106 243.102 272.75 240.825 273.258C238.137 273.856 235.254 273.637 232.453 273.608C229.953 273.587 227.397 272.645 225.394 275.362C224.91 276.003 222.709 275.36 221.295 275.316C219.674 275.263 217.386 274.493 216.549 275.277C214.279 277.394 211.992 275.93 209.731 276.182C204.624 276.761 199.551 277.792 194.433 278.23C191.508 278.477 188.706 279.048 185.466 277.646C183.118 276.634 179.44 278.739 176.055 279.495C176.087 278.715 176.135 277.933 176.124 278.045C172.116 278.504 168.252 279.41 164.41 279.302C157.965 279.128 151.53 278.4 145.094 277.751C141.199 277.352 137.322 276.618 133.429 276.14C127.856 275.46 122.215 275.189 116.719 274.148C111.207 273.11 105.85 271.27 100.4 269.874C96.5552 268.881 92.606 268.271 88.8475 267.057C86.4985 266.299 84.4681 264.598 82.1789 263.56C80.0051 262.548 77.7409 261.648 75.4196 261.042C69.0228 259.391 64.1324 255.508 59.3381 251.196C54.5409 246.87 51.3178 241.815 49.9273 235.544C49.7524 234.754 49.3413 233.881 49.5126 233.171C50.0416 231.037 52.2874 229.398 51.047 226.653C50.8568 226.214 53.2901 224.824 54.1927 223.618C55.7547 221.518 57.0762 219.225 58.6035 216.847C57.6343 213.943 55.4647 213.041 52.2073 213.632C51.305 213.796 50.192 212.623 49.1231 212.217C43.0129 209.882 36.8708 207.632 30.7953 205.227C28.9912 204.512 27.3694 203.321 25.6279 202.342C25.5861 202.46 25.3886 202.938 25.0254 203.81C24.6184 202.872 24.509 201.834 24.0253 201.606C20.8744 200.171 17.6484 198.845 14.4057 197.601C8.03559 195.14 6.34405 187.296 11.706 183.243C15.8875 180.083 20.662 178.016 26.3766 178.781C28.5299 179.069 30.8674 177.239 33.1779 177.089C37.3749 176.801 41.6064 177.139 45.8158 177.007C46.8528 176.977 47.868 176.13 49.079 175.578C49.8862 176.806 50.6934 178.034 51.7437 179.644C52.6196 176.026 54.495 175.654 57.3193 176.942C58.7648 177.596 60.6441 178.029 62.1678 177.721C67.6941 176.577 73.0608 178.209 78.5116 178.216C79.7766 178.223 81.0247 179.008 82.2773 178.859C84.981 179.222 87.7027 179.597 90.419 179.941C90.8874 179.998 91.3685 179.864 91.8411 179.857C94.2197 179.82 96.4906 177.797 98.9346 181.082C99.935 182.417 104.366 180.981 107.206 181.224C110.302 181.484 113.35 182.179 116.4 182.794C116.564 182.828 116.53 183.86 116.651 184.96C117.624 184.057 118.389 182.876 118.881 182.976C122.9 183.795 126.881 184.842 130.837 185.925C131.103 186.003 131.078 187.082 131.05 186.929C133.165 186.656 135.017 186.414 138.072 186.018C134.799 184.432 132.299 183.274 129.84 181.999C127.904 180.991 126.01 179.866 124.131 178.738C123.226 178.191 122.466 177.397 121.541 176.917C117.352 174.723 113.056 172.723 108.914 170.441C104.247 167.876 99.7694 164.96 95.1023 162.395C90.3114 159.758 85.3008 157.476 80.5323 154.787C76.2738 152.384 72.192 149.65 68.0406 147.054C63.2833 144.079 58.8615 139.905 53.6754 138.398C46.9854 136.436 42.9617 130.8 36.7695 128.449C34.9376 127.754 33.5857 125.788 31.914 124.322C26.0341 123.083 21.8449 117.84 16.4049 115.02C10.7565 112.096 6.09722 107.223 0.731504 102.984C0.929091 102.506 1.50494 101.675 1.6151 100.802C2.23574 95.6027 4.19206 94.6317 9.19163 93.1087C12.5145 92.0952 15.5261 94.1551 18.2819 92.8022C21.8623 91.0312 25.1989 93.8378 27.8237 93.33C32.0487 92.5003 35.0048 94.4282 38.5258 95.1163C40.0812 95.4186 41.8053 94.6478 43.4638 94.647C43.9698 94.65 44.4838 95.5677 45.6552 96.7136L45.6774 96.836ZM203.281 229.221C203.098 229.255 202.219 229.635 201.773 229.353C196.183 225.881 190.309 228.416 184.597 228.536C179.513 228.637 174.445 229.351 169.386 229.763C168.748 229.816 168.078 229.605 167.449 229.704C164.294 230.165 160.904 231.681 158.101 230.942C155.033 230.14 151.69 232.436 149.03 229.791C148.862 229.995 148.706 230.355 148.535 230.371C145.092 230.632 141.602 231.249 138.187 230.969C133.968 230.612 129.812 229.471 125.608 228.764C124.435 228.567 123.206 228.758 122.013 228.627C119.479 228.328 116.877 227.395 114.439 227.711C111.475 228.09 108.896 228.763 106.874 225.718C106.545 225.209 105.034 225.326 104.097 225.385C102.913 225.473 101.646 226.24 100.574 225.992C95.2281 224.735 89.9642 223.147 84.6307 221.871C80.3022 220.824 75.6161 220.679 71.6729 218.883C69.4505 217.865 67.9921 218.098 66.5224 218.964C64.0543 220.423 61.8766 222.35 59.5738 224.111C58.7701 224.731 57.9899 225.393 57.1639 226.065C58.2131 227.059 58.9024 227.724 59.8014 228.587C58.3206 229.393 57.2708 229.963 55.9165 230.682C60.3581 234.268 55.4057 236.051 54.6778 238.047C56.2846 238.719 57.9054 238.946 58.8337 239.883C60.0107 241.06 60.6078 242.784 61.4649 244.287C62.4846 246.076 63.5015 247.851 64.5628 249.696C66.135 249.916 67.9504 250.171 69.6991 250.407C69.5871 252.575 69.5253 254.15 69.4315 255.984C74.181 253.953 76.8039 254.741 77.3976 258.014C80.6233 256.639 92.0848 260.957 93.3166 264.003C97.9995 261.953 101.968 267.631 106.674 265.276C106.939 265.955 107.278 266.604 107.421 267.305C107.54 267.962 107.479 268.669 107.498 269.471C111.082 265.108 115.318 269.126 118.997 268.159C119.223 268.102 119.954 269.865 120.195 270.326C123.788 270.101 128.038 268.54 130.344 270.018C133.578 272.085 136.336 270.921 139.241 271.436C142.764 272.045 146.289 271.627 149.712 272.38C150.55 272.56 151.328 273.192 152.154 273.216C157.343 273.349 162.551 273.321 167.74 273.453C170.169 273.518 172.605 273.976 175.03 273.932C178.525 273.866 182.003 273.362 185.509 273.357C187.625 273.353 191.104 274.854 191.63 274.095C193.825 270.869 195.557 273.714 197.323 272.999C198.998 272.569 200.686 272.12 201.577 271.896C201.115 270.479 200.612 269.101 200.247 267.698C199.998 266.764 199.851 265.78 199.82 264.822C199.792 263.626 199.811 262.422 200.042 261.259C200.243 260.275 200.994 259.365 201.085 258.385C201.206 257.051 200.944 255.693 200.843 254.353C201.347 254.435 201.967 254.544 202.849 254.7C201.166 249.429 201.893 244.558 203.127 239.691C203.396 238.647 202.902 236.793 203.378 236.549C206.055 235.195 204.343 233.42 204.098 231.806C203.994 231.146 203.706 230.519 203.302 229.249L203.281 229.221ZM138.323 181.565C140.247 181.896 141.837 181.955 143.273 182.468C146.327 183.541 148.528 186.27 152.122 186.581C153.519 186.707 154.767 188.708 156.066 189.862C156.348 190.111 156.529 190.584 156.85 190.699C163.006 193.026 169.175 195.334 175.58 197.727C177.501 192.734 179.813 186.754 182.594 179.536C176.888 174.38 170.603 168.728 164.38 162.985C163.432 162.115 163.001 160.692 162.065 159.804C160.731 158.545 159.08 157.628 157.688 156.396C154.846 153.879 152.014 151.328 149.386 148.598C148.976 148.167 149.64 146.688 149.626 146.786C147.729 145.297 146.182 144.172 144.72 142.905C143.315 141.691 142.186 140.079 140.633 139.097C134.519 135.262 128.305 131.572 122.079 127.899C120.082 126.73 118.007 125.653 115.855 124.764C113.326 123.706 110.668 122.988 108.128 121.964C103.525 120.098 98.9535 118.147 94.4196 116.142C91.038 114.654 87.7774 112.877 84.3484 111.477C82.3872 110.679 80.0058 111.048 78.7709 108.508C78.4737 107.914 76.1867 108.282 74.2253 108.18C74.4353 107.857 74.1529 108.303 73.3949 109.436C73.5067 107.789 73.5738 106.939 73.6143 106.379C71.529 106.552 69.5923 107.109 67.8117 106.784C61.2729 105.569 55.2381 102.431 48.5351 101.704C46.2956 101.463 44.1511 100.351 41.9144 100.125C37.1213 99.6519 31.9107 100.534 27.5949 98.9475C23.5849 97.4793 20.1717 98.604 16.5115 98.3677C13.8592 98.2012 10.4826 101.357 8.27129 96.8297C8.34802 99.6907 8.43044 102.235 8.48931 104.562C9.62639 104.735 10.9026 104.63 11.8477 105.137C13.3571 105.969 14.5368 107.335 16.0114 108.236C19.7236 110.501 23.5832 112.533 27.2704 114.834C28.2321 115.434 28.6249 116.989 29.5964 117.555C32.8153 119.451 36.2637 120.958 39.445 122.909C40.4762 123.543 40.9482 125.1 41.9499 126.703C43.6364 125.987 46.4075 124.805 47.0369 129.145C47.1007 129.497 48.0291 130.086 48.4059 129.987C52.25 128.973 54.1185 132.22 56.7703 133.777C57.247 134.053 57.8044 134.252 58.2283 134.586C59.0579 135.241 59.8403 135.984 60.6324 136.693C61.0631 137.326 63.0913 137.274 63.1468 137.58C63.76 140.959 66.6615 140.149 68.7131 140.835C71.0163 141.602 73.581 141.895 74.1748 144.993C74.2663 145.498 75.2308 146.287 75.6256 146.199C79.8493 145.275 82.3655 148.61 85.5386 150.166C90.0502 152.397 94.3656 155.026 98.7881 157.462C100.965 158.662 103.384 159.724 100.963 163.18C105.312 161.38 107.192 162.255 107.172 165.102C109.168 165.309 111.328 165.027 113.001 165.798C115.725 167.057 118.047 169.148 120.713 170.607C123.904 172.35 127.319 173.673 130.535 175.38C132.232 176.289 133.674 177.623 135.242 178.776C135.095 179.008 134.932 179.243 134.787 179.49C136.248 179.446 137.691 179.39 139.418 179.329C138.799 180.705 138.424 181.515 138.402 181.567L138.323 181.565ZM117.568 105.561C119.581 108.734 121.553 111.851 123.676 115.194C123.63 115.202 124.581 114.872 125.532 114.541C126.52 116.242 127.272 119.17 128.512 119.387C131.791 119.961 132.73 121.829 133.752 124.502C134.416 126.246 136.015 127.835 137.558 129.025C141.175 131.812 144.719 134.976 148.821 136.775C152.853 138.539 154.5 142.742 158.617 144.365C162.189 145.77 165.228 148.504 168.507 150.642C168.124 151.059 167.77 151.455 167.782 151.437C169.63 152.918 171.386 154.495 173.288 155.84C176.316 157.992 179.679 159.72 182.47 162.136C185.304 164.607 185.201 164.91 186.331 161.388C187.177 158.739 187.095 155.673 188.414 153.365C189.598 151.27 191.023 149.29 191.309 146.948C191.56 145.023 191.795 142.484 190.804 141.116C185.893 134.33 180.521 127.88 175.455 121.202C174.106 119.424 173.255 117.257 171.879 114.726C172.052 114.806 171.042 114.641 170.538 114.038C168.191 111.288 165.506 108.679 163.877 105.532C161.856 101.617 158.329 99.0666 155.799 95.6555C153.795 92.9704 150.464 90.7156 147.896 88.0539C144.412 84.4368 140.838 80.9308 137.236 77.4457C135.132 75.4264 132.91 73.5391 130.7 71.6337C127.665 69.0093 124.655 66.3488 121.505 63.8717C119.073 61.9593 115.008 60.8011 114.185 58.4389C112.48 53.5672 106.47 55.1788 104.534 50.2541C103.391 47.3497 98.167 45.8963 94.6201 44.1072C86.5324 40.0142 79.4115 34.1979 70.8954 30.8777C67.9557 29.7366 65.2428 28.0173 62.3768 26.6733C57.7721 24.539 53.0602 22.5979 48.5028 20.3761C45.5743 18.9487 40.6308 19.3874 38.8645 21.319C41.7073 24.9735 44.2053 28.8168 47.3514 32.0529C49.7609 34.538 50.7466 37.8817 53.7276 40.121C57.2047 42.7442 59.7416 46.6279 62.6666 49.9515C61.6111 50.838 60.9144 51.4382 59.9174 52.2984C67.2973 53.3605 71.2996 56.7888 70.7228 59.8789C72.6212 61.4616 74.1221 62.5952 75.4742 63.8663C78.8205 66.9871 82.2043 70.0537 85.3767 73.3482C89.8484 77.9708 94.1588 82.749 98.4845 87.5245C100.44 89.6813 102.007 92.2245 104.158 94.1563C107.932 97.5469 112.011 100.614 115.956 103.815C114.631 105.13 113.905 105.83 113.197 106.543C113.325 106.725 113.435 106.895 113.563 107.077C114.704 106.665 115.83 106.255 117.579 105.622L117.568 105.561ZM209.288 201.989C213.699 204.885 213.211 207.944 211.182 211.297C210.597 212.256 210.493 213.507 210.156 214.611C211.4 214.938 212.674 215.607 213.905 215.51C216.447 215.333 218.952 214.689 221.485 214.372C226.832 213.718 232.185 213.094 237.547 212.611C238.698 212.513 239.893 213.007 241.172 213.265C242.749 212.378 246.15 210.229 246.298 210.439C248.798 213.856 249.549 209.028 251.438 209.602C251.674 210.38 251.948 211.278 251.98 211.367C257.16 209.448 262.239 207.405 267.443 205.703C269.663 204.968 272.114 204.982 274.436 204.545C276.653 204.143 278.901 203.735 281.015 203.02C282.057 202.672 282.749 201.347 283.8 200.872C289.188 198.441 294.678 196.229 300.04 193.739C303.624 192.078 307.22 190.304 310.506 188.129C313.409 186.196 315.873 183.585 318.599 181.369C319.604 180.555 320.818 180.018 322.158 179.222C323.246 177.904 324.516 174.893 326.096 174.717C330.476 174.222 330.555 172.044 330.022 170.324C331.471 168.561 332.621 167.673 333.047 166.537C333.858 164.305 334.397 161.964 334.823 159.612C335.343 156.817 336.303 153.926 334.364 151.245C334.046 150.797 333.221 150.346 333.297 150.064C334.305 146.217 331.437 145.299 328.905 144.227C325.897 142.972 323.425 140.577 319.698 140.842C316.984 141.034 314.172 139.728 311.485 139.979C306.868 140.39 302.327 141.482 297.752 142.296C295.611 142.685 293.47 143.073 291.314 143.464C291.355 143.693 291.382 143.926 291.405 144.143C292.292 144.155 293.176 144.153 294.063 144.166C293.175 144.753 292.242 144.923 291.324 145.089C287.899 145.711 284.343 145.961 281.082 147.058C276.129 148.746 271.362 151.033 266.515 153.049C263.637 154.251 260.68 155.277 257.917 156.678C254.447 158.445 251.082 160.446 247.761 162.517C246.3 163.43 245.069 164.743 243.769 165.848C236.311 165.921 233.263 173.851 226.994 176.299C226.152 178.885 226.95 183.021 221.762 182.114C221.37 182.043 219.872 184.494 220.076 185.531C220.474 187.465 222.346 189.163 222.519 191.075C222.84 194.587 227.175 198.018 222.935 201.725C221.801 202.705 220.826 203.861 219.776 204.952C219.101 203.668 218.355 202.429 217.751 201.102C217.129 199.761 216.796 198.274 216.087 196.981C215.116 195.198 213.915 193.536 212.817 191.84C212.398 192.058 211.98 192.276 211.559 192.479C211.591 194.921 216.312 197.35 211.495 199.614C212.933 199.796 213.87 199.91 214.807 200.024C214.465 200.576 214.123 201.128 213.781 201.68C212.517 201.767 211.269 201.851 209.196 202.006L209.288 201.989ZM212.466 139.492C219.635 140.261 215.283 145.442 215.955 148.621C216.429 150.889 213.755 153.822 212.596 156.228C216.469 162.081 214.573 169.217 216.231 175.567C218.117 174.909 220.485 174.811 221.436 173.611C225.682 168.197 229.502 162.434 233.58 156.876C233.908 156.422 235.04 156.564 235.804 156.425C234.895 152.894 235.518 151.801 238.077 150.927C239.266 148.168 239.697 145.752 241.075 144.206C243.887 141.074 243.199 136.586 246.62 133.328C249.353 130.715 249.448 125.406 250.98 121.401C251.278 120.604 252.745 120.243 253.857 119.583C254.124 116.091 254.422 112.073 254.78 107.427C257.187 108.507 258.493 109.091 260.35 109.923C259.175 107.972 257.789 106.691 257.773 105.383C257.738 103.273 258.448 101.091 259.119 99.0419C259.584 97.5991 261.329 96.161 261.115 94.9834C260.48 91.4814 262.412 88.6351 262.911 85.4644C263.996 78.4751 266.365 71.6796 267.369 64.6737C267.898 60.9761 270.813 58.0621 269.654 53.6757C268.884 50.7352 270.982 47.1481 271.047 43.8506C271.148 38.3985 270.362 32.9335 270.496 27.4912C270.644 21.2564 268.124 18.1596 262.145 18.0279C262.743 22.7213 259.459 21.5954 256.861 21.4665C256.788 22.6328 256.717 23.7199 256.672 24.344C253.789 25.9569 251.216 27.3558 248.707 28.8534C248.31 29.0993 247.948 30.239 247.966 30.2516C251.72 32.398 247.977 34.2302 247.261 35.2447C244.811 38.7219 241.706 41.7179 238.579 45.2073C239.689 47.5807 236.397 52.8537 232.814 53.0455C235.013 58.2858 230.095 59.1305 228.119 60.8633C228.366 62.2243 228.908 63.2949 228.603 63.9662C228.038 65.206 226.905 66.1857 226.155 67.3642C225.835 67.8645 226.02 69.1422 225.79 69.1838C222.483 69.847 222.613 71.9559 223.734 74.3905L221.21 74.8482C221.382 76.3177 221.535 77.5063 221.67 78.6032C220.268 78.9683 219.153 79.2653 218.653 79.3875C218.602 82.4138 218.547 84.9828 218.5 87.5976C216.832 87.6317 215.545 87.6757 214.41 87.692C214.998 89.2756 216.301 91.2348 215.849 91.7907C212.753 95.6221 215.769 100.841 212.738 104.597C212.558 104.819 213.058 106.008 213.522 106.303C216.456 108.108 214.837 109.982 213.685 111.818C213.07 112.782 212.259 113.624 211.677 114.33C213.368 115.382 214.827 116.286 216.98 117.617C214.881 118.235 213.876 118.528 213.41 118.66C213.778 122.084 218.947 124.716 213.474 127.984C213.305 128.093 213.636 129.486 214.041 130.061C215.741 132.469 217.292 134.747 213.891 137.07C213.384 137.414 213.199 138.222 212.479 139.474L212.466 139.492ZM151.65 196.081C148.571 195.566 146.638 195.269 144.723 194.905C138.51 193.742 132.27 192.694 126.112 191.315C120.598 190.089 115.223 188.062 109.672 187.158C103.843 186.194 97.8524 186.175 91.9375 185.7C84.3698 185.082 76.823 184.319 69.2566 183.796C62.7773 183.345 56.2728 183.277 49.7935 182.825C44.2275 182.445 38.7629 182.362 33.1589 183.079C26.7389 183.912 20.4844 184.351 15.005 190.021C16.7116 191.244 18.0861 192.29 19.5259 193.26C22.2971 195.127 24.9376 197.318 27.937 198.701C30.5583 199.915 33.7348 199.923 36.4438 201.012C38.6955 201.93 40.6341 203.647 42.9481 205.171C47.1304 203.148 50.7872 208.503 55.5041 208.295C57.0082 208.227 58.588 210.405 60.264 211.633C60.7159 211.425 61.5002 210.872 62.3565 210.717C64.6713 210.328 67.2749 210.661 69.2646 209.7C73.7695 207.54 78.7853 207.152 83.3182 204.623C87.1058 202.515 92.1603 202.688 96.6536 201.857C100.719 201.103 104.759 200.212 108.852 199.612C112.098 199.134 115.409 199.102 118.666 198.684C121.939 198.265 125.17 197.268 128.431 197.134C131.299 197.009 134.359 198.46 137.07 197.905C142.232 196.842 147.165 196.61 152.271 198.543C151.951 197.306 151.67 196.188 151.629 196.053L151.65 196.081ZM210.034 237.885C210.127 238.136 210.22 238.388 210.298 238.642C209.297 239.219 208.293 239.78 207.994 239.961C208.251 243.468 208.474 246.35 208.692 249.296C207.868 249.367 206.75 249.474 205.645 249.564L204.76 251.305C206.035 251.626 207.294 251.951 208.256 252.203C207.845 254.899 207.459 257.386 207.166 259.256C205.483 260.951 203.881 262.569 201.919 264.552C203.053 264.883 203.676 265.181 204.313 265.207C204.949 265.234 205.603 265.005 205.603 265.005C204.665 267.497 203.744 269.907 202.84 272.33C203.242 272.541 203.659 272.75 204.061 272.961C205.307 272.34 206.525 271.219 207.782 271.181C211.5 271.043 215.335 271.895 218.946 271.335C224.95 270.388 230.795 268.475 236.755 267.283C240.69 266.506 245.031 267.187 247.988 263.46C248.334 263.018 249.196 262.893 249.828 262.81C256.052 262.029 258.576 257.827 255.7 252.252C254.604 250.128 252.553 248.4 250.67 246.814C248.435 244.945 246.092 243.001 243.464 241.835C238.377 239.567 233.048 237.88 227.862 235.851C224.393 234.49 221.06 232.141 217.524 231.803C214.775 231.543 210.698 228.745 208.619 233.482C209.179 234.043 209.724 234.608 209.804 234.704C208.279 235.96 207.014 236.995 205.736 238.048C205.902 238.271 206.087 238.506 206.254 238.728C207.512 238.437 208.758 238.164 210.016 237.872L210.034 237.885ZM171.5 217.643L170.589 216.102C171.053 213.349 171.517 210.595 172.054 207.465C168.766 206.576 165.492 205.685 162.219 204.794C133.348 200.554 105.04 202.72 76.82 213.384C78.874 215.128 79.8256 216.63 80.9182 216.732C82.9116 216.923 85.4871 214.576 86.5728 218.297C87.2138 217.738 88.0719 216.982 88.9702 216.187C90.6346 218.745 96.7091 220.012 97.4948 219.206C104.54 220.424 110.898 221.513 117.471 222.658C116.155 218.711 117.956 217.232 120.685 217.037C125.438 216.68 130.223 216.586 134.985 216.717C140.906 216.875 146.817 217.414 152.737 217.746C156.504 217.962 160.283 218.241 164.062 218.266C166.529 218.276 168.999 217.876 171.469 217.649L171.5 217.643ZM187.743 58.6789C187.542 60.1843 186.915 61.6882 187.367 62.175C190.333 65.3804 188.796 69.5294 189.777 73.1108C190.017 73.9992 188.453 75.3888 187.113 77.4957C191.523 76.5535 192.419 78.0969 192.419 81.1455C192.404 84.5444 191.614 88.2892 194.847 90.9567C195.087 91.1501 195.119 91.5866 195.244 91.9272C194.339 92.2494 193.612 92.5077 191.682 93.1895C193.678 93.7435 194.761 94.0526 195.777 94.3421C194.736 96.0947 194.108 97.1565 193.302 98.5505C194.744 98.9209 195.885 99.2035 197.508 99.6198C196.328 100.339 195.644 100.748 194.818 101.245C196.044 102.255 196.99 103.031 197.311 103.32C196.49 106.281 195.812 108.726 195.059 111.453C196.508 111.522 197.431 111.56 197.529 111.574C198.562 113.266 199.303 114.474 200.043 115.683C200.588 115.726 201.133 115.769 201.678 115.812C198.633 110.347 203.109 113.515 203.233 113.414C204.657 110.375 200.152 107.575 204.999 105.732C206.049 105.337 206.461 102.561 206.651 100.82C206.842 99.0006 206.404 97.1057 206.254 95.2373C206.121 93.6344 204.158 91.6054 204.586 90.4851C207.439 83.0489 202.233 76.7273 202.042 69.6694C201.897 63.9934 199.22 58.3817 197.752 52.7246C197.244 50.7949 197.125 48.7472 196.543 46.8466C195.095 42.0862 193.85 37.2257 191.815 32.7139C190.625 30.0708 191.696 25.9591 187.513 24.9329C187.264 24.8675 186.989 24.2224 187.026 23.8999C187.611 18.9442 183.613 15.7995 182.209 11.6313C181.764 10.3063 180.496 9.24099 179.618 8.05763C179.076 8.37715 178.518 8.69945 177.976 9.01897C179.258 11.2979 180.525 13.5797 181.807 15.8586C179.044 17.75 179.245 20.1935 182.411 23.1891C181.447 23.3639 180.514 23.5331 180.683 23.5026C178.482 26.6977 185.563 27.9405 181.098 31.4516C181.741 31.7772 182.421 32.1278 183.448 32.6522C182.188 33.1967 181.282 33.5981 179.73 34.2745C182.382 36.0049 185.919 37.1323 183.077 40.6177C188.806 43.4641 183.195 49.979 186.625 52.8635C185.326 54.4102 184.233 55.6984 182.841 57.3411C185.134 57.9675 186.463 58.3267 187.774 58.6733L187.743 58.6789ZM182.146 189.253C185.27 191.325 185.311 192.77 182.799 196.338C180.312 199.869 181.159 201.927 185.593 203.381C188.548 204.346 191.442 205.495 194.375 206.511C195.557 206.929 196.824 207.125 197.968 207.597C200.344 208.588 202.659 209.684 205.015 210.741C205.067 211.727 205.941 211.49 205.952 211.203C206.179 206.708 206.342 202.208 206.395 197.712C206.404 197.063 205.853 196.294 205.36 195.752C204.332 194.611 202.098 193.358 202.268 192.553C202.74 190.367 203.674 187.417 205.358 186.511C208.916 184.618 208.428 182.448 207.071 179.582L209.839 179.08C209.126 178.198 207.901 177.283 208.048 176.783C209.594 171.637 204.945 168.737 203.68 164.638C202.536 160.944 200.206 157.591 198.287 154.149C197.982 153.604 196.64 152.994 196.42 153.176C195.695 153.797 194.594 155.04 194.811 155.537C196.12 158.491 194.179 159.111 192.138 159.876C191.472 160.124 190.905 160.653 190.874 160.659C194.055 165.042 191.453 169.51 192.019 173.846C200.143 174.22 197.658 180.721 198.683 186.111C194.182 185.332 189.988 184.593 185.715 183.851C186.169 184.875 186.6 185.855 186.975 186.703C185.387 187.528 183.885 188.306 182.14 189.223L182.146 189.253ZM180.649 208.259C178.631 211.326 176.993 213.788 175.36 216.279C174.965 216.888 174.603 217.507 174.226 218.128C174.921 218.302 175.642 218.708 176.287 218.607C177.782 218.399 179.236 217.709 180.738 217.626C184.198 217.456 187.66 217.649 191.118 217.464C194.233 217.31 197.327 216.859 200.442 216.531L200.604 214.29C193.654 212.202 186.701 210.099 180.637 208.277L180.649 208.259ZM209.679 145.811C209.814 145.423 210.295 144.767 210.208 144.198C209.728 141.379 208.976 138.625 208.542 135.797C208.277 134.076 207.891 132.124 208.449 130.585C209.899 126.563 208.487 122.87 207.649 119.121C207.537 118.588 206.105 118.358 205.294 117.984C205.227 118.66 205.224 119.339 205.093 120.011C204.524 122.878 203.936 125.733 203.195 129.311C207.94 133.174 202.975 140.724 206.56 145.334C207.812 145.533 208.706 145.671 209.679 145.811Z" fill="#FBFBF6"/>
</svg>
