<svg width="102" height="232" viewBox="0 0 102 232" fill="none" xmlns="http://www.w3.org/2000/svg">
<path d="M8.02108 0.956374C7.18221 2.82392 6.03718 4.23834 3.74714 4.42204C3.09198 4.47715 2.42455 5.15681 1.8796 5.67727C-0.796191 8.19387 -3.38627 10.7962 -6.0988 13.2761C-7.67856 14.7211 -9.53999 15.8722 -11.0401 17.3969C-12.0076 18.3643 -12.3076 20.0359 -13.3179 20.9116C-14.6344 22.0443 -14.6773 23.9854 -16.4468 24.8977C-17.3469 25.3569 -17.5123 27.151 -18.1552 28.247C-18.4858 28.7981 -19.1594 29.141 -19.1594 29.7533C-19.7778 31.278 -20.4942 32.7781 -20.9902 34.3395C-21.8229 36.9847 -22.5148 39.685 -23.2557 42.3608C-23.5741 43.4997 -23.9293 44.6386 -24.1497 45.802C-24.8355 49.4146 -25.2212 53.0578 -24.9702 56.7378C-24.9579 56.946 -24.8171 57.1481 -24.4865 58.0053C-25.1845 57.6502 -25.5764 57.442 -25.9254 57.2644C-25.6376 58.2012 -25.2519 58.8687 -25.2519 59.53C-25.258 61.6914 -25.6192 63.8774 -25.4417 66.0143C-25.1478 69.382 -24.5477 72.7253 -24.0395 76.0746C-23.8497 77.2808 -24.5171 78.683 -23.1149 79.6688C-22.9006 79.8219 -23.3476 80.9302 -23.5496 81.8793C-23.5374 81.8915 -22.9496 82.1977 -22.8761 82.6018C-22.3801 85.2409 -22.123 87.935 -21.5229 90.5557C-21.1433 92.2212 -20.2064 93.7581 -19.7043 95.4113C-19.0369 97.6585 -18.7001 100.016 -17.947 102.226C-17.2367 104.308 -16.2325 106.304 -15.21 108.258C-14.5609 109.494 -13.4833 110.511 -12.8648 111.754C-11.4136 114.662 -10.1156 117.65 -8.69499 120.749C-9.11136 120.847 -9.64407 120.963 -10.6176 121.177C-9.34404 121.373 -8.53579 121.496 -7.75204 121.618C-7.78877 124.018 -4.45167 124.845 -4.31084 127.741L-1.37176 130.68C-1.59831 130.907 -1.86773 131.176 -1.86773 131.176C-0.808438 132.236 0.208001 133.215 1.18158 134.226C2.99402 136.124 4.5799 138.322 6.66175 139.841C7.7088 140.606 7.6047 141.543 8.16803 142.216C9.14773 143.38 10.4826 144.298 11.7868 145.113C13.3298 146.08 15.0259 146.796 16.5873 147.721C16.82 147.856 16.7159 148.572 16.7832 149.264C16.8873 149.27 17.2915 149.184 17.5486 149.331C20.2305 150.936 20.6224 148.572 21.8164 147.133C23.1696 145.511 24.9882 144.268 26.6292 142.896C27.6762 142.02 28.711 141.096 29.8683 140.392C30.4867 140.018 31.3501 140.073 32.5502 139.853C33.4136 138.022 35.5016 138.628 37.3814 138.989C38.9856 139.296 40.5041 140.092 42.1084 140.398C44.876 140.912 42.2247 143.955 44.0188 144.684C43.8474 145.247 43.5841 145.829 43.5045 146.435C43.382 147.366 43.7126 148.541 43.2595 149.191C42.1757 150.752 40.7736 152.117 39.4326 153.483C38.41 154.53 37.2834 154.946 36.6343 153.918C35.2383 154.591 34.0137 155.51 32.6788 155.73C30.8419 156.036 28.8947 156.012 27.0456 155.779C24.7494 155.491 22.49 154.848 20.0285 154.322C19.6672 155.246 19.9917 157.016 18.112 157.353C18.0691 157.359 18.216 158.069 18.1487 158.418C17.9221 159.563 17.6343 160.696 17.3772 161.835C17.218 162.533 16.9118 163.243 16.9547 163.935C17.1323 166.733 17.3833 169.519 17.6833 172.305C17.8242 173.597 18.1303 174.871 18.3936 176.334C18.4365 176.316 18.0017 176.555 17.9895 176.555C18.6508 177.645 19.3182 178.581 19.8019 179.604C20.0836 180.192 20.1632 180.908 20.1693 181.576C20.1877 182.512 19.6917 183.486 21.4368 183.492C22.1961 183.492 22.2328 185.341 21.5164 186.315C24.1799 187.889 27.4436 192.744 26.6598 193.675C27.4987 195.775 29.9234 196.069 30.9643 198.396C32.0236 200.765 34.8219 202.351 37.0017 204.421C37.0691 204.292 36.8242 204.782 36.4813 205.456C37.3018 205.676 37.9814 205.866 38.7652 206.074C38.606 206.368 38.4407 206.68 38.0365 207.415C38.7468 206.925 39.1264 206.668 39.1815 206.625C41.8818 208.676 44.478 210.648 47.6988 213.085C49.6582 213.195 52.5422 213.385 54.5811 216.049C55.12 215.877 55.8241 215.651 56.5283 215.436C56.5956 215.577 56.6691 215.712 56.7365 215.853C56.3997 216.067 56.0629 216.281 55.2241 216.826C56.4303 216.881 57.1651 216.857 57.8876 216.967C60.2756 217.322 62.9086 217.212 64.9904 218.216C68.2418 219.79 72.081 217.873 75.0017 220.353C76.5018 218.939 78.6633 220.378 80.3778 218.884C82.1535 217.328 84.5415 216.459 86.758 215.234C86.3356 214.555 85.9743 213.961 85.6253 213.404C85.1171 213.716 84.6027 214.022 84.0884 214.34C83.8802 213.63 83.6659 212.926 83.574 212.601C82.3066 212.252 81.0268 212.075 79.9247 211.524C79.4471 211.291 79.3491 210.311 79.0246 209.558C78.8837 209.638 78.3878 209.913 77.7693 210.262C78.4735 207.452 78.4184 207.385 75.4242 206.717C75.314 205.321 75.2099 204.054 75.0568 202.186C76.808 202.137 79.6001 201.292 80.5309 202.247C81.6759 203.429 82.8025 203.245 83.8986 203.741C84.168 203.864 84.5966 204.145 84.5843 204.329C84.37 206.944 87.0152 206.503 88.1664 207.189C90.187 208.389 91.7422 209.87 93.6404 211.499C96.3836 209.393 98.643 212.975 101.08 212.595L98.1899 215.485L97.051 214.346C96.8795 214.408 96.702 214.475 96.5305 214.536C96.7448 215.204 96.7999 215.994 97.2102 216.514C98.2572 217.831 98.0307 219.943 96.5979 220.812C96.4019 220.935 96.1019 220.978 95.9978 221.143C94.6997 223.347 92.3423 224.235 90.4013 225.625C89.6726 226.146 88.8705 226.58 88.0623 226.96C85.8641 227.97 83.6414 228.907 81.4371 229.899C81.137 230.028 80.8921 230.285 80.5982 230.444C79.0613 231.295 77.7387 232.728 75.6936 231.05C74.9588 230.45 73.3546 230.916 72.1361 230.897C71.0707 226.929 74.9343 225.111 76.1528 222.202C74.8425 222.411 73.4525 222.87 72.081 222.784C69.9134 222.649 67.7642 222.129 65.6027 221.804C64.0658 221.578 62.4799 221.559 60.9982 221.168C60.1532 220.947 59.5347 219.986 58.6897 219.655C57.8203 219.312 56.7916 219.41 55.867 219.184C54.1954 218.773 51.1522 218.302 51.1461 217.794C51.0787 215.289 49.7194 216.943 48.9601 216.759C48.7152 216.698 48.605 216.098 48.4091 215.681C45.8741 216.085 45.0475 215.577 44.925 213.238C43.9147 213.342 42.9044 213.446 41.692 213.569C41.7961 212.669 41.8818 211.983 42.0104 210.899C41.2022 211.365 40.7062 211.64 39.8918 212.112C40.0265 211.181 40.1 210.618 40.1796 210.097C39.4265 209.944 38.5754 209.999 38.0243 209.619C36.7568 208.744 35.6485 207.648 34.4606 206.668C34.2586 206.503 33.9096 206.509 33.7259 206.337C32.3604 205.082 30.9399 203.858 29.7275 202.462C29.4519 202.137 29.9112 201.163 30.0336 200.49C29.2805 200.667 28.6498 200.821 27.8661 201.004C28.1049 200.349 27.2109 199.357 24.829 197.281L26.1577 195.953C26.072 195.855 25.9985 195.757 25.9128 195.659C25.5576 195.842 25.2086 196.032 24.7249 196.283C24.7861 195.291 24.8474 194.434 24.9086 193.418C24.131 193.534 23.6044 193.62 23.0166 193.705C23.0166 193.705 22.9553 193.669 22.888 193.626C24.9943 190.405 20.3469 191.93 20.4755 190.185C20.5367 189.315 20.8857 188.476 21.2102 187.184C19.8387 187.784 19.4529 187.95 18.8467 188.213C19.2325 186.995 19.5448 186.021 19.857 185.035C19.0059 184.992 18.2834 184.956 17.2118 184.9L18.5895 183.523C16.4036 183.259 15.7668 181.165 16.9057 178.385C16.1526 177.951 15.3994 177.528 14.7687 177.167C15.0688 175.63 15.3872 174.001 15.7913 171.956C13.8074 169.397 13.6176 162.851 15.8342 160.414C15.4607 160.114 15.0871 159.814 14.4687 159.318C15.3137 158.963 15.8831 158.724 16.5996 158.424C16.1097 158.179 15.7729 158.002 15.0994 157.659C16.0852 156.955 16.869 156.404 17.4017 156.018C17.4874 154.23 17.567 152.632 17.6527 150.917C16.5199 151.181 15.7546 151.358 14.3646 151.683C15.0871 150.544 15.4178 150.017 15.7484 149.491C15.6443 149.386 15.5341 149.289 15.4239 149.191C15.0382 149.454 14.6708 149.882 14.2544 149.944C13.5931 150.042 12.5644 150.164 12.2828 149.809C11.5908 148.946 11.4806 147.525 10.6908 146.858C9.80291 146.105 8.43744 145.927 6.61889 145.26L0.269232 138.91C0.397817 138.72 0.728464 138.255 1.37139 137.342C0.630494 137.679 0.348832 137.802 -0.128769 138.022C0.324345 136.369 -0.36757 135.812 -1.81263 134.991C-4.02307 133.724 -5.37015 131.164 -7.70917 129.817C-7.89286 129.707 -7.78877 128.978 -7.7153 128.55C-7.43363 126.982 -8.39496 125.935 -9.36853 125.059C-10.4462 124.092 -12.2893 123.878 -12.0382 121.753C-12.0015 121.447 -12.9138 121.024 -13.52 120.553L-12.1239 119.157C-13.2016 118.422 -14.1323 117.785 -15.1855 117.075C-14.5119 116.475 -14.0527 116.065 -13.0546 115.164C-14.3099 115.354 -14.8793 115.434 -15.4426 115.52C-15.51 114.938 -15.5774 114.368 -15.6508 113.719C-17.3041 113.279 -16.851 112.042 -16.2999 110.597C-18.5409 111.491 -18.5103 109.28 -18.3573 108.649C-17.9409 106.886 -18.6634 106.408 -19.9738 106.347C-20.1636 105.398 -20.3166 104.584 -20.5187 103.586C-20.5432 103.586 -21.0514 103.506 -21.5719 103.426C-21.5841 103.304 -21.5964 103.182 -21.5964 103.059C-21.0392 102.857 -20.482 102.655 -19.7594 102.398C-22.1352 101.345 -22.0556 98.7423 -21.6025 96.3176C-22.3434 96.3359 -23.0965 96.3543 -23.8436 96.3788C-23.4884 95.3379 -23.1394 94.2908 -22.772 93.2131C-24.5477 91.6946 -25.3131 89.0678 -24.4069 87.5615C-25.46 86.7165 -27.2174 86.1838 -25.5335 84.3775C-27.4256 84.0652 -27.4317 83.8509 -25.4784 80.8077C-25.8336 80.4526 -26.2193 80.0791 -26.5928 79.6933C-26.9112 79.3627 -27.199 79.0137 -27.5541 78.6095C-26.8867 78.2483 -26.2499 77.9054 -25.2457 77.3666C-26.1275 77.2686 -26.6357 77.2135 -27.4255 77.1216C-27.15 76.1481 -26.703 75.2602 -26.7092 74.3724C-26.7153 73.46 -26.9235 72.3579 -27.4684 71.6659C-28.4849 70.3678 -28.6073 68.2493 -27.9277 67.5573C-28.4175 66.1735 -28.7788 65.1387 -29.1461 64.0978C-27.3888 63.6875 -28.7665 62.9834 -28.938 62.3343C-29.0482 61.8935 -29.091 61.1403 -28.8461 60.9444C-27.0643 59.5667 -27.6399 58.1217 -28.3563 56.4378C-28.6563 55.7459 -28.1236 54.7356 -28.1175 53.8722C-28.1113 53.2415 -28.3502 52.6109 -28.5828 51.4842L-27.3337 50.2351C-27.7685 50.18 -28.1603 50.131 -28.7849 50.0453C-28.1542 48.937 -27.4684 47.9083 -26.9908 46.7939C-26.7581 46.2428 -26.9357 45.5142 -26.9112 44.8651C-26.8867 44.2406 -26.8684 43.6221 -26.7826 43.0098C-26.7153 42.4894 -26.4765 41.9811 -26.4765 41.4546C-26.4765 40.879 -25.3008 38.6869 -25.062 38.1297C-24.6824 37.2235 -23.1455 36.752 -24.2293 35.1661C-25.0988 33.8925 -23.7456 31.829 -21.9148 31.0514C-22.2699 30.6595 -22.6067 30.2738 -22.8087 30.0472C-18.4675 24.5671 -15.6386 18.2358 -10.2258 13.4353C-5.21094 8.99601 -0.955384 3.66279 5.41876 0.141998C5.71267 0.178741 6.64338 0.301202 7.56184 0.423658C7.69656 0.59511 7.83126 0.766551 7.9721 0.931879L8.02108 0.956374ZM41.2389 148.97C41.0736 146.845 40.896 144.61 40.7246 142.516C39.8796 142.32 39.1326 142.149 38.3855 141.978C38.5386 141.543 38.6917 141.096 38.8509 140.643C36.3527 141.353 33.8789 142.051 31.4052 142.749L30.5296 141.873C29.6295 142.774 28.9743 143.551 28.1967 144.17C27.3211 144.874 26.1393 145.284 25.4535 146.117C24.1799 147.672 23.1635 149.435 22.043 151.119C22.6369 151.554 23.5309 152.215 24.5718 152.987C24.6698 152.926 25.576 152.313 25.6005 152.35C26.7455 153.899 28.0559 152.503 29.2438 152.601C29.9357 152.656 30.6949 152.619 31.3195 152.864C32.7217 153.422 33.8545 153.06 35.0791 152.313C37.0201 151.132 39.0652 150.127 41.2205 148.964L41.2389 148.97ZM76.3488 228.901C80.139 227.132 83.6475 225.497 87.2908 223.801C87.2663 222.907 87.2356 221.957 87.1928 220.776C86.2927 221.798 85.7294 222.986 84.9027 223.213C83.9475 223.47 82.7597 222.882 81.2166 222.576C80.9595 225.209 75.9814 224.75 76.3426 228.907L76.3488 228.901ZM89.5502 213.593C89.6665 213.416 89.7829 213.25 89.8992 213.073C88.6929 211.548 87.4928 210.017 86.5743 208.854C85.6498 208.542 84.9089 208.499 84.468 208.107C83.1209 206.907 81.8841 205.584 80.7268 204.427C79.3185 206.582 80.4574 207.978 82.1412 209.111C83.9414 210.324 85.7967 211.456 87.6459 212.595C88.2582 212.975 88.9256 213.263 89.5624 213.593L89.5502 213.593ZM89.1705 217.647C87.7622 218.345 86.3723 219.025 84.4129 219.992C86.9234 219.747 88.8399 219.557 90.8728 219.349L89.1705 217.647Z" fill="white"/>
</svg>
