<svg width="281" height="510" viewBox="0 0 281 510" fill="none" xmlns="http://www.w3.org/2000/svg">
<path d="M338.119 320.587C337.983 318.497 337.472 316.331 337.803 314.315C338.119 312.315 339.097 310.344 340.119 308.539C341.488 306.103 343.173 303.831 344.902 301.214C344.662 300.883 344.045 300.041 343.519 299.319C345.113 295.935 346.677 292.61 348.362 289.046C348.633 289.211 348.091 288.88 348.437 289.091C350.227 282.503 351.897 276.411 353.596 270.154C355.522 270.514 358.139 271.252 356.018 266.98C355.416 265.761 355.672 263.28 356.56 262.287C359.011 259.549 358.154 256.015 359.508 253.066C360.35 251.231 360.455 248.99 361.553 247.381C363.088 245.155 363.855 243.199 362.065 240.717C362.922 240.597 363.629 240.507 363.779 240.477C365.419 233.979 366.998 227.767 368.698 221.013C368.818 220.998 369.811 220.833 371.15 220.622C370.127 209.958 374.203 199.955 376.249 189.351C378.279 189.05 378.686 187.531 377.918 184.658C377.407 182.778 378.204 180.537 378.505 178.476C378.61 177.754 379.317 176.897 379.107 176.385C377.317 172.234 380.761 175.543 381.318 174.791C380.942 174.731 380.566 174.671 380.175 174.61C380.957 169.692 381.829 164.788 382.506 159.855C383.017 156.094 383.303 152.304 383.724 148.168C383.318 148.168 383.995 148.168 384.04 148.168C384.356 146.017 384.597 144.016 384.958 142.016C385.063 141.399 385.665 140.827 385.695 140.226C385.981 134.179 385.785 128.072 386.642 122.101C386.928 120.1 388.553 118.115 388.493 115.678C388.357 111.136 388.447 106.593 388.447 101.84C389.245 101.614 390.252 101.344 391.335 101.043C388.357 96.6207 388.763 89.7317 391.486 88.9195C390.914 87.7312 389.921 86.543 389.816 85.2795C389.545 82.1659 388.447 79.1576 389.621 75.8184C390.313 73.863 389.215 71.321 389.184 69.0498C389.154 66.222 389.5 63.4092 389.485 60.5814C389.485 58.4907 389.154 56.3999 388.959 54.3242C388.282 47.2547 387.605 40.2003 386.868 32.5142C388.854 31.1003 381.724 -6.53336 379.287 -9.60181C380.205 -9.76727 380.942 -9.90264 381.679 -10.038C381.709 -10.3088 381.859 -10.6998 381.739 -10.8202C378.129 -14.2797 378.475 -19.1832 377.136 -23.455C376.595 -25.1847 377.302 -27.3056 376.73 -29.0203C375.542 -32.6001 373.872 -35.9995 372.458 -39.5041C372.082 -40.4518 371.782 -41.4445 371.586 -42.4372C371.225 -44.2572 371.24 -46.2126 370.593 -47.9273C367.465 -56.2753 364.742 -64.8489 360.756 -72.7908C357.131 -79.9956 351.972 -86.4183 347.655 -93.2923C342.962 -100.753 336.87 -106.86 330.733 -113.147C324.145 -119.901 316.339 -122.819 307.795 -124.413C304.095 -125.105 298.605 -125.135 296.469 -122.969C293.536 -120.006 289.851 -119.585 287.068 -117.389C285.203 -115.915 284.692 -112.741 283.473 -110.094C282.992 -110.139 281.999 -110.214 281.909 -110.229C279.878 -106.784 278.089 -103.746 275.787 -99.8202C276.675 -97.6091 276.359 -94.7663 271.079 -94.4655C272.343 -92.9914 273.095 -92.1341 273.546 -91.6076C271.771 -89.1559 270.086 -86.8545 268.432 -84.5682C269.034 -83.6056 270.613 -82.2067 270.432 -81.1087C269.786 -77.3634 268.658 -75.8893 267.108 -75.5434C269.304 -73.3774 271.756 -71.1964 268.492 -69.226C268.778 -67.7068 269.139 -66.5637 269.184 -65.4055C269.289 -63.0289 269.214 -60.6373 269.214 -58.0201C268.973 -57.96 268.101 -57.7644 267.785 -57.7043C269.41 -52.0487 271.004 -46.4984 272.613 -40.903C271.53 -40.7225 270.869 -40.6172 270.808 -40.6022C272.132 -37.5939 274.479 -34.5405 274.629 -31.3818C274.855 -26.5234 280.059 -26.8242 281.112 -23.9062C282.766 -19.3938 287.715 -22.7781 289.49 -19.108C289.204 -18.7319 288.708 -18.1002 288.723 -18.1002C291.701 -16.581 294.529 -15.1371 297.868 -13.4374C297.868 -13.3471 298.018 -12.4446 298.154 -11.5422C298.425 -11.843 298.695 -12.1288 298.981 -12.4296C302.034 -10.0831 305.268 -7.94726 308.066 -5.31501C310.277 -3.23929 311.917 -0.546875 314.173 2.32603C320.851 1.84471 321.709 10.6439 327.454 13.7425C327.394 14.3441 327.259 15.5926 327.169 16.3597C329.846 18.9919 332.238 21.3233 334.629 23.6698C334.163 24.091 333.697 24.5121 333.997 24.2414C336.314 27.7009 338.705 30.7092 340.48 34.0333C344.436 41.4337 348.678 48.7138 349.52 57.4528C349.716 59.5737 348.873 61.0778 347.941 61.3335C346.076 61.8449 343.699 61.89 341.954 61.138C338.615 59.679 335.381 57.8138 332.493 55.6027C327.951 52.1432 323.754 48.2475 319.377 44.5774C315.812 41.5992 311.992 38.8917 308.623 35.718C304.862 32.1682 301.478 28.2123 297.928 24.4369C297.582 24.0759 297.221 23.6548 296.77 23.4592C294.92 22.662 292.603 22.1807 294.168 19.9997C285.038 9.7565 278.465 -1.65994 272.629 -13.5577C271.952 -17.664 273.335 -22.6277 268.071 -25.4555C266.221 -26.4482 264.326 -27.3657 262.46 -28.3284C261.814 -28.6593 261.152 -28.9902 260.52 -29.3512C258.76 -30.374 257.031 -31.4119 255.075 -32.5701C255.015 -32.3595 255.18 -32.931 255.496 -33.9839C252.142 -31.9383 249.781 -33.7583 247.148 -34.9616C243.749 -36.5259 240.109 -37.5337 236.664 -39.0078C235.958 -39.3086 235.657 -40.5721 235.581 -40.6774C232.904 -41.1737 230.768 -41.4595 228.677 -41.9559C225.519 -42.708 222.18 -43.1291 219.322 -44.5129C214.539 -46.8293 209.379 -46.348 204.446 -47.3257C199.437 -48.3184 193.962 -48.0326 189.419 -49.973C186.652 -51.1462 185.614 -50.7852 183.824 -49.2961C183.282 -48.8449 183.267 -49.1607 181.523 -50.71C180.906 -51.2515 179.191 -51.4169 178.559 -50.9507C174.844 -48.168 171.234 -50.2588 167.579 -50.8755C167.324 -50.9206 166.902 -51.2214 166.857 -51.1612C164.135 -47.9725 160.585 -50.9356 157.366 -49.9128C153.922 -48.8148 149.936 -49.4616 146.175 -49.2961C145.453 -49.266 144.596 -49.1307 144.039 -48.7245C140.384 -46.002 136.248 -46.5135 132.127 -46.7691C131.57 -46.7992 130.833 -46.5135 130.457 -46.1224C128.547 -44.1971 126.215 -44.8288 123.944 -44.8438C123.418 -44.8438 122.681 -44.7837 122.38 -44.4528C120.545 -42.3169 118.078 -42.7381 115.701 -42.2266C112.467 -41.5197 109.61 -39.1732 105.985 -37.2028C101.517 -38.5114 100.314 -38.1203 97.8021 -33.9539C96.7793 -32.2542 85.6937 -27.3507 83.4977 -27.817C84.0241 -26.9145 84.4603 -26.1775 85.1222 -25.0494C82.9562 -25.0494 81.2114 -25.1697 79.5117 -24.9741C78.9853 -24.914 78.1129 -23.9664 78.173 -23.5302C78.6995 -19.4239 75.8416 -19.3035 72.9837 -18.8824C73.3598 -18.0701 73.811 -17.1376 74.5932 -15.4529C72.8032 -15.9944 71.63 -16.6412 70.5019 -16.566C69.7799 -16.5209 68.8022 -15.483 68.5465 -14.7009C67.9749 -13.0012 68.0652 -11.0608 67.3432 -9.46645C67.0273 -8.77454 65.3577 -8.69933 64.2296 -8.30825C63.3572 -5.58575 63.8686 -1.55466 58.7846 -2.09615C58.9651 -0.291168 59.1155 1.34834 59.281 3.0029C59.0554 2.86752 58.8298 2.73215 58.6041 2.61182C57.9724 3.70984 57.3557 4.80786 56.724 5.90588L57.6565 6.56772C57.2955 6.61284 56.9195 6.73317 56.5886 6.65796C56.2125 6.58275 55.8666 6.34209 55.0544 5.951C55.28 10.8545 57.5512 16.1641 51.6249 18.9769C53.2795 21.8197 55.3101 24.091 52.6929 27.6107C51.8656 28.7237 53.5502 32.0629 54.6031 34.1086C56.017 36.8461 56.6036 39.012 53.2343 40.6365C52.8433 40.8321 52.8583 41.8398 52.6778 42.4866C57.5663 43.5094 57.8671 43.9757 56.0321 46.3372C57.2955 47.9015 58.1679 50.0374 59.6119 50.5338C61.462 51.1806 63.989 51.0602 65.8541 50.3382C68.9526 49.1349 71.63 46.8486 74.7285 45.6904C76.699 44.9534 79.1357 45.5099 81.3468 45.3445C82.9111 45.2242 84.5055 44.9985 85.9795 44.5323C88.2658 43.8103 90.3867 42.5317 92.703 42.0053C97.8923 40.802 103.157 39.9747 108.376 38.8917C110.001 38.5608 111.535 37.5681 113.159 37.4628C114.979 37.3425 116.829 37.8839 119.311 38.2449C120.545 36.6505 122.5 35.5375 125.388 37.7636C126.321 38.4856 128.456 38.1396 129.84 37.6884C135.586 35.8684 141.106 37.0567 146.657 38.5608C147.093 38.6811 147.634 38.3803 148.131 38.275C150.778 37.7335 153.696 35.5826 155.576 39.734C155.757 40.1402 157.847 39.6588 159.036 39.6287C164.195 39.4783 169.113 39.8995 174.107 41.9602C178.86 43.9156 184.26 44.3066 189.329 45.5701C190.728 45.9161 191.901 47.0742 193.27 47.6308C194.503 48.1272 195.857 48.3227 197.286 48.1422C200.565 49.4508 203.829 50.97 207.168 52.444C211.109 54.1888 215.712 54.8958 218.961 58.5509C221.292 61.1681 224.586 63.0182 227.685 64.8231C232.648 67.7261 234.529 72.5845 236.71 77.3075C235.672 78.0145 234.905 78.5259 234.153 79.0373C235.19 80.4512 236.063 81.6394 236.815 82.6773C233.792 82.3013 232.799 83.7302 234.077 86.9491C235.612 90.7846 232.964 90.6192 230.452 90.2582C230.663 91.657 230.828 92.755 230.994 93.8681C229.52 93.7779 228.046 93.6726 226.572 93.5823C224.962 98.3204 220.149 99.9599 216.148 102.021C212.358 103.961 207.89 104.578 203.212 105.916C203.167 105.6 203.273 106.413 203.273 106.413C188.126 108.368 172.979 111.512 157.682 108.91C153.335 108.91 148.537 110.023 144.822 108.488C142.595 107.571 140.685 108.308 138.67 107.616C134.729 106.247 130.412 106.037 126.245 105.33C123.072 104.788 119.868 104.397 116.769 103.54C114.182 102.818 111.745 101.569 109.264 100.501C105.383 98.8017 101.397 97.2825 97.6817 95.267C93.8161 93.1612 89.439 92.1985 86.175 88.6036C83.6932 85.8661 79.617 84.6327 76.5034 82.3915C73.9013 80.5113 71.4044 78.3454 69.3136 75.9237C65.7187 71.7873 62.4247 67.3651 59.0704 63.0182C57.8821 61.4689 56.9044 59.7391 55.8816 58.1899C53.7006 60.055 52.2416 62.958 48.5865 61.6043C48.2556 61.4839 47.4885 62.943 46.7515 63.3942C44.2396 64.9134 41.6374 66.2972 39.1105 67.7713C38.5238 68.1172 38.1177 68.9445 37.5161 69.0798C36.4481 69.3205 35.32 69.1851 34.207 69.2152C34.3423 69.9222 34.4627 70.6291 34.598 71.321C32.7931 71.5918 31.0031 71.8776 29.0778 72.1633C29.2132 72.6296 29.499 73.6224 29.8149 74.7655C27.694 75.5928 25.6333 76.39 23.6178 77.1721C23.9036 77.6535 24.2495 78.2702 24.6105 78.8869C23.0312 79.7141 21.4518 80.5264 19.7221 81.4289C20.1432 83.1737 21.0006 85.49 16.9845 85.099C16.3528 85.0388 15.5255 86.9942 14.5027 88.4382C12.0509 88.1223 12.5924 88.1223 12.5774 91.2208C12.5774 93.7327 11.359 96.5455 6.90678 95.8987C8.441 97.1321 9.3134 97.809 10.4265 98.6964C9.32845 99.4936 8.42596 100.14 8.45604 100.125C8.29059 102.427 8.33571 103.765 8.08001 105.029C7.5686 107.661 6.87669 110.263 6.3352 112.896C6.29008 113.091 6.96694 113.377 6.96694 113.633C6.96694 114.46 6.83157 115.287 6.68116 116.851C8.15521 117.618 9.80977 119.363 8.09505 122.131C8.96745 123.665 10.3513 125.305 10.8627 127.185C11.5395 129.667 11.5095 132.344 11.8253 134.931C11.8704 135.337 12.081 135.849 12.3969 136.089C13.7055 137.082 15.6007 137.699 16.3377 138.977C18.4887 142.768 21.3766 145.957 23.9788 149.356C25.5281 151.371 27.5135 153.041 29.153 154.981C30.1458 156.155 30.8678 157.553 31.9507 159.208C36.6136 157.147 36.5534 163.465 39.682 165.089C44.6908 167.691 47.4434 173.287 53.1441 175.227C54.8287 175.799 55.9117 178.13 57.3707 179.77C59.5367 178.792 61.8531 177.754 64.1695 176.716C64.1995 176.837 64.2447 176.957 64.2747 177.062C66.2151 175.528 68.1554 173.994 70.3665 172.249C71.4044 172.625 73.3748 174.46 73.6756 170.685C73.7208 170.218 75.8566 169.963 76.9998 169.541C82.2944 167.571 87.9951 166.247 92.703 163.329C95.5158 161.585 97.3358 160.878 100.164 162.547C100.991 160.171 101.653 157.839 105.112 160.035C106 160.607 108.842 159.509 109.745 158.351C111.58 156.019 113.069 155.884 115.506 157.253C116.333 157.719 118.589 157.283 119.041 156.546C121.372 152.755 126.065 156.275 128.472 153.237C131.164 155.523 134.578 153.778 136.609 153.116C140.866 151.747 145.137 151.371 149.319 151.417C154.478 151.477 159.607 150.078 164.977 152.439C168.121 153.808 172.588 152.409 176.424 151.883C181.748 151.161 187.238 151.943 191.57 154.154C194.443 155.628 195.722 157.343 198.008 154.169C208.131 157.719 218.133 161.224 228.241 164.773C228.151 165.977 228.046 167.12 228.046 167.12C229.986 167.571 231.866 167.481 232.994 168.368C237.04 171.542 240.831 175.032 245.238 178.852C243.373 179.063 242.215 179.198 241.312 179.303C243.358 182.146 245.509 185.124 247.855 188.403C244.867 188.975 244.06 190.75 245.434 193.728C244.155 194.255 242.831 194.781 241.342 195.383C242.29 196.014 242.907 196.421 243.523 196.827C242.831 197.819 242.365 199.339 241.433 199.7C236.589 201.535 236.559 201.429 235.326 206.303C229.685 209.687 224.045 213.086 219.292 215.929C212.974 217.358 207.559 218.727 202.069 219.765C198.956 220.351 195.646 220.005 192.608 220.803C186.983 222.292 181.402 221.419 175.777 221.389C172.107 221.359 168.512 221.961 164.992 220.021C163.999 219.464 162.134 220.727 160.69 220.667C156.734 220.502 152.778 220.126 148.853 219.675C148.401 219.629 148.086 218.531 148.086 218.531C144.837 218.185 141.708 218.561 139.286 217.433C134.654 215.297 129.855 214.651 124.952 213.989C122.996 213.718 120.861 213.071 119.281 211.928C116.393 209.837 113.114 209.928 109.91 209.371C108.677 209.146 107.474 208.694 106.285 208.243C102.6 206.859 98.9001 205.536 95.2751 204.016C90.7477 202.121 86.3104 200.03 81.8281 198.03C78.8048 196.676 75.6912 195.488 72.7731 193.924C69.2685 192.059 66.0346 189.712 62.4999 187.922C60.5595 186.929 58.2883 186.629 55.8365 185.922V188.674L54.9641 187.877C52.4672 190.344 49.9854 192.826 47.2629 195.518C46.5259 194.901 45.7588 194.255 44.9616 193.578C44.5855 195.172 44.2245 196.676 43.8635 198.165C38.7795 197.278 37.6815 198.361 37.9823 204.077C37.0949 203.776 36.2676 203.49 35.1546 203.129C35.2899 204.678 35.4103 205.927 35.5456 207.356C33.9663 207.356 32.3719 207.04 31.0182 207.461C29.9954 207.777 28.3709 209.326 28.5363 209.868C30.1909 215.267 25.1219 216.471 22.8808 219.404C22.2791 220.186 21.3465 221.374 21.5722 222.006C22.8056 225.375 19.9778 225.721 18.248 226.924C18.8296 228.368 17.4257 229.782 14.0364 231.166C14.984 231.663 15.691 232.039 17.1049 232.791C15.5556 234.144 14.1417 235.558 12.5473 236.686C10.7123 237.98 11.1635 237.86 11.8103 240.116C12.3066 241.846 11.1184 244.042 10.0655 245.726C10.4265 246.854 11.4042 248.343 10.998 249.05C10.2309 250.389 8.68166 251.292 7.37306 252.45C9.40365 254.42 8.78695 257.098 7.32794 259.835C7.16248 260.136 6.84661 260.677 6.89174 260.707C10.607 263.4 6.86165 267.205 8.29059 270.394C8.90729 271.763 7.67389 273.944 7.14744 276.441C8.77191 277.719 9.82481 280.096 8.24546 283.39C7.94463 284.007 9.25324 285.285 9.55407 286.323C9.99027 287.827 10.1708 289.391 10.1557 291.121C10.261 292.58 10.1557 294.084 10.5468 295.453C10.8326 296.476 11.7501 297.333 12.3518 298.281C14.262 301.274 16.4581 304.117 17.9923 307.291C19.3159 310.073 19.8875 313.217 20.8502 316.391C23.9788 314.872 25.2573 318.331 27.1826 320.272C28.9124 322.016 30.2661 324.122 31.9207 326.258C31.665 326.544 31.1084 327.145 30.5218 327.792C30.973 328.063 31.2739 328.364 31.3792 328.304C34.6131 326.438 35.1245 330.109 36.9295 331.071C37.9523 331.613 38.6442 332.831 39.682 333.312C41.487 334.14 44.4502 332.741 44.8262 336.155C50.0004 336.652 54.0767 340.412 58.5139 341.615C62.9511 342.804 68.0802 342.352 72.6979 344.398C73.3146 344.669 74.548 343.134 75.4956 343.134C80.3089 343.134 85.8141 344.864 89.77 343.089C93.8763 341.239 98.0728 342.593 101.848 340.623C103.458 339.78 105.563 339.87 107.444 339.54C108.481 339.359 109.685 339.464 110.542 338.983C113.926 337.028 117.657 336.291 121.342 335.193C125.869 333.854 130.021 331.192 134.217 328.875C135.33 328.259 135.962 326.815 136.925 325.867C139.316 323.505 141.783 321.219 144.19 318.858C144.641 318.406 145.032 317.85 145.303 317.278C145.574 316.707 145.679 316.045 145.844 315.428C146.476 315.744 147.108 316.06 147.815 316.406C147.965 315.624 148.146 314.721 148.386 313.473C149.108 314.074 149.62 314.526 150.146 314.962C155.005 308.434 161.442 305.757 170.272 307.005C169.429 307.561 169.098 307.712 168.843 307.953C168.542 308.223 168.316 308.554 167.97 308.96C168.918 309.953 169.835 310.931 170.572 311.728C168.346 314.15 166.195 316.541 163.969 318.873C162.57 320.332 160.961 321.099 158.795 321.46C157.276 321.716 156.178 324.002 154.719 325.19C153.395 326.273 151.861 327.07 150.748 327.792C148.251 329.041 146.296 329.928 144.43 330.951C141.543 332.545 138.715 334.26 135.827 335.885C135.09 336.306 133.962 336.351 133.54 336.952C132.473 338.442 131.871 340.277 130.758 341.706C128.712 344.353 126.426 346.805 123.914 349.723C123.794 350.64 123.673 352.626 123.132 354.491C123.042 354.822 121.176 354.641 119.973 354.716C120.454 356.687 121.522 359.214 117.567 359.259C118.243 360.191 118.77 360.928 119.537 361.996C111.4 362.237 116.98 369.532 113.28 372.24C112.558 372.164 111.46 372.059 109.143 371.849C110.723 373.007 111.369 373.488 111.761 373.774C110.602 376.827 109.414 379.956 108.075 383.476C105.834 383.521 103.849 386.77 105.413 389.552C106.601 391.658 105.955 393.132 103.382 394.215C104.044 395.148 104.706 396.08 105.503 397.208C103.548 397.975 102.044 398.562 100.795 399.043C101.653 400.924 102.781 402.322 102.766 403.721C102.766 404.564 100.991 405.391 99.8778 406.323C100.329 407.918 101.427 409.964 101.397 411.979C101.352 414.957 100.479 417.92 100.013 420.884C99.938 421.335 100.224 421.846 100.179 422.328C100.058 423.817 100.344 425.652 99.577 426.69C97.9074 428.961 98.4789 429.638 99.8327 429.698C101.758 440.483 103.638 451.012 105.548 461.796C104.721 461.917 103.503 462.082 102.284 462.247C106.376 462.142 108.015 464.413 108.346 468.264C107.624 468.445 106.872 468.64 106.316 468.79C107.729 470.445 109.188 472.16 110.512 473.724C109.956 475.108 109.399 476.432 109.173 477.003C110.738 477.665 112.061 478.206 114.272 479.139C112.167 479.44 111.144 479.575 110.783 479.635C113.866 482.388 116.935 485.125 120.319 488.134C119.642 488.615 119.221 488.856 118.905 489.172C118.665 489.412 118.544 489.773 118.439 489.954C121.989 490.601 124.546 492.135 125.283 495.85C125.343 496.196 125.478 496.692 125.719 496.798C131.104 499.114 136.233 501.897 141.873 503.807C147.349 505.672 152.448 502.859 157.727 504.153C159.006 504.469 160.811 502.363 162.45 501.551C169.926 497.896 177.461 494.376 184.907 490.661C186.14 490.044 187.028 488.735 188.066 487.743C188.788 487.051 189.374 485.923 190.202 485.697C194.744 484.449 197.316 481.019 200.084 477.62C201.122 476.356 203.047 475.83 203.919 475.333C205.378 473.393 206.416 471.709 207.755 470.28C210.056 467.813 212.538 465.511 214.945 463.15C217.938 460.202 220.946 457.269 223.939 454.321C224.255 454.005 224.767 453.644 224.767 453.298C224.902 448.424 230.452 446.725 231.204 442.242C234.122 442.979 235.04 439.761 235.702 438.693C238.424 434.331 242.064 430.676 244.215 425.697C245.539 422.613 247.524 418.387 251.164 416.221C251.706 415.905 252.383 415.529 252.608 415.002C254.097 411.543 255.406 408.023 256.94 404.594C257.241 403.932 258.294 403.586 259.001 403.12C259.497 402.789 260.279 402.638 260.52 402.187C262.521 398.321 264.882 394.546 266.236 390.455C267.424 386.875 270.117 384.198 270.914 380.377C271.726 376.436 272.764 371.818 275.396 369.156C280.525 363.937 278.63 356.205 283.233 350.956C284.601 349.392 284.105 346.308 284.978 344.127C285.91 341.781 287.429 339.675 288.693 337.479C288.843 337.223 289.234 336.922 289.189 336.757C287.354 330.695 292.333 326.454 293.175 321.37C293.792 317.639 294.724 313.488 295.476 309.968C296.454 305.38 297.582 300.507 298.921 295.844C300.32 290.956 301.027 285.857 302.2 280.893C303.253 276.411 304.847 272.049 305.644 267.536C306.472 262.768 306.396 257.835 307.149 253.051C307.84 248.674 309.585 244.433 310.021 240.041C310.593 234.4 310.413 228.684 310.367 222.999C310.367 221.464 309.645 219.945 309.39 218.953C309.901 217.764 310.728 216.802 310.638 215.944C309.781 207.957 309.209 199.91 307.645 192.058C306.727 187.486 304.095 183.259 302.335 178.852C301.899 177.754 301.824 176.506 301.628 175.558C299.222 171.933 296.8 168.278 294.378 164.623C294.017 164.081 293.702 163.42 293.19 163.074C290.723 161.419 290.708 161.329 292.679 159.389C293.115 158.967 293.341 158.336 294.017 157.208C298.064 161.254 302.004 164.728 303.223 170.414C303.493 171.677 305.178 172.64 306.321 173.843C306.005 174.189 305.178 175.077 303.915 176.415C305.735 176.31 306.848 176.25 308.081 176.175C308.908 178.296 309.751 180.477 310.608 182.643C309.976 183.214 309.164 183.951 308.352 184.688C308.487 184.824 308.638 184.974 308.773 185.109C309.901 184.748 311.029 184.372 311.18 184.327C312.293 186.719 313.195 188.674 314.248 190.975C313.225 191.291 312.172 191.607 311.044 191.953C312.067 193.457 313.015 194.841 314.143 196.496C314.368 197.127 314.85 198.451 315.301 199.715C314.489 199.925 313.09 200.301 311.285 200.767C313.451 201.745 314.684 202.317 315.918 202.873C315.451 203.264 314.97 203.64 314.308 204.182C317.617 206.363 317.663 208.378 313.737 210.048C313.225 210.259 313.06 211.281 312.744 211.928C313.255 212.139 313.902 212.214 314.233 212.59C315.151 213.643 315.948 214.816 316.775 215.929C315.587 216.787 314.504 217.584 312.594 218.968C314.203 219.133 314.775 219.193 315.376 219.253C315.812 220.803 316.309 222.547 316.895 224.608C315.978 224.804 315.015 225.014 313.165 225.405C314.338 228.384 315.482 231.256 316.73 234.43C316.113 234.325 315.572 234.25 316.143 234.34C315.045 236.852 314.068 239.093 313.075 241.364C318.7 243.651 313.225 246.042 312.187 248.72C313.105 249.276 314.038 249.863 314.955 250.434C313.631 250.916 312.368 251.367 310.458 252.059C312.172 253.066 313.225 253.683 313.255 253.698C313.18 255.323 313.03 256.27 313.12 257.188C313.225 258.256 314.053 259.986 313.707 260.241C311.029 262.197 312.849 264.949 312.263 266.784C311.135 270.364 313.24 275.102 308.938 277.84C309.345 278.577 309.811 279.464 310.533 280.773C308.863 280.412 307.765 280.186 305.96 279.795C307.404 281.66 308.442 282.999 309.224 284.022C307.735 284.819 306.381 285.541 305.855 285.827C306.968 287.632 307.675 288.76 308.487 290.053C307.149 290.339 306.306 290.535 305.644 290.67C306.156 292.234 306.592 293.618 307.028 294.942C305.464 294.836 304.155 294.746 302.35 294.626C303.509 296.07 304.2 296.927 304.742 297.604C303.584 299.319 302.41 301.064 301.027 303.109C301.854 303.56 302.591 303.952 302.756 304.042V310.555C300.049 310.795 300.184 310.75 301.478 314.556C301.749 315.368 300.801 316.722 300.184 317.684C298.5 320.362 299.162 323.46 298.409 326.273C298.199 327.085 297.206 327.687 296.319 327.973C295.522 329.672 294.739 331.387 293.927 333.102C296.755 334.636 296.349 335.809 290.663 340.969C291.641 341.6 292.604 342.232 294.108 343.21C292.573 344.398 291.205 345.451 289.565 346.729C290.061 347.391 290.708 348.218 291.581 349.362C290.633 349.677 289.821 349.963 288.407 350.445C293.491 352.535 287.053 353.603 288.557 355.438C285.865 357.604 286.873 361.289 285.113 363.862C284.556 364.674 284.316 365.682 283.549 365.772C283.338 367.156 283.127 368.554 282.917 369.938C280.119 369.261 281.834 372.014 280.751 372.886C279.653 373.774 279.262 375.534 278.57 376.918L277.367 376.677C277.968 377.504 278.555 378.346 279.232 379.279C277.893 379.881 276.66 380.437 275.321 381.024C278.058 385.927 273.456 386.83 270.538 388.936C271.606 390.184 272.538 391.252 273.772 392.681C272.328 393.012 271.335 393.222 270.357 393.448C270.598 393.613 270.854 393.779 271.094 393.944C270.357 395.148 269.65 396.366 268.868 397.539C268.251 398.487 267.56 399.374 266.522 400.833C266.567 400.833 265.664 400.939 264.762 401.044L265.8 401.826C264.927 403.902 264.07 405.993 263.198 408.098C261.934 407.933 260.761 407.782 259.557 407.632C259.678 408.61 259.557 410.039 259.903 410.159C262.656 411.182 261.047 412.43 260.054 413.363C258.444 414.882 256.624 416.161 254.955 417.62C254.639 417.905 254.383 418.612 254.504 419.003C255.933 423.29 253.917 425.546 250.142 427.036C249.826 427.156 250.096 428.81 250.096 429.893C249.074 429.954 248.006 430.014 247.344 430.059C248.081 435.91 243.433 437.655 241.011 440.934C240.575 440.783 240.139 440.618 239.718 440.467C240.214 441.069 240.726 441.686 241.974 443.205C239.026 444.574 236.364 445.807 233.807 446.98C233.987 447.071 234.679 447.447 235.341 447.793C234.694 449.267 234.107 450.59 233.536 451.899C232.333 451.658 231.114 451.433 229.806 451.177C230.813 453.328 231.46 454.652 228.542 456.246C226.737 457.224 224.586 459.209 223.578 462.022C222.526 464.94 219.938 467.346 217.878 469.843C217.637 470.129 216.404 469.588 216.328 469.573C215.576 471.107 215.005 472.25 214.448 473.393C210.507 471.032 210.583 475.093 209.5 476.747C207.83 479.289 205.769 481.335 203.393 483.095C202.25 483.937 200.821 484.358 199.693 485.351C197.752 486.569 195.812 487.803 193.736 489.111C194.338 490.886 190.006 494.511 186.17 496.046C185.102 496.993 184.02 497.956 182.952 498.903C181.222 496.737 180.756 498.994 179.823 499.776C179.236 500.272 178.229 501.16 177.958 500.994C173.16 497.971 174.739 502.498 173.882 504.604C170.873 502.137 168.422 503.401 166.842 506.168C165.263 508.936 162.871 506.77 161.021 507.597C160.284 507.928 159.006 507.327 158.464 507.763C154.644 510.771 150.041 509.282 145.859 509.989C144.867 510.154 143.573 508.425 142.295 507.462C141.904 507.988 141.437 508.635 140.775 509.538C140.354 504.709 133.781 510.726 133.706 506.274C131.51 505.296 129.66 504.755 128.156 503.747C117.762 496.798 109.234 488.299 105.202 476.01C103.819 471.769 101.638 467.768 100.389 463.481C99.1558 459.239 98.6143 454.802 97.8021 450.44C97.6817 449.778 97.8021 449.041 97.5915 448.424C96.5988 445.657 95.0044 442.994 94.6283 440.152C94.2072 437.068 95.0344 433.834 95.0344 430.676C95.0344 427.923 94.7186 425.17 94.4629 422.418C94.162 419.139 93.6506 415.875 95.4255 412.761C95.8166 412.069 95.4556 410.956 95.5609 410.069C96.0573 406.113 96.4634 402.127 97.2004 398.216C97.396 397.193 98.5993 396.351 98.3436 395.208C99.1408 391.884 99.7274 388.499 100.78 385.25C101.743 382.272 103.172 379.444 104.465 376.587C104.887 375.654 105.563 374.857 106.075 373.969C106.812 372.706 107.85 371.473 108.136 370.104C108.797 366.9 107.775 363.245 112.257 361.515C113.49 361.034 113.671 357.785 114.303 355.784C114.423 355.393 114.333 354.761 114.573 354.626C119.672 351.768 119.101 345.195 123.117 341.6C123.869 340.923 124.2 339.765 124.847 338.637C121.883 339.525 119.417 340.262 116.438 341.149C116.168 340.833 116.679 341.435 116.438 341.149C114.092 342.021 112.197 342.939 110.196 343.42C108.873 343.736 106.466 342.939 106.15 343.526C104.751 346.083 101.487 344.879 100.75 345.752C98.5391 348.399 96.7341 345.541 94.7186 346.128C89.3488 347.692 84.0091 349.106 78.0828 348.038C72.9837 347.12 67.5839 347.842 62.0486 347.842C62.199 347.015 62.3494 346.203 62.4999 345.451C62.2141 345.285 62.1238 345.225 62.0185 345.18C60.0932 349.211 57.3707 345.872 55.295 345.571C51.9408 345.075 48.5414 343.841 45.5031 342.262C37.0799 337.87 29.3486 332.41 22.7755 325.521C19.331 321.911 16.3829 317.82 13.3144 313.864C12.803 313.202 12.8181 312.119 12.6075 311.232C12.1863 309.487 11.7952 307.832 10.7875 306.208C7.25273 300.522 5.0266 294.385 4.21436 287.632C3.76312 283.901 1.83782 280.367 0.995499 276.651C0.514174 274.546 0.90525 272.259 0.90525 269.687C1.71749 269.507 2.90576 269.221 4.10907 268.95C4.12411 268.725 4.13916 268.514 4.1542 268.288C3.59766 268.183 3.05617 268.078 2.60493 268.003C-0.147649 260.692 2.40939 253.443 4.33469 246.523C5.14693 245.17 6.65107 243.861 6.54578 242.673C6.0795 236.747 10.0956 232.46 11.8704 227.391C13.3746 223.074 16.2926 219.163 18.985 215.373C21.9933 211.131 24.8963 206.468 28.9274 203.415C32.4321 200.752 34.1017 196.586 37.8771 194.45C38.7043 193.984 39.6219 193.683 39.7121 193.638C44.39 189.742 48.5565 186.283 52.9034 182.673C52.4371 182.056 52.1062 181.244 51.4895 180.853C47.2178 178.04 42.7354 175.708 39.2759 171.572C36.7038 168.504 32.3117 166.984 29.4839 164.066C25.5882 160.05 22.9409 154.681 18.7143 151.131C14.3222 147.431 11.3741 142.873 8.802 138.18C5.88396 132.855 3.95866 126.929 2.09352 121.108C0.90525 117.378 -0.553767 113.091 0.213345 109.511C1.2512 104.728 0.0930137 99.1326 4.30461 95.0865C5.14693 94.2742 4.50015 92.0331 5.2823 91.0253C8.86216 86.3925 12.0058 80.9024 16.6687 77.7888C20.9855 74.9159 23.2718 70.3133 27.6339 67.8164C32.1012 65.2443 36.2075 61.7998 40.9455 59.9798C45.7136 58.1447 49.3988 54.4746 54.934 53.9181C53.0238 51.1053 51.2338 49.2402 50.3915 46.999C49.5793 44.8932 49.7297 42.4114 49.5342 40.08C49.489 39.5987 50.0756 38.7864 49.8951 38.636C45.2925 34.4395 48.6016 28.5131 46.6161 23.6698C45.834 21.7445 46.7665 19.0521 47.1125 16.7357C47.5637 13.7876 47.7593 10.674 48.8874 7.9816C50.9631 3.00288 53.6405 -1.72011 56.0772 -6.5484C56.6788 -7.73668 57.2504 -8.98512 58.0927 -10.0079C58.7094 -10.76 59.7022 -11.2263 60.5896 -11.7527C61.5372 -12.3093 63.3723 -12.7605 63.3873 -13.302C63.5076 -17.679 67.0875 -18.9576 69.81 -21.0634C70.6072 -21.6801 70.8178 -23.0338 71.615 -23.6655C74.1269 -25.6661 76.7892 -27.5011 79.602 -29.1557C89.9805 -38.9927 103.533 -42.7381 116.649 -47.1452C117.897 -47.6115 119.116 -48.153 120.379 -48.4989C122.831 -49.1607 125.283 -49.8526 127.78 -50.2888C134.669 -51.5222 141.527 -53.1618 148.477 -53.6581C154.298 -54.0793 160.089 -54.8915 165.91 -55.1322C168.828 -55.2525 171.806 -54.1545 174.769 -53.7032C175.22 -53.628 175.717 -54.1695 176.228 -54.2748C178.8 -54.8163 181.372 -55.3127 184.2 -55.8692V-52.3646C185.569 -57.6291 189.705 -54.1846 192.307 -54.711C195.105 -55.2826 198.309 -54.1846 201.257 -53.4927C202.566 -53.1918 203.679 -52.1089 204.115 -51.8381C206.928 -51.8381 209.048 -52.154 211.064 -51.7779C216.404 -50.7852 221.743 -49.7022 226.978 -48.2733C230.678 -47.2806 234.198 -45.641 237.823 -44.3625C241.372 -43.099 244.922 -41.8205 248.532 -40.7375C251.33 -39.8952 251.36 -40.0306 249.871 -37.4585C257.316 -39.6094 261.844 -34.0291 267.951 -30.9456C266.281 -38.5716 264.205 -46.0923 263.122 -53.7484C262.4 -58.9226 262.972 -64.3074 263.182 -69.587C263.333 -73.5429 263.965 -77.4687 264.145 -81.4095C264.265 -83.8312 263.754 -86.298 263.98 -88.6896C264.04 -89.3213 265.83 -89.7726 266.401 -90.0884C266.973 -92.1942 267.544 -94.4655 268.191 -96.7217C269.47 -101.234 273.381 -104.679 273.561 -109.672C273.561 -110.003 273.982 -110.409 274.298 -110.605C277.833 -112.846 279.578 -116.742 282.481 -119.509C285.143 -122.051 288.287 -124.263 291.536 -125.977C294.589 -127.587 298.033 -128.504 301.388 -129.422C302.471 -129.723 303.794 -129.061 305.644 -128.73C307.946 -130.851 312.578 -130.369 315.903 -126.88C316.534 -127.271 317.407 -128.158 317.768 -127.978C320.505 -126.684 323.168 -125.225 325.8 -123.706C327.229 -122.879 328.643 -121.931 329.861 -120.833C330.598 -120.171 330.989 -119.118 331.801 -117.81C336.043 -117.689 338.209 -115.93 336.75 -113.042C337.953 -113.312 339.097 -113.568 339.999 -113.764C343.579 -110.71 344.602 -105.686 348.753 -103.024C349.43 -102.588 349.701 -100.723 349.415 -99.73C348.828 -97.6242 348.257 -96.2103 351.506 -96.842C352.107 -96.9624 353.07 -95.1273 353.446 -93.8187C355.777 -92.6605 360.711 -87.3058 360.967 -84.493C360.997 -84.117 360.079 -83.6507 359.357 -83.034C365.073 -82.0714 363.9 -75.8593 367.269 -73.0766C366.412 -72.3095 365.554 -71.5574 364.727 -70.8204C364.983 -70.4143 365.148 -70.0382 365.223 -70.0533C369.555 -70.9407 369.33 -67.3609 369.736 -65.0294C370.097 -63.0139 369.661 -62.9387 371.827 -62.5326C370.714 -61.8707 369.781 -61.3142 368.848 -60.7577C372.353 -60.8028 373.421 -59.2535 373.827 -55.9895C374.143 -53.3723 375.948 -50.9657 376.805 -48.3635C377.257 -46.9948 377.076 -45.4154 377.242 -43.9414C377.437 -42.2116 377.091 -39.5342 378.039 -38.9476C381.363 -36.8418 379.678 -33.0363 381.558 -30.5395C382.22 -29.652 382.085 -28.193 382.386 -27.0198C383.198 -23.831 384.04 -20.6723 384.868 -17.4835C385.966 -13.2118 387.169 -8.95503 388.086 -4.63815C388.327 -3.495 387.71 -2.17136 387.44 -0.60704C389.47 0.521057 390.267 3.93547 388.553 6.46243C387.124 8.56822 387.018 10.1024 389.576 10.0122C390.478 12.2233 391.275 14.1335 392.133 16.2393C391.23 16.3898 390.192 16.5402 389.26 16.6906C389.726 17.9841 390.147 19.1423 390.959 21.3534C394.148 22.8576 394.735 29.4908 390.869 32.9504C392.072 34.6801 393.892 36.2143 394.238 38.0344C394.644 40.1702 393.757 42.5318 393.336 45.4648C394.87 46.5027 396.028 51.2708 394.81 54.5197C394.509 55.332 395.021 56.4451 395.171 57.4829C394.675 57.3776 394.088 57.2422 393.276 57.0618C393.321 60.1152 397.021 63.1987 392.584 66.0866C397.713 68.1322 393.847 70.4336 394.133 72.1483C394.855 73.2914 395.848 74.3444 396.239 75.5928C396.585 76.6908 396.51 78.2702 394.539 76.8262C394.464 76.766 393.441 77.5331 393.456 77.8941C393.486 78.556 393.907 79.2178 394.283 79.8194C394.9 80.8122 395.893 81.6695 396.164 82.7224C396.314 83.3091 395.321 84.1965 394.479 85.5502C394.735 86.197 395.412 87.8816 396.088 89.5663C394.99 89.8521 393.907 90.1228 391.967 90.6192C395.201 91.5367 397.171 92.3339 395.201 95.4475C394.329 96.8162 394.253 98.6814 393.712 100.727C394.329 101.434 395.382 102.637 396.78 104.232C395.472 104.502 394.629 104.683 394.554 104.698C394.028 106.774 393.577 108.503 393.05 110.609C396.795 112.174 394.419 115.723 394.509 118.581C394.539 119.439 392.358 120.221 391.651 121.319C391.11 122.161 390.959 123.545 391.23 124.538C391.877 126.914 392.87 129.2 393.877 131.953H389.921C389.861 132.149 389.801 132.329 389.756 132.525C390.463 132.886 391.17 133.247 392.042 133.683C391.365 134.51 390.704 135.322 390.298 135.819C391.245 136.992 392.328 137.939 392.779 139.128C392.915 139.504 391.29 140.527 390.343 141.369C390.568 141.76 391.004 142.512 391.275 142.993C390.042 143.264 388.899 143.52 386.688 144.016C388.733 144.753 389.636 145.084 390.583 145.43C386.913 148.318 388.688 151.176 390.613 154.214C389.606 154.305 388.688 154.38 387.575 154.47C389.982 158.035 389.56 160.456 386.206 161.9C387.064 162.953 387.876 163.931 388.478 164.668C386.958 166.428 385.484 168.143 383.89 169.978C385.454 171.091 388.267 172.068 384.657 174.114C384.341 174.295 384.206 175.618 384.492 175.919C388.267 179.95 383.92 178.867 382.431 179.439C382.837 182.582 383.243 185.666 383.664 188.93C382.822 189.035 381.769 189.155 381.288 189.216C381.288 191.141 381.288 192.871 381.288 194.585C381.288 196.29 380.275 197.027 378.249 196.797C379.227 198.932 380.13 200.903 381.002 202.813C379.738 203.475 378.836 203.956 377.918 204.438C381.814 205.867 371.797 207.777 378.55 209.085C377.377 209.431 376.67 209.627 376.986 209.537C376.429 211.718 376.038 213.222 375.452 215.493C377.106 218.366 375.422 223.751 372.067 225.691C372.488 227.571 373.602 229.602 373 230.519C372.127 231.873 370.022 232.415 367.781 233.678C369.194 234.189 369.871 234.445 370.563 234.701C370.879 235.047 371.195 235.408 371.526 235.754C370.638 236.205 369.646 236.536 368.894 237.168C368.292 237.679 368.021 238.552 367.45 239.514C368.292 239.905 369.119 240.296 369.841 240.642C369.435 241.8 369.014 243.004 368.548 244.312C368.367 244.282 367.781 244.177 367.916 244.207C367.465 246.99 367.074 249.441 366.652 252.059C366.186 252.134 365.404 252.269 364.577 252.405C364.998 253.322 365.389 254.149 365.524 254.45C364.005 255.924 362.742 257.143 361.614 258.226C362.636 259.354 363.719 260.557 364.547 261.46C362.456 262.242 360.922 262.828 360.38 263.024C360.681 266.047 360.892 268.093 361.147 270.53C359.854 271.312 360.2 274.816 356.981 275.042C356.83 275.042 356.53 276.035 356.665 276.456C357.146 277.96 357.778 279.419 358.199 280.532C356.274 281.209 354.98 281.66 353.687 282.111C353.822 282.487 353.942 282.864 354.078 283.24C354.664 283.089 355.251 282.924 356.169 282.683C355.582 284.307 355.191 285.842 354.499 287.21C353.581 289.03 352.423 290.715 351.115 292.866C351.085 292.836 351.882 293.347 352.589 293.799C351.16 297.363 349.731 300.928 348.302 304.493C348.437 304.493 348.558 304.463 348.693 304.463C348.091 305.305 347.475 306.148 346.873 306.99C347.068 307.14 347.279 307.276 347.475 307.426C345.564 308.223 343.654 309.021 342.361 309.562C342.075 314.09 341.819 318.211 341.563 322.107C340.631 321.7 339.262 321.099 337.893 320.497L338.074 320.753L338.119 320.587ZM169.956 45.525C169.896 45.3144 169.835 45.1038 169.775 44.8932C168.798 45.0437 167.79 45.3595 166.827 45.2843C164.706 45.1339 162.585 44.788 160.465 44.5473C154.027 43.8403 147.634 42.7574 141.121 42.6821C139.377 42.6671 137.662 41.8398 135.917 41.7045C134.037 41.5691 132.142 41.8699 130.246 41.8699C129.916 41.8699 129.524 41.0426 129.254 41.0878C126.531 41.6443 123.749 43.0732 121.146 42.7874C114.363 42.0354 108.256 45.3295 101.608 45.3896C98.1932 45.4197 94.2222 47.4352 91.4997 47.2848C86.882 47.0442 83.8587 50.3232 79.271 50.248C74.2923 50.1577 69.5693 54.971 63.7182 54.0986C63.4776 54.0685 63.0564 55.0913 62.7706 55.6629C61.0408 59.0322 64.9065 60.2806 65.8391 62.597C67.4485 66.5679 71.1336 69.6815 73.9614 73.1561C74.2623 73.5171 74.6383 73.9984 75.0294 74.0435C77.7519 74.3895 77.8271 74.5249 76.9246 76.2997C78.8649 77.2022 81.1061 77.7437 82.5952 79.0974C84.1595 80.5264 85.0169 82.7375 86.2051 84.6477C87.7394 83.9859 89.4691 82.2411 90.9432 85.4148C91.3643 86.3173 93.2144 86.4978 94.2673 87.2048C96.1325 88.4382 97.9074 89.822 100.6 91.7773C106.361 93.5071 113.37 95.7182 120.485 99.1627C120.349 99.3282 120.936 98.6663 121.252 98.3053C124.38 99.1777 127.283 100.216 130.277 100.772C135.195 101.69 140.144 102.412 145.122 102.968C150.673 103.585 156.253 104.066 161.848 104.322C166.932 104.548 172.152 103.69 177.085 104.578C181.899 105.45 186.592 104.743 190.502 103.089C193.586 101.795 194.548 102.231 195.361 103.585C200.144 101.87 204.491 100.05 209.003 98.7867C213.23 97.5984 216.449 93.3717 221.488 93.9584C222.029 93.1912 222.781 91.8074 223.834 90.6944C224.902 89.5512 227.173 88.8142 227.324 87.6861C227.91 83.309 232.964 78.9019 227.625 74.4045C227.474 74.2842 227.67 73.7878 227.534 73.6224C224.767 70.3283 222.45 66.3273 218.991 64.0711C216.795 62.6421 213.997 61.7095 211.485 60.2957C206.175 57.3175 200.309 55.3019 194.579 53.1359C189.6 51.2558 184.501 49.7366 179.447 48.067C178.093 47.6157 176.739 47.1795 175.371 46.8185C173.581 46.3523 171.776 45.9612 169.971 45.54L169.956 45.525ZM81.8431 194.676C86.7918 193.894 89.5293 192.886 94.0116 199.113C94.3576 199.609 95.4556 200.226 95.6211 200.091C98.7046 197.534 101.096 200.256 103.698 201.083C105.924 201.79 108.12 202.557 110.286 203.445C113.957 204.934 117.642 207.897 121.222 207.732C125.749 207.521 128.863 210.529 133.285 210.665C139.978 210.845 146.747 212.891 153.215 214.967C156.825 216.125 160.299 213.869 164.3 216.471C167.504 218.546 173.099 217.057 177.642 216.922C181.282 216.817 185.163 215.388 188.472 216.275C194.278 217.839 199.181 214.109 204.867 214.621C207.289 214.846 210.778 212.425 214.087 212.169C214.418 212.139 214.749 212.049 215.05 211.898C217.02 210.981 218.961 210.003 220.946 209.13C221.202 209.01 221.653 209.296 221.999 209.386C221.728 206.182 224.872 206.393 226.436 205.475C231.355 202.572 235.055 198.707 237.642 193.728C239.733 189.712 241.418 185.546 238.018 181.349C235.04 177.679 233.611 172.49 227.79 171.572C226.451 171.362 225.444 169.421 224.12 168.504C222.3 167.255 220.435 165.781 218.374 165.255C215.336 164.473 212.042 164.683 208.958 163.976C207.635 163.675 206.702 161.555 205.393 161.299C199.106 160.095 192.744 159.268 186.426 158.275C182.741 157.689 179.071 157.012 175.371 156.47C173.791 156.23 172.167 156.215 170.392 156.079C170.031 156.32 169.113 157.508 168.271 157.448C164.345 157.208 160.435 156.395 156.509 156.245C153.064 156.109 149.59 156.636 146.13 156.786C144.4 156.862 142.656 156.786 140.114 156.786C137.902 157.283 134.669 158.02 131.495 158.742C131.405 158.531 131.645 159.088 131.6 158.997C128.968 159.343 126.215 159.734 123.463 160.065C121.101 160.336 117.882 159.674 116.574 160.968C114.814 162.713 113.22 162.171 111.475 162.577C107.068 163.615 102.555 164.593 98.4188 166.368C94.7035 167.947 91.4546 170.579 87.0324 169.406C86.4759 169.256 85.2876 169.496 85.2726 169.662C84.716 174.264 79.9479 173.558 77.3909 175.543C74.0817 178.13 68.5916 177.408 66.0045 181.891C65.8391 182.161 65.1772 182.146 64.7561 182.267C65.2675 182.703 65.7187 183.214 66.2903 183.575C66.7566 183.861 67.4936 183.816 67.8396 184.162C71.2239 187.516 75.2851 189.501 79.8426 190.735C81.3768 191.156 84.0693 191.487 81.813 194.646L81.8431 194.676ZM341.097 53.7827L342.15 52.6696C339.066 45.6002 337.803 37.6433 331.456 32.1532C330.974 31.747 331.501 30.1677 331.561 29.1449C331.41 29.5059 331.275 29.8518 331.125 30.2128C328.808 27.37 326.086 24.7829 324.266 21.6543C319.708 13.8177 313.255 7.78607 306.637 1.84471C305.329 0.671478 304.862 -2.14127 303.554 -2.48723C298.635 -3.76575 296.153 -8.23305 291.987 -10.5344C286.782 -13.4073 282.255 -17.5136 277.502 -21.0483C277.171 -16.2802 277.938 -12.219 282.556 -9.94777C281.112 -8.92495 280.194 -8.26313 279.172 -7.54115C281.172 -6.6537 284.045 -6.2175 284.361 -5.0593C285.128 -2.32177 288.091 -0.0505219 286.572 3.31876C286.436 3.6196 287.128 4.46191 287.595 4.86803C289.189 6.2368 290.889 7.48523 292.498 8.854C294.905 10.8996 294.679 14.5096 297.763 16.5402C301.373 18.9017 304.125 22.5567 307.224 25.6853C307.675 26.1366 307.916 26.7683 308.292 27.2948C308.863 28.0769 309.33 28.9945 310.067 29.5961C311.601 30.8446 313.361 31.8223 314.865 33.0857C316.098 34.1236 317.106 35.4322 318.204 36.6054C318.911 36.8461 318.7 38.5759 318.941 38.651C321.047 39.2226 322.491 40.5312 324.055 41.9602C326.432 44.1261 329.139 45.9612 331.801 47.7962C334.825 49.8719 337.953 51.7973 341.037 53.7827H341.097ZM159.833 315.248H153.26C153.636 315.985 153.967 316.647 154.268 317.233C152.658 318.106 151.094 318.963 149.169 320.016C150.206 320.783 150.958 321.339 151.244 321.55C154.087 319.474 156.779 317.489 159.833 315.248Z" fill="white"/>
</svg>
