<svg width="203" height="276" viewBox="0 0 203 276" fill="none" xmlns="http://www.w3.org/2000/svg">
<path d="M-10.5236 95.9385C-9.45751 95.5575 -8.39139 95.1764 -7.56083 94.8733C-6.23944 96.5299 -5.44233 97.7901 -2.83549 96.6608C-1.23455 95.964 1.14431 97.0494 3.38899 97.3619C3.25852 97.6966 3.10982 98.0826 2.76094 98.9541C3.78831 98.3376 4.46517 97.9406 5.14506 97.5286C6.38815 99.1065 11.1152 100.07 13.0366 99.1084C13.4021 98.9311 13.93 99.0771 14.3857 99.075C18.4479 99.0171 22.5458 99.249 26.4299 97.7814C27.8826 97.2352 29.1944 96.2994 30.6471 95.7532C34.4013 94.3456 34.8294 94.5578 36.2296 97.4941C34.6339 98.5923 33.1561 99.5731 31.7143 100.608C30.6021 101.412 29.547 102.282 28.4285 103.154C28.0942 104.264 27.2855 105.663 27.346 107.033C27.4487 109.903 27.7202 112.831 28.4477 115.6C28.9657 117.581 30.4227 119.305 31.2999 121.217C31.7476 122.186 31.5002 123.604 32.1234 124.327C33.8605 126.334 35.9242 128.047 37.7671 129.958C38.3122 130.524 38.3459 131.716 38.9457 132.088C40.9379 133.339 42.7578 134.743 44.3234 136.512C44.4829 136.693 45.1293 136.447 45.5489 136.39C45.5269 136.81 45.4566 137.235 45.5252 137.634C45.552 137.812 45.8564 137.975 46.0765 138.091C49.0218 139.636 51.9943 141.124 54.9032 142.733C56.6817 143.72 58.2267 145.241 60.1025 145.903C62.3793 146.717 64.9233 146.752 67.2941 147.373C68.5458 147.705 69.6607 148.558 71.5147 149.521C79.0512 150.566 87.5502 151.743 96.553 152.99C94.3792 143.359 95.2259 133.929 99.4968 125.035C99.8685 124.789 100.711 124.543 100.896 124.055C102.614 119.558 105.711 116.354 109.679 113.734C111.746 112.362 113.296 110.171 115.411 108.911C118.408 107.131 121.671 105.749 124.912 104.434C128.358 103.035 131.924 101.896 135.449 100.693C135.651 100.624 135.973 100.972 136.233 100.969C137.736 100.951 139.224 100.891 140.556 100.477C141.309 100.787 142.452 101.583 142.769 101.333C145.375 99.3164 147.73 101.331 150.177 101.575C150.778 101.633 151.45 102.232 151.915 102.067C155.421 100.877 156.554 102.998 157.414 106.162C157.726 105.354 157.912 104.865 158.172 104.196C160.523 105.731 162.907 107.179 165.143 108.816C165.58 109.14 165.454 110.229 165.63 111.183C169.537 111.698 167.672 116.345 169.852 118.489C170.186 118.816 168.836 120.835 168.166 122.285C169.898 123.695 169.756 125.566 167.637 128.435C166.617 129.83 166.481 132.832 165.439 133.093C162.275 133.874 163.17 137.132 161.152 138.262C160.495 138.098 159.59 137.64 158.73 137.702C157.314 137.793 157.644 138.841 157.542 139.927C157.45 140.889 156.185 142.525 155.473 142.515C151.978 142.444 151.607 146.843 148.221 146.661C147.794 146.096 147.068 145.141 146.343 144.186C146.162 144.306 145.992 144.445 145.811 144.565C146.144 145.441 146.486 146.311 146.958 147.513C143.316 148.441 140.115 149.246 136.912 150.066C136.767 149.77 136.623 149.474 136.47 149.184C136.375 149.887 136.265 150.587 136.157 151.389C135.4 151.252 134.619 151.117 133.717 150.959C133.519 151.821 133.342 152.578 133.023 153.927C132.376 152.658 132.01 151.909 131.634 151.166C131.396 151.141 131.151 151.107 130.904 151.089L131.231 153.353C131.071 153.328 130.911 153.304 130.751 153.279C130.463 152.766 130.177 152.237 129.994 151.901C129.352 152.745 128.792 153.495 128.223 154.252C127.73 153.665 127.245 153.073 126.556 152.25C126.307 152.82 126.074 153.354 125.74 154.111C124.935 153.744 124.124 153.368 123.189 152.943C123.145 153.782 123.117 154.428 123.06 155.602C122.178 154.725 121.617 154.156 121.407 153.957C120.282 154.703 119.314 155.802 118.264 155.912C117.286 156.012 116.201 155.047 114.884 154.42C114.666 154.76 114.19 155.52 113.527 156.548C112.75 156.124 111.966 155.69 111.004 155.166C110.641 155.839 110.268 156.556 109.735 157.563C109.024 156.689 108.398 155.903 107.706 155.057C107.279 155.732 106.855 156.392 106.165 157.477C104.335 153.794 102.76 156.302 101.461 157.099C102.098 158.06 103.005 158.934 103.326 159.988C104.537 163.977 107.458 166.766 109.978 169.834C111.495 171.687 113.692 173.168 114.677 175.243C116.393 178.871 119.955 180.007 122.672 182.252C122.967 182.5 123.712 182.659 123.915 182.472C126.107 180.56 128.56 180.931 131.142 181.28C132.702 181.486 134.868 180.362 135.821 181.088C137.053 182.02 137.98 181.744 139.103 181.704C139.83 181.679 140.558 181.575 141.263 181.89C142.259 181.974 143.291 181.915 144.244 182.171C145.71 182.569 147.794 181.735 148.396 184.117C148.465 184.398 149.149 184.662 149.569 184.684C153.482 184.933 156.345 187.082 158.336 190.162C159.016 191.225 158.686 193.286 158.188 194.661C157.76 195.846 156.69 196.595 154.939 195.472C154.21 195.003 152.36 196.269 150.895 196.797C150.841 196.677 150.535 196.018 150 194.858C149.189 195.997 148.629 196.787 147.839 197.899C146.175 197.044 144.453 196.162 142.741 195.274L142.363 195.865L140.828 193.553C140.71 193.631 140.602 193.704 140.484 193.782C140.673 194.205 140.868 194.637 141.058 195.06C140.581 194.971 140.022 195.015 139.631 194.779C138.98 194.388 138.107 193.27 137.874 193.411C134.973 195.101 133.663 192.301 131.949 191.193C130.963 190.554 130.543 189.409 129.231 190.541C129.058 190.695 128.422 190.66 128.404 190.594C127.546 187.924 124.676 187.988 122.944 186.538C122.769 186.393 122.87 185.935 122.846 185.663C121.656 185.995 120.433 186.494 119.162 186.645C118.181 186.761 117.131 186.439 115.768 186.273C115.134 189.175 112.646 186.647 110.898 187.023C108.878 187.463 106.796 187.591 104.42 187.888C104.28 189.665 103.326 190.273 101.314 188.186C100.841 187.69 99.9995 187.544 98.9865 187.08C99.1347 188.326 99.2355 189.187 99.3216 189.887C96.5169 190.364 93.9206 190.82 90.7899 191.357C90.4949 190.991 89.8056 190.13 89.0019 189.135C89.0724 190.068 89.1341 190.85 89.1956 191.749C87.0968 192.424 84.9737 193.101 83.1014 193.704C82.1646 192.824 81.3122 192.031 80.4629 191.224C80.2965 191.386 80.1151 191.546 79.9488 191.708C80.0743 192.33 80.2028 192.937 80.3282 193.559C80.3531 193.203 80.3689 192.853 80.3998 192.506C79.3705 192.588 78.3413 192.671 77.1128 192.768C77.2291 196.308 75.8293 196.049 73.4566 194.933C72.5249 194.494 70.6797 195.117 69.6853 195.843C68.035 197.055 66.7285 198.353 64.4464 197.178C63.8857 196.884 61.5461 195.798 62.4788 198.562C62.5208 198.704 61.6687 199.191 61.1974 199.464C60.4389 199.916 59.6375 200.695 58.8831 200.661C57.5463 200.595 56.2317 200.03 54.8322 199.653C53.083 203.374 51.54 203.823 46.3381 201.908C45.8223 203.217 45.3065 204.525 44.548 206.452C43.5094 203.785 42.5093 202.869 40.7027 205.243C39.825 206.4 38.2213 206.994 36.5349 208.113C36.4867 208.08 35.8601 207.569 35.1641 207.012C34.7909 209.401 33.8578 209.668 33.0029 208.616C32.1329 209.037 31.4465 209.675 31.0031 209.538C27.7459 208.526 27.7279 208.499 28.0614 212.052C27.4018 211.432 26.9681 211.015 26.3627 210.437C25.8267 211.341 25.3058 212.209 24.7939 213.071C23.6417 212.791 22.7495 209.361 21.2002 212.792C21.1092 213.009 19.5709 212.581 18.512 212.421C18.5053 212.726 18.5039 213.393 18.4932 214.184C18.0718 213.667 17.6744 213.186 17.2982 212.718C17.0203 212.85 16.7153 212.922 16.703 213.021C16.6101 214.141 16.9782 215.62 16.3943 216.295C15.8438 216.922 14.3142 216.683 13.2154 216.838C12.0742 217.007 10.8911 217.074 9.80087 217.419C9.02174 217.662 7.98258 218.142 7.72773 218.782C6.79621 221.176 4.54537 222.369 2.1872 221.492C1.79215 221.35 1.2879 221.475 0.808042 221.48C3.4104 216.723 9.12894 212.589 10.6826 214.3C13.1079 211.933 16.3789 210.703 19.8244 209.735C22.9468 208.851 25.7547 206.805 28.895 205.988C30.3203 205.617 31.6333 205.49 33.0956 204.741C36.2406 203.124 39.7194 202.108 43.1138 201.005C45.5932 200.195 48.1596 199.654 50.6869 198.996C50.9678 198.927 51.4686 198.973 51.499 198.862C52.5198 195.638 55.7545 197.343 57.6524 196.071C58.287 195.65 59.0212 195.28 59.7609 195.116C61.0381 194.816 62.3572 194.699 63.7247 194.496C64.4194 194.205 65.2778 193.609 66.1833 193.518C68.731 193.263 70.9255 191.611 73.7252 192.052C74.9651 192.247 76.3988 190.708 77.8303 190.228C81.394 189.026 84.9727 187.826 88.6263 186.916C90.5346 186.446 92.6046 186.574 94.956 186.398C94.8749 186.178 95.0789 186.761 95.316 187.413C95.5759 187.214 95.7451 187.154 95.8268 187.022C97.0685 184.957 98.7236 184.342 101.207 184.679C102.911 184.906 104.799 184.11 106.551 183.601C108.852 182.936 111.065 182.316 113.502 183.232C113.975 183.414 115.006 182.469 115.563 181.851C115.735 181.658 115.297 180.722 114.95 180.299C113.52 178.597 112.094 176.879 110.506 175.334C109.627 174.481 108.436 173.965 107.297 173.233C107.773 173.243 108.157 173.25 108.54 173.257C108.619 173.1 108.688 172.949 108.767 172.792C107.516 172.029 106.266 171.266 104.798 170.373C104.853 169.787 104.927 168.954 105.017 168.125C104.826 168.29 104.621 168.453 104.43 168.618C103.1 167.086 101.769 165.553 100.372 163.959C100.943 163.737 101.36 163.578 101.163 163.656C100.211 161.572 99.3668 159.69 98.4565 157.708C97.1055 157.247 95.4408 156.667 93.8636 156.12C93.1149 156.212 92.0909 156.657 91.4548 156.348C89.5102 155.405 87.6093 155.217 85.559 155.768C85.1181 155.891 84.3364 155.913 84.1589 155.665C82.4167 153.178 80.062 155.002 78.0346 154.702C77.4613 154.625 76.8943 154.479 76.3331 154.381C75.3708 154.21 74.3994 154.045 72.9453 153.783L71.7239 151.942C71.1857 152.43 70.6414 152.909 69.9611 153.517C69.718 152.895 69.4838 152.306 69.3457 151.94C64.204 151.592 59.422 150.899 56.789 147.227C54.8408 146.574 53.3803 146.499 52.6003 145.737C51.4136 144.578 50.8499 142.863 48.5724 143.8C48.1193 143.983 47.0747 142.743 45.7411 142.584C45.6017 141.449 45.4562 140.304 45.2782 138.816C44.279 138.983 43.2706 139.156 42.2864 139.326C42.453 139.046 42.668 138.681 42.9042 138.289C40.2214 138.241 36.2451 134.729 36.762 132.91C34.8242 133.06 33.3321 130.773 33.2066 127.317C32.3609 127.617 31.5425 127.899 30.7814 128.169C30.5433 128.027 30.3261 127.975 30.26 127.836C29.2922 125.945 28.3274 124.038 27.3959 122.123C27.1255 121.558 26.8068 120.96 26.7417 120.35C26.5704 118.557 26.5017 116.761 23.9248 116.578C24.483 115.215 26.2602 113.918 23.788 112.751C23.2363 112.49 22.992 110.981 23.0783 110.087C23.3188 107.656 23.8068 105.242 24.2042 102.811C21.0154 102.276 18.1222 101.793 15.1536 101.295C12.7274 104.093 10.128 101.652 7.46657 101.499C4.28608 101.311 2.15737 100.386 0.681193 97.7093C-0.685269 98.8382 -2.05173 99.967 -3.48166 101.138C-5.7046 97.6507 -8.19859 96.7854 -10.1652 99.1744C-10.2739 97.7317 -10.3474 96.814 -10.4059 95.8995L-10.4904 95.9295L-10.5236 95.9385ZM150.292 103.105C150.1 105.649 149.618 106.595 147.831 105.065C147.289 104.602 146.231 103.776 146.192 103.815C144.486 105.731 142.582 104.239 140.78 104.22C140.334 104.216 139.82 104.348 139.436 104.576C138.53 105.099 137.675 105.719 136.795 106.303C136.312 105.161 135.978 104.364 135.645 103.566C135.455 103.614 135.274 103.656 135.083 103.704C134.961 104.503 134.836 105.318 134.735 105.973C132.398 106.309 129.449 103.931 128.468 108.003C128.395 108.325 127.483 108.565 126.937 108.627C125.258 108.814 123.568 108.904 121.926 109.027C121.913 109.441 121.884 110.361 121.855 111.321C120.423 110.717 119.404 110.283 118.11 109.731C118.53 110.994 118.836 111.927 119.307 113.364C117.209 113.294 115.516 113.242 113.95 113.184C113.87 113.969 114.025 115.028 113.622 115.779C113.052 116.849 112.07 117.71 111.195 118.734C110.77 118.429 110.34 118.114 110.463 118.202C108.512 120.202 106.227 121.835 105.025 124.057C104.237 125.507 100.644 126.311 102.68 128.317C101.876 130.234 101.134 131.693 100.666 133.232C100.14 134.939 99.8646 136.728 99.4686 138.492C99.0401 138.437 98.4669 138.36 98.2678 138.336C98.6658 139.939 99.1667 141.422 99.3838 142.95C99.5355 143.985 99.2284 145.077 99.2473 146.148C99.2656 147.494 99.4891 148.835 99.4622 150.172C99.4224 151.883 100.488 153.174 101.819 153.034C104.08 152.801 106.938 152.876 108.46 152.179C111.835 150.632 114.642 151.773 117.624 151.7C118.407 151.129 119.237 150.747 120.101 150.631C121.281 150.462 122.557 150.712 123.68 150.397C127.497 149.301 131.29 148.09 135.056 146.818C137.321 146.059 139.527 145.092 142.034 144.107C142.296 144.247 143.01 144.634 143.468 144.892C143.935 144.178 144.071 143.695 144.349 143.602C146.723 142.771 148.889 141.686 150.243 139.417C150.316 139.29 150.587 139.266 150.771 139.249C154.922 138.95 156.607 135.507 158.936 132.877C159.293 132.47 159.727 131.569 159.871 131.629C162.031 132.364 162.273 130.506 162.68 129.387C163.736 126.453 164.485 123.409 165.424 120.436C165.645 119.727 166.142 119.097 166.596 118.247C165.938 116.999 165.178 115.44 164.327 113.942C163.638 112.727 162.686 110.486 162.128 110.569C159.033 111.042 158.697 108.706 157.766 106.83C154.532 107.605 152.277 106.136 150.307 103.108L150.292 103.105ZM154.102 191.849C154.1 191.315 154.099 190.467 154.102 190.177C152.944 189.731 152.006 189.518 151.231 189.039C149.703 188.094 148.263 186.987 146.768 185.994C146.63 185.903 146.237 186.059 146.029 186.197C144.451 187.284 141.908 183.943 140.853 187.333C140.269 186.886 139.681 186.413 139.076 185.993C138.566 185.639 138.006 185.345 137.46 185.015C136.075 187.71 134.636 184.773 133.449 185.051C132.641 186.136 131.942 187.07 131.155 188.128C133.215 188.694 135.028 189.162 136.823 189.682C140.074 190.645 143.316 191.654 146.561 192.609C147.294 192.827 148.105 193.125 148.818 193.018C150.475 192.78 152.094 192.306 154.093 191.855L154.102 191.849Z" fill="black"/>
</svg>
