<svg width="286" height="280" viewBox="0 0 286 280" fill="none" xmlns="http://www.w3.org/2000/svg">
<path d="M61.6189 133.959C64.7312 132.342 67.8117 130.671 70.9662 129.145C72.2927 128.501 73.8278 128.271 75.1862 127.682C78.8211 126.098 82.4913 124.756 86.4844 124.223C88.5012 123.955 90.3828 122.821 92.367 122.226C92.9097 122.058 93.6066 122.41 94.076 123.092C95.188 122.531 96.2954 121.962 97.5454 121.331C97.5948 121.995 97.6379 122.557 97.7027 123.338C98.3046 122.422 98.7426 121.749 98.8351 121.601C100.457 121.394 101.688 121.236 103.132 121.049C103.109 121.009 103.275 121.386 103.433 121.766C103.43 121.526 103.427 121.287 103.425 121.047C106.056 120.717 108.688 120.333 111.33 120.059C112.341 119.956 113.377 120.005 114.388 120.121C114.929 120.185 115.454 120.71 115.965 120.686C117.185 120.618 118.39 120.255 119.615 120.195C120.543 120.149 121.498 120.403 122.436 120.499C122.869 120.542 123.381 120.392 123.738 120.573C124.325 120.862 124.802 121.341 125.349 121.758C126.166 121.557 127.227 121.287 128.436 120.985C128.425 121.4 128.407 121.82 128.412 121.775C132.638 122.366 136.864 122.579 140.865 123.616C144.73 124.616 148.799 125.246 153.048 126.999C154.446 127.31 156.477 127.664 158.446 128.253C159.221 128.486 159.84 129.228 160.556 129.684C160.709 129.784 161.014 129.659 161.243 129.621C164.037 129.154 164.977 129.563 167.977 131.17C169.243 131.852 170.963 131.652 172.458 131.949C173.141 132.077 173.781 132.42 174.327 132.964C176.545 132.411 179.27 133.453 179.969 135.797C180.753 135.395 181.494 135.007 182.244 134.655C182.517 134.529 183.015 134.355 183.119 134.463C185.087 136.679 188.058 135.416 190.441 136.647C192.979 137.965 195.882 138.989 198.957 138.684C199.216 138.659 199.507 139.215 199.834 139.434C200.339 139.781 201.316 140.379 201.362 140.332C202.464 138.832 203.254 140.356 204.165 140.552C206.623 141.099 209.099 141.604 211.707 142.157C211.687 142.284 211.612 142.716 211.54 143.135C211.723 143.197 211.894 143.329 212.022 143.297C212.743 143.11 213.387 141.435 214.25 143.41C214.449 143.862 216.467 143.362 217.572 143.602C218.846 143.881 220.018 144.617 221.292 144.949C222.267 145.202 223.325 145.144 224.339 145.227C227.315 145.473 230.309 145.625 233.268 145.986C235.653 146.281 238 146.871 240.376 147.224C240.894 147.301 241.496 146.784 242.039 146.815C242.863 146.862 243.678 147.144 244.486 147.326C244.47 147.587 244.454 147.849 244.43 148.114C244.956 147.683 245.47 147.249 245.47 147.249C246.536 147.585 247.231 148.042 247.857 147.962C249.309 147.77 251.058 146.608 252.074 147.11C254.261 148.203 255.988 148.051 257.892 146.83C258.026 146.753 258.496 147.256 258.844 147.422C259.322 147.648 260.009 148.11 260.312 147.944C263.447 146.168 266.827 146.441 270.211 146.577C270.493 146.592 270.798 145.869 271.205 145.36C272.051 147.324 273.294 146.373 274.546 145.909C275.762 145.455 277.049 145.159 278.547 144.721C278.502 145.366 278.459 145.853 278.408 146.543C279.747 145.976 280.978 145.293 282.286 144.944C283.75 144.556 285.328 144.616 286.786 144.2C288.209 143.795 289.537 143.045 290.939 142.767C293.944 141.653 296.945 140.531 300.196 139.316C300.101 139.875 300.019 140.331 299.862 141.273C301.211 139.871 302.202 138.667 303.381 137.678C303.849 137.291 304.727 137.359 305.426 137.279C306.266 137.19 307.196 137.364 307.955 137.081C310.335 136.172 312.72 135.219 314.956 134.027C315.66 133.649 315.918 132.43 316.864 131.692C316.601 133.481 316.351 135.274 316.055 137.313C315.41 136.691 315.077 136.37 314.389 135.709C314.415 136.712 314.424 137.252 314.438 138.073C313.529 137.698 312.815 137.409 311.914 137.05C311.629 138.349 312.025 140.785 309.444 138.977C308.804 140.859 308.59 140.889 307.018 140.384C306.595 140.252 305.687 140.768 305.411 141.233C305.098 141.76 305.225 142.558 305.13 143.715C304.337 142.8 303.852 142.253 303.374 141.701C302.485 141.923 301.581 142.154 300.556 142.413C300.423 142.763 300.165 143.458 299.753 144.557C299.128 143.335 298.776 142.637 298.31 141.743C297.369 142.835 294.738 142.116 295.75 144.656C294.374 144.835 292.827 144.357 292.019 146.075C291.976 146.163 291.161 146.08 290.928 145.858C289.216 144.155 289.461 146.206 288.821 147.038C288.428 146.469 288.07 145.942 287.409 144.983C287.279 146.097 287.2 146.794 287.124 147.404C285.755 147.034 284.538 146.691 283.318 146.36C282.932 148.462 281.953 148.873 280.079 147.651C279.906 148.077 279.738 148.51 279.456 149.199C278.856 148.508 278.409 147.991 277.479 146.914C277.591 147.92 277.662 148.476 277.721 149.03C277.538 149.041 277.359 149.04 277.177 149.051C276.918 148.551 276.664 148.059 276.116 147.023C275.692 148.119 275.42 148.844 275.146 149.548C271.416 147.368 267.174 147.835 266.726 150.698C265.231 150.002 263.778 149.323 262.01 148.502C262.141 149.36 262.219 149.839 262.355 150.705C261.474 150.146 260.906 149.782 260.127 149.29C259.913 149.771 259.717 150.21 259.528 150.645C259.66 150.149 259.78 149.649 259.912 149.153C258.697 149.249 257.488 149.352 256.213 149.452C255.976 150.146 255.797 150.669 255.507 151.509C255.047 150.842 254.713 150.375 254.387 149.903C253.67 150.476 252.945 151.054 252.162 151.676C251.689 151.059 251.352 150.604 251.015 150.169C249.268 150.721 249.275 150.497 248.998 150.49C248.007 150.446 247.01 150.573 245.795 150.649C244.744 149.181 242.423 149.069 240.846 150.854C240.698 150.364 240.579 149.96 240.403 149.349C239.906 149.795 239.475 150.191 239.086 150.533C238.487 149.663 237.932 148.852 237.359 148.009C236.863 148.076 236.16 148.096 235.514 148.303C235.088 148.435 234.798 148.949 234.373 149.101C233.776 149.322 233.018 149.625 232.494 149.426C231.407 149.017 230.467 148.23 229.393 147.772C229.005 147.609 228.055 147.835 227.966 148.097C227.394 149.751 226.801 149.633 225.465 148.687C224.678 148.126 223.234 148.586 222.163 148.295C221.108 148.015 220.157 147.37 219.163 146.887C219.031 147.111 218.906 147.33 218.774 147.554L217.585 145.505C213.732 146.859 212.992 146.795 212.208 145.697C211.023 145.408 210.432 145.258 209.553 145.044C208.993 145.201 207.949 145.482 206.902 145.774C207.054 145.549 207.207 145.324 207.364 145.107C206.591 144.317 205.826 143.523 205.058 142.741C204.68 143.139 204.307 143.544 203.918 143.959C201.046 141.596 196.379 143.464 193.649 140.169C190.754 142.793 190.629 138.563 188.667 138.274C188.468 138.673 188.207 139.181 187.943 139.702C186.019 139.045 184.095 138.387 182.317 137.782C182.114 137.994 181.626 138.708 181.463 138.645C180.495 138.241 179.567 137.709 178.696 137.113C177.97 136.621 177.372 135.572 176.665 135.51C175.97 135.452 175.204 136.337 174.781 136.604C173.895 136.289 173.051 135.991 172.211 135.702C171.974 135.619 171.694 135.624 171.495 135.498C168.821 133.765 165.96 132.739 162.707 133.011C162.205 133.05 161.25 132.796 161.234 132.606C160.976 130.101 159.403 130.898 157.892 131.061C156.366 131.233 154.789 131.12 153.251 130.984C152.732 130.939 152.073 130.544 151.777 130.107C150.119 127.628 149.262 127.454 145.97 128.398C145.386 128.569 144.421 127.502 143.663 126.956C143.174 126.6 142.76 126.158 142.311 125.746C141.914 126.219 141.516 126.691 141.031 127.266L140.457 126.277C140.201 126.793 139.981 127.246 139.551 128.114L138.193 125.775C137.085 125.998 135.691 126.272 134.413 126.53C131.332 123.932 127.908 123.547 124.102 125.252C123.897 124.374 123.731 123.672 123.539 122.871C122.33 122.596 120.815 122.101 120.567 124.333C119.015 124.027 117.533 123.732 115.704 123.366C115.756 123.273 115.519 123.715 115.286 124.165C113.545 122.846 110.346 123.138 109.096 124.745C107.459 124.456 105.827 124.175 104.154 123.877C104.18 123.651 104.245 124.034 104.099 124.181C103.427 124.813 100.867 124.777 99.7342 124.615C98.9465 124.505 98.0665 125.069 97.225 125.336C97.2467 125.555 97.2684 125.773 97.2901 125.991C96.2489 125.661 95.1997 125.336 93.7602 124.881C93.8107 125.366 93.8645 125.838 93.9215 126.298C93.7719 126.312 93.6222 126.325 93.4726 126.338C93.2555 125.856 93.0306 125.378 92.5873 124.397C92.557 125.61 92.5444 126.258 92.5201 127.174C91.3666 126.217 90.3376 125.366 89.3211 124.518C89.2306 124.634 89.1369 124.761 89.0465 124.877C89.3916 125.653 89.74 126.416 90.0851 127.191C89.9483 127.281 89.8037 127.376 89.6715 127.473C89.3284 126.99 88.9852 126.507 88.5886 125.951C87.5774 128.132 85.3022 128.823 83.5247 127.64C82.299 126.83 79.9649 127.817 79.4917 129.298C79.3206 129.817 78.9172 130.261 78.7735 130.501C77.0795 130.204 75.5331 129.926 74.6573 129.773C73.4384 131.362 72.5098 132.583 71.2083 134.282C71.0789 132.92 71.0246 132.374 70.9787 131.897C68.9238 131.159 68.4703 132.891 67.6617 133.885C66.6311 135.165 65.6014 135.741 63.9214 135.016C63.3862 134.781 62.5206 135.314 61.8035 135.489C61.7191 134.982 61.6347 134.475 61.5425 133.972L61.6189 133.959Z" fill="black"/>
<path d="M21.3568 164.308C20.8452 164.584 20.3648 164.967 19.8209 165.115C18.059 165.623 15.8695 165.141 14.8608 167.363C14.7498 167.606 14.1728 167.678 14.1213 167.897C13.7174 169.643 13.3879 171.408 12.8875 173.891C13.7893 173.221 14.3685 172.791 15.0138 172.311C15.1269 172.56 15.3018 172.952 15.3622 173.074C21.9099 170.524 28.4544 167.986 35.0851 165.398C35.6121 167.464 37.5673 165.878 38.9055 166.34L38.8356 166.328C39.1436 166.769 39.4437 167.214 40.1313 168.2C38.3506 168.404 36.8802 168.565 35.2772 168.75C35.2726 168.742 35.3748 169.207 35.3806 169.235C34.36 169.827 33.6744 170.509 32.8993 170.602C31.8622 170.731 30.7771 170.416 29.4577 170.258C29.4215 170.395 29.244 171.138 29.0249 172.062C28.4065 171.666 27.8468 171.298 27.2917 170.938C26.6564 173.279 24.7192 174.172 22.8376 172.756C22.7234 173.536 22.6154 174.218 22.5151 174.895C22.3594 175.006 22.1912 175.114 22.0355 175.226L20.3957 172.4C19.9254 173.47 19.596 174.385 19.1197 175.228C18.8514 175.688 18.3233 176.351 17.9359 176.335C16.4347 176.261 14.9433 175.951 13.7487 175.773C13.1894 176.654 12.8162 177.259 12.4385 177.856C12.007 177.456 11.5754 177.055 11.1405 176.668C7.85937 173.671 8.0655 171.295 11.0196 168.049C12.6715 166.23 13.3474 163.561 14.682 161.412C15.4807 160.13 16.7577 159.148 17.7202 157.95C18.0183 157.577 18.0198 156.947 18.1099 156.433C18.1629 156.108 17.9856 155.676 18.1429 155.459C19.434 153.723 20.776 152.021 22.1056 150.316C22.618 149.662 23.1552 149.014 23.4993 148.269C24.1647 146.739 24.4958 144.868 25.5907 143.771C26.7629 142.609 28.6716 142.173 30.5357 141.28C31.1533 141.73 32.6958 142.272 32.8996 143.13C33.3421 145.014 33.6543 147.288 32.9526 148.954C32.4152 150.253 32.4826 151.599 32.0563 152.853C31.5319 154.427 30.9301 155.018 29.4406 155.001C29.0078 154.58 28.5828 154.155 28.6734 154.239C28.2714 150.978 30.9486 148.774 30.3576 145.874C29.3851 146.061 28.7543 146.186 28.019 146.329C27.2557 149.227 24.0152 153.101 23.0196 152.524C22.8109 153.485 22.5857 154.508 22.3738 155.481C21.751 155.275 21.1203 155.074 20.3565 154.825C21.1131 158.426 19.0337 160.629 17.0252 163.19C18.0937 163.043 18.9522 162.786 19.7935 162.843C20.3938 162.883 20.971 163.335 21.5649 163.599L21.3522 164.3L21.3568 164.308Z" fill="black"/>
<path d="M38.91 166.348C36.748 165.263 38.7738 164.486 39.2829 164.17C41.0455 163.084 42.9799 162.277 44.8199 161.324C45.5054 160.969 46.1338 160.478 46.7783 160.052C46.6036 159.859 46.4336 159.675 46.2589 159.482C46.0236 159.818 45.7961 160.149 45.6946 160.282C44.8741 159.971 43.6749 159.26 43.4771 159.48C41.4716 161.63 41.4231 158.888 40.2887 158.434C40.3592 159.568 40.4335 160.763 40.5179 162.12C38.1084 161.567 36.0992 161.106 34.2343 160.677C34.4601 161.627 34.6626 162.464 35.0017 163.862C33.8381 162.743 33.1153 162.04 32.1805 161.134C32.225 162.242 32.2571 163.02 32.2902 163.946C30.2622 163.706 29.1755 162.972 29.8432 161.283C31.2249 160.482 32.4155 159.55 33.7611 159.084C34.8282 158.716 36.0939 158.926 37.2766 158.849C37.6131 158.832 37.9764 158.789 38.2727 158.649C40.8372 157.444 43.3897 156.635 46.3526 157.13C47.598 157.341 48.9953 156.331 50.3697 156.132C51.5866 155.95 52.9615 155.824 54.064 156.223C55.2207 156.643 56.1498 157.72 57.4737 158.736C55.771 159.346 54.9737 160.848 53.5129 159.723C53.4405 159.67 52.2734 160.589 52.3485 160.881C53.1898 164.338 51.5173 163.21 49.7212 162.122C49.2404 162.957 48.7818 163.758 48.2767 164.66C48.055 164.169 47.862 163.746 47.4304 162.821C46.4825 167.789 43.2796 163.173 41.33 164.913C42.1414 165.208 42.7484 165.422 43.3477 165.641C43.3243 165.854 43.3009 166.067 43.2821 166.288C41.7984 166.299 40.3114 166.322 38.8401 166.336L38.9178 166.344L38.91 166.348Z" fill="black"/>
<path d="M21.5612 163.612C21.8925 162.989 22.2194 162.359 22.5586 161.732C24.4084 162.768 24.653 162.647 26.523 159.757C26.1779 159.831 25.8688 159.895 25.5674 159.955C24.7378 159.628 26.323 157.586 29.3872 155C29.9162 155.658 30.4373 156.321 31.1037 157.162C30.5672 157.757 29.8755 158.536 28.7691 159.776C28.6949 160.805 28.5631 162.676 28.3937 164.989C27.8713 164.305 27.6147 163.972 27.2695 163.521C26.9558 164.102 26.6632 164.629 26.2728 165.348C25.5827 164.846 24.9221 164.359 24.249 163.868C24.2368 164.064 24.2246 164.26 24.2124 164.456C23.2573 164.401 22.2944 164.351 21.3348 164.289L21.5475 163.588L21.5612 163.612Z" fill="black"/>
<path d="M60.22 136.577C60.1744 137.348 60.1321 138.107 60.0593 139.356L59.0117 137.55C58.5804 138.399 58.2726 139.008 57.9693 139.624C54.3445 139.321 51.6588 140.865 49.9121 144.257C49.2779 142.82 48.6916 141.502 48.214 140.426C48.7871 140.093 49.3561 139.826 49.8489 139.446C50.0741 139.273 50.2558 138.664 50.2728 138.675C53.2125 139.908 54.4097 137.251 56.2673 136.058C56.5801 135.855 57.0497 135.887 57.4432 135.806C58.3657 136.057 59.285 136.322 60.2076 136.573L60.22 136.577Z" fill="black"/>
<path d="M60.2205 136.576C59.2979 136.324 58.3787 136.06 57.4561 135.809C57.6574 135.251 57.8586 134.694 57.9414 134.457C58.9379 134.13 59.867 133.833 61.17 133.402C61.0645 133.274 61.3381 133.619 61.6071 133.956C61.6915 134.464 61.7759 134.971 61.8682 135.473C61.3133 135.837 60.763 136.209 60.2081 136.573L60.2205 136.576Z" fill="black"/>
<path d="M43.3313 146.406C44.0999 145.687 44.4961 145.321 44.8843 144.959C44.8251 144.857 44.7783 144.758 44.727 144.652C44.1529 144.838 43.571 145.029 43.0015 145.223C42.9149 145.074 42.8487 144.923 42.7621 144.774C43.6384 144.15 44.5068 143.531 45.3831 142.907C44.9632 144.462 47.1203 146.516 44.2612 147.43C44.4613 147.051 44.5991 146.783 44.7626 146.467C44.4124 146.461 44.0903 146.448 43.3325 146.426L43.3313 146.406Z" fill="black"/>
</svg>
