<svg width="130" height="147" viewBox="0 0 130 147" fill="none" xmlns="http://www.w3.org/2000/svg">
<path d="M75.4152 61.5476C77.0122 63.5773 76.8504 64.1826 74.5692 64.7943C74.0881 64.922 73.5682 65.1386 73.2087 65.4658C72.0332 66.5266 69.3157 67.6018 67.8008 67.5969C67.3945 67.5999 66.8023 67.7148 66.6121 67.9931C65.2889 69.8942 63.1133 69.8793 61.22 70.4907C58.9104 71.2349 56.5681 71.89 54.323 72.7823C52.6598 73.4446 50.8871 73.6945 49.2705 74.293C47.0739 75.1099 45.1064 76.5503 43.0339 77.7283C42.7956 77.8671 42.5449 77.974 42.2825 78.0789C40.3202 78.8518 38.3693 79.6983 36.3713 80.3638C34.3163 81.0494 32.2758 81.2243 30.4992 79.0568C31.8066 78.7702 33.0018 78.5123 34.3209 78.2276C34.3373 77.7769 34.3619 77.065 34.4053 75.6759C35.2044 76.5984 35.6349 77.0888 36.0943 77.6198C36.4179 76.8688 36.7289 76.1574 37.1905 75.0836C37.8054 75.2589 38.7277 75.522 39.594 75.7636C39.3822 74.2599 40.2032 73.921 42.898 74.5367C42.6064 73.2941 42.4727 72.3884 44.3491 73.045C44.9397 73.2581 46.6042 73.9327 46.5094 71.9475C46.4954 71.7124 46.9496 71.4608 47.1822 71.2136C47.5046 71.5664 47.8222 71.9124 48.0085 72.1169C50.919 70.7819 53.9593 69.3852 57.2455 67.8749C58.2542 68.9342 59.1935 68.0006 60.0279 66.7331C60.6053 67.2721 61.0331 67.6725 60.9809 67.6279C62.5942 66.3068 64.0069 65.1487 65.5232 63.9067C66.1602 64.6587 66.5791 65.147 67.0674 65.7187C67.1563 65.2981 67.2227 64.9752 67.332 64.4685C67.8171 64.7771 68.2383 65.0391 68.9397 65.4796C68.7485 62.8993 69.7611 62.4854 71.904 62.8707C72.9581 63.0605 74.2293 62.0337 75.4085 61.5524L75.4152 61.5476Z" fill="black"/>
<path d="M56.4654 97.5319C56.897 95.4684 59.2987 93.6478 61.0811 93.8709C60.8373 90.4701 63.7887 92.9253 64.9076 91.5984C64.3901 90.1386 65.1858 89.3479 66.7473 88.758C67.6719 88.4067 68.322 87.3826 69.1523 86.741C69.723 86.2942 70.394 85.9599 71.0322 85.6081C71.8951 85.1271 73.2074 85.3067 73.3584 83.8105C73.3909 83.5116 74.2568 82.9774 74.3582 83.0482C76.6541 84.8259 75.9559 82.7389 76.4068 81.6932C76.6313 81.1761 77.8968 81.1031 78.9277 80.7579C78.9932 79.4144 79.0695 77.5117 81.7602 79.7439C81.7588 78.4786 81.7635 77.5664 81.7611 76.8022C82.4438 76.4698 83.0674 76.1692 83.536 75.938C84.2503 76.7268 85.2268 77.4823 85.7027 78.4816C85.905 78.9095 85.164 80.3659 84.7044 80.4375C83.1329 80.6975 82.4228 81.7234 81.4079 82.7517C80.048 84.1275 78.0779 84.8752 76.4833 86.0503C75.0583 87.1048 73.7518 88.3404 72.4705 89.5684C71.9094 90.1003 71.8098 91.5395 70.5789 90.3114C69.9159 90.9873 69.3232 91.7764 68.5686 92.3234C66.1487 94.0753 63.6496 95.7304 61.2036 97.46C60.6272 97.87 60.2418 98.5628 59.6404 98.9089C58.0066 99.8566 56.3265 100.725 54.6195 101.541C53.7955 101.933 52.8877 102.15 51.9506 102.469C51.706 101.407 51.4864 100.481 51.3319 99.8047L55.543 96.8094C55.6212 96.8763 55.995 97.1721 56.4566 97.5483L56.4654 97.5319Z" fill="black"/>
<path d="M71.4061 117.601C73.0596 115.016 74.7063 112.435 76.417 109.758C76.562 109.818 76.995 110.01 76.8452 109.943C78.0298 108.192 79.039 106.596 80.1738 105.105C80.3203 104.908 81.1264 105.223 81.6322 105.303C82.0922 102.116 84.9195 98.3385 86.5546 99.1872C86.53 97.918 85.1963 95.8133 88.0762 96.2872C88.0001 95.1465 88.1274 95.3113 89.2329 94.4535C89.6999 94.0907 89.5175 92.8724 89.6511 91.8685C90.3549 92.0828 90.9117 92.2483 91.7693 92.5064C91.1973 91.1567 90.4205 90.2081 92.4035 89.2776C93.6467 88.6997 94.3039 86.537 94.8701 84.9497C95.4557 83.318 95.6407 83.1761 97.0942 84.3582C97.5086 84.6966 98.1188 84.7936 98.8621 85.0921C97.2583 87.4889 96.5558 90.0616 94.1569 91.9007C92.4508 93.2061 91.7956 95.8167 90.4531 97.6907C88.7943 100.025 86.8524 102.161 85.1444 104.469C84.4567 105.397 84.32 106.986 83.4736 107.475C81.9347 108.355 81.4163 109.766 80.576 111.068C79.2001 113.211 77.8404 115.434 76.0898 117.251C75.2503 118.124 73.5236 118.137 72.2081 118.542C71.9446 118.229 71.6812 117.916 71.4177 117.603L71.4061 117.601Z" fill="black"/>
<path d="M52.6422 41.6349C53.2817 41.5578 54.2319 41.4436 55.1849 41.3478C55.482 41.3203 55.8918 41.5088 56.0768 41.367C58.1405 39.7459 60.1475 40.3709 62.1389 41.5483C62.269 38.3717 64.128 41.8898 64.703 40.7456C64.4042 41.6321 64.1036 42.5301 63.8875 43.174C62.9668 43.5736 62.2074 44.0422 61.3926 44.2031C60.6949 44.342 59.9139 44.0193 59.1911 44.0943C55.8879 44.4322 52.601 44.8503 49.3035 45.2249C47.0393 45.4874 44.7713 45.7732 42.4977 45.9505C41.8988 45.9987 41.2774 45.685 40.675 45.5416C40.3698 45.7586 39.8511 46.3932 39.5504 46.3007C37.8353 45.7846 36.2591 45.9662 34.5768 46.5298C33.331 46.9462 31.9294 46.8708 30.6028 47.0588C29.4233 47.2238 28.182 47.7902 27.1213 47.5337C26.3236 47.3454 25.763 46.1409 25.1028 45.385C25.982 44.9843 26.8534 44.5585 27.7567 44.1917C28.3657 43.9424 29.0016 43.7453 29.6481 43.5918C30.2898 43.4316 30.9547 43.2752 31.6164 43.2436C33.7699 43.1415 35.9369 43.1013 38.2645 43.0285C38.7217 41.7331 41.3739 41.3988 43.6484 42.242C45.1354 42.1647 46.6204 42.0989 48.0997 41.9964C49.4271 41.91 50.7487 41.7869 52.6489 41.6301L52.6422 41.6349Z" fill="black"/>
<path d="M47.4324 24.3448C47.9087 23.6793 48.2211 23.2426 48.613 22.6882L49.7272 24.2546C53.1972 24.6968 56.6377 24.394 59.4693 26.7812C59.8459 27.0954 60.969 26.5927 61.2721 26.9183C61.7924 27.4775 62.3861 28.6279 62.1346 29.0927C61.7822 29.7314 60.5842 30.4304 59.9218 30.2888C56.5607 29.5547 53.2349 28.6117 49.946 27.5914C49.3166 27.3957 48.9043 26.5146 48.3406 25.8944C46.3171 27.7729 44.3078 25.8526 42.2829 25.4752C40.669 25.173 39.182 24.2598 37.5868 23.8117C36.7437 23.574 35.7729 23.8458 34.8871 23.7203C32.5032 23.3837 30.1252 23.0124 27.7561 22.5531C25.4962 22.1181 25.5195 20.1409 24.8669 18.4912C27.1735 18.7908 29.3386 18.6906 31.1916 19.415C33.1519 20.1753 35.1356 20.3369 37.0026 20.8369C38.4016 21.2101 39.9263 21.1571 41.3202 21.6667C43.2206 22.3573 45.2106 22.8004 47.3879 23.4064C47.3824 23.2265 47.3951 23.6463 47.4092 24.3409L47.4324 24.3448Z" fill="black"/>
<path d="M113.416 89.8644C113.714 90.0101 113.847 90.0684 113.985 90.1335C116.491 91.3022 116.572 91.9901 115.74 94.7677C114.845 97.7734 114.449 100.935 113.661 103.977C112.621 107.984 111.404 111.944 110.278 115.931C110.098 116.569 109.84 117.254 109.887 117.894C110.162 121.253 108.364 123.736 105.909 126.443C105.552 125.267 104.712 123.985 104.937 122.937C105.393 120.836 106.635 118.921 107.172 116.834C107.658 114.905 107.647 112.85 107.896 110.487C108.435 110.829 108.807 111.065 109.486 111.501C109.351 110.566 109.263 110.24 109.257 109.917C109.222 108.503 107.921 107.508 109.582 105.55C111.17 103.676 110.745 100.107 111.198 97.2835C111.235 97.063 111.179 96.8269 111.245 96.6171C111.953 94.3974 112.673 92.1798 113.423 89.8596L113.416 89.8644Z" fill="black"/>
</svg>
