<svg width="17" height="12" viewBox="0 0 17 12" fill="none" xmlns="http://www.w3.org/2000/svg">
<path d="M16.42 5.61921C16.3724 5.49646 16.301 5.38431 16.21 5.28921L12.21 1.28921C12.1168 1.19597 12.0061 1.12201 11.8842 1.07155C11.7624 1.02109 11.6319 0.995117 11.5 0.995117C11.2337 0.995117 10.9783 1.10091 10.79 1.28921C10.6017 1.47751 10.4959 1.73291 10.4959 1.99921C10.4959 2.26551 10.6017 2.52091 10.79 2.70921L13.09 4.99921H1.5C1.23478 4.99921 0.98043 5.10457 0.792893 5.2921C0.605357 5.47964 0.5 5.73399 0.5 5.99921C0.5 6.26443 0.605357 6.51878 0.792893 6.70632C0.98043 6.89385 1.23478 6.99921 1.5 6.99921H13.09L10.79 9.28921C10.6963 9.38217 10.6219 9.49277 10.5711 9.61463C10.5203 9.73649 10.4942 9.8672 10.4942 9.99921C10.4942 10.1312 10.5203 10.2619 10.5711 10.3838C10.6219 10.5056 10.6963 10.6162 10.79 10.7092C10.883 10.8029 10.9936 10.8773 11.1154 10.9281C11.2373 10.9789 11.368 11.005 11.5 11.005C11.632 11.005 11.7627 10.9789 11.8846 10.9281C12.0064 10.8773 12.117 10.8029 12.21 10.7092L16.21 6.70921C16.301 6.61411 16.3724 6.50196 16.42 6.37921C16.52 6.13575 16.52 5.86267 16.42 5.61921Z" fill="white"/>
</svg>
