<svg width="274" height="59" viewBox="0 0 274 59" fill="none" xmlns="http://www.w3.org/2000/svg">
<path d="M2.48735 19.5372C2.79521 19.7387 3.11028 19.9408 3.7197 20.3337C3.4843 19.7514 3.34882 19.4179 3.26015 19.2037C3.9956 19.1108 4.64913 18.9623 5.32561 18.9547C8.0014 18.9358 10.6866 18.8173 13.3579 18.999C17.1846 19.2569 20.9591 19.146 24.7565 19.1762C25.8529 19.1845 26.9696 19.3622 28.0651 19.3801C29.8434 19.4004 31.6636 19.1329 33.3766 19.3816C36.8671 19.8899 40.2639 18.8579 43.7746 19.8418C44.7018 20.1021 45.9274 19.8212 47.0148 19.7712C47.4307 19.7533 47.8331 19.6479 48.2467 19.6536C50.6632 19.6867 53.0897 19.7686 55.5008 19.7821C58.2387 19.7978 60.969 19.741 63.7069 19.7568C65.8421 19.768 67.9841 19.8612 70.1126 19.8669C71.0496 19.8697 71.9746 19.6943 72.9117 19.697C74.5311 19.7071 76.2865 20.046 77.7564 19.7931C80.615 19.3034 83.6423 20.6339 86.3793 19.7403C86.4918 19.7031 86.6426 19.6457 86.7421 19.6695C89.8004 20.5196 92.6085 19.1063 95.8775 19.8807C97.9741 20.3763 100.561 19.6073 102.957 19.5523C104.967 19.5038 107.029 19.7568 109.044 19.7232C111.628 19.6812 114.212 20.022 116.835 19.9408C118.591 19.8873 120.552 19.8963 122.432 19.9263C123.73 19.949 125.118 19.7983 126.304 20.0879C128.313 20.5849 130.101 19.8931 132.083 20.2152C133.542 20.4542 135.116 20.1824 136.648 20.1938C137.934 20.2009 139.225 20.2947 140.514 20.3405C144.295 20.4743 148.08 20.6372 151.858 20.7182C153.772 20.7563 155.672 20.5728 157.585 20.6204C158.513 20.6462 159.465 21.1003 160.399 21.1363C161.666 21.1895 162.923 20.9641 164.201 20.9706C167.76 20.9877 171.327 21.0678 174.885 21.099C175.211 21.1013 175.513 20.9146 175.932 20.7821C176.345 21.1754 176.712 21.526 177.131 21.9295C180.003 20.9148 183.154 21.2473 186.334 21.5107C188.179 21.6666 190.038 21.6038 191.892 21.6649C193.558 21.7224 195.224 21.8566 196.886 21.8803C199.215 21.9099 201.533 21.8332 203.862 21.8723C204.87 21.8914 205.893 22.1368 206.912 22.1952C207.361 22.2186 207.814 22.032 208.399 21.9152C208.5 22.1545 208.602 22.3843 208.56 22.2894C209.397 22.2731 210.062 22.2357 210.729 22.2559C211.664 22.2776 212.604 22.3285 213.542 22.3936C214.798 22.4841 216.044 22.5975 217.298 22.7117C217.47 22.7281 217.683 22.8584 217.803 22.8266C219.369 22.401 220.919 21.9977 222.496 23.0614C223.091 22.6154 223.757 22.8653 224.55 22.9309C226.569 23.0986 228.616 22.8908 230.647 23.0069C233.278 23.1561 235.915 23.5451 238.545 23.6942C240.432 23.7967 242.311 23.6017 244.202 23.6615C246.737 23.7441 249.285 23.9284 251.823 24.131C252.155 24.1577 252.46 24.5456 252.48 24.5618C253.654 24.4388 254.657 24.2085 255.655 24.2601C257.802 24.3777 259.953 24.6058 262.094 24.8616C262.762 24.9393 263.385 25.2712 264.053 25.4303C264.379 25.5091 264.781 25.4898 265.126 25.4555C268.105 25.1449 270.938 25.5428 273.597 26.6948C273.639 26.7132 273.64 26.7755 273.664 26.8304C272.3 28.8018 269.746 27.5306 267.685 27.426C266.282 27.3551 264.887 26.8973 263.474 26.7776C260.599 26.5286 257.709 26.3549 254.822 26.2245C253.158 26.148 251.502 26.2876 249.839 26.2016C248.111 26.1141 246.382 25.8736 244.656 25.6858C244.534 25.6742 244.344 25.3786 244.344 25.3786C241.454 26.5018 238.292 24.9097 235.253 25.3104C233.517 25.538 231.485 24.9672 229.588 24.8973C227.032 24.8031 224.482 24.8722 221.93 24.8166C220.762 24.792 219.591 24.5756 218.425 24.5367C215.165 24.4331 211.907 24.3872 208.653 24.2985C206.609 24.2434 204.568 24.155 202.527 24.0666C200.255 23.9706 198.026 23.4959 195.682 23.7712C194.006 23.9663 192.109 23.5901 190.316 23.5013C188.269 23.4027 186.232 23.042 184.185 23.4029C183.128 23.5897 181.874 23.4037 180.708 23.3601C178.421 23.2722 176.128 23.1599 173.841 23.0626C171.959 22.9845 170.012 23.13 168.234 23.033C164.561 22.8377 160.935 23.0726 157.258 22.7668C154.829 22.565 152.364 22.8049 149.935 22.6031C147.721 22.4217 145.547 22.8184 143.257 22.1465C142.225 21.8427 140.753 22.3396 139.476 22.4768C139.248 22.5031 139.031 22.5734 138.806 22.5664C136.618 22.4976 134.428 22.4572 132.245 22.3315C130.634 22.236 129.015 21.9196 127.418 21.9021C125.85 21.8825 124.324 22.1923 122.753 22.206C120.899 22.2214 119.011 22.0472 117.148 22.0043C114.806 21.9496 112.465 21.962 110.115 21.9208C108.011 21.8839 105.905 21.7989 103.806 21.7816C101.977 21.7659 100.153 21.837 98.3171 21.8158C94.6151 21.7756 90.8982 21.6622 87.2003 21.6559C85.1294 21.6556 83.0882 21.8782 81.0165 21.8874C78.3051 21.8981 75.5713 21.7631 72.8482 21.744C69.8277 21.7206 66.8215 21.7751 63.8073 21.7619C62.5002 21.7527 61.1855 21.5945 59.8843 21.6002C57.0563 21.6142 54.2433 21.7014 51.4136 21.7344C50.2352 21.747 49.0465 21.7155 47.865 21.6848C44.1243 21.593 40.3728 21.462 36.6362 21.4041C34.2782 21.367 31.8373 21.7431 29.5927 21.3531C26.934 20.8855 24.4027 21.6024 21.7598 20.8922C20.6899 20.604 19.3027 21.0562 18.0492 21.0186C14.2964 20.9018 10.5435 20.7084 6.78707 20.5529C5.74466 20.5115 4.7018 20.5513 3.66569 20.4434C3.13324 20.3881 2.62373 20.0909 2.10342 19.9075C2.238 19.7911 2.37258 19.6746 2.50715 19.5582L2.48735 19.5372Z" fill="black"/>
<path d="M166.72 31.1869C165.603 31.2436 164.49 31.3342 163.369 31.357C161.993 31.3844 160.606 31.3724 159.221 31.3462C155.23 31.2834 151.237 31.1678 147.251 31.1388C142.437 31.1031 137.618 31.1101 132.812 31.147C129.3 31.1726 125.805 31.3196 122.294 31.3357C120.339 31.3416 118.356 31.1009 116.4 31.121C114.312 31.143 112.267 31.4131 110.18 31.4304C108.827 31.4409 107.433 31.1985 106.137 31.0755C104.921 31.2568 103.723 31.5547 102.483 31.5998C99.3697 31.7111 96.2425 31.7398 93.1184 31.7353C91.0624 31.7316 88.9915 31.5782 86.9355 31.5745C86.2743 31.574 85.669 31.9042 84.9961 31.9504C82.4576 32.1306 79.8777 31.905 77.2919 32.1238C75.1895 32.3024 72.8333 32.0931 70.5887 32.1625C67.732 32.2503 64.8442 32.206 61.9866 32.3033C57.248 32.4663 52.5293 32.7268 47.7916 32.8802C44.4825 32.9873 41.1442 32.9433 37.8361 33.041C35.7445 33.1057 33.6948 33.3419 31.6073 33.4405C29.4977 33.5418 27.3566 33.5157 25.2524 33.6367C22.542 33.7911 19.8572 34.0579 17.1445 34.236C16.3766 34.2876 15.571 34.2015 14.6938 34.1039C13.8291 34.1033 12.9722 34.0985 12.1075 34.0978C11.9775 34.0137 11.8541 33.935 11.7241 33.8509C12.5329 33.4443 13.24 32.8845 14.1689 32.6663C15.1281 32.4367 16.2947 32.5474 17.3614 32.4859C17.7121 32.4666 18.0352 32.3537 18.3858 32.3343C19.2554 32.2828 20.1412 32.2903 20.9991 32.209C21.505 32.1613 21.965 31.9848 22.1135 31.951C24.2406 31.8179 26.068 31.7041 27.9241 31.5931C27.9449 31.9875 27.9584 32.3047 27.9786 32.6272C28.7447 30.6804 31.4871 31.491 33.1546 31.2999C35.6301 31.0179 38.3505 31.4483 40.9309 31.363C43.9267 31.2644 46.8676 30.9022 49.8557 30.7311C50.9445 30.6669 52.0985 30.8339 53.3925 30.904C53.3925 30.904 53.4789 31.1419 53.4321 31.0226C54.8877 30.8449 56.3789 30.3691 57.7107 30.5768C59.164 30.8056 60.4126 30.5125 61.7768 30.6085C63.8553 30.7579 65.9509 30.6505 68.0385 30.6284C69.0858 30.6177 70.148 30.6037 71.1738 30.5144C72.8594 30.3632 74.5288 30.1532 76.299 29.9526C76.6122 30.2504 76.9458 30.5644 77.119 30.7292C78.8429 30.4046 80.6941 29.5801 82.0439 29.9044C85.0703 30.6318 87.6759 29.5152 90.6294 30.0156C92.5243 30.339 94.6163 29.8101 96.6408 29.7629C97.6675 29.7407 98.731 29.9421 99.7771 30.0222C100.08 30.0462 100.389 30.0085 100.696 29.985C102.386 29.8678 104.076 29.7458 105.772 29.6387C105.918 29.6287 106.159 29.7664 106.243 29.7313C107.899 29.0414 109.238 29.4077 110.307 30.6242C110.97 30.065 110.769 29.1271 112.659 29.7323C113.498 30.0033 115.503 29.696 116.972 29.6104C118.93 29.4995 120.879 29.0958 122.813 29.2363C125.187 29.4089 127.434 29.1627 129.74 29.1422C132.03 29.125 134.339 29.2245 136.637 29.3517C137.252 29.386 137.861 29.707 138.136 29.7906C140.604 29.5845 142.911 29.3919 145.241 29.1966C145.206 29.4039 145.166 29.6058 145.107 29.9161C145.865 29.811 146.914 29.8674 147.098 29.6121C147.816 28.6322 149.016 29.2294 150.02 29.2146C150.661 29.2036 151.419 29.0219 151.911 29.2026C153.715 29.862 155.503 29.6344 157.309 29.6622C157.462 29.6623 157.647 30.0149 157.824 30.2088C158.889 29.3288 171.781 29.3892 172.903 30.271C174.337 29.6365 179.727 29.8848 180.204 30.2937C181.153 30.2403 181.741 30.1716 182.328 30.189C182.749 30.2002 183.346 30.4914 183.566 30.3926C185.111 29.6587 185.778 30.5116 186.502 31.2264C187.754 30.3689 190.127 30.4697 190.903 31.2516C191.862 31.0267 192.783 30.8174 193.831 30.5723C193.914 30.9965 193.966 31.2933 194.025 31.5908C194.094 31.4683 194.157 31.345 194.227 31.2224C194.832 31.2798 195.429 31.3365 196.034 31.3939C196.921 31.4685 197.807 31.5525 198.695 31.6081C200.343 31.707 202.018 31.6602 203.613 31.9265C204.522 32.0796 205.303 32.7328 206.55 33.3728C204.168 33.9699 202.39 33.7198 200.558 33.4168C199.149 33.1825 197.703 33.0262 196.274 32.9289C194.072 32.7774 191.865 32.7546 189.666 32.5699C189.083 32.5193 188.529 32.0743 188.038 32.0468C186.074 32.0663 184.119 32.1487 182.149 32.0814C179.056 31.9794 175.962 31.8055 172.871 31.6031C170.785 31.4625 168.701 31.2169 166.612 31.0188L166.719 31.1964L166.72 31.1869Z" fill="black"/>
</svg>
