<svg width="161" height="161" viewBox="0 0 161 161" fill="none" xmlns="http://www.w3.org/2000/svg">
<mask id="mask0_370_1831" style="mask-type:alpha" maskUnits="userSpaceOnUse" x="22" y="16" width="116" height="131">
<path d="M77.2118 143.386C76.831 143.44 76.1959 143.656 76.1085 143.514C74.599 141.167 71.9704 141.782 69.9171 141.47C65.1905 140.761 60.4692 140.443 56.0526 138.246C53.7978 137.123 51.148 136.823 48.722 136.014C47.9462 135.752 47.2332 135.13 46.6417 134.52C43.3369 131.159 39.0442 128.874 36.2726 124.909C35.1093 123.25 33.6362 121.812 32.3022 120.279C32.2536 120.228 32.143 120.221 32.1128 120.171C30.5328 117.046 28.9833 113.908 27.3762 110.804C26.8832 109.856 26.2295 108.994 25.5644 107.957C26.2014 107.83 26.5877 107.747 27.3072 107.602C24.785 106.673 24.9904 105.024 25.0037 103.008C25.012 101.254 23.8002 99.4809 23.0937 97.7349C22.9321 97.3549 22.3802 96.9433 22.459 96.6854C22.8607 95.3927 23.4077 94.1459 24.0534 92.4982C24.0482 92.0426 21.7876 91.0112 23.9394 90.2669C23.7644 89.2642 23.4354 88.2373 23.4394 87.2124C23.457 85.2483 23.5245 83.254 23.8402 81.3157C24.275 78.7075 24.8497 76.1116 25.5804 73.5661C26.2683 71.1733 27.1319 68.8136 28.1102 66.5128C29.2109 63.9087 30.3431 61.2732 31.8369 58.8968C32.5505 57.7677 32.7752 55.8053 34.825 55.8133C34.9247 55.8157 34.9946 55.2834 35.132 55.0365C36.5358 52.6176 37.8509 50.1377 39.3933 47.8125C40.1274 46.7105 41.4331 46.0028 42.2279 44.9379C43.4309 43.3134 44.6358 41.8407 46.725 41.3294C47.1233 41.2318 47.4613 40.6124 47.7001 40.1608C49.1153 37.5576 51.6872 36.3025 53.9693 34.7039C55.0876 33.9143 56.0947 32.9476 57.2496 32.2231C60.0485 30.4676 62.9078 28.8121 65.7433 27.1218C68.279 25.6128 70.7575 24.0115 73.3783 22.6817C74.219 22.2525 75.4553 22.6692 76.4634 22.465C77.5921 22.2274 78.6448 21.6003 79.781 21.3595C80.7111 21.1616 81.7139 21.2826 82.6908 21.7648C83.3816 21.4262 84.0799 21.0844 85.0226 20.6208C84.7463 21.6807 84.5927 22.3115 84.4183 22.978C80.6468 23.5225 80.1153 22.7791 75.3916 26.3403C75.1842 25.6836 74.9832 25.042 74.8231 24.5177C71.6898 26.0564 68.5647 27.3403 65.7301 29.0751C63.969 30.147 62.6278 31.911 61.189 33.2767C60.9626 32.0266 59.3737 32.406 59.2828 33.0999C58.9169 35.9122 56.3094 35.5848 54.8094 36.7431C54.5257 36.9625 53.9972 37.0705 53.9293 37.3328C53.2373 39.9695 50.9942 40.8156 48.8828 41.8659C48.5277 42.0438 48.3354 42.5205 48.0352 42.8277C46.9214 43.9654 45.8075 45.1032 44.6667 46.1986C44.6351 46.23 44.263 45.9035 43.7327 45.5007L44.4017 47.0742C43.1105 48.0271 41.8889 48.9324 40.5086 49.9501C40.6481 50.0883 41.0071 50.4472 41.3662 50.8061C40.9744 51.2779 40.5794 51.742 40.18 52.217C40.6455 52.8897 41.111 53.5624 41.5798 54.2426C41.7645 55.2681 42.0611 56.219 40.8161 56.9638C40.1783 57.3426 39.8655 58.2745 39.213 59.252C40.4776 59.2708 40.7921 59.2717 41.1359 59.2781C40.3956 61.0199 38.8346 62.626 41.3529 64.939C39.7134 64.8194 38.796 64.7517 37.4623 64.6546C38.6358 65.0083 37.7924 66.803 39.4918 66.4304C39.3506 67.2803 39.2093 68.1302 39.0062 69.3834C39.003 69.3758 39.4359 69.6763 39.4359 69.6763C39.4584 71.2913 39.4788 72.5213 39.488 73.4508C40.3868 73.5802 41.2355 73.7399 42.0803 73.7846C42.2906 73.7939 42.527 73.4421 42.739 73.2442C42.912 73.081 43.1744 72.7271 43.2101 72.7478C45.8808 74.4484 48.7623 71.114 51.4247 73.0695C51.5838 73.1904 52.007 73.1091 52.2113 72.9774C53.211 72.31 54.1729 71.5959 54.8587 71.0978C55.0178 70.0788 55.1581 69.1844 55.2983 68.2901C55.8433 67.7353 56.3807 67.1837 56.9224 66.6213C57.101 67.5057 57.2763 68.3825 57.5586 69.8063C59.2258 70.8566 61.4816 70.5257 63.8915 69.7344C65.1269 69.3258 66.5892 69.6195 68.3007 69.5919C68.4033 69.3688 68.7373 68.6344 68.8955 68.2889C70.0363 67.9743 70.8232 67.7564 71.4484 67.5803C71.8947 68.1445 72.3 68.6543 72.7052 69.1641C72.899 68.9022 73.2947 68.6084 73.2562 68.3914C72.8897 66.4739 75.2443 66.101 75.4663 66.222C77.5121 67.255 78.9234 65.6137 80.3958 65.0236C81.9854 64.3926 82.7452 64.5542 83.3448 66.1123C85.1602 63.1414 87.9193 62.0311 91.1367 63.3288L83.6968 45.8309C83.7251 45.7919 84.1315 45.5024 84.1748 45.1609C84.2213 44.827 83.9076 44.1526 83.7341 44.1456C83.0065 44.1229 82.2233 44.1597 81.5447 44.4213C80.3743 44.8561 79.2037 45.3538 78.166 46.0374C76.7002 47.0017 75.2206 47.4693 73.4866 47.0218C73.246 46.9625 72.8053 47.0871 72.6681 47.2711C71.0337 49.5277 68.7737 49.4475 66.3275 49.267C65.1857 49.178 63.83 49.557 62.8553 50.1778C61.6916 50.9239 60.7815 51.7597 59.2081 51.6478C58.5889 51.6059 57.8831 52.6689 57.2232 53.2278C56.9945 53.1545 56.7691 53.0887 56.5329 53.0186C56.4739 52.7744 56.4226 52.527 56.3604 52.2752C54.7379 52.6599 53.1323 53.19 51.4886 53.3773C50.5155 53.4949 49.4863 53.0798 48.0727 52.8372C48.6998 53.5309 49.0642 53.9235 49.6707 54.5901C47.7781 54.6139 46.2629 54.6389 44.7108 54.6616C44.742 53.9751 44.7769 53.1705 44.7966 52.7313C45.8398 52.3774 46.7583 52.0677 47.8016 51.7139C47.8738 51.8627 48.0453 52.2026 48.1466 52.4198C49.1993 51.7927 50.2293 51.1753 51.5395 50.3938C51.6358 51.2325 51.6896 51.7391 51.8124 52.8088C52.5598 51.6114 53.0251 50.8482 53.4152 50.2246C54.4423 50.1917 55.3914 50.1652 56.4001 50.1312C56.4287 49.2484 56.4503 48.5392 56.4737 47.5599C61.006 50.2192 64.6077 46.8478 68.7006 46.1936C68.6701 46.6284 68.635 47.137 68.5999 47.6455C68.6953 47.6588 68.7939 47.6797 68.8969 47.6898C69.1006 47.0288 69.3118 46.3645 69.418 46.0232C71.8205 45.1722 74.0342 44.3835 76.3043 43.5799C76.5551 43.8951 76.9063 44.3202 77.2468 44.7409C77.376 44.6859 77.4911 44.619 77.6203 44.5641C77.5152 44.169 77.41 43.7739 77.307 43.4049C78.1794 43.2403 79.0551 43.0834 80.2119 42.8698C80.1644 42.8003 80.4474 43.1915 80.7812 43.6599C81.1267 42.6783 81.7039 41.8405 81.6291 41.0735C81.529 40.057 81.0733 38.9852 80.5097 38.1029C79.3716 36.334 78.191 34.655 78.6444 32.344C78.7105 31.9928 77.9147 31.5144 77.5961 31.0395C76.8196 29.8887 76.0887 28.7186 75.511 27.8243C77.2245 27.8856 78.6755 27.9418 79.7165 27.9839C79.6195 28.8957 79.4789 29.9159 79.4716 30.9332C79.4715 30.9961 80.4365 31.0704 80.8474 31.1291C80.6633 31.7728 80.4584 32.5151 80.3028 33.0569C81.179 33.4922 81.8722 33.8347 82.7267 34.2612C81.9835 34.7298 81.463 35.0678 80.9469 35.3949C81.0094 35.5209 81.072 35.6469 81.1345 35.7729C81.6035 35.6094 82.0682 35.4567 82.5372 35.2932C82.9525 36.059 83.3614 36.8096 83.7876 37.5798C83.3439 37.9928 82.8719 38.4448 82.2554 39.0211C83.9717 39.2158 85.4617 39.6593 86.8472 39.4562C87.9529 39.2912 88.9436 38.3494 89.98 37.7472C90.0728 37.9231 90.1579 38.1023 90.2507 38.2783C90.8173 37.7322 91.8128 36.6537 91.8799 36.706C93.2465 37.8303 93.7661 33.6063 95.1858 36.2697C95.6902 35.4718 96.138 34.7519 96.7329 33.8078C97.0295 34.7588 97.209 35.3287 97.3853 35.891C97.6501 35.4373 97.8203 34.7187 98.2024 34.5832C99.5693 34.0827 99.708 31.4748 101.936 32.4301C102.167 32.5295 102.702 31.9519 103.089 31.6797C103.681 31.2573 104.256 30.8154 104.838 30.3886C105.338 30.0235 105.849 29.6627 106.349 29.2975C106.239 29.1465 106.13 28.9954 106.021 28.8443C105.729 29.0225 105.429 29.2038 105.487 29.1703C95.3227 22.533 84.7001 18.1102 72.3549 19.1139C72.5709 19.4529 72.8505 19.8994 72.9412 20.0493L65.34 23.2813C65.8029 20.338 69.85 17.0645 72.5443 18.5038C72.0182 16.6542 73.0832 16.6681 74.3183 16.7443C75.4981 16.8171 76.689 16.7684 77.8736 16.7046C79.0765 16.6419 80.27 16.4934 81.5468 16.3724C81.6313 16.8032 81.7564 17.4141 81.8987 18.1076C82.589 17.5358 83.1771 17.0614 83.3685 16.8992C90.892 17.3264 96.9845 20.9109 103.439 23.9109C103.352 24.2349 103.238 24.7053 103.024 25.5322C103.811 25.0182 104.324 24.6834 104.652 24.4631C109.905 28.5214 115.105 32.5394 120.414 36.6455C119.849 37.2177 119.557 37.5216 119.106 37.9823C119.912 38.0616 120.574 38.121 121.348 38.1872C120.594 41.4604 123.862 41.5251 125.432 43.254C124.83 43.4649 124.3 43.6543 123.771 43.8436C126.358 43.363 127.234 45.36 127.988 46.9868C128.654 48.4269 131.107 49.4035 129.434 51.7392C132.906 52.094 131.236 55.4698 132.856 57.1685C132.126 57.1827 131.574 57.193 131.029 57.2002C131.033 57.4409 131.026 57.6774 131.029 57.9181C133.013 57.8555 134.997 57.7928 137.041 57.7228C135.608 59.4626 134.284 61.0759 132.983 62.6611C133.513 62.8936 134.386 63.1955 134.366 63.2757C134.173 64.0668 133.831 64.8229 133.489 65.6863C133.638 65.7214 133.993 65.7951 134.606 65.9292C132.735 67.5236 137.194 68.7868 134.453 70.5718C137.122 71.8874 135.335 73.7239 135.129 75.3913C135.108 75.5529 134.848 75.6812 134.703 75.8239C134.806 75.8784 134.91 75.933 135.019 75.9767C136.434 76.5599 135.484 77.3673 135.03 77.776C133.71 78.9566 133.975 80.0646 134.877 81.2787C135.4 81.9808 135.218 83.8978 134.708 84.6176C134.501 84.912 134.325 85.5969 134.466 85.7166C136.484 87.4436 134.563 88.2244 133.684 89.2804C134.991 91.8481 134.816 92.7662 132.768 93.7983C133.152 94.2993 133.532 94.7928 133.908 95.2971C133.423 95.6558 133.202 96.6118 133.152 97.5932C133.137 97.8957 132.695 98.1645 132.564 98.4895C132.133 99.5435 131.887 100.698 131.321 101.666C130.708 102.716 129.814 103.59 128.65 104.229C128.708 105.505 128.769 106.79 128.828 107.941C127.635 109.462 126.442 110.983 125.767 111.845C123.299 115.434 121.262 118.391 119.233 121.345C119.382 121.462 119.53 121.578 119.686 121.692C118.923 121.756 118.16 121.82 117.301 121.889C117.575 122.257 117.827 122.598 118.153 123.026C116.252 124.318 113.297 124.462 113.193 127.827C112.671 127.591 112.322 127.425 111.757 127.172C111.864 127.656 111.95 128.005 112.035 128.373C110.593 129.184 108.094 128.604 108.164 131.006C107.278 131.329 106.394 131.382 106.01 131.851C105.43 132.555 105.198 133.551 104.822 134.42C105.044 134.541 105.255 134.657 105.477 134.778C105.017 135.216 104.562 135.643 103.98 136.196C103.615 135.696 103.305 135.262 102.807 134.577C102.86 135.335 102.892 135.833 102.954 136.695C101.894 136.293 101.015 135.958 100.141 135.611C99.9895 135.55 99.7939 135.301 99.7211 135.341C97.8474 136.317 96.0513 137.476 94.1109 138.274C92.1173 139.095 90.0102 139.775 87.8921 140.155C84.7637 140.714 81.5573 140.856 78.4301 141.396C77.9288 141.484 77.6205 142.701 77.2227 143.39L77.239 143.365L77.2118 143.386ZM129.581 94.8932C130.145 93.37 130.701 91.8499 131.428 89.9074C131.453 89.9866 131.138 89.4564 131.207 88.987C131.978 84.2974 132.296 79.6206 131.702 74.8468C131.578 73.8584 131.842 72.7052 131.531 71.6165C131.509 71.5633 132.067 71.335 132.357 71.1937C131.78 69.5002 130.138 68.0443 131.472 65.9875C131.614 65.7742 130.849 64.6278 130.31 64.4169C129.793 64.2148 128.968 64.5747 128.372 64.8821C127.783 65.1863 127.35 65.7924 126.773 66.1454C125.831 66.7164 124.841 67.2179 123.85 67.6934C123.381 67.9198 122.849 68.0202 122.588 68.1041C122.54 70.6917 122.489 73.2533 122.437 75.9591C122.779 76.0469 123.296 76.1861 123.802 76.3209C123.867 78.0347 123.615 79.7216 124.059 81.2109C124.612 83.0584 125.663 84.7294 123.576 86.7657C127.795 86.1118 123.796 89.0775 125.223 89.5209C124.802 89.7539 124.392 89.9729 123.986 90.1995C125.006 91.0582 126.03 91.9244 127.11 92.8385C127.055 92.9425 126.888 93.3097 126.714 93.6801C123.981 95.4434 124.705 98.0343 124.981 100.287L123.316 100.994C123.852 101.494 124.392 101.982 125.091 102.636C125.308 103.379 123.862 104.981 126.27 105.492C127.385 101.93 128.479 98.4225 129.58 94.9117L129.581 94.8932ZM47.6216 107.779C48.0837 105.868 53.1704 102.422 55.0414 102.748C55.1108 102.763 55.1747 102.808 55.2364 102.827C56.1912 103.067 57.1504 103.296 58.2624 103.569C57.8509 102.2 56.6422 100.856 59.0622 100.742C59.1772 100.738 59.3418 99.69 59.313 99.1368C59.2839 98.7094 58.9868 98.3061 58.8219 97.9185C59.2582 97.8048 59.5665 97.7275 59.5925 97.7255C59.3626 96.9526 59.0748 96.339 59.0213 95.7065C58.8522 93.7679 57.6946 93.1562 55.7601 93.7992C53.9048 94.4175 51.9881 94.8914 50.0674 95.2503C46.3313 95.9414 42.563 96.4935 39.056 97.0691C39.3235 97.5926 39.6856 98.0221 39.7634 98.5006C39.8827 99.2666 39.5873 100.155 39.8685 100.816C40.4406 102.162 40.4059 102.904 39.0951 103.874C39.9268 103.951 40.56 104.005 41.5207 104.09C40.8585 104.686 40.4475 105.049 40.0473 105.417C40.2663 105.467 40.4776 105.521 40.6965 105.571C40.6224 106.473 40.5438 107.386 40.464 108.381C41.0417 108.494 41.9013 108.658 42.7641 108.83C43.0772 108.975 43.3826 109.123 43.6956 109.269C43.4497 109.535 43.2206 110.009 42.9483 110.044C41.4565 110.23 41.4664 110.189 42.0591 111.499C42.1399 111.689 42.2226 111.968 42.1419 112.137C41.1772 114.217 42.3437 114.385 44.1203 113.962C44.6509 116.159 45.1473 118.192 45.7132 120.536C47.6561 119.997 50.0666 119.798 51.8952 118.653C53.2272 117.817 53.7992 117.664 54.6987 119.04C55.1673 118.285 55.3899 117.436 55.8752 117.248C57.9957 116.409 60.1703 115.655 62.3811 115.092C63.7161 114.749 64.3132 114.549 63.3206 113.122C62.7157 112.248 62.3436 111.141 62.1276 110.084C61.7597 108.248 61.8174 106.293 61.2259 104.543C61.0012 103.867 59.4307 101.968 59.1226 102.763C58.221 105.139 55.3561 103.826 54.4623 105.777C54.3947 105.913 53.1681 105.519 52.5437 105.381C51.0287 106.124 49.33 106.963 47.6281 107.794L47.6216 107.779ZM65.5114 99.0862L65.8666 100.048C64.8257 101.083 63.3448 101.991 64.8408 103.778C64.3834 104.053 63.9368 104.333 63.6641 104.494C64.2983 105.732 64.8257 106.782 65.3444 107.791C65.006 108.178 64.5751 108.684 64.4315 108.853C65.3769 109.725 66.0638 110.349 66.6522 110.888C65.9516 111.267 65.4815 111.449 65.1292 111.76C65.0509 111.83 65.3285 112.609 65.5334 112.648C66.8958 112.939 68.2948 113.358 69.6648 113.287C71.8071 113.175 73.9311 112.64 76.0792 112.436C76.8722 112.359 77.7063 112.695 78.515 112.845C79.8629 112.532 81.3329 112.401 82.7909 112.284C83.5014 112.224 84.2065 112.193 84.918 112.178C87.4452 112.127 89.9627 112.053 92.4841 112.093C92.7282 112.097 92.9647 112.823 93.2141 113.219C94.7835 111.295 95.8091 112.188 96.3749 113.455C97.3591 112.92 98.2324 112.441 98.9482 112.056C98.6541 111.364 97.9269 110.434 98.1514 110.034C98.92 108.675 99.1509 107.571 98.3927 106.063C98.0207 105.315 98.5914 104.103 98.7309 103.101C98.7825 102.145 97.6875 100.457 97.8593 100.312C99.1932 99.2064 98.1938 97.8901 98.1402 96.8987C98.0542 95.1132 97.3395 93.2002 94.7083 93.9779C94.6703 93.994 94.5529 93.7388 94.4751 93.6193L94.3715 93.439C94.6033 92.8019 94.6941 91.7491 95.0947 91.6146C95.8014 91.377 96.6996 91.6952 97.5562 91.7887C97.4953 91.4556 97.3652 91.0441 97.3426 90.6319C97.2686 89.1914 97.7821 87.1062 97.041 86.4609C95.9829 85.5556 96.2972 84.9014 96.3377 84.0046C96.4023 82.6577 95.6563 82.212 94.4623 82.5492C93.5657 82.8047 92.7433 83.298 91.8532 83.5688C91.5926 83.6526 91.2161 83.337 90.8153 83.1754C90.5938 83.6465 90.4765 84.4683 90.0856 84.6255C87.5578 85.6464 84.9783 86.5457 82.4096 87.4494C80.7073 88.0476 78.9069 88.4361 77.2898 89.2135C75.7759 89.938 74.1504 89.4713 72.4783 90.4784C70.3065 91.7878 67.3065 91.8247 64.63 92.137C62.3192 92.4015 60.2103 94.0701 60.2626 95.5018C61.2458 96.0621 62.1681 96.2893 62.5536 96.8793C63.0342 97.6084 63.0714 98.6247 63.2152 99.1739C64.0937 99.1504 64.7944 99.1307 65.4983 99.1187L65.5114 99.0862ZM36.495 88.4916C36.9226 88.7585 37.3427 89.0287 37.7703 89.2956C37.7075 89.6544 37.6446 90.0132 37.5742 90.3753C38.208 90.5994 38.831 90.8192 39.5005 91.0641C38.9482 91.9182 38.519 92.5764 38.0408 93.3093C40.324 94.7529 42.2835 93.3453 44.2713 93.0386C46.3524 92.7192 48.4004 92.2164 50.522 91.7811C50.4301 92.4304 50.3604 92.8999 50.2553 93.6446C52.3578 90.7581 55.5528 91.9397 57.5806 90.9249C57.0738 87.9811 56.0865 85.0889 56.293 82.2816C56.4058 80.7527 56.1011 79.9937 55.0604 79.045C55.7465 78.8431 56.2251 78.7024 56.7038 78.5617C57.6435 78.8084 58.5831 79.0551 59.5151 79.305C59.0525 80.2646 58.7044 80.987 58.3019 81.8134C58.7532 81.7561 59.0744 81.7093 59.6342 81.6328C58.8275 83.0708 58.5212 84.3769 60.0232 84.8063C59.6855 86.4398 59.3908 87.8575 59.1221 89.2732C59.1123 89.3133 59.4222 89.3879 59.5608 89.4816C60.9908 90.4173 62.3329 90.6186 63.2225 89.0377C63.6482 89.5746 63.9702 89.9942 64.3031 90.4181C64.7614 89.8284 65.2164 89.231 65.445 88.9453C66.4607 88.7378 67.2726 88.5362 68.1015 88.4171C68.9489 88.2992 69.8026 88.2593 71.2128 88.1354C71.5756 87.9542 72.4731 87.3841 73.4415 87.0442C75.1514 86.4428 76.9398 86.0683 78.6368 85.4365C80.5574 84.7186 82.3931 83.7586 84.3149 83.0223C87.4071 81.8511 90.5337 80.782 93.6485 79.6641C93.6808 79.7401 93.8097 80.1699 94.0365 80.8723C95.9139 77.8571 93.8681 75.6843 93.2426 73.2846C92.5292 70.5722 92.1207 67.7751 91.489 64.5163C89.4128 65.4171 87.3983 66.3364 85.3418 67.157C84.6284 67.4424 83.7358 67.8129 83.0705 67.6201C80.7655 66.9487 79.2575 69.017 77.1553 69.1389C75.7028 69.227 74.3259 70.1894 72.8649 70.5951C69.7161 71.4852 66.5522 72.3189 63.3647 73.0549C62.6213 73.2274 61.7611 72.893 60.9534 72.7877C60.8868 72.5467 60.8311 72.3101 60.7646 72.0692C60.2442 72.7661 59.2823 73.4803 59.2879 74.169C59.3045 75.939 58.2683 76.4784 56.932 76.9029C56.4452 74.9558 55.3634 74.3747 53.3359 74.9046C51.9629 75.264 50.4246 75.0026 48.5396 75.0232C47.6977 76.2518 42.5106 76.5276 39.2454 74.8643C39.3338 75.4101 39.4052 75.8734 39.4904 76.4116C38.6362 76.6402 37.82 76.8526 37.0146 77.0694C35.529 76.615 34.027 76.1856 32.5632 75.6771C32.1103 75.5196 31.596 75.2177 31.3575 74.8255C31.1923 74.5636 31.3212 73.8536 31.5658 73.6689C31.8538 73.4387 32.4209 73.4848 32.8426 73.5478C33.0258 73.5776 33.2726 74.1369 33.3074 74.1131C33.6713 73.9135 33.9985 73.6487 34.092 73.5731C34.609 74.0713 35.0102 74.4661 35.5791 75.023C35.709 73.2176 35.7487 71.8544 35.9206 70.5068C36.1924 68.3808 36.6995 66.2803 36.8195 64.156C36.8985 62.6953 37.6793 61.1965 36.8095 59.6995C36.7458 59.592 37.564 59.0466 37.8678 58.6212C38.0867 58.3128 38.3563 57.7225 38.2169 57.5214C37.948 57.1421 37.4084 56.9497 37.1594 56.7863C36.2979 57.6732 35.196 58.4379 34.6355 59.484C34.0173 60.6264 32.5153 61.3369 32.9548 63.1515C33.1284 63.8765 32.1841 64.9063 31.6762 65.7595C31.4823 66.0843 30.8428 66.3113 30.8529 66.5673C30.9149 69.1617 30.275 71.4353 28.0887 73.2804C28.5953 73.2265 28.9642 73.1864 29.4556 73.139C29.1481 73.7455 28.895 74.248 28.6256 74.7754C29.404 74.8752 30.1239 74.964 31.2916 75.1138C29.3925 76.2623 28.0247 77.0773 26.4906 78.0078C28.7344 80.3297 26.65 82.2033 26.1494 84.319C26.4487 84.3263 26.8662 84.3373 26.6927 84.3303C26.4487 85.4662 26.2426 86.227 26.1319 87.001C26.0976 87.258 26.4716 87.6733 26.378 87.8119C25.2182 89.4539 27.7155 91.5065 25.7914 93.0606C25.7446 93.0984 26.0047 93.5623 26.1602 93.8013C26.5923 94.4164 27.0591 95.0077 27.6025 95.737C27.899 95.611 28.3013 95.2694 28.5396 95.3655C30.8818 96.2724 32.929 95.3033 34.9792 94.4046C35.7317 94.0846 36.7142 94.1157 36.0171 92.5183C35.5797 91.5105 34.57 89.5793 36.4853 88.4688L36.495 88.4916ZM103.367 91.4181L103.926 92.7331C104.211 93.5723 103.707 94.496 102.779 94.361C100.498 94.0205 101.152 95.1785 101.467 96.4266C101.761 97.6031 102.344 99.608 101.899 99.9137C99.1458 101.776 102.153 101.798 102.683 102.686C102.139 102.8 101.614 102.916 100.984 103.058C101.852 105.059 103.195 107.055 100.173 108.708C101.034 108.835 101.504 108.905 101.955 108.973C101.952 109.199 101.98 109.348 101.939 109.464C101.331 111.222 101.443 112.772 102.219 112.846C103.617 112.988 105.041 112.938 106.418 113.179C107.534 113.377 108.595 113.887 109.888 114.333C111.032 113.308 113.004 113.681 114.023 115.465C114.694 116.643 114.715 116.544 115.791 115.656C116.231 115.298 117.177 115.452 117.862 115.565C118.045 115.595 118.119 116.317 118.468 117.497C118.909 116.403 119.104 115.827 119.367 115.284C119.642 114.727 119.971 114.193 120.292 113.661C120.428 113.433 120.74 113.237 120.754 113.016C120.847 111.145 120.419 109.083 121.082 107.455C121.857 105.519 121.646 103.841 121.307 102.01C121.298 101.969 121.443 101.908 121.446 101.852C121.609 99.1534 121.772 96.4544 121.927 93.7586C121.694 93.2113 121.462 92.664 121.229 92.1167C121.679 91.1267 122.128 90.1367 122.509 89.3016C122.041 88.1994 121.3 87.1323 121.163 85.9877C120.931 84.0489 121.098 82.057 121.035 80.0916C121.027 79.7988 120.595 79.5427 120.444 79.2299C120.208 78.7379 119.747 77.8657 119.884 77.7446C121.167 76.6247 119.459 75.8161 119.655 74.7993C119.779 74.1631 119.376 73.4461 119.296 72.7528C119.213 72.0075 119.23 71.2462 119.207 70.4305C118.274 71.276 117.743 71.9502 117.061 72.33C116.18 72.8123 115.153 73.3928 114.228 73.3283C112.673 73.2176 112.65 75.0222 111.961 75.0908C109.264 75.3759 107.338 77.9809 104.44 77.4542C104.315 77.4354 104.108 77.4967 104.031 77.5919C102.523 79.6602 99.5492 80.1798 98.5751 82.8917C98.1235 84.1518 98.0946 84.0204 99.2444 85.1202C100.076 85.9154 100.432 87.2179 101.003 88.2857C99.5229 88.224 100.264 89.1024 100.366 89.7415C100.496 90.5748 100.547 91.4144 100.608 91.9992C101.391 91.8365 102.37 91.6268 103.356 91.4138L103.367 91.4181ZM88.7725 51.9211C91.1226 52.34 91.5009 53.1664 90.5968 54.9241C91.1714 55.3888 91.707 55.8253 92.0348 56.0897C91.4791 56.9992 91.0552 57.691 90.4832 58.6253C91.2925 58.5235 91.6766 58.4769 92.1127 58.4261C91.7281 59.8013 92.638 60.9492 93.821 60.6706C95.9352 60.1756 98.0784 59.749 100.12 59.0423C101.433 58.5829 102.568 57.6426 103.818 56.9943C104.09 56.852 104.542 57.0723 104.418 57.0535C106.645 56.1066 108.65 55.3347 110.577 54.3988C111.535 53.9287 112.543 53.3025 113.131 52.4691C113.463 52.0048 112.99 50.9763 112.825 49.8707C112.763 49.915 113.059 49.6815 113.074 49.6751C112.515 48.3601 112.118 47.1735 111.523 46.0894C110.301 43.8713 109.146 41.598 107.995 39.3767C106.702 36.884 106.1 34.2229 103.809 33.6893C101.717 34.911 100.138 35.7795 98.6279 36.7448C97.0176 37.7706 95.4625 38.5036 93.4068 38.6507C91.8903 38.7569 90.4652 40.2604 88.9931 41.1466C88.9284 40.9946 88.8638 40.8426 88.8024 40.6981C87.8378 41.9969 86.8775 43.2847 86.1186 44.3075C86.9622 45.1515 87.5862 45.7748 88.207 46.3904C87.9715 46.4277 87.7469 46.4693 87.5114 46.5066C87.4323 47.6083 87.1547 48.7496 87.3643 49.7913C87.4423 50.2069 88.5957 50.4076 89.2618 50.7078C89.5066 50.8191 89.759 50.9272 90.0038 51.0385C89.6745 51.2773 89.3376 51.5193 88.7605 51.9352L88.7725 51.9211ZM75.1842 115.545C75.2294 115.651 75.2747 115.758 75.3199 115.864C72.7318 116.363 70.1513 116.859 67.56 117.351C69.7842 118.191 68.4382 119.733 68.9031 120.594C69.7716 121.813 70.6434 123.04 71.5961 124.394C70.845 124.211 70.1882 124.06 69.7764 123.957C70.5194 125.05 71.1116 126.548 72.2134 127.345C73.2546 128.105 74.8325 128.143 76.1764 128.496C76.1538 128.443 76.1159 128.396 76.0933 128.343C80.8904 128.691 85.6875 129.039 90.5432 129.398C90.6145 129.861 90.6891 130.332 90.6955 130.347C92.3533 130.531 93.7758 130.689 95.1951 130.839C95.1535 130.974 95.1075 131.119 95.0659 131.253C95.8582 131.069 96.646 130.895 97.1268 130.781C97.3112 128.512 97.4834 126.321 97.6566 124.174C98.1532 124.223 98.499 124.256 99.1756 124.327C98.554 123.245 98.1094 122.474 97.628 121.637C98.1598 121.537 98.5081 121.469 98.3279 121.51C98.4669 119.557 98.5805 117.777 98.7432 115.5C91.0449 115.506 83.1135 115.512 75.1853 115.527L75.1842 115.545ZM96.994 71.4472C96.2245 72.4027 95.6835 73.0725 95.4223 73.4079C96.4433 74.015 97.2077 74.4618 98.2893 75.1059C97.21 75.5648 96.7843 75.7458 96.8223 75.7297C97.5233 76.3651 98.301 77.0755 99.0615 77.7664C100.706 76.6724 102.464 74.9823 105.125 75.35C105.411 75.3898 105.764 75.2488 106.021 75.0944C107.72 74.0667 109.372 72.9696 111.095 71.9767C112.281 71.2838 113.632 70.0903 114.747 70.2443C116.409 70.48 116.605 69.5262 117.367 68.6997C118.311 67.6699 117.873 66.7251 117.663 65.7018C117.298 63.9361 116.925 62.1738 116.535 60.4102C116.283 59.2696 115.713 58.139 115.767 57.0209C115.855 55.1167 114.453 55.4077 113.421 55.1553C113.341 55.1355 113.174 56.2207 112.823 56.4507C111.558 57.2757 110.254 58.0724 108.855 58.6226C108.103 58.9241 107.144 58.6947 106.021 58.7143C105.928 58.8528 105.658 59.7392 105.11 59.9904C103.035 60.9356 100.884 61.7244 98.7278 62.4796C96.2884 63.3283 93.595 63.8542 93.797 67.538C94.1241 67.3361 94.3935 67.1677 94.5662 67.0673C95.3213 68.1464 96.086 69.2484 96.895 70.4123C96.1441 70.5251 95.5355 70.6134 94.9268 70.7016C94.9416 70.821 94.9564 70.9403 94.9713 71.0597C95.5859 71.1753 96.1929 71.2942 96.994 71.4472ZM49.6386 130.275C49.371 130.532 49.0524 130.838 49.0448 130.842C49.7268 132.024 50.2416 132.918 50.6895 133.697L60.0085 129.734C60.2887 129.992 60.638 130.328 60.995 130.661C62.6494 128.62 64.575 130.701 66.4676 130.318C66.3426 129.644 66.223 129.004 66.0906 128.27C67.0406 128.288 68.0199 128.311 69.6532 128.353C68.7662 127.132 67.6623 126.309 67.7348 125.614C68.0364 122.946 66.2542 121.119 65.4036 118.95C64.6618 117.057 62.7482 116.821 60.9736 118.051C60.2661 118.54 59.5283 119.042 58.7227 119.322C58.371 119.445 57.7038 118.741 57.3878 118.884C55.5504 119.693 53.8229 120.759 51.9629 121.514C50.6686 122.037 49.2224 122.204 47.8538 122.552C47.2633 122.705 46.6847 122.906 46.0996 123.092C46.3954 123.576 46.6912 124.061 47.0075 124.572C46.8596 124.689 46.5868 124.913 46.2008 125.23C49.9045 126.024 47.6245 128.008 46.7917 130.229C47.758 129.504 48.1927 129.176 48.6351 128.844C48.9073 129.231 49.2713 129.749 49.6386 130.275ZM35.9928 97.2317C35.4345 97.5229 34.4827 98.1341 34.4178 98.045C33.5123 96.8862 32.6181 97.8229 31.7122 97.9299C30.471 98.0716 29.2055 98.0084 27.9752 98.1545C27.5391 98.2053 27.1442 98.6066 26.6293 98.9153C27.3293 99.5062 27.8529 99.9567 28.4859 100.495L27.2621 101.016C27.8298 101.591 28.3694 102.142 28.4462 102.218C27.8029 103.407 27.4006 104.17 26.8619 105.162C28.875 104.746 29.9066 105.061 28.9825 106.603C29.6056 107.541 30.4712 108.268 30.3665 108.824C30.1903 109.76 30.4475 110.091 30.9921 110.802C31.5918 111.579 33.6883 112.689 31.3993 114.039C33.9458 114.814 37.372 120.107 36.8399 122.613C37.3431 122.255 37.7299 121.983 37.7104 122C39.1398 122.766 40.3115 123.39 41.9878 124.292C42.1189 122.469 42.455 120.979 42.2453 119.579C42.091 118.54 40.6428 117.54 40.757 116.648C41.1786 113.354 37.1178 111.15 38.7491 107.683C38.7742 107.636 38.7061 107.54 38.6847 107.468C38.0936 105.17 36.733 103.11 37.259 100.463C37.4669 99.4322 36.3774 98.1363 35.9895 97.2241L35.9928 97.2317ZM99.6037 129.746C99.7316 130.131 99.7923 130.527 99.9953 130.836C100.205 131.159 100.69 131.689 100.793 131.636C102.505 130.765 104.568 130.148 105.776 128.79C108.091 126.191 111.755 125.288 113.54 122.034C114.207 120.817 115.827 120.11 117.115 119.087C116.837 118.792 116.608 118.315 116.279 118.239C114.13 117.744 111.971 117.289 109.795 116.922C108.432 116.693 107.043 116.656 105.666 116.541C104.827 116.467 103.991 116.401 103.155 116.334L102.96 115.538C102.257 116.375 101.561 117.209 100.89 118.015C101.406 118.28 101.704 118.432 102.092 118.626C100.126 119.534 100.142 121.134 101.764 122.858C101.005 125.272 100.304 127.509 99.6069 129.753L99.6037 129.746ZM120.529 66.0267C122.146 66.9369 122.911 65.5704 123.902 64.6914C124.853 63.8471 125.873 62.9737 127.429 63.784C127.681 63.0038 127.96 62.1402 128.225 61.3276C129.08 61.6283 129.851 61.9016 130.999 62.3019L125.26 48.8022C123.953 49.8244 122.545 51.0514 121.019 52.086C119.722 52.9608 118.289 53.6237 116.949 54.3552C118.11 55.5038 118.874 56.2652 119.844 57.217L117.784 58.0928C118.492 58.2586 119.104 58.4111 120.202 58.6713C118.99 59.0702 118.359 59.2756 117.721 59.4841C117.755 59.6491 117.792 59.8216 117.834 59.9834C118.486 59.9755 119.145 59.9643 119.949 59.9547C118.177 62.2251 122.792 63.5386 120.548 66.0278L120.529 66.0267ZM123.626 47.2618C122.868 45.816 122.128 44.3714 121.335 42.9495C121.175 42.6584 120.814 42.4621 120.527 42.252C119.617 41.5889 118.421 41.1191 117.846 40.2324C116.639 38.3852 115.05 36.2517 113.601 35.3777C111.821 34.2946 110.272 30.9052 106.906 32.9736C107.208 33.366 107.424 33.9382 107.824 34.1183C108.511 34.4456 109.304 34.539 110.058 34.7299C110.031 34.8762 109.996 35.0258 109.968 35.1721C109.359 35.3862 108.758 35.5971 107.593 36.0026C111.14 36.2177 111.996 37.8731 110.321 40.4972C111.025 40.1262 111.549 39.8403 112.261 39.4659C111.903 40.2914 111.643 40.9045 111.353 41.575C113.911 41.6365 114.358 42.4154 113.524 44.7178C114.25 45.3695 114.945 45.9897 115.58 46.5544C115.121 46.911 114.756 47.1919 114.391 47.4729C115.523 48.6789 116.658 49.8925 117.613 50.9136C118.532 50.1636 119.258 49.3164 119.469 49.4331C121.478 50.5266 121.831 48.8238 122.648 47.7676C122.937 47.3932 123.57 47.2768 123.623 47.2541L123.626 47.2618ZM74.0175 135.536C74.6097 135.894 75.067 136.041 75.3513 136.351C77.2867 138.454 80.9624 139.162 83.6723 138.189C86.3485 137.221 89.1279 136.56 91.8386 135.695C92.6538 135.438 93.3917 134.936 94.1704 134.551C94.1365 134.26 94.107 133.959 94.0731 133.668C90.6147 133.218 87.1587 132.668 83.689 132.339C80.3885 132.028 77.058 131.963 73.7451 131.792C75.1952 133.303 75.4275 134.756 74.0131 135.546L74.0175 135.536ZM73.7543 134.283C72.49 133.78 71.5706 133.686 71.0948 133.179C69.4967 131.489 67.7962 131.458 65.7798 132.289C65.0164 132.604 64.0561 132.393 63.1935 132.518C60.4821 132.917 57.7748 133.368 54.5088 133.877C55.6001 134.544 56.207 135.084 56.9146 135.313C59.9149 136.29 62.9339 137.205 65.966 138.088C67.1439 138.431 68.4836 139.091 69.5159 138.796C71.3427 138.279 72.5463 138.387 73.3969 140.556C74.3084 137.718 72.3251 136.453 70.9816 134.834C71.7011 134.689 72.387 134.55 73.751 134.276L73.7543 134.283ZM44.1281 124.154L40.5023 125.696C42.175 126.358 43.6743 126.95 45.6471 127.727L44.1281 124.154Z" fill="black"/>
<path d="M56.5279 53.0304C56.7566 53.1037 56.982 53.1694 57.2182 53.2395C57.9217 53.3532 58.6209 53.4778 59.3245 53.5915C58.0524 53.9349 56.999 54.0328 57.2724 55.9001C57.4819 57.3638 57.0675 58.9222 56.9307 60.4792C57.3042 60.7243 57.7459 61.0032 57.8736 61.0925C57.44 61.7616 56.8888 62.2383 56.8461 62.7501C56.7448 64.0317 56.8724 65.3238 56.911 66.6178C56.366 67.1726 55.8286 67.7242 55.2869 68.2866C55.0425 68.0495 54.536 67.6815 54.5785 67.5916C55.6669 65.4863 55.0112 63.4585 54.4726 61.3897C54.3589 60.9534 54.7836 60.369 54.9509 59.876C55.1231 59.9643 55.4523 60.1475 56.3446 60.6207C54.7468 57.6651 55.7664 55.3557 56.5279 53.0304Z" fill="black"/>
<path d="M58.3449 47.3393C57.1973 46.6246 56.5704 45.5089 57.2876 44.2616C57.8196 43.3173 57.2559 40.5772 59.5552 42.0588C59.1456 43.8395 58.7413 45.6539 58.3525 47.3361L58.3449 47.3393Z" fill="black"/>
<path d="M41.5758 54.2357C41.1103 53.563 40.6448 52.8904 40.176 52.2101C41.5349 52.6196 42.9014 53.0259 44.0673 53.3828L42.6155 54.0001C42.542 54.2916 42.4685 54.5832 42.3982 54.8823C43.1861 54.7088 43.974 54.5354 44.7663 54.3511C44.5164 54.8612 44.2742 55.3681 44.0288 55.8674C43.2147 55.325 42.3975 54.7749 41.5834 54.2325L41.5758 54.2357Z" fill="black"/>
<path d="M77.1936 143.402C77.9524 143.16 78.722 142.923 79.5145 142.676C79.6404 143.035 79.7856 143.44 79.8297 143.565C78.9255 144.604 78.1736 145.454 77.4326 146.307C77.2518 146.178 77.0743 146.056 76.8936 145.926C77.0012 145.082 77.1056 144.229 77.21 143.377L77.1936 143.402Z" fill="black"/>
<path d="M36.4871 88.4944C36.059 87.9943 35.6266 87.505 35.1985 87.0049C35.663 86.9151 36.123 86.8362 36.5647 86.7561C34.6085 84.7517 35.7618 82.3136 35.6784 80.0065C35.628 78.6637 35.3397 77.4579 37.0329 77.0072C37.7401 78.1426 38.458 79.2824 39.1716 80.433C39.0973 81.398 36.3802 79.6094 37.6395 81.8114C37.9169 82.2948 39.1067 82.2646 39.7545 82.9226C39.1374 82.9068 38.5204 82.8909 37.2005 82.8687C38.2083 83.9301 38.8127 84.5706 39.521 85.3286C38.9203 85.6468 38.3044 85.9715 37.6961 86.293C37.7283 86.4319 37.756 86.5816 37.7882 86.7206C38.2046 86.75 38.6242 86.7869 39.7475 86.8748C38.9509 87.8508 38.3544 88.58 37.758 89.3093C37.3304 89.0424 36.9103 88.7722 36.4827 88.5053L36.4871 88.4944Z" fill="black"/>
<path d="M115.554 92.5732C116.371 90.5029 118.138 91.726 119.465 91.5118C120.011 91.4233 120.644 91.8991 121.23 92.1166C121.463 92.6638 121.696 93.2111 121.928 93.7584C120.762 94.6672 117.091 94.5406 115.908 93.5536C115.788 93.2279 115.667 92.9021 115.547 92.5764L115.554 92.5732Z" fill="black"/>
<path d="M103.366 91.4182C103.397 91.2795 103.427 91.0334 103.453 91.0313C105.122 91.0307 106.809 90.9867 108.473 91.1227C108.834 91.1486 109.145 91.8155 109.543 92.2656C109.638 92.216 110.007 92.0055 110.386 91.7995C110.718 92.4121 111.058 93.0215 111.574 93.9601C110.672 93.823 109.857 93.7025 109.037 93.5667C107.333 93.295 105.633 93.0125 103.925 92.7332C103.738 92.2924 103.554 91.8591 103.366 91.4182Z" fill="black"/>
<path d="M87.9506 94.5072C87.8948 93.9116 87.8466 93.3128 87.7636 92.3788C89.2209 92.5131 90.6196 92.6364 92.2352 92.7842C92.2145 92.8199 92.4237 92.4886 92.379 92.5525C93.1968 92.9138 93.7915 93.1726 94.3862 93.4313L94.4898 93.6116C94.0385 94.0279 93.5884 94.7847 93.1177 94.7964C91.4018 94.8349 89.6714 94.6282 87.9538 94.5148L87.9506 94.5072Z" fill="black"/>
<path d="M65.5043 99.089C67.3585 98.4891 69.2159 97.8968 71.0624 97.3002C70.8206 98.0403 70.7313 99.3079 70.3091 99.4335C68.8914 99.8568 67.3545 99.873 65.8595 100.051L65.5043 99.089Z" fill="black"/>
<path d="M81.5389 94.2459C82.6276 93.9356 83.7216 93.6589 84.8017 93.3073C85.5345 93.0675 86.234 92.7073 86.7965 92.4681C87.1668 93.0646 87.6105 93.7915 88.0509 94.5107C86.0549 95.7902 83.9867 95.781 81.8603 94.8542C81.7546 94.6478 81.6413 94.4447 81.5356 94.2383L81.5389 94.2459Z" fill="black"/>
<path d="M81.5399 94.2454C81.6456 94.4518 81.7589 94.655 81.8646 94.8613C81.8737 95.0728 81.9703 95.4267 81.8824 95.4731C80.7025 96.1812 79.5194 96.8817 78.2975 97.4909C78.0912 97.5966 77.6681 97.256 77.3431 97.1249C77.2752 96.9653 77.2073 96.8056 77.1395 96.646C77.6011 94.5021 79.3055 93.571 81.5323 94.2487L81.5399 94.2454Z" fill="black"/>
<path d="M77.1463 96.6426C77.2142 96.8022 77.282 96.9619 77.3499 97.1215C76.0265 97.2175 74.7042 97.295 73.3872 97.4062C72.7395 97.4662 71.8994 98.8466 71.5323 97.1179C71.9456 96.7177 72.3049 96.2329 72.7819 95.9403C73.6239 95.4298 74.5728 94.3262 75.2418 96.2586C75.3483 96.5724 76.4916 96.5171 77.1539 96.6394L77.1463 96.6426Z" fill="black"/>
<path d="M115.554 92.5741C115.674 92.8998 115.795 93.2255 115.916 93.5512C114.449 93.9863 113.911 93.6496 113.031 92.9107C112.335 92.3274 111.246 92.2158 110.329 91.8965C111.153 91.8067 111.716 89.7541 112.845 91.5447C112.862 91.5827 113.556 91.1888 113.403 91.2719C114.287 91.8113 114.926 92.1949 115.56 92.5893L115.554 92.5741Z" fill="black"/>
<path d="M42.6886 108.906C41.834 106.981 43.6794 107.183 44.5202 106.691C44.9884 106.42 45.6445 106.464 46.4713 106.319C46.5256 106.7 46.606 107.375 46.708 108.121C46.9133 108.034 47.2781 107.879 47.6506 107.721C46.5651 108.039 45.1299 108.927 44.4694 108.535C43.4343 107.916 43.2667 108.894 42.6886 108.906Z" fill="black"/>
</mask>
<g mask="url(#mask0_370_1831)">
<rect x="-76" y="-4.99988" width="346" height="170" fill="#ABE3AA"/>
</g>
</svg>
