<svg width="290" height="391" viewBox="0 0 290 391" fill="none" xmlns="http://www.w3.org/2000/svg">
<path d="M92.1624 301.558C91.2613 300.808 90.4503 299.862 89.4295 299.347C88.4204 298.83 87.2066 298.622 86.0528 298.49C84.4992 298.305 82.9162 298.318 81.1618 298.237C81.0915 298.019 80.9139 297.462 80.761 296.986C78.7043 296.591 76.6847 296.202 74.5166 295.788C74.5021 295.965 74.531 295.611 74.5122 295.837C70.9418 294.474 67.6356 293.22 64.2447 291.925C63.7729 292.915 63.2431 294.342 62.0104 291.973C61.6577 291.299 60.4508 290.597 59.709 290.671C57.6621 290.877 56.346 289.323 54.566 288.963C53.4581 288.739 52.4096 288.047 51.3195 288.013C49.8065 287.973 48.669 287.675 48.1368 286.046C47.7996 286.395 47.5256 286.685 47.4624 286.743C43.9824 285.341 40.6516 284.007 37.0361 282.548C36.9896 282.597 36.5873 282.992 36.0505 283.528C31.5641 279.548 25.6952 278.092 20.2239 275.52C19.4181 276.339 18.5969 276.022 17.5504 274.727C16.8687 273.876 15.592 273.497 14.5606 272.954C14.1994 272.763 13.5784 272.8 13.4165 272.536C12.129 270.357 12.4898 273.007 11.966 273.011C12.0628 272.821 12.1596 272.631 12.2614 272.434C9.77864 271.165 7.2729 269.943 4.81804 268.622C2.94845 267.613 1.13965 266.492 -0.870273 265.318C-0.736329 265.134 -0.959572 265.44 -0.974451 265.461C-2.05157 264.894 -3.03583 264.343 -4.05979 263.847C-4.37345 263.691 -4.83044 263.775 -5.11252 263.59C-7.94187 261.725 -10.6397 259.622 -13.6235 258.04C-14.6227 257.51 -16.0565 257.59 -17.1389 256.759C-19.1489 255.199 -21.2334 253.742 -23.3834 252.174C-23.7484 252.46 -24.2033 252.827 -24.6965 253.218C-25.7145 250.412 -28.9645 248.323 -30.2299 249.287C-30.5789 248.636 -30.7889 247.795 -31.3257 247.331C-32.6448 246.182 -33.6433 244.693 -35.5407 244.122C-36.6534 243.79 -37.4411 242.455 -38.4585 241.692C-39.7277 240.746 -41.1141 239.975 -42.3882 239.035C-43.3339 238.346 -44.1705 237.506 -45.0449 236.733C-48.0194 234.095 -50.9871 231.462 -54.2207 228.594C-55.5151 229.026 -70.1863 213.388 -70.7706 211.274C-71.148 211.634 -71.4524 211.923 -71.7567 212.212C-71.8891 212.136 -72.1156 212.075 -72.1303 211.981C-72.5045 209.207 -74.8366 207.746 -76.3273 205.732C-76.9311 204.916 -78.1236 204.537 -78.7107 203.712C-79.9381 201.994 -80.925 200.118 -82.0439 198.322C-82.3485 197.84 -82.6984 197.376 -83.0829 196.96C-83.7871 196.197 -84.6765 195.559 -85.2388 194.7C-87.9829 190.532 -90.9631 186.472 -93.2407 182.05C-95.3041 178.034 -96.5076 173.582 -98.193 169.362C-100.02 164.779 -100.773 160.009 -101.593 155.159C-102.475 149.952 -101.22 145.458 -99.1229 141.068C-98.2154 139.166 -96.4182 136.673 -94.734 136.421C-92.4263 136.071 -91.0203 134.543 -89.1092 134.009C-87.8272 133.652 -86.223 134.467 -84.6237 134.789C-84.4853 134.557 -84.1919 134.083 -84.169 134.037C-81.9412 134.255 -79.9764 134.447 -77.4416 134.701C-76.7342 135.832 -75.3441 136.626 -73.4667 134.338C-73.2167 135.395 -73.0769 136.018 -72.9876 136.396C-71.2932 136.402 -69.6966 136.399 -68.1167 136.405C-67.8797 136.994 -67.7679 138.17 -67.2117 138.45C-65.3043 139.393 -64.2654 139.369 -63.5979 138.782C-63.3425 140.49 -63.1647 142.319 -61.1968 141.492C-60.6039 142.122 -60.2059 142.663 -59.6969 143.065C-58.6566 143.897 -57.55 144.651 -56.3662 145.515C-56.2596 145.426 -55.8834 145.096 -55.752 144.973C-53.7296 147.573 -51.7449 150.125 -49.7448 152.698C-49.306 152.268 -49.0401 152.003 -49.0134 151.981C-48.0892 153.572 -47.482 155.64 -46.1029 156.75C-43.9797 158.455 -45.8323 160.709 -44.8597 162.148C-43.3643 164.385 -46.5273 165.507 -45.4527 167.52C-45.1883 167.515 -44.7388 167.499 -44.7438 167.506C-45.0389 169.354 -45.3185 171.109 -45.651 173.18C-45.6102 173.21 -45.2516 173.576 -44.888 173.935C-45.1134 173.958 -45.3319 173.986 -45.5623 174.016C-45.508 176.171 -45.6085 178.339 -45.3407 180.472C-45.131 182.157 -44.4539 183.787 -43.8986 185.755C-46.319 188.617 -42.6217 191.907 -43.1153 195.528C-42.8233 195.699 -42.2139 196.05 -41.8372 196.262C-41.5296 198.341 -41.2638 200.192 -40.9913 202.048C-40.647 201.976 -40.3027 201.904 -40.5244 201.95C-39.7235 204.139 -39.1516 206.213 -38.2334 208.113C-36.1908 212.343 -34.2968 216.663 -30.6217 219.926C-29.7269 220.714 -28.7687 220.829 -28.3454 220.492C-27.4989 219.817 -26.6947 218.756 -26.4594 217.719C-26.018 215.728 -25.795 213.65 -25.8426 211.614C-25.9092 208.418 -26.2872 205.235 -26.5036 202.045C-26.6749 199.45 -26.6395 196.829 -26.9638 194.258C-27.3292 191.386 -28.0023 188.551 -28.5392 185.7C-28.5884 185.424 -28.6598 185.122 -28.5994 184.853C-28.3498 183.754 -27.8035 182.547 -29.306 182.535C-30.9279 175.027 -33.9239 168.288 -37.3807 161.724C-39.0148 160.064 -41.7165 159.052 -41.2592 155.738C-41.098 154.574 -40.8879 153.414 -40.7082 152.253C-40.6445 151.851 -40.5759 151.443 -40.5309 151.038C-40.4131 149.905 -40.312 148.78 -40.1909 147.513C-40.0758 147.556 -40.3889 147.442 -40.9694 147.238C-38.9378 146.395 -38.9821 144.727 -38.6582 143.139C-38.2446 141.085 -37.4998 139.107 -37.0305 137.062C-36.9334 136.643 -37.4057 136.091 -37.4285 136.022C-36.7699 134.647 -36.1947 133.587 -35.7297 132.477C-35.028 130.8 -34.1172 129.151 -33.8005 127.402C-33.2706 124.474 -31.3512 122.299 -30.1662 119.745C-28.9632 117.152 -27.0281 114.77 -26.4075 112.075C-26.0254 110.436 -25.5198 110.086 -24.2558 109.768C-23.8731 109.672 -24.011 109.561 -24.1363 108.26C-24.1779 107.803 -23.6871 106.973 -23.2678 106.841C-20.7838 106.078 -20.5388 103.755 -19.6122 101.899C-19.5483 101.768 -19.5454 101.478 -19.5033 101.478C-17.163 101.298 -17.3325 98.7152 -15.8082 97.5965C-14.1754 96.4006 -13.1533 94.3843 -11.8382 92.738C-11.5864 92.4213 -11.2424 92.0782 -10.8751 91.9604C-8.43813 91.2051 -7.30515 89.1654 -6.06147 87.2168C-5.89152 86.9552 -5.51915 86.716 -5.21823 86.6749C-3.7173 86.4459 -3.23408 85.183 -2.49176 84.1506C-2.31812 83.9125 -2.04781 83.599 -1.7989 83.572C-0.227522 83.4465 0.395593 82.1918 1.41078 81.2855C2.79719 80.0558 4.80117 79.5371 6.88809 78.5473C7.76961 76.095 8.3434 75.6797 11.0565 75.9177C12.1627 76.0156 18.037 72.6187 18.5504 71.4715C18.785 72.0073 18.9745 72.4477 19.2665 73.1192C19.9809 72.1394 20.502 71.3105 21.151 70.6062C21.3519 70.3879 22.0683 70.3058 22.2457 70.4769C23.9295 72.0694 24.9265 70.8164 26.0596 69.6626C26.303 70.1006 26.576 70.6123 27.08 71.5218C27.4255 70.5335 27.5199 69.7895 27.926 69.304C28.1845 68.9924 28.9765 68.8924 29.4146 69.0348C30.3719 69.3368 31.2198 70.0176 32.1792 70.2169C32.5963 70.3023 33.181 69.5719 33.73 69.1906C35.2492 69.6939 36.9039 71.2548 38.3358 68.7766C39.0928 69.4535 39.7847 70.0623 40.4786 70.6829C40.4918 70.5362 40.5049 70.3895 40.5249 70.2478C41.23 70.3242 41.93 70.4074 42.6351 70.4838L42.6268 71.1239C42.7663 70.9755 42.9448 70.8451 43.0199 70.6706C43.1099 70.4757 43.1152 70.2398 43.2062 69.7435C45.3497 71.4628 47.0023 74.2415 50.2293 72.4885C50.9695 74.1746 51.3271 75.8422 53.7824 75.8193C54.5587 75.8122 55.5135 77.6756 56.0915 78.8265C56.8634 80.369 57.6497 81.3488 59.4957 80.3605C59.7132 80.2481 60.1641 80.5873 60.5162 80.719C59.3665 83.2676 59.4781 83.5574 61.1516 83.5063C61.4424 84.5937 62.1208 85.6928 61.8691 86.5097C61.5514 87.5599 60.6635 88.6632 59.7218 89.2687C58.1555 90.2734 56.2382 90.7304 54.6924 91.7499C53.7091 92.3981 53.1571 93.6839 52.353 94.6294C51.7826 95.2973 51.1547 95.9441 50.4576 96.4571C49.3769 97.2531 48.0991 97.7907 47.0969 98.6648C44.8411 100.615 42.7305 102.724 40.5191 104.727C39.8336 105.353 38.8785 105.72 38.2951 106.42C37.6404 107.203 37.2751 108.219 36.6198 109.46C35.4918 109.492 34.3434 110.01 34.3978 112.05C34.4168 112.71 33.5558 113.562 32.8953 114.039C30.1769 116.038 28.8937 118.927 27.7434 121.934C27.6539 122.171 27.3393 122.316 27.1279 122.506C26.0098 123.525 24.0745 124.135 25.3321 126.355C25.4563 126.571 24.549 127.358 24.1434 127.885C22.3737 130.169 20.942 132.533 20.227 135.471C19.5438 138.266 17.9396 140.838 16.8392 143.547C16.5343 144.294 16.6712 145.207 16.4715 146.01C16.2892 146.731 15.9312 147.408 15.3782 147.995C14.8886 149.91 14.4992 151.887 14.0646 153.884C13.554 156.242 12.3557 158.557 12.9374 161.232C13.3523 163.15 13.1026 165.25 12.8971 167.247C12.573 170.45 14.1505 172.903 15.5675 175.447C16.2296 175.211 16.7139 175.032 17.1933 174.861C17.4905 175.797 17.7403 176.583 17.9617 177.266C18.7888 175.774 19.7626 175.796 20.7968 177.436C22.0258 179.396 22.8241 178.143 23.4893 176.888C24.0526 177.445 24.4947 177.882 24.9436 178.324C25.3889 177.627 25.8275 176.926 26.2729 176.229C28.9469 177.064 31.276 175.428 33.5278 174.298C35.6556 173.223 37.4081 171.406 39.5565 169.731C39.4285 169.607 39.7612 169.922 39.7612 169.922C45.6415 163.716 52.0593 157.901 55.9277 150.124C57.3615 148.158 59.4475 146.354 59.9789 144.168C60.2982 142.858 61.2616 142.237 61.6134 141.097C62.2941 138.863 63.6227 136.841 64.6772 134.723C65.479 133.109 66.3588 131.531 66.993 129.847C67.5198 128.438 67.7587 126.924 68.0943 125.449C68.6054 123.134 69.2329 120.829 69.5466 118.484C69.8691 116.041 70.8774 113.744 70.3279 111.082C69.9082 109.056 70.6947 106.805 70.7079 104.658C70.7158 102.861 70.5596 101.017 70.1538 99.2724C69.4685 96.2821 68.5547 93.3335 67.6947 90.3825C67.3859 89.334 66.9259 88.3212 66.5625 87.3476C68.1255 86.9762 69.9198 87.2738 70.5131 85.174C70.5678 84.9846 71.4808 85.1189 71.928 84.9343C73.4436 84.2992 74.9279 83.5786 76.4281 82.9217C76.7781 82.7705 77.2862 82.8596 77.5459 82.6322C78.007 82.2285 78.3178 81.6735 78.6986 81.18C78.9737 81.4744 79.2538 81.762 79.5221 82.0514C80.2399 81.3243 80.9595 80.6089 81.7238 79.8323C81.8901 80.0473 82.2449 80.504 82.6578 81.024C83.7315 80.3375 84.7717 79.6683 85.7903 79.0146C85.9138 79.3027 86.0786 79.6625 86.2385 80.0292C87.1336 79.5877 88.022 79.1412 89.0007 78.6565C89.651 79.4225 90.416 80.5743 91.5637 78.6287C91.7449 78.3231 92.9022 78.5938 93.8927 78.6075C94.5585 77.3943 94.3799 77.6392 95.7864 78.6544C96.9226 79.4829 98.5968 79.8595 99.7727 77.6323C99.8246 78.7331 99.843 79.351 99.8773 80.1471C100.6 79.9134 101.19 79.7185 101.174 79.7272C102.269 80.4114 102.86 80.8733 103.516 81.1744C104.875 81.8113 106.28 82.3566 107.649 82.9798C107.753 83.0239 107.659 83.4243 107.774 83.5087C108.149 83.7815 108.567 83.9932 109.325 84.4411C109.185 85.3609 109.429 86.6848 111.246 86.822C111.653 87.7226 111.938 88.8893 112.62 89.7408C113.519 90.8656 114.74 91.735 115.806 92.7312C115.975 92.8856 116.137 93.1495 116.141 93.3718C116.159 94.2911 115.813 95.3518 116.148 96.1068C117.153 98.33 117.643 100.688 118.322 102.986C118.723 104.352 118.823 105.801 119.16 107.182C119.363 108.018 119.758 108.806 120.149 109.842C117.679 111.271 120.556 113.328 120.259 115.279C119.784 118.403 121.407 121.493 120.405 124.712C120.108 125.662 120.805 126.921 121.066 128.122C119.909 128.779 118.675 129.485 117.442 130.19C117.486 130.243 117.526 130.303 117.564 130.352C116.23 130.723 114.896 131.095 113.377 131.52C113.205 132.113 113.385 133.61 111.578 132.501C111.352 132.367 110.532 133.249 109.965 133.627C107.327 135.372 104.848 137.514 101.975 138.681C100.258 139.378 99.3384 139.968 99.1609 141.798C97.8131 141.388 96.5402 140.919 96.3925 143.208C96.3583 143.798 94.924 144.721 94.1025 144.748C92.4427 144.809 91.8903 145.438 91.7057 146.991C91.6437 147.519 90.7023 148.396 90.2201 148.357C87.7366 148.161 87.7807 151.445 85.6126 151.531C85.7588 153.503 83.8433 154.472 82.8742 155.173C80.8511 156.647 79.2721 158.455 77.9133 160.361C76.2388 162.715 73.9144 164.573 73.2114 167.781C72.7937 169.654 70.6875 171.214 69.1843 172.775C67.1015 174.945 65.6445 177.687 65.2158 180.375C64.935 182.161 65.2889 183.305 63.0992 183.292C61.3661 189.042 59.6522 194.723 57.924 200.465C58.4981 200.821 59.0499 201.151 59.0499 201.151C58.614 202.177 57.953 202.998 57.9824 203.801C58.0834 206.678 58.4117 209.544 58.6862 212.797C59.3966 212.023 59.8399 211.544 60.1852 211.17C60.7963 213.033 61.434 214.988 62.1433 217.131C63.3874 215.968 64.4565 216.188 65.3505 217.792C66.0103 217.387 66.6851 216.962 67.4484 216.487C67.4216 217.124 67.4019 217.537 67.3822 217.95C68.0594 217.965 68.9004 218.255 69.3713 217.952C71.7988 216.366 71.7611 216.318 74.3723 217.368C77.7635 215.932 81.1616 214.502 84.0152 213.29C86.7452 210.904 89.1503 208.906 91.4306 206.765C92.7229 205.55 93.6579 203.939 95.0206 202.828C97.5496 200.774 98.9956 197.962 100.837 195.408C102.034 193.738 103.492 192.31 103.775 190.078C103.851 189.446 105.038 189.019 105.487 188.346C106.717 186.502 107.851 184.588 108.942 182.664C109.071 182.445 108.678 181.94 108.678 181.94C109.593 180.356 110.795 179.065 111.084 177.597C111.646 174.797 112.936 172.414 114.254 169.977C114.776 169.004 115.188 167.824 115.192 166.733C115.199 164.737 116.321 163.283 117.126 161.651C117.431 161.018 117.624 160.325 117.811 159.639C118.401 157.515 119.023 155.405 119.531 153.264C120.167 150.591 120.685 147.895 121.258 145.207C121.643 143.393 122.133 141.593 122.388 139.757C122.7 137.557 122.705 135.32 123.061 133.131C123.252 131.926 123.865 130.799 124.354 129.457L125.599 130.365L125.526 129.707C127.466 129.391 129.407 129.087 131.523 128.744C131.487 128.207 131.447 127.647 131.404 127.063C132.249 127.419 133.049 127.752 133.841 128.08C135.117 125.487 135.969 125.348 138.455 127.369C138.612 126.868 138.755 126.4 138.959 125.777C139.615 126.35 140.14 126.816 140.742 127.348C141.263 126.634 141.646 125.809 142.283 125.335C142.763 124.977 144 124.753 144.19 125.006C146.087 127.536 148.303 125.64 150.369 125.594C150.921 125.579 151.766 125.549 151.978 125.86C153.095 127.529 154.184 126.364 155.299 125.979C155.76 126.718 156.863 126.549 158.607 125.473C158.519 126.065 158.456 126.509 158.329 127.396C159.453 127.142 160.559 126.969 161.595 126.62C162.785 126.216 162.582 126.381 163.389 127.417C164.008 128.213 165.393 128.399 166.502 128.479C166.894 129.014 167.245 129.947 167.698 129.997C168.557 130.092 169.476 129.688 170.432 129.478C170.653 131.047 172.068 131.651 173.787 131.894C173.978 131.918 174.327 131.954 174.326 131.984C174.318 134.553 177.275 134.114 178.246 135.812C178.662 136.543 180.055 136.704 181.358 137.289C181.4 138.446 182.128 139.706 184.139 140.078C184.517 140.145 184.664 141.159 185.034 141.637C185.571 142.331 186.219 142.928 187.006 143.492C187.631 144.021 188.346 144.47 188.837 145.098C189.205 145.565 189.29 146.262 189.52 146.847C190.244 148.698 190.806 150.629 191.735 152.37C192.557 153.887 193.791 155.182 194.909 156.664C193.19 157.578 194.333 159.298 194.576 160.809C194.794 162.166 195.3 163.473 195.721 164.926C195.934 164.905 196.39 164.852 196.876 164.8C196.85 165.093 196.887 165.328 196.825 165.356C194.914 166.204 196.406 167.645 196.246 168.779C196.153 169.421 196.476 170.136 196.352 170.764C196.131 171.853 194.521 172.732 195.941 174.028C194.459 176.532 194.815 179.616 193.896 182.02C192.97 184.419 191.074 186.591 190.476 189.354C190.395 189.722 189.295 189.774 188.982 190.203C187.395 192.38 186.361 195.441 184.254 196.645C182.062 197.892 181.291 200.237 179.154 201.294C178.242 201.745 177.588 202.727 176.819 203.468C176.395 203.878 176.045 204.457 175.545 204.686C173.544 205.572 171.98 207.016 170.268 208.321C168.169 209.927 165.596 210.927 163.164 212.061C162.518 212.361 161.656 212.171 160.91 212.294C159.053 212.597 157.206 212.958 155.344 213.268C154.991 213.323 154.61 213.317 154.262 213.251C153.914 213.185 153.58 213.014 153.247 212.885C153.181 213.275 153.116 213.665 153.039 214.099C152.636 213.909 152.168 213.693 151.524 213.39C151.558 213.915 151.593 214.295 151.617 214.677C147.062 214.722 143.727 216.751 141.38 221.156C141.909 220.959 142.086 220.859 142.28 220.822C142.501 220.776 142.725 220.783 143.023 220.76C143.16 221.516 143.299 222.254 143.417 222.85C145.247 222.642 147.038 222.458 148.827 222.22C149.948 222.068 150.826 221.593 151.703 220.733C152.32 220.13 153.716 220.387 154.735 220.119C155.662 219.878 156.528 219.447 157.222 219.181C158.61 218.464 159.657 217.872 160.734 217.366C162.408 216.585 164.116 215.872 165.804 215.101C166.237 214.907 166.63 214.411 167.041 214.419C168.067 214.427 169.095 214.76 170.109 214.728C171.981 214.676 173.844 214.451 175.992 214.277C176.447 214.525 177.385 215.126 178.407 215.496C178.587 215.564 179.12 214.661 179.551 214.141C180.283 215.009 181.074 216.326 182.399 214.551C182.598 215.165 182.758 215.646 182.988 216.345C185.781 212.744 187.24 217.674 189.685 216.893C189.889 216.542 190.204 216.011 190.872 214.893C190.875 215.99 190.88 216.441 190.88 216.712C192.643 217.196 194.45 217.69 196.484 218.245C197.243 217.247 199.368 217.42 200.111 219.045C200.671 220.277 201.551 220.471 202.89 219.665C203.093 220.272 203.297 220.879 203.544 221.611C204.536 220.98 205.297 220.493 205.927 220.087C206.495 221.095 206.755 222.067 207.393 222.521C207.774 222.799 208.733 222.269 209.522 222.073C210.095 222.803 210.658 223.975 211.58 224.626C212.942 225.588 214.57 226.17 216.064 226.937C216.293 227.052 216.43 227.35 216.662 227.488C217.376 227.925 218.111 228.659 218.834 228.655C220.412 228.648 220.53 229.13 220.11 229.762C224.353 234.19 228.496 238.514 232.744 242.935C233.071 242.6 233.548 242.104 234.025 241.607C232.628 243.423 233.114 244.914 234.747 246.334C235.067 246.067 235.403 245.791 235.655 245.589C235.937 246.774 236.231 248 236.502 249.114C237.312 249.319 238.094 249.504 238.427 249.59C238.21 250.516 238.019 251.293 237.711 252.601C238.542 251.748 238.941 251.33 239.087 251.186C239.315 253.489 239.541 255.78 239.786 258.303C240.226 258.156 240.474 258.044 240.721 258.006C240.91 257.976 241.113 258.041 241.229 258.053C240.351 259.872 240.201 261.534 241.639 263.093C241.775 263.235 241.955 263.46 241.923 263.603C241.195 266.803 240.762 270.041 239.766 273.222C238.803 276.314 235.849 277.693 234.693 280.507C234.414 281.19 232.866 281.312 231.958 281.785C227.839 283.961 223.762 286.209 219.626 288.351C218.94 288.706 218.055 288.676 217.264 288.818C216.713 288.916 216.009 288.809 215.634 289.109C213.571 290.752 211.171 290.784 208.721 290.915C207.807 290.968 206.934 291.665 206.422 291.896C205.063 291.916 203.958 291.83 202.871 291.964C200.996 292.191 199.136 292.555 197.274 292.865C194.953 293.246 192.635 293.639 190.314 294.021C190.067 294.06 189.735 294.172 189.578 294.058C187.329 292.512 184.73 294.462 182.454 293.323C181.825 294.886 180.066 294.24 179.365 294.187C176.494 293.98 173.64 294.421 170.679 293.751C168.847 293.333 166.281 292.837 164.1 293.769C163.779 293.91 163.386 294.092 163.073 294.02C161.017 293.553 158.993 292.984 156.936 292.547C156.538 292.465 156.034 292.827 155.59 292.993C155.276 293.108 154.95 293.412 154.667 293.372C152.258 293.002 149.772 292.825 147.475 292.088C145.463 291.445 143.364 291.78 141.373 290.88C139.323 289.948 136.892 288.894 134.819 289.207C130.767 289.805 127.895 286.398 124.002 286.748C122.843 286.851 121.612 285.61 120.338 285.285C118.969 284.933 117.515 284.926 116.105 284.773C115.94 284.757 115.675 284.834 115.615 284.759C113.478 281.93 109.917 282.783 107.34 281.487C105.449 280.536 103.264 279.588 101.424 278.767C99.0262 277.697 96.4497 276.599 93.899 275.667C91.2264 274.687 88.6868 273.325 86.0546 272.219C83.6799 271.217 81.1809 270.499 78.8769 269.371C76.4472 268.173 74.2404 266.512 71.8288 265.274C69.6207 264.144 67.1266 263.534 64.9961 262.282C62.2562 260.681 59.7303 258.714 57.1734 256.818C56.4794 256.312 56.0304 255.484 55.6657 255.041C54.9595 254.881 54.2512 254.937 53.8932 254.614C50.5632 251.592 47.1117 248.679 44.0762 245.382C42.3105 243.458 41.2668 240.874 39.8538 238.624C39.501 238.064 38.9611 237.619 38.597 237.218C37.7511 234.933 36.8965 232.633 36.042 230.332C35.9161 229.99 35.7209 229.629 35.7331 229.283C35.7983 227.622 35.7625 227.585 34.2349 227.836C33.9005 227.895 33.5403 227.788 32.8068 227.722C33.3025 230.887 33.5743 233.816 35.7442 236.242C36.2264 236.781 36.1062 237.861 36.2735 238.775C36.5342 238.746 37.2084 238.665 38.2307 238.535C37.5828 239.323 37.1884 239.807 36.7476 240.34C37.4341 241.414 38.1428 242.514 38.8397 243.616C39.3066 243.519 39.9079 243.395 40.5092 243.27C40.5258 243.376 40.5442 243.494 40.5608 243.6C40.0254 243.991 39.4832 244.377 39.4132 244.43C40.1279 245.723 40.7147 246.776 41.4084 248.011C41.8886 247.653 42.3788 247.281 42.9073 246.884C43.2503 247.843 43.5637 248.728 43.9401 249.784C44.1514 250.095 44.5914 250.749 45.014 251.37C45.3772 251.072 46.0087 250.563 46.8149 249.9C46.5428 251.203 46.3945 251.949 46.2394 252.691C46.5701 252.609 46.899 252.515 47.3622 252.394C47.2573 254.61 48.1541 255.296 50.2041 254.07C50.4681 253.909 50.9853 254.171 51.382 254.242C51.3086 254.542 51.1293 254.86 51.1902 255.133C51.3639 255.896 51.6316 256.643 51.8622 257.385C52.642 257.13 53.3598 256.903 54.6158 256.495C54.1598 257.278 53.9984 257.556 53.8272 257.848C54.3841 258.557 55.0096 259.357 55.7483 260.302C56.1393 259.951 56.5521 259.585 57.3392 258.877C58.2994 260.39 59.2218 261.855 60.2456 263.466C60.4014 263.153 60.546 262.883 60.3983 263.171C61.8967 263.503 63.2329 263.8 64.5877 264.1C63.7664 267.399 66.654 265.711 68.2074 266.125C68.1565 266.723 68.1143 267.339 68.0702 267.942C68.7245 267.502 69.3453 267.08 70.2883 266.444C70.1786 267.552 70.1103 268.231 70.1072 268.25C70.8668 268.752 71.345 268.996 71.7303 269.34C72.1786 269.74 72.6881 270.684 72.9179 270.612C74.6855 270.046 75.3303 271.777 76.3538 272.117C78.3452 272.788 79.7938 275.303 82.4509 274.26C82.6503 274.687 82.898 275.19 83.2517 275.948C83.6391 275.074 83.8992 274.503 84.3177 273.558C84.6851 274.826 84.9483 275.737 85.1529 276.428C86.0047 276.018 86.7778 275.643 87.0807 275.499C87.53 276.598 87.8071 277.29 88.1243 278.084C88.6951 277.573 89.0614 277.256 89.3409 277.002C89.8798 277.749 90.3619 278.403 90.8167 279.037C91.2851 278.294 91.6759 277.673 92.2168 276.816C92.4879 277.817 92.6475 278.412 92.7751 278.881C93.9327 278.922 95.1089 278.967 96.4906 279.016C96.4219 279.539 96.3557 280.001 96.3419 280.106L99.2879 282.254C100.29 281.109 100.225 281.155 101.519 282.995C101.797 283.386 102.722 283.404 103.361 283.442C105.128 283.563 106.311 284.885 107.832 285.472C108.268 285.645 108.868 285.394 109.29 285.087C110.322 285.287 111.355 285.499 112.399 285.697C112.16 287.482 112.825 287.685 117.034 286.815C116.997 287.466 116.965 288.11 116.911 289.112C117.955 288.81 118.883 288.538 120.002 288.219C120.137 288.661 120.298 289.227 120.528 289.998C120.983 289.674 121.38 289.401 122.064 288.92C121.333 291.909 123.939 289.35 124.273 290.635C126.141 290.132 127.476 291.803 129.22 291.855C129.771 291.872 130.306 292.095 130.6 291.778C131.295 292.139 131.997 292.505 132.693 292.866C133.309 291.378 133.989 293.061 134.741 292.859C135.504 292.655 136.429 293.059 137.283 293.202L137.571 292.578C137.747 293.123 137.935 293.667 138.133 294.28C138.847 293.873 139.505 293.499 140.212 293.087C141.527 295.942 143.454 294.158 145.369 293.533C145.581 294.428 145.757 295.202 145.996 296.231C146.622 295.687 147.045 295.307 147.469 294.939C147.465 295.103 147.455 295.273 147.451 295.437C148.238 295.5 149.022 295.582 149.811 295.615C150.443 295.649 151.073 295.629 152.075 295.64C152.06 295.661 152.405 295.287 152.751 294.914L152.762 295.641C153.989 295.931 155.217 296.233 156.458 296.533C156.799 295.907 157.118 295.327 157.447 294.733C157.85 295.11 158.536 295.527 158.476 295.723C158.031 297.305 159.126 296.989 159.876 296.847C161.094 296.621 162.272 296.219 163.483 295.945C163.716 295.896 164.121 296.014 164.258 296.197C165.725 298.258 167.411 298.09 169.33 296.874C169.488 296.77 170.147 297.439 170.637 297.796C171.002 297.353 171.381 296.89 171.62 296.605C174.023 298.868 176.346 297.342 178.628 297.328C178.703 297.081 178.772 296.829 178.843 296.589C178.952 297.012 179.062 297.447 179.337 298.512C180.929 297.63 182.365 296.833 183.739 296.063C183.72 296.175 183.662 296.612 183.6 297.025C184.481 297.219 185.273 297.39 186.053 297.563C186.341 296.939 186.641 296.314 186.957 295.638C187.597 296.803 187.983 297.532 189.666 296.738C190.704 296.244 192.312 295.926 193.916 296.398C195.583 296.884 197.525 296.508 199.334 296.399C199.543 296.384 199.705 295.648 199.723 295.609C200.665 295.775 201.371 295.893 202.071 296.019C202.303 293.457 204.115 294.831 205.221 294.886C206.921 294.97 208.526 294.712 210.106 294.218C210.864 293.978 211.526 293.471 212.347 293.288C213.538 292.812 214.736 292.342 216.013 291.834C216.617 292.692 219.685 291.928 221.644 290.699C222.425 290.529 223.218 290.356 223.999 290.186C223.59 288.689 224.764 289.222 225.425 289.058C225.843 288.957 226.577 288.793 226.592 288.616C226.807 285.449 228.334 287.657 229.569 287.963C229.445 285.789 230.826 285.097 232.598 285.295C234.371 285.494 234.18 283.697 235.165 283.133C235.557 282.909 235.707 282.132 236.083 282.031C238.704 281.295 239.548 278.722 241.247 277.064C241.65 276.67 241.294 275.514 241.28 274.618C241.647 274.615 242.094 274.617 242.72 274.616C240.675 272.833 245.564 271.844 243.575 270.341C243.857 269.026 244.223 268.01 244.263 266.997C244.548 260.004 243.517 253.343 239.288 247.467C237.825 245.442 236.735 243.135 235.208 241.157C233.696 239.2 231.867 237.491 230.162 235.685C229.903 235.413 229.53 235.224 229.32 234.925C228.396 233.563 227.717 231.964 226.555 230.856C225.299 229.649 223.564 228.956 222.135 227.915C220.89 227.007 219.749 225.956 218.588 224.932C217.204 223.715 215.897 222.407 213.903 222.183C213.461 222.131 213.077 221.601 212.64 221.356C210.687 220.276 208.75 219.145 206.738 218.188C206.211 217.939 205.433 218.206 205.001 217.713C203.234 216.977 201.51 216.126 199.693 215.531C198.028 214.984 196.278 214.698 194.558 214.34C193.998 214.223 193.414 214.266 192.844 214.205C192.029 214.122 191.129 214.184 190.416 213.862C188.748 213.105 187.432 211.437 185.171 212.894C184.547 213.293 183.018 212.303 181.904 211.929C181.688 211.854 181.432 211.605 181.291 211.669C178.317 213.033 175.532 210.606 172.581 211.237C172.027 211.354 171.394 211.122 170.67 211.042C172.049 209.995 173.196 209.122 174.58 208.068C174.526 207.841 174.63 208.271 174.58 208.068C175.748 207.294 176.789 206.739 177.666 205.993C178.246 205.499 178.679 204.147 179.048 204.198C180.666 204.408 181.199 202.535 181.836 202.49C183.763 202.363 183.066 200.603 183.996 199.885C186.474 197.972 188.875 196.023 190.347 192.99C191.614 190.381 193.721 188.177 195.547 185.673C195.123 185.468 194.706 185.269 194.316 185.089C194.336 184.905 194.338 184.844 194.353 184.782C196.811 185.24 196.199 182.907 196.747 181.869C197.629 180.188 198.192 178.244 198.48 176.349C199.272 171.09 199.352 165.792 198.404 160.547C197.907 157.798 197.029 155.115 196.251 152.422C196.121 151.973 195.626 151.622 195.294 151.234C194.644 150.468 194.024 149.746 193.622 148.754C192.216 145.28 190.174 142.249 187.387 139.654C185.849 138.219 184.885 136.183 183.482 134.576C182.688 133.664 181.525 133.087 180.362 132.238C180.012 132.546 179.491 132.989 178.972 133.444C178.865 133.377 178.765 133.314 178.658 133.247C178.794 132.96 178.924 132.68 179.039 132.451C176.641 128.795 172.518 127.561 168.753 126.149C167.873 126.07 166.785 126.319 166.282 125.88C163.755 123.714 160.492 124.117 157.613 123.248C155.165 122.504 152.433 122.534 149.831 122.502C146.92 122.463 143.853 122.239 141.142 123.055C138.782 123.762 136.347 123.143 134.136 124.146C133.652 124.367 133.213 124.683 133.163 124.708C129.858 125.539 126.919 126.283 123.852 127.059C123.727 126.644 123.469 126.227 123.495 125.819C123.632 122.959 124.056 120.162 123.326 117.233C122.786 115.058 123.548 112.57 123.16 110.328C122.629 107.242 121.073 104.273 120.861 101.19C120.636 97.9833 119.547 95.1466 118.273 92.4353C116.827 89.3591 114.781 86.5336 112.763 83.77C111.468 82.0021 110.01 79.9282 108.138 79.0945C105.632 77.9863 103.483 75.6169 100.264 76.1874C99.6184 76.3005 98.8179 75.2687 98.1041 75.2901C94.8278 75.3814 91.3076 74.9925 88.3613 76.0747C85.638 77.0798 82.802 76.5959 80.2338 77.7454C77.5969 78.9177 74.6845 79.639 72.2985 81.1819C69.8958 82.7334 67.0202 83.1898 64.9428 85.51C64.3006 83.7182 64.0473 82.2934 63.3114 81.1732C62.6267 80.1112 61.4545 79.3607 60.4645 78.5033C60.2616 78.3241 59.7007 78.3215 59.6922 78.1903C59.3121 74.7242 55.54 74.2663 54.0041 71.7708C53.3912 70.782 51.8657 70.3158 50.7039 69.7082C49.2215 68.94 47.7487 68.0015 46.1587 67.6237C43.2221 66.9205 40.2026 66.5737 37.215 66.0834C36.479 65.9636 35.7258 65.8104 34.9853 65.8541C34.4417 65.885 33.9034 66.1802 33.3725 66.408C32.8083 66.6531 31.9989 67.3343 31.749 67.1625C29.7294 65.7732 27.9704 66.9708 26.1199 67.5077C25.578 67.6649 24.8962 67.3136 24.3475 67.4659C22.6141 67.9423 20.906 68.5413 19.2298 69.2678C11.3571 70.7178 5.19299 75.6126 -1.12658 80.0918C-1.74926 80.5027 -2.39605 80.8752 -2.96926 81.3326C-4.07728 82.2233 -5.19892 83.1041 -6.21977 84.0897C-9.04986 86.7989 -12.0537 89.3607 -14.5703 92.3402C-16.6807 94.8343 -18.9582 97.1859 -20.987 99.7395C-22.0039 101.02 -22.4895 102.729 -23.2627 104.218C-23.3775 104.447 -23.7862 104.493 -24.0025 104.69C-25.0958 105.674 -26.1686 106.674 -27.3531 107.77L-25.7678 108.926C-28.6006 107.808 -28.4068 110.815 -29.5032 111.819C-30.6845 112.896 -31.2446 114.707 -31.904 116.269C-32.1995 116.96 -32.0768 117.821 -32.0982 118.107C-33.0259 119.38 -33.8683 120.235 -34.363 121.27C-35.6752 124.013 -36.9465 126.786 -38.0266 129.625C-38.798 131.626 -39.2173 133.759 -39.8346 135.82C-40.4339 137.842 -41.0264 139.87 -41.7272 141.86C-42.269 143.403 -42.3402 143.372 -40.6856 143.547C-44.1142 146.205 -43.0834 150.094 -43.7028 153.873C-46.6016 150.603 -49.3188 147.183 -52.4247 144.168C-54.527 142.135 -57.1513 140.617 -59.6088 138.971C-61.4478 137.735 -63.4319 136.725 -65.274 135.507C-66.4091 134.763 -67.3562 133.718 -68.5124 133.031C-68.818 132.85 -69.6125 133.511 -69.9439 133.665C-71.085 133.229 -72.3008 132.739 -73.5347 132.287C-75.9975 131.377 -78.8454 132.01 -81.1638 130.444C-81.3135 130.335 -81.6361 130.392 -81.8287 130.47C-84.0083 131.33 -86.346 130.834 -88.5553 131.234C-90.5833 131.6 -92.6203 132.293 -94.4675 133.197C-96.2026 134.047 -97.7537 135.303 -99.2751 136.517C-99.7684 136.908 -99.9056 137.725 -100.366 138.671C-102.084 139.012 -103.395 141.267 -102.913 143.921C-103.298 144.078 -103.987 144.18 -104.025 144.403C-104.342 146.068 -104.561 147.753 -104.742 149.445C-104.839 150.364 -104.876 151.316 -104.782 152.229C-104.725 152.781 -104.378 153.305 -104.054 154.104C-105.399 156.063 -105.317 157.623 -103.529 157.915C-104.049 158.37 -104.542 158.803 -104.928 159.147C-104.727 161.773 -102.792 163.893 -102.957 166.649C-102.983 167.099 -102.229 167.837 -101.685 168.035C-100.539 168.464 -99.7114 168.672 -101.069 169.933C-101.322 170.165 -100.809 171.206 -100.341 171.808C-100.586 173.244 -99.7914 177.242 -98.6035 178.286C-98.4433 178.423 -97.9297 178.162 -97.4127 178.039C-98.8624 180.942 -95.6656 182.46 -95.5182 184.902C-94.8884 184.767 -94.2654 184.627 -93.6592 184.496C-93.5598 184.746 -93.4443 184.945 -93.4759 184.974C-95.3061 186.64 -93.6124 187.719 -92.6918 188.672C-91.8992 189.5 -91.7213 189.327 -92.252 190.441C-91.5855 190.156 -91.0262 189.918 -90.4669 189.679C-91.6432 191.25 -91.2947 192.244 -89.9522 193.504C-88.8726 194.51 -88.3793 196.12 -87.4851 197.366C-87.0148 198.022 -86.2408 198.461 -85.6287 199.022C-84.9107 199.681 -83.5856 200.408 -83.6328 201.03C-83.7767 203.228 -81.4997 203.721 -80.9904 205.395C-80.8073 205.987 -80.1027 206.407 -79.6712 206.93C-78.4967 208.35 -77.3458 209.772 -76.1763 211.198C-74.6062 213.104 -73.0776 215.052 -71.4276 216.891C-70.9899 217.377 -70.1878 217.535 -69.3909 217.928C-69.5504 219.219 -68.2689 220.706 -66.5603 220.763C-65.1365 220.812 -64.4077 221.27 -65.292 222.397C-64.5895 223.534 -63.9884 224.525 -63.3186 225.607C-62.9529 225.249 -62.5426 224.829 -62.1669 224.457C-61.7356 225.094 -61.3507 225.667 -60.6184 226.763C-60.9898 228.702 -58.1829 231.155 -55.343 230.548C-54.9575 231.662 -54.8638 232.992 -54.1546 233.749C-53.3225 234.637 -51.9616 235.014 -50.496 235.791C-50.5325 236.827 -48.7578 238.924 -46.8863 239.444C-46.4197 239.576 -46.0849 240.175 -45.6651 240.585C-45.549 240.326 -45.4167 240.016 -45.2305 239.589C-43.8642 240.616 -43.6899 243.307 -40.9201 242.253C-41.6865 245.247 -39.3705 244.258 -38.6892 244.953C-38.4102 245.656 -38.2614 246.453 -37.8257 247.041C-37.4431 247.56 -36.7039 248.047 -36.7072 246.679C-36.7096 246.625 -36.0252 246.416 -35.8669 246.542C-35.5775 246.774 -35.417 247.182 -35.2689 247.551C-35.0233 248.157 -34.9629 248.889 -34.5759 249.359C-34.3602 249.62 -33.6313 249.464 -32.7412 249.53C-32.533 249.859 -31.9942 250.72 -31.4555 251.582C-30.964 251.18 -30.4843 250.779 -29.6198 250.065C-30.2714 251.831 -30.5608 252.985 -28.5025 253.121C-27.5956 253.177 -26.7272 253.759 -25.6233 254.188C-25.5069 254.7 -25.3099 255.574 -25.0501 256.732C-24.496 256.23 -24.1365 255.908 -24.1049 255.879C-22.9924 256.326 -22.0611 256.692 -20.9349 257.148C-21.4627 259.358 -19.0731 259.454 -17.8102 260.438C-17.4323 260.734 -16.3592 260.006 -15.6293 260.048C-15.0697 260.081 -14.3942 260.469 -14.0345 260.919C-13.1728 261.996 -12.4661 263.199 -11.5534 264.562L-10.2486 262.773C-10.1403 262.81 -10.0388 262.843 -9.9355 262.887C-10.0054 263.326 -10.0753 263.764 -10.1657 264.303C-9.56827 264.27 -8.98257 264.238 -8.6241 264.218C-8.40597 265.034 -8.33452 265.836 -7.94587 266.432C-7.82043 266.617 -6.82199 266.22 -6.12843 266.069C-6.02595 266.3 -5.82963 266.746 -5.70121 267.027C-5.17194 266.558 -4.67923 266.126 -3.72543 265.289C-4.06676 266.457 -4.21475 266.975 -4.37082 267.518C-1.854 266.81 -1.14669 268.555 -0.407373 270.428C-0.0341581 270.002 0.302476 269.612 0.71042 269.138C1.52912 271.403 2.76343 272.011 4.52291 270.97C4.71639 271.705 4.89071 272.395 5.02565 272.91C6.32275 272.804 7.58457 272.702 8.94049 272.586C8.92801 273.661 8.44252 275.256 10.5585 274.298C10.7443 274.214 11.3877 274.59 11.4295 274.818C12.0077 277.856 12.9515 275.532 13.7012 275.047C14.9892 276.268 16.2501 277.468 17.5875 278.735C17.913 278.389 18.3147 277.953 18.5007 277.755C19.3715 278.39 20.154 278.96 20.9296 279.526C21.7007 280.088 22.3681 279.873 22.9319 278.881C23.5755 280.027 24.1691 281.086 24.7455 282.11C25.4616 281.757 25.9769 281.508 26.4973 281.251C25.8587 283.485 30.0269 279.584 28.3913 283.07C28.9347 282.653 29.2563 282.398 29.1113 282.511C30.2814 282.979 31.0908 283.298 32.3116 283.782C33.0654 285.478 36.0568 286.492 38.0408 285.615C38.7523 286.425 39.3037 287.599 39.9172 287.629C40.8172 287.681 41.7567 286.907 43.0674 286.31C42.8324 287.118 42.7248 287.509 42.6123 287.906C42.6646 288.163 42.7237 288.425 42.771 288.689C43.2678 288.436 43.745 288.096 44.2788 287.964C44.7085 287.861 45.1924 288.026 45.8164 288.085C45.7155 288.595 45.6195 289.098 45.5379 289.539C46.1957 289.737 46.8789 289.944 47.6246 290.165C47.6706 290.073 47.8164 289.773 47.7854 289.844C49.1929 290.558 50.4309 291.19 51.7536 291.862C51.9414 291.676 52.2607 291.367 52.5947 291.037C52.8708 291.531 53.1161 291.98 53.2075 292.141C54.3753 291.94 55.3431 291.77 56.2051 291.617C56.378 292.452 56.5651 293.339 56.7005 294.01C57.7438 293.323 58.5152 292.822 58.7823 292.642C60.0506 293.775 60.9064 294.545 61.9243 295.464C62.7047 295.137 64.1759 296.45 65.3396 295.068C65.3892 295 65.9375 295.191 66.0833 295.391C66.605 296.105 67.0566 296.872 67.4211 297.43C68.3623 296.782 68.9931 296.346 69.6238 295.91C69.7493 296.095 69.8797 296.273 70.0051 296.459C69.7436 296.674 69.4753 296.885 69.0638 297.221C69.9921 297.491 70.815 297.82 71.6624 297.959C72.7883 298.144 73.9323 298.176 75.3368 298.294C75.3331 298.27 75.3015 298.799 75.2725 299.268C77.3562 299.797 79.44 300.327 81.5238 300.856C81.4792 300.917 81.4259 300.962 81.3812 301.023C81.9607 301.029 82.5451 301.028 83.1245 301.033C83.1281 301.171 83.1198 301.311 83.1234 301.449C84.114 300.848 85.1047 300.247 85.7763 299.841C87.9184 301.205 89.867 302.448 91.7135 303.618C91.8374 303.062 92.0167 302.244 92.196 301.427L92.2521 301.593L92.1624 301.558ZM23.2087 134.769C23.1333 134.673 23.0579 134.576 22.9825 134.479C23.373 134.087 23.8483 133.735 24.1318 133.275C24.7633 132.266 25.3063 131.193 25.8969 130.154C27.7005 127.009 29.3191 123.76 31.4333 120.789C32.002 119.995 32.1933 118.946 32.7076 118.113C33.2665 117.218 34.0277 116.459 34.6528 115.602C34.7619 115.453 34.5167 115.003 34.6264 114.895C35.7761 113.847 37.3403 113.06 38.0693 111.789C39.9665 108.472 43.4707 106.796 45.6908 103.809C46.8306 102.274 49.052 101.143 49.8819 99.8619C51.2961 97.6938 53.7765 97.4078 55.2556 95.3079C56.8569 93.0261 60.5919 92.4773 62.1272 89.5429C62.1929 89.4241 62.7945 89.571 63.1473 89.6302C65.2418 89.9591 64.5315 92.1194 65.2717 93.3052C66.5371 95.343 66.7299 98.0368 67.3689 100.462C67.433 100.717 67.5267 101.046 67.4181 101.238C66.6766 102.583 66.713 102.662 67.8135 102.839C67.5818 104.014 67.0875 105.207 67.2087 106.327C67.3391 107.506 68.0564 108.623 68.5286 109.79C67.7232 110.266 66.3634 110.473 67.3128 112.187C67.5821 112.675 67.0536 113.571 67.026 114.281C66.9688 115.531 67.0093 116.79 67.0057 118.653C65.888 121.829 64.5763 125.729 63.7878 130.083C63.9072 130.077 63.4144 130.124 63.1469 130.148C62.5096 131.851 62.0216 133.506 61.2861 135.044C60.0788 137.571 58.7732 140.047 57.3828 142.483C55.8311 145.197 54.2082 147.88 52.4784 150.495C50.9036 152.869 48.7942 154.947 47.5684 157.472C46.3755 159.937 44.5078 161.826 42.4695 163.049C40.8674 164.018 40.7472 164.597 41.0916 165.411C38.7384 167.009 36.4814 168.375 34.4215 169.999C32.4899 171.519 29.5164 171.581 28.1198 174.054C27.5942 174.046 26.7202 173.929 25.8695 174.038C25.0002 174.144 23.9177 174.929 23.3578 174.625C21.1844 173.446 17.524 174.279 17.2509 170.38C17.2461 170.272 16.9571 170.197 16.9269 170.081C16.3497 167.743 15.3039 165.376 15.4244 163.067C15.5024 161.602 16.0034 160.029 16.1923 158.426C16.5965 155.042 17.6196 151.724 18.53 148.417C19.3217 145.545 20.3164 142.738 21.2281 139.901C21.4705 139.14 21.7197 138.384 22.0078 137.645C22.3873 136.682 22.8057 135.737 23.2106 134.781L23.2087 134.769ZM119.736 144.108C117.75 146.088 116.391 146.994 117.73 151.076C117.84 151.396 117.757 152.096 117.641 152.126C115.468 152.677 115.91 154.657 115.426 156.107C115.012 157.347 114.634 158.594 114.321 159.866C113.784 162.017 113.909 164.661 112.654 166.226C111.065 168.205 111.399 170.605 110.002 172.65C107.875 175.737 106.568 179.474 105.374 183.084C104.707 185.099 102.541 185.926 102.398 188.594C102.28 190.728 99.761 192.768 98.2015 194.778C96.9533 196.39 95.027 197.674 94.337 199.463C93.1296 202.606 89.8249 203.593 88.181 206.334C87.4843 207.503 85.2379 208.283 84.0308 209.696C83.9081 209.835 83.7581 209.955 83.5908 210.042C82.5259 210.63 81.4437 211.186 80.3942 211.796C80.2554 211.872 80.2359 212.17 80.1626 212.357C78.8027 211.177 77.8611 212.669 76.9301 213.074C73.9947 214.341 71.0257 214.74 67.9204 214.268C65.4142 213.889 62.974 213.277 62.1969 210.355C61.5191 207.797 59.6432 205.439 61.1481 202.504C61.4944 201.829 60.9491 200.733 60.9707 199.832C61.0062 198.597 60.9547 197.267 61.3962 196.161C62.0446 194.529 63.2263 193.108 63.9235 191.48C64.2241 190.782 63.5723 189.661 63.8883 188.985C65.4177 185.744 67.1421 182.593 68.7767 179.408C69.7268 177.548 70.6312 175.664 71.6067 173.812C72.0187 173.018 72.5477 172.278 73.0719 171.431C73.2998 171.347 74.1399 171.324 74.3906 170.923C75.5766 169.068 76.499 167.031 77.7259 165.206C78.8007 163.603 80.1849 162.205 81.394 160.69C81.9985 159.932 82.54 159.118 83.3784 157.968C84.3322 157.132 85.7322 155.912 87.1056 154.715C87.0401 154.604 87.2125 154.897 87.1865 154.847C88.2112 153.77 89.296 152.654 90.3536 151.518C91.2549 150.539 92.0172 148.865 93.034 148.7C94.4036 148.479 94.6846 147.579 95.4438 146.924C97.3668 145.273 99.2974 143.554 101.465 142.269C103.404 141.109 105.667 140.508 106.594 138.12C106.71 137.819 107.211 137.361 107.291 137.409C109.556 138.675 110.809 136.285 112.55 135.783C114.812 135.14 116.296 132.418 119.177 132.727C119.354 132.741 119.566 132.437 119.759 132.286C119.788 132.661 119.87 133.034 119.845 133.412C119.82 133.717 119.557 134.035 119.599 134.306C120 136.943 119.559 139.435 118.613 141.903C118.298 142.736 117.56 144.063 119.733 144.084L119.736 144.108ZM-29.5036 214.905L-30.3543 215.015C-32.535 211.288 -35.7175 208.092 -36.1072 203.41C-36.1322 203.058 -37.0202 202.776 -37.5027 202.466C-37.2898 202.517 -37.0886 202.569 -36.8757 202.62C-37.3976 200.635 -37.6699 198.55 -38.4848 196.695C-40.5263 192.049 -41.1262 187.141 -41.6308 182.187C-41.7299 181.209 -42.8484 180.07 -42.5732 179.364C-41.5293 176.717 -42.7314 174.121 -42.3981 171.478C-41.9811 168.176 -42.3452 164.774 -42.3763 161.458C-40.1104 162.881 -38.5264 164.567 -39.0221 167.405C-38.0832 167.089 -37.4812 166.893 -36.8173 166.668C-37.0757 167.866 -37.826 169.309 -37.4063 169.834C-36.421 171.084 -36.371 173.173 -34.3459 173.598C-34.1652 173.636 -34.0124 174.226 -33.9825 174.571C-33.8892 175.744 -33.8851 176.924 -33.7968 178.104C-33.6653 179.867 -31.958 180.956 -32.0565 183.02C-32.179 185.432 -31.4336 187.883 -31.0404 190.316C-30.9852 190.669 -30.7788 190.986 -30.6647 191.33C-30.4994 191.847 -30.2382 192.36 -30.2091 192.892C-30.1505 193.998 -30.2887 195.116 -30.2133 196.213C-30.1506 197.114 -29.8911 198.001 -29.7226 198.885C-29.8469 199.284 -28.995 199.759 -29.0404 199.893C-29.4764 201.034 -29.3607 202.119 -29.2303 203.297C-29.0345 205.087 -29.0974 206.917 -29.1455 208.726C-29.2038 210.778 -29.3648 212.829 -29.4837 214.878L-29.5036 214.905ZM148.551 219.153L150.719 216.18C150.929 216.593 151.119 216.961 151.285 217.291C152.21 216.85 153.114 216.426 154.225 215.902C154.23 216.625 154.234 217.148 154.235 217.347C152.358 217.948 150.572 218.511 148.551 219.153Z" fill="black"/>
<path d="M92.1621 301.558L92.106 301.392C92.324 302.323 92.537 303.259 92.8338 304.539C93.5226 303.78 94.1233 303.113 94.7091 302.467C94.8585 302.805 95.0001 303.44 95.1753 303.443C97.2194 303.527 99.2723 303.512 101.324 303.529C101.358 303.324 101.388 303.127 101.422 302.923C101.837 303.382 102.265 303.839 102.76 304.388C102.227 304.448 101.877 304.484 101.159 304.555L103.37 306.167L104.581 304.507C104.703 304.554 104.82 304.608 104.942 304.655C104.858 304.97 104.787 305.282 104.548 306.224C105.401 305.397 105.847 304.972 106.281 304.548C105.892 304.223 105.558 303.781 105.111 303.58C102.547 302.451 99.9526 301.622 97.0464 301.806C96.062 301.87 95.0398 300.885 93.9984 300.469C93.0028 300.077 92.1997 300.221 92.1485 301.548L92.1621 301.558Z" fill="black"/>
<path d="M113.491 305.293C113.772 306.238 114.047 307.189 114.307 308.076C114.993 307.607 115.946 306.958 116.892 306.303C116.979 306.398 117.071 306.486 117.165 306.586C116.925 307.015 116.678 307.44 116.254 308.193C119.359 307.936 122.167 307.586 124.976 307.55C125.704 307.539 126.438 308.533 127.336 309.188C127.289 308.809 127.235 308.426 127.184 308.066C127.613 308.108 128.199 308.16 128.793 308.218C128.892 308.082 128.99 307.934 129.082 307.793C128.236 307.239 127.447 306.32 126.548 306.195C123.949 305.843 121.302 305.83 118.684 305.589C118.391 305.562 118.152 304.919 117.791 305.156C117.104 305.083 116.249 305.241 115.761 304.895C114.695 304.128 114.025 304.161 113.494 305.389L113.479 305.295L113.491 305.293Z" fill="black"/>
<path d="M113.499 305.383C113.508 305.014 113.518 304.657 113.524 304.505C111.549 304.169 109.623 303.838 107.574 303.49C107.248 304.451 106.907 305.463 106.374 307.065C107.541 306.436 108.13 306.115 108.735 305.785C108.905 306.41 109.076 307.003 109.236 307.599C109.542 307.166 109.757 306.614 110.166 306.339C110.668 306.007 111.317 305.917 111.947 305.71C112.041 306.497 112.025 307.09 112.214 307.603C112.266 307.745 113.233 307.721 113.239 307.683C113.361 306.887 113.416 306.083 113.483 305.277L113.497 305.371L113.499 305.383Z" fill="black"/>
<path d="M129.609 306.77C129.44 307.96 129.319 308.841 129.189 309.747C130.183 309.398 131.12 309.071 132.606 308.549C133.059 306.17 130.159 308.088 129.616 306.775L129.609 306.77Z" fill="black"/>
</svg>
