<svg width="236" height="110" viewBox="0 0 236 110" fill="none" xmlns="http://www.w3.org/2000/svg">
<path d="M33.4623 80.2691C33.9308 79.7522 34.3982 79.2279 35.091 78.4613C35.1338 78.4475 35.8458 78.4171 36.0499 78.0809C37.4645 75.7823 40.4036 74.6094 40.8457 71.5886C40.8821 71.3295 41.3417 71.1571 41.4355 70.882C41.7527 69.9471 42.5103 68.5067 42.1566 68.1335C41.2425 67.1489 39.8371 66.931 38.4539 67.6726C36.9957 68.4626 35.4386 69.0881 34.0089 69.9187C33.5278 70.1987 33.2867 70.8911 32.7204 71.7061C31.2728 72.3154 29.3616 73.12 27.3732 73.9585C27.7144 74.3484 27.938 74.599 27.7595 74.4015C20.3612 81.0094 12.6522 87.081 9.21819 96.9323C9.97447 96.5445 10.7329 96.1713 11.488 95.7762C11.7172 95.6603 11.9975 95.5368 12.1104 95.341C12.4191 94.8028 12.6461 94.217 13.0813 93.7273C13.3574 94.9404 14.6008 96.4361 15.5978 97.0726C16.2409 97.4851 16.5729 98.3691 17.1902 98.8601C17.7059 99.2691 18.4167 99.4328 19.0569 99.6741C19.6102 99.8835 20.2215 99.9798 20.7408 100.261C21.2852 100.562 21.7478 101.016 22.2624 101.417C22.7631 100.866 23.162 100.434 23.5859 99.9682C23.7623 101.517 23.7558 101.473 25.1357 101.366C25.4238 101.346 25.8754 101.675 26.0219 101.96C26.6067 103.09 26.5786 103.101 27.5619 101.926C27.8399 102.646 28.0682 103.232 28.2965 103.818C28.3918 103.655 28.4944 103.49 28.5897 103.327C28.9835 103.567 29.3483 103.864 29.7699 104.041C30.3516 104.291 30.9626 104.536 31.5801 104.624C32.3732 104.739 33.4786 103.986 33.6842 105.53C33.6972 105.618 34.573 105.787 34.6788 105.645C35.7735 104.162 38.0951 106.237 38.9363 104.15C39.2316 104.33 39.5353 104.517 40.0442 104.83C40.2504 103.598 40.575 102.46 40.578 101.318C40.5788 100.818 39.952 100.313 39.5957 99.821C39.4738 99.6524 39.1847 99.4637 39.2135 99.355C39.7597 97.5951 38.3451 97.2143 37.34 96.4223C36.3947 95.6812 35.7338 94.5921 34.8943 93.7085C34.612 93.4143 34.1614 93.2942 33.8126 93.0546C33.4291 92.7829 33.0695 92.4703 32.7058 92.1806C33.0663 91.7915 33.3636 91.2775 33.8136 91.0394C34.9895 90.4105 36.2287 89.9066 37.4435 89.3391C39.6909 88.2833 41.9245 87.1848 44.1929 86.1706C45.411 85.6251 47.1515 85.5845 47.8469 84.6833C49.112 83.0411 51.2766 83.6992 52.6678 82.0011C53.8628 80.5409 56.4793 80.2666 58.4509 79.4157C59.9317 78.7791 61.3998 78.107 62.8385 77.3871C64.9855 76.3088 67.0893 75.1399 69.2352 74.0543C71.2843 73.0203 73.3744 72.0624 75.4235 71.0284C78.9997 69.2167 82.3532 66.9079 86.3588 66.0329C87.2608 63.5487 90.1347 64.0573 91.8681 62.5027C93.3186 61.2063 95.7559 60.1225 98.1877 59.6589C100.119 59.2917 101.848 57.6557 103.571 56.4384C105.004 55.4283 106.424 54.629 108.212 54.2531C109.601 53.9584 110.813 52.8166 112.113 52.065C114.446 50.7279 116.797 49.4179 119.127 48.0589C121.737 46.5315 124.296 44.9073 126.946 43.4413C128.802 42.4135 130.8 41.6408 132.674 40.6327C133.939 39.9533 135.071 39.0249 136.304 38.2756C137.77 37.3875 139.268 36.5691 140.766 35.7434C142.223 34.9461 143.678 34.1342 145.168 33.4067C147.82 32.112 150.539 30.9642 153.151 29.5935C155.574 28.3176 157.883 26.8198 160.274 25.4741C160.674 25.2509 161.251 25.3672 161.679 25.1773C163.261 24.4733 164.852 23.7684 166.371 22.9395C167.29 22.4381 168.535 21.0153 168.865 21.2278C170.124 22.0197 170.883 21.1463 171.755 20.7861C173.704 19.9834 175.602 19.0389 177.526 18.1653C178.078 17.9121 178.651 17.7005 179.223 17.4817C179.81 17.2607 180.4 17.0616 180.987 16.8406C182.154 16.3997 183.324 15.9881 184.469 15.4982C185.472 15.0664 186.728 15.3362 187.489 14.067C187.747 13.6408 189.152 13.7543 189.998 13.8757C190.639 13.9677 190.954 13.6227 191.41 13.4806C192.867 13.0341 194.446 12.9651 195.986 12.7752C196.103 12.7579 196.241 12.9389 196.367 13.0323C197.06 10.7507 198.546 13.0837 199.677 12.4989C200.433 12.1111 201.609 12.542 202.844 12.6208C201.883 14.3973 200.848 16.1846 199.95 18.0412C199.733 18.4912 199.951 19.1606 199.977 19.8882C199.753 19.8914 199.352 19.9058 198.818 19.925C199.124 20.3799 199.384 20.7817 199.45 20.8691C198.861 21.3292 198.253 21.613 197.929 22.0938C197.182 23.2041 196.1 24.0654 195.434 25.1639C193.779 27.9085 192.595 30.9568 190.787 33.5748C189.87 34.8968 189.199 35.6601 190.981 36.957C190.009 37.302 189.314 37.5465 188.427 37.8566C188.739 38.1537 188.982 38.3865 189.225 38.6119C187.991 39.8614 188.019 40.1484 189.619 41.584C189.266 41.7255 188.941 41.8482 188.575 41.9992C189.109 42.428 189.713 42.7269 190.009 43.2131C190.206 43.5422 189.965 44.1301 189.91 44.7204C190.54 44.4856 191.134 44.2635 191.565 44.1028C192.526 44.8491 192.534 46.4675 194.406 45.9523C195.216 45.7282 196.276 46.6389 197.266 46.769C198.172 46.889 199.125 46.6214 200.056 46.5585C201.432 46.4748 202.806 46.4287 204.31 46.3558C204.306 46.3266 204.395 46.6791 204.536 47.2329C204.952 46.8133 205.217 46.3338 205.57 46.2445C207.04 45.893 208.561 45.7282 210.031 45.3694C211.335 45.0573 212.591 44.5659 213.879 44.1891C214.166 44.1095 214.529 44.0931 214.799 44.2026C215.892 44.6308 216.64 44.0352 217.566 43.585C218.89 42.9418 220.407 42.7029 221.838 42.29C223.148 41.91 224.468 41.5509 225.775 41.149C226.903 40.8033 228.048 40.47 229.14 40.0326C229.57 39.8573 229.889 39.3921 230.06 39.2326C230.858 39.279 231.528 39.3218 232.198 39.3573C232.14 39.1195 232.09 38.8806 232.127 39.0318C234.854 38.1367 237.616 37.2362 240.378 36.3283C240.44 36.4909 240.492 36.6473 240.554 36.8099C240.808 36.3096 241.071 35.8155 241.164 35.6376C243.842 34.8168 246.31 34.0941 248.742 33.2797C249.403 33.0552 249.962 32.5399 250.611 32.138C250.611 32.138 250.697 32.4164 250.782 32.6875C250.831 32.7175 250.888 32.7465 250.937 32.7765C251.281 31.1658 253.314 32.2464 253.629 31.3417C254.452 28.9811 257.011 30.1407 258.5 28.6447C259.526 27.6124 261.37 27.0044 262.492 25.555C263.257 24.5688 264.538 23.9989 265.384 23.0531C266.614 21.6774 267.654 20.1281 268.779 18.6484C268.639 18.5123 268.492 18.3773 268.353 18.2411C268.088 18.422 267.823 18.5955 267.504 18.8142C267.346 18.3973 267.189 17.9949 267.041 17.5988C263.997 20.6381 260.974 23.6669 257.63 27.0042L253.745 27.5779C254.306 28.1444 254.587 28.4312 254.684 28.5289C253.921 28.7758 253.11 28.9926 252.326 29.295C249.883 30.2378 247.474 31.2578 245.017 32.158C244.033 32.5197 242.937 32.5771 241.942 32.918C240.564 33.3901 239.234 33.9895 237.89 34.5388C237.671 34.6233 237.452 34.7079 237.231 34.7779C234.844 35.496 232.427 36.1067 230.09 36.9593C228.199 37.649 226.441 38.6847 224.584 39.4515C223.895 39.7398 223.07 39.6601 222.326 39.8297C220.391 40.2721 218.296 40.4396 216.565 41.2998C213.728 42.7113 210.604 42.68 207.659 43.5104C205.23 44.1974 202.479 43.8646 199.878 43.8382C198.106 43.8163 196.322 43.6617 194.586 43.3284C192.182 42.8698 190.882 39.6285 191.987 37.3533C193.464 34.314 194.572 31.053 196.44 28.2845C197.168 27.1993 197.676 25.4896 199.307 24.9578C199.556 24.8762 199.467 24.0162 199.75 23.7653C201.373 22.3167 202.113 20.252 203.243 18.5029C204.464 16.6135 204.677 14.0667 205.321 11.8072C203.775 11.1399 202.263 10.0496 200.675 9.91086C198.717 9.73733 196.69 10.3201 194.702 10.651C192.115 11.0777 189.526 11.5347 186.953 12.0564C185.895 12.2722 184.877 12.654 183.846 13.0003C183.319 13.175 182.831 13.4561 182.307 13.6455C181.406 13.9651 180.452 14.1732 179.585 14.5698C178.857 14.9011 178.22 15.4356 177.9 15.647C176.329 15.976 174.945 16.0535 173.742 16.552C171.113 17.6493 168.557 18.9373 165.996 20.196C163.087 21.6256 160.212 23.1323 157.313 24.5754C156.458 25.0002 155.558 25.3271 154.691 25.8209C153.698 26.2735 152.705 26.7261 151.719 27.1777C150.362 27.7959 148.567 28.0686 147.742 29.1083C146.377 30.8324 144.348 30.632 142.79 31.6083C141.219 32.5941 139.695 33.6924 138.03 34.498C136.448 35.2614 134.962 36.3168 133.148 36.5696C132.966 36.5966 132.67 36.6627 132.635 36.7798C132.085 38.4134 130.663 38.489 129.307 38.7565C129.154 38.7864 129.142 39.5122 129.091 39.7735C125.25 41.7138 121.341 43.6942 117.45 45.7017C117.408 45.7228 117.583 46.1448 117.584 46.1521C115.837 47.0072 114.146 47.839 112.448 48.6719C112.392 48.5458 112.336 48.4197 112.28 48.2936C111.615 48.6904 110.949 49.0872 110.284 49.484C107.915 50.8786 105.625 52.4557 103.146 53.6128C101.219 54.5094 99.817 56.3882 97.4902 56.5526C97.0393 56.5819 96.6235 57.203 96.197 57.5496C95.9369 57.7597 95.7044 58.0552 95.4106 58.1882C93.9122 58.8572 92.4 59.4835 90.8932 60.1464C90.7317 60.215 86.1437 62.706 85.9844 62.7893C83.704 63.9246 81.4163 65.0609 79.1475 66.2244C77.9891 66.8208 76.874 67.5079 75.7062 68.0908C73.7113 69.087 71.6604 69.957 69.7065 71.0292C68.6567 71.6021 67.7712 72.4792 66.8056 73.2189C66.611 73.367 66.2636 73.6422 66.1871 73.5789C64.5778 72.4357 63.7101 73.9894 62.5661 74.5315C59.2468 76.1113 55.9074 77.6567 52.5912 79.2584C52.0828 79.5051 51.683 79.9821 51.0246 80.5271C50.8845 80.4881 50.4004 80.3431 49.9163 80.1982C49.9692 80.3545 50.0221 80.5109 50.0751 80.6673C48.8743 81.1282 47.1676 81.2459 46.5797 82.1163C45.244 84.0899 42.9365 83.6768 41.3351 84.8611C40.5473 85.4401 39.3812 85.478 38.4339 85.8865C38.1182 86.0227 37.9618 86.5309 37.9183 86.5896C35.9442 87.3736 33.9273 87.9177 32.1904 88.9429C30.9544 89.6703 28.4927 89.78 27.3921 88.4423C27.1837 88.7492 27.0001 89.0226 26.6766 89.5108C26.5606 89.0278 26.5859 88.6435 26.3991 88.4397C24.9391 86.8416 25.3092 86.2645 27.4913 85.3229C29.0503 84.6598 30.3526 83.3704 31.707 82.2822C32.3665 81.7445 32.8789 81.0195 33.4555 80.3746L33.3892 80.2799L33.5069 80.2178L33.4623 80.2691ZM37.6338 100.282C36.5155 102.97 36.4857 103.072 33.8533 102.176C32.3054 101.651 30.9461 100.583 29.4075 100.019C26.9787 99.1388 24.4592 98.5033 22.0037 97.6941C21.6586 97.5808 21.2355 97.091 21.2235 96.7569C21.2106 96.4677 21.6753 96.026 22.0202 95.8855C23.5971 95.2421 25.1683 94.5101 26.8164 94.1473C27.8147 93.9328 28.9753 94.2615 30.0258 94.5019C30.883 94.6963 31.6827 95.1081 32.5059 95.4269C33.3013 96.4663 34.2091 97.6608 34.9971 98.7013C35.6718 98.5196 36.2329 98.377 36.7491 98.2336C36.5775 99.0426 36.4446 99.6593 36.3107 100.269C36.6992 100.271 37.096 100.28 37.6265 100.283L37.6338 100.282ZM34.6827 75.9989C33.8157 76.5972 32.5428 77.4792 31.222 78.3907C31.5451 78.7087 31.7538 78.9093 31.7014 78.8573C30.9436 79.5887 30.3248 80.3517 29.5526 80.8837C28.0632 81.9172 26.2778 82.6137 24.9877 83.8341C22.5842 86.1071 22.2873 86.2704 19.3878 84.5266C20.3278 83.9176 22.0004 83.4169 22.1896 82.5754C22.5528 80.9918 23.348 81.1207 24.0567 81.2698C25.0251 79.134 27.4202 78.6237 28.3097 77.2683C29.6803 75.1777 31.758 74.8933 33.443 73.719C35.0468 72.6015 36.7253 71.585 38.3681 70.5289L38.6408 71.0111C37.9411 71.8831 37.2403 72.7479 36.5479 73.6188C36.0134 74.2948 35.4861 74.9698 34.6816 75.9916L34.6827 75.9989ZM25.7847 91.9114C22.6785 92.8626 19.6078 93.8011 16.536 94.7323C16.4284 94.5094 16.3209 94.2864 16.2133 94.0635C18.0781 91.5789 20.4694 89.8302 23.244 89.2115C24.1371 90.1544 24.8287 90.8957 25.792 91.9103L25.7847 91.9114ZM13.3865 93.3688C13.2738 90.0269 16.1419 89.5362 17.9183 88.02C17.6401 88.8149 17.2494 89.6563 16.6075 89.96C15.8408 90.327 15.0234 90.1492 15.3411 91.5427C15.4423 91.9756 14.0791 92.7515 13.3865 93.3688Z" fill="black"/>
<path d="M33.4623 80.2695L33.3456 80.339L33.4192 80.4326L33.4623 80.2695Z" fill="white"/>
</svg>
