<svg width="187" height="216" viewBox="0 0 187 216" fill="none" xmlns="http://www.w3.org/2000/svg">
<path d="M8.30378 104.924C7.27725 104.42 6.25557 103.909 5.22906 103.405C5.4812 103.324 5.73332 103.244 5.98545 103.163C6.36045 101.415 6.73545 99.6681 7.13816 97.7911C7.42161 97.9348 7.82194 98.1367 8.07494 98.2675C8.64036 96.6541 9.2203 95.0215 9.80193 93.36C10.3886 93.5016 10.9816 93.648 11.2845 93.7261C11.3259 92.4204 10.935 90.8887 11.4789 90.3949C12.6938 89.2923 12.0286 86.3672 15.0187 86.8267C14.8011 86.2099 14.5994 85.6253 14.3373 84.8945C14.6564 84.9245 15.0108 84.9611 14.8312 84.946C15.5603 83.7679 16.5292 82.8312 16.7014 81.765C17.0307 79.7722 18.2787 79.3177 19.9037 78.8565C22.415 78.1401 25.4423 80.3868 25.2306 82.6896C28.313 85.2493 28.6003 88.9141 29.7084 92.7166C30.9705 91.9109 31.993 91.2358 33.0428 90.5914C33.5234 90.3011 34.0252 89.9162 34.5532 89.8427C37.9251 89.3843 40.4864 87.2179 43.4093 85.7972C45.1367 84.9609 46.9293 84.2645 48.7124 83.5408C50.073 82.9905 51.4892 82.5927 52.81 81.9621C55.2748 80.7883 57.6219 79.3447 60.1248 78.2802C64.0656 76.603 68.1242 75.1958 72.0888 73.5668C75.0945 72.3292 77.9507 70.6772 81.0103 69.621C84.3429 68.4695 87.8502 67.832 91.2559 66.8765C92.6062 66.4993 93.8522 65.7016 95.2103 65.4207C100.806 64.2402 106.459 63.3037 112.045 62.0445C115.731 61.2102 119.435 61.1236 123.155 60.9889C124.922 60.926 126.69 60.754 128.463 60.7762C129.162 60.7818 129.847 61.1788 130.261 61.3102C131.526 61.2713 132.618 61.1708 133.7 61.2146C136.648 61.3307 139.593 61.4644 142.534 61.6959C142.951 61.7294 143.281 62.4909 143.725 62.5952C146.265 63.1574 148.839 63.5432 151.366 64.1359C152.479 64.3932 153.5 65.0239 154.581 65.4287C155.379 65.7299 156.205 65.9412 157.025 66.1991C158.642 66.7068 160.441 66.3874 161.7 68.2734C162.372 69.2735 164.35 69.3702 165.692 69.962C168.053 71.0016 170.506 71.9196 172.705 73.2394C175.736 75.0562 178.542 77.2363 181.488 79.1907C182.46 79.8341 183.567 80.2582 184.356 81.0358C185.056 81.574 185.734 82.1265 186.456 82.6215C186.539 82.6844 186.938 82.3424 186.997 82.3972C188.774 84.0107 190.525 85.645 192.261 87.2984C192.478 87.5029 192.582 87.8321 192.775 88.0686C193.634 89.1399 196.296 88.4369 195.673 90.9917C195.666 91.027 195.77 91.1156 195.835 91.1238C199.035 91.6113 199.516 95.2721 202.045 96.4887C204.554 97.6909 205.272 100.334 206.935 102.204C209.355 104.936 211.832 107.631 214.087 110.501C215.221 111.941 215.953 113.7 216.802 115.356C217.508 116.724 218.032 118.186 218.785 119.518C219.78 121.275 217.939 123.764 214.932 123.966C217.819 122.407 214.905 121.713 214.87 120.602C215.412 120.177 215.908 119.787 216.15 119.599L212.643 116.949C213.219 116.48 213.639 116.123 214.374 115.523C213.467 115.3 212.863 115.155 212.204 114.989C212.42 114.278 212.65 113.507 212.931 112.563C210.615 113.035 208.35 110.67 208.883 108.781C207.292 108.997 206.366 107.855 206.835 106.249C206.04 105.89 204.157 106.467 205.263 104.418C205.322 104.312 204.65 103.805 204.31 103.497C202.856 102.228 201.336 101.02 199.958 99.677C199.096 98.835 198.446 97.7804 197.898 96.6829C196.511 96.1049 195.907 95.3264 196.083 94.3474C195.631 94.4277 195.173 94.5143 194.714 94.5897C194.817 94.1746 194.935 93.7515 195.009 93.3347C195.056 93.059 195.134 92.7159 195.018 92.4974C194.932 92.3318 194.397 92.1888 194.337 92.2544C192.689 94.3565 191.813 92.0564 191.299 91.4065C189.999 89.761 188.609 88.5803 186.629 87.7281C185.453 87.2219 184.763 85.5946 183.809 84.502C183.694 84.3749 183.332 84.494 183.1 84.429C182.504 84.2601 181.505 84.1989 181.387 83.8488C180.593 81.52 178.335 81.3823 176.644 80.3867C176.076 80.0479 175.772 79.2656 175.003 78.2218C173.531 77.6023 170.911 77.5837 169.86 74.8097C168.517 74.6189 166.363 75.4745 166.718 72.476C166.253 72.8786 165.917 73.1775 165.508 73.5322C164.254 72.8765 162.86 72.1547 160.816 71.0937C158.882 71.472 157.418 70.8686 157.438 69.165C156.371 68.9817 154.782 70.4456 154.171 68.5666C151.846 67.9458 149.458 67.2478 147.042 66.6796C146.012 66.4338 144.916 66.5006 143.869 66.3028C143.14 66.164 142.437 65.8439 141.733 65.564C141.394 65.428 141.084 65.0532 140.758 65.0585C139.608 65.0641 138.284 66.4568 137.392 64.325C137.239 63.9683 135.039 64.2864 133.849 64.5838C131.298 65.2199 128.885 65.2468 126.567 63.8175C126.404 63.7143 125.943 64.2309 125.618 64.2361C123.083 64.2514 120.535 64.0453 118.019 64.2355C115.679 64.4183 113.375 65.02 111.051 65.3953C110.149 65.5382 109.213 65.474 108.322 65.6554C106.919 65.9425 105.552 66.4078 104.149 66.6949C103.281 66.8731 102.366 66.8459 101.469 66.6503C99.1033 67.3463 96.7428 68.036 94.1463 68.7986C94.2052 68.9336 94.081 68.6588 93.9648 68.4001C88.6888 71.6319 85.4983 72.5288 84.3788 71.07C83.9838 71.6461 83.7037 72.3895 83.1635 72.7453C82.7487 73.015 82.0083 72.7975 81.3955 72.797C81.2859 72.9554 80.8872 73.6695 80.8136 73.6339C78.9571 72.8447 77.8427 74.0937 76.5578 75.0228C74.9721 76.1771 73.3604 77.4324 71.162 76.6965C71.0723 76.669 70.9355 76.7968 70.823 76.8526C69.3623 77.5886 67.9111 78.352 66.4345 79.0559C64.7538 79.857 63.0587 80.6372 61.3461 81.374C60.93 81.5522 60.4248 81.5424 59.9577 81.6018C59.563 81.6453 58.994 81.507 58.7943 81.7181C56.3065 84.4526 52.8227 85.2586 49.6194 86.5982C49.1808 86.7796 48.9077 87.3674 48.4724 87.5311C47.9889 87.7187 47.3989 87.6349 46.8333 87.4388C45.6689 87.8358 45.3561 90.1527 43.2908 88.9746C42.1649 91.2502 39.5052 90.779 37.6931 91.9935C35.7444 93.2957 33.7898 95.3775 30.9467 95.0693C30.7431 95.0462 30.1951 95.7982 30.2747 95.9589C30.7987 97.0484 30.6156 98.0359 30.2157 99.1109C29.819 100.168 29.6049 101.303 29.3498 102.266C30.4112 102.405 31.404 102.461 32.3609 102.671C33.6609 102.96 35.008 102.6 36.204 102.8C37.4642 103.008 38.6298 104.1 39.6919 104.983C39.8998 105.16 39.5976 106.279 39.2367 106.73C37.7464 108.609 35.8138 108.959 33.4668 108.513C32.4729 108.325 31.3072 109.123 30.2026 109.374C29.4304 109.545 28.6123 109.55 27.8148 109.621C26.3562 109.755 24.7741 110.319 23.4665 109.935C20.5066 109.076 17.4557 109.495 14.5192 109.297C11.727 109.108 9.47061 106.599 6.46668 107.808C6.04902 107.975 5.09854 106.825 4.39298 106.282C4.8018 105.887 5.20578 105.499 5.6146 105.104C6.03971 105.566 6.47121 106.032 7.00015 106.623C7.38692 106.111 7.85103 105.497 8.31515 104.882C9.0254 105.459 9.68075 106.135 10.4588 106.582C11.7412 107.32 13.0657 107.456 14.6371 107.185C16.1909 106.911 17.8955 107.556 19.5409 107.693C20.8912 107.808 22.25 107.779 23.7209 107.815C23.7856 107.663 23.9474 107.262 23.9101 107.365C24.9903 107.186 25.6245 107.011 26.2743 106.99C27.1968 106.953 28.3414 106.702 29.0025 107.131C30.3197 107.995 30.7996 107.453 31.1324 106.307C34.1813 107.394 35.0999 107.123 35.4284 105.371C34.8221 105.335 34.182 105.344 33.5535 105.271C31.5972 105.04 29.6426 104.78 27.6833 104.526C26.7853 104.41 25.8955 104.271 24.9943 104.173C24.239 104.095 23.4806 103.995 22.7233 104.026C22.1987 104.042 21.686 104.348 21.1565 104.37C19.0323 104.454 16.9099 104.509 14.778 104.497C14.2165 104.495 13.6512 104.219 12.7954 103.995C12.2889 104.346 11.4565 105.687 10.8164 104.299C9.8113 104.565 9.07112 104.76 8.31971 104.956L8.30378 104.924ZM21.9138 81.6114C21.2015 82.0886 20.0434 82.5305 19.3924 83.3656C18.5254 84.5 18.1162 85.9599 17.3931 87.2231C16.7524 88.3374 15.8988 89.321 15.2581 90.4353C14.8805 91.0949 14.8262 91.9384 14.455 92.6029C13.6721 94.0118 12.37 95.2698 12.0568 96.7622C11.786 98.0654 11.1919 98.6922 10.3311 99.4592C9.92879 99.8187 9.73631 100.739 9.88041 101.28C9.98341 101.649 10.8373 101.983 11.3745 102.017C11.9984 102.056 12.9743 101.416 13.219 101.651C14.9135 103.333 16.8064 100.561 18.2572 102.22C18.4381 100.025 18.704 98.2754 20.8217 97.2817C23.0743 96.2292 25.1996 94.9195 27.7743 93.5072C25.8164 92.3598 26.3126 91.7295 28.1322 91.1439C25.0321 90.923 25.7304 88.4551 24.8418 87.05C23.8574 85.4921 23.0724 83.8035 21.8946 81.5969L21.9138 81.6114ZM28.0646 97.687C28.1455 97.4867 28.2264 97.2865 28.3186 97.0847C27.7065 96.8837 27.1043 96.5896 26.4884 96.5666C26.3328 96.5597 26.1645 97.4478 25.972 97.9155C25.8475 98.2135 25.7593 98.6495 25.5392 98.7546C23.8875 99.5173 22.2039 100.216 20.787 100.814C20.7881 100.493 20.7993 100.039 20.7993 99.5868C20.5922 99.6214 20.3788 99.6511 20.1669 99.6921C20.1798 100.607 18.5738 102.067 20.9298 102.208C22.5288 102.301 24.1488 101.886 26.0024 101.668C26.5129 100.606 28.0561 99.2285 26.3093 96.8836C27.3423 97.3524 27.7091 97.5189 28.0759 97.6854L28.0646 97.687Z" fill="black"/>
</svg>
