<svg width="140" height="241" viewBox="0 0 140 241" fill="none" xmlns="http://www.w3.org/2000/svg">
<path d="M85.2275 49.4975C84.5694 49.4515 84.1599 48.1309 83.2727 49.1199C83.2164 49.182 82.5641 48.8516 82.5749 48.8094C82.7717 48.0745 82.2727 47.8163 81.8791 47.3278C81.3111 46.616 80.628 46.2264 79.9368 46.8338C79.7238 46.4514 79.396 46.1001 79.315 45.701C78.9456 43.7773 78.9708 43.7739 77.2493 44.7413C76.4347 44.1331 77.059 42.0747 75.0003 42.5473C74.979 42.1112 74.9535 41.6003 74.9285 41.0833C74.8364 41.1911 74.7435 41.305 74.6514 41.4129C74.0921 41.0243 73.5564 40.5886 72.9605 40.2518C72.1779 39.8082 71.3492 39.4464 70.425 38.9937C70.4035 39.0782 70.4719 38.7881 70.4826 38.7459C69.8069 38.3447 69.2362 38.0045 68.4964 37.5654C67.4063 38.136 67.3503 38.0804 66.3369 35.0588C64.3103 35.7517 61.8359 34.6737 61.6187 33.4667C60.8528 33.155 60.3486 32.9459 59.8382 32.736C59.8894 32.6052 59.9407 32.4744 59.9913 32.3497C59.5672 32.49 59.1424 32.6364 58.8597 32.7299C58.1988 32.4791 59.3708 30.8019 57.7467 31.6125C57.7006 31.6385 57.3338 31.2458 57.2963 31.0187C56.9611 28.95 56.1354 29.8279 55.2121 30.8068C55.0729 30.3147 54.9599 29.9245 54.8669 29.5799C53.8034 29.9612 53.1272 29.622 52.4517 28.7003C51.9437 28.0074 51.1901 27.1207 50.1426 27.9871C49.926 27.3503 49.7053 26.6945 49.2997 25.5106C48.8083 28.0047 47.7673 25.8725 46.8831 26.5458C47.0386 26.0792 47.1724 25.8147 47.2089 25.5335C47.2352 25.2885 47.1575 25.0323 47.1287 24.7813C46.8996 24.8372 46.6445 24.8469 46.4475 24.9497C45.8553 25.2702 42.897 24.5429 42.5404 23.9406C42.4931 23.8612 42.6516 23.6551 42.8144 23.2946C42.3548 23.5922 42.075 23.7728 41.8741 23.9123C40.4812 22.9197 39.1524 21.9649 37.7022 20.9289C35.7125 21.8551 35.1978 21.5704 34.7756 18.755C34.527 19.4533 34.3828 19.8715 34.1221 20.6243C33.3894 20.0621 32.826 19.481 32.1431 19.1472C31.578 18.8695 30.8316 18.6653 30.236 18.7871C29.2861 18.9762 27.095 18.3748 26.628 17.5314C26.5561 17.3935 26.6879 17.1474 26.75 16.8009C26.346 17.0425 25.9704 17.4235 25.7987 17.3492C24.6968 16.8774 23.6441 16.2932 22.5672 15.7622C22.3668 15.6662 22.112 15.5583 21.91 15.5923C21.3048 15.6883 19.5126 15.7 18.7994 15.4745C18.5657 15.3998 18.416 15.0057 18.1961 14.9759C17.708 14.9048 17.1986 14.9739 17.1238 14.9782C16.2361 14.6472 15.6879 14.328 15.1133 14.2538C12.3503 13.9008 9.56788 13.6696 6.81752 13.256C6.4213 13.1947 6.14487 12.3656 6.00056 12.1518C5.35848 12.4173 4.94656 12.7324 4.54507 12.7202C3.91559 12.6959 3.29825 12.4436 2.67714 12.2838C2.70785 12.1136 2.73244 11.9427 2.76249 11.7786C2.53725 11.9713 2.31202 12.1639 2.02572 12.4058C1.48126 11.5912 1.04774 10.7823 -0.0155105 12.0251C-0.369929 12.4393 -1.79662 12.6825 -2.03028 11.6286C-4.0612 11.6704 -6.01862 11.7201 -7.83862 11.7598C-8.09673 11.1061 -8.30414 10.5571 -8.51766 10.0073C-8.62642 10.039 -8.74197 10.0762 -8.85073 10.1078C-8.78501 10.4186 -8.71928 10.7293 -8.67976 10.938C-10.5716 11.2427 -12.4388 11.6057 -14.325 11.7994C-14.6637 11.8373 -15.0715 11.1924 -15.5076 10.8108C-16.7676 12.0386 -18.3763 12.3613 -20.1924 11.5586C-20.3342 11.4938 -20.5733 11.4123 -20.6479 11.4724C-22.1317 12.7071 -23.8984 12.2506 -25.5786 12.3735C-26.0786 12.4126 -26.5478 12.8579 -27.0219 13.1168C-27.3359 12.6368 -27.5972 12.2431 -27.8845 11.8032C-28.7757 13.4053 -29.451 13.5185 -32.1584 12.5332C-32.2566 12.8697 -32.3541 13.2 -32.4187 13.3976C-34.6548 13.7333 -36.4018 15.9746 -38.6132 14.9869C-39.4109 15.4897 -40.0291 15.9934 -40.737 16.2952C-42.6924 17.1322 -44.6868 17.8719 -46.6511 18.6769C-48.1554 19.2959 -49.6357 19.9795 -51.1345 20.6052C-52.6782 21.2448 -53.822 22.4293 -54.6758 23.0501C-55.6674 23.1665 -56.3476 23.0376 -56.6631 23.3197C-57.5618 24.1278 -58.2344 25.1957 -59.1434 25.984C-61.0707 27.6544 -63.0437 29.2889 -65.1022 30.7964C-66.0645 31.5046 -66.6747 32.9139 -67.3842 33.1722C-68.6162 33.6222 -68.8414 34.6205 -69.5479 35.3129C-70.2057 35.9548 -70.9276 36.5588 -71.4475 37.3023C-73.1071 39.6521 -74.6745 42.0677 -76.2993 44.4398C-76.8436 45.2365 -77.469 45.981 -78.0194 46.777C-78.7533 47.8383 -79.5178 48.8963 -80.1412 50.0252C-80.5726 50.8092 -80.717 51.748 -81.102 52.5618C-82.5967 55.7412 -83.9286 58.9629 -84.6125 62.4402C-84.8752 63.7877 -85.49 65.0663 -85.8562 66.3965C-85.9589 66.7758 -85.6511 67.2551 -85.7252 67.6562C-85.7972 68.0946 -86.1299 68.4802 -86.2815 68.9101C-86.4776 69.4653 -86.6995 70.0302 -86.7492 70.6073C-86.8701 72.0196 -86.9543 73.4359 -86.9453 74.8498C-86.9396 75.718 -86.4934 76.6398 -86.6791 77.444C-87.3505 80.4021 -86.1656 83.2129 -86.1433 86.1155C-86.1318 87.4491 -85.4502 88.7742 -85.1617 90.1252C-85.0752 90.5312 -85.2995 91.0028 -85.3081 91.0824C-84.1696 93.8634 -83.2568 96.4962 -82.0234 98.9714C-81.1415 100.739 -80.756 102.801 -79.1983 104.221C-78.8932 104.495 -78.6107 104.922 -78.5535 105.312C-78.3751 106.534 -77.3715 107.113 -76.7207 107.976C-76.0269 108.9 -75.5085 108.862 -74.6643 108.216C-74.3128 107.944 -73.6632 108.069 -73.1538 108C-72.7451 107.945 -72.283 107.97 -71.9407 107.784C-71.1108 107.328 -70.3378 106.766 -69.4118 106.166C-69.2998 106.853 -69.256 107.137 -69.1746 107.648C-67.6759 105.411 -65.5645 105.427 -63.4544 105.456C-62.2357 105.475 -61.1461 104.564 -59.8158 105.159C-57.9595 105.991 -56.0644 105.024 -54.1784 105.004C-52.1188 104.983 -50.0556 105.794 -49.6472 106.836C-48.1897 107.402 -46.4307 105.682 -45.3128 108.021C-44.9742 108.733 -43.4212 108.813 -42.4819 109.298C-41.5609 109.782 -40.6893 110.377 -39.8454 111.001C-39.6332 111.16 -39.6365 111.594 -39.5198 111.891C-39.4079 112.176 -39.3507 112.566 -39.1366 112.707C-38.31 113.261 -37.4313 113.734 -36.4808 114.288C-36.6914 114.575 -36.8593 114.811 -37.0185 115.024C-35.8407 115.999 -35.1701 117.081 -35.6624 118.72C-35.992 119.825 -36.045 121.009 -36.2179 122.156C-36.3535 123.071 -38.0033 123.141 -37.4845 124.424C-38.026 124.446 -38.5614 124.469 -39.103 124.491C-39.0061 124.57 -38.9031 124.649 -38.8061 124.728C-39.7532 125.525 -40.6229 126.466 -41.6857 127.07C-42.339 127.44 -43.2316 128.652 -44.1517 127.239C-44.1681 127.219 -44.8504 127.629 -45.2925 127.878C-45.3491 127.655 -45.4319 127.33 -45.5243 126.98C-46.2485 127.49 -46.9124 127.958 -47.583 128.431C-47.6818 128.198 -47.7806 127.964 -47.889 127.704C-48.1466 127.968 -48.4321 128.26 -48.9263 128.764C-49 128.124 -49.0373 127.779 -49.0767 127.397C-49.6219 127.741 -50.1005 128.043 -50.2866 128.159C-51.2789 127.879 -52.1385 127.631 -53.0048 127.39C-53.0832 127.542 -53.1684 127.7 -53.2468 127.853C-53.3532 127.575 -53.459 127.291 -53.595 126.942C-53.8931 127.294 -54.1777 127.635 -54.3844 127.886C-55.2602 127.271 -56.1169 126.652 -56.9886 126.056C-57.6236 125.622 -58.0865 124.395 -59.1146 125.772C-59.3096 126.03 -60.7209 125.611 -61.3898 125.205C-62.0008 124.835 -62.3567 124.053 -62.9178 123.336C-63.0541 123.452 -63.4368 123.782 -63.9422 124.217C-64.0558 123.431 -64.1284 122.896 -64.1779 122.55C-66.352 123.115 -67.122 120.826 -68.6684 120.511C-68.8121 119.889 -68.8335 119.223 -69.1407 118.738C-69.2406 118.572 -70.0649 118.861 -70.5382 118.941C-71.0164 118.604 -71.5641 118.223 -72.1459 117.813C-71.9723 117.466 -71.725 116.954 -71.3142 116.13C-73.217 117.401 -73.0483 116.006 -73.2414 115.266C-73.6338 115.342 -74.02 115.418 -74.5511 115.516L-74.4463 114.542C-75.1079 113.894 -75.6165 113.207 -76.2977 112.799C-76.6645 112.58 -77.3182 112.838 -77.8446 112.893C-78.3711 112.948 -78.8989 113.015 -79.5953 113.095C-79.595 113.207 -79.6013 113.727 -79.6055 114.284C-81.3604 113.085 -81.3171 115.16 -82.0864 115.628C-83.2943 116.372 -84.0504 117.871 -85.2762 118.551C-86.1074 119.019 -86.388 119.553 -86.7801 120.261C-87.2339 121.08 -87.8975 121.777 -88.4794 122.52C-89.7367 124.126 -91.0513 125.688 -91.5707 127.752C-91.6365 128.018 -92.2334 128.152 -92.6355 128.375C-92.6358 128.666 -92.43 129.345 -92.6693 129.611C-94.1734 131.265 -94.9464 133.208 -95.3525 135.37C-95.428 135.784 -96.0079 136.105 -96.1903 136.303C-96.3864 137.031 -96.621 137.657 -96.6957 138.293C-96.7631 138.862 -96.4682 139.52 -96.6638 140.013C-96.9619 140.768 -97.7009 141.358 -97.9439 142.119C-98.1586 142.79 -97.9598 143.592 -97.9398 144.443C-98.2635 146.069 -98.9539 147.879 -98.8913 149.658C-98.8342 151.374 -99.4281 152.978 -99.4453 154.692C-99.4633 156.357 -99.4479 158.231 -99.7751 160.005C-100.129 161.913 -100.003 163.909 -100.089 165.864C-99.9009 165.897 -99.7122 165.93 -99.5237 165.962C-99.896 166.313 -100.263 166.67 -100.283 166.686C-100.349 169.834 -100.406 172.666 -100.462 175.492C-100.853 175.673 -101.239 175.86 -101.63 176.041C-102.714 174.363 -101.89 172.754 -101.546 171.056C-101.732 170.881 -102.231 170.623 -102.223 170.376C-102.2 169.585 -101.986 168.802 -101.854 168.036C-101.876 166.689 -101.924 165.289 -101.91 163.89C-101.905 163.042 -101.802 162.197 -101.748 161.348C-101.719 160.905 -101.732 160.457 -101.673 160.018C-101.552 159.126 -101.207 158.221 -101.294 157.363C-101.502 155.376 -101.127 153.507 -100.875 151.564C-100.633 149.718 -100.212 147.942 -99.8752 146.131C-99.8171 145.822 -100.251 145.415 -100.344 145.25C-99.9441 143.546 -99.604 141.94 -99.1734 140.357C-98.9282 139.46 -98.7619 138.375 -97.3737 138.605C-98.5807 137.843 -98.4961 136.941 -97.6564 135.761C-96.9699 134.793 -96.7137 133.507 -96.3279 132.34C-95.658 130.318 -94.8664 128.432 -93.3356 126.818C-92.4835 125.925 -92.0588 124.57 -91.6071 123.367C-90.7638 121.115 -89.0827 119.66 -87.42 118.029C-86.4978 117.118 -85.6895 115.941 -84.6203 115.046C-83.0938 113.76 -81.6651 112.346 -80.1051 111.095C-79.7116 110.778 -78.9846 110.874 -78.4358 110.785C-77.5575 108.785 -79.8404 108.576 -80.391 107.358C-81.218 105.54 -82.2603 103.823 -83.113 102.015C-83.3543 101.493 -82.7924 100.475 -84.0706 100.778C-84.1123 100.531 -84.1669 100.29 -84.2018 100.038C-84.4409 98.4015 -85.2525 97.0747 -86.3168 95.851C-86.504 95.6325 -86.2189 95.0559 -86.3155 94.6861C-87.0717 91.8656 -88.0809 89.0923 -88.591 86.2302C-88.9865 84.0311 -88.7816 81.723 -88.848 79.4602C-88.8816 78.2172 -88.9268 76.9667 -88.8768 75.6955C-88.9372 75.1622 -89.0895 74.6191 -89.0334 74.0984C-88.8054 71.9788 -88.5474 69.8685 -88.2458 67.7568C-87.6135 63.3196 -86.4378 59.0152 -84.8309 54.8502C-84.2563 53.3689 -83.2893 52.0414 -82.5131 50.6438C-81.8605 49.4746 -80.9417 48.3651 -80.6263 47.1038C-79.8969 44.1829 -77.7175 42.2422 -76.1798 39.8731C-75.4956 38.8126 -74.8509 37.717 -74.0808 36.7215C-73.7136 36.2467 -73.1002 35.9594 -72.5892 35.5868C-72.489 35.232 -72.487 34.6373 -72.1928 34.3219C-70.8282 32.8699 -69.4445 31.4137 -67.9351 30.1136C-65.613 28.1139 -63.213 26.1969 -60.7863 24.32C-58.5904 22.629 -56.3815 20.9331 -54.0461 19.443C-52.6753 18.568 -51.0549 18.0792 -49.5569 17.4038C-49.3551 17.3139 -49.1938 17.1392 -48.9968 17.0364C-46.6691 15.8491 -44.4344 14.373 -41.978 13.6024C-40.6247 13.1778 -39.3498 12.7325 -38.0289 12.2053C-35.665 11.2574 -33.0553 10.559 -30.5331 10.5019C-28.5764 10.4583 -26.8537 9.82564 -25.0052 9.57833C-23.8232 9.42043 -22.62 9.46931 -21.4234 9.40594C-20.3702 9.35191 -19.3152 9.27951 -18.2649 9.1942C-17.5649 9.13936 -16.8732 9.04645 -16.2529 8.98305C-15.7187 8.79884 -14.9877 8.28257 -14.655 8.47328C-12.9827 9.40304 -11.3061 8.62287 -9.64897 8.71439C-8.81121 8.76114 -7.98331 8.89978 -7.14489 8.9404C-5.83758 9.00049 -4.52499 9.01156 -3.2192 9.0281C-2.37748 9.03809 -1.51909 8.95072 -0.685935 9.04036C1.01713 9.22358 2.70766 9.52319 4.41138 9.70028C5.28742 9.79453 6.04661 10.9173 7.03073 10.0069C8.41495 11.829 10.3625 10.7185 12.0489 10.9991C14.6544 11.4343 17.2568 11.956 19.8323 12.5553C20.3219 12.67 20.6305 13.546 21.1256 13.6674C22.8097 14.0841 24.5671 14.2235 26.2492 14.6586C27.5881 15.0009 28.8383 15.6498 30.1457 16.1127C31.3276 16.5311 32.5164 16.9441 33.7355 17.2487C34.7066 17.4957 35.8234 17.368 36.2625 18.5865C36.2961 18.6769 36.3647 18.8454 36.3899 18.8419C39.2229 18.372 41.0587 20.7199 43.514 21.3992C45.6383 21.9872 47.5253 23.3986 49.5516 24.3789C50.1582 24.6734 50.8958 24.6722 51.5403 24.9027C51.761 24.9822 51.8828 25.3485 52.1242 25.6967C52.409 25.8141 52.9294 25.9879 53.4107 26.2379C54.609 26.8502 55.7973 27.4986 56.9875 28.1286C57.0345 28.1523 57.11 28.1418 57.1441 28.1702C58.536 29.4602 60.2676 30.0122 61.9719 30.7594C64.156 31.7133 65.977 33.508 67.9545 34.9416C68.3972 35.2619 68.8494 35.5522 69.3394 35.7784C70.7507 36.5995 72.7597 37.1069 73.3968 38.3281C74.0332 39.5554 75.0503 39.3178 75.7019 39.6544C77.2227 40.4377 77.9653 42.0606 79.6795 42.716C80.4651 43.0175 81.6995 44.2161 82.259 45.4662C82.4086 45.8045 83.2748 45.8171 83.8987 46.0082C83.8265 46.1615 83.692 46.4321 83.515 46.8097C84.2958 47.0982 85.0643 47.3854 85.7497 47.6388C85.8403 48.0638 85.9316 48.4826 86.0236 48.8953C85.7664 49.0969 85.5037 49.2918 85.2466 49.4934L85.2275 49.4975ZM-43.5476 125.426C-42.2625 124.598 -41.0062 123.865 -39.8478 123.005C-39.0734 122.431 -38.0857 121.775 -37.8306 120.96C-37.2485 119.12 -37.4651 117.101 -38.4954 115.503C-39.2384 114.345 -40.6209 113.601 -41.8192 112.586C-41.4651 111.887 -41.5484 111.221 -43.043 111.116C-43.7195 111.068 -44.5142 110.679 -44.9814 110.182C-45.732 109.383 -46.3308 108.785 -47.181 109.834C-47.3609 109.375 -47.5408 108.915 -47.8037 108.249C-48.1228 108.853 -48.2857 109.157 -48.5121 109.592C-48.8316 109.105 -49.0395 108.791 -49.2057 108.55C-49.6968 108.795 -50.1546 109.018 -50.7442 109.314C-50.7776 108.703 -50.7969 108.249 -50.8304 107.638C-51.2606 107.951 -51.5566 108.167 -52.0011 108.497L-51.8251 106.862C-51.9048 106.853 -51.9783 106.845 -52.0579 106.837C-52.1887 107.188 -52.3195 107.54 -52.3626 107.653C-52.9522 107.546 -53.5411 107.26 -53.7324 107.425C-55.0532 108.584 -55.2358 107.517 -55.3575 106.977C-56.2931 107.15 -57.1019 107.41 -57.915 107.421C-58.7281 107.433 -59.6007 106.961 -60.3506 107.134C-62.9117 107.726 -62.8944 107.796 -64.4146 106.778C-64.7794 107.749 -69.5293 109.735 -70.4678 109.299C-70.5148 109.276 -70.5524 109.222 -70.5784 109.176C-71.1515 108.166 -71.4352 109.133 -71.7834 109.375C-72.3264 109.756 -72.7936 110.239 -73.3366 110.621C-73.8999 111.019 -74.5173 111.343 -75.108 111.707C-75.1277 111.717 -75.0687 111.86 -75.0329 111.987C-74.5677 111.926 -74.0964 111.865 -73.625 111.804C-73.7008 111.932 -73.7833 112.066 -73.8598 112.2C-69.6743 116.152 -65.7809 120.456 -60.1626 122.61C-59.659 122.825 -58.9974 122.896 -58.5321 123.238C-56.3376 124.843 -53.7972 125.135 -51.2305 125.182C-49.1952 125.215 -47.1365 126.125 -45.1389 125.298C-44.348 124.974 -43.8065 124.376 -43.5428 125.439L-43.5476 125.426Z" fill="black"/>
<path d="M123.897 67.0681C125.14 66.5698 126.356 65.6347 127.445 67.1524C127.655 67.4476 127.59 67.9303 127.581 67.8425C128.482 69.2594 129.193 70.3769 129.998 71.6472C129.413 71.6649 129.022 71.6785 128.177 71.6992C128.979 72.1325 129.418 72.3718 129.71 72.5334C129.966 74.1288 130.212 75.6426 130.472 77.2632L129.651 77.1748C130.572 77.6023 131.022 77.8491 130.619 79.1256C130.308 80.1086 131.106 81.3904 131.203 82.5598C131.312 83.91 131.19 85.2788 131.166 86.7697C130.845 86.698 130.47 86.6142 129.816 86.4696C131.697 87.7687 131.357 89.1947 130.682 90.5722C132.166 92.1075 131.631 94.0268 131.96 95.6859C130.76 96.0153 129.699 96.3103 128.551 96.6205L129.005 92.3934C128.079 91.5006 127.18 90.6355 126.265 89.7561C126.252 89.8787 126.078 90.2814 126.206 90.5307C126.613 91.3056 127.557 91.9773 126.385 92.8986C126.311 92.9587 126.589 93.4783 126.718 93.7772C127.075 94.6088 127.77 95.4644 127.709 96.2635C127.656 96.989 126.779 97.6507 126.047 98.6378C125.882 97.8083 125.824 97.4859 125.72 96.9542C123.937 99.1854 122.279 96.739 120.433 97.0734C120.43 96.5835 120.424 96.1242 120.421 95.5785C120.224 95.6813 120.053 95.7125 119.98 95.8162C119.466 96.5603 119.071 96.8896 118.244 95.995C117.767 95.4789 116.74 95.5172 116.056 95.1399C115.336 94.7464 114.723 94.16 114.242 93.7922C113.18 93.5291 112.166 93.2775 110.88 92.9595C111.334 92.4258 111.588 92.1371 112.063 91.5809C109.272 92.7555 107.869 91.6813 107.01 89.2402C106.624 89.3722 106.134 89.5487 105.536 89.757C105.598 89.175 105.882 88.4929 105.652 88.1583C105.363 87.7306 104.654 87.5861 103.83 87.1753C103.717 86.2149 102.747 84.7472 104.411 83.569C103.748 81.775 105.26 81.5473 106.276 81.26C107.458 80.9286 108.751 80.8383 109.987 80.866C111.23 80.8943 112.457 81.2371 113.702 81.3586C114.867 81.4716 116.042 81.443 117.21 81.5253C117.844 81.5687 118.528 81.6051 119.089 81.8637C119.478 82.0481 119.677 82.6149 119.977 83.0004C121.176 84.5856 122.245 84.6078 123.274 82.9337C121.913 82.5146 121.784 81.6951 122.015 80.3008C122.398 78.0058 121.845 75.486 122.535 73.3294C123.067 71.67 122.063 69.486 124.042 68.2488C124.188 68.1592 123.964 67.4782 123.913 67.0885L123.897 67.0681ZM123.978 91.487C124.202 90.8418 124.674 90.0869 124.498 89.8821C123.325 88.5103 122.656 86.3748 120.203 86.712C120.014 86.7412 119.788 86.5991 119.595 86.4916C118.647 85.9744 117.721 85.4162 116.763 84.9351C115.487 84.2959 114.187 83.7037 112.88 83.1292C112.631 83.0219 112.255 83.0062 112.014 83.1105C110.125 83.9608 108.24 83.572 107.372 82.2516C106.948 82.7947 106.454 83.3489 106.054 83.9627C105.846 84.2812 105.585 84.8666 105.726 85.0553C106.505 86.1058 107.263 87.2409 108.281 88.0259C109.648 89.0901 111.006 90.2959 112.942 90.3803C113.263 90.3962 113.554 91.0906 113.837 91.4495C114.882 91.9337 116.001 92.4817 117.144 92.9703C118.477 93.5413 119.941 93.8723 121.141 94.6397C122.539 95.5337 123.728 95.42 124.611 94.9944C124.834 93.9587 124.968 93.3472 125.121 92.6138C124.846 92.3426 124.376 91.8768 123.985 91.4815L123.978 91.487ZM128.474 78.895C128.584 78.8014 128.995 78.4305 129.078 78.3526C128.531 77.7979 127.888 77.4314 127.733 76.9128C127.587 76.4261 127.871 75.744 128.132 75.2266C128.494 74.5096 129.172 73.8513 127.76 73.5507C127.621 73.5233 127.505 73.2134 127.452 73.0156C126.905 71.017 126.38 70.0248 124.972 68.479L123.881 78.6177C123.969 79.6496 124.836 81.0381 124.464 81.8967C123.744 83.5792 124.915 84.6223 125.417 85.6555C125.92 86.6825 126.841 88.2626 128.945 87.6586C128.793 84.866 128.648 82.0617 128.475 78.8888L128.474 78.895Z" fill="black"/>
<path d="M85.2274 49.4976C85.4846 49.2959 85.7472 49.1011 86.0044 48.8995C86.4838 48.9944 87.1109 48.9256 87.4215 49.2069C89.0999 50.7136 90.5454 52.5423 92.3814 53.7933C93.5825 54.6104 94.6049 55.3029 94.9712 56.7367C94.9843 56.7876 95.0309 56.8732 95.056 56.8697C97.4607 56.6946 97.9197 59.3406 99.6888 60.1196C99.9668 60.2425 100.109 61.051 100.03 61.4949C99.955 61.9082 99.503 62.25 99.2212 62.6225L99.2749 62.5849C99.115 62.8032 98.9552 63.0215 98.7954 63.2397C98.6917 63.1666 98.5826 63.0867 98.4789 63.0136C98.5793 62.541 98.6729 62.0739 98.8363 61.3045C98.1588 61.5538 97.7204 61.7112 97.3399 61.85C97.5187 61.2247 97.7023 60.6124 97.8798 59.9994L95.3803 59.7305C95.2329 59.2002 96.0542 57.8447 94.1746 57.9771C93.8747 58.0006 93.4726 56.6684 93.1246 55.9865C93.0237 56.1181 92.8008 56.404 92.4405 56.8734C92.2723 56.248 92.1585 55.8082 92.0433 55.3806C91.7499 55.5163 91.4571 55.6459 91.1697 55.7823C91.2037 55.5815 91.2438 55.3813 91.2991 55.0402C90.9295 55.1926 90.6251 55.3148 90.7352 55.2708C90.0572 54.2002 89.4804 53.2829 88.8345 52.2591C88.6746 52.6509 88.5922 52.8403 88.4904 53.0958C88.1205 52.3868 87.7766 51.7239 87.3409 50.8776L87.2262 51.9435C86.5992 50.8598 85.0373 50.9768 85.2233 49.4785L85.2274 49.4976Z" fill="black"/>
<path d="M108.684 71.1512C107.851 70.6526 106.424 71.0692 106.259 69.5579C106.052 69.6906 105.846 69.8233 105.899 69.7857C105.572 68.8581 105.289 67.9725 104.935 67.1164C104.866 66.954 104.427 66.7705 104.289 66.8424C102.23 67.8913 103.222 65.7547 102.67 65.3048C100.846 66.0073 101.435 64.5709 101.36 63.6519C100.737 63.8514 100.205 64.0172 99.4862 64.2497C99.4064 63.609 99.344 63.0942 99.2756 62.5786C99.2756 62.5786 99.2219 62.6162 99.2152 62.6217C100.101 62.5063 100.994 62.3855 101.868 62.2688C102.413 63.195 103.01 64.2136 103.608 65.226C104.386 64.7273 104.856 65.1992 105.304 65.7617C105.713 66.2767 106.802 66.3505 106.266 67.5322C106.169 67.7449 107.228 68.838 107.866 68.9624C109.643 69.3209 108.676 70.3633 108.616 71.2058L108.671 71.156L108.684 71.1512Z" fill="black"/>
<path d="M112.847 74.2701C112.611 74.3934 112.376 74.616 112.14 74.6216C111.582 74.6235 111.029 74.5207 110.441 74.4574C110.456 74.2607 110.482 73.7925 110.513 73.331C110.171 73.3377 109.829 73.3504 109.444 73.3586C109.339 73.0065 109.205 72.5273 109.038 71.9454C108.684 72.1303 108.355 72.3057 107.777 72.6091C108.182 71.9586 108.429 71.5576 108.683 71.1573C108.683 71.1573 108.628 71.2072 108.634 71.2079C109.884 70.7102 110.718 70.8495 111.182 72.3557C111.412 73.0993 112.25 73.6543 112.807 74.2967L112.847 74.2762L112.847 74.2701Z" fill="black"/>
<path d="M112.808 74.2905C113.584 75.0805 114.361 75.8705 115.287 76.8192C114.94 76.819 114.705 76.8185 114.463 76.8173L114.512 76.8226C113.789 76.6393 113.065 76.45 111.963 76.1578C112.212 75.6269 112.52 74.9475 112.835 74.2687L112.802 74.2899L112.808 74.2905Z" fill="black"/>
<path d="M114.47 76.818C115.03 77.2501 115.135 78.4698 116.29 77.869C116.403 78.3769 116.509 78.8841 116.672 79.6205C114.91 79.121 113.826 78.5955 114.529 76.8368C114.523 76.8362 114.476 76.8186 114.476 76.8186L114.47 76.818Z" fill="black"/>
</svg>
