<svg width="261" height="200" viewBox="0 0 261 200" fill="none" xmlns="http://www.w3.org/2000/svg">
<path d="M246.725 185.317C245.027 183.761 242.805 182.488 241.774 180.568C240.673 178.538 237.763 178.063 237.541 176.669C236.975 173.072 232.965 173.446 231.773 170.597C231.096 168.97 228.742 168.081 227.247 166.748C224.852 164.606 222.549 162.363 220.215 160.161C220.013 159.969 219.851 159.676 219.619 159.605C216.235 158.514 214.042 156.029 211.688 153.493C210.122 151.796 207.263 151.361 205.182 150.048C201.677 147.836 198.333 145.36 194.888 143.037C194.271 142.623 193.554 142.299 192.837 142.107C189.402 141.198 185.977 139.198 182.411 141.269C181.259 141.936 180.582 143.461 179.744 144.633C179.238 145.33 178.511 146.068 178.44 146.825C178.279 148.654 178.299 150.533 178.531 152.362C178.673 153.432 179.006 154.271 177.501 154.332C177.572 155.817 177.713 157.292 177.683 158.777C177.652 160.252 175.298 161.343 176.925 163.131C177.218 163.454 177.491 163.788 177.905 164.273C177.036 164.687 176.359 165 175.622 165.354C179.339 167.243 174.44 170.051 176.632 171.941C175.773 172.638 173.722 172.941 176.086 174.305C176.329 174.446 175.884 176.901 175.157 177.386C173.682 178.386 173.834 178.871 174.571 180.356C175.258 181.74 174.894 183.639 174.995 185.347C173.389 185.63 171.581 185.67 172.601 188.054C172.631 188.115 172.601 188.246 172.55 188.287C169.55 190.782 170.197 196.379 165.105 197.046C164.468 197.127 163.771 196.712 162.811 196.46C162.65 196.894 162.387 197.591 162.104 198.339C160.367 198.339 158.488 198.723 156.861 198.248C154.568 197.571 152.325 196.46 150.304 195.167C148.072 193.742 146.041 191.964 144.031 190.206C142.596 188.954 141.363 187.458 140 186.115C138.201 184.337 136.171 182.761 134.595 180.821C131.028 176.426 126.846 172.527 124.128 167.415C122.815 164.939 120.673 162.889 118.946 160.626C118.642 160.221 118.531 159.676 118.289 159.221C116.874 156.645 115.541 154.018 113.995 151.523C112.672 149.381 110.227 147.532 109.833 145.29C109.277 142.067 107.267 139.784 106.054 137.056C103.418 131.105 100.165 125.438 97.1843 119.639C96.0023 117.335 94.8708 115.002 93.7292 112.678C93.022 111.244 92.3552 109.799 91.6581 108.364C89.3244 103.576 87.0513 98.7566 84.6166 94.0184C82.3536 89.6035 79.8582 85.3099 77.575 80.9051C76.5748 78.9856 76.1404 76.7327 74.9382 74.9748C73.5844 72.9947 72.1296 70.7519 71.3113 68.8324C69.1897 63.8315 66.2094 59.3965 63.6231 54.7088C60.9459 49.8595 57.7737 45.283 54.8742 40.5549C52.7021 37.019 50.0047 33.877 47.5497 30.5532C44.8321 26.886 42.4681 22.8247 39.1948 19.7231C33.7899 14.591 29.1628 8.51925 22.4243 4.90248C21.2726 4.28621 19.8582 3.81139 18.5853 3.8518C17.7973 3.872 17.0497 4.9934 16.6759 6.0845C15.8677 6.42799 15.0595 6.78158 14.2613 7.12507C14.6654 7.64031 15.2413 8.09493 15.4232 8.67079C15.5848 9.20623 15.312 9.87301 15.2211 10.5297C16.7163 10.954 18.656 19.511 17.4235 21.5921C20.2826 23.8248 20.717 25.5423 18.2822 27.6538C20.7877 26.6233 20.9695 27.7548 21.505 29.3409C22.6163 32.6647 23.6063 36.1198 26.0209 38.8678C26.819 39.7669 26.3139 41.8885 25.2026 42.6563C28.5365 42.8583 28.3647 46.1114 29.8195 47.94C30.3347 48.5967 30.6782 49.4453 30.9005 50.2636C31.1329 51.1021 31.1329 52.0114 31.2844 53.2944C33.0524 53.2944 33.6888 55.3251 34.4768 57.1739C35.6083 59.8107 36.6792 62.4677 37.8512 65.2964C37.5582 65.4783 36.9015 65.8824 36.2751 66.2663C36.8005 67.5998 39.7909 66.8522 38.5988 69.3476C39.2655 69.6507 39.9323 69.9437 40.983 70.4084C39.8111 70.7317 39.0837 70.9337 38.3664 71.1257C38.326 71.3581 38.2856 71.5904 38.2553 71.8127C41.6902 71.651 42.1246 74.2171 43.0136 76.4498C43.5087 77.6823 44.4078 78.7532 44.8119 80.006C45.1251 80.9657 44.7816 82.1174 45.0342 83.1075C45.2564 83.9763 45.8828 84.7542 46.4182 85.6231C46.9335 86.4616 47.5396 87.2496 47.9336 88.1386C48.9035 90.341 49.8127 92.5838 50.6715 94.8367C51.9949 98.302 53.3588 101.757 54.4802 105.283C54.9449 106.738 54.8338 108.374 55.0156 110.365C54.8944 110.284 55.4602 110.658 56.1977 111.153C55.834 111.425 55.6622 111.567 55.4905 111.678C55.0358 111.971 54.5711 112.254 54.1165 112.537C54.5105 112.921 54.9045 113.628 55.2985 113.618C57.8747 113.567 56.1572 115.759 56.9453 116.608C55.1066 117.204 56.622 118.043 56.7432 118.821C56.9756 120.306 57.9959 121.912 56.0663 123.165C55.7228 123.387 55.935 124.468 55.9148 125.155C55.8946 125.822 55.743 126.529 55.9148 127.145C56.9251 130.934 51.8636 131.277 51.7626 134.52C51.7424 135.126 50.4997 136.258 49.9239 136.187C47.6306 135.935 47.3275 137.46 47.1456 138.389C45.5898 139.238 44.5189 139.955 43.3571 140.43C41.7407 141.077 40.0535 141.552 38.3967 142.087C37.7299 142.299 37.0732 142.562 36.3863 142.653C35.3154 142.784 34.3859 145.128 33.1635 142.875C32.6685 143.178 32.1835 143.744 31.6885 143.744C28.0717 143.764 24.3539 144.209 20.8685 143.491C16.6658 142.633 12.3519 141.521 8.97763 138.4C7.0076 136.581 4.83552 134.995 2.79477 133.267C2.5018 133.015 2.41087 132.52 2.24923 132.136C1.53194 130.489 0.895467 128.802 0.0973531 127.206C-0.417885 126.175 1.20865 123.801 2.70385 123.579C3.12816 123.518 3.55248 123.498 3.48176 123.498C4.17884 125.195 4.7648 126.64 5.35076 128.075C4.67388 128.438 4.05761 128.782 3.43124 129.125C4.04751 129.398 4.71429 129.58 5.25983 129.954C5.84579 130.358 6.35093 130.893 6.82575 131.429C8.08859 132.873 9.46256 134.126 11.2103 135.025C11.675 135.268 11.6447 136.47 11.7357 136.824C22.8789 141.269 34.1233 141.198 45.1655 135.51C46.6506 134.015 48.5095 132.156 50.6614 129.994C50.8937 129.277 51.4595 127.964 51.7323 126.59C52.5607 122.478 52.3384 118.356 51.5908 114.244C50.3785 107.607 48.5903 101.151 45.9131 94.9378C44.0239 90.5532 42.1549 86.1484 40.4374 81.6931C38.9928 77.9349 38.1643 73.9039 36.3256 70.368C35.3962 68.5899 34.2748 66.9634 33.6181 64.9832C33.0625 63.2961 31.8097 61.8615 30.9712 60.2552C28.88 56.2747 26.6068 52.365 24.8591 48.233C21.4444 40.2013 18.2721 32.0585 15.1302 23.9057C13.7562 20.3394 12.0286 16.6923 11.7256 12.9846C11.5134 10.3074 10.9578 7.38774 12.5843 4.33673C14.13 1.40694 15.797 -0.472159 18.8985 0.103695C21.9596 0.669447 24.8793 2.10403 27.799 3.32646C28.2132 3.4982 28.2233 4.62971 28.4051 5.26618C31.931 3.55882 31.2339 10.2468 35.0628 8.57986C33.9212 12.1865 36.659 11.3076 38.1845 11.8127C37.9825 11.9946 37.7804 12.1764 37.5784 12.3583C39.1241 14.1262 40.6395 15.9245 42.2357 17.6521C42.8116 18.2785 43.7309 18.6017 44.2159 19.2786C45.6807 21.3396 46.5597 24.5522 48.4893 25.3605C50.9544 26.3909 50.621 27.2092 49.9138 28.8762C49.8532 29.0176 49.9542 29.2298 50.0047 29.6238C52.692 29.3207 53.773 30.6543 53.4699 33.2911C53.4295 33.6649 53.6417 34.4024 53.773 34.4125C57.2281 34.6347 57.3898 38.7364 60.7035 39.7871C59.9155 40.1306 59.5922 40.2821 59.2891 40.4135C62.1583 42.1511 68.2502 53.2237 67.1793 55.1836C67.8057 54.9917 68.2805 54.8502 68.5432 54.7694C69.4928 56.1232 70.3819 57.4062 71.2406 58.6489C70.5839 59.1944 69.9373 59.7298 68.9978 60.5078C71.7457 60.0329 74.7159 62.4172 75.1705 65.5995C75.5039 67.9736 76.5849 69.8932 77.5952 71.9339C78.0296 72.8128 78.3428 73.7423 78.9489 75.2678C81.0503 75.3486 81.9697 76.9853 80.7977 79.8746C81.707 80.2585 82.5051 80.5818 83.5154 81.0061C83.0708 81.4911 82.7577 81.8346 82.99 81.582C83.7477 83.2489 84.3438 84.5825 84.6166 85.1786C87.2433 90.0177 89.5568 94.17 91.7289 98.3929C92.0724 99.0698 91.7794 100.07 91.7794 101.03C92.9513 101.222 96.0225 105.162 95.9619 106.788C95.9518 107.162 96.2145 107.546 96.3357 107.93C97.2651 110.647 98.0127 113.456 99.1948 116.063C99.7908 117.376 101.185 118.315 102.215 119.427C102.276 119.487 102.337 119.598 102.327 119.669C101.852 122.336 103.973 124.023 104.761 126.216C104.842 126.438 104.862 126.852 104.963 126.882C108.317 127.569 106.246 129.236 105.549 130.883C108.085 130.125 108.752 131.51 109.045 133.57C109.146 134.308 109.924 134.934 110.267 135.672C110.621 136.419 110.813 137.238 111.298 138.693C111.217 138.662 111.864 138.895 112.682 139.177C112.51 141.299 113.217 142.825 115.016 144.492C116.925 146.259 117.551 149.371 118.925 151.796C119.582 152.968 120.663 153.897 121.552 154.938C121.724 155.14 122.067 155.413 122.027 155.524C120.774 158.514 124.29 158.999 124.896 161.04C126.189 165.424 130.867 167.505 132.433 171.587C133.877 175.386 137.565 176.901 139.717 179.912C140.798 181.427 142.252 182.68 143.333 184.195C143.637 184.619 143.243 185.549 143.172 186.236C145.314 185.902 150.264 189.327 150.83 191.247C155.79 193.116 160.458 196.126 165.883 192.57C165.974 192.378 166.327 191.55 166.731 190.752C168.176 187.852 170.045 185.074 170.974 182.023C171.702 179.639 171.187 176.901 171.429 174.335C171.55 173.022 172.702 171.587 172.389 170.506C171.712 168.203 172.601 166.334 173.005 164.242C173.419 162.06 173.177 159.767 173.248 157.524C173.288 156.332 173.44 155.14 173.45 153.948C173.45 153.301 173.278 152.644 173.157 151.846C173.409 151.675 174.308 151.392 174.369 150.967C174.894 147.755 175.258 144.522 175.672 141.299C175.945 141.238 176.208 141.168 176.48 141.107C176.693 141.562 176.915 142.006 177.319 142.875C177.561 139.329 179.936 136.874 183.179 136.591C186.25 136.318 189.281 136.803 192.099 138.137C192.524 138.339 192.695 139.056 192.998 139.541C195.191 138.248 199.555 140.521 199.767 143.178C200.293 142.976 201.01 142.441 201.384 142.612C202.727 143.259 204.071 144.017 205.172 144.997C206.102 145.825 206.677 147.037 207.385 148.038C208.163 148.108 209.496 147.836 210.244 148.371C211.921 149.573 213.072 151.806 214.871 152.473C217.366 153.402 218.962 154.564 219.457 157.211C222.832 157.403 230.611 164.273 230.399 167.273C233.662 165.455 234.581 168.607 236.147 170.061C237.895 171.678 238.834 174.325 240.734 175.588C242.795 176.962 244.017 178.932 245.745 180.386C247.735 182.074 247.603 183.417 246.755 185.296L246.765 185.317H246.725Z" fill="black"/>
<path d="M249.958 186.63C250.766 186.701 251.574 186.771 252.311 186.842C252.776 188.014 253.221 189.125 253.494 189.802C252.978 190.631 252.564 191.277 252.231 191.823H256.767C255.959 192.772 255.494 193.429 254.908 193.964C254.595 194.247 253.776 194.561 253.706 194.459C252.15 192.378 249.139 191.479 248.755 188.458C249.159 187.852 249.553 187.246 249.958 186.63Z" fill="black"/>
<path d="M257.717 193.712C258.333 195.328 258.697 196.278 259.121 197.359H261C260.737 198.137 260.515 198.773 260.303 199.41C259.858 199.248 259.141 199.208 259.01 198.905C258.383 197.47 255.534 196.874 257.717 193.712Z" fill="black"/>
<path d="M249.957 186.63C249.553 187.236 249.159 187.842 248.755 188.458C247.987 188.014 247.219 187.569 246.088 186.913C246.936 186.458 247.35 186.246 247.977 185.912C247.512 185.69 247.128 185.508 246.744 185.327C246.744 185.327 246.734 185.306 246.724 185.306C247.542 184.741 248.371 184.175 249.179 183.629C249.432 184.599 249.694 185.62 249.967 186.65L249.957 186.63Z" fill="black"/>
</svg>
