<svg width="153" height="153" viewBox="0 0 153 153" fill="none" xmlns="http://www.w3.org/2000/svg">
<path d="M33.2591 122.56C32.9336 122.356 32.31 122.113 32.3349 121.948C32.6924 119.187 30.2913 117.966 28.9251 116.407C25.7751 112.826 22.3768 109.548 20.4197 105.032C19.4218 102.724 17.5932 100.791 16.262 98.6141C15.8389 97.9149 15.6945 96.9823 15.6355 96.1364C15.2752 91.4469 13.4696 86.9426 13.9043 82.1353C14.0838 80.1211 13.8846 78.0766 13.8527 76.0491C13.8484 75.9788 13.7684 75.9024 13.7775 75.8449C14.5815 72.4446 15.417 69.0541 16.187 65.652C16.4207 64.6115 16.4762 63.5335 16.6353 62.3149C17.2032 62.6274 17.5516 62.8122 18.1934 63.1647C16.8665 60.8338 18.0836 59.7077 19.3903 58.178C20.5244 56.8452 20.7403 54.7128 21.324 52.9262C21.4452 52.5323 21.2887 51.8634 21.5147 51.7173C22.6525 50.9893 23.8716 50.3897 25.4239 49.5477C25.7128 49.1968 24.6513 46.9562 26.7718 47.7719C27.283 46.8944 27.6924 45.8993 28.3546 45.1199C29.631 43.6326 30.965 42.1543 32.4524 40.8785C34.4614 39.168 36.5692 37.5569 38.7637 36.0845C40.8273 34.7013 43.0037 33.4561 45.2297 32.3298C47.7442 31.0506 50.3029 29.7679 52.9708 28.9153C54.2414 28.5127 55.6748 27.1598 57.2337 28.4841C57.3082 28.5502 57.7038 28.1889 57.9674 28.0889C60.5941 27.146 63.1922 26.0996 65.8643 25.3173C67.1331 24.9486 68.5845 25.2482 69.8757 24.9468C71.8384 24.481 73.7047 24.1322 75.6276 25.0855C75.9942 25.2672 76.6504 25.012 77.123 24.821C79.8769 23.7448 82.6463 24.4411 85.4156 24.6889C86.7767 24.8056 88.1667 24.7156 89.5138 24.9056C92.7783 25.366 96.0245 25.9416 99.275 26.4753C102.18 26.9546 105.101 27.3267 107.956 27.9974C108.873 28.2105 109.549 29.3236 110.449 29.816C111.463 30.3606 112.67 30.5591 113.691 31.106C114.528 31.553 115.216 32.2903 115.651 33.2865C116.396 33.4723 117.148 33.6606 118.166 33.9131C117.273 34.5441 116.75 34.9266 116.189 35.323C112.961 33.3131 113.034 32.4041 107.139 32.0836C107.403 31.4491 107.663 30.8304 107.878 30.3274C104.497 29.4864 101.287 28.4564 98.0089 27.9572C95.9758 27.6425 93.8181 28.126 91.8421 28.2427C92.4732 27.1434 91.0169 26.4111 90.5014 26.882C88.4136 28.7925 86.6347 26.8659 84.7453 26.7851C84.3878 26.77 83.9151 26.5126 83.6945 26.669C81.471 28.2359 79.2154 27.4389 76.929 26.8825C76.5436 26.7899 76.0904 27.03 75.6638 27.0713C74.0822 27.2231 72.5007 27.3749 70.9258 27.4771C70.8816 27.4807 70.8075 26.9923 70.662 26.344L70.1606 27.9747C68.5626 27.8715 67.0483 27.7767 65.3407 27.6655C65.3583 27.8607 65.4014 28.3654 65.4446 28.8702C64.8423 28.9782 64.2424 29.0783 63.6322 29.1839C63.5548 29.9965 63.4774 30.8091 63.3976 31.6296C62.8791 32.5308 62.4939 33.4471 61.065 33.2147C60.3348 33.0936 59.4968 33.6034 58.3704 33.9297C59.3232 34.7572 59.5626 34.9602 59.8208 35.1862C58.1358 36.0391 55.9119 36.2608 56.3459 39.645C55.1719 38.4994 54.5155 37.8578 53.5603 36.926C54.2283 37.9506 52.4306 38.7775 53.9669 39.5861C53.3126 40.1438 52.6582 40.7014 51.6974 41.5269C51.6998 41.519 51.8368 42.0268 51.8368 42.0268C50.8155 43.2735 50.04 44.225 49.4494 44.9402C50.0518 45.6169 50.5968 46.2846 51.2125 46.8619C51.3671 47.0043 51.7737 46.8879 52.0627 46.8733C52.2996 46.8599 52.7274 46.7586 52.7414 46.7974C53.6855 49.8124 58.0283 49.1213 58.8022 52.3255C58.8459 52.52 59.221 52.7302 59.4616 52.761C60.6536 52.8947 61.8467 52.9684 62.6902 53.0294C63.4669 52.3542 64.1491 51.762 64.8313 51.1698C65.6039 51.0969 66.3686 51.0216 67.1436 50.9409C66.7111 51.7305 66.2811 52.5123 65.5809 53.7801C66.1775 55.6537 68.1114 56.8518 70.4591 57.7978C71.6645 58.2805 72.5913 59.445 73.9149 60.5245C74.1367 60.4203 74.8638 60.0747 75.2067 59.9128C76.2794 60.4065 77.02 60.7463 77.6102 61.014C77.588 61.7314 77.5693 62.381 77.5507 63.0306C77.867 62.9554 78.3578 62.9856 78.468 62.7953C79.4215 61.0966 81.4578 62.3262 81.5493 62.5613C82.446 64.6651 84.5783 64.3204 86.0812 64.817C87.6999 65.3577 88.1757 65.9697 87.6313 67.5441C90.9269 66.4448 93.746 67.3719 95.3664 70.431L100.942 52.2957C100.989 52.2842 101.485 52.3247 101.738 52.092C101.988 51.8671 102.182 51.1508 102.054 51.0339C101.514 50.5486 100.893 50.0731 100.207 49.8363C99.034 49.4154 97.8208 49.0424 96.5894 48.8966C94.8509 48.6897 93.4213 48.095 92.386 46.6385C92.2405 46.4385 91.8242 46.2502 91.6012 46.3023C88.903 46.9731 87.2302 45.4586 85.4798 43.7477C84.6658 42.9456 83.3877 42.3629 82.2448 42.2099C80.8771 42.0308 79.6452 42.0832 78.5166 40.986C78.0712 40.5559 76.849 40.9131 75.9861 40.9151C75.8588 40.7121 75.7291 40.517 75.5939 40.3116C75.706 40.0874 75.8259 39.8656 75.9404 39.6335C74.455 38.8836 72.8891 38.2556 71.5145 37.3415C70.6964 36.8054 70.1781 35.8268 69.2555 34.7327C69.2879 35.6652 69.3134 36.1991 69.3476 37.0977C67.8881 35.8988 66.716 34.9435 65.5172 33.9627C65.9824 33.459 66.5265 32.8675 66.8239 32.545C67.8475 32.946 68.7474 33.3003 69.771 33.7012C69.7304 33.8612 69.6426 34.2308 69.5803 34.4617C70.7868 34.6602 71.9697 34.8514 73.4719 35.0977C73.0061 35.7996 72.7214 36.2208 72.1271 37.1159C73.4674 36.683 74.3133 36.3998 75.0119 36.1748C75.8168 36.8103 76.558 37.4004 77.3495 38.0231C77.939 37.3679 78.4115 36.8406 79.0591 36.1085C80.8072 41.0522 85.7233 40.796 89.2669 42.9288C88.964 43.241 88.6101 43.6064 88.2563 43.9719C88.3206 44.0434 88.3824 44.1228 88.4545 44.1967C89.035 43.8233 89.6233 43.4523 89.9238 43.2602C92.3042 44.1559 94.5004 44.9777 96.7493 45.8243C96.7379 46.2261 96.7326 46.7763 96.7218 47.3162C96.8557 47.3574 96.9866 47.3804 97.1205 47.4216C97.2944 47.0525 97.4682 46.6834 97.6269 46.3356C98.3984 46.7711 99.1674 47.2145 100.187 47.7954C100.196 47.7118 100.16 48.1923 100.114 48.7643C101.009 48.2376 101.988 47.9695 102.424 47.3362C103.001 46.4962 103.343 45.3854 103.48 44.3498C103.749 42.2682 103.928 40.2279 105.76 38.7562C106.037 38.5307 105.737 37.654 105.799 37.0868C105.947 35.7094 106.142 34.3465 106.276 33.2927C107.544 34.4414 108.615 35.4173 109.382 36.1189C108.722 36.7523 107.958 37.4402 107.299 38.2117C107.258 38.2596 107.947 38.9369 108.222 39.2459C107.668 39.6187 107.034 40.0533 106.567 40.3667C106.956 41.2622 107.264 41.9693 107.642 42.8443C106.774 42.7239 106.159 42.647 105.555 42.5648C105.522 42.7011 105.489 42.8375 105.455 42.9738C105.918 43.1506 106.371 43.3329 106.834 43.5098C106.658 44.3612 106.488 45.1969 106.318 46.0586C105.713 46.0884 105.063 46.1298 104.222 46.173C105.406 47.4252 106.258 48.7218 107.445 49.4578C108.395 50.043 109.757 49.9615 110.935 50.1684C110.892 50.3624 110.842 50.5539 110.8 50.7478C111.583 50.6955 113.036 50.5128 113.054 50.5958C113.374 52.3324 116.486 49.4437 115.857 52.3888C116.755 52.1044 117.559 51.8431 118.62 51.5053C118.235 52.4217 118.006 52.9719 117.779 53.5143C118.272 53.3385 118.864 52.8996 119.243 53.0419C120.608 53.5391 122.391 51.6384 123.477 53.8003C123.589 54.0245 124.369 53.928 124.839 53.9691C125.562 54.0277 126.285 54.0603 127.003 54.1086C127.62 54.1515 128.241 54.2047 128.858 54.2475C128.871 54.0621 128.885 53.8767 128.899 53.6913C128.562 53.6392 128.216 53.5848 128.282 53.5963C124.795 41.9958 119.534 31.7901 109.469 24.617C109.416 25.0146 109.342 25.5351 109.315 25.7078L101.437 23.2857C103.683 21.3376 108.876 21.4425 110.006 24.2734C110.794 22.5238 111.598 23.2192 112.491 24.0716C113.345 24.8859 114.285 25.6146 115.229 26.3276C116.188 27.0534 117.194 27.7076 118.246 28.4364C118.033 28.8194 117.736 29.366 117.398 29.9866C118.293 29.9943 119.047 30.0105 119.297 30.0098C124.763 35.1739 127.106 41.8269 130.102 48.2664C129.827 48.4579 129.438 48.7434 128.743 49.2368C129.673 49.3506 130.28 49.425 130.672 49.4679C132.07 55.9423 133.454 62.3519 134.864 68.8991C134.065 68.9726 133.647 69.0163 133.007 69.0782C133.571 69.6568 134.038 70.1281 134.585 70.6758C131.905 72.6888 134.357 74.8395 134.443 77.1682C133.848 76.9423 133.322 76.746 132.796 76.5498C135.079 77.8467 134.464 79.9338 133.993 81.6603C133.575 83.1874 134.819 85.5098 132.04 86.2163C134.461 88.7197 131.016 90.2214 131.16 92.5592C130.593 92.1006 130.166 91.7534 129.746 91.4087C129.593 91.5948 129.436 91.7706 129.284 91.9566C130.838 93.1846 132.392 94.4125 133.996 95.6732C131.784 96.0797 129.736 96.4588 127.725 96.8319C127.979 97.35 128.451 98.1419 128.385 98.1904C127.729 98.6698 126.981 99.0263 126.165 99.4652C126.256 99.5882 126.479 99.8724 126.861 100.369C124.408 100.382 126.998 104.214 123.759 103.813C124.949 106.533 122.405 106.785 121.175 107.925C121.055 108.035 120.775 107.966 120.572 107.981C120.616 108.089 120.66 108.198 120.715 108.301C121.419 109.656 120.176 109.661 119.566 109.681C117.8 109.733 117.289 110.748 117.197 112.255C117.144 113.127 115.773 114.473 114.921 114.694C114.574 114.785 113.999 115.195 114.03 115.377C114.459 117.992 112.491 117.353 111.141 117.593C110.487 120.393 109.763 120.981 107.537 120.451C107.508 121.08 107.48 121.702 107.443 122.328C106.843 122.29 106.059 122.877 105.39 123.594C105.184 123.815 104.673 123.736 104.364 123.899C103.357 124.426 102.428 125.149 101.373 125.523C100.23 125.931 98.9864 126.023 97.6871 125.761C96.9105 126.773 96.1315 127.792 95.436 128.708C93.5473 129.102 91.6586 129.495 90.5897 129.718C86.3985 130.87 82.9429 131.817 79.4952 132.766C79.5334 132.95 79.5716 133.134 79.6177 133.321C78.9947 132.879 78.3717 132.438 77.6717 131.938C77.6433 132.395 77.6167 132.818 77.5902 133.353C75.3087 133.117 72.962 131.326 70.7186 133.827C70.4719 133.311 70.3124 132.961 70.0439 132.404C69.8143 132.842 69.655 133.164 69.483 133.499C67.862 133.19 66.3278 131.14 64.8364 133.019C63.9528 132.695 63.2443 132.167 62.6499 132.277C61.7543 132.442 60.937 133.053 60.0917 133.474C60.1833 133.709 60.2694 133.934 60.3609 134.169C59.7283 134.207 59.106 134.24 58.3068 134.288C58.3496 133.671 58.3919 133.141 58.453 132.298C58.0059 132.91 57.7103 133.311 57.2026 134.009C56.6528 133.02 56.1981 132.199 55.7538 131.373C55.6774 131.229 55.6883 130.913 55.6071 130.897C53.5497 130.437 51.4342 130.166 49.4405 129.527C47.3916 128.871 45.3462 128.035 43.4857 126.963C40.7397 125.377 38.2015 123.424 35.4683 121.825C35.0295 121.569 34.0116 122.3 33.2645 122.57L33.293 122.562L33.2591 122.56ZM104.401 119.237C105.811 118.438 107.213 117.636 109.017 116.621C108.985 116.697 109.085 116.09 109.44 115.777C113.044 112.694 116.294 109.33 118.911 105.306C119.452 104.472 120.395 103.762 120.858 102.731C120.875 102.676 121.448 102.861 121.76 102.94C122.409 101.277 122.092 99.1098 124.432 98.3979C124.678 98.3269 124.831 96.9598 124.556 96.4527C124.292 95.9662 123.431 95.71 122.778 95.5611C122.133 95.4146 121.413 95.5984 120.745 95.4967C119.659 95.3267 118.582 95.073 117.52 94.7981C117.016 94.6692 116.546 94.4039 116.293 94.3003C114.592 96.2434 112.906 98.1653 111.126 100.196C111.331 100.483 111.636 100.922 111.935 101.35C110.882 102.7 109.605 103.824 108.987 105.247C108.22 107.012 107.948 108.963 105.046 109.174C108.685 111.388 103.727 111.08 104.531 112.336C104.06 112.243 103.606 112.146 103.151 112.058C103.377 113.369 103.601 114.688 103.837 116.08C103.728 116.124 103.365 116.297 102.993 116.468C99.7744 116.056 98.6612 118.498 97.423 120.394L95.6977 119.864C95.7851 120.589 95.8828 121.309 95.9964 122.258C95.6844 122.964 93.5509 123.256 95.059 125.195C98.2004 123.194 101.29 121.221 104.388 119.25L104.401 119.237ZM33.5799 76.3629C35.1612 75.2021 41.2586 75.8437 42.4763 77.296C42.5193 77.3523 42.5393 77.4275 42.5745 77.4814C43.1485 78.2787 43.7328 79.0706 44.4063 79.9933C44.9726 78.6843 44.9146 76.8816 46.834 78.3512C46.9243 78.4221 47.724 77.7281 48.0578 77.2875C48.3104 76.9426 48.3431 76.4439 48.4666 76.0421C48.8726 76.236 49.1575 76.3753 49.1787 76.3904C49.5003 75.6529 49.6753 74.9996 50.0411 74.4827C51.1588 72.8948 50.6689 71.6836 48.7794 70.9302C46.9662 70.2088 45.199 69.3379 43.5027 68.3766C40.2076 66.5012 36.9774 64.4992 33.9314 62.6832C33.7989 63.2546 33.799 63.8151 33.5506 64.2303C33.149 64.8915 32.3523 65.3795 32.1415 66.0648C31.7128 67.4593 31.2094 68.0029 29.5854 67.9003C30.1703 68.494 30.6188 68.9423 31.297 69.6251C30.4087 69.6537 29.8615 69.6666 29.3197 69.6897C29.4543 69.8691 29.581 70.046 29.7156 70.2253C29.0788 70.866 28.4318 71.5121 27.7315 72.2194C28.0994 72.6774 28.6497 73.3554 29.1977 74.0412C29.3432 74.3532 29.4808 74.6629 29.6263 74.9749C29.2676 75.0198 28.7877 75.2344 28.5574 75.086C27.2999 74.2682 27.3332 74.244 26.9432 75.6245C26.8827 75.8214 26.7664 76.0875 26.5961 76.1645C24.5227 77.1308 25.3046 78.0093 26.9324 78.8288C25.9239 80.8469 24.9954 82.7171 23.9197 84.8697C25.7486 85.708 27.7159 87.1061 29.8478 87.408C31.4015 87.627 31.9366 87.8778 31.7376 89.5067C32.5811 89.2314 33.2966 88.7271 33.7881 88.8954C35.9455 89.6191 38.0895 90.4421 40.1385 91.4342C41.3778 92.0309 41.962 92.2622 42.1222 90.5352C42.2226 89.4796 42.6508 88.3954 43.1657 87.45C44.0658 85.8125 45.3665 84.3585 46.0405 82.6428C46.304 81.9823 46.3271 79.5233 45.5806 79.9319C43.3649 81.1649 42.0232 78.3208 40.0868 79.2344C39.9474 79.295 39.2649 78.2056 38.8775 77.6985C37.2438 77.2911 35.4082 76.8388 33.5751 76.3787L33.5799 76.3629ZM52.8197 81.2349L52.4721 82.1973C51.0124 82.3176 49.2987 82.058 49.2907 84.3837C48.7647 84.2996 48.2441 84.2257 47.9327 84.1731C47.6203 85.5257 47.3472 86.6662 47.0942 87.7697C46.5876 87.8467 45.9332 87.956 45.7151 87.9924C45.8753 89.2661 45.9985 90.1835 46.1005 90.9736C45.3224 90.812 44.8467 90.6485 44.3777 90.6595C44.2734 90.662 43.984 91.4352 44.1155 91.5964C44.9677 92.6948 45.7654 93.9145 46.8563 94.7414C48.563 96.0335 50.5278 96.9911 52.2981 98.2166C52.9526 98.6679 53.3727 99.461 53.8934 100.095C55.123 100.723 56.3291 101.569 57.5169 102.417C58.0975 102.828 58.6551 103.258 59.2079 103.704C61.1691 105.29 63.1376 106.852 65.0352 108.505C65.2189 108.665 64.933 109.37 64.8683 109.833C67.3029 109.375 67.5117 110.715 67.1284 112.046C68.2234 112.27 69.1979 112.466 69.9917 112.633C70.2121 111.916 70.2549 110.739 70.6839 110.578C72.1441 110.035 73.0299 109.342 73.4216 107.703C73.619 106.893 74.8338 106.335 75.5845 105.661C76.2382 104.965 76.4886 102.972 76.7128 102.972C78.4416 102.987 78.5255 101.339 79.1222 100.549C80.2047 99.131 80.8897 97.2118 78.382 96.1131C78.3426 96.101 78.417 95.8307 78.4346 95.6895L78.4715 95.4853C79.058 95.1482 79.8044 94.4033 80.1965 94.5584C80.8886 94.8315 81.3693 95.6519 81.9626 96.2741C82.1304 95.9808 82.2958 95.5832 82.5435 95.2541C83.4135 94.1075 85.1462 92.8467 84.9957 91.8778C84.7706 90.5065 85.4311 90.2095 86.0387 89.5513C86.9541 88.5651 86.6716 87.7453 85.5437 87.2348C84.6953 86.8532 83.7506 86.7007 82.8973 86.3349C82.6446 86.2313 82.5603 85.7484 82.3584 85.3673C81.8864 85.5843 81.2684 86.1359 80.8691 86.0044C78.2838 85.1579 75.7374 84.1852 73.1963 83.2229C71.5128 82.5846 69.8893 81.7233 68.1555 81.2764C66.5345 80.8556 65.5943 79.4543 63.6709 79.1474C61.1718 78.7499 58.8591 76.8489 56.6161 75.3659C54.6827 74.0817 52.0007 73.9987 51.1199 75.1247C51.5098 76.1845 52.0674 76.9509 51.9821 77.649C51.8799 78.5143 51.2547 79.3138 51.0112 79.8252C51.6967 80.3723 52.244 80.8078 52.7888 81.2513L52.8197 81.2349ZM37.4933 54.4916C37.648 54.9703 37.7947 55.4465 37.9493 55.9252C37.6706 56.1585 37.3919 56.3919 37.1054 56.6228C37.4448 57.2015 37.7789 57.7698 38.1323 58.3872C37.1616 58.6837 36.4108 58.9099 35.5747 59.1616C36.3884 61.7313 38.7887 61.9174 40.5026 62.9617C42.2959 64.0563 44.1818 64.9897 46.0805 66.0218C45.5928 66.4582 45.2378 66.7716 44.6786 67.2722C48.1391 66.4219 49.817 69.3781 52.0168 69.9078C53.5233 67.3358 54.6298 64.4941 56.5927 62.485C57.6619 61.391 57.9175 60.6159 57.7336 59.2228C58.3869 59.5099 58.8426 59.7104 59.2983 59.9108C59.8566 60.7033 60.4149 61.4958 60.9653 62.2859C59.9952 62.7205 59.2651 63.0479 58.4265 63.4196C58.8077 63.6661 59.0829 63.8369 59.5592 64.1386C58.019 64.717 56.9454 65.5165 57.8152 66.8101C56.5072 67.8393 55.3706 68.7315 54.2552 69.6389C54.2219 69.6631 54.4104 69.9194 54.4559 70.08C54.9452 71.7135 55.8398 72.7302 57.5352 72.096C57.5147 72.7795 57.4906 73.3067 57.472 73.8442C58.2009 73.6889 58.9323 73.5257 59.2904 73.4548C60.1988 73.9496 60.9479 74.3179 61.6569 74.7601C62.3793 75.215 63.0563 75.7336 64.2121 76.5459C64.6054 76.641 65.6567 76.7831 66.6142 77.1465C68.3056 77.7873 69.911 78.6516 71.6121 79.2609C73.5392 79.9482 75.5572 80.3962 77.497 81.0702C80.6095 82.1651 83.6826 83.36 86.7781 84.5101C86.7539 84.5888 86.5758 84.9997 86.2972 85.6815C89.6686 84.5882 89.5049 81.6148 90.5709 79.3816C91.7708 76.8532 93.2579 74.4563 94.8716 71.5637C92.7082 70.9158 90.5799 70.3218 88.4831 69.6254C87.7553 69.3844 86.836 69.0931 86.4523 68.5181C85.1254 66.5236 82.6447 67.1319 80.9623 65.8731C79.7974 65.0062 78.1279 64.8551 76.7523 64.2252C73.7773 62.8793 70.8272 61.4808 67.9218 59.9926C67.2437 59.6461 66.8024 58.8379 66.2538 58.2381C66.358 58.0114 66.4676 57.7951 66.5718 57.5684C65.7265 57.7655 64.5334 57.6919 64.0948 58.221C62.9692 59.5822 61.8317 59.3273 60.5391 58.792C61.4198 56.9933 60.9681 55.8541 59.0803 54.9547C57.8016 54.346 56.7961 53.1573 55.3445 51.9608C53.9121 52.3568 49.7769 49.2316 48.3552 45.8627C48.0717 46.336 47.8282 46.7354 47.5471 47.2009C46.7484 46.8259 45.989 46.4631 45.2351 46.1106C44.3938 44.8086 43.5239 43.515 42.7341 42.1857C42.4898 41.7743 42.2915 41.2132 42.3617 40.7606C42.4041 40.4546 42.959 39.9957 43.2644 40.012C43.6323 40.0216 44.0353 40.4215 44.3165 40.7408C44.4372 40.8813 44.2658 41.4667 44.3076 41.4709C44.7136 41.5527 45.1336 41.5611 45.2535 41.5635C45.3276 42.2761 45.3799 42.8354 45.4558 43.6261C46.7159 42.3321 47.6228 41.3175 48.6206 40.3999C50.1952 38.9525 51.9329 37.676 53.3905 36.1322C54.3901 35.0686 55.9497 34.4271 56.2487 32.7255C56.2693 32.6025 57.2443 32.7126 57.7496 32.5834C58.115 32.4888 58.7003 32.2117 58.7233 31.9687C58.762 31.5064 58.474 31.0126 58.3891 30.7278C57.1615 30.8504 55.8289 30.7253 54.7286 31.163C53.5222 31.6372 51.9193 31.2133 51.0877 32.8805C50.754 33.5454 49.3712 33.7238 48.435 34.0482C48.0782 34.1713 47.4443 33.9333 47.2874 34.1351C45.6662 36.1545 43.7159 37.4778 40.8612 37.4796C41.2824 37.7643 41.5897 37.9709 41.9952 38.2508C41.3705 38.5157 40.8542 38.7364 40.3095 38.9655C40.8393 39.5423 41.3314 40.073 42.126 40.9382C39.9384 40.5932 38.3707 40.3354 36.6019 40.0589C36.8207 43.2735 34.0254 43.3626 32.2829 44.6549C32.5066 44.853 32.8181 45.1298 32.6902 45.0129C31.7736 45.7227 31.1271 46.1706 30.5449 46.6901C30.3534 46.864 30.3717 47.4215 30.2111 47.467C28.2704 47.974 28.8558 51.1461 26.3883 51.0945C26.3283 51.0933 26.2284 51.6145 26.1934 51.8969C26.1275 52.644 26.1034 53.3954 26.049 54.3014C26.3563 54.3958 26.8829 54.3939 27.0029 54.6205C28.2068 56.8187 30.3921 57.3957 32.5343 58.0285C33.3142 58.2683 34.0439 58.9237 34.5393 57.2566C34.8535 56.2064 35.3251 54.0836 37.5006 54.4679L37.4933 54.4916ZM86.6348 99.7283L86.2157 101.091C85.8935 101.915 84.9144 102.295 84.2931 101.595C82.7718 99.8685 82.526 101.173 81.9639 102.328C81.4315 103.414 80.5872 105.319 80.0516 105.266C76.7532 104.916 79.0333 106.868 78.8669 107.886C78.3784 107.623 77.9033 107.374 77.3306 107.077C76.7069 109.162 76.4474 111.548 73.0787 110.866C73.6545 111.517 73.9679 111.872 74.2679 112.214C74.1207 112.385 74.0456 112.517 73.9402 112.579C72.3461 113.529 71.4344 114.784 71.9793 115.339C72.9545 116.346 74.0727 117.225 74.9685 118.293C75.6928 119.163 76.1742 120.233 76.8743 121.406C78.4062 121.359 79.6706 122.912 79.3008 124.928C79.0557 126.258 79.135 126.197 80.5275 126.211C81.0935 126.221 81.7154 126.947 82.1657 127.473C82.2864 127.614 81.8781 128.213 81.3857 129.337C82.426 128.786 82.9452 128.472 83.4948 128.227C84.0625 127.979 84.6575 127.782 85.2447 127.584C85.4955 127.497 85.8591 127.548 86.0118 127.388C87.2858 126.021 88.2853 124.173 89.8382 123.357C91.674 122.378 92.5924 120.961 93.5113 119.347C93.5313 119.31 93.6809 119.356 93.7191 119.316C95.579 117.361 97.4389 115.406 99.2909 113.449C99.4653 112.882 99.6397 112.315 99.8141 111.748C100.794 111.282 101.774 110.815 102.601 110.423C102.952 109.281 103.073 107.99 103.705 107.029C104.775 105.4 106.184 103.988 107.399 102.448C107.581 102.219 107.416 101.746 107.502 101.41C107.638 100.883 107.848 99.9212 108.03 99.917C109.729 99.8875 108.946 98.1722 109.749 97.5224C110.253 97.1169 110.407 96.3103 110.792 95.7303C111.207 95.1079 111.71 94.5382 112.217 93.9006C110.961 93.9457 110.123 94.1192 109.358 93.9703C108.376 93.7718 107.219 93.5539 106.554 92.9099C105.439 91.8255 104.261 93.1879 103.692 92.7972C101.451 91.2803 98.3058 92.0294 96.4329 89.7635C96.3498 89.669 96.1523 89.5824 96.0329 89.606C93.5522 90.2144 90.9487 88.6982 88.4615 90.1409C87.3067 90.812 87.3691 90.6932 87.5391 92.2717C87.6623 93.4133 87.0966 94.6363 86.8454 95.818C85.7557 94.819 85.7565 95.966 85.4227 96.5188C84.986 97.2381 84.4856 97.9121 84.1555 98.3969C84.8579 98.7767 85.7396 99.2461 86.6293 99.718L86.6348 99.7283ZM100.898 60.2066C102.422 62.0375 102.179 62.9114 100.359 63.671C100.499 64.3951 100.627 65.0726 100.707 65.4852C99.6981 65.8217 98.9298 66.077 97.8924 66.422C98.5754 66.8648 98.8985 67.0763 99.2639 67.318C98.0861 68.1199 98.0422 69.5809 99.1239 70.1291C101.055 71.1109 102.965 72.1637 104.978 72.9376C106.274 73.4312 107.745 73.4436 109.116 73.753C109.415 73.819 109.618 74.2782 109.535 74.1837C111.844 74.8934 113.87 75.5941 115.942 76.119C116.975 76.3763 118.147 76.5469 119.132 76.2892C119.684 76.1485 119.984 75.0595 120.569 74.1098C120.494 74.1038 120.869 74.1158 120.885 74.1207C121.304 72.7578 121.764 71.5972 122.007 70.3871C122.502 67.9092 123.082 65.4319 123.632 62.997C124.249 60.2633 125.501 57.8459 124.096 55.9653C121.714 55.5519 119.951 55.1996 118.178 54.9649C116.289 54.712 114.631 54.2712 112.968 53.0615C111.743 52.1673 109.689 52.3981 107.996 52.1276C108.044 51.97 108.092 51.8124 108.139 51.6628C106.567 52.0333 105.006 52.3985 103.77 52.6908C103.871 53.8773 103.946 54.7541 104.024 55.623C103.82 55.5001 103.622 55.3874 103.418 55.2644C102.649 56.0542 101.704 56.7464 101.194 57.676C100.986 58.0433 101.737 58.9381 102.052 59.5955C102.167 59.8379 102.29 60.0827 102.406 60.325C102.001 60.2954 101.588 60.2634 100.88 60.2096L100.898 60.2066ZM49.6158 100.013C49.5819 100.124 49.548 100.234 49.5141 100.344C47.2184 99.0606 44.9306 97.7795 42.6374 96.4881C43.794 98.5596 41.7756 98.8703 41.5765 99.8265C41.455 101.315 41.3311 102.812 41.1872 104.458C40.732 103.835 40.3283 103.297 40.0804 102.954C39.9444 104.266 39.4327 105.79 39.7608 107.106C40.0664 108.356 41.2459 109.4 42.0442 110.533C42.0611 110.478 42.0623 110.418 42.0793 110.363C45.5158 113.713 48.9524 117.063 52.4265 120.46C52.183 120.859 51.9371 121.266 51.9322 121.282C53.079 122.488 54.0627 123.524 55.0488 124.551C54.9306 124.627 54.8022 124.708 54.6841 124.784C55.4071 125.153 56.1197 125.527 56.5603 125.749C58.1597 124.137 59.7004 122.575 61.2131 121.049C61.5604 121.405 61.8035 121.653 62.2738 122.142C62.4953 120.917 62.6521 120.042 62.8227 119.095C63.293 119.36 63.6021 119.533 63.4385 119.448C64.8004 118.047 66.032 116.762 67.6205 115.129C61.7428 110.183 55.6869 105.087 49.6286 99.9999L49.6158 100.013ZM94.6148 80.392C93.4132 80.6262 92.5697 80.7894 92.1546 80.8773C92.5433 81.9971 92.8392 82.8296 93.2503 84.0166C92.1316 83.6727 91.6905 83.537 91.7298 83.5491C91.8561 84.4847 91.9926 85.527 92.1286 86.5431C94.0865 86.7657 96.5152 86.607 98.3087 88.5984C98.5014 88.8129 98.8614 88.9322 99.1571 88.98C101.114 89.2886 103.08 89.5136 105.033 89.864C106.384 90.0983 108.182 90.0561 108.934 90.8909C110.051 92.1396 110.813 91.5377 111.926 91.3968C113.309 91.2184 113.582 90.2161 114.08 89.2997C114.937 87.718 115.786 86.1338 116.622 84.5369C117.163 83.5048 117.455 82.2753 118.215 81.4571C119.507 80.0606 118.25 79.381 117.625 78.5249C117.577 78.4583 116.752 79.1789 116.336 79.1287C114.84 78.9449 113.333 78.7143 111.912 78.2341C111.144 77.981 110.56 77.1891 109.691 76.4821C109.53 76.5276 108.755 77.0307 108.175 76.8697C105.984 76.2563 103.835 75.4751 101.705 74.6648C99.2974 73.7436 96.9042 72.4128 94.6894 75.3534C95.0688 75.4097 95.3827 75.4545 95.579 75.489C95.4611 76.7979 95.336 78.1304 95.2048 79.5387C94.5593 79.142 94.0381 78.8179 93.5169 78.4938C93.4515 78.5944 93.3861 78.695 93.3207 78.7956C93.7153 79.2791 94.102 79.7601 94.6148 80.392ZM20.652 94.8246C20.2824 94.8489 19.8425 94.8775 19.8346 94.8751C19.5949 96.2155 19.4127 97.2287 19.2536 98.1111L28.9121 101.081C28.96 101.458 29.0104 101.939 29.0687 102.422C31.6433 101.929 31.7749 104.755 33.4651 105.68C33.8031 105.085 34.1235 104.52 34.4942 103.875C35.2076 104.499 35.9397 105.147 37.1592 106.229C37.2673 104.727 36.9543 103.389 37.4566 102.906C39.4025 101.064 39.2178 98.5236 39.9638 96.3214C40.6148 94.4003 39.3069 92.9893 37.1617 92.7868C36.3073 92.7052 35.4213 92.6139 34.6268 92.3092C34.2796 92.1766 34.223 91.2107 33.8897 91.1169C31.9681 90.5519 29.9641 90.2548 28.0594 89.6347C26.7353 89.2018 25.525 88.3985 24.2566 87.7843C23.7081 87.5209 23.1373 87.3022 22.5713 87.0678C22.4853 87.6278 22.3994 88.1877 22.3117 88.7816C22.1238 88.7755 21.7718 88.7708 21.2736 88.7642C23.5885 91.7523 20.5732 91.7997 18.5095 92.9587C19.713 93.0269 20.256 93.0559 20.8068 93.0873C20.7657 93.5575 20.7101 94.1871 20.652 94.8246ZM31.4896 60.8373C30.8763 60.7005 29.7571 60.5547 29.7649 60.445C29.8192 58.9786 28.5345 59.1182 27.7746 58.6173C26.7364 57.9273 25.8115 57.0652 24.7788 56.3856C24.4133 56.1439 23.8541 56.1961 23.2626 56.1005C23.4167 57.0015 23.5265 57.682 23.6631 58.5L22.3947 58.11C22.4579 58.9141 22.515 59.6819 22.5253 59.7885C21.2699 60.2821 20.4719 60.6058 19.4231 61.0163C21.2266 61.9933 21.811 62.8973 20.1144 63.4794C19.9868 64.5956 20.1797 65.7069 19.7423 66.0639C19.0056 66.6652 18.9893 67.0827 18.9477 67.9753C18.9055 68.9539 19.7913 71.1491 17.1764 70.7074C18.6209 72.9364 17.8315 79.178 15.814 80.7479C16.4278 80.7986 16.8981 80.8398 16.872 80.8404C17.4704 82.3436 17.9633 83.573 18.6618 85.3399C19.9347 84.0325 21.1488 83.1124 21.8896 81.9088C22.4397 81.0173 21.9775 79.3231 22.6385 78.7158C25.0783 76.4738 23.3976 72.1803 26.8718 70.5841C26.9209 70.5647 26.9312 70.4471 26.9609 70.3786C27.9875 68.2454 28.2742 65.7985 30.3778 64.1171C31.1993 63.4643 31.2014 61.7748 31.492 60.8295L31.4896 60.8373ZM59.1159 126.552C58.9657 126.928 58.7573 127.269 58.7137 127.635C58.6653 128.017 58.6952 128.733 58.8079 128.759C60.6744 129.195 62.6445 130.051 64.44 129.793C67.8775 129.297 71.2537 130.965 74.708 129.63C75.9998 129.13 77.6906 129.633 79.3315 129.68C79.309 129.277 79.4404 128.765 79.2385 128.496C77.9172 126.736 76.5624 125 75.1387 123.321C74.2459 122.27 73.2101 121.348 72.233 120.375C71.6403 119.779 71.0451 119.191 70.4499 118.603L70.8133 117.869C69.7384 118.056 68.6713 118.246 67.6406 118.429C67.8643 118.963 67.9941 119.27 68.1651 119.668C66.0816 119.096 65.0651 120.327 65.1934 122.686C63.0613 124.04 61.0886 125.296 59.1134 126.56L59.1159 126.552ZM116.058 91.3911C116.706 93.1252 118.169 92.5747 119.49 92.5411C120.759 92.5087 122.098 92.4981 122.765 94.1171C123.459 93.6837 124.227 93.2042 124.951 92.7544C125.41 93.5336 125.823 94.2382 126.442 95.2822L130.744 81.2907C129.089 81.2305 127.226 81.2612 125.397 81.0695C123.844 80.9026 122.325 80.4872 120.832 80.1834C120.979 81.8067 121.072 82.8786 121.2 84.2287L119.066 83.5723C119.499 84.1539 119.868 84.6641 120.538 85.5686C119.357 85.0932 118.743 84.8443 118.122 84.5929C118.042 84.7408 117.96 84.8966 117.888 85.0469C118.39 85.46 118.901 85.8756 119.52 86.3851C116.708 86.9777 119.385 90.948 116.071 91.4038L116.058 91.3911ZM130.488 79.0651C130.839 77.4743 131.204 75.8963 131.513 74.3014C131.578 73.9766 131.429 73.5942 131.345 73.2495C131.077 72.1582 130.466 71.0306 130.598 69.9847C130.865 67.7989 131.024 65.149 130.481 63.5506C129.82 61.5795 130.818 57.9974 126.919 57.4111C126.897 57.9044 126.694 58.4801 126.883 58.8745C127.197 59.5658 127.742 60.1475 128.195 60.7782C128.08 60.8721 127.957 60.9636 127.842 61.0576C127.239 60.8293 126.645 60.6034 125.495 60.1637C128.063 62.6088 127.652 64.4226 124.686 65.3473C125.462 65.5168 126.046 65.636 126.83 65.808C126.025 66.2075 125.433 66.5082 124.781 66.8337C126.693 68.5251 126.533 69.4075 124.416 70.6277C124.551 71.5918 124.682 72.5116 124.804 73.3509C124.224 73.328 123.765 73.3074 123.306 73.2869C123.394 74.9351 123.48 76.5912 123.551 77.9843C124.736 78.0035 125.834 77.8239 125.92 78.0487C126.75 80.1748 128.114 79.1026 129.416 78.8217C129.878 78.7222 130.435 79.0402 130.491 79.0572L130.488 79.0651ZM35.8703 114.516C36.0916 115.17 36.3462 115.576 36.3638 115.995C36.4881 118.845 38.8374 121.749 41.5305 122.749C44.1946 123.732 46.7405 125.015 49.3652 126.098C50.1524 126.426 51.0383 126.517 51.8801 126.724C52.0412 126.481 52.2126 126.232 52.3738 125.988C50.0245 123.42 47.7413 120.778 45.3053 118.296C42.987 115.936 40.4875 113.745 38.0699 111.484C38.2048 113.569 37.447 114.828 35.86 114.521L35.8703 114.516ZM36.4748 113.391C35.834 112.194 35.1928 111.531 35.1556 110.838C35.023 108.521 33.7454 107.404 31.6729 106.741C30.8875 106.491 30.2904 105.712 29.5523 105.253C27.2269 103.813 24.8712 102.416 22.0519 100.705C22.4557 101.915 22.571 102.718 22.9638 103.348C24.6247 106.023 26.3396 108.662 28.0853 111.286C28.7636 112.305 29.3614 113.67 30.3389 114.109C32.0649 114.889 32.914 115.745 32.168 117.948C34.6884 116.368 33.9893 114.127 34.0052 112.028C34.647 112.381 35.2597 112.716 36.4772 113.383L36.4748 113.391ZM20.3836 86.6108L16.6258 85.4554C17.4763 87.0362 18.2395 88.4522 19.2452 90.3135L20.3836 86.6108Z" fill="black"/>
<path d="M75.5833 40.3173C75.7106 40.5203 75.8403 40.7154 75.9755 40.9208C76.4391 41.46 76.8925 42.0046 77.3562 42.5438C76.1647 41.9878 75.2981 41.3851 74.3059 42.9856C73.5244 44.2371 72.2061 45.1597 71.1004 46.2598C71.2278 46.6869 71.3854 47.1838 71.4254 47.3341C70.6644 47.5657 69.9372 47.575 69.5756 47.938C68.6741 48.8508 67.9405 49.9187 67.1378 50.9308C66.3652 51.0037 65.6005 51.079 64.8255 51.1597C64.7915 50.8216 64.6417 50.2151 64.732 50.1739C66.9163 49.2675 67.72 47.2985 68.6394 45.3738C68.8332 44.9677 69.5331 44.7949 69.9778 44.5263C70.0524 44.7045 70.1858 45.0559 70.5623 45.9908C71.2439 42.7082 73.5069 41.6018 75.5833 40.3173Z" fill="black"/>
<path d="M80.629 37.1432C80.213 35.8599 80.4521 34.6055 81.8015 34.115C82.8146 33.7366 84.1466 31.2834 84.9482 33.8925C83.4905 34.9878 82.0152 36.1122 80.6369 37.1457L80.629 37.1432Z" fill="black"/>
<path d="M63.4001 31.6215C63.4774 30.8089 63.5548 29.9963 63.6346 29.1758C64.4081 30.3621 65.1895 31.5508 65.8496 32.5729L64.3449 32.1103C64.1013 32.2855 63.8577 32.4607 63.6118 32.6437C64.3245 33.0181 65.0372 33.3924 65.7601 33.7613C65.2415 33.9898 64.7307 34.2208 64.2224 34.4439C63.9501 33.5065 63.6802 32.5613 63.4079 31.6239L63.4001 31.6215Z" fill="black"/>
<path d="M33.2333 122.561C33.9678 122.864 34.7078 123.178 35.4714 123.499C35.3363 123.854 35.1867 124.256 35.1401 124.38C33.7816 124.592 32.6618 124.756 31.5475 124.931C31.4929 124.716 31.4359 124.509 31.3813 124.294C32.0065 123.718 32.6342 123.135 33.2618 122.552L33.2333 122.561Z" fill="black"/>
<path d="M37.4855 54.489C37.4806 53.8321 37.4653 53.1807 37.4603 52.5239C37.8724 52.754 38.2742 52.9897 38.6627 53.2126C38.4591 50.4252 40.9069 49.3067 42.3269 47.4927C43.152 46.4357 43.7074 45.3303 45.2892 46.0753C45.0986 47.3964 44.9134 48.7277 44.718 50.0645C44.0407 50.753 43.1177 47.641 42.6626 50.131C42.5633 50.6782 43.4906 51.4203 43.5617 52.3389C43.1011 51.93 42.6404 51.5211 41.6477 50.6554C41.7341 52.1133 41.7833 52.9907 41.8363 54.0245C41.1733 53.881 40.4946 53.7327 39.8238 53.5868C39.759 53.7135 39.6838 53.8456 39.619 53.9723C39.9178 54.2625 40.2142 54.5605 41.0149 55.3499C39.7794 55.5823 38.8553 55.7552 37.9312 55.9281C37.7766 55.4494 37.6299 54.9731 37.4752 54.4945L37.4855 54.489Z" fill="black"/>
<path d="M95.1895 108.446C97.1435 107.391 97.7057 109.461 98.856 110.151C99.3293 110.435 99.5064 111.205 99.8137 111.748C99.6393 112.315 99.4649 112.882 99.2905 113.449C97.8162 113.393 95.0967 110.936 94.8292 109.422C94.9466 109.096 95.0641 108.77 95.1816 108.444L95.1895 108.446Z" fill="black"/>
<path d="M86.6348 99.7279C86.7475 99.6418 86.9287 99.4733 86.9499 99.4885C88.2239 100.561 89.539 101.612 90.7215 102.787C90.9803 103.039 90.7884 103.747 90.8025 104.346C90.9073 104.37 91.3236 104.446 91.7454 104.533C91.6049 105.214 91.4724 105.897 91.2623 106.945C90.6623 106.261 90.1186 105.645 89.5798 105.014C88.4542 103.71 87.3389 102.402 86.2158 101.091C86.3563 100.634 86.4944 100.185 86.6348 99.7279Z" fill="black"/>
<path d="M72.8851 92.1721C73.2256 91.6818 73.5739 91.194 74.1112 90.4279C75.1367 91.4675 76.1247 92.4611 77.2623 93.6128C77.2235 93.6267 77.5962 93.5085 77.521 93.5285C77.9127 94.3301 78.2 94.9099 78.4874 95.4898L78.4504 95.694C77.8384 95.7214 77.0083 96.0094 76.6416 95.7156C75.3077 94.6415 74.1203 93.3711 72.8827 92.18L72.8851 92.1721Z" fill="black"/>
<path d="M52.8117 81.2325C54.6122 81.9672 56.4102 82.7097 58.2028 83.4419C57.5424 83.8511 56.6591 84.7609 56.2561 84.5852C54.9022 83.9965 53.7192 83.0206 52.4641 82.1949L52.8117 81.2325Z" fill="black"/>
<path d="M68.1608 87.8484C69.191 88.3118 70.2037 88.8042 71.2539 89.2306C71.9672 89.5189 72.7326 89.6938 73.3156 89.8731C73.2145 90.5663 73.0856 91.4062 72.9592 92.2382C70.6134 91.9309 69.0412 90.5939 68.0149 88.5193C68.067 88.2939 68.1111 88.066 68.1632 87.8406L68.1608 87.8484Z" fill="black"/>
<path d="M68.161 87.8488C68.1089 88.0742 68.0648 88.3021 68.0127 88.5275C67.8837 88.6948 67.7298 89.0269 67.6328 89.0057C66.2773 88.7872 64.9241 88.5609 63.6 88.24C63.3746 88.1879 63.2708 87.6559 63.1071 87.3469C63.158 87.1815 63.2089 87.016 63.2597 86.8506C64.9907 85.5117 66.8899 85.8972 68.1531 87.8464L68.161 87.8488Z" fill="black"/>
<path d="M63.2681 86.8526C63.2172 87.0181 63.1663 87.1835 63.1155 87.349C62.044 86.5711 60.9852 85.78 59.9088 85.0179C59.3761 84.6472 57.8473 85.1601 58.679 83.6051C59.2516 83.5656 59.8376 83.4267 60.3896 83.5102C61.3604 83.6621 62.7941 83.4303 62.0619 85.335C61.9413 85.6428 62.8492 86.3358 63.2759 86.8551L63.2681 86.8526Z" fill="black"/>
<path d="M95.1896 108.446C95.0721 108.772 94.9546 109.098 94.8371 109.424C93.4384 108.813 93.2444 108.21 93.0484 107.081C92.8919 106.188 92.133 105.403 91.639 104.57C92.325 105.031 94.0748 103.827 93.785 105.919C93.7729 105.959 94.5558 106.104 94.3855 106.069C94.7136 107.05 94.9543 107.753 95.1847 108.462L95.1896 108.446Z" fill="black"/>
<path d="M29.0909 74.0519C29.677 72.0333 30.9547 73.3746 31.9128 73.5398C32.4442 73.6342 32.9164 74.0898 33.6406 74.5108C33.4371 74.8363 33.0645 75.4029 32.6623 76.0381C32.875 76.1034 33.2531 76.2197 33.6392 76.3384C32.6065 75.8829 30.94 75.6379 30.6884 74.9138C30.2967 73.7759 29.54 74.4141 29.0909 74.0519Z" fill="black"/>
</svg>
