<svg width="187" height="110" viewBox="0 0 187 110" fill="none" xmlns="http://www.w3.org/2000/svg">
<path d="M136.317 8.92671C133.829 9.14948 131.338 9.32704 128.859 9.62059C127.816 9.7428 126.807 10.1936 125.766 10.361C122.976 10.8038 120.258 11.4052 117.656 12.6164C116.343 13.229 114.779 13.27 113.36 13.6736C112.969 13.7808 112.686 14.2589 112.666 14.8486C111.783 14.9381 110.9 15.0211 109.908 15.1217C110.132 15.5392 110.322 15.8935 110.583 16.3871C109.87 16.0681 109.349 15.8315 109.237 15.7781C108.184 16.276 107.385 16.6531 106.446 17.0945C106.444 17.0622 106.489 17.3515 106.54 17.6405C106.45 17.4955 106.359 17.3505 106.269 17.2055C104.563 18.0161 102.836 18.7953 101.145 19.644C100.498 19.9693 99.8955 20.3963 99.3327 20.8539C99.0325 21.0997 98.9187 21.6158 98.6029 21.7975C97.8446 22.2246 96.9814 22.4686 96.2234 22.9022C95.6486 23.2309 95.1724 23.7495 94.6467 24.1667C94.4025 24.3583 94.0382 24.4645 93.8934 24.7101C93.6515 25.1087 93.5487 25.579 93.3807 26.0392C92.813 26.2317 92.0728 26.4768 91.2306 26.7587C91.3964 27.004 91.5687 27.249 91.5482 27.224C89.2382 29.1993 86.7827 30.9479 84.7782 33.1043C82.8417 35.1866 80.6401 37.1249 78.7616 39.8065C78.0418 40.5297 76.9582 41.5208 76.0025 42.6293C75.6264 43.066 75.5391 43.7492 75.2843 44.2972C75.2311 44.4159 74.9999 44.4582 74.8474 44.5229C72.9916 45.314 72.584 45.9203 71.3995 48.0352C70.9006 48.9301 69.7912 49.4693 69.0079 50.2211C68.6471 50.56 68.3946 51.0109 68.2751 51.5466C66.7312 52.0655 65.4954 53.7361 65.9747 55.4111C65.3495 55.4701 64.7563 55.5214 64.1707 55.5981C63.9584 55.6266 63.5932 55.7134 63.5718 55.8179C63.2403 57.9028 60.9723 58.2844 60.0139 59.9367C58.9957 61.7015 57.6458 63.4287 55.6823 64.425C55.5177 64.5097 55.5561 64.9546 55.4441 65.2117C55.2736 65.6137 54.9167 66.3473 54.8709 66.3363C53.6339 65.8585 53.7442 67.0768 53.2724 67.5435C52.0065 68.8141 50.714 70.0665 49.3602 71.3992C49.4214 71.4677 49.6319 71.6982 49.8356 71.9224C49.7496 72.0296 49.6975 72.1742 49.6082 72.2039C49.1039 72.3678 48.075 71.6094 48.3145 73.1263C48.3682 73.4735 46.9648 73.9476 46.3937 74.5155C45.7358 75.1713 45.3144 76.063 44.6772 76.7502C44.1885 77.2758 43.5313 77.6469 42.9547 78.0857C41.2626 79.3745 39.523 80.6137 37.8853 81.9649C36.5665 83.0566 35.3841 84.3107 34.0925 85.4337C33.8118 85.6786 33.2518 85.599 32.938 85.8259C32.4609 86.1699 32.0803 86.6521 31.6646 87.071C31.7746 87.2216 31.8845 87.3723 32.001 87.5226C31.5197 87.4655 31.0445 87.4017 31.0445 87.4017C30.5335 88.0124 30.2913 88.5533 29.8854 88.7454C28.94 89.187 27.4441 89.1603 27.0271 89.8511C26.1331 91.3453 25.038 91.9163 23.4266 91.9139C23.3168 91.9186 23.2274 92.4013 23.082 92.634C22.8821 92.9531 22.6464 93.4938 22.4012 93.5108C19.8379 93.6461 17.9137 95.1067 15.9342 96.4855C15.7709 96.6025 15.3109 96.2856 14.8709 96.1362C15.1164 97.6399 14.0057 97.545 13.076 97.7465C12.1719 97.9404 11.2859 98.2565 10.2185 98.5674C10.4931 98.9375 10.7055 99.2132 11.0007 99.6082C9.97915 99.7813 8.97877 99.8435 8.05939 100.135C7.03157 100.464 6.10771 101.105 5.0726 101.415C4.06306 101.717 2.97844 101.776 2.03007 102.146C-0.201232 102.63 -2.43281 103.107 -4.85033 103.624C-4.57871 103.923 -4.35479 104.166 -3.89966 104.671C-5.24657 104.347 -6.30308 104.004 -7.3898 103.862C-7.81915 103.81 -8.32072 104.187 -8.77078 104.407C-9.30934 104.676 -9.80087 105.137 -10.3652 105.258C-12.142 105.625 -13.9393 105.967 -15.7387 106.109C-16.3063 106.152 -16.9287 105.519 -17.7798 105.439C-16.9358 106.412 -16.098 107.392 -15.1381 108.503C-14.9899 107.882 -14.913 107.562 -14.7536 106.901C-14.3845 107.513 -14.1828 107.841 -13.8768 108.339C-13.4742 107.766 -13.1568 107.318 -12.7537 106.758C-12.0844 107.428 -11.3877 109.042 -10.5316 106.967C-9.42606 107.851 -9.28643 107.787 -8.53564 106.882C-8.33241 106.64 -7.58986 106.602 -7.24598 106.775C-6.85577 106.972 -6.62617 107.499 -6.12566 108.157C-6.00033 107.304 -5.91877 106.789 -5.84368 106.275C-5.22485 106.067 -4.5931 105.859 -3.87848 105.621C-3.66461 105.78 -3.24332 106.099 -2.57476 106.601C-2.6681 105.628 -2.72412 105.074 -2.78705 104.358C-1.8038 104.653 -0.49992 103.212 -0.133483 105.125C0.761007 104.705 1.50644 103.825 2.65029 104.547C2.71008 104.583 3.16699 104.22 3.2222 103.998C3.59699 102.319 4.23599 103.644 4.93928 103.899C4.95707 103.406 4.97005 102.953 4.99933 102.123C5.50463 102.742 5.81887 103.13 6.09861 103.467C6.77851 102.72 7.37748 102.047 7.98318 101.381C9.02085 102.495 9.766 102.366 10.4223 100.914C10.6892 101.103 10.9564 101.299 11.3901 101.604C11.4855 100.959 11.5555 100.478 11.7003 99.4748C12.0191 100.121 12.1899 100.483 12.3668 100.838C12.4806 100.775 12.5877 100.705 12.7014 100.642C12.665 100.243 12.6288 99.8493 12.5609 99.0174C13.2356 99.5128 13.6768 99.8434 14.111 100.161C15.5147 97.4223 18.2398 96.0764 19.6066 97.6228C20.2373 96.6317 20.8496 95.6672 21.5956 94.4965C21.8462 95.0617 21.9827 95.3794 22.2337 95.9511C22.5479 95.2776 22.7493 94.8419 23.028 94.2476C23.341 94.4542 23.6273 94.6426 23.9071 94.8313C23.6377 94.5839 23.3745 94.3299 23.1051 94.0825C23.8707 93.6745 24.6365 93.2729 25.44 92.8439C25.8487 93.1694 26.1568 93.4151 26.6525 93.808C26.6732 93.2312 26.6945 92.8226 26.7094 92.4143C27.3595 92.4836 28.0161 92.5526 28.7245 92.6259C28.7721 92.0738 28.8002 91.6714 28.8354 91.2816C30.0957 90.9431 30.0059 90.811 30.1695 90.7005C30.7475 90.294 31.3945 89.9881 32.153 89.5674C32.2211 88.2832 33.5715 87.3261 35.2028 87.7935C35.1037 87.4418 35.0202 87.1542 34.8916 86.7196C35.3608 86.7967 35.7716 86.8697 36.1364 86.9253C36.1625 86.1735 36.1844 85.4737 36.2052 84.7481C36.5288 84.5984 36.9578 84.3406 37.4249 84.2171C37.732 84.1328 38.1028 84.3305 38.4168 84.2589C38.8592 84.1623 39.4305 84.0538 39.6692 83.733C40.1651 83.0711 40.4271 82.2381 40.8961 81.5516C41.0667 81.3048 41.7235 81.0762 41.8776 81.199C42.8554 81.9726 43.1662 81.6746 43.6054 80.5946C43.8629 79.9559 44.9058 79.6784 45.4373 79.0927C45.9629 78.5202 46.2867 77.7686 46.6981 77.0975C46.8635 77.181 47.0223 77.2648 47.1877 77.3483L47.1157 75.6625C49.9475 74.9979 50.3673 74.6758 50.4169 73.716C51.0178 73.0885 51.3149 72.7717 51.761 72.3061C52.157 72.1856 52.8913 71.9537 53.6323 71.7279C53.4543 71.6514 53.2763 71.5748 53.0986 71.5048C53.2598 70.7343 53.4146 69.9641 53.5761 69.2001C53.9554 69.2939 54.335 69.3941 54.7276 69.4939C55.5453 66.974 59.0629 66.3061 59.4385 63.2809C62.1827 63.7461 60.6356 61.159 61.7026 60.2334C61.9749 60.3965 62.3266 60.6015 62.6851 60.8126C63.588 59.6804 64.4909 58.5483 65.3263 57.5031C65.529 57.5526 66.0958 57.7938 66.1692 57.6936C66.596 57.08 66.949 56.4048 67.2429 55.7128C67.4902 55.1393 67.4471 54.2804 67.8481 53.9721C68.2429 53.6705 69.0425 53.9081 69.3983 53.9059C69.8093 53.3771 70.202 52.875 70.595 52.3794C70.7054 52.2387 70.8757 52.1344 70.9469 51.9825C71.8875 49.9169 73.2121 48.2037 75.2689 47.1193C75.5853 46.9504 76.0614 46.4318 75.998 46.3116C75.1918 44.7088 76.4419 44.5842 77.4114 44.1028C78.3939 43.6208 79.297 42.948 80.1678 42.2767C80.4623 42.0505 80.7067 41.5612 80.7165 41.1855C80.7617 39.061 81.2091 38.6278 83.5478 37.9325C83.9633 37.8112 84.1337 36.8009 84.379 36.1822C84.5366 35.7807 84.6156 35.3567 84.7271 34.9378C85.1468 35.0687 85.5666 35.1996 86.0781 35.3589L86.0434 34.545C86.3954 34.7565 86.701 34.944 87.2922 35.3006L87.21 33.3757C87.9612 33.0848 88.9031 32.7145 89.7688 32.3798C90.6224 29.6385 92.5302 28.0945 95.4688 27.6583C95.2553 27.0527 95.0858 26.5681 94.8938 26.0133C95.5141 25.385 96.2337 24.5066 97.2381 25.7514C98.0526 24.9725 98.8296 24.2274 99.7869 23.3065C99.7206 23.2705 100.032 23.4448 100.344 23.6256C100.884 22.166 102.916 21.115 104.283 21.6002C105.154 20.7993 106.026 20.005 106.917 19.1839C106.814 19.0589 106.922 19.3131 107.066 19.3458C107.712 19.4671 109.235 18.4637 109.853 17.9325C110.284 17.5647 111.028 17.5653 111.636 17.4034C111.706 17.5427 111.777 17.6821 111.848 17.8214C112.346 17.2242 112.851 16.6267 113.541 15.8013C113.697 16.1117 113.846 16.416 113.988 16.7141C114.083 16.6647 114.178 16.6153 114.273 16.566C114.218 16.193 114.169 15.8197 114.059 15.0609C114.543 15.7779 114.799 16.1617 115.165 16.7026C115.49 15.6857 115.782 14.7802 116.067 13.8815C116.165 13.9161 116.271 13.9569 116.369 13.9915C116.459 14.5895 116.543 15.1813 116.633 15.7792C116.75 15.7807 116.873 15.7819 116.99 15.7899C117.01 15.3684 117.031 14.9468 117.056 14.4605C118.499 15.3824 120.13 14.9245 120.744 13.5329C121.169 12.5764 122.948 12.2739 123.8 12.9817C124.102 13.2276 124.514 13.3394 124.693 13.4289C125.596 12.6008 126.418 11.841 126.885 11.4133C128.226 11.8996 129.251 12.2764 130.684 12.7976C130.239 11.9301 130.063 11.5817 129.907 11.2777C130.858 10.0464 131.794 10.9124 132.661 11.1989C133.77 11.5722 134.609 11.5234 135.34 10.4439C135.571 10.0975 136.295 10.086 136.793 9.91588C136.649 9.57905 136.505 9.24222 136.368 8.90512L136.317 8.92671Z" fill="black"/>
<path d="M172.124 11.7069C172.537 11.6764 172.973 11.7225 173.356 11.6026C174.608 11.232 175.738 10.103 177.196 11.0503C177.355 11.1535 177.73 10.9757 177.844 11.0873C178.756 11.9802 179.631 12.9135 180.883 14.2124C180.085 14.156 179.572 14.1196 179.001 14.0793C179.029 14.2723 179.074 14.5745 179.085 14.6711C174.176 15.6508 169.274 16.6367 164.301 17.6257C164.777 19.0679 162.995 18.8657 162.369 19.6561L162.406 19.6221C162.39 20.0046 162.381 20.3868 162.346 21.2425C163.493 20.6822 164.438 20.2148 165.471 19.7112C165.471 19.7048 165.588 20.0233 165.595 20.0424C166.435 20.0065 167.108 20.1525 167.609 19.9111C168.281 19.5912 168.811 18.9861 169.543 18.3854C169.617 18.4534 170.009 18.8314 170.495 19.3025C170.714 18.8272 170.909 18.3918 171.104 17.9628C172.383 19.1248 173.888 18.9181 174.475 17.3464C174.842 17.7708 175.169 18.1386 175.489 18.5068C175.625 18.5139 175.767 18.5143 175.903 18.5214L175.804 16.196C176.497 16.6582 177.046 17.0813 177.655 17.4047C177.992 17.578 178.563 17.7736 178.79 17.6151C179.663 16.9954 180.439 16.2375 181.088 15.6726C181.762 15.9868 182.217 16.2068 182.673 16.4203C182.779 16.0146 182.884 15.6089 182.997 15.2093C183.817 12.1522 182.783 10.8051 179.765 9.98928C178.075 9.5308 176.646 8.18761 175.021 7.40931C174.05 6.94604 172.907 6.84604 171.869 6.49561C171.548 6.3864 171.305 6.0085 171.054 5.7345C170.898 5.55998 170.838 5.23249 170.661 5.16242C169.22 4.61567 167.762 4.1085 166.31 3.5946C165.751 3.39843 165.181 3.21574 164.688 2.90027C163.702 2.23704 162.786 1.24079 161.708 1.0021C160.558 0.753536 159.246 1.22377 157.784 1.40268C157.586 1.90943 156.868 2.82664 157.074 3.41964C157.531 4.72024 158.216 6.20524 159.276 6.93649C160.096 7.50973 160.572 8.3436 161.309 8.93335C162.227 9.67713 162.815 9.80086 163.703 9.21937C163.801 8.80101 163.893 8.38292 163.871 8.468C162.862 6.35621 160.41 6.05975 159.653 4.09251C160.308 3.83155 160.735 3.6645 161.231 3.46857C162.801 4.91577 166.231 5.99875 166.608 5.27083C167.101 5.76744 167.629 6.29496 168.129 6.79775C168.424 6.4357 168.726 6.07338 169.089 5.63078C170.015 8.08259 172.108 8.60794 174.296 9.37515C173.598 9.69617 172.984 9.87123 172.501 10.2284C172.156 10.4825 171.983 10.9753 171.728 11.3615L172.124 11.7005L172.124 11.7069Z" fill="black"/>
<path d="M162.369 19.6626C163.251 18.1819 161.737 18.4925 161.31 18.4978C159.836 18.5219 158.365 18.7789 156.895 18.9128C156.347 18.9621 155.782 18.9086 155.231 18.8998C155.262 18.7173 155.294 18.5412 155.325 18.3587C155.595 18.4701 155.858 18.5818 155.97 18.6223C156.343 18.121 156.791 17.2348 156.994 17.2908C159.022 17.8125 158 16.1478 158.507 15.4402C158.899 16.1482 159.313 16.8941 159.783 17.7412C161.017 16.4848 162.046 15.4378 163.001 14.4652C163.23 15.1219 163.43 15.7023 163.762 16.6717C164.031 15.5536 164.196 14.8542 164.41 13.952C164.808 14.6339 165.087 15.1138 165.422 15.6819C166.547 14.7602 166.918 13.9031 165.87 13.1455C164.733 13.194 163.661 13.091 162.674 13.3273C161.893 13.516 161.214 14.1274 160.474 14.5343C160.266 14.6532 160.031 14.7668 159.799 14.7961C157.798 15.0563 155.955 15.5492 154.366 16.9824C153.7 17.5868 152.474 17.5163 151.572 17.9236C150.772 18.2814 149.898 18.7328 149.39 19.3952C148.856 20.091 148.711 21.0937 148.306 22.2111C149.562 21.9245 150.617 22.5201 151.062 21.2845C151.086 21.2253 152.138 21.3292 152.205 21.5334C153.026 23.9315 153.597 22.6128 154.258 21.2709C154.867 21.5879 155.45 21.8931 156.099 22.2407C156.044 21.8612 155.997 21.5332 155.902 20.8125C158.376 23.4312 158.528 19.4319 160.366 19.7288C159.992 20.2171 159.71 20.5786 159.434 20.9399C159.53 21.0587 159.625 21.1776 159.721 21.3029C160.616 20.7405 161.518 20.1843 162.407 19.6287L162.363 19.6629L162.369 19.6626Z" fill="black"/>
<path d="M171.734 11.3679C171.297 11.1212 170.859 10.8681 170.415 10.6218C169.702 11.953 169.508 11.9742 167.278 10.9564C167.513 10.8687 167.723 10.7885 167.927 10.7087C168.3 10.1945 166.565 9.57614 163.734 9.1988C163.669 9.79692 163.61 10.3948 163.533 11.1552C164.083 11.3064 164.797 11.5089 165.937 11.8291C166.376 12.4186 167.172 13.4911 168.161 14.8143C168.212 14.2038 168.238 13.905 168.273 13.5024C168.684 13.7307 169.061 13.9346 169.572 14.2169C169.794 13.6509 170.003 13.1049 170.219 12.5521C170.301 12.6651 170.384 12.778 170.466 12.891C171.019 12.492 171.578 12.0928 172.13 11.6875L171.734 11.3485L171.734 11.3679Z" fill="black"/>
<path d="M138.16 9.96112C138.484 10.4068 138.8 10.8462 139.323 11.5681L139.259 10.0824C139.843 10.4263 140.262 10.6738 140.68 10.9277C142.74 9.35566 144.944 9.25287 147.293 10.6193C147.123 9.51355 146.97 8.49766 146.844 7.66827C146.372 7.68841 145.928 7.7462 145.486 7.70683C145.285 7.68955 144.942 7.39357 144.937 7.40677C143.644 9.27388 141.907 8.138 140.334 8.13399C140.069 8.13239 139.799 8.33157 139.532 8.43359C139.074 8.93846 138.624 9.44951 138.167 9.95438L138.16 9.96112Z" fill="black"/>
<path d="M138.16 9.96118C138.617 9.45631 139.068 8.94526 139.525 8.44039C139.191 8.18289 138.856 7.9254 138.715 7.81492C137.992 8.00113 137.32 8.17866 136.373 8.41974C136.387 8.30264 136.355 8.61462 136.323 8.92015C136.467 9.25697 136.611 9.5938 136.748 9.9309C137.221 9.9366 137.694 9.94875 138.166 9.95445L138.16 9.96118Z" fill="black"/>
<path d="M152.068 9.38623C151.331 9.24947 150.953 9.1815 150.581 9.11326C150.577 9.02929 150.567 8.95205 150.557 8.86835C150.973 8.75999 151.396 8.65135 151.812 8.54944C151.807 8.42671 151.789 8.311 151.784 8.18827C151.019 8.14977 150.26 8.111 149.495 8.07251C150.343 8.84516 149.836 10.9052 151.902 10.3575C151.637 10.2071 151.451 10.0985 151.232 9.97198C151.44 9.83369 151.628 9.70268 152.075 9.39888L152.068 9.38623Z" fill="black"/>
</svg>
