<svg width="104" height="105" viewBox="0 0 104 105" fill="none" xmlns="http://www.w3.org/2000/svg">
<path d="M18.4504 16.726V18.3414C18.7631 18.3414 18.9715 18.4009 19.0981 18.3339C20.3263 17.6491 21.3759 17.4034 22.7754 18.3339C24.0483 19.1751 25.8349 19.2049 27.212 19.9418C29.3335 21.0733 31.2987 22.5026 33.0481 23.9988C33.7478 24.103 34.4475 24.2221 35.1473 24.2966C35.7949 24.371 36.6658 24.6613 37.0455 24.3561C37.4102 24.0658 37.4028 23.1279 37.3209 22.5026C37.1348 21.0361 36.6435 19.592 36.6063 18.1255C36.5765 17.0312 37.0529 15.9444 35.8023 15.1926C35.6981 15.133 35.9512 14.5077 36.0108 14.143C36.0926 13.5996 36.3532 12.9743 36.1745 12.5276C35.4674 10.7113 36.1745 6.59481 37.7899 5.63454C38.6831 5.10601 40.0231 5.32189 41.3481 5.1879C41.2513 5.68664 41.1843 6.02907 41.1173 6.37893C41.4672 6.4757 42.1595 6.49804 42.219 6.69902C42.7178 8.47813 44.5564 9.0141 45.4646 10.3615C45.74 10.7634 45.5093 11.5078 45.5093 12.2746C47.5638 12.1629 48.4868 13.8006 49.4471 15.2968C50.3404 16.6888 52.5885 17.2992 51.9334 19.5696C52.6034 19.6441 53.2584 19.7185 53.519 19.7483C58.9605 14.1728 64.3127 8.67912 69.7468 3.10359C70.1339 3.55023 70.454 3.92242 71.1909 4.78592C70.0818 2.00188 72.248 1.50314 73.2901 1.36915C74.4514 1.22027 75.3744 -1.23624 76.7888 0.810848C77.764 -0.119648 79.9748 0.111115 81.0095 1.25004C82.5802 2.98449 82.5579 5.32933 80.8606 6.93723C81.3817 7.5253 82.1187 8.04638 82.3643 8.73867C82.543 9.24486 82.0591 9.97437 81.7837 10.9123C82.6621 11.9396 82.0294 15.5276 80.8606 15.9742C81.3222 17.1503 81.7763 18.3116 82.2973 19.6292C81.4785 19.525 80.9872 19.4654 80.347 19.3761C80.4289 22.1378 81.4413 24.9442 79.223 27.3262C79.7813 27.5719 80.3172 27.8101 81.4115 28.294C80.0195 28.6736 79.2676 28.882 78.5084 29.0905C80.5778 29.2319 79.7738 30.8249 79.7813 31.6735C79.7813 32.4998 79.2379 33.3335 78.8657 34.1449C78.1808 35.6486 78.9401 36.2069 80.28 36.9587C82.9747 38.4773 84.8878 36.393 87.1582 36.0655C87.4709 36.0208 87.7538 35.7007 88.059 35.6784C90.1507 35.5146 92.2425 35.3955 94.3342 35.2541C95.6667 35.1647 97.1406 34.6511 98.2944 35.0605C99.9544 35.6486 102.709 34.5618 103.006 37.7999C101.51 37.4575 100.997 38.0158 101.741 39.3036C99.076 40.9785 96.4409 42.5789 93.8727 44.2762C91.3418 45.951 88.8555 47.6929 86.4064 49.4869C85.7141 50.0006 85.2377 50.812 84.7836 51.3554C83.4586 52.3305 82.4462 53.0824 81.2254 53.9756C81.2105 54.2362 81.1807 54.8912 81.1361 55.6654C80.481 55.7845 79.8408 55.8962 79.4165 55.9706C79.2304 56.5661 79.223 57.2659 78.8806 57.5487C77.3992 58.7547 77.3099 60.0425 77.8161 61.8513C78.6423 64.814 80.6745 66.9281 82.2527 69.4889C82.0815 69.9504 81.8507 70.5682 81.605 71.2382C82.3643 71.0446 83.0641 70.866 84.2849 70.5533C83.7787 71.4243 83.5703 71.789 83.6149 71.7146C85.1781 73.6351 86.6446 75.4068 88.0738 77.2008C89.6296 79.1586 91.1333 81.1461 92.0564 83.6175C93.7313 83.3718 93.3293 85.538 94.1928 86.4537C94.8776 87.1757 94.5799 88.7985 95.2349 89.5876C96.7684 91.4113 94.0365 91.8877 94.4533 93.1383C89.4584 93.3319 86.4585 89.8258 82.9673 87.3097C79.3272 84.6894 75.7541 81.9649 72.2331 79.1809C71.3026 78.4439 70.8038 77.1487 69.8659 76.4266C67.8486 74.8708 65.675 73.516 63.4567 71.9975C62.0497 72.593 60.4046 73.2927 58.6702 74.0297C58.3278 74.7145 57.8811 75.6078 57.4196 76.5234C56.906 76.4192 56.3998 76.3224 56.0201 76.248C56.0722 76.7021 56.2881 77.1934 56.1244 77.4241C55.1641 78.7566 54.3676 80.4985 53.0426 81.2057C51.4644 82.0543 50.9731 83.6101 49.7449 84.5927C48.1965 85.8284 47.4149 87.868 46.1494 89.0144C44.8319 90.2054 44.2066 92.1706 42.3232 92.8034C41.5788 93.0564 40.9461 93.652 40.1943 94.1358C40.559 95.5576 35.7874 100.404 34.0009 100.575C33.6882 101.409 33.6361 102.317 33.1895 102.585C32.5642 102.964 31.656 102.875 30.8298 102.987C30.8372 104.051 29.2963 105.257 28.0085 104.952C26.7877 104.662 25.3733 105.011 25.083 103.009C24.9267 101.9 23.8622 101.096 24.2493 99.5997C24.8895 97.1432 25.2245 94.5676 25.3808 92.0217C25.4999 90.1459 26.0135 88.5082 26.676 86.7663C27.7033 84.0344 28.135 81.0791 28.8348 78.2281C29.0655 77.2752 29.1846 76.2405 29.6313 75.3919C30.5767 73.583 29.8025 71.8858 29.4526 70.1811C29.207 68.9976 26.5495 68.3574 25.1947 68.6254C23.0806 69.0571 21.0633 69.8089 18.9418 70.2184C18.0857 70.3821 17.3115 70.9628 16.4704 71.268C16.0684 71.4168 15.5845 71.3573 15.0783 71.3945C14.0213 72.0868 12.8973 73.1513 11.5648 73.6277C9.11572 74.5061 6.47311 74.8634 4.05382 75.8088C2.84046 76.2852 1.90996 76.0172 1.24745 75.3845C0.599823 74.7666 1.09112 73.6724 1.10601 72.794C1.15812 68.9827 4.04638 67.4194 6.24235 65.2011C7.20262 64.2334 8.72863 63.5188 9.20505 62.8042C10.932 60.2211 13.7905 59.246 15.9269 57.3329C17.3636 56.0451 18.8971 54.6828 20.5348 53.5439C23.2369 51.6531 23.3114 47.745 20.8176 45.7426C19.0832 44.3431 17.5274 42.6906 16.0237 41.038C13.6119 38.3954 11.3191 35.6412 8.94451 32.9613C7.44083 31.2641 5.46073 29.8349 4.46324 27.892C3.62207 26.2618 2.27471 25.2419 1.26978 23.8574C-0.516772 21.4009 -0.516772 17.0089 1.90252 15.9072C3.77095 15.0586 6.10836 14.7608 8.18522 14.932C11.5946 15.2149 14.9518 16.071 18.4504 16.7112V16.726ZM97.3118 37.651C97.3639 37.6808 97.1183 37.4054 96.9247 37.4352C94.1109 37.9116 91.312 38.4996 88.4833 38.9239C86.7414 39.1845 84.9623 38.9686 83.2204 39.6013C82.3718 39.914 80.9872 39.11 80.3396 39.5492C78.7019 40.6361 77.5555 39.847 76.7962 38.7751C76.0816 37.7627 75.6201 36.3409 75.635 35.0977C75.6499 33.2516 76.1263 31.3981 76.5059 29.5669C76.6101 29.0607 77.295 28.6141 77.295 28.1451C77.2727 25.9566 77.1833 23.8201 77.8756 21.6614C78.3669 20.1205 78.4041 18.4307 78.5902 16.8005C78.6498 16.2943 78.5009 15.7658 78.4562 15.2447C78.5084 15.2075 78.5605 15.1628 78.62 15.1256C78.8806 13.1827 79.1411 11.2398 79.357 9.61706C79.0815 8.24737 78.4711 7.01167 78.687 5.94718C79.0443 4.16808 78.7093 2.63462 77.0345 2.62717C75.6424 2.62717 73.9973 3.34924 72.9328 4.28718C72.0098 5.09857 72.3001 5.42611 70.9751 5.9844C68.7493 7.74118 67.8188 10.8974 64.9827 11.3664C64.5732 12.3564 64.2383 13.6815 64.0075 13.6666C62.7346 13.5698 62.4592 14.6417 61.9009 15.2521C59.9282 17.4183 57.2931 19.0783 56.5487 22.175C56.1318 22.0559 55.7745 21.9517 55.4172 21.8549C55.2757 22.0038 55.1343 22.1601 55.0003 22.309C55.6703 23.1055 56.4668 23.835 56.9953 24.7209C57.7248 25.9491 58.2459 27.3039 58.8935 28.5843C59.1466 29.083 59.623 29.485 59.7868 29.9912C60.2185 31.3534 60.1813 33.0358 60.9927 34.0705C61.8488 35.1573 61.1565 35.79 61.0895 36.6461C61.0448 37.1895 61.4766 38.1125 61.2905 38.2317C60.7396 38.5815 59.9878 38.6187 59.3178 38.7751C59.3923 38.2614 59.4965 37.7404 59.5337 37.2267C59.5411 37.1076 59.3029 36.9885 59.2285 36.8471C58.2459 34.9563 58.3129 32.537 56.3179 31.1376C56.1616 31.0259 56.3402 30.5272 56.2211 30.2741C55.6703 29.1128 55.1864 27.8697 54.375 26.9094C54.2038 26.7084 52.7969 27.6538 51.9185 27.9069C51.3602 28.0706 50.7126 27.9367 50.132 27.9367C50.6233 26.0682 50.988 24.6762 51.3677 23.2172C51.1964 22.8524 50.9955 22.3016 50.7051 21.8028C50.0352 20.6565 49.4918 19.3835 48.6059 18.4233C46.8715 16.5399 44.549 15.2596 43.4249 12.7286C42.755 11.225 41.8022 9.70638 39.9784 9.17786C39.7402 9.11087 39.5169 8.97688 39.2861 8.87266C39.1893 9.11087 38.9883 9.35652 39.0032 9.58728C39.1223 10.9719 39.2935 12.3564 39.4424 13.741C39.2042 13.875 38.8469 14.0834 38.5789 14.2323C40.0901 15.4978 39.5318 16.5921 38.5119 17.6342C40.492 18.6317 40.7228 19.9195 39.6732 21.2669C40.1645 22.4877 40.9163 23.4852 40.8568 24.4305C40.7972 25.5397 40.1794 26.7084 39.5392 27.6761C38.9809 28.5173 35.7279 28.1823 34.4847 27.4602C32.7429 26.4553 30.9563 25.5174 29.1623 24.6241C27.3162 23.701 25.1649 23.18 23.6314 21.8922C22.0533 20.5671 20.1998 20.6565 18.5249 20.1279C16.0535 19.3463 13.0982 19.7706 10.8502 18.6689C8.0289 17.2843 5.54262 18.4977 2.55759 18.2223C3.30198 19.5622 3.86772 20.582 4.47068 21.6539C3.94216 22.0261 3.42109 22.3983 3.30198 22.4802C4.12082 23.1725 5.03643 23.768 5.71383 24.572C6.35401 25.3387 6.59221 26.4627 7.26962 27.1699C9.30926 29.2915 11.5127 31.2492 13.5895 33.3335C15.8748 35.6263 17.84 38.2168 20.1105 40.5318C21.9193 42.3779 23.557 44.4176 25.1277 46.4796C26.6686 48.5043 26.3336 50.812 24.4875 52.1593C24.748 52.6283 25.016 53.1121 25.3808 53.7746C24.681 53.8863 23.7952 53.8789 23.7506 54.065C23.2592 56.2088 20.7432 56.1195 19.7978 57.7497C19.567 58.1443 18.7557 58.1666 18.4132 58.5462C17.6167 59.4321 16.9617 61.2112 16.2098 61.2335C13.2992 61.3228 12.7484 64.6652 10.2621 65.1044C10.0983 67.4343 7.62692 66.5262 6.50289 67.8437C8.3341 68.3648 6.9793 69.3549 6.54011 69.3846C4.54512 69.5037 4.53768 71.1637 3.84539 72.4516C4.29203 72.4739 4.72378 72.6228 5.05876 72.4962C6.54011 71.9305 7.98424 71.2605 9.46558 70.6873C11.6541 69.8387 13.865 69.0348 16.0609 68.2085C17.0212 67.8512 17.9889 67.5013 18.979 67.1366C19.0609 67.3897 19.1353 67.6428 19.2172 67.9033C20.1626 67.4269 21.0558 66.7495 22.0533 66.5262C24.2493 66.0349 26.4899 65.6478 28.738 65.4691C30.5543 65.3277 31.5593 66.7941 30.9563 68.2234C31.6784 68.402 32.4228 68.5881 33.2714 68.804C32.8843 69.3846 32.661 69.7122 32.5047 69.9355C33.0108 70.3077 33.4128 70.598 33.8073 70.8883C33.7478 70.9851 33.6808 71.0819 33.6213 71.1786C33.3309 71.134 33.0481 71.0893 32.7429 71.0446C32.929 72.6153 34.8048 74.3572 32.192 75.3696C32.728 75.7418 33.1895 76.0619 33.8222 76.5011C32.7205 77.1115 32.1771 77.4092 31.6337 77.7144C31.7975 77.8335 31.9612 77.9526 32.125 78.0717C32.0506 78.6077 32.0134 79.1586 31.8719 79.6796C31.8273 79.8583 31.3434 80.0072 31.3657 80.104C31.9166 82.3818 30.5097 84.2577 29.9142 86.2378C29.609 87.2353 28.537 87.8903 29.5941 89.0367C29.6685 89.1186 29.3261 89.5652 29.207 89.8555C28.9539 90.4436 28.7231 91.0466 28.4849 91.6421C29.996 91.9547 29.0581 92.8629 28.8497 93.4584C27.8745 96.2425 27.5619 99.0786 27.7628 102.428C29.7057 101.163 31.7305 100.359 32.9438 98.8925C33.8818 97.7461 34.7527 96.7635 35.9735 95.9C36.9785 95.1929 37.4474 93.7636 38.3333 92.8182C39.1521 91.9398 40.1943 91.2699 41.1397 90.5106C42.1446 89.3568 43.023 87.9424 44.0279 86.6249C45.0477 85.2849 45.8666 83.7217 47.6159 83.0815C47.8988 82.9773 47.9881 82.3818 48.1965 82.0319C48.4794 81.5406 48.7325 81.0121 49.0972 80.5804C49.7672 79.7839 50.4744 79.0171 51.2188 78.2876C52.4321 77.1115 53.72 76.0098 54.9259 74.8187C56.0871 73.6798 57.0474 72.2952 58.3352 71.3498C59.5411 70.4715 61.0746 70.0248 62.4666 69.407C62.6378 69.3325 62.876 69.34 63.0696 69.3846C65.8313 70.0099 68.191 71.3945 70.3498 73.1811C71.9353 74.4986 73.6326 75.6748 74.831 77.4316C75.1809 77.9452 76.1263 78.0122 76.6771 78.4365C79.29 80.4836 81.8879 82.5605 84.4412 84.6745C85.5057 85.5604 86.3915 86.677 87.4858 87.5181C88.446 88.2477 89.5924 88.7389 90.3815 89.1781C90.977 89.7811 91.4162 90.2277 91.8554 90.6744C91.8926 89.5876 91.6395 88.8357 91.3343 88.0988C90.3889 85.7911 89.0713 83.8036 87.3443 81.9203C85.1335 79.501 83.4214 76.6351 81.5306 73.9329C79.4389 70.9404 77.228 68.0075 75.3893 64.8587C74.5333 63.3997 73.9452 61.427 74.1462 59.8043C74.3546 58.1666 74.6226 55.9408 77.0345 55.4421C77.3545 55.3751 77.7044 54.9508 77.831 54.6084C78.1659 53.7077 78.9252 52.3677 79.491 51.9211C81.7167 50.1569 83.9425 48.3852 86.1682 46.6136C88.0366 45.1322 89.8604 43.5988 91.7884 42.1993C92.7635 41.4921 93.9248 41.0306 95.1828 40.3606C95.2647 40.4202 95.6295 40.6658 95.823 40.7924C96.3366 39.7428 96.7982 38.7974 97.3341 37.7031L97.3118 37.651Z" fill="black"/>
</svg>
