<svg width="160" height="28" viewBox="0 0 160 28" fill="none" xmlns="http://www.w3.org/2000/svg">
<path d="M60.9904 9.7981C58.7128 9.7981 56.6769 10.8808 55.3219 12.5817C53.9669 10.8802 51.9309 9.7981 49.6534 9.7981C45.5743 9.7981 42.2679 13.2705 42.2679 17.5532V26.3283C42.2679 26.7177 42.5831 27.033 42.9727 27.033H44.9978C45.3873 27.033 45.7025 26.7177 45.7025 26.3283V17.5532C45.7025 14.9618 47.4713 12.8611 49.6534 12.8611C51.8348 12.8611 53.6036 14.9611 53.6043 17.552V26.3283C53.6043 26.7177 53.9195 27.033 54.309 27.033H56.3341C56.7236 27.033 57.0388 26.7177 57.0388 26.3283V17.552C57.0395 14.9611 58.8084 12.8611 60.9898 12.8611C63.1718 12.8611 64.9407 14.9618 64.9407 17.5532V26.3283C64.9407 26.7177 65.2559 27.033 65.6454 27.033H67.6705C68.0601 27.033 68.3752 26.7177 68.3752 26.3283V17.5532C68.3759 13.2705 65.0695 9.7981 60.9904 9.7981Z" fill="#323232"/>
<path d="M159.369 26.0493L151.772 18.4364L158.945 11.2495C159.307 10.8863 159.049 10.2655 158.536 10.2655H155.698C155.493 10.2655 155.297 10.3469 155.153 10.491L147.64 18.0194V1.20472C147.64 0.815202 147.324 0.5 146.935 0.5H144.91C144.52 0.5 144.206 0.815202 144.206 1.20472V26.328C144.206 26.7175 144.52 27.0327 144.91 27.0327H146.935C147.324 27.0327 147.64 26.7175 147.64 26.328V18.8535L155.579 26.8072C155.723 26.952 155.919 27.0327 156.122 27.0327H158.961C159.474 27.0333 159.732 26.4125 159.369 26.0493Z" fill="#323232"/>
<path d="M35.7372 10.9679C34.4539 10.1882 33.0195 9.7981 31.4345 9.7981C29.8495 9.7981 28.4209 10.1882 27.1504 10.9679C25.8794 11.7483 24.8671 12.8118 24.1125 14.1571C23.3578 15.5031 22.9798 17.0067 22.9798 18.6673C22.9798 20.3035 23.3693 21.7943 24.1496 23.1397C24.9293 24.4864 25.9928 25.5492 27.3388 26.3289C28.6848 27.1092 30.1756 27.4988 31.8111 27.4988C33.1444 27.4988 34.3776 27.2783 35.5104 26.8382C36.4117 26.4877 37.2574 25.9976 38.0473 25.3679C38.3811 25.102 38.4195 24.6087 38.1344 24.2916L37.0895 23.1307C36.8262 22.8379 36.3829 22.8053 36.0728 23.0481C35.5263 23.4767 34.9555 23.8092 34.3597 24.0456C33.5672 24.3608 32.7049 24.5171 31.7746 24.5171C30.7682 24.5171 29.8559 24.2531 29.0384 23.7247C28.2204 23.1961 27.5663 22.492 27.0761 21.6111C26.8058 21.1262 26.6129 20.6098 26.4918 20.0639H39.1653C39.5355 20.0639 39.845 19.7782 39.8687 19.4086C39.8693 19.3945 39.8706 19.3803 39.8713 19.3656C39.8834 19.1266 39.8905 18.8941 39.8905 18.6673C39.8905 17.0067 39.5189 15.5037 38.777 14.1571C38.0333 12.8118 37.0203 11.7483 35.7372 10.9679ZM28.868 13.5721C29.6477 13.0437 30.5036 12.7797 31.4345 12.7797C32.3904 12.7797 33.2585 13.0437 34.0387 13.5721C34.8184 14.1007 35.4411 14.8054 35.9069 15.6857C36.1439 16.1342 36.3194 16.6128 36.4361 17.1202H26.5034C26.6167 16.6128 26.7878 16.1348 27.0185 15.6857C27.4714 14.8054 28.0877 14.1007 28.868 13.5721Z" fill="#323232"/>
<path d="M123.446 10.9679C122.163 10.1882 120.728 9.7981 119.143 9.7981C117.558 9.7981 116.13 10.1882 114.86 10.9679C113.589 11.7483 112.576 12.8118 111.821 14.1571C111.066 15.5031 110.689 17.0067 110.689 18.6673C110.689 20.3035 111.078 21.7943 111.859 23.1397C112.639 24.4864 113.701 25.5492 115.047 26.3289C116.394 27.1092 117.885 27.4988 119.52 27.4988C120.853 27.4988 122.087 27.2783 123.219 26.8382C124.12 26.4877 124.966 25.9976 125.756 25.3679C126.09 25.102 126.129 24.6087 125.843 24.2916L124.798 23.1307C124.535 22.8379 124.092 22.8053 123.781 23.0481C123.235 23.4767 122.665 23.8092 122.068 24.0456C121.276 24.3608 120.413 24.5171 119.483 24.5171C118.477 24.5171 117.565 24.2531 116.747 23.7247C115.93 23.1961 115.275 22.492 114.785 21.6111C114.515 21.1262 114.322 20.6098 114.201 20.0639H126.874C127.244 20.0639 127.554 19.7782 127.578 19.4086C127.578 19.3945 127.579 19.3803 127.58 19.3656C127.593 19.1266 127.599 18.8941 127.599 18.6673C127.599 17.0067 127.228 15.5037 126.486 14.1571C125.742 12.8118 124.73 11.7483 123.446 10.9679ZM116.577 13.5721C117.357 13.0437 118.212 12.7797 119.143 12.7797C120.099 12.7797 120.967 13.0437 121.748 13.5721C122.527 14.1007 123.151 14.8054 123.616 15.6857C123.852 16.1342 124.029 16.6128 124.145 17.1202H114.212C114.326 16.6128 114.497 16.1348 114.727 15.6857C115.181 14.8054 115.796 14.1007 116.577 13.5721Z" fill="#323232"/>
<path d="M139.562 18.3842C138.807 17.8934 137.838 17.4847 136.656 17.1573C135.675 16.8555 134.901 16.5788 134.335 16.327C133.769 16.0759 133.366 15.8049 133.127 15.5153C132.888 15.2263 132.769 14.8804 132.769 14.4774C132.769 13.9239 132.995 13.4645 133.448 13.1C133.9 12.7354 134.555 12.5529 135.41 12.5529C136.089 12.5529 136.8 12.7041 137.542 13.0058C138.048 13.2115 138.517 13.4645 138.947 13.7644C139.28 13.9963 139.736 13.9175 139.973 13.5882L140.839 12.3845C141.079 12.0493 141.002 11.5784 140.663 11.344C140.032 10.909 139.338 10.5637 138.58 10.3074C137.574 9.96786 136.529 9.7981 135.447 9.7981C134.289 9.7981 133.264 9.9999 132.371 10.4022C131.478 10.8052 130.779 11.3587 130.277 12.0628C129.773 12.7676 129.522 13.5978 129.522 14.5537C129.522 15.4595 129.71 16.2462 130.088 16.9126C130.465 17.5795 131.063 18.1523 131.88 18.6302C132.698 19.108 133.76 19.5488 135.07 19.9512C136 20.2286 136.718 20.4861 137.221 20.7251C137.724 20.9646 138.076 21.2158 138.278 21.4797C138.479 21.7438 138.58 22.0647 138.58 22.442C138.58 23.1211 138.29 23.6689 137.711 24.084C137.133 24.4992 136.365 24.7067 135.409 24.7067C134.528 24.7067 133.673 24.5248 132.843 24.1596C132.22 23.8861 131.611 23.51 131.017 23.0314C130.686 22.7656 130.204 22.8232 129.952 23.1647L129.079 24.3537C128.839 24.6812 128.903 25.1436 129.23 25.3858C130.082 26.0188 130.959 26.5095 131.862 26.8581C132.968 27.2854 134.15 27.5 135.409 27.5C137.346 27.5 138.901 27.0348 140.071 26.1034C141.24 25.1725 141.825 23.9271 141.825 22.3671C141.825 21.5118 141.636 20.7571 141.259 20.1024C140.882 19.4477 140.316 18.8749 139.562 18.3842Z" fill="#323232"/>
<path d="M104.876 1.20472V11.5115C104.607 11.3098 104.324 11.1221 104.026 10.9491C102.705 10.1816 101.202 9.79781 99.5162 9.79781C97.83 9.79781 96.327 10.1816 95.0059 10.9491C93.685 11.7172 92.6407 12.7672 91.8732 14.1004C91.105 15.4343 90.7219 16.9565 90.7219 18.667C90.7219 20.3532 91.105 21.8626 91.8732 23.1965C92.6407 24.5303 93.685 25.581 95.0059 26.3478C96.327 27.1153 97.83 27.4991 99.5162 27.4991C101.202 27.4991 102.705 27.116 104.026 26.3478C105.348 25.5804 106.391 24.5303 107.159 23.1965C107.921 21.8716 108.305 20.3724 108.31 18.699V1.20472C108.31 0.815202 107.995 0.5 107.605 0.5H105.58C105.191 0.5 104.876 0.815842 104.876 1.20472ZM102.309 23.6686C101.504 24.1843 100.573 24.4425 99.5162 24.4425C98.4841 24.4425 97.566 24.185 96.7614 23.6686C95.9561 23.1529 95.3205 22.461 94.8554 21.5929C94.3896 20.7248 94.1571 19.7497 94.1571 18.6676C94.1571 17.5606 94.3896 16.5728 94.8554 15.7046C95.3205 14.8365 95.9561 14.1447 96.7614 13.6289C97.566 13.1138 98.4847 12.855 99.5162 12.855C100.573 12.855 101.503 13.1132 102.309 13.6289C103.115 14.1453 103.744 14.8365 104.197 15.7046C104.649 16.5728 104.876 17.5606 104.876 18.6676C104.876 19.7497 104.649 20.7248 104.197 21.5929C103.744 22.461 103.115 23.1535 102.309 23.6686Z" fill="#323232"/>
<path d="M84.0592 10.9493C82.7381 10.1818 81.2345 9.7981 79.5489 9.7981C77.8627 9.7981 76.3598 10.1818 75.0387 10.9493C73.7177 11.7175 72.6734 12.7676 71.9059 14.1007C71.1377 15.4346 70.7546 16.9568 70.7546 18.6673C70.7546 20.3535 71.1377 21.8629 71.9059 23.1967C72.6734 24.5306 73.7177 25.5813 75.0387 26.3481C76.3598 27.1157 77.8627 27.4994 79.5489 27.4994C81.2345 27.4994 82.7381 27.1163 84.0592 26.3481C85.3801 25.5806 86.4238 24.5306 87.192 23.1967C87.9594 21.8635 88.3431 20.3535 88.3431 18.6673C88.3431 16.9568 87.9594 15.4346 87.192 14.1007C86.4244 12.7676 85.3801 11.7169 84.0592 10.9493ZM84.2295 21.5926C83.7766 22.4607 83.1475 23.1531 82.3422 23.6683C81.5369 24.184 80.606 24.4422 79.5489 24.4422C78.5168 24.4422 77.5988 24.1846 76.7941 23.6683C75.9888 23.1525 75.3532 22.4607 74.8882 21.5926C74.4224 20.7244 74.1898 19.7493 74.1898 18.6673C74.1898 17.5603 74.4224 16.5724 74.8882 15.7042C75.3532 14.8362 75.9888 14.1443 76.7941 13.6286C77.5988 13.1134 78.5174 12.8546 79.5489 12.8546C80.606 12.8546 81.5362 13.1128 82.3422 13.6286C83.1475 14.1443 83.7766 14.8362 84.2295 15.7042C84.6825 16.5724 84.9086 17.5603 84.9086 18.6673C84.9086 19.7493 84.6825 20.7244 84.2295 21.5926Z" fill="#323232"/>
<path d="M8.05878 2.68122H0.704719C0.315202 2.68122 0 2.99643 0 3.38594V5.06573C0 5.45526 0.315202 5.77046 0.704719 5.77046H7.78267C13.5108 5.77046 17.6667 9.84629 17.6667 14.8569C17.6667 16.9435 16.9594 18.8673 15.7723 20.403C15.992 19.6213 16.1099 18.7975 16.1099 17.9461C16.1099 12.9355 12.9489 8.85968 6.37835 8.85968H0.704719C0.315202 8.85968 0 9.17488 0 9.56441V11.2442C0 11.6338 0.315202 11.9489 0.704719 11.9489H6.26623C10.4664 11.9682 12.8522 14.639 12.8522 17.9461C12.8522 21.2531 10.4664 23.9439 6.26623 23.9439H3.43454V15.7435C3.43454 15.354 3.11934 15.0388 2.72983 15.0388H0.704719C0.315202 15.0388 0 15.354 0 15.7435V26.3284C0 26.7179 0.315202 27.0331 0.704719 27.0331H7.02413H7.02541H8.05943C15.6455 27.0331 20.9257 21.5709 20.9257 14.8575C20.9257 8.14407 16.1105 2.65943 8.05878 2.68122Z" fill="#323232"/>
</svg>
