<svg width="137" height="110" viewBox="0 0 137 110" fill="none" xmlns="http://www.w3.org/2000/svg">
<g clip-path="url(#clip0_1_4576)">
<path d="M74.9122 50.6765C74.9122 50.6765 68.68 54.1449 68.4806 55.3338C68.4806 55.3338 66.4042 64.0526 80.7489 68.4149C80.7489 68.4149 90.8395 72.7742 91.137 76.2427L74.8141 85.3577L65.3184 89.8154C65.3184 89.8154 58.2948 84.3654 70.9557 75.2504C70.9557 75.2504 55.5223 66.1354 56.5129 58.4059L51.3694 58.3076C51.3694 58.3076 39.8955 70.4947 40.0918 79.0168C40.0918 79.0168 46.6216 84.863 45.631 88.1318L17.4385 94.9703C17.4385 94.9703 12.7888 87.4405 25.7472 81.5943C25.7472 81.5943 27.9247 81.7939 28.9124 79.0168C28.9124 79.0168 32.6726 64.6485 38.1135 59.8928C38.1135 59.8928 41.5763 56.2278 42.9596 55.6318L40.782 55.3338L30.1975 61.3797C6.35721 75.748 -4.12908 92.2945 9.71877 100.817C9.71877 100.817 10.1144 107.357 24.6554 108.743C24.6554 108.743 43.3522 111.815 75.9981 98.6354C75.9981 98.6354 117.943 79.5114 104.982 69.2075C104.982 69.2075 107.555 51.2725 74.9093 50.6765H74.9122Z" fill="#F3F3E9"/>
<path d="M89.6525 77.0322C89.6525 77.0322 85.4967 70.7897 81.9358 69.4011L79.3626 68.8052C79.3626 68.8052 81.3408 73.0662 70.9527 75.2474C70.9527 75.2474 58.4882 82.1842 65.3154 89.8123L89.6525 77.0293V77.0322Z" fill="#9EC9F0"/>
<path d="M45.631 88.1317C45.631 88.1317 44.5422 81.6895 39.0031 79.708L39.4969 78.0244L32.4733 79.9076L29.6056 79.8093C29.6056 79.8093 28.8143 80.8999 26.7378 81.2962C26.7378 81.2962 18.2298 87.8367 18.7236 91.1055L16.2515 91.7997L17.4385 94.9702L45.631 88.1317Z" fill="#9EC9F0"/>
<path d="M26.7348 28.8765C26.1875 41.2871 39.595 56.8205 55.2248 57.2168C70.691 57.6101 82.3702 49.392 82.1322 33.8318C81.8674 16.6566 67.0944 1.59404 51.0035 2.12444C35.5403 2.63099 27.3268 15.4021 26.7348 28.8795V28.8765Z" fill="#FCCEE2"/>
<path d="M79.3656 68.808L68.4182 60.1221C68.4182 60.1221 58.6578 62.631 60.2404 66.2007L70.9587 75.2502C70.9587 75.2502 81.3468 73.3998 79.3686 68.808H79.3656Z" fill="#95E2B0"/>
<path d="M45.4673 64.7466L35.3113 63.0303C35.3113 63.0303 29.3765 72.9379 28.9154 79.0166C28.9154 79.0166 35.1149 80.0744 39.4998 78.0243C39.4998 78.0243 43.0934 67.7859 45.4673 64.7466Z" fill="#95E2B0"/>
<path d="M64.9882 29.866C64.9882 29.866 50.48 35.018 41.5108 29.4697C41.5108 29.4697 46.3926 40.4352 61.9569 34.3595L64.9912 29.866H64.9882Z" fill="white"/>
<path d="M50.1013 20.0995C48.7591 15.361 50.3349 10.7627 53.6209 9.82886C56.9069 8.895 60.6588 11.9792 62.001 16.7177C63.3432 21.4561 61.7674 26.0544 58.4814 26.9883C55.1954 27.9221 51.4435 24.8379 50.1013 20.0995Z" fill="white"/>
<path d="M33.3221 19.4931C32.2222 19.0847 31.806 17.469 32.3925 15.8843C32.979 14.2995 34.3461 13.346 35.446 13.7544C36.546 14.1628 36.9622 15.7786 36.3757 17.3633C35.7892 18.948 34.4221 19.9016 33.3221 19.4931Z" fill="white"/>
<path d="M40.3867 20.3307C39.7264 15.7124 41.4311 11.6472 44.1943 11.2508C46.9575 10.8544 49.7328 14.277 50.3931 18.8953C51.0534 23.5137 49.3487 27.5789 46.5855 27.9753C43.8223 28.3716 41.047 24.9491 40.3867 20.3307Z" fill="white"/>
<path d="M23.638 52.7534L19.2858 48.394L15.9213 53.3464L19.2858 56.5198L23.638 52.7534Z" fill="#FFF36F"/>
<path d="M95.9175 11.746L91.369 7.18701L88.5965 11.5464L91.7647 16.1054L95.9175 11.746Z" fill="#FFF36F"/>
<path d="M76.9916 32.2437C76.9916 32.2437 74.8825 46.1173 61.4273 50.7389C61.4273 50.7389 78.0477 49.8152 76.9916 32.2437Z" fill="white"/>
<path d="M54.6744 59.4964C71.2829 59.4964 84.7976 46.1532 84.7976 29.7497C84.7976 13.3462 71.2859 0 54.6744 0C46.8179 0 43.022 3.4118 43.022 3.4118C43.022 3.4118 48.2637 2.12157 54.6744 2.2795C70.0246 2.65793 82.5219 14.6007 82.5219 29.7467C82.5219 44.8927 70.0305 57.2139 54.6744 57.2139C39.3184 57.2139 26.827 44.8927 26.827 29.7467C26.827 24.3057 28.4632 18.8379 31.3845 14.407C35.0435 8.85876 38.3456 5.84029 38.3456 5.84029C38.3456 5.84029 34.1035 7.0739 30.0696 12.5745C26.47 17.4881 24.5483 23.5012 24.5483 29.7437C24.5483 46.1472 38.063 59.4905 54.6715 59.4905L54.6744 59.4964Z" fill="black"/>
<path d="M52.3243 40.1729C53.9664 40.1729 55.5491 39.9256 57.0692 39.431C63.8845 37.2081 66.3299 30.5096 66.4518 30.2385L67.4752 27.9739L65.0953 28.6741C50.5543 32.959 40.547 28.7248 40.4548 28.6771C40.4548 28.6771 42.433 33.0365 52.3243 33.1705C55.4598 33.2123 58.8124 32.5716 62.9534 31.6002C61.6028 33.4238 59.2676 35.8463 55.8376 36.9578C51.6758 38.3076 44.9854 36.7283 39.6634 33.698C39.6634 33.698 42.8287 39.7766 52.3273 40.1729H52.3243Z" fill="black"/>
<path d="M16.2753 51.0726C17.0844 50.3336 18.1465 48.7365 18.3726 45.0535V45.0476C18.4112 44.4427 18.911 43.9719 19.5179 43.9749C20.1188 43.9749 20.6156 44.4457 20.6542 45.0476C20.8803 48.7305 21.9662 50.3068 22.7515 51.0696C24.2806 52.5535 28.7696 52.8515 28.7696 52.8515C28.7696 52.8515 24.23 53.4445 22.7545 54.693C21.9245 55.3962 20.8952 57.0053 20.6572 60.6525V60.6703C20.6096 61.2693 20.1128 61.7311 19.5119 61.7311H19.4941C18.8961 61.7222 18.4053 61.2544 18.3666 60.6554V60.6495C18.1286 57.0082 17.1499 55.3306 16.2693 54.696C14.8801 53.6948 10.2542 52.8873 10.2542 52.8873C10.2542 52.8873 14.9783 52.2615 16.2723 51.0756L16.2753 51.0726ZM17.6645 52.8902C18.4202 53.513 19.0389 54.3473 19.5149 55.3932C19.9909 54.3473 20.6067 53.513 21.3652 52.8902H21.3712C21.3712 52.8902 21.3623 52.8813 21.3593 52.8783C20.6066 52.2585 19.9909 51.4242 19.5179 50.3813C19.0449 51.4242 18.4291 52.2585 17.6764 52.8783C17.6735 52.8813 17.6675 52.8843 17.6645 52.8873H17.6705L17.6645 52.8902Z" fill="black"/>
<path d="M88.4537 9.93149C89.2629 9.19251 90.3249 7.59537 90.551 3.91242V3.90646C90.5896 3.30157 91.0894 2.83077 91.6963 2.83375C92.2972 2.83375 92.794 3.30455 92.8327 3.90646C93.0587 7.58942 94.1446 9.1657 94.9299 9.92851C96.459 11.4124 100.948 11.7104 100.948 11.7104C100.948 11.7104 96.4084 12.3034 94.9329 13.5519C94.1029 14.2551 93.0736 15.8641 92.8356 19.5113V19.5292C92.788 20.1282 92.2912 20.59 91.6903 20.59H91.6725C91.0745 20.5811 90.5837 20.1133 90.545 19.5143V19.5084C90.307 15.8671 89.3283 14.1895 88.4477 13.5549C87.0585 12.5537 82.4326 11.7461 82.4326 11.7461C82.4326 11.7461 87.1567 11.1204 88.4507 9.93447L88.4537 9.93149ZM89.8429 11.7491C90.5986 12.3719 91.2173 13.2062 91.6933 14.2521C92.1693 13.2062 92.7851 12.3719 93.5436 11.7491H93.5496C93.5496 11.7491 93.5407 11.7402 93.5377 11.7372C92.7851 11.1174 92.1693 10.2831 91.6963 9.24019C91.2233 10.2831 90.6075 11.1174 89.8548 11.7372C89.8519 11.7402 89.8459 11.7432 89.8429 11.7461H89.8489L89.8429 11.7491Z" fill="black"/>
<path d="M52.6605 23.2241C53.7552 22.7026 54.0914 21.1174 53.4101 19.6871C52.9937 18.8081 52.2886 18.1913 51.5538 17.9678C51.5628 17.9648 51.5717 17.9589 51.5806 17.9529C53.5202 17.0292 56.0726 18.3343 57.2774 20.873C58.4822 23.4118 57.8873 26.2187 55.9477 27.1424C54.0081 28.0661 51.4557 26.761 50.2509 24.2223C49.8909 23.4654 49.6946 22.6817 49.644 21.9338C50.3788 23.1257 51.6609 23.7008 52.6605 23.2241Z" fill="black"/>
<path d="M43.025 22.8635C44.1197 22.342 44.4559 20.7568 43.7746 19.3265C43.3582 18.4475 42.6531 17.8307 41.9184 17.6072C41.9273 17.6042 41.9362 17.5983 41.9451 17.5923C43.8847 16.6686 46.4371 17.9737 47.6419 20.5124C48.8467 23.0512 48.2518 25.8581 46.3122 26.7818C44.3726 27.7055 41.8202 26.4004 40.6154 23.8617C40.2554 23.1048 40.0591 22.3212 40.0085 21.5732C40.7433 22.7651 42.0254 23.3402 43.025 22.8635Z" fill="black"/>
<path d="M72.2766 76.0488C78.726 75.1966 79.2853 70.9922 79.2853 70.9922C79.2585 71.0309 75.2038 74.2133 71.6013 73.7216L71.2949 75.9803C71.6281 76.025 71.9553 76.0458 72.2766 76.0458V76.0488Z" fill="black"/>
<path d="M82.5427 70.5185L83.3102 68.3701C73.2493 64.7616 70.3578 61.1413 69.7033 58.7426C69.1202 56.6001 70.2834 55.1222 70.2953 55.1073L68.5461 53.6472C68.4658 53.7426 66.6065 56.031 67.5079 59.3415C68.6651 63.5936 73.7253 67.354 82.5427 70.5155V70.5185Z" fill="black"/>
<path d="M80.9512 78.3492L82.8848 77.1454C80.38 73.1079 83.2894 70.6138 83.6285 70.3427L82.2274 68.5459C80.5109 69.8808 78.0329 73.6472 80.9512 78.3492Z" fill="black"/>
<path d="M65.6754 90.8017C66.077 90.8017 66.4846 90.7093 66.8594 90.5126L90.786 78.1259C91.4583 77.7772 91.9432 77.1545 92.1098 76.4125C92.2794 75.6646 92.1098 74.8839 91.6517 74.2701C88.0253 69.4489 83.3668 68.3732 83.1704 68.3285L82.6796 70.5543L82.9265 69.4399L82.6766 70.5514C82.7182 70.5603 86.7372 71.5198 89.834 75.6378C89.9114 75.7421 89.9054 75.8464 89.8906 75.9C89.8757 75.9596 89.84 76.043 89.7418 76.0937L65.8152 88.4775C65.6933 88.54 65.5416 88.5162 65.4642 88.4179C64.9168 87.7385 64.31 86.5973 64.5212 85.0061C64.777 83.105 66.3001 79.9584 72.1159 75.7689L73.5349 74.7468L72.0267 73.8589C58.872 66.1205 56.7212 60.4828 56.7212 60.4292C56.7212 60.4292 55.2278 63.698 61.942 69.3952C64.2624 71.3648 65.9551 72.7981 69.4118 74.9435C65.0805 78.3225 62.6768 81.6002 62.2603 84.7021C61.939 87.0979 62.8612 88.8261 63.6882 89.8511C64.1821 90.462 64.9198 90.7897 65.6724 90.7897L65.6754 90.8017Z" fill="black"/>
<path d="M64.1077 88.0184C68.2665 85.4707 75.0967 81.9844 80.3146 79.404C84.396 77.3837 87.0764 74.845 87.0764 74.845C87.0764 74.845 83.7237 75.1817 79.9338 77.05C74.6029 79.6781 67.3116 83.3819 62.9207 86.0726L64.1077 88.0184Z" fill="black"/>
<path d="M68.6502 84.1597L70.5809 82.95C68.2992 79.2938 65.6694 79.2879 65.3719 79.2998L65.4582 81.5793H65.4285C65.4939 81.5793 67.0735 81.6359 68.6502 84.1597Z" fill="black"/>
<path d="M35.341 87.643L37.5067 86.9398C36.0431 82.4165 39.4641 80.6972 39.8568 80.5155L38.9287 78.4326C36.9415 79.3146 33.6364 82.3748 35.341 87.643Z" fill="black"/>
<path d="M18.1494 96.1384C18.3488 96.1384 18.5481 96.1145 18.7474 96.0668L44.9408 89.7915C45.6786 89.6157 46.2973 89.124 46.6364 88.4476C46.9815 87.7623 47.0053 86.9667 46.7019 86.2575C44.3369 80.7063 40.071 78.543 39.8925 78.4536L38.884 80.4977L39.3898 79.4757L38.8811 80.4947C38.9168 80.5126 42.5907 82.4107 44.6106 87.1515C44.6612 87.2707 44.6284 87.372 44.6046 87.4196C44.5779 87.4763 44.5213 87.5448 44.4113 87.5716L18.2179 93.8469C18.084 93.8797 17.9442 93.8171 17.8906 93.7039C17.3195 92.4792 17.2748 91.2188 17.7627 89.9524C18.5124 88.0126 20.5858 84.136 27.9069 81.0758C27.9069 81.0758 24.8785 80.6825 21.2611 83.0424C18.1167 85.0925 16.4716 86.9667 15.6387 89.13C14.9277 90.9715 14.9931 92.8875 15.8291 94.6693C16.2515 95.5752 17.1737 96.1324 18.1494 96.1324V96.1384Z" fill="black"/>
<path d="M16.6739 92.9857C24.9737 90.3546 44.6403 85.7688 44.8397 85.7241L44.325 83.5012C44.1257 83.5489 24.3728 88.1526 15.9867 90.8105L16.6739 92.9857Z" fill="black"/>
<path d="M21.8115 90.2355L23.9742 89.5263C22.6355 85.4291 20.1753 85.158 19.8897 85.0984L19.2383 86.4989C19.3037 86.5167 20.7316 86.9667 21.8115 90.2355Z" fill="black"/>
<path d="M40.5678 80.0836C43.6676 66.3321 52.6992 59.2135 52.7914 59.142L51.4021 57.3333C51.0065 57.6402 41.6358 64.9882 38.3456 79.58L40.5648 80.0836H40.5678Z" fill="black"/>
<path d="M37.0486 78.6532C33.9726 79.121 31.1465 79.1866 30.4802 78.8826C32.9552 65.447 40.3834 57.941 40.4548 57.8755C40.4548 57.8755 36.4982 58.6681 32.6012 65.6317C30.7211 68.9899 29.0671 73.534 28.1092 79.2164L28.014 79.7795L28.4067 80.1937C34.0648 82.0143 37.0486 78.6502 37.0486 78.6502V78.6532Z" fill="black"/>
<path d="M44.209 65.4144C44.209 65.4144 43.2541 64.291 36.7451 63.7278L37.4204 62.2708C38.8573 62.3214 40.068 62.4525 41.0795 62.6253C44.3488 63.1796 45.5328 64.154 45.5328 64.154L44.209 65.4144Z" fill="black"/>
<path d="M44.1227 67.068L47.2493 64.0883L46.2557 63.2689C46.1099 63.1497 44.7385 62.0859 41.2699 61.4959C40.1097 61.2993 38.8305 61.1741 37.4621 61.1264L36.7065 61.0996L35.0316 64.72L36.6499 64.86C41.7875 65.307 43.1856 66.0788 43.4058 66.2248L44.1227 67.068Z" fill="black"/>
<path d="M41.255 70.8373C41.255 70.8373 40.184 69.7139 32.8838 69.1507L33.5591 67.6191C40.3833 67.8337 42.5609 69.404 42.5609 69.404L41.252 70.8402L41.255 70.8373Z" fill="black"/>
<path d="M41.2312 72.8903L42.0969 71.6061L44.2685 69.2253L43.2303 68.4773C42.9774 68.2956 40.5678 66.6984 33.5978 66.4779L32.8303 66.4541L31.1941 70.1639L32.7975 70.289C38.4765 70.727 40.1365 71.4899 40.4607 71.6716L41.2282 72.8903H41.2312Z" fill="black"/>
<path d="M39.3006 76.6359C39.3006 76.6359 36.2335 75.0507 30.8907 75.1491L31.8605 73.1794C37.947 73.394 39.5891 74.574 39.5891 74.574L39.3006 76.6359Z" fill="black"/>
<path d="M40.2019 78.3732L40.8118 74.0526L40.2525 73.6503C39.9312 73.4208 38.0214 72.2558 31.8992 72.0412L31.1644 72.0144L29.0433 76.3231L30.9115 76.2874C35.8557 76.195 38.7532 77.6342 38.78 77.6491L40.199 78.3702L40.2019 78.3732Z" fill="black"/>
<path d="M68.4836 60.0894C68.4836 60.0894 64.0333 59.8898 60.0737 63.7545L60.9632 65.3397C60.9632 65.3397 63.3371 61.7729 68.8763 61.3766L68.4806 60.0894H68.4836Z" fill="black"/>
<path d="M60.8829 67.5209L61.9122 65.9744C61.9955 65.8522 64.0928 62.8636 68.9596 62.5149L70.3875 62.4136L69.3344 58.9869L68.5342 58.9512C68.3319 58.9422 63.5424 58.7783 59.2795 62.941L58.6518 63.5519L60.8799 67.5209H60.8829Z" fill="black"/>
<path d="M71.0598 64.0137C71.0598 64.0137 65.7349 65.1132 64.2088 68.5668L65.5326 70.0387C65.5326 70.0387 67.5109 65.9208 72.1397 65.1401L71.0569 64.0107L71.0598 64.0137Z" fill="black"/>
<path d="M65.8271 72.065L66.5619 70.5335C66.6333 70.3904 68.3676 66.9339 72.3331 66.2665L74.4571 65.9089L71.4466 62.7712L70.8308 62.8994C70.5898 62.95 64.9138 64.1628 63.1706 68.108L62.8731 68.7844L65.8271 72.068V72.065Z" fill="black"/>
<path d="M77.0779 67.5029C77.0779 67.5029 71.1282 68.7216 69.3374 72.1275L70.7683 73.525C70.7683 73.525 73.5617 69.9731 78.7289 69.0822L77.0779 67.5029Z" fill="black"/>
<path d="M70.8813 75.2264L71.6637 74.2312C71.6875 74.2014 74.2786 71.0071 78.9223 70.2085L81.1534 69.8241L77.4349 66.2693L76.8518 66.3885C76.5871 66.4421 70.3518 67.7592 68.3319 71.5971L67.9363 72.3509L70.8843 75.2264H70.8813Z" fill="black"/>
<path d="M33.7257 14.0137C33.7257 14.0137 37.2211 11.174 36.6946 17.4493C36.2335 22.9499 31.676 22.789 31.8158 18.0155C31.8337 17.3749 32.7499 17.2795 32.8868 17.9082C33.1545 19.1448 33.6245 20.1013 34.4515 19.3653C36.2335 17.7801 35.7039 12.9589 33.7257 14.0137Z" fill="black"/>
<path d="M56.1143 28.5786C56.4742 28.5786 56.8372 28.5459 57.206 28.4833C59.0207 28.1674 60.526 27.1484 61.5671 25.5393C63.0159 23.2985 63.3788 20.1847 62.5637 16.9994C61.3411 12.208 57.9468 7.70855 53.8207 8.39389C51.9555 8.7008 50.4056 10.1609 49.4566 12.5029C48.6653 14.4457 48.3381 16.8772 48.5552 19.1716C48.8854 22.6579 50.3342 25.6972 52.4285 27.3003C53.5321 28.1436 54.7905 28.5757 56.1143 28.5757V28.5786ZM54.6298 10.6108C57.1138 10.6108 59.455 14.0286 60.3564 17.5655C61.0019 20.0983 60.7401 22.6162 59.6513 24.3027C58.9671 25.3635 57.9854 26.0339 56.8134 26.2366C55.7157 26.4273 54.7072 26.177 53.8088 25.4916C52.2321 24.2848 51.0868 21.7819 50.8191 18.96C50.477 15.3486 51.777 11.0459 54.1896 10.6466C54.3353 10.6227 54.4811 10.6108 54.6269 10.6108H54.6298Z" fill="black"/>
<path d="M44.4113 9.71983C47.6033 9.64533 48.4095 13.1197 48.3024 14.3444C47.2998 12.7294 46.452 11.5524 45.1312 11.5524C45.0062 11.5524 44.8813 11.5613 44.7564 11.5822C43.028 11.8682 41.3859 15.131 41.7934 19.3533C42.0552 22.0589 43.1321 24.4397 44.6017 25.5601C45.387 26.159 46.2646 26.3795 47.2076 26.2157C48.2339 26.0369 49.0639 25.4648 49.6767 24.5172C49.998 24.0226 50.239 23.4475 50.4056 22.8158C50.8488 23.5488 51.5241 24.2014 52.0953 24.8301C51.9436 25.1549 51.777 25.4648 51.5866 25.7568C50.6287 27.2347 49.2484 28.1704 47.5973 28.4594C47.2641 28.519 46.931 28.5458 46.6037 28.5458C45.39 28.5458 44.2358 28.1495 43.2184 27.3718C41.2282 25.8551 39.8479 22.9379 39.5236 19.5679C39.0833 15.0029 40.7582 9.80028 44.4083 9.71387L44.4113 9.71983Z" fill="black"/>
<path d="M25.887 104.064C34.987 104.064 45.9314 102.461 57.9825 99.3385C72.4015 95.6049 85.3599 89.7169 94.4748 82.7622C103.86 75.6019 108.105 68.087 106.434 61.6061C105.315 57.2676 101.751 53.5906 95.9295 51.5226C85.1695 47.7026 75.3258 50.8909 75.3258 50.8909C91.253 50.4797 102.328 54.8033 104.232 62.1752C105.642 67.6311 101.585 74.4756 93.1004 80.9476C84.2205 87.7235 71.5477 93.4684 57.4173 97.1305C42.6889 100.945 29.6829 102.461 19.8035 101.508C12.8989 100.843 4.29863 98.6025 2.51968 91.7104C1.3119 87.0292 4.7746 80.8909 12.2682 74.4219C16.2515 70.9833 21.1987 67.6192 26.6605 64.5948C29.436 63.0542 39.604 56.0191 39.604 56.0191C37.9172 56.6746 36.2364 57.3748 34.5735 58.1138C31.1316 59.6454 27.7641 61.3439 24.5602 63.1645C9.38262 71.7998 -2.03181 83.1794 0.315323 92.2825C1.98421 98.7485 8.64783 102.723 19.5863 103.778C21.5705 103.969 23.6797 104.064 25.8929 104.064H25.887Z" fill="black"/>
<path d="M28.8321 110C37.6554 110 48.6623 108.31 61.1656 104.922C72.3539 101.889 84.1521 96.603 93.5317 90.4231C102.864 84.2729 108.454 78.1436 108.864 73.6114C109.022 71.8653 108.519 69.4517 105.229 67.8813L104.25 69.9403C106.538 71.0339 106.686 72.4433 106.6 73.4088C106.264 77.1334 100.778 82.926 92.2853 88.522C83.099 94.5768 71.5418 99.7526 60.5765 102.726C48.2102 106.079 36.9653 107.798 28.0943 107.703C19.4554 107.607 13.351 105.816 10.4417 102.527C10.4417 102.527 10.2572 106.636 20.2884 109.365C22.7872 110.045 25.7026 110.006 28.841 110.006L28.8321 110Z" fill="black"/>
<path d="M16.6858 95.3248L17.0339 93.0721C13.0565 92.4553 10.9593 91.6239 10.9384 91.615C10.9384 91.615 12.414 94.6633 16.6858 95.3248Z" fill="black"/>
<path d="M26.3571 96.0279C33.1694 96.0279 41.5079 94.839 52.4047 91.7997C57.3727 90.4141 61.6534 87.637 61.6534 87.637C61.1269 87.8455 57.3905 88.814 52.4047 90.2621C37.8964 94.4755 26.8152 94.1328 19.8779 93.4355L19.6488 95.7061C21.5854 95.8998 23.8255 96.0309 26.3541 96.0309L26.3571 96.0279Z" fill="black"/>
<path d="M88.4924 72.6191C95.6528 65.2323 95.4237 58.1167 95.4237 58.1167C95.4059 58.1763 93.5942 64.0821 86.8592 71.0309L88.4924 72.6191Z" fill="black"/>
<path d="M55.3259 77.5297C59.568 76.0816 63.4115 74.3295 66.8683 72.5208L65.8152 70.4976C59.0445 74.0345 53.0353 76.8623 43.4534 79.5083C43.4534 79.5083 47.749 80.1162 55.323 77.5268L55.3259 77.5297Z" fill="black"/>
<path d="M75.9445 66.8981C82.986 61.6419 82.6052 56.5823 82.6052 56.5823C82.5903 56.618 81.0345 60.2563 74.5821 65.0715L75.9416 66.9011L75.9445 66.8981Z" fill="black"/>
<path d="M104.595 87.1275C106.764 85.1579 108.796 82.8009 110.331 80.289C114.222 73.9243 115.953 66.3289 115.2 58.9034L115.186 58.7485C114.909 56.028 114.597 52.9439 116.447 51.6776C117.678 50.8343 119.475 51.2842 120.698 52.2735C119.85 54.6096 119.523 57.1394 119.814 59.5858C119.942 60.6704 120.442 62.1037 121.457 62.8814C122.04 63.3283 122.721 63.5071 123.426 63.4028C124.131 63.2985 124.726 62.932 125.148 62.348C126.106 61.019 125.85 58.9958 125.746 58.4088C125.368 56.2276 124.839 53.7664 123.36 51.7908C124.024 50.3933 124.916 49.109 126.005 48.0244C127.478 46.5584 129.774 45.2383 131.794 45.9416C133.597 46.5673 134.57 48.6263 134.733 50.3873C134.93 52.5059 134.287 54.6692 133.668 56.761C133.668 56.767 137.021 54.8152 137 50.1817C136.988 47.1305 134.965 44.6335 132.538 43.7932C130.562 43.1078 127.388 43.4386 124.399 46.4153C123.307 47.5029 122.388 48.7604 121.659 50.1281C119.466 48.6025 116.819 48.668 115.165 49.8003C112.196 51.8325 112.615 55.9654 112.922 58.9839L112.937 59.1358C113.639 66.0667 112.023 73.1585 108.391 79.1001C104.759 85.0417 99.3684 90.578 92.8862 93.1049C92.8862 93.1049 98.8002 92.3957 104.598 87.1305L104.595 87.1275ZM122.367 54.6037C122.959 55.9267 123.259 57.4255 123.5 58.8051C123.658 59.708 123.572 60.6406 123.301 61.019C123.23 61.1174 123.173 61.1412 123.09 61.1531C123.027 61.1621 122.956 61.165 122.837 61.0757C122.483 60.8045 122.162 60.0685 122.072 59.3236C121.888 57.7562 121.998 56.1501 122.367 54.6037Z" fill="#9EC9F0"/>
<path d="M59.1843 40.9653C59.1843 40.9653 54.6328 44.1358 47.5111 41.7579C47.5111 41.7579 54.2372 48.0988 59.1843 40.9653Z" fill="black"/>
</g>
<defs>
<clipPath id="clip0_1_4576">
<rect width="137" height="110" fill="white" transform="matrix(-1 0 0 1 137 0)"/>
</clipPath>
</defs>
</svg>
