<svg width="184" height="133" viewBox="0 0 184 133" fill="none" xmlns="http://www.w3.org/2000/svg">
<path d="M245.567 77.5073C240.116 84.4938 229.102 84.1997 221.321 80.0002C213.54 75.8008 207.781 68.7217 200.907 63.1566C191.931 55.9022 179.991 51.1345 168.822 54.0243C141.398 61.1182 131.069 99.9516 110.485 116.654C95.6511 128.684 75.7861 124.662 73.3236 104.281C70.9035 84.277 77.5166 64.2212 75.7226 43.9593C75.2891 39.0092 74.4702 33.9621 72.16 29.5901C69.8498 25.2182 65.7861 21.4807 60.9083 20.6193C44.3855 17.7412 33.0368 37.021 27.1826 49.6993C22.0781 60.7956 19.022 72.6982 16.0052 84.534" stroke="black" stroke-width="4.13" stroke-linecap="round" stroke-linejoin="round"/>
<path d="M16.0043 84.5263C17.2324 79.4321 16.6689 74.0705 14.4086 69.343C12.1483 64.6154 8.32897 60.8104 3.59301 58.5678" stroke="black" stroke-width="4.13" stroke-linecap="round" stroke-linejoin="round"/>
<path d="M16.1532 83.9792C17.0185 81.7027 18.2746 79.5949 19.8649 77.7504C27.4569 69.0017 40.0396 69.9299 42.0485 70.1089" stroke="black" stroke-width="4.13" stroke-linecap="round" stroke-linejoin="round"/>
</svg>
