<svg width="53" height="60" viewBox="0 0 53 60" fill="none" xmlns="http://www.w3.org/2000/svg">
<path d="M11.4623 38.4014C13.9148 37.2522 15.8888 35.2655 17.0244 32.8127C18.1599 35.2655 20.1339 37.2522 22.5865 38.4014C20.1339 39.5506 18.1599 41.5373 17.0244 43.99C15.8888 41.5373 13.9148 39.5506 11.4623 38.4014Z" fill="#323232" stroke="#323232" stroke-width="3"/>
<path d="M17.593 16.3923C17.593 15.5638 16.9215 14.8923 16.093 14.8923C15.2646 14.8923 14.593 15.5638 14.593 16.3923L17.593 16.3923ZM15.6471 33.752L14.178 33.4493L14.178 33.4493L15.6471 33.752ZM15.5519 34.4814L14.0539 34.4043L14.0539 34.4043L15.5519 34.4814ZM15.2863 35.119L13.8364 34.7348L15.2863 35.119ZM14.5598 36.2806L15.7644 37.1744L15.7644 37.1744L14.5598 36.2806ZM13.703 36.8155L14.6827 37.9513H14.6827L13.703 36.8155ZM12.7559 37.3504L13.9606 38.2442H13.9606L12.7559 37.3504ZM11.4532 37.599L11.8948 39.0325L11.8948 39.0325L11.4532 37.599ZM7.4346 38.2743L7.5243 39.7717H7.5243L7.4346 38.2743ZM13.703 40.4595L14.6827 39.3238V39.3237L13.703 40.4595ZM14.6951 41.8241L15.7949 40.8041L15.7949 40.8041L14.6951 41.8241ZM15.3765 43.2829L13.9074 43.5857L13.9074 43.5857L15.3765 43.2829ZM16.0028 44.3601C15.1744 44.3601 14.5028 45.0317 14.5028 45.8601C14.5028 46.6885 15.1744 47.3601 16.0028 47.3601V44.3601ZM14.593 16.3923C14.593 18.2576 14.5706 20.1294 14.5481 22.0099C14.5255 23.8873 14.5028 25.7734 14.5028 27.6521H17.5028C17.5028 25.7945 17.5253 23.9264 17.5478 22.0459C17.5704 20.1684 17.593 18.2786 17.593 16.3923L14.593 16.3923ZM14.5028 27.6521C14.5028 28.131 14.4638 28.6041 14.418 29.1463C14.3737 29.6697 14.3225 30.264 14.3225 30.8831H17.3225C17.3225 30.4113 17.3614 29.9424 17.4073 29.399C17.4517 28.8745 17.5028 28.2775 17.5028 27.6521H14.5028ZM14.3225 30.8831C14.3225 31.8734 14.3277 32.7227 14.178 33.4493L17.1162 34.0548C17.3413 32.9629 17.3225 31.7669 17.3225 30.8831H14.3225ZM14.178 33.4493C14.1189 33.7361 14.0693 34.1039 14.0539 34.4043L17.0499 34.5586C17.0569 34.4222 17.0852 34.2055 17.1162 34.0548L14.178 33.4493ZM14.0539 34.4043C14.0608 34.2707 14.0921 34.1703 14.1129 34.1164C14.1312 34.0688 14.1459 34.0464 14.1278 34.0786C14.117 34.0979 14.1114 34.1072 14.0899 34.1448C14.0729 34.1743 14.0478 34.2184 14.0216 34.2683C13.9713 34.3639 13.8913 34.5274 13.8364 34.7348L16.7363 35.5032C16.7217 35.5581 16.7058 35.5996 16.6951 35.625C16.6846 35.65 16.6768 35.6647 16.6767 35.665C16.6764 35.6654 16.6773 35.6637 16.68 35.6588C16.6828 35.6538 16.6866 35.6472 16.6923 35.6372C16.6998 35.6242 16.7239 35.5826 16.742 35.5504C16.8121 35.4259 17.0243 35.0554 17.0499 34.5586L14.0539 34.4043ZM13.8364 34.7348C13.8229 34.7854 13.8128 34.8065 13.8102 34.8117C13.8076 34.8169 13.8018 34.8284 13.7802 34.8576C13.7513 34.8967 13.7169 34.938 13.6365 35.0341C13.5639 35.1207 13.4631 35.2413 13.3551 35.3869L15.7644 37.1744C15.8152 37.106 15.866 37.0443 15.9363 36.9604C15.9987 36.886 16.0983 36.7685 16.1928 36.6407C16.4147 36.3404 16.608 35.9874 16.7363 35.5032L13.8364 34.7348ZM13.3551 35.3869C13.4341 35.2804 13.5146 35.221 13.5503 35.1975C13.5784 35.179 13.5859 35.1788 13.5232 35.2075C13.4788 35.2279 13.4756 35.2288 13.4099 35.2587C13.3632 35.2798 13.3012 35.3085 13.2344 35.3424C13.1037 35.4088 12.9138 35.5153 12.7232 35.6797L14.6827 37.9513C14.6174 38.0077 14.5714 38.0281 14.5927 38.0173C14.6334 37.9966 14.6442 37.9938 14.7729 37.9349C14.9369 37.8597 15.4122 37.6491 15.7644 37.1744L13.3551 35.3869ZM12.7232 35.6797C12.8152 35.6003 12.88 35.576 12.8369 35.5964C12.7921 35.6177 12.7551 35.6318 12.6275 35.6853C12.5309 35.7258 12.3638 35.7968 12.1955 35.8942C12.0331 35.9882 11.7697 36.1623 11.5513 36.4567L13.9606 38.2442C13.8332 38.4159 13.7037 38.4876 13.6985 38.4906C13.6874 38.497 13.7006 38.4884 13.788 38.4518C13.8445 38.4281 13.9952 38.3674 14.1219 38.3073C14.2504 38.2464 14.4708 38.1341 14.6827 37.9513L12.7232 35.6797ZM11.5513 36.4567C11.7746 36.1556 12.0483 36.0735 12.1 36.0591C12.1583 36.043 12.1681 36.0497 12.071 36.0541C12.0298 36.056 11.9833 36.057 11.9204 36.058C11.8645 36.059 11.7846 36.06 11.7086 36.0626C11.6317 36.0652 11.5319 36.07 11.4255 36.0819C11.3236 36.0932 11.175 36.1151 11.0115 36.1655L11.8948 39.0325C11.7627 39.0732 11.6876 39.065 11.8095 39.0609C11.853 39.0594 11.8985 39.0588 11.9705 39.0576C12.0354 39.0565 12.1191 39.055 12.2067 39.051C12.3672 39.0437 12.6288 39.0258 12.9029 38.9497C13.1704 38.8754 13.6238 38.6981 13.9606 38.2442L11.5513 36.4567ZM11.0115 36.1655C10.7517 36.2455 10.6277 36.2908 10.4514 36.3374C10.2986 36.3778 10.2202 36.3853 10.1855 36.3853V39.3853C10.9099 39.3853 11.6456 39.1092 11.8948 39.0325L11.0115 36.1655ZM10.1855 36.3853C9.56787 36.3853 8.97289 36.4985 8.51797 36.5876C8.01353 36.6865 7.66993 36.7575 7.3449 36.777L7.5243 39.7717C8.09806 39.7373 8.67578 39.6138 9.09501 39.5316C9.56376 39.4397 9.89482 39.3853 10.1855 39.3853V36.3853ZM7.3449 36.777C6.77416 36.8112 6.18891 36.8935 5.70468 36.9549C5.19063 37.02 4.76072 37.0661 4.36807 37.0661L4.36807 40.0661C4.96828 40.0661 5.56439 39.9967 6.08178 39.9311C6.62899 39.8618 7.08057 39.7982 7.5243 39.7717L7.3449 36.777ZM4.36807 37.0661H2.925L2.925 40.0661H4.36807L4.36807 37.0661ZM2.925 37.0661C2.60204 37.0661 2.14578 37.1403 1.86614 37.2177C1.80817 37.2337 1.63426 37.2818 1.45495 37.3784C1.41747 37.3985 1.0855 37.5647 0.857617 37.9461C0.713022 38.1881 0.578289 38.5761 0.676889 39.037C0.770542 39.4746 1.02674 39.7491 1.19331 39.8867C1.4785 40.1223 1.77681 40.1885 1.82745 40.2007C1.93523 40.2268 2.03033 40.2385 2.09109 40.2447C2.21689 40.2574 2.35023 40.2606 2.47404 40.2606L2.47404 37.2606C2.39037 37.2606 2.37202 37.2578 2.39248 37.2598C2.40057 37.2607 2.45459 37.2659 2.53168 37.2846C2.55165 37.2894 2.8297 37.3473 3.10384 37.5737C3.2649 37.7068 3.51788 37.9765 3.61048 38.4092C3.70803 38.8651 3.57441 39.2481 3.43293 39.4849C3.21129 39.8558 2.89361 40.011 2.8773 40.0198C2.79318 40.065 2.7277 40.0886 2.70913 40.0952C2.68328 40.1043 2.66739 40.1087 2.66613 40.109C2.66388 40.1097 2.6789 40.1056 2.71304 40.0988C2.74475 40.0925 2.78237 40.0859 2.82144 40.0801C2.91893 40.0656 2.95409 40.0661 2.925 40.0661L2.925 37.0661ZM2.47404 40.2606C3.40392 40.2606 4.44386 40.4089 5.62209 40.5802C6.74886 40.7441 8.01392 40.931 9.20188 40.931V37.931C8.27199 37.931 7.23206 37.7828 6.05383 37.6114C4.92706 37.4476 3.66199 37.2606 2.47404 37.2606L2.47404 40.2606ZM9.20188 40.931C10.3505 40.931 10.9715 40.9128 11.5103 41.0027C11.9358 41.0738 12.2783 41.2116 12.7232 41.5953L14.6827 39.3237C13.8229 38.582 12.9738 38.2056 12.0043 38.0437C11.1483 37.9008 10.1711 37.931 9.20188 37.931V40.931ZM12.7232 41.5953C12.7145 41.5879 12.731 41.6004 12.7736 41.658C12.8172 41.7173 12.8669 41.7942 12.9392 41.9125C13.049 42.0921 13.2879 42.5127 13.5952 42.8441L15.7949 40.8041C15.7449 40.7502 15.6931 40.6656 15.4988 40.3478C15.3541 40.111 15.0879 39.6733 14.6827 39.3238L12.7232 41.5953ZM13.5952 42.8441C13.5755 42.8227 13.5893 42.8335 13.6281 42.8981C13.6633 42.9566 13.7043 43.0348 13.746 43.1271C13.8349 43.3238 13.8901 43.5017 13.9074 43.5857L16.8456 42.9801C16.773 42.6275 16.6352 42.2354 16.4798 41.8915C16.3333 41.5675 16.106 41.1396 15.7949 40.8041L13.5952 42.8441ZM13.9074 43.5857C13.9463 43.7743 14.1401 44.4992 14.2827 45.0518C14.3611 45.3556 14.4321 45.6366 14.479 45.8376C14.5035 45.9426 14.5158 46.002 14.5199 46.0251C14.5237 46.0461 14.5151 46.0052 14.5104 45.9377C14.5093 45.9215 14.4988 45.7937 14.5236 45.6296C14.5339 45.5613 14.5697 45.3393 14.7142 45.0948C14.8857 44.805 15.306 44.3601 16.0028 44.3601V47.3601C16.7017 47.3601 17.1237 46.9141 17.2964 46.6221C17.4423 46.3754 17.479 46.1501 17.49 46.0775C17.5161 45.9047 17.5056 45.7639 17.5033 45.7308C17.4963 45.6295 17.4806 45.5391 17.473 45.4967C17.4545 45.3931 17.4274 45.271 17.4006 45.1562C17.345 44.918 17.2663 44.6073 17.1875 44.3019C17.1084 43.9956 17.0243 43.6757 16.9592 43.426C16.9262 43.2991 16.8981 43.1906 16.8768 43.1064C16.8525 43.0102 16.8449 42.9767 16.8456 42.9801L13.9074 43.5857Z" fill="#323232"/>
<path d="M17.0381 44.4416C16.6303 43.7204 15.7152 43.4664 14.9941 43.8742C14.273 44.282 14.0189 45.1971 14.4267 45.9183L17.0381 44.4416ZM16.1633 46.0552L14.7765 46.6268L14.7765 46.6268L16.1633 46.0552ZM16.2034 46.5198L17.4081 45.6261L17.4081 45.6261L16.2034 46.5198ZM16.3838 47.6869L17.8262 47.2753H17.8262L16.3838 47.6869ZM16.5442 48.681L18.0422 48.6039L16.5442 48.681ZM16.6143 49.5779L17.819 48.6842L16.6143 49.5779ZM17.3358 50.8206L15.949 51.3922L15.949 51.3922L17.3358 50.8206ZM17.1705 45.7094L15.7205 45.3252L15.7205 45.3252L17.1705 45.7094ZM17.3108 44.7423L15.9774 44.0553L15.9774 44.0553L17.3108 44.7423ZM17.6315 43.7697L19.1006 44.0725L19.1006 44.0725L17.6315 43.7697ZM18.348 42.0138L19.6734 42.7161L19.6734 42.7161L18.348 42.0138ZM18.8891 41.1439L17.6845 40.2501L17.6845 40.2501L18.8891 41.1439ZM19.4303 40.7549L20.635 41.6486L20.635 41.6486L19.4303 40.7549ZM21.2341 40.3226L21.0058 38.8401H21.0058L21.2341 40.3226ZM25.403 39.7337L25.3409 38.235H25.3409L25.403 39.7337ZM27.5476 38.3938L27.1172 39.8307L27.1172 39.8307L27.5476 38.3938ZM26.5555 38.102L25.9072 39.4547L25.9072 39.4547L26.5555 38.102ZM25.5634 37.9075L24.9432 39.2733L25.5634 37.9075ZM24.5011 37.7886L24.5633 36.2899H24.5632L24.5011 37.7886ZM22.6772 37.4969L22.5875 38.9942H22.5875L22.6772 37.4969ZM20.6729 37.0862L21.1295 35.6574H21.1295L20.6729 37.0862ZM18.343 34.8278L19.7929 34.4436L18.343 34.8278ZM17.9922 34.2335L19.4422 33.8493L19.4422 33.8493L17.9922 34.2335ZM17.8519 33.3636L19.1854 32.6766L19.1854 32.6766L17.8519 33.3636ZM16.8197 23.93L18.2889 23.6272L18.2889 23.6272L16.8197 23.93ZM16.3588 21.115L14.9088 21.4992L14.9088 21.4992L16.3588 21.115ZM17.7736 20.1857C17.7736 19.3573 17.102 18.6857 16.2736 18.6857C15.4451 18.6857 14.7736 19.3573 14.7736 20.1857H17.7736ZM14.4267 45.9183C14.5738 46.1783 14.6774 46.3864 14.7765 46.6268L17.5502 45.4836C17.3944 45.1056 17.2324 44.7851 17.0381 44.4416L14.4267 45.9183ZM14.7765 46.6268C14.6798 46.3922 14.6808 46.201 14.6808 46.1645C14.6809 46.13 14.6847 46.0897 14.6778 46.1759C14.6745 46.2172 14.6606 46.3729 14.6761 46.5501C14.6918 46.7298 14.7478 47.0753 14.9988 47.4136L17.4081 45.6261C17.514 45.7689 17.5758 45.9101 17.6119 46.0251C17.647 46.1371 17.6596 46.2303 17.6647 46.2885C17.6698 46.347 17.6689 46.3897 17.6684 46.406C17.6679 46.4222 17.6671 46.4297 17.6683 46.4147C17.669 46.4061 17.6694 46.4014 17.6706 46.3859C17.6717 46.3734 17.6731 46.3558 17.6745 46.3363C17.6771 46.2988 17.6807 46.2395 17.6808 46.1703C17.681 46.1015 17.6778 46.0057 17.6619 45.8949C17.646 45.7838 17.6148 45.6404 17.5502 45.4836L14.7765 46.6268ZM14.9988 47.4136C14.9116 47.2961 14.8679 47.1926 14.8476 47.1367C14.8267 47.0793 14.8193 47.0408 14.818 47.034C14.8169 47.0279 14.8218 47.0551 14.8272 47.155C14.8298 47.2025 14.8317 47.2471 14.8346 47.3105C14.8373 47.3682 14.8408 47.439 14.846 47.5117C14.855 47.6381 14.8745 47.8639 14.9414 48.0985L17.8262 47.2753C17.8483 47.3527 17.8445 47.3832 17.8383 47.2978C17.8314 47.2003 17.8321 47.1612 17.8228 46.9912C17.816 46.8679 17.8035 46.6769 17.7663 46.4792C17.7336 46.3057 17.6536 45.957 17.4081 45.6261L14.9988 47.4136ZM14.9414 48.0985C14.9875 48.26 15.0362 48.5661 15.0461 48.7582L18.0422 48.6039C18.0221 48.2148 17.9421 47.6815 17.8262 47.2753L14.9414 48.0985ZM15.0461 48.7582C15.0448 48.7319 15.0469 48.7322 15.0419 48.815C15.0387 48.8693 15.0295 48.9997 15.027 49.1205C15.0244 49.2447 15.0259 49.435 15.0626 49.6455C15.0988 49.8531 15.1836 50.167 15.4096 50.4717L17.819 48.6842C17.895 48.7867 17.9418 48.8839 17.9703 48.9593C17.9986 49.0338 18.0117 49.0939 18.018 49.1301C18.0244 49.1666 18.0258 49.1903 18.0261 49.1961C18.0264 49.2022 18.026 49.1991 18.0263 49.1831C18.0266 49.167 18.0275 49.145 18.0294 49.1121C18.0303 49.0959 18.0314 49.0788 18.0326 49.0588C18.0338 49.0401 18.0352 49.0167 18.0366 48.9943C18.0393 48.9495 18.0425 48.8915 18.0442 48.8298C18.0459 48.7685 18.0466 48.6902 18.0422 48.6039L15.0461 48.7582ZM15.4096 50.4717C15.2643 50.2758 15.2242 50.1048 15.2179 50.0787C15.207 50.0335 15.2085 50.0193 15.211 50.0538C15.216 50.1234 15.2159 50.2452 15.2062 50.4234C15.1969 50.5954 15.1817 50.7726 15.1663 50.9557C15.1538 51.1048 15.1343 51.3287 15.1343 51.5014H18.1343C18.1343 51.5064 18.1345 51.4863 18.1387 51.4231C18.1427 51.3652 18.1484 51.2948 18.1559 51.206C18.17 51.0376 18.1896 50.8113 18.2018 50.5858C18.2137 50.3664 18.2218 50.0965 18.2032 49.8379C18.1938 49.7083 18.1754 49.546 18.1344 49.3757C18.098 49.2246 18.0174 48.9517 17.819 48.6842L15.4096 50.4717ZM15.1343 51.5014C15.1343 52.0371 15.2294 52.548 15.2935 52.9028C15.3668 53.3093 15.4049 53.5401 15.4049 53.7382H18.4049C18.4049 53.2207 18.3077 52.713 18.2458 52.37C18.1745 51.9753 18.1343 51.7255 18.1343 51.5014H15.1343ZM15.4049 53.7382V55.7806H18.4049V53.7382H15.4049ZM15.4049 55.7806C15.4049 55.8461 15.4065 55.9437 15.418 56.0483C15.4234 56.0976 15.4356 56.193 15.4664 56.3061C15.4781 56.3491 15.5642 56.7044 15.8826 57.0094C16.0826 57.2011 16.4133 57.4071 16.8577 57.4268C17.2829 57.4458 17.603 57.2843 17.7818 57.1606C18.0861 56.9501 18.2274 56.6827 18.251 56.6401C18.3378 56.4831 18.3824 56.336 18.395 56.2949C18.4617 56.0781 18.5206 55.764 18.5644 55.5038C18.6557 54.9622 18.7657 54.1391 18.7657 53.641H15.7657C15.7657 53.8678 15.6952 54.4768 15.6062 55.005C15.5857 55.1265 15.5664 55.2304 15.5499 55.3109C15.531 55.4027 15.5227 55.4288 15.5276 55.4131C15.5298 55.4058 15.5363 55.385 15.5475 55.3557C15.5564 55.3323 15.5813 55.2685 15.6254 55.1887C15.6421 55.1585 15.777 54.8995 16.0754 54.6932C16.2512 54.5715 16.5684 54.411 16.9909 54.4298C17.4326 54.4494 17.7607 54.6542 17.9583 54.8435C18.2717 55.1438 18.3534 55.4899 18.3613 55.5188C18.3882 55.6178 18.3971 55.6943 18.3999 55.7196C18.4062 55.7763 18.4049 55.8056 18.4049 55.7806H15.4049ZM18.7657 53.641C18.7657 53.3908 18.7834 53.1471 18.8066 52.8371C18.8287 52.5409 18.8559 52.1832 18.8559 51.7932H15.8559C15.8559 52.0553 15.8379 52.3064 15.815 52.6135C15.793 52.9068 15.7657 53.2609 15.7657 53.641H18.7657ZM18.8559 51.7932C18.8559 51.7951 18.8559 51.7868 18.8571 51.7627C18.8584 51.739 18.8603 51.7099 18.8632 51.6695C18.8683 51.5986 18.8776 51.4796 18.8826 51.3629C18.8877 51.2449 18.8907 51.0869 18.8769 50.9171C18.8639 50.757 18.8306 50.511 18.7227 50.249L15.949 51.3922C15.9181 51.3173 15.9034 51.2574 15.8964 51.2231C15.8892 51.188 15.8872 51.1656 15.8868 51.1603C15.8863 51.1539 15.888 51.1732 15.8854 51.2338C15.8827 51.2957 15.8779 51.3567 15.8709 51.4549C15.8652 51.5343 15.8559 51.6645 15.8559 51.7932H18.8559ZM18.7227 50.249C18.6943 50.1803 18.6525 50.0606 18.6197 49.9366C18.6039 49.8768 18.5936 49.8286 18.5878 49.7949C18.5811 49.7555 18.5853 49.7627 18.5853 49.8049H15.5853C15.5853 50.1439 15.6606 50.4813 15.7194 50.7036C15.7846 50.9499 15.868 51.1957 15.949 51.3922L18.7227 50.249ZM18.5853 49.8049C18.5853 49.3268 18.5275 48.8638 18.4843 48.5063C18.4374 48.1178 18.4049 47.833 18.4049 47.5626H15.4049C15.4049 48.0434 15.4626 48.5072 15.5059 48.8658C15.553 49.2554 15.5853 49.5379 15.5853 49.8049H18.5853ZM18.4049 47.5626C18.4049 47.1245 18.4955 46.5653 18.6204 46.0936L15.7205 45.3252C15.5516 45.9626 15.4049 46.7899 15.4049 47.5626H18.4049ZM18.6204 46.0936C18.6765 45.8821 18.6947 45.6923 18.7027 45.5613C18.7068 45.4946 18.7088 45.4332 18.7101 45.3866C18.7116 45.3309 18.7119 45.3078 18.7132 45.2722C18.7153 45.2088 18.7178 45.2083 18.7139 45.2309C18.7088 45.2602 18.6924 45.3357 18.6442 45.4293L15.9774 44.0553C15.7355 44.5247 15.7212 44.9852 15.7149 45.1698C15.7101 45.31 15.7119 45.3191 15.7084 45.3771C15.7063 45.4102 15.7056 45.3817 15.7205 45.3252L18.6204 46.0936ZM18.6442 45.4293C18.8733 44.9846 19.023 44.4491 19.1006 44.0725L16.1623 43.467C16.113 43.7063 16.0325 43.9482 15.9774 44.0553L18.6442 45.4293ZM19.1006 44.0725C19.1766 43.7036 19.3936 43.2442 19.6734 42.7161L17.0226 41.3114C16.7557 41.8151 16.336 42.6245 16.1623 43.467L19.1006 44.0725ZM19.6734 42.7161C19.8094 42.4596 19.9455 42.2375 20.0938 42.0376L17.6845 40.2501C17.4255 40.5992 17.2109 40.956 17.0226 41.3114L19.6734 42.7161ZM20.0938 42.0376C20.0073 42.1542 19.9216 42.2196 19.8865 42.2444C19.8552 42.2666 19.839 42.2732 19.8837 42.2493C19.8918 42.245 19.9407 42.2191 19.9687 42.204C20.0048 42.1844 20.0585 42.1547 20.1176 42.1178C20.2172 42.0557 20.4428 41.9077 20.635 41.6486L18.2256 39.8611C18.3679 39.6694 18.5189 39.5792 18.5305 39.572C18.5456 39.5626 18.5518 39.5596 18.5384 39.5669C18.5168 39.5786 18.5141 39.5797 18.4699 39.6033C18.4101 39.6353 18.2864 39.7017 18.1556 39.7941C18.021 39.8892 17.8437 40.0355 17.6845 40.2501L20.0938 42.0376ZM20.635 41.6486C20.5153 41.8099 20.3906 41.893 20.3371 41.9251C20.2801 41.9592 20.2469 41.9693 20.2576 41.9656C20.2836 41.9565 20.3621 41.9356 20.5097 41.9129C20.6491 41.8915 20.8017 41.8755 20.9658 41.8597C21.098 41.8471 21.3086 41.8289 21.4625 41.8051L21.0058 38.8401C20.9628 38.8467 20.8819 38.854 20.6795 38.8734C20.509 38.8898 20.2839 38.9124 20.054 38.9477C19.8323 38.9818 19.5499 39.0357 19.2749 39.1311C19.0516 39.2085 18.5689 39.3985 18.2256 39.8611L20.635 41.6486ZM21.4625 41.8051C21.9586 41.7287 22.4694 41.5594 22.7619 41.4731C23.1217 41.3669 23.3098 41.331 23.4438 41.331L23.4438 38.331C22.8403 38.331 22.29 38.4844 21.9126 38.5958C21.4678 38.7271 21.2425 38.8036 21.0058 38.8401L21.4625 41.8051ZM23.4438 41.331C24.1093 41.331 24.959 41.2534 25.4652 41.2324L25.3409 38.235C24.5229 38.2689 24.0754 38.331 23.4438 38.331L23.4438 41.331ZM25.4652 41.2324C25.9443 41.2125 26.4153 41.1087 26.7168 41.0472C27.0714 40.975 27.2724 40.9419 27.4373 40.9419V37.9419C26.9277 37.9419 26.4449 38.041 26.1177 38.1077C25.7373 38.1852 25.5284 38.2272 25.3409 38.235L25.4652 41.2324ZM27.4373 40.9419C27.8713 40.9419 29.5836 40.8117 30.5901 40.6875C30.8418 40.6565 31.1023 40.6197 31.3044 40.5767C31.3679 40.5632 31.5763 40.5202 31.7815 40.4222C31.8428 40.393 31.9533 40.336 32.074 40.2419C32.1763 40.1622 32.4191 39.9545 32.5602 39.587C32.7365 39.1277 32.6719 38.6356 32.435 38.252C32.2455 37.9454 31.9989 37.7901 31.8958 37.7309C31.6817 37.608 31.482 37.5639 31.4276 37.5517C31.3392 37.5318 31.2567 37.5198 31.1934 37.512C31.0647 37.496 30.9182 37.4857 30.7656 37.4783C30.455 37.4633 30.0198 37.4557 29.4416 37.4557V40.4557C30.0036 40.4557 30.3822 40.4633 30.6203 40.4748C30.742 40.4807 30.8035 40.4866 30.8243 40.4892C30.8356 40.4906 30.8131 40.4884 30.771 40.4789C30.763 40.4771 30.5959 40.444 30.4016 40.3324C30.3085 40.2789 30.0685 40.1295 29.8827 39.8287C29.6494 39.4511 29.5855 38.9651 29.7594 38.5119C29.8982 38.1505 30.1357 37.9491 30.2299 37.8757C30.3424 37.7879 30.4419 37.7374 30.4895 37.7147C30.64 37.6429 30.7502 37.6274 30.6799 37.6424C30.6142 37.6564 30.4639 37.6804 30.2228 37.7101C29.7613 37.767 29.1291 37.8258 28.5624 37.8706C28.2811 37.8929 28.0222 37.9112 27.8156 37.9238C27.7121 37.9302 27.6247 37.9349 27.5557 37.938C27.5213 37.9395 27.4935 37.9406 27.4719 37.9412C27.4612 37.9415 27.4528 37.9417 27.4466 37.9418C27.4402 37.9419 27.4373 37.9419 27.4373 37.9419V40.9419ZM29.4416 37.4557C29.4068 37.4557 29.291 37.4408 29.0025 37.3345C28.8212 37.2677 28.3258 37.061 27.978 36.9568L27.1172 39.8307C27.3675 39.9057 27.5054 39.98 27.9649 40.1493C28.3171 40.2792 28.8492 40.4557 29.4416 40.4557V37.4557ZM27.978 36.9568C27.8616 36.922 27.7488 36.8934 27.6569 36.8709C27.5502 36.8446 27.4911 36.831 27.4101 36.8105C27.3389 36.7925 27.2885 36.7783 27.2501 36.7659C27.2116 36.7534 27.1993 36.7472 27.2037 36.7493L25.9072 39.4547C26.1947 39.5925 26.4845 39.6707 26.6727 39.7185C26.9178 39.7806 26.9963 39.7945 27.1172 39.8307L27.978 36.9568ZM27.2037 36.7493C26.9614 36.6332 26.734 36.5809 26.5696 36.5533C26.4118 36.5268 26.26 36.5156 26.1851 36.5096C26.0865 36.5017 26.0624 36.4989 26.0497 36.4968C26.0439 36.4959 26.1003 36.5039 26.1835 36.5417L24.9432 39.2733C25.1796 39.3806 25.4004 39.4304 25.564 39.4572C25.7208 39.483 25.8711 39.494 25.946 39.5C25.9919 39.5037 26.0193 39.506 26.0435 39.5084C26.0663 39.5107 26.074 39.512 26.0728 39.5118C26.0712 39.5116 26.0542 39.5087 26.0268 39.5008C25.999 39.4928 25.9573 39.4787 25.9072 39.4547L27.2037 36.7493ZM26.1835 36.5417C25.7768 36.357 25.3635 36.3199 25.1336 36.3059C25.0029 36.298 24.8786 36.2957 24.7841 36.2943C24.6772 36.2927 24.6179 36.2922 24.5633 36.2899L24.4389 39.2873C24.5451 39.2917 24.6624 39.2928 24.739 39.294C24.8281 39.2953 24.8944 39.2969 24.9524 39.3005C25.0105 39.304 25.0384 39.3082 25.0458 39.3096C25.0555 39.3114 25.0133 39.3051 24.9432 39.2733L26.1835 36.5417ZM24.5632 36.2899C24.4066 36.2834 24.2252 36.2493 23.9049 36.1805C23.628 36.121 23.2074 36.0259 22.7669 35.9996L22.5875 38.9942C22.7573 39.0044 22.9446 39.0426 23.2749 39.1136C23.5618 39.1752 23.9872 39.2686 24.4389 39.2873L24.5632 36.2899ZM22.7669 35.9996C22.3045 35.9719 21.6838 35.8345 21.1295 35.6574L20.2164 38.5151C20.9049 38.735 21.7864 38.9462 22.5875 38.9942L22.7669 35.9996ZM21.1295 35.6574C20.4246 35.4322 19.9337 34.9748 19.7929 34.4436L16.893 35.212C17.3778 37.0416 18.8849 38.0897 20.2164 38.5151L21.1295 35.6574ZM19.7929 34.4436C19.7243 34.1847 19.6116 33.9881 19.5378 33.8726C19.466 33.7602 19.3872 33.6591 19.3605 33.6241C19.3176 33.568 19.3227 33.5728 19.334 33.5907C19.3474 33.6121 19.4036 33.7038 19.4422 33.8493L16.5423 34.6177C16.6091 34.8698 16.7167 35.0639 16.7928 35.1853C16.8668 35.3032 16.9461 35.4055 16.9771 35.4461C17.0243 35.5078 17.0192 35.5027 17.0094 35.4873C16.9976 35.4688 16.9349 35.3702 16.893 35.212L19.7929 34.4436ZM19.4422 33.8493C19.4544 33.8952 19.4547 33.92 19.4531 33.8983C19.4492 33.8467 19.4514 33.8518 19.4449 33.7185C19.4357 33.531 19.412 33.1165 19.1854 32.6766L16.5185 34.0506C16.4365 33.8914 16.4435 33.7627 16.4485 33.8655C16.4499 33.8948 16.4505 33.9129 16.4525 33.9634C16.4543 34.0051 16.4569 34.0618 16.4616 34.1242C16.471 34.2497 16.4906 34.4227 16.5423 34.6177L19.4422 33.8493ZM19.1854 32.6766C19.2317 32.7666 19.2233 32.7911 19.2013 32.6742C19.1836 32.5805 19.1674 32.4518 19.1549 32.2941C19.1299 31.9793 19.1265 31.6443 19.1265 31.4185H16.1265C16.1265 31.6624 16.1296 32.0941 16.1643 32.5315C16.1817 32.7499 16.2086 32.9936 16.2531 33.2298C16.2933 33.4429 16.3661 33.7547 16.5185 34.0506L19.1854 32.6766ZM19.1265 31.4185C19.1265 30.6202 18.9855 29.8714 18.876 29.2787C18.7584 28.6418 18.6755 28.1752 18.6755 27.7229H15.6755C15.6755 28.498 15.818 29.2394 15.9259 29.8235C16.042 30.452 16.1265 30.9372 16.1265 31.4185H19.1265ZM18.6755 27.7229C18.6755 26.3381 18.5718 25.0001 18.2889 23.6272L15.3506 24.2328C15.5836 25.3633 15.6755 26.4921 15.6755 27.7229H18.6755ZM18.2889 23.6272C18.1565 22.985 18.0442 22.464 18.0442 22.0822H15.0442C15.0442 22.8478 15.2491 23.74 15.3506 24.2328L18.2889 23.6272ZM18.0442 22.0822C18.0442 21.7867 17.9813 21.4679 17.943 21.2872C17.8969 21.0696 17.8431 20.8605 17.8087 20.7308L14.9088 21.4992C14.9388 21.6123 14.9776 21.7646 15.0081 21.9088C15.0234 21.9807 15.0341 22.0393 15.0405 22.0825C15.0483 22.1349 15.0442 22.1279 15.0442 22.0822H18.0442ZM17.8087 20.7308C17.7858 20.6445 17.7736 20.5277 17.7736 20.1857H14.7736C14.7736 20.5215 14.775 20.9943 14.9088 21.4992L17.8087 20.7308Z" fill="#323232"/>
<path d="M43.3429 10.9726C44.2049 10.3706 44.9482 9.61207 45.5326 8.73864C46.1171 9.61207 46.8604 10.3706 47.7224 10.9726C46.8604 11.5746 46.1171 12.3331 45.5326 13.2065C44.9482 12.3331 44.2049 11.5746 43.3429 10.9726Z" fill="#323232" stroke="#323232" stroke-width="3"/>
<path d="M46.6531 2.00012C46.6531 1.17169 45.9815 0.500122 45.1531 0.500122C44.3247 0.500122 43.6531 1.17169 43.6531 2.00012L46.6531 2.00012ZM44.9713 9.07725L43.5022 8.77448L43.5022 8.77448L44.9713 9.07725ZM44.9325 9.37461L43.4345 9.29743V9.29743L44.9325 9.37461ZM44.8242 9.63452L43.3743 9.25032L43.3743 9.25033L44.8242 9.63452ZM44.528 10.1081L45.7327 11.0018L45.7327 11.0018L44.528 10.1081ZM44.1787 10.3262L45.1585 11.462L45.1585 11.4619L44.1787 10.3262ZM43.7927 10.5442L42.588 9.65046L42.588 9.65047L43.7927 10.5442ZM43.2616 10.6455L42.8199 9.21203L42.8199 9.21203L43.2616 10.6455ZM41.6233 10.9209L41.713 12.4182L41.713 12.4182L41.6233 10.9209ZM44.1787 11.8117L45.1585 10.6759L45.1585 10.6759L44.1787 11.8117ZM44.5832 12.368L43.4834 13.388L44.5832 12.368ZM44.861 12.9627L46.3301 12.66L46.3301 12.66L44.861 12.9627ZM45.1163 12.5134C44.2879 12.5134 43.6163 13.185 43.6163 14.0134C43.6163 14.8418 44.2879 15.5134 45.1163 15.5134V12.5134ZM43.6531 2.00012C43.6531 2.75433 43.644 3.51212 43.6348 4.27963C43.6257 5.04408 43.6163 5.81835 43.6163 6.59045H46.6163C46.6163 5.83938 46.6254 5.08319 46.6346 4.31563C46.6438 3.55112 46.6531 2.77533 46.6531 2.00012L43.6531 2.00012ZM43.6163 6.59045C43.6163 6.7423 43.604 6.89851 43.5849 7.12474C43.5674 7.3322 43.5428 7.61165 43.5428 7.90764H46.5428C46.5428 7.75895 46.555 7.6049 46.5742 7.37749C46.5919 7.16885 46.6163 6.8888 46.6163 6.59045H43.6163ZM43.5428 7.90764C43.5428 8.34294 43.5409 8.58646 43.5022 8.77448L46.4404 9.38002C46.5545 8.82666 46.5428 8.23642 46.5428 7.90764H43.5428ZM43.5022 8.77448C43.4698 8.93175 43.4433 9.12645 43.4345 9.29743L46.4305 9.45179C46.4303 9.45572 46.4303 9.45419 46.431 9.44704C46.4316 9.44031 46.4326 9.43141 46.434 9.42115C46.4353 9.41093 46.4368 9.40125 46.4381 9.393C46.4388 9.38898 46.4394 9.38573 46.4398 9.38333C46.4403 9.3809 46.4405 9.3798 46.4404 9.38001L43.5022 8.77448ZM43.4345 9.29743C43.4432 9.12758 43.4834 8.99319 43.5167 8.90659C43.5331 8.86391 43.5487 8.83082 43.5591 8.80984C43.5694 8.7893 43.577 8.77572 43.5777 8.77448C43.5782 8.77367 43.5779 8.77418 43.5757 8.77798C43.575 8.77921 43.5691 8.78947 43.5657 8.79536C43.5574 8.80991 43.5407 8.83911 43.5223 8.87407C43.5036 8.9097 43.4785 8.95986 43.4529 9.02057C43.4271 9.08164 43.3985 9.15908 43.3743 9.25032L46.2742 10.0187C46.2385 10.1534 46.1904 10.246 46.1774 10.2707C46.1698 10.2852 46.1647 10.2939 46.1682 10.2878C46.1707 10.2834 46.1708 10.2833 46.176 10.2741C46.1798 10.2675 46.1855 10.2576 46.1919 10.2463C46.2146 10.206 46.2683 10.1095 46.3164 9.98434C46.367 9.85282 46.4192 9.67152 46.4305 9.45179L43.4345 9.29743ZM43.3743 9.25033C43.3782 9.23532 43.3843 9.21531 43.3931 9.1915C43.402 9.16747 43.4129 9.14191 43.4259 9.11562C43.4389 9.08929 43.4524 9.06549 43.4654 9.0447C43.4782 9.02421 43.489 9.00889 43.4957 8.99985C43.502 8.99141 43.5048 8.9882 43.5003 8.99367C43.4981 8.99632 43.4949 9.0002 43.4898 9.00635C43.4842 9.01304 43.479 9.0193 43.4705 9.02938C43.4403 9.06551 43.3844 9.1321 43.3234 9.21434L45.7327 11.0018C45.7364 10.9968 45.7424 10.9891 45.7703 10.9557C45.7904 10.9318 45.8504 10.8614 45.9083 10.783C46.0571 10.5816 46.1898 10.3372 46.2742 10.0187L43.3743 9.25033ZM43.3234 9.21434C43.4329 9.06674 43.5511 8.97495 43.6285 8.92405C43.6665 8.8991 43.6971 8.8824 43.7142 8.87349C43.7307 8.86486 43.7406 8.86049 43.7354 8.86287C43.733 8.86397 43.7294 8.86557 43.7217 8.86905C43.7154 8.87186 43.7036 8.87716 43.692 8.8824C43.6686 8.89303 43.6297 8.91089 43.5854 8.9334C43.5404 8.95624 43.4822 8.9877 43.4176 9.02853C43.3527 9.06963 43.2774 9.12272 43.199 9.19036L45.1585 11.4619C45.0561 11.5503 44.9675 11.5962 44.9438 11.6083C44.9394 11.6105 44.9029 11.6279 44.985 11.5902C45.033 11.5682 45.1491 11.5146 45.2763 11.431C45.4111 11.3424 45.5812 11.2061 45.7327 11.0018L43.3234 9.21434ZM43.199 9.19035C43.3265 9.08033 43.4374 9.02997 43.4451 9.02631C43.4511 9.02347 43.4697 9.01542 43.3966 9.04607C43.3545 9.06374 43.2408 9.11117 43.1191 9.18161C43.0032 9.24868 42.7795 9.39241 42.588 9.65046L44.9973 11.438C44.9165 11.5469 44.8339 11.624 44.7712 11.6748C44.7088 11.7254 44.655 11.7589 44.622 11.778C44.5885 11.7974 44.5639 11.8091 44.5556 11.8129C44.5473 11.8168 44.5451 11.8176 44.5571 11.8125C44.563 11.81 44.5692 11.8075 44.5797 11.8031C44.589 11.7993 44.6021 11.7939 44.6159 11.788C44.6428 11.7767 44.684 11.759 44.7301 11.7372C44.7761 11.7154 44.8383 11.6841 44.9073 11.6428C44.9757 11.6019 45.0646 11.5429 45.1585 11.462L43.199 9.19035ZM42.588 9.65047C42.845 9.30413 43.1718 9.19384 43.2875 9.16171C43.3561 9.14264 43.4087 9.13499 43.434 9.13185C43.4604 9.12859 43.4758 9.12804 43.4732 9.12816C43.4702 9.12829 43.4623 9.12856 43.4372 9.12898C43.4192 9.12928 43.3764 9.12985 43.3358 9.13122C43.2942 9.13262 43.228 9.13557 43.1521 9.144C43.0808 9.15193 42.9599 9.16891 42.8199 9.21203L43.7032 12.0791C43.5239 12.1343 43.3855 12.1312 43.4367 12.1295C43.4448 12.1292 43.4532 12.1291 43.4873 12.1286C43.5144 12.1281 43.5595 12.1273 43.609 12.1251C43.6931 12.1213 43.8802 12.1107 44.0903 12.0523C44.294 11.9957 44.6941 11.8466 44.9973 11.438L42.588 9.65047ZM42.8199 9.21203C42.7924 9.22052 42.7661 9.22887 42.7448 9.23565C42.7216 9.24307 42.7053 9.2483 42.6878 9.25378C42.6539 9.26446 42.6365 9.2695 42.626 9.27225C42.6162 9.27485 42.6225 9.27273 42.6403 9.26988C42.6584 9.26698 42.6946 9.26228 42.7447 9.26228V12.2623C43.2119 12.2623 43.6867 12.0841 43.7032 12.0791L42.8199 9.21203ZM42.7447 9.26228C42.3961 9.26228 42.0754 9.32581 41.8941 9.36135C41.6632 9.40661 41.5924 9.42003 41.5336 9.42356L41.713 12.4182C42.0206 12.3998 42.3254 12.3339 42.4711 12.3053C42.6663 12.2671 42.7231 12.2623 42.7447 12.2623V9.26228ZM41.5336 9.42356C41.2633 9.43975 40.9851 9.47888 40.8064 9.50153C40.5978 9.52796 40.4717 9.53981 40.3732 9.53981V12.5398C40.6793 12.5398 40.9716 12.5046 41.1835 12.4777C41.4252 12.4471 41.5697 12.4268 41.713 12.4182L41.5336 9.42356ZM40.3732 9.53981H39.7848V12.5398H40.3732V9.53981ZM39.7848 9.53981C39.5584 9.53981 39.2918 9.58521 39.1163 9.63378C39.0843 9.64261 38.9311 9.68352 38.7643 9.77332C38.7331 9.79013 38.4054 9.95304 38.1793 10.3313C38.0356 10.5718 37.9012 10.9583 37.9995 11.4177C38.0929 11.8539 38.3481 12.127 38.5131 12.2632C38.795 12.4961 39.0873 12.5598 39.1288 12.5699C39.2275 12.5937 39.3105 12.6036 39.3556 12.6081C39.4502 12.6177 39.5386 12.6191 39.601 12.6191V9.61911C39.5788 9.61911 39.6054 9.61808 39.657 9.62329C39.6807 9.62568 39.7469 9.63289 39.8331 9.65371C39.8621 9.66072 40.1462 9.72108 40.4236 9.95023C40.5863 10.0846 40.8402 10.3557 40.9331 10.79C41.031 11.2473 40.897 11.6318 40.7546 11.8701C40.5311 12.2441 40.2092 12.4026 40.1866 12.4147C40.0963 12.4634 40.0225 12.4904 39.9939 12.5005C39.9581 12.5132 39.9305 12.5212 39.9162 12.5251C39.884 12.5341 39.8785 12.5398 39.7848 12.5398V9.53981ZM39.601 12.6191C39.9037 12.6191 40.2609 12.6681 40.7565 12.7402C41.2006 12.8047 41.783 12.8924 42.3438 12.8924V9.89243C42.0411 9.89243 41.6838 9.84345 41.1883 9.77138C40.7441 9.7068 40.1617 9.61911 39.601 9.61911V12.6191ZM42.3438 12.8924C42.588 12.8924 42.7385 12.89 42.8895 12.8931C43.0299 12.896 43.1001 12.9031 43.1385 12.9095C43.1674 12.9144 43.1645 12.9165 43.1514 12.9104C43.1398 12.9049 43.1536 12.9084 43.199 12.9475L45.1585 10.6759C44.6851 10.2675 44.1889 10.0434 43.6326 9.95049C43.1896 9.87654 42.6857 9.89243 42.3438 9.89243V12.8924ZM43.199 12.9475C43.1295 12.8876 43.0921 12.8376 43.0847 12.8275C43.0784 12.8189 43.082 12.8228 43.1093 12.8675C43.126 12.8947 43.1789 12.9832 43.2282 13.0584C43.282 13.1403 43.3669 13.2625 43.4834 13.388L45.683 11.348C45.7266 11.395 45.7455 11.4264 45.736 11.4119C45.722 11.3906 45.7143 11.3769 45.6689 11.3028C45.6343 11.2461 45.5746 11.1493 45.4995 11.0475C45.4233 10.9441 45.3117 10.8081 45.1585 10.6759L43.199 12.9475ZM43.4834 13.388C43.4487 13.3507 43.4254 13.3201 43.4124 13.3021C43.3988 13.2833 43.3905 13.2699 43.3868 13.2637C43.3801 13.2526 43.3811 13.2529 43.3867 13.2652C43.3918 13.2765 43.3963 13.2881 43.399 13.296C43.4026 13.3066 43.3982 13.2963 43.3919 13.2655L46.3301 12.66C46.2841 12.4367 46.2035 12.2134 46.1204 12.0295C46.0463 11.8657 45.9066 11.5891 45.683 11.348L43.4834 13.388ZM43.3919 13.2655C43.4078 13.3428 43.4423 13.4741 43.4629 13.5534C43.4913 13.6623 43.5232 13.7835 43.5548 13.9059C43.5867 14.0293 43.6133 14.1351 43.6298 14.206C43.6391 14.2459 43.6398 14.2516 43.6372 14.2372C43.6362 14.2316 43.634 14.219 43.6315 14.2016C43.6294 14.1869 43.6247 14.1523 43.6216 14.1063C43.6201 14.0851 43.6096 13.9534 43.6348 13.7868C43.6453 13.7172 43.6813 13.4942 43.8263 13.2491C43.9057 13.1149 44.0447 12.9282 44.2742 12.7723C44.52 12.6054 44.8128 12.5134 45.1163 12.5134V15.5134C45.8146 15.5134 46.2361 15.0677 46.4084 14.7764C46.5539 14.5304 46.5904 14.306 46.6011 14.2347C46.6268 14.0644 46.6164 13.9275 46.6144 13.8994C46.6081 13.8081 46.5945 13.7324 46.5903 13.7087C46.5785 13.6427 46.563 13.5743 46.5514 13.5246C46.5262 13.4165 46.4918 13.281 46.4596 13.1561C46.4271 13.0301 46.3918 12.8959 46.366 12.7971C46.3326 12.6686 46.326 12.6399 46.3301 12.66L43.3919 13.2655Z" fill="#323232"/>
<path d="M46.3116 12.9981C45.9038 12.277 44.9887 12.0229 44.2676 12.4307C43.5465 12.8385 43.2924 13.7536 43.7002 14.4748L46.3116 12.9981ZM45.1816 14.0932L46.5684 13.5216L46.5684 13.5216L45.1816 14.0932ZM45.1979 14.2827L43.9933 15.1764L43.9933 15.1764L45.1979 14.2827ZM45.2715 14.7584L46.7139 14.3469L46.7139 14.3468L45.2715 14.7584ZM45.3368 15.1637L43.8388 15.2409V15.2409L45.3368 15.1637ZM45.3654 15.5294L44.1608 16.4231L44.1608 16.4231L45.3654 15.5294ZM45.6596 16.036L47.0464 15.4644L47.0464 15.4644L45.6596 16.036ZM45.5922 13.9523L44.1422 13.5681L44.1422 13.5681L45.5922 13.9523ZM45.6494 13.558L46.9828 14.245L46.9828 14.245L45.6494 13.558ZM45.7801 13.1615L47.2492 13.4643H47.2492L45.7801 13.1615ZM46.0722 12.4457L44.7468 11.7433L44.7468 11.7433L46.0722 12.4457ZM46.2928 12.091L47.4975 12.9848L47.4975 12.9848L46.2928 12.091ZM46.5134 11.9324L45.3088 11.0387L45.3088 11.0387L46.5134 11.9324ZM47.2488 11.7562L47.0205 10.2737L47.0205 10.2737L47.2488 11.7562ZM48.9484 11.5161L49.0105 13.0149L48.9484 11.5161ZM49.8227 10.9699L49.3923 12.4068L49.3923 12.4068L49.8227 10.9699ZM49.4182 10.8509L50.0665 9.49826L50.0665 9.49825L49.4182 10.8509ZM49.0137 10.7716L48.3936 12.1375L48.3936 12.1375L49.0137 10.7716ZM48.5807 10.7232L48.5185 12.2219H48.5185L48.5807 10.7232ZM47.8371 10.6042L47.7474 12.1016L47.8371 10.6042ZM47.02 10.4368L47.4766 9.00799H47.4766L47.02 10.4368ZM46.0702 9.51613L47.5201 9.13194L47.5201 9.13193L46.0702 9.51613ZM45.9272 9.27384L47.3772 8.88964L47.3772 8.88964L45.9272 9.27384ZM45.87 8.91921L47.2034 8.23221L47.2034 8.23221L45.87 8.91921ZM45.4492 5.07338L46.9183 4.77061V4.77061L45.4492 5.07338ZM45.2613 3.92579L46.7112 3.5416L46.7112 3.5416L45.2613 3.92579ZM46.7265 3.54694C46.7265 2.71851 46.055 2.04694 45.2265 2.04694C44.3981 2.04694 43.7265 2.71851 43.7265 3.54694L46.7265 3.54694ZM43.7002 14.4748C43.7462 14.556 43.7712 14.6076 43.7948 14.6649L46.5684 13.5216C46.4881 13.3268 46.4048 13.1628 46.3116 12.9981L43.7002 14.4748ZM43.7948 14.6649C43.7396 14.531 43.7146 14.4126 43.7025 14.3281C43.6904 14.2438 43.6887 14.176 43.6887 14.1361C43.6888 14.0958 43.6909 14.0664 43.6914 14.0591C43.6917 14.0547 43.6919 14.0523 43.6917 14.055C43.6915 14.0568 43.6915 14.0573 43.6912 14.0608C43.691 14.0635 43.6907 14.0674 43.6903 14.0718C43.6891 14.087 43.6861 14.1246 43.6847 14.1701C43.6833 14.2157 43.6827 14.2869 43.6902 14.3725C43.7039 14.5294 43.7543 14.8544 43.9933 15.1764L46.4026 13.3889C46.5145 13.5398 46.5808 13.6903 46.6199 13.8152C46.6582 13.9373 46.6727 14.0412 46.6787 14.1108C46.6849 14.1808 46.6841 14.2355 46.6832 14.2641C46.6827 14.2795 46.6821 14.2916 46.6816 14.2989C46.6814 14.3026 46.6812 14.3055 46.681 14.3074C46.6809 14.3093 46.6808 14.3104 46.6808 14.3105C46.6808 14.3105 46.6808 14.31 46.681 14.3083C46.681 14.3074 46.6814 14.3035 46.6816 14.3009C46.6821 14.2948 46.683 14.2836 46.6839 14.2704C46.6857 14.2456 46.6886 14.1989 46.6887 14.1419C46.6888 14.0852 46.6863 14.0012 46.672 13.9016C46.6576 13.8016 46.6291 13.6688 46.5684 13.5216L43.7948 14.6649ZM43.9933 15.1764C43.8933 15.0416 43.8391 14.9173 43.8102 14.8377C43.7807 14.7566 43.7666 14.6918 43.76 14.6566C43.7531 14.6199 43.7505 14.5945 43.7497 14.5871C43.749 14.5792 43.7491 14.5782 43.7497 14.5901C43.7505 14.6046 43.751 14.6157 43.7524 14.6461C43.7535 14.6708 43.7554 14.709 43.7583 14.7504C43.7613 14.7917 43.7662 14.8489 43.7753 14.9136C43.7841 14.9765 43.7996 15.0668 43.8291 15.17L46.7139 14.3468C46.7342 14.418 46.7428 14.4724 46.7462 14.4966C46.7481 14.5105 46.7492 14.521 46.7498 14.527C46.7502 14.5302 46.7504 14.5326 46.7505 14.5341C46.7506 14.5356 46.7507 14.5364 46.7507 14.5365C46.7507 14.5365 46.7506 14.536 46.7506 14.5347C46.7505 14.5334 46.7504 14.5315 46.7502 14.529C46.75 14.5237 46.7496 14.517 46.7492 14.5073C46.7485 14.4923 46.747 14.4574 46.7453 14.4263C46.7421 14.3692 46.7348 14.2427 46.7082 14.1018C46.6863 13.9851 46.6224 13.6852 46.4026 13.3889L43.9933 15.1764ZM43.829 15.17C43.8255 15.1577 43.8252 15.1549 43.827 15.1632C43.8285 15.1705 43.8306 15.1817 43.8328 15.1955C43.835 15.2092 43.8367 15.2221 43.8379 15.2324C43.8391 15.2434 43.8391 15.2463 43.8388 15.2409L46.8349 15.0866C46.8237 14.8696 46.7818 14.5849 46.7139 14.3469L43.829 15.17ZM43.8388 15.2409C43.8354 15.175 43.8396 15.1301 43.8375 15.1653C43.8371 15.1719 43.8315 15.2524 43.83 15.3244C43.8285 15.3997 43.8284 15.5423 43.8576 15.7096C43.8862 15.8739 43.9575 16.1491 44.1608 16.4231L46.5701 14.6356C46.742 14.8673 46.7947 15.0893 46.813 15.1942C46.8318 15.302 46.8295 15.3788 46.8294 15.3869C46.8293 15.3917 46.8286 15.4035 46.8322 15.3445C46.834 15.3142 46.8411 15.2069 46.8349 15.0866L43.8388 15.2409ZM44.1608 16.4231C44.0743 16.3065 44.0224 16.199 43.9919 16.1247C43.9608 16.0487 43.9428 15.9848 43.9324 15.9418C43.9126 15.8594 43.9082 15.8014 43.9071 15.7873C43.9058 15.7684 43.9063 15.7623 43.9062 15.7736C43.9061 15.7837 43.9056 15.8007 43.9042 15.826C43.9013 15.8802 43.8964 15.938 43.8897 16.0169C43.8868 16.0518 43.8831 16.096 43.8803 16.1384C43.8777 16.1757 43.8736 16.2417 43.8736 16.3135H46.8736C46.8736 16.3525 46.871 16.3656 46.8793 16.2673C46.8847 16.2029 46.894 16.0961 46.8998 15.9883C46.9053 15.8867 46.911 15.7328 46.8994 15.5714C46.8935 15.4904 46.881 15.372 46.8489 15.2387C46.8214 15.1246 46.7528 14.8819 46.5701 14.6356L44.1608 16.4231ZM43.8736 16.3135C43.8736 16.6242 43.9286 16.9098 43.9526 17.0427C43.9859 17.2271 43.9839 17.2392 43.9839 17.2254H46.9839C46.9839 16.9199 46.9268 16.6309 46.9049 16.5098C46.8737 16.3371 46.8736 16.3126 46.8736 16.3135H43.8736ZM43.9839 17.2254V18.058H46.9839V17.2254H43.9839ZM43.9839 18.058C43.9839 18.0967 43.9846 18.1741 43.9946 18.2645C43.9992 18.3067 44.0105 18.3965 44.0401 18.5054C44.0507 18.5443 44.1355 18.8968 44.4524 19.2005C44.6516 19.3915 44.9816 19.5971 45.4252 19.6168C45.8496 19.6357 46.1688 19.4744 46.3468 19.3514C46.6493 19.1421 46.7887 18.8772 46.8103 18.8383C46.893 18.6886 46.933 18.5537 46.9406 18.5289C46.9873 18.3772 47.0194 18.1947 47.0366 18.0929C47.0745 17.8682 47.131 17.4692 47.131 17.1858H44.131C44.131 17.1686 44.1306 17.2072 44.118 17.3152C44.1073 17.4074 44.0926 17.5094 44.0783 17.5941C44.0587 17.7104 44.0541 17.7091 44.0732 17.647C44.0739 17.6446 44.1076 17.5264 44.1847 17.3869C44.2034 17.353 44.3402 17.0915 44.6403 16.884C44.8171 16.7617 45.1351 16.6009 45.5584 16.6197C46.0009 16.6394 46.3298 16.8445 46.5281 17.0345C46.8429 17.3363 46.926 17.685 46.935 17.7181C46.963 17.8213 46.973 17.9034 46.9765 17.9358C46.9844 18.0067 46.9839 18.0562 46.9839 18.058H43.9839ZM47.131 17.1858C47.131 17.1223 47.1354 17.0556 47.1452 16.9243C47.154 16.8068 47.1678 16.6294 47.1678 16.4325H44.1678C44.1678 16.5014 44.1632 16.5722 44.1536 16.7007C44.145 16.8153 44.131 16.9923 44.131 17.1858H47.131ZM47.1678 16.4325C47.1678 16.4664 47.1656 16.4852 47.1685 16.4456C47.17 16.4248 47.1751 16.3591 47.1778 16.2953C47.1806 16.2302 47.1833 16.1247 47.1734 16.0033C47.1643 15.8915 47.1393 15.6898 47.0464 15.4644L44.2728 16.6076C44.2343 16.5144 44.2138 16.4343 44.2023 16.3783C44.1907 16.3216 44.1857 16.2759 44.1833 16.2465C44.1788 16.1917 44.1809 16.1585 44.1806 16.1662C44.1802 16.1752 44.1796 16.1829 44.1762 16.231C44.1748 16.2501 44.1728 16.2786 44.1712 16.3094C44.1696 16.3398 44.1678 16.3831 44.1678 16.4325H47.1678ZM47.0464 15.4644C47.0499 15.4729 47.0496 15.4729 47.0471 15.4655C47.0449 15.4587 47.043 15.4523 47.042 15.4485C47.0406 15.4434 47.0428 15.4505 47.0459 15.4688C47.0476 15.4786 47.0502 15.4955 47.0525 15.5185C47.0547 15.5407 47.0575 15.5762 47.0575 15.6219H44.0575C44.0575 15.8766 44.1119 16.1028 44.1417 16.2154C44.1778 16.3521 44.2241 16.4896 44.2728 16.6076L47.0464 15.4644ZM47.0575 15.6219C47.0575 15.3644 47.0263 15.1222 47.0099 14.986C46.9897 14.8188 46.9839 14.7557 46.9839 14.7078H43.9839C43.9839 14.9661 44.0149 15.2082 44.0315 15.3456C44.0518 15.5139 44.0575 15.5756 44.0575 15.6219H47.0575ZM46.9839 14.7078C46.9839 14.6283 47.0042 14.4797 47.0421 14.3365L44.1422 13.5681C44.0604 13.877 43.9839 14.2936 43.9839 14.7078H46.9839ZM47.0421 14.3365C47.0646 14.2518 47.0785 14.1749 47.0875 14.1102C47.0964 14.0459 47.101 13.9896 47.1036 13.9465C47.1063 13.9041 47.1074 13.8671 47.108 13.8451C47.1083 13.8351 47.1086 13.8221 47.1087 13.8172C47.1089 13.81 47.109 13.8065 47.1091 13.8044C47.1092 13.7997 47.109 13.8088 47.1077 13.8249C47.1063 13.8414 47.1034 13.8708 47.0968 13.9087C47.0835 13.9856 47.0537 14.1074 46.9828 14.245L44.316 12.871C44.1194 13.2524 44.1138 13.6156 44.1108 13.702C44.11 13.7247 44.1092 13.7602 44.1091 13.7627C44.1088 13.7745 44.1088 13.7713 44.1093 13.7623C44.1103 13.7468 44.1151 13.6705 44.1422 13.5681L47.0421 14.3365ZM46.9828 14.245C47.1277 13.9637 47.2092 13.6585 47.2492 13.4643L44.311 12.8588C44.3099 12.864 44.3081 12.8721 44.3055 12.8819C44.303 12.8917 44.3004 12.9004 44.2982 12.9073C44.2971 12.9107 44.2963 12.9129 44.2959 12.9141C44.2955 12.9153 44.2956 12.9149 44.2964 12.9129C44.2972 12.911 44.2989 12.9066 44.3019 12.9001C44.3047 12.8937 44.3094 12.8838 44.3159 12.871L46.9828 14.245ZM47.2492 13.4643C47.2465 13.4776 47.2502 13.4546 47.28 13.3858C47.3085 13.3199 47.3463 13.2448 47.3976 13.148L44.7468 11.7433C44.6418 11.9414 44.4107 12.375 44.311 12.8588L47.2492 13.4643ZM47.3976 13.148C47.4375 13.0727 47.4698 13.0221 47.4975 12.9848L45.0882 11.1973C44.9498 11.3838 44.8391 11.5691 44.7468 11.7433L47.3976 13.148ZM47.4975 12.9848C47.3895 13.1304 47.2766 13.2198 47.212 13.2654C47.1513 13.3083 47.1033 13.3327 47.117 13.3253C47.1198 13.3238 47.1212 13.3231 47.129 13.319C47.135 13.3158 47.1452 13.3104 47.1566 13.3042C47.1779 13.2926 47.2176 13.2708 47.2636 13.2421C47.3094 13.2136 47.3771 13.1687 47.452 13.1066C47.5269 13.0445 47.6243 12.9527 47.7181 12.8262L45.3088 11.0387C45.3925 10.9259 45.4771 10.8469 45.5374 10.7969C45.5977 10.747 45.6488 10.7135 45.6766 10.6962C45.7047 10.6787 45.725 10.6678 45.7262 10.6671C45.7275 10.6665 45.7273 10.6665 45.7229 10.6689C45.7202 10.6703 45.7111 10.6751 45.7032 10.6793C45.6743 10.6948 45.5825 10.7435 45.4812 10.8151C45.376 10.8894 45.2259 11.0117 45.0882 11.1973L47.4975 12.9848ZM47.7181 12.8262C47.5793 13.0133 47.4271 13.1193 47.3397 13.1717C47.249 13.226 47.1756 13.2537 47.1417 13.2655C47.0786 13.2874 47.0502 13.2886 47.0885 13.2827C47.1185 13.2781 47.1592 13.2735 47.2242 13.2673C47.2497 13.2649 47.2933 13.2608 47.3273 13.2574C47.3605 13.254 47.4171 13.248 47.4772 13.2387L47.0205 10.2737C47.0358 10.2714 47.0413 10.2711 46.9379 10.281C46.8665 10.2878 46.7532 10.299 46.6327 10.3175C46.5205 10.3348 46.3449 10.3666 46.1591 10.431C46.0249 10.4775 45.6136 10.6278 45.3088 11.0387L47.7181 12.8262ZM47.4772 13.2387C47.6354 13.2144 47.7744 13.1788 47.877 13.1502C47.9623 13.1263 48.086 13.0884 48.1232 13.0774C48.2647 13.0356 48.2341 13.0558 48.1497 13.0558V10.0558C47.7646 10.0558 47.4329 10.1532 47.2739 10.2001C47.1608 10.2335 47.1343 10.2428 47.0696 10.2608C47.0224 10.2741 47.0117 10.2751 47.0205 10.2737L47.4772 13.2387ZM48.1497 13.0558C48.431 13.0558 48.8965 13.0196 49.0105 13.0149L48.8862 10.0174C48.4604 10.0351 48.3971 10.0558 48.1497 10.0558V13.0558ZM49.0105 13.0149C49.2922 13.0032 49.5618 12.9425 49.6614 12.9222C49.8141 12.8911 49.8126 12.8972 49.7777 12.8972V9.8972C49.4678 9.8972 49.1875 9.95713 49.0623 9.98266C48.8838 10.019 48.8763 10.0178 48.8862 10.0174L49.0105 13.0149ZM49.7777 12.8972C50.0089 12.8972 50.749 12.8389 51.1718 12.7868C51.2775 12.7737 51.4164 12.755 51.5391 12.7288C51.5631 12.7237 51.7423 12.6889 51.9313 12.5987C51.9886 12.5714 52.0958 12.5163 52.2141 12.4241C52.314 12.3463 52.5553 12.1405 52.6956 11.7747C52.8713 11.3172 52.8069 10.827 52.571 10.4452C52.3826 10.1402 52.138 9.98674 52.0378 9.92921C51.8296 9.80961 51.6396 9.76875 51.5989 9.75963C51.5242 9.74288 51.4595 9.73376 51.4183 9.72865C51.3339 9.71819 51.249 9.7127 51.1776 9.70923C51.0295 9.70206 50.8353 9.69896 50.5948 9.69896V12.699C50.8191 12.699 50.9567 12.7021 51.0323 12.7057C51.0727 12.7077 51.0727 12.7088 51.0491 12.7059C51.0384 12.7045 50.9981 12.6994 50.9423 12.6869C50.9205 12.682 50.7438 12.6456 50.5437 12.5307C50.4475 12.4754 50.2056 12.3243 50.0187 12.0218C49.7844 11.6424 49.7202 11.1546 49.8949 10.6996C50.0343 10.3364 50.2734 10.1331 50.37 10.0579C50.485 9.96826 50.5877 9.91584 50.6394 9.89116C50.7444 9.84106 50.8288 9.81692 50.851 9.81058C50.8844 9.80106 50.9078 9.79599 50.9147 9.79454C50.9283 9.79164 50.8996 9.79763 50.8045 9.80936C50.6348 9.83029 50.3917 9.85307 50.1663 9.87089C49.9158 9.89071 49.7766 9.8972 49.7777 9.8972V12.8972ZM50.5948 9.69896C50.6809 9.69896 50.7379 9.71177 50.7526 9.71532C50.7667 9.71872 50.7616 9.71857 50.7231 9.70438C50.6748 9.6866 50.6453 9.67412 50.5553 9.63901C50.4841 9.61126 50.3748 9.56942 50.2531 9.53296L49.3923 12.4068C49.39 12.4061 49.3942 12.4073 49.4076 12.4121C49.4211 12.417 49.4389 12.4237 49.4652 12.434C49.5028 12.4486 49.6031 12.4889 49.6855 12.5192C49.8479 12.5791 50.1882 12.699 50.5948 12.699V9.69896ZM50.2531 9.53296C50.1838 9.51222 50.1205 9.49635 50.0791 9.48617C50.0588 9.48119 50.036 9.47571 50.0222 9.47236C50.0059 9.46842 49.9946 9.46563 49.985 9.4632C49.9647 9.45805 49.9647 9.45758 49.9748 9.46083C49.9847 9.46405 50.0189 9.47544 50.0665 9.49826L48.7699 12.2036C48.9711 12.3 49.1611 12.3492 49.2476 12.3712C49.2876 12.3813 49.3506 12.3964 49.3637 12.3996C49.3917 12.4065 49.3966 12.4081 49.3923 12.4068L50.2531 9.53296ZM50.0665 9.49825C49.8671 9.40269 49.6866 9.36272 49.5711 9.34333C49.4623 9.32506 49.3615 9.31796 49.338 9.31608C49.2908 9.31231 49.3183 9.31362 49.3558 9.31978C49.4002 9.32706 49.5053 9.34747 49.6338 9.40582L48.3936 12.1375C48.5846 12.2242 48.7567 12.2616 48.8702 12.2802C48.9767 12.2977 49.0754 12.3047 49.099 12.3065C49.1462 12.3103 49.1157 12.3089 49.0743 12.3019C49.0262 12.2938 48.9102 12.2709 48.7699 12.2036L50.0665 9.49825ZM49.6338 9.40582C49.4607 9.32721 49.3018 9.28826 49.1873 9.26705C49.0706 9.24543 48.967 9.23639 48.8922 9.23186C48.8174 9.22733 48.7495 9.2262 48.7094 9.2256C48.6842 9.22522 48.6743 9.22512 48.6591 9.22485C48.6465 9.22462 48.6424 9.22446 48.6428 9.22447L48.5185 12.2219C48.5517 12.2233 48.5821 12.2239 48.605 12.2244C48.6254 12.2247 48.6522 12.2251 48.6643 12.2253C48.6807 12.2255 48.6914 12.2257 48.6999 12.226C48.7082 12.2262 48.7113 12.2264 48.711 12.2264C48.7106 12.2264 48.7044 12.226 48.6936 12.2248C48.6829 12.2236 48.6648 12.2213 48.6409 12.2169C48.6172 12.2125 48.584 12.2053 48.5439 12.1935C48.5038 12.1818 48.4523 12.1641 48.3936 12.1375L49.6338 9.40582ZM48.6428 9.22447C48.6663 9.22545 48.6647 9.22906 48.5242 9.19889C48.4271 9.17804 48.1866 9.12249 47.9268 9.10693L47.7474 12.1016C47.7365 12.1009 47.7437 12.0997 47.8942 12.132C48.0013 12.155 48.247 12.2106 48.5185 12.2219L48.6428 9.22447ZM47.9268 9.10693C47.8386 9.10164 47.6629 9.06751 47.4766 9.00799L46.5635 11.8657C46.8839 11.968 47.3206 12.076 47.7474 12.1016L47.9268 9.10693ZM47.4766 9.00799C47.4638 9.00392 47.4527 8.99891 47.4448 8.99454C47.437 8.99019 47.4373 8.98919 47.4435 8.99478C47.45 9.00071 47.4643 9.01506 47.48 9.03989C47.4964 9.0657 47.511 9.09737 47.5201 9.13194L44.6202 9.90032C44.9197 11.0307 45.8351 11.6329 46.5635 11.8657L47.4766 9.00799ZM47.5201 9.13193C47.4594 8.90288 47.3615 8.73531 47.3061 8.64853C47.2761 8.60158 47.2487 8.56329 47.2303 8.53818C47.2128 8.51443 47.1957 8.49218 47.1909 8.48583C47.1825 8.47496 47.1852 8.47827 47.1897 8.48456C47.195 8.49183 47.2091 8.51146 47.2268 8.53957C47.2588 8.59055 47.3302 8.71256 47.3772 8.88964L44.4772 9.65803C44.5357 9.8786 44.6281 10.0424 44.6856 10.1341C44.716 10.1826 44.7441 10.2223 44.7639 10.2496C44.783 10.2758 44.8007 10.2989 44.8075 10.3078C44.8177 10.3211 44.8156 10.3185 44.8126 10.3144C44.8086 10.309 44.795 10.2904 44.7777 10.2632C44.7475 10.2159 44.67 10.0883 44.6202 9.90033L47.5201 9.13193ZM47.3772 8.88964C47.401 8.97971 47.407 9.0484 47.4087 9.07031C47.4095 9.08086 47.4096 9.08592 47.4092 9.0762C47.4092 9.07529 47.4079 9.04212 47.4068 9.02038C47.4018 8.91884 47.3872 8.58898 47.2034 8.23221L44.5366 9.60621C44.506 9.5469 44.4823 9.48873 44.464 9.43363C44.4459 9.37892 44.4341 9.32998 44.4264 9.28962C44.4187 9.24974 44.4148 9.21776 44.4128 9.19758C44.4109 9.17806 44.4103 9.16568 44.4104 9.16733C44.4105 9.16798 44.4106 9.17012 44.4108 9.17605C44.4109 9.1793 44.4114 9.19208 44.4118 9.20056C44.4126 9.22064 44.4141 9.2556 44.4172 9.29616C44.4234 9.37807 44.4373 9.50718 44.4772 9.65803L47.3772 8.88964ZM47.2034 8.23221C47.2269 8.27774 47.2434 8.31678 47.2545 8.34581C47.2659 8.3752 47.2737 8.39941 47.2788 8.4167C47.2887 8.4499 47.2926 8.47065 47.2932 8.47365C47.294 8.47786 47.2932 8.4745 47.2917 8.46214C47.2902 8.45024 47.2886 8.43387 47.2869 8.4129C47.2835 8.37011 47.2811 8.32035 47.2797 8.26759C47.2784 8.21571 47.2781 8.16718 47.2781 8.12626H44.2781C44.2781 8.23104 44.2793 8.43565 44.2963 8.65028C44.3048 8.75729 44.319 8.89069 44.3451 9.02918C44.3668 9.14458 44.4155 9.37132 44.5366 9.60622L47.2034 8.23221ZM47.2781 8.12626C47.2781 7.70695 47.2039 7.32357 47.1612 7.09258C47.1104 6.81731 47.0942 6.70846 47.0942 6.61964H44.0942C44.0942 7.0312 44.17 7.41483 44.2111 7.63735C44.2604 7.90416 44.2781 8.0239 44.2781 8.12626H47.2781ZM47.0942 6.61964C47.0942 6.0095 47.0485 5.4021 46.9183 4.77061L43.9801 5.37614C44.0602 5.76523 44.0942 6.1635 44.0942 6.61964H47.0942ZM46.9183 4.77061C46.8904 4.63515 46.8704 4.54294 46.8539 4.44629C46.8373 4.34849 46.8368 4.31351 46.8368 4.32007H43.8368C43.8368 4.74587 43.9478 5.21952 43.9801 5.37614L46.9183 4.77061ZM46.8368 4.32007C46.8368 4.09693 46.7919 3.88548 46.7763 3.8119C46.7529 3.70141 46.7265 3.5994 46.7112 3.5416L43.8113 4.30999C43.8164 4.32923 43.822 4.35085 43.8275 4.37328C43.8331 4.39614 43.8379 4.4166 43.8414 4.43346C43.8432 4.44166 43.8443 4.44757 43.845 4.45129C43.8457 4.4552 43.8456 4.45485 43.845 4.45078C43.8445 4.4472 43.8428 4.43548 43.8411 4.41732C43.8402 4.40792 43.8392 4.39526 43.8384 4.37982C43.8376 4.36453 43.8368 4.34431 43.8368 4.32007H46.8368ZM46.7112 3.5416C46.7178 3.56624 46.7218 3.58729 46.7243 3.60329C46.7268 3.61895 46.7276 3.62878 46.7277 3.63053C46.7278 3.63188 46.7274 3.62701 46.7271 3.61246C46.7269 3.60535 46.7268 3.59658 46.7267 3.58552C46.7266 3.57439 46.7265 3.56187 46.7265 3.54694L43.7265 3.54694C43.7265 3.682 43.7239 3.98015 43.8113 4.30999L46.7112 3.5416Z" fill="#323232"/>
</svg>
