<svg width="185" height="165" viewBox="0 0 185 165" fill="none" xmlns="http://www.w3.org/2000/svg">
<path d="M134.387 2.74998C134.493 3.03377 134.572 3.25593 134.655 3.4756C134.727 3.38978 134.796 3.29941 134.872 3.21112C135.283 3.44765 135.817 3.59434 136.076 3.94254C136.355 4.31559 136.374 4.87572 136.519 5.40389C136.732 5.40602 137.029 5.40998 137.501 5.40814C137.098 5.83175 136.977 5.95632 136.797 6.14771C138.462 6.09438 137.537 8.14831 138.975 8.27635L137.843 8.8889C137.873 8.97825 137.906 9.06057 137.937 9.14993C138.332 9.1599 138.729 9.16285 138.868 9.16977C139.099 9.80396 139.279 10.2892 139.459 10.7745C139.572 10.7429 139.684 10.7113 139.797 10.6797C139.694 10.9474 139.591 11.215 139.475 11.5132C139.747 11.5481 139.973 11.573 140.23 11.6107C140.098 11.7704 140.004 11.8802 139.858 12.0472C141.695 12.2894 139.956 13.0358 140.13 13.6302C141.229 13.6537 140.658 14.2034 140.368 14.5839C140.731 14.7409 141.039 14.8743 141.347 15.0077C141.237 15.1318 141.132 15.2535 141.159 15.2271C141.601 16.4475 142.032 17.6265 142.486 18.8696C142.393 18.9376 142.198 19.0901 141.991 19.243C143.161 19.8458 142.136 20.4594 142.039 21.0768C142.309 21.3365 142.607 21.5931 142.872 21.8855C143.167 22.2139 143.612 22.5559 142.919 22.9545C142.855 22.9891 142.853 23.2255 142.898 23.3306C143.126 23.8722 143.384 24.4035 143.65 24.9716C143.236 25.1129 143.013 25.1922 142.63 25.3232C143.039 25.5552 143.324 25.7125 143.582 25.8614C143.486 26.1311 143.332 26.3494 143.355 26.5549C143.425 27.3057 143.608 28.0481 143.633 28.7934C143.649 29.2147 143.435 29.6482 143.308 30.1344C143.602 30.2752 144.153 30.4955 143.378 31.0613C143.29 31.1269 143.309 31.3695 143.307 31.5295C143.292 32.1557 143.288 32.7815 143.281 33.3263C143.193 33.3269 143.353 33.3285 143.514 33.3301C143.496 33.4396 143.477 33.5561 143.459 33.6656C143.243 33.7238 143.033 33.7841 142.796 33.8477C143.091 34.6118 143.986 35.4578 142.43 36.0405C143.324 36.5158 142.878 37.0984 142.743 37.6892C142.543 38.5742 142.443 39.4813 142.292 40.4341C142.179 40.4657 141.958 40.5264 141.845 40.5579C141.963 41.1241 142.065 41.6513 142.185 42.2336C141.739 42.2925 141.341 42.3429 140.946 42.3978C140.94 42.442 140.932 42.4817 140.927 42.5259C141.338 42.6327 141.75 42.7394 142.204 42.8586C141.671 43.3886 141.2 43.8492 140.866 44.1825C141.075 44.4814 141.321 44.837 141.69 45.3669C140.972 45.2843 141.095 45.3474 140.844 45.8425C140.292 46.9176 140.135 48.1672 139.313 49.1239C139.159 49.3075 139.29 49.7365 139.29 50.1837C139.286 50.1862 139.101 50.2271 138.845 50.289C138.896 50.5677 138.947 50.858 139.008 51.1896C138.749 51.2353 138.519 51.2778 138.422 51.2949C138.198 51.8099 138.09 52.2747 137.831 52.6263C137.112 53.5981 137.222 54.9802 135.955 55.7478C135.36 56.1107 135.257 57.2844 134.951 58.0385C134.253 58.6805 133.56 59.3201 132.791 60.0363C133.086 60.4946 132.965 60.9366 132.316 61.4055C131.626 61.9083 131.09 62.6214 130.509 63.2595C130.408 63.3672 130.356 63.5543 130.349 63.7052C130.325 64.5889 129.661 64.5832 129.21 64.5798C129.106 65.0305 129.138 65.4605 128.937 65.6572C128.2 66.3793 127.411 67.0476 126.6 67.6865C125.147 68.8311 124.08 70.4264 122.257 71.1709C121.503 71.4788 120.969 72.2915 120.284 72.8033C119.716 73.2278 119.069 73.5484 118.445 73.8682C118.045 74.0669 117.64 74.2566 117.25 74.462C116.747 74.7221 116.254 75.0004 115.762 75.2903C113.761 76.6549 111.561 77.6623 109.315 78.5067C109.747 79.0438 110.174 79.5718 110.638 80.1449L109.88 80.5549C110.348 80.9957 110.75 81.3786 111.209 81.8128C111.1 81.8836 110.955 81.9858 111.075 81.903C111.132 82.8373 111.177 83.6075 111.233 84.3773C111.249 84.5922 111.214 84.8993 111.343 85.0062C112.344 85.8533 112.453 86.1532 112.055 87.4689C112.369 87.6345 112.704 87.8064 113.068 87.9982C112.829 88.3213 112.568 88.6683 112.314 89.0059C112.772 89.4054 113.158 89.7377 113.645 90.1571C113.192 90.302 112.873 90.41 112.365 90.573C112.81 90.6323 113.067 90.67 113.353 90.7091C113.357 90.8133 113.381 90.9121 113.365 91.003C113.285 91.4228 112.799 91.9326 113.625 92.1391C113.571 92.3448 113.517 92.5505 113.459 92.7588C113.404 92.7351 113.35 92.7114 113.301 92.6852C113.319 93.2106 113.338 93.7361 113.357 94.2615C113.051 94.6679 114.221 94.3647 113.585 95.1854C113.371 95.466 113.544 96.0488 113.556 96.4956C113.565 96.8846 113.504 97.3061 113.622 97.666C114.018 98.8995 113.807 100.049 113.356 101.223C113.182 101.676 113.283 102.233 113.234 102.742C113.223 102.842 113.098 102.928 113.015 103.037C113.359 103.422 113.844 103.783 113.149 104.43C112.495 105.043 112.729 105.64 113.459 105.963C113.204 107.248 112.958 108.475 112.692 109.837C112.653 109.853 112.363 109.95 112.382 109.941C112.301 110.849 112.234 111.609 112.151 112.537L111.429 112.927C111.703 113.061 111.882 113.153 111.892 113.159C111.711 113.993 111.545 114.777 111.335 115.743C111.317 115.753 110.993 115.841 110.774 115.906C110.668 116.528 110.592 117.01 110.47 117.723C110.542 117.702 110.323 117.768 110.411 117.744C110.13 118.261 109.961 118.582 109.761 118.954C110.297 119.847 109.952 120.628 108.72 121.089C109.416 121.624 109.131 122.231 107.35 124.024C108.375 124.817 107.187 125.13 106.982 125.612C106.733 126.188 106.389 126.721 105.98 127.46C104.783 127.343 104.655 128.742 104.372 129.572C103.963 130.758 102.78 131.18 102.35 132.195C101.783 133.537 100.115 133.781 99.5656 135.243C99.2741 136.024 98.2238 136.516 97.5284 137.151C96.9595 137.671 96.6029 138.452 95.5955 138.379C95.3372 138.36 95.0262 138.887 94.747 139.167C93.2869 140.669 91.4346 141.577 89.619 142.541C88.895 142.927 88.1886 143.356 87.4319 143.659C86.5674 144.004 85.655 144.226 84.7704 144.522C84.5867 144.586 84.4494 144.802 84.2636 144.873C83.9355 144.998 83.5894 145.067 83.2483 145.146C83.087 145.186 82.8885 145.146 82.7564 145.229C80.8161 146.444 78.5118 146.472 76.3908 146.872C75.1169 147.114 73.6729 147.412 72.2008 147.179C70.5095 146.911 68.7132 147.376 66.984 147.235C64.5776 147.042 62.181 146.638 59.8044 146.205C58.5998 145.986 57.4343 145.533 56.2661 145.141C54.2886 144.475 52.2538 143.911 50.3628 143.045C48.4178 142.155 46.5966 140.992 44.7632 139.883C43.8005 139.304 42.8068 138.7 42.0347 137.905C41.3944 137.245 40.5805 136.973 39.8915 136.463C39.0267 135.825 38.0875 135.256 37.3239 134.51C35.2935 132.513 33.222 130.539 31.3904 128.364C29.7758 126.448 28.4713 124.276 27.0171 122.221C26.8374 121.965 26.5941 121.755 26.4327 121.489C25.9705 120.733 25.5059 119.972 25.0986 119.186C24.8221 118.653 24.6713 118.058 24.404 117.52C23.9804 116.661 23.456 115.844 23.0897 114.96C23.0172 114.793 23.4696 114.407 23.3229 114.169C23.1505 113.697 23.0033 113.218 22.8035 112.761C22.6659 112.441 22.4043 112.165 22.3036 111.837C22.1445 111.346 22.2308 110.534 21.9405 110.38C21.0649 109.918 21.3013 109.078 21.4096 108.601C21.6689 107.455 21.0556 106.616 20.8326 105.636C20.6498 104.829 20.8014 103.952 20.8032 102.886C20.8458 102.91 20.6356 102.795 20.4184 102.677C20.515 102.648 20.614 102.624 20.7107 102.595C20.6739 102.156 20.6255 101.717 20.6048 101.275C20.5934 100.982 20.6354 100.688 20.6548 100.266C20.6358 100.252 20.4583 100.143 20.4323 100.127C20.5383 98.1516 20.6356 96.269 20.7445 94.3861C20.7862 93.6339 20.8606 92.8875 20.9255 92.1345C20.9339 92.03 21.0178 91.8904 20.9766 91.8362C20.2983 90.9204 21.3385 90.0282 21.1438 89.3627C20.778 88.1189 21.7761 87.1378 21.4528 85.9946C21.4243 85.8982 21.7464 85.7298 21.8363 85.5577C21.963 85.3009 22.0587 85.0196 22.1102 84.7328C22.3119 83.5999 22.4996 82.4628 22.6225 81.7078C23.0236 81.3909 23.2828 81.2918 23.347 81.1159C23.5361 80.6252 23.6124 80.0897 23.8085 79.6011C23.858 79.4744 24.1728 79.4453 24.4443 79.1396C23.9027 79.0442 23.3587 78.9442 22.8569 78.8567C22.9245 79.0143 23.0149 79.236 23.0026 79.2133C22.2537 79.6184 21.5688 79.9888 20.8838 80.3593C20.8381 80.384 20.7801 80.386 20.7246 80.3925C20.1807 80.4709 19.9385 80.7687 19.9978 81.2857C19.6463 81.1052 19.3585 80.9549 18.9905 80.7656C19.017 81.0984 19.0421 81.3849 19.0853 81.8794C18.7742 81.6534 18.5752 81.5256 18.3872 81.3743C18.2585 81.2674 18.1474 81.1275 17.941 80.9096C17.9044 81.453 17.9598 81.8173 17.819 82.07C17.7485 82.1905 17.2973 82.0874 17.0239 82.1058C16.8756 82.1154 16.6409 82.107 16.5925 82.1921C16.0143 83.1638 15.2831 83.1651 14.4251 82.5936C14.3611 82.5517 14.2262 82.6188 14.0878 82.6466C14.0777 82.9227 14.0719 83.1847 14.0737 83.1661C13.5745 83.3126 13.259 83.4714 12.9414 83.4844C12.1276 83.5185 11.2366 83.6827 10.5091 83.4289C9.72293 83.154 9.60232 82.4072 9.85271 81.5715C10.1521 81.5685 10.6746 81.6507 10.7132 81.5474C11.2461 80.1647 12.6749 79.7508 13.7164 79.1228C14.8762 78.4189 15.7896 76.954 17.4754 77.2661C17.5081 77.272 17.5586 77.2564 17.5741 77.2304C18.6175 75.7657 20.5313 76.0957 21.8421 75.169C22.0419 75.0256 22.4366 75.1769 22.7033 75.0915C23.1445 74.947 23.6462 74.8051 23.9429 74.4916C24.1901 74.2284 24.1698 73.7216 24.2652 73.3523C25.06 74.058 26.0952 74.1277 27.0344 73.4961C27.5371 73.1595 28.402 73.4272 28.7129 73.9475C28.9211 74.2997 29.1852 74.657 29.5107 74.8988C30.618 75.7238 30.6257 76.7964 29.5418 77.5534C29.1183 78.5709 30.9976 79.4373 29.8452 80.3078C29.9757 81.1492 30.0833 81.8501 30.2212 82.7052C29.9126 82.5603 29.7077 82.4651 29.5074 82.3676C30.3425 83.9224 30.338 85.3546 29.2602 86.832C31.0033 87.9486 28.3131 88.3329 28.9332 89.5449C28.394 89.2246 28.141 89.0732 27.8854 88.9172C27.8715 89.1679 27.3211 89.2342 26.2341 89.1161C25.7527 87.9642 25.1182 86.8129 24.7945 85.5816C24.4737 84.3665 24.4659 83.0644 24.307 81.6793C23.049 81.536 24.8636 83.6142 23.3399 83.2851C23.5155 83.7844 24.5112 84.152 23.3972 84.5369C23.3375 84.5574 23.4516 85.0958 23.4866 85.4006C23.1564 85.5321 22.778 85.6838 22.2367 85.8942C22.5797 86.1029 22.7643 86.2149 22.8518 86.2676C22.6797 87.0079 22.4798 87.675 22.378 88.3597C22.2803 89.0304 22.2783 89.7141 22.2271 90.4596C22.3065 90.4755 22.5282 90.5145 22.5679 90.5224C22.4944 90.9976 22.3186 91.3928 22.4053 91.7166C22.7 92.7635 21.9175 93.4338 21.6348 94.2752C21.5731 94.4557 21.7957 94.7472 21.93 94.9628C22.0696 95.1992 22.4303 95.4513 22.3914 95.6194C22.2288 96.2899 21.9466 96.9251 21.694 97.6148C21.9173 97.7765 22.131 97.9316 22.3946 98.1244C22.1312 98.3139 21.9314 98.4573 21.7452 98.5933C22.7484 99.1275 22.6756 99.6259 21.7046 100.057L22.7092 101.914C22.4588 101.997 22.3094 102.048 22.2543 102.066L22.8305 103.131C22.372 103.244 22.0379 103.325 21.7038 103.405C22.4871 103.588 22.997 104.236 22.7851 104.892C22.6301 105.358 22.7738 105.875 22.8879 106.413C22.9718 106.797 22.7419 107.245 22.6993 107.668C22.6867 107.787 22.8488 107.923 22.9244 108.041C22.7654 108.304 22.5821 108.609 22.3592 108.982C22.8428 109.08 23.1681 109.092 23.4458 109.212C23.7656 109.345 23.7481 109.378 23.3256 109.677C23.2416 109.741 23.1497 109.92 23.1841 109.983C23.3248 110.255 23.4929 110.511 23.686 110.748C23.751 110.824 24.0012 110.807 24.0121 110.86C24.189 111.699 24.3058 112.548 24.5171 113.375C24.6172 113.757 24.9543 114.075 25.0659 114.456C25.1564 114.754 25.0719 115.1 25.0589 115.73C25.4193 116.124 26.4914 116.785 26.4542 117.382C26.3975 118.401 27.2104 118.715 27.46 119.427C27.7327 120.215 28.2739 120.899 28.6732 121.648C28.816 121.912 28.865 122.221 28.9833 122.593C29.0757 122.655 29.4184 122.775 29.5953 123.015C30.2764 123.947 30.9098 124.911 31.5524 125.869C31.6449 126.008 31.6646 126.197 31.7368 126.352C31.8589 126.622 31.9969 127.106 32.1294 127.111C33.1856 127.11 33.2723 128.187 33.8716 128.575C34.6534 129.082 35.1984 129.664 35.6749 130.436C36.1392 131.185 36.6608 132.138 37.3919 132.431C38.7109 132.971 39.1093 134.668 40.6754 134.716C40.5381 135.378 39.8348 136.282 41.3947 135.903C41.7126 135.826 43.126 135.438 42.7672 136.597C44.0956 137.438 45.3617 138.218 46.6127 139.036C46.7762 139.142 46.8311 139.418 46.937 139.614C47.395 140.46 48.3156 139.827 48.9504 140.237C49.6802 140.713 50.7428 140.844 51.2586 141.46C52.401 142.819 54.0182 142.415 55.3822 142.907C56.387 143.27 57.35 143.784 58.3769 144.035C60.8822 144.651 63.4103 145.178 65.9444 145.673C66.5703 145.793 67.2434 145.641 67.898 145.64C69.0238 145.637 70.1479 145.653 71.2674 145.671C71.8992 145.683 72.5292 145.712 73.3195 145.744C73.4663 145.164 73.8174 145.257 74.0471 145.703C74.6202 145.617 75.0752 145.542 75.5354 145.487C76.2244 145.397 77.0316 145.525 77.5764 145.201C78.8346 144.45 80.228 144.767 81.5152 144.43C81.9849 144.305 82.381 143.749 82.8395 143.713C84.4902 143.568 85.7911 142.546 87.2911 142.035C88.5133 141.621 89.587 140.758 90.7345 140.108C91.6562 139.586 92.6339 139.145 93.5091 138.548C94.1206 138.129 94.5697 137.486 95.1347 136.992C95.5959 136.59 96.1533 136.3 96.6074 135.896C97.1542 135.412 97.6195 134.842 98.1494 134.338C98.5125 133.994 98.9189 133.698 99.3038 133.384C99.3755 133.451 99.4497 133.523 99.5214 133.59C99.6192 133.225 99.6017 132.658 99.8276 132.53C101.439 131.646 101.94 129.769 103.351 128.382C103.273 127.901 103.573 127.397 104.262 127.448C104.45 126.911 104.524 126.471 104.738 126.114C105.302 125.191 105.953 124.321 106.507 123.392C106.714 123.044 106.7 122.57 106.893 122.206C107.028 121.945 107.327 121.766 107.611 121.494C107.657 121.24 107.663 120.783 107.823 120.379C108.45 118.757 109.493 117.181 109.662 115.519C109.783 114.335 110.584 113.426 110.477 112.171C110.414 111.387 110.663 110.376 111.309 109.65C111.361 109.592 111.387 109.443 111.35 109.386C110.683 108.394 111.249 107.323 111.547 106.52C112.018 105.242 111.727 103.928 112.134 102.696C112.181 102.553 112.164 102.303 112.073 102.211C111.409 101.54 111.888 101.281 112.21 101.166C112.141 99.3144 112.066 97.572 112.019 95.8263C111.997 95.1087 111.649 94.3023 111.691 93.7795C111.786 92.7104 110.877 91.6423 111.674 90.6054C111.712 90.5554 111.652 90.3466 111.586 90.3117C110.737 89.8766 111.194 89.2704 111.258 88.6356C111.3 88.2009 110.879 87.7168 110.656 87.2607C110.601 87.149 110.485 87.0649 110.447 86.9503C110.295 86.4618 110.145 85.9662 110.041 85.4692C109.997 85.2574 110.069 85.0187 110.09 84.7955C110.195 84.8152 110.293 84.8327 110.398 84.8524C109.834 83.6454 109.177 82.4647 108.746 81.2092C108.573 80.7029 108.56 80.2097 108.255 79.6684C107.874 78.9859 107.526 79.1505 107.045 79.2106C106.525 79.2743 106.01 79.3472 105.464 79.4187C105.498 79.4708 105.593 79.6137 105.61 79.634C104.579 79.9326 103.516 80.2485 102.449 80.5553C102.302 80.5996 102.125 80.6542 101.993 80.6076C101.089 80.2902 100.244 80.7356 99.374 80.818C97.865 80.9634 96.3679 81.273 94.8581 81.3953C94.1171 81.4548 93.3577 81.2183 92.6022 81.1857C91.4609 81.1381 90.3123 81.2298 89.1804 81.1123C88.109 80.9975 86.9616 81.3533 85.9486 80.648C85.7398 80.502 85.3123 80.7156 85.0062 80.6517C83.3517 80.2991 81.6232 80.1043 80.0739 79.4771C78.7929 78.9638 77.3788 78.7283 76.2286 77.8676C74.9761 76.927 73.6544 76.0767 72.3861 75.1504C72.1509 74.9775 72.0836 74.602 71.8789 74.3656C71.3417 73.7324 70.7138 73.1717 70.238 72.4994C69.9879 72.1462 69.983 71.6134 69.8112 70.9355C69.7376 70.7341 69.502 70.3202 69.4374 69.8844C69.3436 69.2526 69.3699 68.6028 69.3453 67.9571C69.3399 67.7835 69.2702 67.5564 69.3551 67.4516C70.1785 66.4532 70.3833 65.042 71.5125 64.2488C71.6874 64.1248 71.8619 63.9892 72.0537 63.8855C73.2635 63.2194 74.4507 62.5007 75.7076 61.9327C76.3143 61.6575 77.0571 61.6558 77.7394 61.5751C79.2685 61.4012 80.8389 60.9872 82.3256 61.1715C83.9126 61.3664 85.5145 60.8471 87.0986 61.4731C88.0011 61.8323 89.0727 61.7293 90.0518 61.9352C90.8836 62.109 91.6828 62.4299 92.5853 62.7126C92.459 62.981 92.3502 63.2164 92.2389 63.4472C92.2684 63.3489 92.2954 63.246 92.3294 63.1452C93.0797 63.2337 93.8969 63.1623 94.5672 63.4412C95.63 63.8784 96.5826 64.5812 97.6156 65.1051C98.5119 65.5618 99.221 66.1962 99.7714 67.0283C99.8129 67.0941 99.9836 67.0606 100.089 67.0918C100.385 67.1908 100.741 67.2276 100.958 67.4219C101.569 67.9623 102.119 68.5649 102.752 69.1996C102.567 69.2823 102.37 69.3769 102.171 69.467C103.512 70.4302 104.787 71.3469 106.143 72.3259C105.943 72.4577 105.763 72.5726 105.588 72.6851C105.546 72.8371 105.504 72.9891 105.458 73.1436C105.807 73.0902 106.149 73.0348 106.507 72.9765C106.205 73.8046 106.259 73.8931 106.999 74.1163C107.147 74.1601 107.282 74.3224 107.37 74.4631C107.785 75.1213 108.145 75.8207 108.604 76.4496C108.996 76.9903 109.474 77.0554 110.043 76.5474C110.326 76.2947 110.818 76.2875 111.181 76.1085C111.6 75.8999 111.973 75.5861 112.399 75.3911C112.868 75.1785 113.397 75.0867 113.871 74.8715C114.294 74.6836 114.671 74.386 115.084 74.1682C115.644 73.8715 116.262 73.6723 116.773 73.3192C117.589 72.7544 118.327 72.0785 119.129 71.4863C119.648 71.1051 120.226 70.7985 120.763 70.4376C121.636 69.8476 122.409 69.0941 123.261 68.5095C124.393 67.7324 125.104 66.5245 126.22 65.8384C127.395 65.1201 127.997 63.9413 128.926 63.039C129.715 62.2711 130.469 61.451 131.129 60.5762C132.014 59.3972 132.793 58.1407 133.651 56.8584C133.829 56.9567 134.053 57.0767 134.275 57.2036C133.243 55.7435 135.037 55.2733 135.282 54.2756C135.402 53.7989 135.646 53.3551 135.838 52.8922C135.96 52.6031 136.008 52.1588 136.214 52.0593C136.85 51.7622 136.854 51.2013 137.042 50.676C137.126 50.4484 136.922 49.7114 137.654 50.0623C137.722 49.8376 137.831 49.6138 137.849 49.3861C137.863 49.2257 137.749 49.0581 137.69 48.8955C138.58 48.6201 138.044 47.7157 138.448 47.197C139.272 46.1337 139.585 44.858 139.748 43.5339C139.8 43.1058 140.122 42.7196 140.276 42.2951C140.375 42.0183 140.4 41.7162 140.449 41.4249C140.507 41.0406 140.541 40.6571 140.599 40.2728C140.804 38.9266 140.999 37.5737 141.238 36.2263C141.307 35.8301 141.607 35.4678 141.643 35.0773C141.681 34.7099 141.453 34.3213 141.46 33.941C141.471 33.264 141.552 32.5846 141.657 31.916C141.676 31.7995 141.948 31.7232 142.128 31.6083C141.975 30.42 141.806 29.1465 141.634 27.8036C141.905 27.7041 142.217 27.594 142.727 27.4125C141.355 27.113 141.781 26.1116 141.635 25.3611C141.552 24.9351 141.502 24.5035 141.423 24.0751C141.336 23.5867 141.344 23.1531 141.439 22.6309C141.574 21.8987 141.107 21.0569 140.918 20.2591C140.707 19.3902 140.555 18.5078 140.312 17.6446C140.208 17.2773 139.954 16.9498 139.705 16.49C140.101 16.5231 140.45 16.5462 140.692 16.5683C140.222 15.8633 139.264 15.0634 139.36 14.4229C139.55 13.2023 138.262 12.6753 138.428 11.5852C138.449 11.4501 138.025 11.2442 138.056 10.9627C137.902 10.5925 137.811 9.95361 137.587 9.91013C136.876 9.75312 137.095 9.17575 136.932 8.79883C136.68 8.21172 136.549 7.57652 136.301 6.98695C136.228 6.8202 135.924 6.74926 135.591 6.55879C135.927 6.47108 136.123 6.4182 136.381 6.34933C136.12 5.64894 134.465 6.11441 135.152 4.76594C134.852 4.82232 134.554 4.87167 134.227 4.93129C134.394 4.26989 132.863 1.89715 131.849 1.47452C132.589 1.3038 133.094 1.18961 133.55 1.08397C133.484 1.62614 133.398 2.0021 133.421 2.3721C133.428 2.46222 133.799 2.5263 134.001 2.60528C134.355 1.64337 134.76 2.44783 135.167 2.67525C134.942 2.68508 134.712 2.69739 134.397 2.71488L134.387 2.74998ZM79.7083 77.939C80.0242 78.0212 80.3373 78.0872 80.6399 78.1883C81.1558 78.3564 81.6528 78.5878 82.1744 78.7117C82.6772 78.8339 83.2085 78.8231 83.7153 78.9197C84.6377 79.0975 85.5507 79.345 86.4795 79.5017C87.3289 79.6425 88.1936 79.6808 89.0444 79.7914C89.5269 79.854 90.2621 80.2095 90.4282 80.0255C91.2949 79.0743 91.4191 80.0133 91.7141 80.395C92.7814 79.4764 94.0569 79.9575 95.2279 79.8419C96.1629 79.7481 97.0999 79.6473 98.0356 79.5766C98.3483 79.5546 98.6706 79.6156 99.2219 79.6528C99.8669 79.4157 100.752 79.0015 101.681 78.7758C102.743 78.5132 103.853 78.4483 104.923 78.2225C105.585 78.0822 106.222 77.7967 107.205 77.4649C106.48 76.3861 105.883 75.4907 105.278 74.6003C105.083 74.3171 104.907 74.0125 104.667 73.7656C104.327 73.4201 103.727 73.1852 103.606 72.7861C103.137 71.2862 101.659 70.7795 100.758 69.7135C100.136 68.9788 99.039 68.6424 98.4356 67.8979C97.3445 66.5463 95.7388 66.1202 94.3687 65.2785C94.0681 65.0939 93.6086 65.1718 93.281 65.0136C92.15 64.4721 91.0992 63.6753 89.9149 63.3626C88.3046 62.9391 86.6071 62.8452 84.9415 62.6576C83.998 62.5501 83.0439 62.4777 82.0931 62.5094C80.7642 62.5515 79.4354 62.6701 78.1147 62.8255C77.4415 62.9013 76.7567 63.0539 76.1258 63.2952C74.9212 63.7525 73.7493 64.2923 72.6864 64.7495C72.4754 65.0578 72.2826 65.3563 72.0709 65.6414C71.8434 65.941 71.3278 66.3846 71.389 66.4869C71.9637 67.4293 71.2389 67.486 70.7003 67.5596C71.0116 68.7681 71.3014 69.8823 71.5628 70.9002C71.253 71.1677 71.0019 71.3801 70.5541 71.7635C71.2382 71.6641 71.6127 71.6145 72.1766 71.5331C71.9217 71.8475 71.8143 71.9763 71.7314 72.074C72.2524 72.5572 72.7935 73.0118 73.2738 73.5287C73.8571 74.1488 74.3929 74.8122 75.0069 75.5216C75.1801 75.4927 75.5866 75.4258 75.7552 75.3993C76.2123 76.5172 77.6692 76.0352 77.9313 77.1526C77.9905 77.4148 79.2066 77.4043 79.9161 77.5266C79.835 77.6822 79.7606 77.8284 79.7013 77.937L79.7083 77.939ZM28.236 87.5684C27.8825 86.8711 27.8318 86.2101 28.2084 85.4768C28.399 85.1089 28.2968 84.5817 28.292 84.1253C28.2854 83.764 28.2093 83.4051 28.1933 83.0372C28.1395 81.8247 28.0973 80.6118 28.0552 79.399C28.0544 79.2993 28.0782 79.1688 28.1411 79.0995C28.9195 78.2253 28.1927 77.3181 28.4476 76.327C27.9078 76.7367 27.5974 77.134 27.206 77.2398C26.2069 77.5096 25.486 77.77 25.815 79.0984C26.096 80.2292 26.0823 81.4369 26.1919 82.5016C25.9155 82.7981 25.6483 83.0898 25.3832 83.3744C25.7617 83.6051 26.1378 83.8312 26.4004 83.9893C26.5836 85.3318 26.8131 86.5963 27.3264 87.7309C27.5804 87.6876 27.839 87.6419 28.2385 87.573L28.236 87.5684ZM17.4946 78.3384C17.4617 78.4739 17.4798 78.7583 17.3442 78.8787C17.1117 79.0927 16.7833 79.2056 16.4682 79.3761C16.3961 79.2974 16.2449 79.1379 16.0958 78.9714C16.1363 79.079 16.1768 79.1865 16.2172 79.2941C14.7954 80.1573 13.3735 81.0205 11.7715 81.9871C13.1614 81.7413 14.4713 81.7624 15.5424 81.2655C17.0736 80.5608 18.4155 79.4408 20.1998 79.3348C20.3248 79.326 20.505 79.2226 20.5644 79.114C21.1533 78.0423 22.0849 77.6149 23.2641 77.4596C23.5901 77.4186 24.1028 76.8059 24.0769 76.4962C24.0101 75.7616 23.4323 76.1447 23.075 76.3026C22.7431 76.4528 22.4635 76.7217 22.1615 76.938C22.1614 76.8615 22.1684 76.7871 22.1684 76.7107C21.6582 76.7277 21.1459 76.7518 20.6357 76.7688C20.6871 76.8529 20.743 76.9344 20.7943 77.0184C20.2194 77.4177 19.6824 77.92 19.0501 78.1914C18.5804 78.3925 17.9879 78.301 17.4922 78.3338L17.4946 78.3384Z" fill="black"/>
</svg>
