<svg width="250" height="292" viewBox="0 0 250 292" fill="none" xmlns="http://www.w3.org/2000/svg">
<path d="M34.6772 28.8927C34.1845 29.6585 33.3355 29.1095 32.9242 29.0409C31.4846 28.8027 30.0644 29.1006 28.6628 28.8981C28.1229 28.8191 27.4959 28.9623 27.0114 28.4969C26.6129 28.1178 26.5533 28.8463 26.1213 28.8053C24.9991 28.6945 23.8794 28.9165 22.7285 28.7768C21.3521 28.6077 19.9872 29.1487 18.5892 29.2295C17.0203 29.3184 15.4463 29.5149 13.9489 30.0749C13.731 30.1554 13.5164 30.145 13.3081 30.035C13.1795 29.967 13.0481 29.9076 12.9161 29.8442C12.6809 31.1491 10.7759 29.4636 10.5806 31.1618C10.5476 31.4463 9.15954 31.7396 8.40227 31.7164C7.90029 31.7019 7.77142 31.9466 7.52034 32.1676C7.30939 32.3542 7.28177 32.9341 6.77714 32.5003C6.72604 32.4583 6.47198 32.544 6.47429 32.5601C6.56687 33.4931 5.56979 33.4548 5.22776 33.9851C4.91609 34.4699 4.75253 35.0734 3.95616 34.9488C3.70026 34.9072 3.55368 35.2285 3.59122 35.5194C3.73392 36.6878 3.53636 37.1111 2.69793 38.1238C2.48131 38.3852 2.01478 38.9045 2.82169 39.2744C3.50979 39.5873 3.46914 39.6754 2.48574 40.8776C3.35459 40.5639 3.76748 41.0438 3.89876 41.6174C4.3381 43.5127 5.71157 44.9492 6.29827 46.7576C6.48176 47.3238 7.05351 47.0815 7.36413 47.3908C7.67534 47.7041 8.15789 47.812 7.5497 48.3721C7.16965 48.7227 7.8882 49.0765 7.93394 49.5677C8.07551 48.7535 8.6384 48.8786 9.00406 49.143C9.4564 49.4691 9.71336 50.0905 10.0545 50.4695C10.4541 50.9142 10.7204 51.0859 10.0435 51.767C11.2015 51.4407 12.0246 51.2941 11.9655 52.6848C11.9453 53.1732 12.2976 52.5139 12.65 52.7144C13.3766 53.1246 13.9152 53.7386 14.5197 54.2403C15.715 55.2334 17.0649 55.9905 18.2837 56.9473C19.0179 57.5251 19.4152 58.5255 20.3407 58.7797C21.1423 58.9982 21.9491 59.1665 22.4528 59.8514C22.9617 60.5437 23.5908 60.9596 24.4152 61.0514C24.3909 61.4827 24.0839 61.3704 23.9125 61.4607C23.7181 61.5626 23.6138 61.6927 23.7717 61.8799C23.8601 61.9825 24.0185 62.0585 24.1498 61.9163C25.3511 60.6624 25.8649 62.3619 26.7227 62.5723C27.0113 62.6421 27.1318 63.3406 27.6891 62.9688C27.7629 63.3696 28.9547 62.9645 28.3255 63.865C28.4908 63.9318 28.3245 64.6303 28.8386 64.1001C28.9779 63.9567 29.5376 63.745 29.7037 64.0462C30.2334 65.0276 31.5687 64.7377 32.0961 65.6742C32.7557 66.8469 34.6075 66.158 35.1044 67.5967C36.006 67.3113 36.451 67.7577 36.6703 68.5737C37.2173 68.3021 37.7702 68.8153 38.0375 68.7935C39.3013 68.6908 39.7227 70.4323 41.0383 70.0053C41.2849 69.9248 41.1948 70.526 41.5627 70.6625C42.1899 70.8936 42.8034 71.2007 43.4203 71.4168C44.3178 71.7327 45.0125 72.3778 45.8441 72.7195C46.741 73.0889 47.6517 73.3246 48.5167 73.8714C49.3231 74.3812 50.2959 74.822 51.1653 75.1131C52.457 75.5493 53.5626 76.4318 54.9626 76.6222C55.5811 76.7065 56.4475 76.891 56.3825 78.0686C56.9019 77.5747 57.4115 77.2137 57.7255 78.0903C57.8468 78.4226 58.0246 78.3478 58.219 78.2171C58.4019 78.0922 58.6492 78.102 58.7181 78.2403C59.2416 79.2637 60.3124 78.9582 61.1903 79.1945C61.0289 79.555 60.7434 79.7645 60.823 80.2921C61.5759 79.2833 62.0512 79.5691 62.8245 80.2482C63.429 80.7788 64.5716 80.5741 65.3614 81.0534C66.3659 81.6583 67.6992 81.7842 68.2705 83.0271C68.3544 83.2125 68.4588 83.1976 68.6045 83.1274C70.1275 82.4033 71.2748 83.6625 72.5722 83.9951C73.41 84.2084 74.6166 85.0805 75.2987 85.0652C75.6216 85.0601 75.878 85.0192 75.8939 85.4736C75.905 85.723 76.0284 85.7547 76.3364 85.6736C76.8136 85.5435 77.3208 85.6231 77.3673 86.3487C77.3813 86.5895 77.5271 86.7208 77.9068 86.6253C78.4373 86.4959 79.1302 86.3267 79.3896 87.1659C79.4121 87.2367 79.5986 87.3375 79.656 87.3087C80.6216 86.8414 81.3687 87.7094 82.2671 87.7454C83.0256 87.7766 83.681 88.7771 84.1703 88.7893C85.2018 88.8103 85.9528 89.505 86.9258 89.5467C87.227 89.5612 88.1007 89.5102 87.4424 90.5794C88.522 89.7625 88.5552 89.766 88.7872 90.6707C88.8724 91.0082 89.1719 91.0106 89.2578 90.8667C89.535 90.3991 89.876 90.6054 90.1371 90.7696C91.0693 91.356 92.236 91.1767 93.1745 91.7787C93.5441 92.0137 94.1808 91.9103 94.56 91.8683C95.6292 91.7523 96.6387 92.1919 97.6546 92.0465C98.2569 91.9603 98.4174 92.5667 99.0869 92.5778C100.208 92.5942 101.385 93.0633 102.572 93.1073C102.91 93.1207 102.982 93.7973 103.441 93.3656C103.621 93.1957 103.967 93.1751 104.098 93.4648C104.24 93.7695 103.651 93.718 103.739 94.0469C105.544 93.2578 107.173 94.0489 108.745 94.7536C109.502 95.0936 110.245 94.8145 110.938 95.102C111.238 95.2236 111.861 95.0234 111.666 95.7506C111.621 95.9217 111.784 95.9764 111.951 95.969C114.288 95.8319 116.145 97.1869 118.169 98.012C118.561 98.174 118.19 98.3299 118.163 98.49C118.134 98.6587 118.051 98.934 118.357 98.668C119.063 98.0486 119.326 98.8831 119.63 99.144C119.975 99.4401 119.534 99.8529 119.412 100.228C119.068 101.318 117.928 100.482 117.513 101.187C117.173 100.734 116.672 100.81 116.19 100.706C113.967 100.23 111.716 99.8491 109.584 98.9819C108.544 98.5589 107.445 98.2926 106.355 98.0084C105.176 97.7 104.085 97.0623 102.909 96.7533C101.666 96.4253 100.616 95.5307 99.2083 95.6006C98.9278 95.6161 97.9754 95.6043 97.8439 94.8003C97.8353 94.7399 97.7871 94.6892 97.7583 94.6316C96.7936 95.5637 96.4883 94.0606 95.8085 94.0921C94.9865 94.1316 94.146 94.1573 93.487 93.6757C92.335 92.841 90.9167 92.6943 89.6768 92.5345C88.6958 92.4075 87.6172 92.3151 86.6114 92.1876C85.3216 92.0226 83.9515 91.7827 82.7382 91.837C81.4756 91.8903 80.2137 91.5197 78.9794 91.7992C78.099 92.0034 77.2368 91.4193 76.4402 91.6938C75.3075 92.0822 74.1565 91.0827 73.074 91.8507C72.687 92.1241 72.0455 91.9362 71.8733 91.8498C70.0614 90.9285 68.4429 92.1311 66.7415 92.2101C66.1839 92.2365 65.6444 92.6469 65.1064 92.0657C64.8348 91.7714 64.8542 92.3075 64.5938 92.3777C63.5098 92.6769 62.3819 92.6121 61.2898 92.8836C60.063 93.1868 58.7723 93.2441 57.5086 93.4044C57.4096 94.373 56.2827 93.4277 56.067 94.1826C55.6563 93.5174 55.2827 94.0851 55.1234 94.3177C54.8627 94.7006 54.1873 93.8182 54.2001 94.6803C54.141 94.6682 54.0796 94.6687 54.0228 94.6439C53.7577 94.5379 53.4511 94.2856 53.2349 94.3495C52.779 94.4847 53.5537 94.8592 53.2761 94.866C52.5045 94.886 51.9653 95.642 51.2854 95.5583C50.4392 95.4573 49.8344 96.0129 49.0761 96.0679C48.5977 96.1035 48.8003 96.9179 48.4904 96.8429C48.0744 96.742 47.5206 97.1381 47.321 96.4591C47.0275 96.7562 47.6947 97.4958 46.7244 97.2726C45.8391 97.0703 45.1204 97.889 44.6469 98.3311C43.8662 99.06 42.8579 99.3442 42.1019 100.074C41.4581 100.701 40.5945 101.108 40.0198 101.844C39.9785 101.9 39.9907 102.013 39.9413 102.041C39.6139 102.244 39.1082 101.86 38.8986 102.256C38.7474 102.545 39.5796 102.376 39.3575 102.885C39.3294 102.947 39.3404 103.024 39.3341 103.095C38.1365 102.686 38.4306 103.767 38.1723 104.281C37.8882 104.844 36.9455 104.584 36.8669 105.237C36.7968 105.807 37.1168 106.411 36.8741 107.005C36.6978 107.434 36.6661 107.899 36.0323 108.051C35.4346 108.199 35.5537 108.572 36.4928 109.236C36.4661 109.507 35.2069 109.527 36.2429 110.123C36.5287 110.288 35.6973 110.148 35.8408 110.864C36.0718 112.02 36.5948 113.154 36.5603 114.344C36.5319 115.348 37.9126 115.833 37.3794 116.946C38.1954 117.179 37.9439 118.256 38.671 118.584C38.9953 118.731 39.9893 120.493 40.0934 120.848C40.2229 121.295 40.7276 121.128 41.0404 121.367C41.0844 121.788 40.4837 121.8 40.4732 122.184C41.7344 121.893 42.3836 122.935 43.0972 123.598C43.3763 123.859 44.4945 123.999 43.8849 124.921C43.8648 124.953 43.9349 125.042 43.9642 125.103C45.0686 124.46 45.2362 125.917 46.0096 126.024C46.9213 126.153 47.2703 127.131 48.0961 127.433C48.5454 127.595 48.0283 128.018 48.1904 128.378C49.1206 128.035 49.7972 128.238 49.9324 129.354C49.9561 129.548 50.076 129.642 50.2045 129.624C51.7292 129.426 52.6779 130.529 53.8854 131.121C55.0097 131.676 56.1627 132.202 57.2933 132.772C57.9562 133.109 58.5584 133.595 59.365 133.59C59.6558 133.59 59.7995 133.878 59.8037 134.108C59.8069 134.473 59.9882 134.538 60.2768 134.55C61.4001 134.583 62.4049 134.904 63.258 135.682C64.1353 136.487 65.5719 135.96 66.342 136.845C66.833 137.413 67.7899 136.827 68.0523 137.773C68.1358 138.07 68.8531 137.671 68.9473 137.842C69.5846 139.03 70.8572 138.618 71.7845 138.942C72.7716 139.282 73.6188 139.905 74.6936 140.171C75.9341 140.479 77.3089 140.751 78.4929 141.408C78.738 141.546 78.8976 141.688 78.9053 141.999C78.9124 142.191 79.0737 142.316 79.2848 142.303C79.8072 142.269 80.1166 142.513 80.2131 143.034C80.5618 143.009 80.416 142.161 81.3286 142.726C82.1609 143.244 83.452 143.677 84.6184 143.724C85.5168 143.76 86.1684 144.333 86.9202 144.632C88.48 145.252 90.1432 145.393 91.692 145.965C92.1597 146.141 92.7821 146.109 93.0254 146.778C93.1565 147.15 93.6947 147.217 93.9763 147.181C95.8044 146.927 97.2545 148.127 98.9362 148.425C100.45 148.693 101.819 149.468 103.32 149.85C105.243 150.344 107.119 150.997 109.018 151.585C109.087 151.608 109.206 151.611 109.22 151.655C109.674 152.931 110.833 151.958 111.476 152.381C112.091 152.786 112.786 152.773 113.405 152.948C114.378 153.22 115.222 153.877 116.25 153.902C116.567 153.91 116.808 153.938 117.027 154.178C117.367 154.553 117.784 154.715 118.282 154.529C118.966 154.27 119.316 154.969 119.882 155.118C120.504 155.28 121.164 154.885 121.719 155.353C121.962 155.561 122.762 155.455 122.134 156.137C122.113 156.161 122.268 156.381 122.375 156.473C122.515 156.593 122.52 156.395 122.591 156.347C123.217 155.916 123.735 155.694 124.558 156.238C124.943 156.492 125.911 156.469 126.427 156.666C127.505 157.075 128.649 157.051 129.689 157.442C131.585 158.149 133.566 158.507 135.51 159.007C137.352 159.479 139.214 159.891 141.061 160.343C141.706 160.501 142.104 161.049 142.397 161.55C142.523 161.767 142.017 162.3 141.608 162.305C141.122 162.317 140.611 162.184 140.152 162.012C138.065 161.224 135.873 160.855 133.732 160.269C131.57 159.678 129.342 159.486 127.154 159.088C125.61 158.807 123.977 159.049 122.425 158.798C120.932 158.555 119.36 159.114 117.94 158.293C117.832 158.23 117.622 158.223 117.525 158.286C116.921 158.677 116.321 158.578 115.698 158.346C115.213 158.165 114.812 158.568 114.303 158.562C113.322 158.551 112.33 158.207 111.35 158.602C111.094 158.705 110.937 158.604 111.037 158.277C111.155 157.894 110.901 158.041 110.789 158.144C110.027 158.837 109.91 158.874 108.903 158.253C108.638 158.09 108.606 158.296 108.479 158.355C107.644 158.763 106.543 158.398 105.932 158.74C104.984 159.271 104.028 157.857 103.315 159.004C102.262 158.632 101.22 159.481 100.122 158.996C99.7936 158.85 99.1652 158.553 98.7614 159.339C98.6016 159.654 97.6946 159.615 97.1216 159.677C96.0001 159.8 94.7763 159.638 93.7825 160.052C92.6373 160.524 91.4951 160.503 90.3588 160.723C89.4497 160.899 88.6759 161.676 87.6091 161.265C87.453 161.205 87.6165 161.889 87.0624 161.968C86.6528 162.027 86.0724 161.551 85.8028 162.243C84.9705 161.696 84.5094 163.198 83.6421 162.635C83.4797 162.531 82.5745 163.277 82.4129 163.552C82.3797 163.606 82.3132 163.685 82.2673 163.679C80.8129 163.567 79.9535 164.862 78.7691 165.176C77.9404 165.397 77.593 166.377 76.6618 166.197C76.3502 166.139 76.2937 166.517 76.303 166.639C76.3621 167.281 75.8556 167.349 75.4868 167.406C75.0543 167.476 74.6228 167.382 74.9991 168.036C75.0209 168.074 74.8943 168.277 74.822 168.287C73.6347 168.465 73.3409 169.762 72.3093 170.256C71.5655 170.613 71.4829 171.896 70.7015 172.563C70.3839 172.835 69.9344 173.101 69.7398 173.573C69.6235 173.849 69.0924 173.945 69.6234 174.392C69.8376 174.571 69.3702 174.827 69.1534 174.887C68.366 175.111 68.4371 175.064 68.6327 175.743C68.788 176.285 68.2159 176.696 68.0861 177.249C67.8992 178.033 67.0765 178.64 67.3911 179.607C67.421 179.701 67.4389 179.798 67.4648 179.893C66.0478 179.927 67.1888 181.142 66.6849 181.6C66.478 181.786 66.6714 181.964 66.7513 182.064C67.4525 182.926 67.0667 183.294 65.6957 183.421C67.0247 183.831 67.0483 184.626 67.2234 185.419C67.406 186.236 67.1946 187.221 68.0166 187.84C68.0533 187.867 68.0449 188.037 68.0334 188.043C66.7344 188.443 68.013 189.017 68.0986 189.186C68.802 190.55 69.7267 191.799 70.434 193.163C70.9391 194.144 71.8576 194.777 72.3688 195.601C72.8497 196.384 73.6039 196.815 74.087 197.556C74.6539 198.425 75.8154 198.81 76.6931 199.445C77.9135 200.328 79.1895 201.17 80.6281 201.688C81.2462 201.912 80.9976 202.379 80.9355 202.89C81.2897 202.531 81.5949 202.487 82.0305 202.668C83.3372 203.209 84.6662 203.677 85.922 204.348C86.2727 204.537 86.9653 204.738 87.0978 204.69C88.1616 204.307 88.752 205.77 89.7671 205.304C91.169 206.452 93.1708 205.409 94.5504 206.63C96.3152 206.135 97.9999 207.342 99.7889 206.901C99.9672 206.859 100.915 206.468 100.889 207.459C100.884 207.682 101.166 207.506 101.211 207.45C102.013 206.496 103.007 207.226 103.832 207.293C104.64 207.358 105.646 207.058 106.343 207.83C107.554 206.785 108.865 207.786 110.127 207.646C111.507 207.494 112.9 207.41 114.284 207.434C115.767 207.456 117.25 207.281 118.701 207.312C120.049 207.341 121.439 207.319 122.744 207.218C124.794 207.056 126.843 206.541 128.91 206.471C131.031 206.402 133.069 205.814 135.164 205.679C136.305 205.606 137.376 205.214 138.618 205.476C139.619 205.687 140.811 205.134 141.889 204.823C143.569 204.34 145.339 204.136 147.013 204.184C148.531 204.226 149.797 203.909 151.102 203.323C151.642 203.081 152.324 203.185 152.846 203.135C153.986 203.025 154.836 202.27 155.941 202.202C156.648 202.159 157.336 201.641 158.033 201.644C160.365 201.647 162.624 201.143 164.913 200.844C165.842 200.723 166.78 200.803 167.692 201.079C167.872 201.136 168.053 201.139 168.06 201.389C168.074 201.86 167.779 201.515 167.63 201.561C167.501 201.605 167.277 201.731 167.283 201.747C167.696 202.823 166.762 202.257 166.453 202.47C165.306 203.248 163.948 202.751 162.829 203.092C161.84 203.394 160.803 203.337 159.855 203.752C159.002 204.121 158.059 204.005 157.155 204.073C155.49 204.2 153.917 204.895 152.289 205.029C150.532 205.178 149.133 206.279 147.409 206.431C146.531 206.507 145.959 207.836 144.783 207.12C144.442 206.913 144.672 207.493 144.38 207.687C143.561 208.233 142.758 208.607 141.764 208.502C141.672 208.491 141.529 208.495 141.488 208.55C140.969 209.249 140.894 209.293 140.165 209.328C140.068 209.333 139.911 209.384 139.884 209.454C139.445 210.62 138.333 210.643 137.39 210.951C137.268 210.989 137.011 210.939 137.007 210.964C136.812 212.12 135.76 211.785 135.079 212.067C134.843 212.163 134.597 212.28 134.809 212.468C135.165 212.779 134.987 212.768 134.699 212.792C133.69 212.871 133.101 213.737 132.234 214.116C131.135 214.598 130.307 215.54 129.22 216.132C128.44 216.552 127.77 217.429 127.055 218.042C126.282 218.708 125.728 219.704 124.664 220.034C124.543 220.072 124.376 220.223 124.371 220.331C124.321 221.185 123.535 221.306 123.057 221.745C122.873 221.915 122.398 222.032 122.639 222.512C122.69 222.612 122.536 222.942 122.433 222.965C121.486 223.187 121.371 224.331 120.528 224.682C120.361 224.751 119.633 224.93 120.24 225.447C120.263 225.469 120.23 225.634 120.194 225.643C118.853 226.066 119.073 227.688 118.1 228.391C117.706 228.673 116.957 228.818 117.58 229.564C116.505 229.615 117.19 231.133 116.128 231.273C115.46 231.36 115.881 232.152 115.639 232.437C114.8 233.442 114.888 234.803 114.197 235.873C113.908 236.318 113.307 236.7 113.451 237.362C113.505 237.626 113.372 237.55 113.247 237.564C112.78 237.627 112.744 237.661 112.977 237.911C113.395 238.37 113.569 238.588 112.969 239.204C112.473 239.716 112.197 240.681 112.526 241.604C112.8 242.372 112.1 242.953 111.959 243.656C111.893 243.995 111.648 244.227 112.065 244.567C112.38 244.822 112.035 245.217 111.79 245.363C111.081 245.789 110.997 246.176 111.591 246.667C111.982 246.993 111.875 246.902 111.545 247.315C111.239 247.7 111.378 248.466 111.533 248.781C111.845 249.411 111.642 249.909 111.538 250.447C111.393 251.204 111.524 251.917 111.794 252.607C112.001 253.137 111.736 253.746 112.174 254.256C112.346 254.453 112.028 254.437 111.862 254.424C111.585 254.406 111.32 254.448 111.392 254.836C111.434 255.069 111.443 255.216 111.828 255.243C112.291 255.276 112.221 255.956 112.381 256.192C112.777 256.778 112.95 257.419 113.246 258.023C113.442 258.422 112.557 258.71 113.197 259.116C114.733 260.081 115.135 262.146 116.813 262.934C117.305 263.164 117.027 263.743 117.128 263.675C117.632 263.356 117.703 263.539 117.663 264.005C118.327 263.688 118.85 264.165 119.443 264.273C121.257 264.606 123.054 264.34 124.864 263.962C126.793 263.554 128.58 262.694 130.282 261.874C131.439 261.313 133.083 261.037 133.755 259.546C133.948 259.119 134.461 259.441 134.865 259.227C135.764 258.752 136.398 257.942 137.388 257.533C138.081 257.248 138.629 256.298 139.425 255.85C140.26 255.381 140.68 254.482 141.534 253.977C143.132 253.036 144.262 251.513 145.621 250.269C146.175 249.762 146.676 249.254 147.385 248.881C148.212 248.446 148.889 247.625 149.462 246.844C149.739 246.463 150.007 245.988 150.352 245.762C151.414 245.079 151.933 243.845 152.943 243.194C154.162 242.411 154.437 240.87 155.529 240.138C156.864 239.243 157.227 237.546 158.462 236.756C159.933 235.813 160.533 234.217 161.738 233.136C162.991 232.01 163.692 230.47 164.867 229.286C165.798 228.35 166.659 227.293 167.324 226.157C167.87 225.219 168.523 224.401 169.149 223.538C169.533 223.01 170.175 222.886 170.516 222.211C171.235 220.788 172.004 219.267 173.073 218.172C174.145 217.072 174.642 215.655 175.648 214.524C176.319 213.774 176.846 212.559 177.527 211.733C178.012 211.146 177.744 210.304 178.489 209.925C179.41 209.456 179.112 208.096 180.108 207.579C180.36 207.448 180.281 206.497 180.464 206.459C181.272 206.293 181.136 205.486 181.552 205.101C181.958 204.731 182.43 204.42 182.174 203.754C182.996 203.451 182.842 202.461 183.335 202.016C183.876 201.531 184.14 200.942 184.424 200.346C184.651 199.873 184.744 199.547 185.407 199.885C185.765 200.068 186.416 199.752 186.662 200.264C186.978 200.927 186.783 201.654 186.339 202.158C186.035 202.497 185.792 202.606 186.276 202.952C186.554 203.147 186.174 203.329 186.183 203.418C186.224 203.931 185.609 204.418 186.184 204.969C186.412 205.187 186.01 206.417 185.719 206.763C185.674 206.815 185.604 206.842 185.543 206.879C186.418 207.433 184.85 208.361 185.855 208.97C185.99 209.053 185.236 209.568 185.478 210.089C185.193 209.953 184.796 210.104 184.889 210.297C185.094 210.724 185.237 211.094 185.043 211.542C185.898 211.876 185.285 212.49 185.223 212.911C185.102 213.73 184.362 214.482 185.038 215.368C185.078 215.42 185.079 215.572 185.068 215.578C184.431 215.768 184.548 216.64 184.607 216.71C185.326 217.61 184.695 218.009 184.12 218.577C183.445 219.241 184.963 219.082 184.686 219.78C184.611 219.971 183.362 220.208 184.57 220.598C184.304 221.492 185.073 222.456 184.454 223.285C184.255 223.552 184.186 223.784 184.361 223.923C184.8 224.272 185.002 224.449 184.223 224.392C184.222 224.528 184.177 224.752 184.235 224.785C185.033 225.238 184.71 225.643 184.235 226.105C184.098 226.236 183.835 226.57 184.179 226.743C185.392 227.347 184.512 227.666 184.004 228.039C185.156 228.5 185.176 228.612 184.345 229.451C184.059 229.739 184.203 230.002 184.474 230.177C185.202 230.657 185.29 231.039 183.913 231.352C184.651 231.468 185.02 231.358 185.299 231.758C185.68 232.304 185.116 232.455 185.004 232.763C184.91 233.023 184.737 233.159 184.946 233.474C185.644 234.543 186.337 235.637 185.405 236.938C185.255 237.149 185.375 237.272 185.626 237.248C185.787 237.233 186.007 237.334 185.936 237.442C185.452 238.211 186.343 238.454 186.529 238.95C186.72 239.457 187.123 239.836 186.615 240.353C186.597 240.372 186.689 240.498 186.736 240.57C187.131 241.155 187.263 241.848 187.516 242.494C187.595 242.701 187.577 242.782 187.385 242.925C186.477 243.593 187.243 244.027 187.68 244.413C188.06 244.749 188.977 244.803 188.01 245.546C187.863 245.662 188.043 246.117 188.373 246.132C189.308 246.171 188.979 246.732 188.815 247.188C188.704 247.5 188.429 247.815 188.961 247.952C189.752 248.156 189.962 248.821 190.135 249.459C190.403 250.44 191.452 251.097 191.288 252.297C191.274 252.402 191.991 252.887 192.239 253.391C192.538 253.994 192.877 254.554 193.062 255.219C193.272 255.97 194.176 256.215 194.499 256.786C195.104 257.864 195.946 258.792 196.476 259.917C196.517 260.006 196.663 260.537 197.112 260.382C197.288 260.32 197.595 259.831 197.661 260.324C197.727 260.787 198.803 261.201 197.433 261.85C198.457 261.588 200.028 262.433 200.341 262.898C200.674 263.393 199.484 263.44 200.142 263.827C200.509 264.042 200.765 263.257 201.272 263.592C201.593 263.805 202.097 263.807 202.336 264.073C203.188 265.012 204.431 264.995 205.474 265.442C206.557 265.904 207.916 266.071 208.861 265.656C209.62 265.321 210.484 265.317 211.296 264.777C212.758 263.798 213.73 262.4 215.044 261.336C215.441 261.016 215.352 260.194 216.205 260.166C216.392 260.16 215.955 259.655 216.002 259.356C216.341 258.974 216.573 259.788 216.844 259.425C217.16 258.997 216.511 258.76 216.564 258.354C216.922 258.311 217.628 258.691 217.139 257.708C216.961 257.351 217.291 256.534 217.642 256.184C217.939 255.882 217.998 255.865 217.705 255.591C217.643 255.534 217.796 255.141 217.967 255.302C218.335 255.644 218.323 255.214 218.327 255.131C218.424 254.003 219.129 252.976 218.905 251.807C218.837 251.45 218.934 251.153 219.033 250.846C219.299 250.039 219.614 249.262 219.362 248.364C219.32 248.214 219.276 247.706 219.645 247.505C219.888 247.371 220.003 247.17 219.901 246.863C219.779 246.494 219.067 246.074 219.965 245.764C219.32 244.491 220.305 243.099 219.688 241.825C219.641 241.725 219.542 241.55 219.553 241.54C220.735 240.754 219.28 239.749 219.671 239.129C220.598 237.647 219.269 236.467 219.401 235.157C219.516 234.009 218.994 232.911 219.223 231.793C219.353 231.157 218.876 230.773 218.769 230.224C218.419 228.411 218.253 226.563 217.794 224.757C217.54 223.76 216.723 222.972 216.835 221.866C216.907 221.165 215.883 220.542 216.67 219.767C216.713 219.724 216.576 219.427 216.464 219.303C215.463 218.237 215.255 216.929 215.27 215.545C215.269 215.508 215.287 215.46 215.271 215.434C214.638 214.566 214.356 213.483 213.601 212.616C213.802 212.332 214.332 212.569 214.571 212.152C213.28 212.004 213.211 210.833 212.912 209.979C212.613 209.121 212.429 208.263 211.925 207.459C211.309 206.477 211.276 205.244 210.841 204.154C210.65 203.68 210.276 203.412 210.054 202.979C208.889 200.707 208.297 198.146 206.647 196.095C206.478 195.889 206.34 195.271 206.172 194.842C205.635 193.434 204.848 192.23 203.92 191.043C203.584 190.614 203.176 189.796 203.123 189.227C202.973 187.636 201.184 186.93 201.233 185.269C201.244 184.806 200.562 184.559 200.255 184.109C199.535 183.056 199.508 181.632 198.471 180.802C197.545 180.062 197.392 178.846 196.848 177.912C196.217 176.825 195.263 175.851 194.933 174.492C194.771 173.824 193.859 173.263 193.521 172.443C192.998 171.165 191.963 170.12 191.447 168.923C191.165 168.264 190.452 167.72 190.512 166.938C190.54 166.588 190.394 166.432 190.236 166.183C189.539 165.098 188.952 163.944 188.219 162.889C187.78 162.256 188.507 162.181 188.569 161.81C188.589 161.692 188.659 161.468 188.843 161.635C188.919 161.707 188.881 161.901 188.901 162.043C189.336 161.849 189.687 161.835 190.163 162.125C190.562 162.364 191.097 162.267 190.532 162.899C190.419 163.026 190.498 163.233 190.677 163.199C191.762 162.995 192.038 163.807 192.456 164.52C192.618 164.793 193.045 164.942 193.317 165.154C193.543 165.327 194.433 165.422 193.768 166.101C193.99 166.304 193.736 167.221 194.55 166.607C194.649 166.531 195.588 166.302 195.343 167.197C195.682 166.988 195.448 168.243 196.042 167.471C196.104 167.392 196.242 167.578 196.285 167.798C196.371 168.255 196.586 168.323 196.986 168.257C197.186 168.224 197.195 168.425 197.287 168.527C197.876 169.175 198.505 169.792 199.322 170.177C199.498 170.259 200.141 170.257 199.586 170.761C199.452 170.883 199.699 171.061 199.796 171.051C201.124 170.939 201.637 172.178 202.543 172.756C203.016 173.055 203.483 173.395 203.951 173.719C204.511 174.108 205.015 174.566 204.559 175.59C205.276 174.932 205.771 174.865 206.255 175.499C206.654 176.022 207.873 175.868 207.503 177.032C207.495 177.062 207.525 177.103 207.535 177.139C208.19 176.794 208.418 177.588 208.899 177.655C209.606 177.751 210.268 178.056 210.681 178.539C211.494 179.493 212.62 179.8 213.637 180.35C214.165 180.636 214.898 180.832 214.743 181.722C214.741 181.739 214.823 182.056 215.273 181.934C216.086 181.715 216.829 182.497 217.633 182.765C217.844 182.833 217.362 183.762 218.121 183.139C218.283 183.009 218.402 183.181 218.248 183.421C217.924 183.937 218.477 183.936 218.624 183.845C219.545 183.268 220.27 184.012 220.735 184.427C221.262 184.899 222.166 184.831 222.393 185.642C223.139 185.074 223.457 186.09 224.057 186.218C224.885 186.392 226.064 186.441 226.675 187.361C227.025 187.887 227.337 187.777 227.628 187.348C228.107 187.749 227.215 187.897 227.555 188.186C227.904 188.477 228.087 187.982 228.372 187.937C228.696 187.886 229.112 187.613 229.254 188.206C229.852 187.947 230.341 188.7 230.915 188.412C231.339 188.199 231.678 188.389 232.073 188.431C232.722 188.499 232.458 188.771 232.283 189.154C232.933 188.658 233.367 188.197 234.247 188.301C234.851 188.371 235.275 187.471 235.761 186.999C236.228 186.541 236.84 185.955 236.057 185.204C235.919 185.071 236.18 184.976 236.206 184.87C236.353 184.24 236.496 183.606 236.043 183.017C235.761 182.65 235.705 182.23 235.883 181.789C236.047 181.387 235.927 180.923 235.68 180.712C235.058 180.171 234.614 179.219 234.567 178.744C234.395 177 232.829 176.109 232.429 174.55C232.226 173.76 231.67 172.996 231.103 172.382C229.566 170.718 228.524 168.707 227.154 166.925C226.349 165.88 225.579 164.764 224.872 163.66C224.122 162.488 223.072 161.594 222.217 160.601C220.325 158.408 218.4 156.207 216.411 154.077C213.822 151.304 210.884 148.928 208.245 146.236C206.925 144.891 205.251 143.929 204.072 142.535C203.095 141.379 201.487 140.877 200.939 139.31C200.848 139.051 200.217 139.022 199.921 138.785C198.916 137.974 198.034 136.965 196.941 136.315C195.239 135.304 193.829 133.951 192.459 132.596C191.676 131.824 190.694 131.516 189.895 130.861C189.626 130.64 189.175 130.586 189.43 130.072C189.506 129.917 189.512 129.817 189.283 129.789C187.283 129.532 186.286 127.778 184.817 126.73C184.215 126.302 183.767 125.637 183.066 125.347C181.59 124.74 180.38 123.699 179.027 122.893C178.866 122.797 178.857 122.194 178.984 121.933C179.072 121.751 179.383 121.431 179.809 121.629C180.585 121.987 181.045 122.851 181.963 122.967C182.009 122.972 182.083 123.089 182.07 123.141C181.704 124.563 182.618 123.42 182.912 123.559C182.794 123.823 182.494 124.1 182.812 124.375C182.99 124.531 183.221 124.568 183.511 124.452C183.891 124.299 186.154 125.596 186.216 125.999C186.289 126.506 187.248 126.567 186.716 127.433C187.648 126.472 188.069 127.58 188.681 127.735C189.14 127.851 188.291 128.186 188.605 128.577C189.399 127.855 189.867 128.693 190.285 129.094C191.402 130.168 192.746 130.938 193.899 131.95C194.789 132.732 195.743 133.442 196.58 134.277C197.143 134.838 197.918 135.04 198.464 135.591C198.828 135.955 199.682 136.001 199.306 136.865C199.291 136.904 199.392 137.034 199.396 137.033C200.75 136.358 200.609 138.579 201.766 138.274C201.884 138.985 203.142 138.846 202.924 139.836C202.898 139.946 203.138 140.245 203.235 140.24C204.61 140.142 204.989 141.638 206.061 141.999C206.349 142.094 206.523 142.365 206.423 142.556C206.162 143.079 206.359 143.108 206.792 143.013C206.899 142.99 207.106 142.977 207.108 142.989C207.344 144.263 209.026 144.08 209.369 145.273C209.532 145.838 210.356 145.498 210.623 146.019C210.561 146.386 210.205 146.219 210.02 146.357C209.879 146.459 209.837 146.568 209.88 146.726C209.923 146.885 210.069 147.045 210.183 146.954C211.262 146.072 211.686 147.319 212.18 147.709C213.557 148.8 214.754 150.118 216.052 151.314C216.491 151.716 217.715 152.084 217.186 153.225C217.581 153.234 217.847 153.262 218.021 153.789C218.124 154.111 218.5 154.559 218.857 154.792C220.535 155.893 221.608 157.521 222.856 159.024C223.48 159.778 223.981 160.476 224.198 161.416C224.36 162.121 225.139 161.693 225.595 162.158C226.166 162.743 226.508 163.529 227.239 163.996C227.568 164.208 226.966 164.693 227.018 165.089C228.246 165.078 228.678 166.151 229.382 166.832C229.896 167.326 228.949 167.38 229.04 167.873C230.414 167.343 230.127 168.799 230.694 169.298C230.741 169.34 230.537 169.629 230.721 169.656C232.311 169.889 232.234 171.636 233.203 172.481C233.582 172.809 234.479 173.841 233.714 174.818C233.617 174.943 233.666 175.117 233.813 175.195C235.053 175.848 234.942 176.012 235.514 177.062C236.025 177.997 236.455 178.881 236.565 179.939C236.582 180.085 237.027 179.819 237.165 180.351C237.305 180.903 237.108 181.009 236.61 181.286C237.551 181.332 237.816 181.809 237.779 182.522C237.75 183.065 238.422 183.553 237.985 184.105C237.479 184.749 237.458 185.229 237.914 185.983C238.069 186.236 237.354 187.285 237.006 187.828C236.491 188.634 235.524 189.241 234.44 189.569C233.73 189.786 232.864 189.491 232.288 190.165C232.278 190.179 232.207 190.169 232.192 190.15C231.526 189.16 230.432 189.703 229.6 189.592C228.543 189.447 227.53 189.098 226.652 188.718C224.552 187.817 222.266 187.301 220.345 186.05C218.021 184.532 215.408 183.565 213.124 181.979C211.136 180.597 208.911 179.542 207.043 178.024C205.93 177.122 204.403 176.702 203.685 175.295C203.384 174.705 202.627 174.912 202.142 174.476C200.622 173.105 198.84 171.99 197.496 170.476C196.969 169.88 196.251 170.164 195.887 169.538C195.505 168.872 194.662 168.652 194.187 168.082C193.663 167.454 192.984 167.004 192.447 166.402C192.203 166.128 191.952 166.238 191.592 166.438C192.939 166.837 192.595 167.639 192.146 168.452C192.991 168.372 193.391 168.961 193.834 169.42C194.483 170.088 194.749 171.005 194.932 171.855C195.027 172.285 195.326 172.288 195.475 172.526C196.162 173.633 196.865 174.709 197.418 175.913C197.887 176.928 198.453 177.957 199.243 178.811C199.408 178.989 199.706 179.243 199.147 179.401C198.978 179.45 198.873 180.004 199.211 179.959C200.293 179.821 200.031 181.051 200.707 181.337C200.89 181.414 200.929 181.976 200.937 182.316C200.943 182.731 200.401 183.208 201.473 183.198C202.046 183.194 200.965 183.629 201.261 184.121C201.526 184.026 202.195 183.658 202.134 184.033C202.029 184.678 203.465 184.888 202.484 185.596C202.239 185.775 202.455 185.764 202.571 185.801C203.16 185.997 203.424 186.407 203.423 187.033C203.423 187.341 203.705 187.141 203.835 187.217C204.107 187.371 204.19 187.524 203.776 187.546C203.307 187.568 203.439 187.915 203.535 188.095C203.737 188.481 203.857 188.028 203.971 187.966C204.259 187.806 204.424 187.951 204.485 188.152C204.762 189.026 205.862 189.58 205.581 190.628C205.434 191.172 206.685 190.807 206.009 191.472C206.705 191.919 206.103 192.38 206.013 192.899C206.813 192.62 207.126 192.949 207.488 193.7C208.044 194.862 208.749 195.954 209.082 197.223C209.201 197.679 209.15 198.209 209.763 198.426C209.992 198.508 209.922 198.74 209.691 198.93C209.343 199.214 209.688 199.395 209.89 199.489C210.804 199.918 210.742 200.375 211.032 201.169C211.235 201.724 210.9 202.648 211.806 202.967C212.345 203.157 212.271 203.785 212.304 204.212C212.338 204.68 212.361 205.039 212.842 205.25C212.99 205.315 213.207 205.601 213.186 205.624C212.493 206.509 213.549 206.84 213.816 207.332C214.201 208.046 214.516 208.906 214.663 209.556C214.898 210.6 215.457 211.47 215.799 212.429C215.939 212.829 215.67 213.073 215.821 213.442C216.035 213.963 216.171 214.449 216.598 214.886C216.723 215.016 217.602 215.948 216.47 216.34C216.181 216.439 216.451 216.668 216.454 216.828C216.461 217.193 216.549 217.176 216.86 217.206C217.558 217.27 217.591 217.389 217.113 217.914C217.043 217.994 216.983 218.122 216.991 218.121C217.715 218.256 217.035 219.283 217.929 219.492C218.37 219.594 218.805 220.572 217.26 220.629C218.628 220.425 218.188 221.87 219.273 221.809C218.655 222.157 218.252 222.12 217.756 222.117C218.041 222.623 218.045 223.252 218.819 223.129C218.879 223.12 219.027 223.268 219.019 223.327C218.825 224.716 220.372 225.881 219.527 227.364C219.396 227.592 219.596 227.843 219.828 227.975C220.153 228.158 220.515 228.308 219.897 228.598C219.847 228.622 219.834 228.879 219.865 228.895C220.957 229.422 220.122 230.685 220.812 231.413C220.99 231.597 221.386 232.45 220.378 232.503C220.195 232.513 220.014 232.967 220.453 233.027C221.394 233.164 220.585 234.235 221.268 234.482C221.076 234.691 220.647 234.526 220.57 234.961C221.331 235.037 221.697 235.277 220.913 235.924C220.807 236.013 220.669 236.255 220.682 236.261C221.19 236.686 221.213 237.333 221.466 237.873C221.66 238.285 221.499 238.847 221.371 238.927C220.624 239.404 221.139 240.396 221.198 240.437C222.815 241.596 221.072 241.36 220.662 241.612C220.956 241.948 221.333 241.549 221.628 241.865C221.325 242.295 220.534 242.782 221.881 243.145C221.377 243.402 220.876 243.367 220.771 243.834C221.115 244.065 221.459 244.291 221.817 244.532C221.498 244.907 221.14 244.378 220.881 244.72C220.901 245.087 221.263 245.154 221.492 245.352C221.308 245.584 220.883 245.39 220.792 245.814C220.793 245.818 220.792 245.925 220.821 245.933C221.55 246.154 221.788 246.762 221.275 247.44C220.844 248.008 220.271 248.386 221.291 248.956C221.62 249.139 221.013 249.222 221.021 249.245C221.319 250.128 220.688 250.614 220.227 251.169C220.921 251.584 220.231 251.596 220.069 251.809C219.859 252.09 219.63 252.435 220.193 252.68C220.67 252.887 220.725 253.134 220.247 253.511C220.037 253.677 219.281 254.065 220.125 254.491C219.787 254.963 219.467 255.449 219.1 255.893C219.013 256 218.638 256.07 218.841 256.201C219.663 256.73 218.499 257.419 219.029 257.972C219.111 258.059 218.896 258.473 218.544 258.359C218.23 258.255 218.132 258.434 218.202 258.662C218.233 258.765 218.598 258.741 218.504 258.998C218.428 259.21 218.184 259.081 218.023 259.132C217.746 259.226 217.467 259.109 217.879 259.643C218.392 260.305 217.29 261.019 216.963 261.111C216.006 261.383 216.248 262.303 215.783 262.806C215.503 263.109 215.382 263.497 214.893 263.485C214.688 263.481 214.492 263.488 214.621 263.762C214.818 264.191 214.742 264.234 214.418 263.919C214.095 263.603 213.889 263.941 213.821 264.095C213.218 265.493 213.027 265.677 211.731 265.953C211.659 265.967 211.564 265.961 211.521 266.004C210.388 267.079 208.909 267.167 207.513 267.174C206.751 267.176 205.848 267.363 205.158 266.952C203.997 266.254 202.659 266.067 201.457 265.433C199.804 264.559 198.297 263.475 196.93 262.284C196.194 261.64 195.596 260.669 194.843 259.933C194.015 259.126 193.567 258.055 192.821 257.199C192.331 256.64 191.754 256.13 191.386 255.5C190.583 254.134 189.787 252.75 189.244 251.248C189.225 251.197 189.365 251.091 189.428 251.012C188.014 250.84 188.792 248.861 187.469 248.606C187.44 248.602 187.457 248.406 187.438 248.306C187.019 246.264 186.098 244.384 185.484 242.415C184.862 240.414 184.46 238.32 184.207 236.238C184.055 234.98 183.407 233.884 183.337 232.652C183.245 231.007 182.952 229.366 183.141 227.706C183.242 226.807 182.796 225.958 182.77 225.118C182.732 223.963 182.351 222.706 182.856 221.654C183.15 221.04 181.98 220.685 182.822 220.24C182.171 219.613 183.007 219.098 183.027 218.499C183.065 217.276 183.331 216.094 183.122 214.812C183.031 214.257 183.219 213.399 183.384 212.688C183.595 211.761 183.771 210.757 183.928 209.789C184.116 208.618 183.627 207.433 184.299 206.226C184.586 205.712 184.366 204.748 184.616 204.009C184.668 203.853 184.787 203.54 184.421 203.506C184.251 203.489 183.994 203.468 183.921 203.561C183.678 203.867 184.295 203.997 184.07 204.428C183.738 204.369 183.221 204.081 183.028 204.709C182.997 204.804 182.941 204.927 182.976 205.001C183.31 205.705 183.218 206.151 182.56 206.619C182.426 206.712 182.132 206.693 182.144 206.893C182.22 207.91 181.633 208.188 180.567 208.126C180.92 208.528 181.411 208.725 181.232 209.166C181.08 209.534 180.831 209.882 180.324 209.634C180.219 209.929 179.731 210.097 179.867 210.419C180.254 211.347 179.525 211.723 179.015 212.055C178.438 212.43 177.877 212.662 178.185 213.495C178.36 213.971 177.78 214.013 177.65 214.394C177.415 215.102 176.631 215.465 176.077 215.973C175.918 216.119 175.7 216.257 175.978 216.484C176.048 216.54 176.134 216.573 176.21 216.616C175.356 216.578 175.97 217.971 174.98 217.87C174.643 217.836 174.464 217.956 174.823 218.431C175.309 219.081 174.511 218.661 174.347 218.8C173.996 219.097 173.978 219.572 173.768 219.94C173.153 221.019 172.466 222.06 171.805 223.113C171.589 223.461 171.163 223.238 170.859 223.462C170.6 223.656 170.439 223.671 170.821 223.879C170.879 223.912 170.833 224.136 170.836 224.272C169.722 223.958 169.845 224.85 169.719 225.456C169.554 226.253 168.819 226.581 168.399 227.167C167.522 228.399 166.701 229.677 165.759 230.857C165.527 231.149 165.403 231.805 164.748 231.631C164.696 231.618 164.628 231.681 164.566 231.706C165.455 232.941 163.665 232.173 163.742 232.82C163.767 233.055 163.063 232.975 163.473 233.492C163.663 233.728 163.601 234.181 162.99 234.149C162.453 234.123 162.421 234.786 162.291 235.08C162.124 235.458 161.817 235.515 161.638 235.553C161.112 235.657 161.095 235.597 161.155 235.963C161.17 236.068 161.262 236.166 161.261 236.269C161.264 237.264 160.082 236.252 159.997 237.001C159.95 237.415 160.651 238.109 159.512 237.967C159.245 237.931 158.83 237.954 159.388 238.302C159.447 238.339 159.434 238.48 159.456 238.572C158.433 238.788 158.528 240.395 157.285 240.327C156.785 240.299 157.248 240.608 157.146 240.7C156.938 240.878 157.028 241.108 157.013 241.32C155.619 241.223 155.917 242.818 155.077 243.276C154.921 243.36 154.781 243.499 154.614 243.535C154.257 243.615 153.804 243.602 154.32 244.116C153.844 244.394 153.702 245.324 152.803 244.765C153.022 245.24 153.461 245.56 152.567 245.721C152.095 245.805 151.559 246.235 151.238 246.919C150.76 247.929 149.958 248.826 148.816 249.257L147.785 250.33C147.41 250.77 147.288 251.524 146.534 251.492C146.183 251.477 146.13 252.48 145.636 251.719C145.571 251.84 145.427 251.98 145.454 252.079C145.663 252.913 145.041 253.027 144.56 253.449C144.029 253.92 143.33 254.214 142.894 254.889C142.581 255.37 141.759 255.524 141.161 255.812C140.621 256.07 140.15 256.36 140.447 257.09C139.999 257.307 139.812 256.774 139.363 256.847C139.827 257.508 139.426 257.969 138.916 258.219C138.361 258.492 137.95 259.024 137.265 259.076C136.945 259.102 136.438 259.137 136.664 259.743C136.106 259.884 136.003 260.594 135.308 260.689C134.75 260.769 134.006 260.843 133.777 261.735C133.633 262.303 133.037 261.747 132.548 261.85C132.997 262.382 132.606 262.738 132.201 262.8C130.797 263.01 129.723 263.982 128.333 264.321C127.26 264.581 126.159 265.159 125.087 265.629C124.833 265.744 124.56 265.959 124.359 265.552C124.272 265.379 124.182 265.178 123.971 265.365C123.746 265.566 124.209 265.709 124.026 266.003C123.382 265.026 122.811 266.28 122.033 266.025C121.156 265.735 120.109 266.004 119.157 265.881C118.593 265.81 117.986 265.49 117.553 265.181C116.654 264.545 115.275 264.697 114.75 263.604C114.288 262.641 113.078 262.231 112.816 261.548C112.274 260.136 111.166 258.925 111.125 257.322C111.11 256.786 110.892 256.348 110.615 255.906C110.37 255.505 110.404 255.003 110.324 254.586C110.05 253.19 110.343 251.774 109.896 250.369C109.517 249.177 109.445 247.846 110.05 246.55C110.37 245.866 110.389 244.963 110.294 244.187C110.241 243.758 110.37 243.431 110.429 243.073C110.573 242.213 110.687 241.325 111.007 240.526C111.382 239.592 111.009 238.448 111.911 237.62C112.037 237.503 112.551 236.738 112.358 236.083C112.204 235.55 112.905 235.322 113.032 234.806C113.525 232.781 114.488 230.948 115.618 229.227C116.338 228.133 116.972 226.977 117.801 225.932C118.211 225.417 119.161 224.956 118.948 223.979C118.901 223.767 119.128 223.694 119.206 223.695C120.751 223.692 120.845 222.148 121.443 221.314C121.938 220.621 122.646 220.273 123.13 219.62C123.762 218.764 124.583 218.034 125.387 217.326C126.195 216.614 127.076 215.986 127.943 215.343C128.606 214.854 129.281 214.383 129.924 213.871C130.649 213.294 131.283 212.311 132.451 212.518C132.616 212.548 132.643 212.453 132.696 212.392C133.707 211.186 134.985 210.407 136.505 210.037C137.048 209.905 137.121 209.159 137.79 209.162C139.056 209.165 139.851 208.192 140.816 207.576C141.173 207.349 141.448 207.095 141.978 207.336C142.289 207.477 142.897 207.003 142.917 206.737C142.948 206.329 142.637 205.987 142.023 205.931C141.333 205.865 141.029 206.485 140.403 206.521C139.317 206.582 138.164 207.166 137.18 206.933C135.793 206.605 134.64 207.913 133.278 207.187C133.021 207.051 132.471 207.389 132.093 207.583C131.815 207.726 131.564 207.836 131.264 207.714C130.529 207.42 129.895 207.737 129.257 208.038C129.169 208.08 129.006 208.144 128.986 208.118C128.381 207.329 127.897 208.097 127.342 208.197C126.519 208.344 125.683 208.003 124.822 208.225C123.213 208.636 121.513 208.67 119.892 208.68C118.979 208.683 118.011 208.879 117.007 208.706C115.877 208.514 114.608 209.066 113.351 208.958C112.305 208.865 111.231 208.949 110.193 208.937C109.056 208.923 107.882 208.91 106.723 208.94C106.258 208.953 105.791 208.868 105.338 208.854C103.227 208.791 101.124 208.528 99.0145 208.39C98.3485 208.345 97.6884 207.942 97.144 208.003C96.3616 208.091 95.6524 207.945 94.9323 207.81C94.3012 207.695 93.515 208.07 93.0513 207.207C92.9111 206.943 92.4726 207.43 92.1697 207.374C91.0715 207.174 89.9767 206.94 88.8882 206.692C87.3803 206.349 85.9278 205.792 84.4554 205.352C83.2911 205.005 82.0796 204.471 80.9547 203.854C79.8343 203.241 78.7392 202.575 77.6011 201.981C76.4016 201.359 75.4088 200.349 74.2912 199.555C73.6575 199.107 73.1503 198.455 72.3447 198.266C72.277 198.251 72.1921 198.201 72.1634 198.144C71.0088 195.717 68.4076 194.292 67.6005 191.688C67.3578 190.908 66.6192 190.673 66.4735 189.97C66.3139 189.198 65.7671 188.413 65.797 187.763C65.8397 186.802 65.9157 185.701 65.5795 184.984C64.9329 183.616 65.3764 182.335 65.3455 181.031C65.3252 180.117 65.9985 179.267 65.7607 178.294C66.9854 177.489 66.3823 175.909 67.1743 174.915C67.3336 174.711 67.3069 174.382 67.7511 174.537C67.9708 174.612 68.2064 174.368 68.1849 174.047C68.128 173.248 68.5986 172.729 69.0076 172.094C69.5513 171.255 70.4475 170.703 70.811 169.779C71.0549 169.164 71.69 169.25 72.0516 168.828C72.8563 167.894 73.7476 167.022 74.6757 166.206C76.271 164.813 78.1507 163.775 80.0161 162.895C81.6361 162.132 83.3427 161.403 85.1431 160.927C86.983 160.441 88.7712 159.794 90.6669 159.47C91.135 159.39 91.6198 158.798 92.1799 158.961C92.5729 159.073 93.1193 157.938 93.3273 159.105C93.3899 159.084 93.4799 159.083 93.5057 159.034C94.2482 157.838 95.5928 158.415 96.5284 158.31C97.3555 158.22 98.1316 157.459 99.0706 157.921C99.357 158.061 99.8548 157.874 100.216 157.736C101.767 157.148 103.435 157.35 104.996 157.295C106.578 157.237 108.136 157.018 109.708 156.949C110.506 156.913 111.306 157.206 112.143 157.131C113.106 157.043 114.089 157.009 115.05 157.085C116.02 157.16 117.019 156.47 118.021 157.257C118.141 157.351 119.247 157.809 119.911 157.151C120.03 157.035 120.958 157.309 121.526 157.351C121.865 157.377 122.158 157.36 122.669 157.151C121.219 156.758 119.956 156.494 118.728 156.102C117.934 155.85 117.209 155.135 116.233 155.616C115.942 155.761 116 155.218 115.684 155.073C115.065 154.788 114.381 154.561 113.798 154.661C112.717 154.84 112.074 153.64 111.029 153.954C110.531 152.734 108.751 153.902 108.31 152.505C108.288 152.438 107.762 152.629 107.46 152.664C106.401 152.795 105.476 152.261 104.654 151.872C103.274 151.222 101.817 151.028 100.404 150.605C100.203 150.547 100.137 150.429 100.015 150.294C99.8142 150.064 99.3848 149.698 99.2799 149.766C98.3659 150.337 97.694 149.536 96.994 149.312C96.1217 149.029 95.1605 148.727 94.3452 148.584C93.1897 148.384 92.4171 147.281 91.1357 147.517C90.2536 147.681 89.7621 146.509 88.8608 146.51C87.3371 146.514 86.1677 145.472 84.7831 145.16C83.9448 144.972 83.0928 144.831 82.3272 144.463C80.9239 143.792 79.2036 143.882 78.0167 142.632C77.9059 142.517 77.3693 142.347 77.0595 142.3C74.0651 141.849 71.4644 140.312 68.6623 139.343C65.7954 138.351 63.0178 137.181 60.2734 135.9C58.9867 135.298 57.6312 134.818 56.407 134.109C54.4543 132.977 52.5165 131.72 50.509 130.806C48.7207 129.993 47.6351 128.391 45.9881 127.706C45.2346 127.394 44.6891 126.818 44.1151 126.443C43.3195 125.924 42.3638 125.287 41.873 124.263C41.6811 123.867 41.1112 123.636 40.6819 123.385C40.1952 123.105 39.5514 123.016 39.588 122.241C39.6016 121.964 39.3623 121.895 39.1918 121.763C37.8439 120.734 36.9759 119.365 36.3785 117.797C36.221 117.383 35.7968 117.169 35.5367 116.811C35.2518 116.424 34.99 116.169 35.4021 115.785C35.7598 115.45 35.3325 115.528 35.2572 115.403C35.09 115.122 34.7896 114.684 34.883 114.535C35.2331 114.003 35.0751 113.701 34.6073 113.439C34.4558 113.354 34.3443 113.176 34.4303 113.09C35.2115 112.307 34.4388 111.632 34.3074 110.915C34.2734 110.734 34.2049 110.543 34.2289 110.366C34.3743 109.321 34.262 108.107 34.7655 107.274C35.4352 106.17 35.5332 104.766 36.7016 103.854C37.0444 103.587 37.7208 102.902 37.774 102.071C37.8035 101.619 38.4454 101.58 38.8721 101.47C39.2633 101.369 39.721 101.303 39.3533 100.71C39.231 100.513 39.3374 100.255 39.5165 100.361C40.1066 100.705 39.9542 100.27 39.9631 99.989C39.9721 99.7368 40.1056 99.6107 40.323 99.4973C42.0283 98.6155 43.3655 97.1652 45.1334 96.3773C45.2298 96.3347 45.31 96.2369 45.4081 96.2064C47.482 95.5803 49.4599 94.7418 51.4147 93.7996C52.4423 93.3069 53.6418 93.1558 54.7746 92.9113C56.0393 92.6439 57.38 92.5918 58.5044 91.9166C59.0135 91.6092 59.3128 92.0971 59.8227 91.9377C62.4254 91.1413 65.1035 90.7291 67.8312 90.606C69.6595 90.5253 71.4944 90.1762 73.3107 90.27C74.8546 90.3493 76.427 90.371 77.9473 90.3714C78.8571 90.3728 79.8496 90.4076 80.7618 90.4539C81.604 90.4979 82.4336 90.5395 83.2745 90.4603C83.4971 90.4408 83.5804 90.5646 83.6615 90.7587C83.8339 91.1618 84.1753 91.2281 84.3999 90.8792C84.5975 90.5712 84.8536 90.156 84.4678 89.7793C84.3535 89.6681 84.1165 89.5293 84.1851 89.9226C84.1966 90.0033 84.4276 90.4433 84.1296 90.1651C83.1685 89.2619 81.8773 89.4303 80.7835 88.9739C79.6805 88.5106 78.5316 88.0991 77.4046 87.6681C76.0566 87.1535 74.7697 86.3792 73.451 85.955C72.3556 85.6017 71.4385 84.577 70.1486 84.8398C69.5951 84.952 69.4069 84.3248 68.8836 84.2187C68.4109 84.1218 67.5363 83.8521 67.4823 83.7035C67.1194 82.6859 66.0848 83.6732 65.5483 82.9026C65.2083 82.4164 64.1911 82.3523 63.5518 82.0653C62.8642 81.7565 61.8208 81.8524 61.4413 80.8906C61.3902 80.7621 61.0556 80.629 60.9065 80.675C59.8443 81.0122 59.0234 80.3152 58.4016 79.7789C57.6725 79.151 56.8366 79.1514 56.0654 78.9162C55.701 78.8038 55.2861 78.6246 55.0496 78.461C53.385 77.3089 51.347 77.0411 49.624 76.0536C48.4629 75.3848 47.0435 75.2013 46.0994 74.1023C45.9323 73.9081 45.5043 73.8954 45.1945 73.878C44.9346 73.8658 44.7155 73.9096 44.5334 73.6394C44.0297 72.897 43.058 73.0073 42.4168 72.5355C40.7492 71.3056 38.7099 70.8858 36.9284 69.9191C36.6885 69.7888 36.1653 69.7979 36.5516 69.2901C36.6169 69.2026 36.5761 69.1179 36.548 69.1507C35.7995 70.019 35.5637 68.6293 34.8478 68.7524C34.3201 68.8444 33.634 68.2021 33.0635 67.823C32.1623 67.2239 31.1877 66.6846 30.2551 66.2381C28.9449 65.6152 27.7464 64.8283 26.498 64.1225C24.1224 62.7842 21.7737 61.4049 19.562 59.7798C18.7376 59.1738 17.7598 58.8407 17.2656 57.8212C17.173 57.6329 16.6556 57.6823 16.3704 57.5504C14.7439 56.7794 13.7656 55.1834 12.3392 54.2357C11.3157 53.5554 10.4603 52.7317 9.54 51.9707C8.4102 51.034 7.22421 50.1342 6.48876 48.8038C6.16931 48.2324 5.45776 48.0134 5.13261 47.4881C4.534 46.5124 3.9491 45.4607 3.24908 44.6353C2.47038 43.7183 2.59678 42.5977 2.0132 41.7557C1.43306 40.909 2.22203 39.7511 1.2519 39.0425C1.18819 38.9982 1.66222 38.5313 1.66346 37.9675C1.66408 36.6839 1.87177 35.3582 3.19854 34.5224C3.72088 34.1926 3.84873 33.4256 4.39097 32.8913C5.24962 32.0484 6.3295 31.6347 7.22727 30.922C7.56952 30.6508 8.23177 30.2392 8.65232 30.286C10.0964 30.4413 10.8949 29.064 12.1959 28.9641C12.4151 28.9492 12.6648 28.4321 12.7714 29.0627C12.7772 29.1031 12.8908 29.1238 12.9528 29.1561C13.4069 28.1778 14.3522 28.6842 15.057 28.4846C15.7424 28.2918 16.353 27.8918 17.1873 28.0521C17.554 28.123 18.1771 28.3259 18.7115 27.9079C19.017 27.6667 19.5766 27.2822 20.1954 27.7695C20.3384 27.8807 21.1263 27.5169 21.6868 27.5683C22.019 27.599 22.4062 27.4983 22.7333 27.6078C23.7438 27.9403 24.7216 27.6152 25.6502 27.3753C26.2427 27.2205 26.7546 27.4764 27.3179 27.4327C28.1692 27.3685 29.164 27.3906 29.9501 27.5578C31.2222 27.8282 32.4094 27.4484 33.6165 27.6088C34.1759 27.681 34.4305 28.1711 34.7412 28.5668C34.7195 28.6728 34.6943 28.7833 34.6726 28.8893L34.6772 28.8927ZM106.496 96.104C106.57 96.3033 106.175 96.6971 106.833 96.6852C107.074 96.6795 107.454 96.6704 107.8 96.7977C108.652 97.1118 109.46 97.5474 110.329 97.8015C111.021 98.0027 111.753 98.0749 112.466 98.2236C113.105 98.3586 113.571 99.3532 114.381 98.6036C114.443 98.6935 114.487 98.8271 114.57 98.8646C115.36 99.2122 115.938 99.2254 116.305 98.9042C114.391 97.8124 112.246 97.2843 110.236 96.4407C109.539 96.1497 108.74 96.5809 108.137 96.116C107.69 95.7686 107.248 95.7207 106.742 95.7603C105.818 95.5758 105.041 94.8437 104.023 95.0265C104.095 94.5883 103.808 94.6418 103.621 94.7961C103.455 94.9268 103.433 95.2878 103.636 95.3576C104.567 95.6809 105.392 96.4597 106.497 96.1081L106.496 96.104Z" fill="black"/>
<path d="M109.901 53.2846C110.596 52.0414 110.876 51.9396 111.86 52.7985C112.459 53.3215 113.232 53.4 113.867 53.7947C114.411 54.1323 115.132 54.3334 115.078 55.2174C115.064 55.4869 115.298 55.6096 115.534 55.51C116.533 55.0749 116.867 56.031 117.417 56.4665C117.551 56.5748 117.61 56.7309 117.849 56.7706C118.985 56.9742 118.979 56.9875 119.51 58.1825C119.541 58.2563 119.691 58.3294 119.779 58.3168C121.084 58.1875 121.862 59.2076 122.828 59.7768C123.889 60.4025 124.867 61.1675 125.882 61.8738C126.32 61.1282 126.314 60.5448 125.335 60.3436C124.571 60.1896 124.539 59.3632 124.397 58.9434C124.03 57.8687 123.05 57.3795 122.533 56.458C121.815 55.1869 120.696 54.154 120.199 52.7194C119.759 51.4455 118.497 50.7581 117.944 49.5619C117.903 49.4732 117.818 49.3989 117.769 49.3114C117.477 48.7895 117.917 48.0272 116.938 47.6572C116.366 47.4388 116.083 46.4056 115.732 45.7606C115.477 45.2952 115.262 44.6513 114.962 44.1594C113.87 42.3659 113.196 40.3767 112.207 38.5353C111.503 37.2251 110.615 35.8917 110.388 34.4761C110.189 33.2293 109.134 32.3313 109.301 31.0321C109.325 30.8559 109.314 30.6066 109.208 30.4983C108.405 29.6671 109.366 29.9161 109.674 29.8062C109.276 29.0241 108.03 28.7128 108.624 27.5047C108.763 27.2214 108.198 27.1954 108.155 26.893C108.279 26.6449 109.65 26.9712 108.464 26.1001C107.868 25.6629 107.714 24.8169 108.502 24.194C108.617 24.194 108.732 24.1941 108.842 24.1947C108.908 24.4239 110.022 24.3919 109.014 24.9065C108.899 24.9641 108.858 25.332 108.917 25.5169C109.011 25.8285 109.227 25.6247 109.433 25.5706C109.815 25.4665 110.036 25.7516 110.129 26.0551C110.208 26.3235 110.219 26.5976 109.794 26.7201C109.156 26.9019 110.138 27.7528 108.985 27.9097C109.799 27.9865 110.493 28.8004 110.297 29.0877C110.158 29.2926 110.137 29.4602 110.314 29.5213C110.774 29.6735 110.803 29.7351 110.369 30.0235C110.051 30.2336 109.974 30.582 110.592 30.4934C110.845 30.4572 110.823 30.7031 110.737 30.7607C110.062 31.1947 110.631 31.1667 110.899 31.1736C111.219 31.1772 111.182 31.4622 111.112 31.5215C110.432 32.092 110.807 32.277 111.391 32.4977C111.582 32.5691 111.508 32.7361 111.255 32.8299C110.877 32.9703 110.728 33.2715 111.009 33.6632C111.102 33.7939 111.176 33.9149 111.255 33.6609C111.294 33.5319 111.284 33.3194 111.364 33.2791C112.045 32.943 111.565 34.1142 112.164 33.9134C111.909 34.3942 112.893 34.8292 112.19 35.3577C111.835 35.6265 112.251 35.5258 112.348 35.5696C112.853 35.7811 113.183 36.3139 112.932 36.6789C112.26 37.6514 112.927 37.5312 113.729 37.5234C112.572 38.2855 113.69 38.5369 113.856 39.0109C114.218 40.0452 115.234 40.702 115.408 41.8947C115.454 42.2131 116.202 42.6573 116.291 43.1342C116.393 43.6749 115.983 44.2519 116.962 44.4491C117.367 44.5309 117.242 45.1989 116.769 45.39C116.657 45.8627 117.741 44.9382 117.238 45.9153C117.113 46.1594 117.788 45.779 117.993 46.2391C118.321 46.9861 119.011 47.595 118.747 48.5255C118.719 48.62 118.603 48.7558 118.742 48.7484C119.979 48.6946 119.562 49.3302 119.067 50.0511C119.902 49.8411 120.307 50.0094 120.56 50.7466C120.798 51.4365 121.541 51.8773 121.826 52.6058C121.864 52.6991 122.079 52.8575 122.021 52.9358C121.387 53.7753 121.848 53.7052 122.527 53.6368C123.048 53.5828 122.422 54.4787 123.267 54.5676C123.991 54.645 123.427 55.2852 123.114 55.5892C123.453 55.9849 123.737 55.4505 124.124 55.6626C123.686 56.3218 123.871 56.7025 124.664 56.7453C124.763 56.7517 124.949 56.8773 124.946 56.8819C124.551 57.7859 125.624 57.6693 125.856 58.175C126.143 58.8004 126.636 59.3551 127.126 59.8568C127.683 60.4311 126.603 60.3842 126.853 60.8133C127.143 60.9527 128.075 60.0172 127.771 61.3566C127.727 61.5397 128.419 61.8768 128.751 62.1665C129.172 62.534 129.743 62.7979 129.191 63.5763C128.867 64.0341 129.433 64.1794 129.788 64.1697C129.967 64.1645 130.116 63.9417 130.374 64.0857C130.868 64.3605 130.488 65.427 131.517 65.3167C131.626 65.3011 132.679 66.2447 132.276 67.1539C132.599 67.2064 132.726 67.6326 132.863 67.6746C134.2 68.1167 134.865 69.3216 135.831 70.1787C136 70.3273 136.411 70.5359 136.035 70.7132C135.824 70.8133 135.56 71.0281 135.326 71.1109C134.394 71.4418 134.074 70.9856 133.661 70.3866C133.267 69.8095 132.623 69.4943 132.133 68.9886C131.109 67.9299 129.897 67.0502 128.729 66.1354C128.333 65.8261 127.815 65.6739 127.801 65.0341C127.796 64.8826 127.636 64.6505 127.498 64.6044C125.219 63.8529 123.629 62.1059 121.854 60.6404C121.431 60.2896 120.938 60.142 120.509 59.9484C119.357 59.4304 118.46 58.5716 117.402 57.9373C116.183 57.2067 114.855 56.5741 113.886 55.5321C113.382 54.9912 112.724 55.0895 112.26 54.7076C111.545 54.1229 110.697 53.7795 109.937 53.2754L109.925 53.2771L109.901 53.2846Z" fill="black"/>
<path d="M34.6772 28.8929C34.6989 28.787 34.7241 28.6764 34.7458 28.5704C35.2088 27.9981 35.7289 27.7098 36.5191 27.9628C37.0728 28.1386 37.6936 28.2389 38.2678 28.1855C39.4162 28.0787 40.7483 28.0813 41.596 28.5071C42.7663 29.0966 43.8309 28.29 44.7578 28.7538C46.2196 29.4908 47.9131 28.8986 49.2757 29.658C50.0723 30.0993 50.7735 29.6163 51.5356 29.8734C52.8325 30.3171 54.2753 30.378 55.5481 30.7964C57.0877 31.3041 58.7084 31.3477 60.1941 31.9084C61.2942 32.3228 62.4646 32.3691 63.5853 32.7846C64.3859 33.0814 65.3163 33.6558 66.409 33.5035C67.1318 33.4 67.9571 33.8413 68.7135 34.2308C69.5188 34.6462 70.5015 34.7277 71.4178 34.8886C71.7414 34.9451 72.003 34.8542 71.8473 35.3413C71.7936 35.5095 71.9687 35.7312 72.1798 35.6599C73.3079 35.2968 74.1801 35.5792 75.2013 36.2434C75.7299 36.5874 76.715 36.7425 77.5217 36.8245C78.2205 36.8972 78.5534 37.1046 78.0476 37.9217C78.7201 37.4099 79.2753 37.3386 79.9686 37.6878C80.9133 38.1614 81.9599 38.4312 82.9212 38.8777C83.7861 39.2805 84.644 39.5773 85.5952 39.6962C85.8121 39.7227 86.6026 39.7206 86.3474 40.4565C86.7111 40.3921 86.9929 40.5286 87.3321 40.694C88.0506 41.0478 88.9072 41.135 89.5948 41.5302C90.4293 42.0072 91.4997 41.8992 92.1864 42.5455C92.811 43.1308 93.4692 43.3492 94.2753 43.3984C94.569 43.418 95.047 43.5512 95.0152 43.9301C94.976 44.3718 95.116 44.3188 95.4125 44.2723C95.8743 44.2062 96.277 44.2719 96.3756 44.8461C96.4523 45.2959 96.8422 45.0426 97.0746 45.1492C98.3326 45.7219 99.5392 46.5941 100.853 46.8133C102.096 47.022 102.726 48.3634 104.037 48.1881C104.141 48.1732 104.332 48.187 104.347 48.2343C104.727 49.4017 106.23 49.0836 106.683 49.9279C106.968 50.4549 107.221 50.4763 107.556 50.3543C107.976 50.1995 108.094 50.7956 108.462 50.6194C108.555 51.2068 109.048 51.1649 109.459 51.3159C109.879 51.4698 110.571 51.5805 109.936 52.3296C109.74 52.5633 110.134 52.9637 109.896 53.2815C109.896 53.2815 109.908 53.2798 109.904 53.2803C109.699 53.2192 109.452 53.2094 109.295 53.0878C107.971 52.0555 106.432 51.4079 105.004 50.5633C103.782 49.8414 103.837 49.7677 102.3 49.2801C101.545 49.0386 100.884 48.4585 100.233 48.0374C99.1722 47.3501 98.0278 46.8269 96.9276 46.3262C94.9901 45.4435 93.0389 44.5792 91.0665 43.7672C88.9368 42.8873 86.8655 41.8715 84.745 40.9698C83.3493 40.3797 81.7854 40.3321 80.545 39.5676C79.4843 38.9131 78.2938 38.7544 77.208 38.2393C76.6978 37.9956 76.0013 38.0254 75.377 37.7569C74.5517 37.4019 73.7293 37.0095 72.7774 36.8578C71.8761 36.7154 70.8874 36.536 70.0661 36.0077C68.6271 35.0865 66.8054 35.4707 65.3573 34.629C64.3701 34.0587 63.1853 33.8827 62.1898 33.7414C60.705 33.5302 59.3631 32.8584 57.8497 32.7336C56.2736 32.6013 54.6871 32.1661 53.176 31.572C52.4335 31.2793 51.6456 31.6718 50.8278 31.3117C49.8791 30.8963 48.6665 31.0123 47.7392 30.7748C46.3397 30.4156 44.9233 30.5114 43.5554 30.1437C42.7624 29.9281 41.922 30.0114 41.1975 29.4158C40.845 29.1289 40.189 29.412 39.6939 29.4459C38.0384 29.5595 36.4232 29.1819 34.7876 29.1486C34.7463 29.1463 34.71 28.9787 34.6686 28.89L34.6772 28.8929Z" fill="black"/>
<path d="M108.835 24.1998C108.72 24.1997 108.605 24.1997 108.495 24.1991C108.444 23.9883 108.416 23.766 108.335 23.5679C107.916 22.5871 108.076 22.2226 109.13 22.0553C108.753 21.4551 108.376 20.8222 109.396 20.5074C109.777 20.3912 109.415 20.2702 109.377 20.1481C109.24 19.7317 109.503 19.4761 109.649 19.126C110.242 17.6836 111.781 17.673 112.747 16.8394C112.999 16.6224 113.87 16.1809 114.475 16.8018C114.917 17.2569 115.145 16.3275 115.777 16.5949C116.248 16.7908 116.703 16.7379 116.726 17.323C117.045 17.4665 117.069 16.233 117.506 17.2483C117.532 17.3146 118.246 17.0971 118.627 17.24C118.912 17.3431 119.308 17.3029 119.376 17.7786C119.414 18.0407 119.384 18.2053 119.169 18.3349C118.872 18.5214 118.542 18.5645 118.232 18.4279C116.138 17.51 115.383 17.5893 112.767 18.1777C112.191 18.3054 112.01 18.8455 111.79 18.7948C110.983 18.5977 110.617 19.5057 110.627 19.6278C110.672 20.4029 109.835 20.8847 110.107 21.7837C110.292 22.3827 109.364 22.6554 109.091 23.184C109.401 23.2013 109.618 23.5487 109.796 23.9841C109.47 24.0554 109.152 24.1256 108.83 24.1963L108.835 24.1998Z" fill="black"/>
<path d="M146.508 36.9981C146.669 37.2631 147.486 36.7594 147.055 37.5534C146.844 37.9374 147.132 38.036 147.342 38.2445C148.081 38.9657 148.91 39.5752 149.829 40.0154C150.203 40.1963 150.375 40.3363 150.227 40.7031C150.033 41.1833 150.052 41.4315 150.655 41.2301C150.745 41.2008 150.89 41.0442 150.91 41.1853C151.116 42.7644 152.901 42.842 153.567 43.9974C153.664 44.1644 153.679 44.2692 153.689 44.4241C153.718 44.8232 153.193 44.3675 153.173 44.7655C153.17 44.8357 152.741 44.7533 152.774 44.588C152.955 43.7887 152.131 43.7874 151.821 43.5397C151.362 43.1693 150.243 43.5064 150.788 42.2765C150.815 42.2109 150.624 42.1026 150.483 42.0323C149.924 41.7666 149.138 41.797 149.304 40.6954C149.38 40.199 148.413 39.7945 147.966 39.7391C146.777 39.5885 146.815 38.1966 145.857 37.9182C145.972 37.5439 146.16 37.2289 146.509 37.0021L146.508 36.9981Z" fill="black"/>
<path d="M160.225 51.4943C159.974 51.9169 159.859 52.2624 159.763 52.3874C159.378 52.9032 158.573 52.4631 158.563 52.193C158.535 51.4236 157.461 51.2483 157.723 50.3632C157.902 49.7494 157.028 50.545 156.964 49.9C156.933 49.5631 156.908 49.1306 156.599 48.8086C156.348 48.5443 156.512 47.6241 155.757 48.3616C155.685 48.4335 155.676 48.4842 155.615 48.3736C155.582 48.3126 155.555 48.2383 155.553 48.1686C155.527 47.728 155.472 47.4602 154.915 47.7745C154.584 47.9576 154.803 47.5683 154.758 47.4554C154.5 46.7931 154.411 46.0324 153.652 45.6844C153.284 45.515 153.533 45.109 153.608 45.0612C153.906 44.8788 154.196 45.0142 154.487 45.2152C155.322 45.7827 155.733 46.5919 155.919 47.5485C155.938 47.6527 155.929 47.761 155.932 47.8675C157.184 47.1987 157.136 48.7236 157.824 49.0612C158.278 49.2842 158.543 50.0484 158.731 50.622C158.965 51.3373 158.711 52.538 160.233 51.4931L160.225 51.4943Z" fill="black"/>
<path d="M125.725 20.5641C125.257 20.4995 125.231 21.6674 124.349 21.1149C124.052 20.9271 123.966 20.9558 124.027 20.5562C124.116 20.0045 123.927 19.9699 123.406 20.2214C123.141 20.3498 122.715 20.489 122.553 20.1337C122.151 19.241 120.599 19.7059 120.594 18.4148C120.594 18.2668 120.567 17.9662 120.83 18.0025C121.177 18.0516 121.808 18.2204 121.803 18.2993C121.751 18.9691 122.458 19.0982 122.665 19.1386C123.821 19.3762 124.97 19.5533 125.725 20.5641Z" fill="black"/>
<path d="M167.399 62.0475C167.428 62.825 167.32 63.5563 168.278 63.0693C168.328 63.0417 168.655 63.3568 168.631 63.4138C168.291 64.1906 168.831 64.6399 169.224 65.1554C169.265 65.2072 169.204 65.3598 169.16 65.4485C169.032 65.7013 168.958 65.4116 168.851 65.4064C168.349 65.3919 168.065 65.0457 167.921 64.6385C167.474 63.3738 166.74 62.3434 165.729 61.4637C165.505 61.2696 165.559 60.7024 165.564 60.3108C165.572 59.8489 165.985 60.0161 166.238 59.9839C166.83 59.9115 166.805 60.4459 166.798 60.747C166.788 61.3615 167.643 61.6093 167.399 62.0516L167.399 62.0475Z" fill="black"/>
<path d="M177.197 79.1985C177.662 80.2139 178.584 80.9046 178.834 82.1071C178.967 82.7463 179.322 83.4812 179.68 84.1211C179.834 84.3993 179.976 84.6176 179.578 84.8104C179.202 84.9917 179.189 84.6687 179.04 84.4884C178.42 83.7379 178.172 82.8066 177.925 81.9122C177.761 81.3104 177.708 80.738 177.164 80.318C176.81 80.0438 177.149 79.6126 177.193 79.2031L177.197 79.1985Z" fill="black"/>
<path d="M132.413 25.7778C131.96 25.1597 130.834 25.1687 130.853 24.1004C130.855 24.0549 130.677 23.957 130.61 23.9789C130.535 23.9978 130.436 24.1314 130.443 24.2086C130.46 24.4159 130.526 24.6204 130.572 24.8236C130.47 24.83 130.301 24.8789 130.278 24.8368C129.896 24.2004 128.961 24.3343 128.668 23.6893C128.596 23.5349 129.06 23.1354 129.281 22.8527C129.299 22.8296 129.375 22.8228 129.382 22.8383C130.263 24.0738 132.108 23.9948 132.856 25.4099C132.71 25.5337 132.563 25.6574 132.417 25.7812L132.413 25.7778Z" fill="black"/>
<path d="M143.769 35.7778C144.171 35.6092 144.373 34.7368 144.966 35.3554C145.265 35.6705 145.534 36.031 145.732 36.4141C145.795 36.5367 145.905 36.994 145.475 36.9611C145.292 36.946 144.829 37.2344 144.922 36.6534C144.981 36.2912 144.652 36.3671 144.5 36.3394C143.44 36.1416 143.049 35.5023 143.191 34.4658C143.216 34.2936 143.186 33.9976 143.256 33.9711C143.595 33.8526 143.738 34.1077 143.883 34.375C144.149 34.8553 143.519 35.2335 143.768 35.7737L143.769 35.7778Z" fill="black"/>
<path d="M163.566 58.4288C163.353 58.0026 162.226 58.0035 163.016 57.1663C162.013 57.1701 162.217 56.2194 161.876 55.7005C161.802 55.5876 161.406 55.5909 161.613 55.5201C162.015 55.3843 162.389 54.8782 162.897 55.221C163.07 55.3362 163.071 55.5459 162.946 55.7036C162.818 55.866 162.551 55.9782 162.518 56.1475C162.466 56.3894 162.432 56.8345 162.936 56.61C163.961 56.1548 164.187 56.3898 163.738 57.4291C163.634 57.6744 163.911 58.0626 163.566 58.4288Z" fill="black"/>
<path d="M169.414 67.3132C169.503 67.103 169.479 67.0201 169.272 66.8933C168.767 66.5707 168.537 66.2499 169.398 66.0278C169.703 65.9513 169.865 65.2206 170.323 65.6198C170.819 66.0507 169.621 65.8396 169.958 66.3591C170.037 66.4835 169.658 66.7558 169.876 66.9344C170.113 67.1268 170.209 66.9402 170.296 66.6851C170.359 66.4951 170.53 66.4335 170.598 66.7652C170.623 66.881 171.032 66.9376 171.038 67.0355C171.056 67.3004 170.857 67.23 170.661 67.1799C170.483 67.1355 170.196 67.3082 170.331 67.4453C171.04 68.1912 169.876 67.6749 169.99 67.9877C169.599 67.9162 169.299 67.7698 169.418 67.3086L169.414 67.3132Z" fill="black"/>
<path d="M132.413 25.7773L132.851 25.406C132.999 25.4671 133.519 25.1787 133.204 25.6641C132.888 26.1494 132.968 26.4259 133.332 26.7894C133.901 27.3579 133.959 26.5885 134.261 26.4671C134.389 26.4159 134.528 26.3877 134.863 26.2905C134.229 27.0148 134.113 27.5537 134.998 27.896C135.141 27.9496 135.201 28.1097 135.083 28.2583C135.023 28.3285 134.971 28.4512 134.829 28.344C133.989 27.7155 133.066 27.1895 132.351 26.4073C132.259 26.3053 132.386 25.995 132.413 25.7813L132.413 25.7773Z" fill="black"/>
<path d="M126.51 22.1017C127.268 21.2651 128.009 21.9777 128.725 22.1754C129.088 22.2757 128.97 22.6505 128.704 22.8532C128.136 23.2924 126.891 22.8412 126.532 22.0781L126.51 22.1017Z" fill="black"/>
<path d="M174.018 74.0793C173.754 73.3271 173.109 72.716 173.987 71.9774C174.088 72.8228 175.131 73.525 174.123 74.3892C173.835 74.6361 174.862 75.1144 173.986 75.1164C173.654 75.1187 173.439 74.7339 173.431 74.3032C173.422 73.926 173.43 73.896 174.018 74.0793Z" fill="black"/>
<path d="M176.915 77.5729C176.466 77.6989 176.651 78.1332 176.385 78.3686C176.294 78.4475 175.947 78.3985 176.17 78.6957C176.332 78.9111 176.587 79.1173 176.322 79.4144C176.174 79.5797 176.008 79.4264 175.993 79.3216C175.941 78.9836 175.369 78.7404 175.773 78.3288C175.906 78.1946 176.079 78.0916 175.942 77.9015C175.905 77.8491 175.605 77.9826 175.574 77.9377C175.354 77.6031 175.679 77.3549 175.739 77.0584C175.82 76.6518 176.078 76.7671 176.313 76.7787C176.797 76.8041 176.532 77.3315 176.919 77.5764L176.915 77.5729Z" fill="black"/>
<path d="M137.914 29.3137C138.86 28.9644 138.579 30.5515 139.472 30.1808C139.422 30.3484 139.423 30.5828 139.312 30.6685C139.109 30.8211 138.577 30.7657 139.126 31.1972C139.218 31.2663 139.068 31.4482 138.916 31.5069C138.672 31.6036 138.459 31.4613 138.318 31.3334C137.927 30.982 138.491 31.0824 138.484 31.0628C138.312 30.495 138.117 29.9346 137.906 29.3149L137.914 29.3137Z" fill="black"/>
<path d="M141.203 32.3645C142.521 32.6447 142.815 33.6065 142.764 34.8025C142.44 33.9646 141.652 33.5877 141.072 33.0002C141.116 32.7883 141.155 32.577 141.199 32.365L141.203 32.3645Z" fill="black"/>
<path d="M137.016 29.4836C136.722 29.4639 136.345 29.8594 136.149 29.435C135.95 28.9944 135.866 28.4922 135.792 28.005C135.766 27.8236 135.992 27.7666 136.182 27.7229C136.495 27.6493 136.519 27.9257 136.66 28.0536C136.956 28.3197 136.587 28.7757 136.921 29.0447C136.949 29.1887 136.983 29.3361 137.012 29.4841L137.016 29.4836Z" fill="black"/>
<path d="M141.202 32.3646C141.159 32.5765 141.12 32.7878 141.076 32.9997C140.085 33.4297 140.411 32.3586 140.046 32.0694C139.732 31.8223 139.922 31.6675 140.213 31.5477C140.433 31.4585 140.59 31.177 140.881 31.3492C141.118 31.4921 141.092 31.7058 141.008 31.9234C140.928 32.1365 141.016 32.2678 141.202 32.3646Z" fill="black"/>
<path d="M165.349 58.5773C165.52 58.9188 165.66 59.3225 165.145 59.4168C164.55 59.5267 164.48 59.0389 164.403 58.5851C164.351 58.2799 164.259 57.9516 164.698 57.9793C165.003 57.9973 165.624 57.8425 165.349 58.5773Z" fill="black"/>
<path d="M160.507 54.5556C160.965 54.2021 161.225 53.7823 161.365 53.2151C161.242 53.9361 162.55 53.823 162.102 54.6153C161.569 55.5555 161.104 54.1451 160.512 54.555L160.507 54.5556Z" fill="black"/>
<path d="M183.812 99.7341C183.23 99.4184 182.919 99.0762 183.505 98.5028C183.699 98.3145 183.739 97.9921 183.665 97.6776C183.62 97.4743 183.779 97.3569 184.013 97.4139C184.14 97.4451 184.372 97.4325 184.388 97.4878C184.479 97.7832 184.068 97.7146 184.078 97.7583C184.226 98.4448 183.399 98.9911 183.812 99.7301L183.812 99.7341Z" fill="black"/>
<path d="M172.994 70.1941C173.774 70.8641 172.4 71.4845 173.136 72.0992C172.001 71.5581 171.984 71.2644 172.994 70.1941Z" fill="black"/>
<path d="M171.859 70.4186C171.82 70.1486 171.86 69.8589 171.737 69.6832C171.531 69.3918 171.713 69.1189 171.654 68.8476C171.861 68.888 172.243 68.9238 172.246 68.9727C172.259 69.3246 172.881 69.6017 172.407 69.9863C172.242 70.121 172.239 70.4136 171.863 70.4181L171.859 70.4186Z" fill="black"/>
<path d="M181.289 88.0626C181.087 88.2848 180.779 88.5635 180.722 89.0282C180.695 89.2378 180.114 89.0989 180.207 89.0033C180.582 88.6204 180.173 88.1688 180.426 87.8199C180.594 87.5862 180.812 87.6824 181.021 87.6773C181.208 87.671 181.286 87.7585 181.285 88.0632L181.289 88.0626Z" fill="black"/>
<path d="M126.532 22.0783C126.114 22.0269 125.689 22.0302 125.728 21.391C125.748 21.0386 125.856 20.8503 126.189 20.7986C126.682 20.7279 126.577 21.105 126.581 21.3676C126.584 21.6141 126.537 21.8554 126.506 22.1024L126.528 22.0788L126.532 22.0783Z" fill="black"/>
<path d="M137.016 29.4835C136.987 29.3355 136.954 29.1921 136.924 29.0441C137.327 29.2786 137.354 28.6123 137.796 28.7218C137.463 29.3166 137.357 29.9201 137.786 30.5664C136.736 30.0461 136.725 30.0271 137.011 29.4801L137.016 29.4835Z" fill="black"/>
<path d="M183.028 96.5467C183.001 96.8427 182.81 97.0304 182.556 96.9393C182.327 96.8609 182.341 96.6122 182.523 96.4256C182.642 96.6842 182.837 96.6152 183.032 96.5461L183.028 96.5467Z" fill="black"/>
<path d="M182.997 96.5884C183.003 96.5136 183.008 96.4347 183.014 96.3598C183.236 96.4555 183.231 96.5303 182.997 96.5884Z" fill="black"/>
</svg>
