<svg width="138" height="147" viewBox="0 0 138 147" fill="none" xmlns="http://www.w3.org/2000/svg">
<path d="M89.0613 59.6049C89.2111 60.0007 89.2582 60.5417 89.4911 60.6404C91.1361 61.369 91.3719 63.1735 92.4344 64.308C93.3717 65.3037 93.5454 66.8659 95.0221 67.4836C95.4532 67.6596 95.5579 68.5561 95.9086 69.0522C96.4754 69.8547 96.7805 69.5643 97.5656 69.0134C99.1497 67.9082 98.2856 66.1188 99.1408 64.8694C99.4863 64.3599 99.4221 63.5809 99.5877 62.9367C99.9048 61.7106 100.245 60.482 100.593 59.2634C100.714 58.8424 100.861 58.4239 101.056 58.0325C101.365 57.4105 102.965 57.2346 101.642 56.017C101.468 55.86 102.028 54.9428 102.198 54.3626C102.514 53.2637 102.737 52.1336 103.109 51.0627C103.288 50.5424 104.64 46.1233 104.854 45.9519C105.844 45.1696 104.716 43.6017 106.047 42.9371C106.303 42.806 106.165 41.9792 106.308 41.5057C106.775 39.9432 107.295 38.3947 107.98 36.8931C107.521 36.2188 107.428 35.6236 108.435 34.9111C108.787 34.666 108.559 33.7128 108.773 33.1458C109.202 32.0027 109.718 30.895 110.252 29.7979C110.934 28.3916 110.339 26.3677 112.332 25.5912C113.144 25.2791 113.876 24.7642 114.656 24.3356C115.573 25.7523 116.381 26.9408 117.126 28.1735C117.795 29.2856 118.388 30.4361 119.019 31.5718C119.079 31.6729 119.215 31.8445 119.2 31.8568C117.558 33.2887 119.384 33.6292 119.949 34.4588C120.379 35.0986 120.396 36.0097 120.647 36.7832C120.738 37.0599 120.924 37.3498 121.14 37.547C121.711 38.0679 122.38 38.2794 121.858 39.4594C121.557 40.1413 122.402 41.3831 122.811 42.3439C123.437 43.8113 124.116 45.2516 124.809 46.6887C125.669 48.4732 126.581 50.2306 127.436 52.0191C127.642 52.4519 127.596 53.0117 127.822 53.419C128.137 53.9709 128.543 54.7404 129.029 54.8532C129.774 55.0172 130.215 54.4528 130.312 53.5385C130.473 51.9979 130.841 50.4763 131.172 48.9605C131.223 48.7331 131.524 48.488 131.762 48.4053C132.623 48.1023 132.464 47.6466 132.403 46.8314C132.295 45.3571 131.976 43.7315 133.205 42.4208C133.672 41.9271 134.014 41.3946 133.374 40.4944C133.047 40.0369 133.734 38.8538 134.006 37.8419C133.935 37.8263 133.631 37.762 133.015 37.6236C133.476 36.3607 133.915 35.1413 134.272 34.1508C134.006 33.2304 133.729 32.2681 133.456 31.3198C133.928 31.0493 134.357 30.7977 134.471 30.7354C134.548 28.7096 134.607 26.9776 134.69 24.8705C134.978 24.0647 135.427 22.787 135.716 21.9631C134.924 20.9126 134.407 20.2284 133.931 19.5934C134.28 18.9297 136.417 18.8576 134.214 17.723C134.606 17.5361 134.88 17.4067 135.14 17.2805C134.157 16.0032 134.174 15.9047 135.587 15.2295C135.125 15.0461 134.734 14.8873 134.294 14.7105C134.791 14.3423 135.183 14.0463 135.256 13.9939C135.102 12.297 134.973 10.9072 134.832 9.39344C135.022 9.35174 135.328 9.27074 135.309 9.27811C135.336 8.04357 135.319 6.90502 135.415 5.77233C135.466 5.19941 134.896 3.08687 134.541 2.53577C134.4 2.31812 134.502 1.7272 134.703 1.54103C135.223 1.06127 135.865 0.715417 136.676 0.175984C137.959 2.52225 137.371 5.06969 137.822 7.58517C137.455 7.46502 137.22 7.3934 136.99 7.31769C136.982 7.41701 136.96 7.51959 136.98 7.61237C137.163 8.4933 137.451 9.37022 137.52 10.2634C137.586 11.1335 137.588 12.066 137.331 12.8793C136.705 14.8956 138.142 17.0195 137.303 18.7935C136.645 20.1884 137.212 21.2773 137.317 22.4513C137.424 23.6572 136.193 24.8267 137.302 26.0064C136.993 26.2327 136.683 26.468 136.785 26.3909C136.872 27.7905 137.035 28.9243 136.985 30.0431C136.917 31.6149 136.758 33.1876 136.511 34.7338C136.391 35.4824 135.989 36.1822 135.656 37.043C135.659 38.0165 135.794 39.275 135.637 40.493C135.257 43.337 134.743 46.1595 134.269 48.9902C134.208 49.3439 134.111 49.7625 133.878 50.0003C133.447 50.4473 132.767 52.2814 132.986 52.7199C133.496 53.7127 132.95 54.6267 131.699 54.7028C132.622 56.443 130.922 56.7781 130.109 57.2354C129.357 57.6575 128.179 57.3356 127.192 57.3405C127.341 55.9443 124.677 56.0816 125.441 54.1007C125.567 53.7758 124.254 52.4318 124.601 51.2221C124.601 51.2221 124.175 51.1512 124.05 51.0214C123.797 50.7708 123.615 50.4447 123.57 50.0359C122.513 49.293 122.599 48.3034 123.828 47.0671C123.196 46.959 122.727 46.9751 122.361 46.7777C122.074 46.624 121.747 46.2346 121.73 45.9284C121.652 44.8161 121.698 44.8112 120.496 44.619C120.733 44.377 120.901 44.2105 121.064 44.0481C120.138 43.1444 119.947 42.3037 120.464 41.5235C120.205 41.4724 119.892 41.4073 119.579 41.3421C119.747 40.78 119.915 40.2179 120.146 39.4432C119.658 39.5848 119.211 39.7075 118.481 39.9178C118.627 39.2309 118.745 38.6778 118.869 38.1024C118.653 38.0144 118.336 37.8943 118.019 37.7652C118.322 37.4428 118.629 37.1254 118.932 36.8121C118.103 36.1038 116.255 36.1433 117.058 34.2478C115.674 33.8387 116.741 31.9812 115.416 31.4637C115.235 31.3971 115.32 30.6182 115.608 30.0988C115.556 30.0076 115.475 29.8319 115.447 29.8385C114.368 30.0895 114.217 27.1196 112.768 28.9784C112.119 29.8102 111.256 31.0407 111.463 31.8511C111.763 33.0293 111.531 33.772 110.957 34.6334C110.636 35.1133 110.393 35.6458 110.03 36.3219C110.473 37.1948 109.86 38.7622 108.828 38.7629C109.719 40.5047 108.783 41.965 108.234 43.5382C107.613 45.314 107.253 47.1819 106.734 48.9989C106.631 49.3714 106.231 49.6576 106.123 50.0343C105.633 51.7765 105.301 53.5698 104.719 55.2718C104.143 56.9425 103.307 58.5211 102.638 60.1607C102.462 60.5947 102.497 61.1209 102.417 61.6002C102.276 62.4514 102.179 63.3156 101.949 64.1404C101.643 65.222 101.302 66.3003 100.833 67.317C100.36 68.3377 99.6678 69.2565 99.1593 70.2649C99.0452 70.4955 99.3018 70.9192 99.3886 71.2501C98.7 71.6189 98.0024 71.9869 97.1997 72.418C96.9264 70.2326 95.7285 70.3818 94.6548 71.2428L92.0432 68.1378C92.0432 68.1378 92.2258 67.959 92.7442 67.4472C91.8924 67.6418 91.4895 67.7367 91.2116 67.8022C90.7764 66.7207 90.6216 65.4877 89.9289 64.7828C88.9423 63.778 87.8556 63.0006 88.2889 61.5168C87.3362 61.2747 86.459 61.0532 85.5776 60.8267C85.436 60.6681 85.2943 60.5096 85.1526 60.351C84.6599 61.5565 84.1229 62.7487 83.6829 63.9771C83.1847 65.364 82.7966 66.7928 82.3025 68.1845C82.2506 68.3207 81.8238 68.3179 81.9905 68.2786C81.7125 69.0763 81.5023 69.5982 81.3495 70.139C80.9432 71.6252 80.6208 73.1419 80.1306 74.5976C79.9881 75.0121 79.386 75.266 78.879 75.6924C79.533 76.371 78.9354 77.2439 78.4086 78.3097C77.672 79.7793 77.3634 81.4609 76.7051 82.974C76.42 83.6346 75.7053 84.101 75.2717 84.5751C75.0444 85.1955 74.8885 85.8315 74.5803 86.3853C74.156 87.1377 73.7637 88.0567 73.0873 88.4994C71.715 89.4012 70.4795 90.4656 68.3974 89.8605C66.2044 89.2225 64.4181 90.9185 62.6804 92.0687C61.5906 92.7918 60.6913 93.8007 59.6366 94.5952C59.2593 94.8789 58.6934 94.9088 58.0131 95.1191C58.015 95.1512 58.1778 95.6118 58.0335 95.7668C56.8319 97.0299 55.6081 98.2864 54.289 99.4296C54.0404 99.6387 53.3475 99.3295 52.7412 99.2419C52.8888 101.07 51.7396 101.911 50.2263 102.645C49.517 102.989 49.2217 104.112 48.5239 104.539C46.099 106.04 45.352 109.101 42.6709 110.455C41.3968 111.098 40.6558 112.79 39.6849 114.01C39.6144 114.095 39.613 114.281 39.533 114.315C37.0303 115.317 36.2323 118.109 33.9571 119.501C32.2837 120.53 31.2464 122.572 29.8806 124.125C29.5654 124.482 29.0352 124.634 28.6557 124.945C28.412 125.15 28.2587 125.472 27.9202 125.95C27.9819 125.974 27.7089 125.867 27.4621 125.772C27.2322 127.943 24.4504 128.069 24.0157 130.076C21.8845 129.967 21.6768 132.312 20.1404 133.108C18.419 134.001 17.0166 135.5 15.493 136.756C13.9304 138.045 12.4341 139.413 10.8224 140.634C9.2978 141.79 7.74319 142.98 6.03104 143.814C4.3335 144.636 3.53682 146.905 0.908931 146.363C0.856501 146.281 0.562655 145.813 0.333652 145.442C0.863975 144.727 1.34895 144.066 1.89462 143.33C2.26399 143.482 2.73868 143.68 3.05539 143.809C4.05626 143.287 4.99035 142.804 5.52173 142.526C7.22753 140.477 9.55963 139.618 10.9903 137.994C12.6162 136.146 14.6306 135.226 16.4072 133.538C16.4072 133.538 16.4044 132.842 16.6435 132.751C19.1267 131.764 20.4051 129.326 22.6157 127.946C24.2091 126.951 25.4683 125.311 27.1232 124.231C27.3438 124.087 27.2034 123.406 27.2501 122.66C27.6041 123.17 27.747 123.369 27.9017 123.593C28.0854 123.119 28.134 122.573 28.4343 122.287C29.9267 120.855 31.6999 119.658 32.9695 118.06C34.2989 116.394 36.109 115.192 37.1674 113.283C37.8482 112.054 39.5859 111.805 39.9502 110.051C40.0946 109.332 41.5567 108.893 42.2048 108.239C42.9872 107.328 43.7522 106.407 44.5511 105.516C45.2901 104.693 46.2822 104.111 46.672 102.941C46.8518 102.403 47.4109 101.95 47.8823 101.57C49.2463 100.49 50.9687 99.6976 51.963 98.3564C52.7488 97.2916 54.4994 97.275 54.6568 95.5522C54.6966 95.1147 55.735 94.5779 56.3908 94.4471C57.1716 94.2869 57.3453 93.8799 57.7433 93.2843C58.4924 92.1661 59.966 91.642 60.5993 90.3267C61.9696 91.0256 62.3034 88.3548 63.8266 89.3543C63.9775 89.4546 64.5498 89.0069 64.8535 88.7346C66.0836 87.6242 67.4188 87.1829 68.9144 87.3976C69.4354 87.4727 69.9849 87.364 70.5093 87.4531C72.052 87.704 71.635 86.0602 72.3994 85.4847C73.2995 84.8033 73.8344 83.6381 74.4688 82.7595C74.4688 82.7595 74.2589 82.8267 73.5508 83.0436C74.5107 81.4536 75.2715 80.1909 75.9268 79.1096C76.1184 79.0999 75.8719 79.1137 75.4297 79.1322C76.2191 78.0222 76.9373 77.0058 77.6645 75.9902C76.7808 75.3815 77.1349 74.5787 78.7269 73.5819C78.3283 73.4543 77.9831 73.3407 77.3099 73.1243C78.1894 72.5865 78.801 72.2152 79.4752 71.7996C79.156 71.5884 78.841 71.3821 78.6472 71.2506C78.7838 70.9084 78.9578 70.6106 79.0243 70.2938C79.1127 69.8744 78.9939 69.3769 79.1813 69.0257C79.6575 68.1371 80.2777 67.3209 80.7975 66.4545C80.9659 66.1698 81.2218 65.7021 81.1101 65.51C80.3033 64.1352 82.0291 63.1886 81.8554 62.5268C81.4218 60.8634 82.9264 60.4058 83.2355 59.279C83.5833 58.0103 86.4565 57.7648 87.5016 58.7203C87.9629 59.1402 88.6041 59.3583 89.1125 59.646L89.0613 59.6049Z" fill="black"/>
</svg>
