<svg width="137" height="105" viewBox="0 0 137 105" fill="none" xmlns="http://www.w3.org/2000/svg">
<path d="M129.507 97.5791C128.616 96.7599 127.449 96.0896 126.908 95.0789C126.33 94.0097 124.803 93.7596 124.686 93.0255C124.389 91.1317 122.284 91.3286 121.658 89.8284C121.303 88.972 120.067 88.5039 119.283 87.8017C118.026 86.6739 116.817 85.493 115.592 84.3333C115.486 84.2322 115.401 84.0779 115.279 84.0407C113.502 83.4662 112.352 82.1576 111.116 80.8223C110.294 79.9286 108.793 79.6999 107.701 79.0083C105.861 77.8434 104.106 76.54 102.297 75.3165C101.974 75.0984 101.597 74.9282 101.221 74.8271C99.4178 74.3484 97.6201 73.2951 95.7482 74.3856C95.1436 74.7367 94.7883 75.54 94.3482 76.157C94.083 76.5241 93.7012 76.9124 93.6641 77.3114C93.5792 78.2742 93.5899 79.2637 93.7118 80.2265C93.7861 80.7904 93.9611 81.2319 93.1709 81.2639C93.208 82.0458 93.2823 82.8225 93.2664 83.6045C93.2505 84.3812 92.0149 84.9557 92.8687 85.8972C93.0224 86.0675 93.1656 86.243 93.383 86.4984C92.927 86.7165 92.5717 86.8814 92.1846 87.0676C94.1361 88.0623 91.5641 89.5412 92.7149 90.536C92.2641 90.903 91.1876 91.0626 92.4285 91.7807C92.5558 91.8552 92.3224 93.1479 91.9406 93.4032C91.1664 93.9299 91.2459 94.1852 91.6331 94.9672C91.9937 95.696 91.8028 96.6961 91.8558 97.5951C91.0126 97.744 90.0634 97.7653 90.599 99.0207C90.6149 99.0527 90.599 99.1218 90.5725 99.1431C88.9975 100.457 89.3369 103.404 86.6642 103.755C86.3301 103.798 85.9642 103.58 85.4604 103.447C85.3756 103.675 85.2377 104.042 85.0892 104.436C84.1771 104.436 83.1908 104.638 82.337 104.388C81.1332 104.032 79.956 103.447 78.8954 102.766C77.7234 102.016 76.6575 101.079 75.6022 100.154C74.8492 99.4942 74.2023 98.7069 73.4864 97.9994C72.5424 97.0631 71.4765 96.2333 70.6493 95.2119C68.7773 92.8979 66.5819 90.8445 65.1554 88.1528C64.466 86.8495 63.3418 85.7696 62.435 84.578C62.2759 84.3652 62.2176 84.0779 62.0903 83.8386C61.3479 82.4821 60.6479 81.099 59.8366 79.785C59.1419 78.6572 57.8586 77.6838 57.6518 76.5028C57.3601 74.8058 56.3048 73.6036 55.6684 72.1673C54.2844 69.0341 52.5768 66.0498 51.0125 62.9963C50.392 61.7834 49.7981 60.5546 49.1988 59.3311C48.8276 58.5757 48.4776 57.815 48.1117 57.0596C46.8868 54.5381 45.6936 52.0007 44.4156 49.5058C43.2277 47.1811 41.9179 44.9202 40.7194 42.6009C40.1944 41.5902 39.9664 40.4039 39.3354 39.4783C38.6248 38.4356 37.8611 37.2547 37.4316 36.2439C36.318 33.6107 34.7536 31.2754 33.3961 28.8071C31.9908 26.2537 30.3256 23.8439 28.8037 21.3543C27.6636 19.4925 26.2477 17.8381 24.9591 16.0879C23.5326 14.1569 22.2917 12.0184 20.5735 10.3853C17.7364 7.68293 15.3077 4.48584 11.7706 2.58142C11.1661 2.25692 10.4237 2.0069 9.7555 2.02818C9.34187 2.03882 8.94945 2.6293 8.75324 3.20381C8.32901 3.38468 7.90477 3.57087 7.48584 3.75173C7.69796 4.02304 8.00022 4.26242 8.09568 4.56564C8.18052 4.84758 8.03734 5.19867 7.98962 5.54445C8.77446 5.76787 9.79262 10.2736 9.14566 11.3694C10.6464 12.5451 10.8744 13.4494 9.59641 14.5612C10.9115 14.0186 11.007 14.6144 11.2881 15.4496C11.8714 17.1997 12.3911 19.019 13.6585 20.466C14.0774 20.9394 13.8123 22.0565 13.2289 22.4608C14.9789 22.5672 14.8888 24.2801 15.6524 25.243C15.9228 25.5888 16.1031 26.0356 16.2198 26.4665C16.3418 26.908 16.3418 27.3868 16.4213 28.0624C17.3493 28.0624 17.6834 29.1316 18.097 30.1051C18.691 31.4935 19.2531 32.8926 19.8682 34.3821C19.7144 34.4778 19.3697 34.6906 19.041 34.8928C19.3167 35.595 20.8864 35.2013 20.2606 36.5153C20.6106 36.6748 20.9606 36.8291 21.5121 37.0738C20.897 37.244 20.5152 37.3504 20.1387 37.4515C20.1175 37.5739 20.0963 37.6962 20.0803 37.8132C21.8833 37.7281 22.1114 39.0793 22.578 40.2549C22.8379 40.9039 23.3098 41.4678 23.522 42.1274C23.6864 42.6328 23.5061 43.2392 23.6386 43.7606C23.7553 44.2181 24.0841 44.6277 24.3651 45.0852C24.6356 45.5267 24.9538 45.9416 25.1606 46.4097C25.6697 47.5694 26.1469 48.7504 26.5977 49.9366C27.2924 51.7613 28.0083 53.5806 28.5969 55.4371C28.8408 56.2031 28.7825 57.0649 28.8779 58.1129C28.8143 58.0703 29.1113 58.2672 29.4984 58.5278C29.3075 58.6714 29.2173 58.7459 29.1272 58.8044C28.8885 58.9587 28.6446 59.1077 28.406 59.2566C28.6128 59.4588 28.8196 59.8311 29.0264 59.8258C30.3787 59.7992 29.4772 60.9536 29.8908 61.4004C28.9257 61.7143 29.7211 62.1558 29.7847 62.5654C29.9067 63.3474 30.4423 64.1932 29.4294 64.8528C29.2491 64.9699 29.3605 65.5391 29.3499 65.9008C29.3393 66.2519 29.2598 66.6243 29.3499 66.9488C29.8802 68.9436 27.2234 69.1245 27.1704 70.8321C27.1598 71.1513 26.5075 71.7471 26.2053 71.7098C25.0015 71.5768 24.8424 72.3801 24.7469 72.8695C23.9303 73.3164 23.3682 73.694 22.7583 73.9441C21.9099 74.2845 21.0243 74.5345 20.1546 74.8165C19.8046 74.9282 19.4599 75.0665 19.0993 75.1144C18.5372 75.1835 18.0493 76.4177 17.4077 75.2314C17.1478 75.391 16.8933 75.6889 16.6334 75.6889C14.735 75.6995 12.7835 75.9336 10.954 75.5559C8.74794 75.1037 6.48358 74.5186 4.71239 72.8748C3.67832 71.9173 2.53818 71.0821 1.46699 70.1725C1.3132 70.0395 1.26548 69.7788 1.18063 69.5767C0.80412 68.7096 0.470034 67.8212 0.051101 66.9807C-0.219349 66.4381 0.634426 65.188 1.41926 65.0709C1.64199 65.039 1.86471 65.0284 1.82759 65.0284C2.19349 65.9221 2.50106 66.6828 2.80864 67.4382C2.45334 67.6297 2.12986 67.8105 1.80107 67.9914C2.12455 68.135 2.47455 68.2308 2.76091 68.4276C3.06848 68.6404 3.33363 68.9223 3.58287 69.2043C4.24574 69.965 4.96694 70.6246 5.88435 71.0981C6.12828 71.2257 6.11237 71.8588 6.1601 72.045C12.0093 74.3856 17.9114 74.3484 23.7076 71.3534C24.4871 70.5661 25.4628 69.5873 26.5924 68.4489C26.7143 68.0712 27.0113 67.3797 27.1545 66.6562C27.5893 64.4911 27.4727 62.3207 27.0802 60.1556C26.4439 56.6606 25.5053 53.2614 24.1 49.9898C23.1083 47.6811 22.1273 45.3618 21.2258 43.0158C20.4675 41.0369 20.0326 38.9144 19.0675 37.0525C18.5796 36.1163 17.991 35.2598 17.6463 34.2172C17.3546 33.3288 16.6971 32.5734 16.2569 31.7276C15.1592 29.6317 13.966 27.573 13.0486 25.3973C11.2562 21.1682 9.59111 16.8805 7.94189 12.5876C7.22069 10.7098 6.31389 8.78941 6.1548 6.83711C6.04344 5.42741 5.75177 3.89004 6.60555 2.28352C7.4169 0.740832 8.29189 -0.248617 9.91989 0.0546012C11.5267 0.3525 13.0592 1.10789 14.5918 1.75156C14.8092 1.84199 14.8145 2.43779 14.91 2.77293C16.7607 1.87391 16.3948 5.3955 18.4046 4.51776C17.8054 6.41686 19.2425 5.95406 20.0432 6.22004C19.9372 6.31579 19.8311 6.41154 19.725 6.5073C20.5364 7.43823 21.3318 8.38512 22.1697 9.29477C22.472 9.62459 22.9545 9.79482 23.2091 10.1512C23.978 11.2364 24.4394 12.9281 25.4522 13.3536C26.7462 13.8962 26.5712 14.3271 26.1999 15.2049C26.1681 15.2793 26.2212 15.3911 26.2477 15.5985C27.6583 15.4389 28.2257 16.1411 28.0666 17.5295C28.0454 17.7264 28.1567 18.1147 28.2257 18.12C30.0393 18.237 30.1241 20.3968 31.8635 20.9501C31.4499 21.1309 31.2802 21.2107 31.1211 21.2799C32.6271 22.1948 35.8248 28.0251 35.2627 29.0571C35.5915 28.9561 35.8407 28.8816 35.9786 28.839C36.4771 29.5519 36.9437 30.2275 37.3945 30.8818C37.0498 31.169 36.7104 31.451 36.2172 31.8606C37.6596 31.6106 39.2187 32.866 39.4573 34.5417C39.6323 35.7918 40.1997 36.8025 40.73 37.8771C40.9581 38.3399 41.1225 38.8293 41.4406 39.6325C42.5436 39.6751 43.0262 40.5369 42.4111 42.0583C42.8883 42.2604 43.3073 42.4307 43.8376 42.6541C43.6042 42.9094 43.4398 43.0903 43.5618 42.9573C43.9595 43.835 44.2724 44.5372 44.4156 44.8511C45.7944 47.3992 47.0087 49.5855 48.1489 51.8091C48.3292 52.1656 48.1754 52.6922 48.1754 53.1976C48.7905 53.2986 50.4026 55.3733 50.3708 56.2297C50.3655 56.4266 50.5034 56.6287 50.567 56.8309C51.0549 58.2618 51.4473 59.7407 52.0677 61.1132C52.3806 61.8047 53.1124 62.2994 53.6533 62.8846C53.6851 62.9165 53.717 62.975 53.7117 63.0123C53.4624 64.4166 54.576 65.305 54.9897 66.4594C55.0321 66.5764 55.0427 66.7945 55.0957 66.8105C56.8563 67.1722 55.7692 68.0499 55.4033 68.917C56.7343 68.5181 57.0843 69.2468 57.2381 70.3321C57.2912 70.7204 57.6995 71.0502 57.8798 71.4385C58.0654 71.8322 58.1661 72.2631 58.4207 73.0291C58.3783 73.0131 58.7176 73.1355 59.1472 73.2844C59.057 74.4016 59.4282 75.2048 60.3722 76.0826C61.3744 77.0135 61.7032 78.6519 62.4244 79.9286C62.7691 80.5457 63.3365 81.0351 63.8032 81.583C63.8933 81.6894 64.0736 81.8331 64.0524 81.8916C63.3948 83.4662 65.2403 83.7215 65.5585 84.7961C66.2372 87.1048 68.6925 88.2006 69.5145 90.3498C70.2728 92.3499 72.2084 93.1479 73.3379 94.7331C73.9053 95.5311 74.6689 96.1907 75.2363 96.9886C75.3954 97.2121 75.1886 97.7015 75.1515 98.0632C76.2757 97.8877 78.8742 99.691 79.1711 100.702C81.7749 101.686 84.2248 103.271 87.0725 101.399C87.1202 101.298 87.3059 100.861 87.518 100.441C88.2763 98.9143 89.2573 97.4515 89.7452 95.8449C90.127 94.5895 89.8566 93.1479 89.9838 91.7967C90.0475 91.1051 90.652 90.3498 90.4876 89.7806C90.1323 88.5677 90.599 87.5836 90.8111 86.4824C91.0285 85.3334 90.9013 84.1258 90.9384 82.9449C90.9596 82.3171 91.0391 81.6894 91.0444 81.0617C91.0444 80.7213 90.9543 80.3755 90.8906 79.9552C91.0232 79.8648 91.4952 79.7159 91.527 79.4924C91.8028 77.8008 91.9937 76.0985 92.2111 74.4016C92.3543 74.3696 92.4921 74.3324 92.6353 74.3005C92.7467 74.5399 92.8633 74.7739 93.0755 75.2314C93.2027 73.3642 94.4489 72.0716 96.1512 71.9226C97.7633 71.779 99.3542 72.0343 100.834 72.7365C101.056 72.8429 101.147 73.2206 101.306 73.4759C102.456 72.795 104.747 73.9919 104.859 75.391C105.134 75.2846 105.511 75.0027 105.707 75.0931C106.412 75.4336 107.118 75.8325 107.696 76.3485C108.184 76.7847 108.486 77.4231 108.857 77.9497C109.265 77.987 109.965 77.8433 110.358 78.1253C111.238 78.7583 111.843 79.934 112.787 80.285C114.096 80.7745 114.934 81.3862 115.194 82.78C116.965 82.881 121.049 86.4984 120.937 88.0783C122.65 87.1208 123.133 88.7805 123.955 89.5465C124.872 90.3976 125.365 91.7914 126.362 92.4563C127.444 93.1798 128.086 94.2171 128.992 94.9832C130.037 95.8715 129.968 96.579 129.523 97.5685L129.528 97.5791H129.507Z" fill="black"/>
<path d="M131.204 98.2708C131.628 98.308 132.052 98.3452 132.439 98.3825C132.683 98.9995 132.917 99.5847 133.06 99.9411C132.789 100.377 132.572 100.718 132.397 101.005H134.778C134.354 101.505 134.11 101.851 133.802 102.133C133.638 102.282 133.208 102.447 133.171 102.393C132.355 101.298 130.774 100.824 130.573 99.2336C130.785 98.9144 130.992 98.5952 131.204 98.2708Z" fill="black"/>
<path d="M135.277 102C135.6 102.851 135.791 103.351 136.014 103.92H137C136.862 104.33 136.745 104.665 136.634 105C136.401 104.915 136.024 104.894 135.955 104.734C135.627 103.979 134.131 103.665 135.277 102Z" fill="black"/>
<path d="M131.203 98.2706C130.991 98.5898 130.784 98.909 130.572 99.2335C130.169 98.9994 129.766 98.7653 129.172 98.4196C129.618 98.1802 129.835 98.0685 130.164 97.8929C129.92 97.7759 129.719 97.6801 129.517 97.5844C129.517 97.5844 129.512 97.5737 129.506 97.5737C129.936 97.2758 130.371 96.9779 130.795 96.6907C130.928 97.2014 131.066 97.7386 131.209 98.2812L131.203 98.2706Z" fill="black"/>
</svg>
