<svg width="346" height="332" viewBox="0 0 346 332" fill="none" xmlns="http://www.w3.org/2000/svg">
<path d="M139.43 118.391C140.272 118.115 141.452 118.092 141.627 117.583C142.933 113.99 146.854 113.736 149.156 111.518C151.175 109.56 154.575 109.41 155.667 106.179C155.977 105.235 157.927 105.137 158.954 104.424C160.615 103.271 159.923 102.539 158.572 100.685C155.86 96.9465 152.085 98.6171 149.187 96.4981C148.006 95.6411 146.306 95.6658 144.862 95.1933C142.112 94.2899 139.352 93.3345 136.613 92.3619C135.667 92.0259 134.721 91.6293 133.826 91.1293C132.405 90.3369 131.732 86.7058 129.294 89.5C128.981 89.8668 126.866 88.4634 125.561 87.992C123.091 87.1109 120.568 86.4341 118.149 85.4294C116.974 84.9474 107.025 81.2204 106.611 80.7125C104.715 78.3617 101.473 80.6594 99.7747 77.56C99.4408 76.9632 97.6496 77.1459 96.5839 76.7513C93.0682 75.4584 89.5736 74.0475 86.1526 72.2736C84.7537 73.2034 83.463 73.3206 81.7175 70.9421C81.1161 70.1125 79.0631 70.4778 77.7793 69.9085C75.1917 68.7669 72.666 67.4324 70.1606 66.0606C66.9494 64.3085 62.6105 65.3374 60.5476 60.7266C59.7168 58.8511 58.4547 57.1223 57.3734 55.2997C60.321 53.4527 62.7866 51.8155 65.3607 50.3262C67.6834 48.9908 70.1042 47.8321 72.486 46.5866C72.6971 46.4671 73.0498 46.187 73.0794 46.2219C76.5188 50.1421 76.9396 46.0808 78.6605 44.937C79.9888 44.0672 81.9871 44.1688 83.641 43.7226C84.2324 43.5597 84.836 43.1864 85.2305 42.7307C86.2723 41.5241 86.617 40.0498 89.3024 41.4085C90.854 42.1904 93.4303 40.479 95.4674 39.7069C98.5783 38.5217 101.62 37.2148 104.653 35.8761C108.418 34.2141 112.115 32.4304 115.89 30.78C116.804 30.383 118.042 30.5712 118.896 30.1247C120.052 29.5017 121.669 28.7062 121.83 27.6286C122.057 25.9745 120.738 24.8943 118.712 24.5358C115.299 23.936 111.891 22.8719 108.502 21.8915C107.994 21.7434 107.401 21.0265 107.177 20.4767C106.357 18.4916 105.385 18.7785 103.605 18.7911C100.386 18.8072 96.8727 19.274 93.7737 16.3054C92.6054 15.1774 91.3745 14.3229 89.512 15.6271C88.5656 16.2921 85.8439 14.5639 83.5725 13.7939C83.5509 13.9524 83.4641 14.6267 83.2704 15.9926C80.4138 14.7595 77.6566 13.582 75.417 12.6247C73.4431 13.0829 71.379 13.5577 69.345 14.027C68.6663 12.9228 68.0367 11.9171 67.8794 11.6505C63.4158 11.164 59.6011 10.766 54.9579 10.2521C53.1363 9.47975 50.2495 8.2724 48.3879 7.49393C46.2223 9.11609 44.8121 10.1757 43.5028 11.1495C41.9823 10.2611 41.441 5.43673 39.3435 10.2239C38.8629 9.31157 38.5294 8.67444 38.2056 8.0691C35.5762 10.0858 35.3568 10.0323 33.6205 6.7451C33.3004 7.75808 33.0219 8.61561 32.7123 9.57963C31.8145 8.4017 31.0941 7.47318 30.9658 7.30202C27.2662 7.38663 24.2365 7.46187 20.9368 7.54661C20.8112 7.11296 20.5784 6.41024 20.5979 6.45366C17.8814 6.20241 15.3836 6.0653 12.8784 5.6743C11.6109 5.47147 7.07277 6.42958 5.92596 7.14498C5.47324 7.43004 4.15692 7.10857 3.71193 6.62637C2.56487 5.38021 1.69026 3.88225 0.35997 1.97123C5.28374 -0.556097 10.9845 1.15997 16.429 0.531776C16.2309 1.34087 16.1157 1.85924 15.9906 2.366C16.2102 2.39938 16.4395 2.46457 16.6397 2.43435C18.5419 2.15734 20.4164 1.64358 22.3659 1.62655C24.2654 1.61202 26.3133 1.7515 28.1456 2.45474C32.6867 4.17649 37.0945 1.26738 41.1413 3.42964C44.3232 5.12673 46.6135 4.01898 49.1732 3.96327C51.8029 3.9081 54.5922 6.85993 56.9847 4.54428C57.5372 5.27538 58.1096 6.00951 57.9221 5.76867C60.9808 5.78885 63.4419 5.59682 65.9082 5.8808C69.373 6.27616 72.8558 6.87645 76.2966 7.67259C77.9622 8.05727 79.5714 9.07037 81.5218 9.95336C83.6597 10.0964 86.3998 9.98725 89.1035 10.5298C95.4183 11.8235 101.71 13.4171 108.013 14.9214C108.801 15.1119 109.737 15.3959 110.302 15.9569C111.361 16.9976 115.511 18.8116 116.435 18.3859C118.524 17.3891 120.63 18.7608 121.021 21.5907C124.678 19.7807 125.719 23.6598 126.869 25.5636C127.931 27.3226 127.435 29.9266 127.623 32.1492C124.529 31.598 125.308 37.6212 120.82 35.5941C120.084 35.2597 117.367 38.0114 114.648 37.0418C114.648 37.0418 114.568 37.9903 114.306 38.2537C113.8 38.7835 113.117 39.1447 112.227 39.1813C110.785 41.4493 108.596 41.103 105.66 38.1424C105.536 39.5491 105.655 40.6087 105.287 41.4021C105.001 42.0259 104.204 42.7036 103.535 42.6927C101.105 42.6975 101.086 42.5935 100.88 45.2718C100.305 44.6992 99.9097 44.2952 99.5238 43.9029C97.7048 45.8508 95.8924 46.1515 94.0859 44.8658C94.0201 45.4422 93.9332 46.1367 93.8462 46.8313C92.5813 46.366 91.3164 45.9007 89.5735 45.2616C89.972 46.3838 90.3216 47.4076 90.9145 49.0852C89.3794 48.6496 88.1434 48.2999 86.8575 47.9325C86.7028 48.4044 86.4959 49.1009 86.269 49.7944C85.5066 49.0617 84.7543 48.3205 84.0119 47.5908C82.6047 49.3485 83.0226 53.5171 78.7152 51.4163C78.0647 54.472 73.7932 51.7802 72.8943 54.6869C72.7803 55.0841 71.054 54.7711 69.8618 54.0438C69.6708 54.1462 69.2994 54.3021 69.3187 54.3657C70.0636 56.8348 63.567 56.7166 67.9097 60.2686C69.8531 61.8583 72.7106 63.9914 74.4534 63.6497C76.9876 63.1553 78.6606 63.7939 80.6555 65.2196C81.7671 66.0154 82.9804 66.6448 84.5305 67.568C86.3686 66.7049 89.9211 68.3269 90.1076 70.6505C93.7738 68.9127 97.1492 71.2459 100.703 72.7265C104.715 74.3982 108.882 75.4969 112.966 76.9469C113.803 77.2359 114.503 78.1816 115.35 78.4822C119.265 79.856 123.263 80.8784 127.106 82.4536C130.879 84.008 134.496 86.1353 138.217 87.8941C139.202 88.3573 140.352 88.3602 141.419 88.6135C143.314 89.0633 145.23 89.4153 147.083 90.061C149.513 90.9159 151.943 91.8515 154.26 93.0632C156.587 94.2865 158.729 95.9873 161.035 97.2884C161.562 97.5808 162.447 97.0682 163.158 96.9236C164.092 98.5316 165.025 100.16 166.116 102.034C161.364 102.313 161.907 105.034 163.99 107.586L157.638 112.99C157.638 112.99 157.213 112.551 155.996 111.304C156.576 113.253 156.856 114.175 157.05 114.811C154.753 115.625 152.072 115.784 150.648 117.235C148.618 119.303 147.105 121.631 143.768 120.426C143.407 122.535 143.077 124.476 142.738 126.427C142.415 126.721 142.092 127.016 141.769 127.311C144.505 128.606 147.22 130 149.997 131.181C153.133 132.517 156.341 133.611 159.486 134.939C159.795 135.077 159.865 136.038 159.749 135.656C161.551 136.405 162.735 136.959 163.95 137.387C167.288 138.531 170.677 139.491 173.962 140.82C174.898 141.205 175.564 142.6 176.591 143.808C177.965 142.44 179.989 143.92 182.425 145.271C185.784 147.157 189.533 148.111 192.975 149.828C194.477 150.572 195.63 152.254 196.749 153.303C198.152 153.911 199.577 154.36 200.849 155.14C202.577 156.212 204.666 157.237 205.76 158.829C207.987 162.059 210.546 165.007 209.59 169.603C208.582 174.445 212.627 178.73 215.465 182.822C217.249 185.388 219.626 187.57 221.56 190.068C222.251 190.961 222.418 192.241 223.002 193.806C223.072 193.806 224.054 193.511 224.421 193.86C227.411 196.761 230.39 199.711 233.137 202.859C233.641 203.451 233.086 204.964 233.002 206.317C236.992 206.266 239.043 208.984 240.927 212.506C241.81 214.157 244.331 214.996 245.394 216.633C249.126 222.327 255.982 224.482 259.437 230.73C261.077 233.699 264.926 235.629 267.781 238.004C267.98 238.176 268.389 238.208 268.477 238.393C271.128 244.185 277.403 246.413 280.868 251.753C283.428 255.681 288.1 258.333 291.755 261.649C292.597 262.414 293.025 263.631 293.775 264.534C294.269 265.115 295.005 265.51 296.116 266.346C296.158 266.211 295.972 266.809 295.806 267.35C300.616 268.203 301.392 274.489 305.878 275.777C306.02 280.561 311.21 281.391 313.233 284.974C315.502 288.99 319.046 292.38 322.079 296.006C325.19 299.724 328.463 303.306 331.433 307.124C334.246 310.737 337.138 314.422 339.277 318.408C341.387 322.358 346.513 324.503 345.795 330.339C345.624 330.444 344.648 331.034 343.874 331.492C342.207 330.188 340.67 328.993 338.954 327.65C339.222 326.842 339.573 325.803 339.799 325.11C338.473 322.775 337.246 320.596 336.538 319.356C331.732 315.198 329.427 309.812 325.603 306.339C321.255 302.392 318.873 297.712 314.847 293.45C314.847 293.45 313.318 293.349 313.074 292.796C310.463 287.051 304.877 283.795 301.451 278.603C298.979 274.86 295.152 271.771 292.482 267.876C292.127 267.357 290.656 267.568 289.009 267.348C290.065 266.629 290.478 266.338 290.941 266.024C289.867 265.537 288.659 265.344 287.976 264.623C284.564 261.041 281.617 256.862 277.879 253.756C273.983 250.504 271.017 246.241 266.636 243.563C263.814 241.84 262.954 237.887 259.037 236.796C257.431 236.36 256.206 232.999 254.652 231.438C252.512 229.535 250.351 227.67 248.252 225.733C246.31 223.941 244.854 221.617 242.216 220.558C241.001 220.07 239.905 218.741 238.986 217.621C236.37 214.382 234.321 210.38 231.197 207.933C228.717 205.999 228.367 202.053 224.554 201.433C223.586 201.276 222.221 198.854 221.816 197.356C221.325 195.573 220.399 195.119 219.02 194.13C216.43 192.27 215.014 188.87 212.012 187.241C213.301 184.262 207.375 183.098 209.297 179.821C209.491 179.497 208.405 178.139 207.752 177.413C205.093 174.47 203.884 171.395 204.088 168.059C204.159 166.897 203.822 165.642 203.924 164.475C204.198 161.039 200.663 161.724 199.261 159.914C197.603 157.781 194.948 156.397 192.905 154.832C192.905 154.832 193.09 155.315 193.693 156.944C190.029 154.536 187.119 152.628 184.626 150.985C184.571 150.552 184.645 151.109 184.765 152.108C182.185 150.159 179.824 148.384 177.463 146.59C176.284 148.487 174.457 147.565 171.983 143.825C171.774 144.704 171.586 145.464 171.231 146.947C169.893 144.883 168.967 143.448 167.934 141.865C167.527 142.551 167.13 143.229 166.876 143.645C166.1 143.285 165.415 142.847 164.707 142.648C163.77 142.385 162.698 142.575 161.893 142.099C159.856 140.89 157.952 139.367 155.956 138.062C155.301 137.639 154.228 136.99 153.825 137.212C150.95 138.818 148.562 134.784 147.139 135.073C143.563 135.794 142.289 132.334 139.758 131.464C136.909 130.485 135.855 123.975 137.766 121.768C138.606 120.794 138.97 119.383 139.511 118.282L139.43 118.391Z" fill="white"/>
</svg>
