<?xml version="1.0" encoding="UTF-8"?>
<svg width="150px" height="108px" viewBox="0 0 150 108" version="1.1" xmlns="http://www.w3.org/2000/svg" xmlns:xlink="http://www.w3.org/1999/xlink">
    <!-- Generator: Sketch 46 (44423) - http://www.bohemiancoding.com/sketch -->
    <title>Artboard</title>
    <desc>Created with Sketch.</desc>
    <defs></defs>
    <g id="Page-2" stroke="none" stroke-width="1" fill="none" fill-rule="evenodd">
        <g id="Artboard">
            <g id="Group-3" fill="#CFCFCF">
                <g id="Group-2">
                    <rect id="Rectangle" x="0" y="0" width="150" height="108" rx="6"></rect>
                </g>
            </g>
            <g id="Page-1" transform="translate(17.000000, 17.000000)">
                <g id="Group-251" transform="translate(0.000000, 0.232569)">
                    <rect id="Rectangle-2" fill="#FFFFFF" x="0" y="0" width="116" height="73" rx="3"></rect>
                    <polygon id="Fill-224" fill="#C3C3C3" points="54.4555859 43.6884647 101.401468 43.6884647 101.401468 41.1103978 54.4555859 41.1103978"></polygon>
                    <polygon id="Fill-226" fill="#C3C3C3" points="20.0649976 27.4786097 94.85088 27.4786097 94.85088 26.0707138 20.0649976 26.0707138"></polygon>
                    <polygon id="Fill-227" fill="#C3C3C3" points="20.2011953 30.4352454 57.5941365 30.4352454 57.5941365 29.0273494 20.2011953 29.0273494"></polygon>
                    <polygon id="Fill-228" fill="#C3C3C3" points="54.4555859 49.115974 92.9402918 49.115974 92.9402918 46.5379071 54.4555859 46.5379071"></polygon>
                    <polygon id="Fill-229" fill="#C3C3C3" points="54.4555859 54.5434833 84.4791153 54.5434833 84.4791153 51.9654164 54.4555859 51.9654164"></polygon>
                    <polygon id="Fill-230" fill="#747474" points="0.0611388235 21.5748922 115.845515 21.5748922 115.845515 7.19199257 0.0611388235 7.19199257"></polygon>
                    <polygon id="Fill-231" fill="#000000" points="15.1071849 61.6902375 14.4210108 61.689152 14.4130955 39.4922673 15.1006344 39.4919959"></polygon>
                    <polygon id="Fill-232" fill="#000000" points="18.5450701 61.6878494 17.5138984 61.6894777 17.5059831 39.4923216 18.5360631 39.4917788"></polygon>
                    <polygon id="Fill-233" fill="#000000" points="20.4335228 61.6886364 19.0595369 61.6880937 19.0524405 39.4909375 20.4269722 39.4903948"></polygon>
                    <polygon id="Fill-234" fill="#000000" points="28.1655915 61.6867911 27.1355115 61.6865197 27.1284151 39.4874639 28.1593139 39.4874639"></polygon>
                    <polygon id="Fill-235" fill="#000000" points="30.0555181 61.6841316 28.6812593 61.6857599 28.6738899 39.4877896 30.0484216 39.4867041"></polygon>
                    <polygon id="Fill-237" fill="#000000" points="26.6194889 61.6857327 25.5883172 61.6870896 25.5812207 39.4872197 26.6126654 39.4885766"></polygon>
                    <polygon id="Fill-239" fill="#000000" points="21.9808264 61.6886364 21.2938334 61.6875509 21.2853722 39.4887665 21.9742758 39.4901234"></polygon>
                    <polygon id="Fill-241" fill="#000000" points="45.8637252 61.6804138 45.1761864 61.6806851 45.1688169 39.481358 45.8566287 39.4824435"></polygon>
                    <polygon id="Fill-242" fill="#000000" points="42.7703464 61.6822862 41.7399934 61.6825576 41.7328969 39.4829591 42.7637958 39.4818736"></polygon>
                    <polygon id="Fill-243" fill="#000000" points="41.2246532 61.6828019 39.8498485 61.6825305 39.8432979 39.4837461 41.2172838 39.4840175"></polygon>
                    <polygon id="Fill-244" fill="#000000" points="33.1484875 61.6838602 32.1175887 61.6846743 32.1107652 39.4869755 33.141664 39.4850758"></polygon>
                    <polygon id="Fill-245" fill="#000000" points="31.6030673 61.684403 30.2279896 61.6846743 30.2200744 39.4867041 31.5948791 39.4861613"></polygon>
                    <polygon id="Fill-247" fill="#000000" points="34.6952452 61.6849186 33.6648922 61.6841045 33.656704 39.4864056 34.6870569 39.4853201"></polygon>
                    <polygon id="Fill-249" fill="#000000" points="38.9904659 61.6825305 38.3034729 61.6830732 38.2966494 39.4834747 38.9830965 39.4848316"></polygon>
                </g>
            </g>
        </g>
    </g>
</svg>