<?xml version="1.0" encoding="UTF-8"?>
<svg width="150px" height="108px" viewBox="0 0 150 108" version="1.1" xmlns="http://www.w3.org/2000/svg" xmlns:xlink="http://www.w3.org/1999/xlink">
    <!-- Generator: Sketch 46 (44423) - http://www.bohemiancoding.com/sketch -->
    <title>Artboard</title>
    <desc>Created with Sketch.</desc>
    <defs></defs>
    <g id="Page-2" stroke="none" stroke-width="1" fill="none" fill-rule="evenodd">
        <g id="Artboard">
            <g id="Group-3">
                <g id="Group-2" fill="#CFCFCF">
                    <rect id="Rectangle" x="0" y="0" width="150" height="108" rx="6"></rect>
                </g>
                <g id="shutterstock_459342559" transform="translate(17.000000, 19.000000)">
                    <path d="M0,17 L116,17 L116,68 L116,68 C116,69.6568542 114.656854,71 113,71 L3,71 L3,71 C1.34314575,71 2.02906125e-16,69.6568542 0,68 L0,17 Z" id="Rectangle-3" fill="#FFFFFF"></path>
                    <path d="M3,0 L113,0 L113,0 C114.656854,-3.04359188e-16 116,1.34314575 116,3 L116,17 L0,17 L0,3 L0,3 C-2.02906125e-16,1.34314575 1.34314575,3.04359188e-16 3,0 Z" id="Rectangle-2" fill="#737373"></path>
                    <polygon id="Fill-3" fill="#737373" points="52.579157 28.6555045 97.0953554 28.6555045 97.0953554 23.4994081 52.579157 23.4994081"></polygon>
                    <polygon id="Fill-4" fill="#737373" points="52.579157 36.3894103 79.6614821 36.3894103 79.6614821 31.2334731 52.579157 31.2334731"></polygon>
                    <polygon id="Fill-5" fill="#737373" points="52.579157 44.1233161 97.0953554 44.1233161 97.0953554 38.9673789 52.579157 38.9673789"></polygon>
                    <polygon id="Fill-6" fill="#737373" points="52.579157 52.3298655 79.6614821 52.3298655 79.6614821 47.1737691 52.579157 47.1737691"></polygon>
                    <polygon id="Fill-7" fill="#C6C6C6" points="52.579157 64.3387354 91.7691019 64.3387354 91.7691019 57.2704148 52.579157 57.2704148"></polygon>
                    <path d="M20.092296,46.7549828 C20.3099948,46.188992 20.4211104,45.6093167 20.4211104,45.0296413 C20.4211104,44.9551977 20.4211104,44.8839014 20.4200116,44.8137 L20.4200116,44.7499302 C20.4200116,44.6998449 20.4189129,44.6498965 20.4178141,44.5999481 L20.4178141,44.5360415 C20.4168526,44.4776087 20.414655,44.419039 20.4135562,44.3627957 L20.4135562,44.3383005 C20.411496,44.2754887 20.4092984,44.2137716 20.4072382,44.1531492 C20.4061394,44.1350857 20.4050406,44.1181169 20.4039418,44.1000534 C20.402843,44.0563998 20.3996839,44.0138411 20.3976237,43.9712823 C20.3965249,43.952124 20.3954261,43.9329657 20.3943273,43.9128495 C20.3911683,43.8670064 20.3880092,43.8213002 20.3847129,43.7766887 C20.3836141,43.76492 20.3826526,43.7532882 20.3826526,43.7426143 C20.377296,43.6873289 20.3719394,43.6330015 20.3665827,43.5799056 C20.3654839,43.5649895 20.3634237,43.5511682 20.3623249,43.5362521 C20.3569683,43.4968407 20.3527104,43.458661 20.3473538,43.4203444 C20.3452936,43.4022808 20.343096,43.3851752 20.3410357,43.3682064 C20.3356791,43.3287951 20.3292237,43.2904785 20.3227683,43.251204 C20.320708,43.2394353 20.3196092,43.2267087 20.317549,43.2139822 C20.308896,43.1649917 20.2994189,43.116138 20.2896671,43.0671475 C20.2876068,43.0555157 20.2844478,43.043747 20.2822502,43.0310204 C20.2748333,42.9937986 20.2661803,42.9565768 20.2576647,42.9203128 C20.2534068,42.9044388 20.2502478,42.888428 20.24599,42.8735119 C20.2374743,42.8373848 20.2278598,42.8012577 20.2182454,42.7660885 C20.2139876,42.753362 20.2106912,42.7406354 20.2075321,42.7288667 C20.1936598,42.6811078 20.1797876,42.6343068 20.1648165,42.5875059 C20.1616574,42.5788846 20.1583611,42.5693055 20.155202,42.5597263 C20.1424285,42.5215466 20.129655,42.4843247 20.1157827,42.4460081 L20.0997129,42.4012598 C20.0858406,42.3662275 20.0719683,42.3310584 20.058096,42.296026 L20.0420261,42.2577095 C20.0227972,42.2098137 20.0026068,42.1630127 19.9811803,42.115117 C19.9800815,42.1141591 19.9800815,42.1130643 19.9791201,42.1119696 C20.0196382,42.1449492 20.061255,42.1747814 20.1028719,42.2055715 C20.1242984,42.2215824 20.1444888,42.2385512 20.1659153,42.2534673 C20.2556044,42.3194265 20.3452936,42.3831963 20.4360815,42.4438186 C20.4551731,42.4555873 20.4734406,42.4672191 20.4915707,42.4789878 C20.5662887,42.5278414 20.6421056,42.5757372 20.7188839,42.6214434 C20.7456671,42.6363595 20.771214,42.6523704 20.7978598,42.6682444 C20.8823297,42.7161401 20.9655634,42.7629411 21.0509948,42.8076894 C21.0615707,42.8128895 21.0722839,42.8193212 21.0829972,42.8246582 C21.1790044,42.8735119 21.275149,42.9193549 21.372255,42.9639664 C21.3968405,42.9746403 21.4225249,42.9862721 21.4480718,42.996946 C21.5249875,43.0299257 21.6008044,43.0618105 21.6775827,43.0916427 C21.703267,43.1012219 21.728814,43.1118958 21.7544983,43.121475 C21.8527032,43.1586968 21.9520068,43.1926343 22.0524092,43.2245192 C22.0640839,43.2288983 22.0768574,43.2320457 22.0897682,43.2351931 C22.1772598,43.2628358 22.2658501,43.2873311 22.3555393,43.3107316 C22.3843827,43.3171633 22.413226,43.3245529 22.4420694,43.3320794 C22.5242043,43.3511008 22.6075754,43.3693012 22.6908091,43.38627 C22.7111369,43.3894174 22.7313272,43.3947544 22.7516549,43.3979018 C22.8530188,43.4170601 22.95452,43.4319762 23.0569826,43.4457976 C23.0815682,43.4490818 23.1071152,43.4511345 23.1317007,43.453324 C23.2128742,43.4629032 23.2940477,43.4702928 23.3750838,43.4767245 C23.405026,43.4787772 23.4338694,43.4809667 23.4636742,43.4820615 C23.5672356,43.4883563 23.6707971,43.4915038 23.7754573,43.4915038 C23.8801175,43.4915038 23.9846404,43.4883563 24.0882019,43.4820615 C24.118144,43.4809667 24.1469874,43.4787772 24.1769296,43.4767245 C24.2590645,43.4702928 24.340238,43.4629032 24.4214115,43.453324 C24.4458597,43.4511345 24.4704452,43.4479871 24.4950308,43.4448396 C24.5985922,43.4319762 24.6999561,43.4161022 24.8025561,43.3979018 C24.8227464,43.3936596 24.8430741,43.3894174 24.8634018,43.3851752 C24.9477344,43.3693012 25.0309681,43.3501429 25.1142018,43.3309846 C25.1419464,43.3234581 25.169691,43.3171633 25.1974356,43.3096368 C25.2924813,43.2852784 25.3875271,43.2585936 25.4814741,43.2298562 C25.4879295,43.2278035 25.4942476,43.225614 25.500703,43.2235613 C25.6031657,43.1916764 25.7046669,43.1565073 25.8049319,43.1181907 C25.8273199,43.1097063 25.8498452,43.1012219 25.8722331,43.0927375 C25.9554669,43.0597579 26.0387006,43.0245887 26.1220717,42.9884616 C26.1413006,42.9799772 26.1594307,42.9724508 26.1775608,42.9639664 C26.2789247,42.9182602 26.3804259,42.8692697 26.4797295,42.8182265 C26.4839873,42.8161738 26.4882451,42.8139843 26.4914042,42.8119316 C26.58645,42.7618464 26.6814957,42.7097084 26.7743439,42.6555178 C26.7913753,42.6448439 26.8085439,42.6352647 26.8255753,42.6256856 C27.0230837,42.5066305 27.2174331,42.3778593 27.4073873,42.2364985 C27.4160403,42.2300668 27.4234572,42.2236351 27.4319728,42.2182981 C27.4789463,42.1832658 27.524821,42.1480966 27.5708331,42.1119696 C27.5708331,42.1130643 27.5708331,42.1130643 27.5708331,42.1130643 C27.5494066,42.1609601 27.5281174,42.208719 27.5088885,42.2566147 C27.5035319,42.2693413 27.4981752,42.2822047 27.4928186,42.296026 C27.4789463,42.3310584 27.465074,42.3662275 27.4512017,42.4012598 C27.4458451,42.4150812 27.4404885,42.4299973 27.4351319,42.4438186 L27.393515,42.5650633 C27.3914548,42.571495 27.3892572,42.5788846 27.3871969,42.5853163 C27.371127,42.6332121 27.3572548,42.6800131 27.3433825,42.7279088 C27.3402234,42.7406354 27.336927,42.7522672 27.333768,42.7651306 C27.3230548,42.8012577 27.3134403,42.8373848 27.3049246,42.8735119 C27.3006668,42.888428 27.2975078,42.9033441 27.2942114,42.9182602 C27.2847343,42.9565768 27.2760813,42.9958513 27.2675656,43.0352626 C27.2655054,43.0448418 27.2633078,43.0555157 27.2611102,43.0650948 C27.2514957,43.1139485 27.2420186,43.1638969 27.2333656,43.2150769 C27.2313054,43.225614 27.2302066,43.2373827 27.2281463,43.2490145 C27.2216909,43.2895206 27.2152355,43.3287951 27.2098789,43.3693012 C27.2078186,43.3851752 27.205621,43.4011861 27.2035608,43.4170601 C27.1982042,43.4575662 27.1928475,43.4979355 27.1885897,43.5393995 C27.1874909,43.5522629 27.1854307,43.5649895 27.1843319,43.5788109 C27.1789752,43.6319067 27.1736186,43.6873289 27.168262,43.7426143 C27.168262,43.7532882 27.1671632,43.7638253 27.1662017,43.7734044 C27.1629054,43.8202054 27.1597463,43.8670064 27.1565873,43.9149021 C27.1554885,43.9329657 27.1543897,43.9510292 27.1532909,43.9690927 C27.1512307,44.0127463 27.1480716,44.0574946 27.1469728,44.1032008 C27.145874,44.1190748 27.1447752,44.1350857 27.1436764,44.1520545 C27.1416162,44.2128137 27.1394186,44.2754887 27.1373584,44.3383005 L27.1373584,44.3627957 C27.1362596,44.419039 27.1341993,44.4776087 27.1331005,44.5371363 L27.1331005,44.5988533 C27.1320017,44.6488018 27.130903,44.698887 27.130903,44.751025 L27.130903,44.8126052 C27.1298042,44.8839014 27.1298042,44.9551977 27.1298042,45.0296413 C27.1298042,45.6093167 27.2409198,46.188992 27.4586186,46.753888 C28.1643198,48.6100533 28.8091752,49.8193524 32.9770425,51.2362453 C32.9622088,51.2436349 32.9483365,51.2532141 32.9333654,51.2607405 C32.8640039,51.2989203 32.7934064,51.3361421 32.7229461,51.3735008 C32.6322955,51.4212597 32.5426064,51.4691555 32.4497582,51.5159564 C32.3760015,51.5520835 32.3012835,51.5872527 32.2265654,51.6233797 C32.1337172,51.6670333 32.040869,51.7116448 31.9458233,51.7552983 C31.8689076,51.7893727 31.7899317,51.8233103 31.7120546,51.8573847 C31.61591,51.8978908 31.5199028,51.9393548 31.4215606,51.9786293 C31.3414859,52.0116089 31.2604498,52.0434938 31.1781775,52.0755155 C31.0799727,52.1136953 30.9806691,52.1509171 30.8802667,52.1882758 C30.7970329,52.2179712 30.7127004,52.2478034 30.6283679,52.2774987 C30.527004,52.3126679 30.424404,52.3477002 30.3219414,52.3806798 C30.2355486,52.4094173 30.1490185,52.4361021 30.0615269,52.4637447 C29.9579655,52.4956296 29.8522065,52.5275145 29.7465848,52.5583046 C29.6589559,52.5838946 29.5703655,52.6083899 29.4806764,52.6328851 C29.3739559,52.6625805 29.2661366,52.6902232 29.1572185,52.7189606 C29.0675294,52.7412664 28.9768788,52.7646669 28.8860908,52.7860147 C28.776074,52.8125626 28.6650957,52.8381526 28.55398,52.8626479 C28.4622306,52.8827641 28.3703439,52.9030171 28.2785945,52.9221754 C28.1654186,52.9455759 28.0522427,52.9678816 27.937968,52.9890926 C27.8451198,53.007293 27.7522716,53.0242618 27.6594234,53.0412306 C27.5440499,53.0614836 27.427715,53.0806419 27.3102813,53.0987054 C27.2174331,53.1136215 27.1244475,53.1285377 27.0305005,53.142359 C26.9110066,53.1604225 26.7913753,53.1753386 26.6707825,53.1912127 C26.5779343,53.2029813 26.4860476,53.2157079 26.3921006,53.2263818 C26.2683488,53.2412979 26.1433608,53.2529297 26.019609,53.2656563 C25.9288211,53.2742776 25.8380331,53.2838567 25.7472452,53.2923411 C25.6159392,53.3039729 25.4846331,53.3125941 25.3523657,53.3210785 C25.2669344,53.3273734 25.1804042,53.3348999 25.0940115,53.3391421 C24.9486958,53.3476265 24.8014573,53.3529634 24.6551802,53.3592583 C24.5825223,53.3614478 24.5100019,53.36569 24.437344,53.3678795 C24.2174476,53.3741744 23.9964525,53.3784166 23.7754573,53.3784166 C23.5544621,53.3784166 23.333467,53.3741744 23.1135706,53.3678795 C23.0409128,53.36569 22.9683923,53.3614478 22.8957344,53.3592583 C22.7494573,53.3529634 22.6022188,53.3476265 22.4570405,53.3391421 C22.3705104,53.3348999 22.2839802,53.3273734 22.1985489,53.3210785 C22.0662815,53.3125941 21.9349754,53.3039729 21.8036694,53.2923411 C21.7128815,53.2838567 21.6220935,53.2742776 21.5313056,53.2656563 C21.406455,53.2529297 21.2825658,53.2412979 21.158814,53.2263818 C21.064867,53.2157079 20.9729803,53.2029813 20.8801321,53.1912127 C20.7595393,53.1753386 20.639908,53.1604225 20.5202767,53.142359 C20.4263297,53.1285377 20.3334815,53.1136215 20.2406333,53.0987054 C20.1231996,53.0806419 20.0068647,53.0614836 19.8914912,53.0412306 C19.798643,53.0242618 19.7057948,53.007293 19.6128093,52.9890926 C19.4986719,52.9678816 19.385496,52.9455759 19.2723201,52.9221754 C19.1805707,52.9030171 19.088684,52.8827641 18.9969346,52.8626479 C18.8858189,52.8381526 18.7748406,52.8125626 18.6648238,52.7860147 C18.5741732,52.7646669 18.4833852,52.7412664 18.3936961,52.7189606 C18.284778,52.6902232 18.1769587,52.6625805 18.0702382,52.6328851 C17.9805491,52.6083899 17.8919587,52.5838946 17.8043298,52.5583046 C17.6987081,52.5275145 17.5929491,52.4956296 17.4893877,52.4637447 C17.4018961,52.4361021 17.315366,52.4094173 17.2289732,52.3806798 C17.1265106,52.3477002 17.0239106,52.3126679 16.9225467,52.2774987 C16.8382142,52.2478034 16.7538817,52.2179712 16.6706479,52.1882758 C16.5702455,52.1509171 16.4709419,52.1136953 16.3727371,52.0755155 C16.2904648,52.0434938 16.2094287,52.0116089 16.129354,51.9797241 C16.0310118,51.9393548 15.9350046,51.8978908 15.83886,51.8573847 C15.7609829,51.8233103 15.682007,51.7893727 15.6050914,51.7552983 C15.5100456,51.7116448 15.4171974,51.6670333 15.3243492,51.6233797 C15.2496311,51.5872527 15.1749131,51.5520835 15.1011564,51.5159564 C15.0083082,51.4691555 14.9186191,51.4212597 14.8278311,51.3735008 C14.7575083,51.3361421 14.6869107,51.2989203 14.6175492,51.2607405 C14.6025781,51.2532141 14.5887058,51.2436349 14.5738721,51.2362453 C18.7417394,49.8193524 19.3865948,48.6100533 20.092296,46.7549828 Z M19.0694551,40.6185803 C19.0651972,40.6132434 19.0598406,40.6079064 19.0555828,40.6036642 C18.9307322,40.4494399 18.8132985,40.2898787 18.697925,40.1282648 C18.5037129,39.8527958 18.322137,39.5676109 18.1588286,39.2740784 C18.156631,39.2698362 18.153472,39.2644993 18.1503129,39.2602571 C18.1492141,39.2580675 18.1460551,39.2528674 18.1417973,39.2464357 C18.1417973,39.2442462 18.1406985,39.2432883 18.1395997,39.2410988 C18.1353419,39.2337091 18.1288864,39.2219405 18.1214696,39.2092139 C18.119272,39.2060664 18.1183105,39.2038769 18.1172117,39.1996347 C18.059525,39.0985063 18.002937,38.9921777 17.9506069,38.8836597 C17.9485467,38.8794175 17.9431901,38.8709331 17.9389322,38.8645014 C17.9378334,38.8613539 17.9367346,38.8582065 17.9346744,38.8550591 C17.9143467,38.8167425 17.8962166,38.7752785 17.8769876,38.7327197 L17.8566599,38.6890661 C17.8545997,38.6859187 17.8535009,38.6826344 17.8524021,38.679487 C17.8502045,38.6772975 17.8492431,38.67415 17.8481443,38.6710026 C17.8353708,38.6411704 17.8214985,38.6113382 17.8076262,38.5805481 C17.7958142,38.5550949 17.7841395,38.5284101 17.7734262,38.502957 C17.3634383,37.5381999 16.8008552,35.6564446 17.6452792,33.8971655 C18.3840816,32.3591648 20.0388671,31.2156882 22.563761,30.4987574 C22.6682838,30.4689251 22.7718453,30.4392298 22.8744453,30.4093976 C22.9064477,30.3998184 22.9373513,30.3902393 22.9693537,30.3806601 C23.0388525,30.3604071 23.108214,30.3391961 23.1775754,30.318943 C23.2160332,30.3073112 23.2544911,30.2944478 23.2940477,30.282816 C23.3537947,30.2647524 23.4146404,30.2455941 23.4732886,30.2275306 C23.5150429,30.2146672 23.5544621,30.2019406 23.5949802,30.189214 C23.6517055,30.1711505 23.7092549,30.1530869 23.764744,30.1348866 C23.8053995,30.1210652 23.8459175,30.1083386 23.8854742,30.095612 C23.9398645,30.0775485 23.9943922,30.059485 24.0487826,30.0412846 C24.0893007,30.0276001 24.1299561,30.0136419 24.1693754,29.9998206 C24.2228043,29.9828518 24.2751344,29.9647882 24.3263657,29.9467247 C24.365785,29.9329034 24.4053416,29.919082 24.4448982,29.9052607 C24.4961296,29.8870603 24.5473609,29.8689968 24.5985922,29.8509332 L24.7138283,29.8094692 C24.7640982,29.7914057 24.8142308,29.7733421 24.8634018,29.7541838 C24.9007609,29.7403625 24.9381199,29.7265411 24.9754789,29.7127198 C25.0245127,29.6935615 25.0736838,29.675498 25.121756,29.6572976 C25.1580163,29.6425183 25.1942765,29.628697 25.2305368,29.6148756 C25.278609,29.5957173 25.3266813,29.576559 25.3747536,29.5574007 C25.4099151,29.5435794 25.4441151,29.5297581 25.4794139,29.5159367 L25.6203343,29.4584618 C25.654397,29.4446405 25.6874982,29.4308191 25.7205994,29.4169978 C25.7686717,29.3967447 25.8156452,29.3764917 25.8615199,29.3563755 C25.8935223,29.3425541 25.9245632,29.3296907 25.9554669,29.3158694 C26.0035391,29.2957532 26.0505126,29.2744053 26.0985849,29.2531944 C26.1263295,29.2404678 26.1551729,29.2276044 26.1840162,29.2148778 C26.2341488,29.192572 26.2831825,29.1691715 26.3312548,29.146729 C26.3558403,29.1350971 26.3815247,29.1244232 26.4050114,29.1127914 C26.4594018,29.0872014 26.5128307,29.0617482 26.5661223,29.0361582 C26.5842524,29.0265791 26.6025198,29.0180947 26.62065,29.0096103 C26.6911102,28.9755359 26.7604716,28.9405036 26.8277728,28.9053344 C26.8287343,28.9053344 26.8287343,28.9053344 26.8287343,28.9053344 C26.8991945,28.8703021 26.9675945,28.8340382 27.0358572,28.7979111 C27.0380548,28.7957216 27.0412138,28.7947637 27.0445102,28.7925742 C27.1074162,28.7595945 27.1693608,28.7255201 27.2302066,28.6915826 C27.2462764,28.6830982 27.262209,28.673519 27.2793776,28.6639399 C27.3263511,28.6383499 27.3733246,28.611802 27.4181005,28.5851172 C27.4384282,28.5734854 27.4576572,28.5617167 27.4768861,28.5500849 C27.5185029,28.5255896 27.5601198,28.5010944 27.5995391,28.476736 C27.6209656,28.4638725 27.6412933,28.4511459 27.6625825,28.4384194 C27.6999415,28.4150189 27.7383993,28.3916184 27.7746596,28.3682179 C27.7960861,28.3543965 27.8173752,28.3405752 27.8388017,28.3267539 C27.8739632,28.3043113 27.9091246,28.2820056 27.9433246,28.2586051 C27.9647511,28.2447837 27.9849415,28.2298676 28.006368,28.2160463 C28.0394692,28.1926458 28.0725704,28.1703401 28.1045728,28.1480343 C28.125862,28.1331182 28.1461897,28.1182021 28.1665174,28.1043808 C28.1985198,28.082075 28.2294234,28.0586746 28.2593656,28.0363688 C28.2796933,28.0214527 28.300021,28.0065366 28.3191125,27.9916205 C28.3490547,27.9693148 28.3789969,27.947009 28.4078403,27.9236086 C28.4269318,27.9086925 28.4461607,27.8937764 28.4653896,27.8788602 C28.494233,27.8554598 28.5219776,27.833154 28.5497222,27.8108483 C28.5678523,27.7948374 28.5861198,27.7799213 28.6042499,27.7651421 C28.6319945,27.7417416 28.6586402,27.7183411 28.685286,27.6958985 C28.7024547,27.6811193 28.719486,27.6651084 28.7365173,27.6501923 C28.7622017,27.6267918 28.787886,27.6033913 28.813433,27.5799908 C28.8295029,27.5650747 28.8454354,27.5501586 28.8615053,27.5353794 C28.8860908,27.5108841 28.9106764,27.4874836 28.9351246,27.4629884 L28.978939,27.4193348 C29.0035246,27.3938816 29.0279728,27.3693864 29.0514595,27.3437964 C29.0643703,27.329975 29.0782426,27.3161537 29.0910161,27.3023324 C29.0943125,27.2991849 29.0974716,27.2949427 29.1006306,27.2917953 C29.1113438,27.3098588 29.1230185,27.3268276 29.1348306,27.3448911 C29.166833,27.3959343 29.1977366,27.4480723 29.2298764,27.5002102 C29.2661366,27.5608325 29.3023968,27.6225496 29.3387944,27.6842667 C29.369698,27.7384573 29.3995029,27.7927848 29.429445,27.8469754 C29.463645,27.9097872 29.4967462,27.9715043 29.5298474,28.0352741 C29.5586908,28.0905594 29.5875342,28.1480343 29.6151414,28.2044145 C29.6472812,28.2681842 29.6781848,28.331954 29.7092257,28.3958606 C29.7358715,28.4542934 29.7625173,28.5117683 29.7893004,28.5703379 C29.8181438,28.6352024 29.8468498,28.7011617 29.8745944,28.767121 C29.9002788,28.8266486 29.9259631,28.8861761 29.9494498,28.9467985 C29.9771944,29.0127577 30.0027414,29.0798118 30.0284257,29.146729 C30.0519125,29.2074881 30.0743004,29.2690684 30.0966884,29.3307855 C30.1212739,29.3978395 30.1458595,29.4669462 30.1693462,29.535095 C30.1895366,29.59777 30.2109631,29.6594871 30.2312908,29.7232569 C30.2536787,29.7925004 30.2749679,29.8616071 30.2952956,29.9318086 C30.3145245,29.9955784 30.3337534,30.0583902 30.3518836,30.12216 C30.3722113,30.1934562 30.3903414,30.2647524 30.4095703,30.3370066 C30.4266016,30.4009132 30.4426715,30.464683 30.458604,30.5284527 C30.4767342,30.6019385 30.492804,30.6752874 30.5098354,30.7486363 C30.5237076,30.8125429 30.5386787,30.8774074 30.552551,30.9411772 C30.5675221,31.0167156 30.5813944,31.092254 30.5963655,31.1677924 C30.6080402,31.2315622 30.620951,31.2954688 30.6315269,31.3603333 C30.6444378,31.4379244 30.6561125,31.5156524 30.6679245,31.5932435 C30.677539,31.6570132 30.6881149,31.7209198 30.6967679,31.7846896 C30.7084426,31.865565 30.7169582,31.9464404 30.7265727,32.0271789 C30.7341269,32.088896 30.7415438,32.1506131 30.7479992,32.2134249 C30.7565149,32.2985425 30.7639317,32.3857128 30.7703872,32.4719251 C30.7757438,32.5292631 30.7811004,32.5878328 30.7853582,32.6462656 C30.7916763,32.7420571 30.7960715,32.8388065 30.8003293,32.9355559 C30.8023896,32.9845464 30.8055486,33.0335369 30.8077462,33.0823905 C30.812004,33.2292252 30.8151631,33.3749651 30.8151631,33.5227577 C30.8151631,36.2021823 29.9749968,38.7752785 28.5049463,40.5866954 L28.4857174,40.6132434 C27.1896885,42.1948976 25.5177343,43.0660527 23.7754573,43.0660527 C22.0363393,43.0660527 20.3654839,42.1970871 19.0694551,40.6185803 Z M37.5509146,57.1060738 L37.5509146,53.8094783 C36.6424857,52.7282661 35.3604665,51.6902969 33.5556955,50.9947139 C33.4084569,50.9362811 33.2664377,50.8841432 33.1223581,50.8351527 C29.1529607,49.4875033 28.5380475,48.3611323 27.9571969,46.8624061 C30.3785293,46.6199168 32.2788955,46.1550544 33.6037678,45.4775349 C34.0522135,45.2487301 34.3575412,44.8158895 34.4204473,44.3222896 C34.5262063,43.4852089 34.7364882,41.5162834 34.7364882,39.0868745 C34.7364882,34.190698 33.8824497,27.4246718 29.5992089,24.2921534 C29.4571896,24.0485693 29.2703944,23.8156592 29.0493993,23.6113496 C28.2007174,22.8328385 25.8786885,22 23.7754573,22 C21.1011273,22 18.8773033,22.9423145 17.164831,24.8006693 C12.3339782,30.0466215 12.8710143,41.0323995 13.1506577,44.2743939 C13.1966698,44.7987838 13.5040577,45.2540671 13.9748914,45.4913563 C15.2977034,46.1592966 17.1883178,46.6199168 19.5937177,46.8624061 C19.0139659,48.3600376 18.3990527,49.4875033 14.4296553,50.8351527 C14.2844769,50.8841432 14.1424577,50.9362811 13.9952191,50.9947139 C12.1903108,51.6908443 10.9077421,52.7289503 10,53.8096151 L10,57.1060738 L37.5509146,57.1060738 L37.5509146,57.1060738 Z" id="Fill-8" fill="#737373"></path>
                    <g id="Group" transform="translate(12.000000, 58.000000)" fill="#000000">
                        <path d="M21.3781551,1.39217175 C21.1020595,1.44411548 20.880949,1.56226919 20.7062444,1.75029087 C20.4933232,1.97928227 20.3704841,2.29679748 20.3030201,2.63552916 C20.7639593,2.3802001 21.1402761,2.01330175 21.3781551,1.39217175 M3.81410672,3.70403372 C3.75951154,3.80426317 3.7170053,3.89754241 3.68736792,3.98350564 C3.76887072,3.94838875 3.85076348,3.91217445 3.93226628,3.87449696 C3.91588773,3.82328482 3.90106904,3.76987789 3.88781021,3.71464194 C3.86363235,3.70915493 3.83906452,3.70586272 3.81410672,3.70403372 M17.5022875,4.48209232 C17.6340958,4.48977414 17.7748734,4.48538453 17.9277399,4.46928929 C17.9421686,4.34418537 17.949578,4.22639746 17.9464582,4.11153597 C17.8064606,4.22566586 17.6567138,4.34967238 17.5022875,4.48209232 M4.42869243,4.05959223 C4.52033433,4.21908144 4.63849389,4.33430874 4.78473097,4.40856633 C5.12049131,4.57902957 5.6028787,4.52415943 6.12972215,4.37820486 C6.2775191,4.30065505 6.41010738,4.21322863 6.51890777,4.11812038 C7.0562803,3.64733457 7.20641704,2.85683873 7.35148422,2.09268056 C7.35577384,2.0700009 7.36006346,2.04768704 7.36435308,2.02500738 C6.54191574,2.80233439 5.51708628,3.51930424 4.42869243,4.05959223 M3.65305095,4.40893213 C3.67839871,4.48757934 3.72636447,4.55342351 3.7973382,4.60536724 C3.98335177,4.74181099 4.31053287,4.79082832 4.68333993,4.76924606 C4.65487245,4.75754043 4.62679493,4.7443716 4.59949734,4.73047116 C4.38384639,4.62109668 4.21109165,4.45173084 4.08162309,4.22420266 C3.93967563,4.28894942 3.79694824,4.35040398 3.65305095,4.40893213 M15.0494042,8 C15.0345855,8 15.0197668,7.9985368 15.0049481,7.99524459 C14.9136962,7.97512554 14.8509117,7.89720993 14.8548114,7.80941771 C14.8852287,7.13561237 15.1952513,6.48594989 15.6253833,5.89298656 C15.878081,5.12517038 16.0508357,4.32516372 15.9802519,3.69086488 C15.606275,4.19640179 15.085281,4.52598844 14.4765448,4.63499712 C14.4145403,4.64560534 14.3525357,4.6287785 14.3069098,4.5889062 C14.2612838,4.5490339 14.2386658,4.49160315 14.2460751,4.4334408 C14.2655734,4.28236501 14.2433454,4.10056194 14.2215073,3.92461168 C14.2160478,3.87925237 14.2101983,3.83352725 14.2051288,3.78780213 C13.771877,4.18542776 13.4248077,4.63207071 13.229435,5.05091279 C13.1884886,5.13833922 13.0828079,5.18113793 12.9872663,5.15041065 C12.8909449,5.11931757 12.8367396,5.02420932 12.8620874,4.93166168 C12.9174625,4.72973956 12.8772961,4.48355553 12.8382995,4.24541911 C12.8273805,4.17774594 12.8164614,4.11153597 12.8074922,4.0467892 C12.6230385,4.17408793 12.4912302,4.34199056 12.3539623,4.51684341 C12.0720172,4.87605994 11.7514655,5.28319639 10.9547659,5.1719929 C10.8506451,5.15699506 10.7777215,5.06810544 10.7894205,4.97043658 C10.8346565,4.59512481 10.9099199,4.11775458 10.9945424,3.659406 C10.4712086,4.07276107 9.79305853,4.52672004 9.05056412,4.81826339 C8.97803053,4.84679586 8.89418794,4.83143222 8.83842286,4.77985429 C8.78265779,4.72791056 8.76510934,4.64999496 8.79396679,4.58159018 C8.89925749,4.33504034 8.91095645,4.20957062 8.92070559,4.10860956 C8.93279452,3.97765282 8.9522928,3.88254458 9.0361354,3.76183026 C8.62238195,3.84413548 8.1158167,4.04313119 7.58858328,4.25017452 C7.14441251,4.42466157 6.69478224,4.60134343 6.26543017,4.72315515 C5.40672603,5.15077645 4.1369982,5.31867908 3.55711942,4.89361838 C3.44792907,4.81350798 3.3457581,4.70193869 3.28882313,4.54866809 C2.22460714,4.93458809 1.1463524,5.12224397 0.172218453,5.0143327 C0.0649779273,5.00226127 -0.0114553204,4.91117683 0.00141354274,4.81094737 C0.0142824059,4.71071791 0.110993862,4.63865513 0.218234388,4.65109236 C1.14908216,4.75534563 2.203549,4.55634991 3.24865667,4.16091909 C3.27127468,3.96338658 3.35355741,3.72451857 3.52436232,3.43736483 C3.55438966,3.3868843 3.60781495,3.35249901 3.66864957,3.34481719 C3.83204514,3.32433234 3.99037115,3.34664619 4.13855806,3.41102716 C4.19588299,3.43590162 4.23682938,3.48528475 4.24852834,3.5434471 C4.25983734,3.59978045 4.27231624,3.65355319 4.28596504,3.70439952 C5.51864614,3.08546432 6.6725542,2.23387972 7.51448982,1.334741 C7.67749542,0.723853426 7.94267199,0.19819747 8.55803763,0.0087125809 C8.63330098,-0.0136012767 8.71636364,0.00761517807 8.7678391,0.0646801253 C8.81892458,0.121745073 8.82789379,0.20222128 8.79084706,0.26806545 C8.55764767,0.682152119 8.2437254,1.1024574 7.86818857,1.51361766 C7.81944288,1.71480818 7.77810653,1.93172814 7.73560029,2.15669572 C7.61393104,2.79757898 7.47861299,3.50796441 7.08942737,4.04898401 C7.206807,4.00362469 7.32301674,3.95789957 7.43766661,3.91290605 C8.22188733,3.60453586 8.96126201,3.31408991 9.51852278,3.36127823 C9.5941761,3.36786265 9.65891038,3.41505097 9.68425814,3.48235834 C9.70999587,3.54966572 9.69127752,3.62502071 9.63668234,3.67440384 C9.32626976,3.95826537 9.32159018,4.0076485 9.30911128,4.14080004 C9.30482166,4.18835417 9.29936214,4.24322431 9.28649328,4.31126328 C10.0410766,3.94655974 10.7055779,3.43114621 11.1555982,3.03571539 C11.2172127,2.98121105 11.3096345,2.97096862 11.383338,3.00901192 C11.4574315,3.04778682 11.496428,3.12643403 11.4800495,3.20434963 C11.3739789,3.71171554 11.2667383,4.33686935 11.2008342,4.82484781 C11.6188772,4.83106642 11.8041109,4.60097763 12.04004,4.29992345 C12.2459418,4.03764418 12.4795312,3.74024801 12.9131729,3.57600339 C12.9755674,3.55222632 13.0465411,3.56063975 13.1003564,3.59758564 C13.1549515,3.63416574 13.1853688,3.69488869 13.1806893,3.75744065 C13.1725,3.87669176 13.1974578,4.02886495 13.2235855,4.18981737 C13.229435,4.22383686 13.2348945,4.25785634 13.240354,4.29297324 C13.5109901,3.92351428 13.8635189,3.56027394 14.2636236,3.24422193 C14.3244582,3.1959362 14.4102506,3.18679118 14.4808344,3.22263967 C14.5510282,3.25775656 14.5915846,3.32945355 14.5830054,3.40371114 C14.5670168,3.5430813 14.587295,3.70805753 14.6091331,3.88291038 C14.6223919,3.99338226 14.6364307,4.10568315 14.6415002,4.21761824 C15.1734132,4.05227621 15.6097847,3.66672202 15.8862702,3.11107039 C15.9198073,3.04376301 15.9876613,3.0005985 16.0726738,3.00571971 C16.1514468,3.00901192 16.2204707,3.05729765 16.2469884,3.12753143 C16.4536701,3.67696445 16.4111639,4.3968607 16.2364593,5.16028727 C16.3975151,4.98872663 16.5632504,4.82448201 16.7293758,4.6686508 C16.7102674,4.66023738 16.6915491,4.65145816 16.6732207,4.64231314 C16.6201854,4.61670707 16.5831387,4.56988455 16.5714397,4.51538021 C16.5601307,4.46051007 16.5757293,4.40381092 16.613946,4.36174381 C17.2655784,3.64111595 18.1231126,3.3861527 18.9525694,3.13923706 C19.2758508,3.04303141 19.5866533,2.95048377 19.8752278,2.83562227 C19.9368424,2.33301178 20.0908788,1.85637315 20.4122104,1.50995965 C20.7132638,1.18586002 21.1285771,1.01320197 21.6468413,0.997106731 C21.7057261,0.989424911 21.7677307,1.02088379 21.8063372,1.06624311 C21.8445539,1.11160243 21.8574227,1.17159378 21.8414341,1.22792713 C21.5450603,2.25070657 20.9421736,2.75624347 20.2437453,3.0777825 C20.2098183,3.52442545 20.2445252,3.95899697 20.2729927,4.23554249 C20.6902558,4.28638882 21.1207778,4.32589532 21.5173728,4.31565289 C21.5629987,4.22786067 21.6191538,4.16055329 21.6753088,4.10897536 C21.8535231,3.94582814 22.2029322,3.78670473 22.8569044,3.95607057 C22.9263183,3.97399481 22.9797436,4.02630435 22.9953422,4.09251432 C23.0109408,4.15835849 22.986763,4.22712907 22.9317778,4.27139098 C22.6373538,4.50733259 22.2473883,4.62073088 21.8149165,4.66243219 C21.8020476,4.76741706 21.8098469,4.89032618 21.8387044,5.02823313 C21.9853314,5.06115522 22.0566951,5.0150643 22.1725149,4.94336731 C22.2263301,4.90934783 22.2805354,4.87605994 22.3402001,4.85008807 C22.4373015,4.80619196 22.5535112,4.84606426 22.5995272,4.9375145 C22.6455431,5.02896473 22.6038168,5.13797342 22.5063254,5.18077213 C22.4645991,5.19942797 22.4263825,5.22393664 22.3881658,5.2477137 C22.2267201,5.34830896 22.0063896,5.48694752 21.6023853,5.34062714 C21.5431105,5.31941068 21.4990444,5.27222236 21.4834458,5.21442581 C21.4276807,5.00482187 21.4113021,4.82923742 21.4210513,4.68218544 C20.9811701,4.68072224 20.5124316,4.63572872 20.0682608,4.57902957 C19.9789587,4.56768974 19.9095448,4.50074817 19.9005756,4.41697976 C19.8611891,4.06434765 19.8288219,3.65355319 19.8436406,3.24092972 C19.5897731,3.33347736 19.3292761,3.41102716 19.070339,3.48784536 C18.8106219,3.56502936 18.5477851,3.64331076 18.2911878,3.7373216 C18.3602117,4.04166799 18.3434432,4.32552952 18.2966473,4.65548197 C18.2853383,4.73595818 18.2186542,4.79960754 18.1332517,4.81241058 C17.7596647,4.86691492 17.4344335,4.86398851 17.1400095,4.80216815 C16.7336654,5.17345611 16.3206919,5.5952246 15.9841516,6.04808616 C15.7700605,6.69043262 15.4959147,7.32912107 15.2276184,7.89172292 C15.1956413,7.95866449 15.1250575,8 15.0494042,8" id="Fill-218"></path>
                    </g>
                </g>
            </g>
        </g>
    </g>
</svg>