<?xml version="1.0" encoding="UTF-8"?>
<svg width="104px" height="54px" viewBox="0 0 104 54" version="1.1" xmlns="http://www.w3.org/2000/svg" xmlns:xlink="http://www.w3.org/1999/xlink">
    <!-- Generator: Sketch 51.2 (57519) - http://www.bohemiancoding.com/sketch -->
    <title>Group 4</title>
    <desc>Created with Sketch.</desc>
    <defs>
        <polygon id="path-1" points="5.49019608e-05 0.44827561 27.8357093 0.44827561 27.8357093 46 5.49019608e-05 46"></polygon>
        <polygon id="path-3" points="0 0.0043902439 64.9127081 0.0043902439 64.9127081 53.9999122 0 53.9999122"></polygon>
        <polygon id="path-5" points="0 54 65 54 65 0 0 0"></polygon>
    </defs>
    <g id="Answer-Questions-about-your-credit-report" stroke="none" stroke-width="1" fill="none" fill-rule="evenodd">
        <g id="40" transform="translate(-689.000000, -480.000000)">
            <g id="States" transform="translate(434.000000, -300.000000)">
                <g id="Group-7" transform="translate(230.000000, 780.000000)">
                    <g id="Group-5">
                        <g id="Group-4" transform="translate(25.000000, 0.000000)">
                            <g id="Group-6" transform="translate(0.000000, 8.000000)">
                                <g id="Group-3">
                                    <mask id="mask-2" fill="white">
                                        <use xlink:href="#path-1"></use>
                                    </mask>
                                    <g id="Clip-2"></g>
                                    <path d="M1.86672157,3.00744634 L1.86672157,31.4354463 C1.86672157,37.8524463 6.53503529,43.4330317 12.7872706,44.0360805 C19.9448392,44.7277634 26.0235843,38.9295195 26.0235843,31.7512756 L26.0235843,10.5806171 C26.0235843,10.2204707 25.7380941,9.92876341 25.3856235,9.92876341 L6.23801569,9.92876341 C5.8855451,9.92876341 5.6000549,9.6370561 5.6000549,9.27747073 L5.6000549,3.00744634 C5.6000549,2.6473 5.31456471,2.35559268 4.96209412,2.35559268 L2.50468235,2.35559268 C2.15221176,2.35559268 1.86672157,2.6473 1.86672157,3.00744634 M14.9163686,45.9658366 C6.72444706,46.5447634 5.49019608e-05,39.7625683 5.49019608e-05,31.3720561 L5.49019608e-05,1.81537317 C5.49019608e-05,1.0603 0.599035294,0.44827561 1.33801569,0.44827561 L6.07385882,0.44827561 C6.81283922,0.44827561 7.41181961,1.0603 7.41181961,1.81537317 L7.41181961,7.98610488 C7.41181961,8.00573902 7.42719216,8.02144634 7.44640784,8.02144634 L26.4973882,8.02144634 C27.2358196,8.02144634 27.835349,8.63347073 27.835349,9.3885439 L27.835349,31.7512756 C27.8880549,39.2711537 22.151898,45.4542268 14.9163686,45.9658366" id="Fill-1" fill="#000000" mask="url(#mask-2)"></path>
                                </g>
                                <path d="M7.76413888,23.9901478 L20.130422,23.9901478 C20.148782,23.9901478 20.1639946,23.9735961 20.1639946,23.9529064 L20.1639946,16.0465025 C20.1639946,16.0264039 20.148782,16.0098522 20.130422,16.0098522 L7.76413888,16.0098522 C7.74577883,16.0098522 7.73161536,16.0264039 7.73161536,16.0465025 L7.73161536,23.9529064 C7.73161536,23.9735961 7.74577883,23.9901478 7.76413888,23.9901478 Z M21.9470181,26 L6.0330481,26 C6.01521262,26 6,25.9834483 6,25.9627586 L6,14.0372414 C6,14.0165517 6.01521262,14 6.0330481,14 L21.9664273,14 C21.9847874,14 22,14.0165517 22,14.0372414 L22,26 L21.9470181,26 Z" id="Fill-4" fill="#000000"></path>
                            </g>
                            <g id="Group-16" transform="translate(39.000000, 0.000000)">
                                <g id="Group-3">
                                    <mask id="mask-4" fill="white">
                                        <use xlink:href="#path-3"></use>
                                    </mask>
                                    <g id="Clip-2"></g>
                                    <path d="M62.7315,47.6340585 C62.7315,49.9301561 60.8731107,51.8047902 58.5872047,51.8047902 L6.32545973,51.8047902 C4.03955369,51.8047902 2.18116443,49.9301561 2.18116443,47.6340585 L2.18116443,12.9730829 C2.18116443,10.9447902 3.62076174,9.25454634 5.52713758,8.88137561 L5.52713758,42.2999122 C5.52713758,45.8121073 8.36270805,48.6657659 11.8526409,48.6657659 L17.2794866,48.6657659 C20.765057,48.6657659 23.6049899,45.8121073 23.6049899,42.2999122 L23.6049899,8.80235122 L58.5872047,8.80235122 C60.8731107,8.80235122 62.7315,10.6725951 62.7315,12.9730829 L62.7315,47.6340585 Z M7.70834564,6.3701561 C7.70834564,4.06966829 9.5667349,2.19942439 11.8526409,2.19942439 L17.2794866,2.19942439 C19.5610302,2.19942439 21.4237819,4.06966829 21.4237819,6.3701561 L21.4237819,42.2999122 C21.4237819,44.6004 19.5610302,46.4706439 17.2794866,46.4706439 L11.8526409,46.4706439 C9.5667349,46.4706439 7.70834564,44.6004 7.70834564,42.2999122 L7.70834564,6.3701561 Z M58.5872047,6.60722927 L23.6049899,6.60722927 L23.6049899,6.3701561 C23.6049899,2.85796098 20.765057,0.00430243902 17.2794866,0.00430243902 L11.8526409,0.00430243902 C8.36270805,0.00430243902 5.52713758,2.85796098 5.52713758,6.3701561 L5.52713758,6.6599122 C2.4167349,7.05942439 -4.36241611e-05,9.73308293 -4.36241611e-05,12.9730829 L-4.36241611e-05,47.6340585 C-4.36241611e-05,51.1418634 2.83552685,53.9999122 6.32545973,53.9999122 L58.5872047,53.9999122 C62.0771376,53.9999122 64.9127081,51.1418634 64.9127081,47.6340585 L64.9127081,12.9730829 C64.9127081,9.4608878 62.0771376,6.60722927 58.5872047,6.60722927 Z" id="Fill-1" fill="#000000" mask="url(#mask-4)"></path>
                                </g>
                                <path d="M31.5002547,19.2486059 C31.3210452,19.2486059 31.1696066,19.4055586 31.1696066,19.5912934 L31.1696066,24.4091563 C31.1696066,24.5948912 31.3210452,24.7513941 31.5002547,24.7513941 L49.4997453,24.7513941 C49.6789548,24.7513941 49.8303934,24.5948912 49.8303934,24.4091563 L49.8303934,19.5912934 C49.8303934,19.4055586 49.6789548,19.2486059 49.4997453,19.2486059 L31.5002547,19.2486059 Z M49.4997453,27 L31.5002547,27 C30.1216866,27 29,25.8379205 29,24.4091563 L29,19.5912934 C29,18.1620795 30.1216866,17 31.5002547,17 L49.4997453,17 C50.8783134,17 52,18.1620795 52,19.5912934 L52,24.4091563 C52,25.8379205 50.8783134,27 49.4997453,27 Z" id="Fill-4" fill="#000000"></path>
                                <mask id="mask-6" fill="white">
                                    <use xlink:href="#path-5"></use>
                                </mask>
                                <g id="Clip-7"></g>
                                <polygon id="Fill-6" fill="#000000" mask="url(#mask-6)" points="33 32 36 32 36 29 33 29"></polygon>
                                <polygon id="Fill-8" fill="#000000" mask="url(#mask-6)" points="39 32 42 32 42 29 39 29"></polygon>
                                <polygon id="Fill-9" fill="#000000" mask="url(#mask-6)" points="45 32 48 32 48 29 45 29"></polygon>
                                <polygon id="Fill-10" fill="#000000" mask="url(#mask-6)" points="33 38 36 38 36 35 33 35"></polygon>
                                <polygon id="Fill-11" fill="#000000" mask="url(#mask-6)" points="39 38 42 38 42 35 39 35"></polygon>
                                <polygon id="Fill-12" fill="#000000" mask="url(#mask-6)" points="45 38 48 38 48 35 45 35"></polygon>
                                <polygon id="Fill-13" fill="#000000" mask="url(#mask-6)" points="33 44 36 44 36 41 33 41"></polygon>
                                <polygon id="Fill-14" fill="#000000" mask="url(#mask-6)" points="39 44 42 44 42 41 39 41"></polygon>
                                <polygon id="Fill-15" fill="#000000" mask="url(#mask-6)" points="45 44 48 44 48 41 45 41"></polygon>
                            </g>
                        </g>
                    </g>
                </g>
            </g>
        </g>
    </g>
</svg>