<?xml version="1.0" encoding="UTF-8"?>
<svg width="37px" height="65px" viewBox="0 0 37 65" version="1.1" xmlns="http://www.w3.org/2000/svg" xmlns:xlink="http://www.w3.org/1999/xlink">
    <!-- Generator: Sketch 51.2 (57519) - http://www.bohemiancoding.com/sketch -->
    <title>Group 9</title>
    <desc>Created with Sketch.</desc>
    <defs>
        <polygon id="path-1" points="0 0.606738889 36.8113725 0.606738889 36.8113725 65 0 65"></polygon>
    </defs>
    <g id="Answer-Questions-about-your-credit-report" stroke="none" stroke-width="1" fill="none" fill-rule="evenodd">
        <g id="40" transform="translate(-521.000000, -471.000000)">
            <g id="States" transform="translate(434.000000, -300.000000)">
                <g id="Group-9" transform="translate(87.000000, 771.000000)">
                    <g id="Group-6">
                        <g id="Group-3">
                            <mask id="mask-2" fill="white">
                                <use xlink:href="#path-1"></use>
                            </mask>
                            <g id="Clip-2"></g>
                            <path d="M33.8082059,62.8334056 L3.00389216,62.8334056 C2.54828431,62.8290722 2.18046078,62.4629056 2.17610784,62.0100722 L2.17610784,54.2317389 L34.6417941,54.2317389 L34.6417941,62.0100722 C34.6381667,62.4657944 34.2659902,62.8334056 33.8082059,62.8334056 Z M3.00389216,2.77340556 L33.8082059,2.77340556 C34.2630882,2.77701667 34.6309118,3.14390556 34.6352647,3.59673889 L34.6352647,6.08118333 L2.17610784,6.08118333 L2.17610784,3.59673889 C2.18046078,3.14390556 2.54828431,2.77701667 3.00389216,2.77340556 Z M2.17610784,52.0650722 L34.6417941,52.0650722 L34.6417941,8.24785 L2.17610784,8.24785 L2.17610784,52.0650722 Z M33.8082059,0.606738889 L3.00389216,0.606738889 C1.34614706,0.61035 0.00399019608,1.94718333 -0.000362745098,3.59673889 L-0.000362745098,62.0100722 C0.00399019608,63.66035 1.34614706,64.9957389 3.00389216,65.0000722 L33.8082059,65.0000722 C35.4652255,64.9957389 36.8073824,63.66035 36.8117353,62.0100722 L36.8117353,3.59673889 C36.8073824,1.94718333 35.4652255,0.61035 33.8082059,0.606738889 Z" id="Fill-1" fill="#000000" mask="url(#mask-2)"></path>
                        </g>
                        <path d="M19,59.79575 C18.586,59.79575 18.25,59.45975 18.25,59.04575 C18.25,58.631 18.586,58.29575 19,58.29575 C19.414,58.29575 19.75,58.631 19.75,59.04575 C19.75,59.45975 19.414,59.79575 19,59.79575 M19,56 C17.34325,56 16,57.34325 16,59 C16,60.65675 17.34325,62 19,62 C20.65675,62 22,60.65675 22,59 C22,57.34325 20.65675,56 19,56" id="Fill-4" fill="#000000"></path>
                    </g>
                </g>
            </g>
        </g>
    </g>
</svg>