<svg width="22" height="17" viewBox="0 0 22 17" fill="none" xmlns="http://www.w3.org/2000/svg">
<path d="M2.54516 14.9975C1.3435 13.7212 0.69833 12.2897 0.69833 9.96921C0.69833 5.88588 3.56483 2.22605 7.73333 0.416548L8.77516 2.02421C4.88433 4.12888 4.12366 6.86005 3.82033 8.58205C4.44683 8.25771 5.267 8.14455 6.07083 8.21921C8.1755 8.41405 9.8345 10.1419 9.8345 12.2897C9.8345 13.3727 9.40429 14.4113 8.63852 15.1771C7.87274 15.9428 6.83413 16.373 5.75116 16.373C4.49933 16.373 3.30233 15.8014 2.54516 14.9975ZM14.2118 14.9975C13.0102 13.7212 12.365 12.2897 12.365 9.96921C12.365 5.88588 15.2315 2.22605 19.4 0.416548L20.4418 2.02421C16.551 4.12888 15.7903 6.86005 15.487 8.58205C16.1135 8.25771 16.9337 8.14455 17.7375 8.21921C19.8422 8.41405 21.5 10.1419 21.5 12.2897C21.5 13.3727 21.0698 14.4113 20.304 15.1771C19.5382 15.9428 18.4996 16.373 17.4167 16.373C16.1648 16.373 14.9678 15.8014 14.2107 14.9975H14.2118Z" fill="#0E1154"/>
</svg>
