<svg width="22" height="17" viewBox="0 0 22 17" fill="none" xmlns="http://www.w3.org/2000/svg">
<path d="M19.4559 2.00201C20.6576 3.27834 21.3027 4.70984 21.3027 7.03034C21.3027 11.1137 18.4362 14.7735 14.2677 16.583L13.2259 14.9753C17.1167 12.8707 17.8774 10.1395 18.1807 8.41751C17.5542 8.74184 16.7341 8.85501 15.9302 8.78034C13.8256 8.58551 12.1666 6.85767 12.1666 4.70984C12.1666 3.62687 12.5968 2.58826 13.3625 1.82248C14.1283 1.05671 15.1669 0.626505 16.2499 0.626505C16.8488 0.631739 17.4407 0.756045 17.9911 0.99219C18.5415 1.22833 19.0394 1.5716 19.4559 2.00201ZM7.78923 2.00201C8.9909 3.27834 9.63607 4.70984 9.63607 7.03034C9.63607 11.1137 6.76957 14.7735 2.60106 16.583L1.55923 14.9753C5.45007 12.8707 6.21073 10.1395 6.51407 8.41751C5.88757 8.74184 5.0674 8.85501 4.26357 8.78034C2.1589 8.58551 0.499901 6.85767 0.499901 4.70984C0.499901 3.62687 0.930107 2.58826 1.69588 1.82248C2.46165 1.05671 3.50027 0.626505 4.58323 0.626505C5.18213 0.631739 5.77401 0.756045 6.32441 0.99219C6.87481 1.22833 7.37275 1.5716 7.78923 2.00201Z" fill="#0E1154"/>
</svg>
