<?xml version="1.0" encoding="UTF-8"?>
<svg width="40" height="63" viewBox="0 0 40 63" fill="none" xmlns="http://www.w3.org/2000/svg">
<path d="M38 23.6147C38 23.6147 38.0247 10.1904 25.4417 6.55226C25.4417 6.55226 12.0433 3.14994 5.728 13.2349L1.93176 11.3865L4.99826 21.3397L14.7337 18.0421L11.9449 16.4309C11.9449 16.4309 15.3663 10.9599 24.42 13.3772C24.42 13.3772 31.1373 15.5099 31.5754 23.6147" fill="#F2FAFF"/>
<path d="M38 23.6147C38 23.6147 38.0247 10.1904 25.4417 6.55226C25.4417 6.55226 12.0433 3.14994 5.728 13.2349L1.93176 11.3865L4.99826 21.3397L14.7337 18.0421L11.9449 16.4309C11.9449 16.4309 15.3663 10.9599 24.42 13.3772C24.42 13.3772 31.1373 15.5099 31.5754 23.6147" stroke="#236AC9" stroke-width="2" stroke-miterlimit="10" stroke-linecap="round"/>
<path d="M1.93176 24.4536C1.93176 24.4536 1.90706 38.5172 14.4899 42.3286C14.4899 42.3286 27.8882 45.8929 34.2035 35.3277L38 37.2641L34.9335 26.8369L25.1982 30.2916L27.987 31.9795C27.987 31.9795 24.5656 37.711 15.512 35.1786C15.512 35.1786 8.79478 32.9444 8.35666 24.4536" fill="white"/>
<path d="M1.93176 24.4536C1.93176 24.4536 1.90706 38.5172 14.4899 42.3286C14.4899 42.3286 27.8882 45.8929 34.2035 35.3277L38 37.2641L34.9335 26.8369L25.1982 30.2916L27.987 31.9795C27.987 31.9795 24.5656 37.711 15.512 35.1786C15.512 35.1786 8.79478 32.9444 8.35666 24.4536" stroke="#2EA76D" stroke-width="2" stroke-miterlimit="10" stroke-linecap="round"/>
</svg>
