<?xml version="1.0" encoding="UTF-8"?>
<svg width="40" height="63" viewBox="0 0 40 63" fill="none" xmlns="http://www.w3.org/2000/svg">
<rect x="4" y="3.90161" width="27.0492" height="54.0984" rx="2" fill="white" stroke="#236AC9" stroke-width="2"/>
<rect x="4.90161" y="4.80322" width="25.2459" height="45.082" rx="1" fill="#F2FAFF"/>
<rect x="12.1147" y="3" width="10.8197" height="3.60656" rx="1" fill="#236AC9"/>
<g clip-path="url(#clip0_50_509)">
<path d="M18.4626 27.9644C18.4626 27.7194 18.4689 27.4744 18.4611 27.2301C18.4491 26.8619 18.2329 26.6239 17.9212 26.6211C17.6081 26.619 17.3954 26.8626 17.3946 27.2343C17.3939 27.6543 17.4151 28.075 17.3975 28.4936C17.3537 29.5121 16.7232 30.2058 15.7776 30.301C14.7909 30.4004 13.8651 29.9125 13.5011 28.9892C12.8834 27.4233 12.9053 25.8519 13.7704 24.3756C14.7775 22.6564 17.1035 21.8094 19.1686 22.3477C20.8189 22.7782 21.9483 23.7414 22.4353 25.406C22.7399 26.4462 22.8784 27.5003 22.8749 28.5783C22.8734 29.0417 23.0614 29.279 23.4226 29.2755C23.7767 29.272 23.9951 29.0284 23.959 28.5685C23.8876 27.6529 23.8438 26.7275 23.6643 25.8302C23.4445 24.7277 23.0579 23.6588 22.2119 22.8517C20.5397 21.2578 18.5382 20.779 16.314 21.3348C14.374 21.8199 12.9993 22.9847 12.3399 24.9041C11.8798 26.2446 11.9342 27.5892 12.3159 28.9283C12.5498 29.7508 13.0255 30.4165 13.7661 30.8841C15.244 31.8172 17.2314 31.421 18.0519 30.0224C18.4258 29.3847 18.5085 28.6847 18.4626 27.9644V27.9644ZM20.1376 28.3214L20.0697 28.3361C20.0287 28.8702 20.0238 29.4099 19.9404 29.937C19.7086 31.3965 18.9212 32.4094 17.4547 32.8503C16.7204 33.0715 15.9691 33.1044 15.2178 33.0365C13.6333 32.8944 12.3371 32.2225 11.448 30.8827C10.7681 29.8579 10.5525 28.6952 10.4755 27.4968C10.4529 27.1433 10.2479 26.941 9.92632 26.9445C9.61322 26.9473 9.39059 27.1692 9.4118 27.5178C9.44007 27.9931 9.4747 28.4726 9.56234 28.9402C9.90794 30.7728 10.7546 32.2904 12.4268 33.264C13.858 34.0977 15.4002 34.2986 17.0215 34.0452C18.4011 33.8296 19.5276 33.2087 20.3037 32.0321C20.7093 31.4168 20.9461 30.7343 21.0295 30.0098C21.1829 28.6742 21.2755 27.3323 20.8585 26.0234C20.4747 24.8201 19.6563 24.0452 18.3742 23.8821C17.0427 23.7127 15.9309 24.1285 15.2093 25.3164C14.6821 26.1837 14.7012 27.1426 14.8072 28.1002C14.8369 28.3683 15.0779 28.5062 15.3592 28.4845C15.6596 28.4614 15.8362 28.2822 15.8468 27.9854C15.861 27.6011 15.8299 27.2154 15.8511 26.8318C15.9076 25.8057 16.5868 25.0714 17.589 24.9307C18.6025 24.7879 19.4951 25.287 19.7842 26.2705C19.9786 26.9319 20.0252 27.6361 20.1376 28.3214V28.3214ZM25.7245 23.4467C25.5775 23.1254 25.4821 22.8748 25.3528 22.6431C23.2501 18.8569 18.0654 17.2392 14.058 19.1593C11.6699 20.3038 10.1412 22.1615 9.62241 24.7753C9.53901 25.196 9.70864 25.4613 10.0535 25.5145C10.3737 25.5642 10.6098 25.3542 10.6854 24.9566C10.9193 23.7225 11.4593 22.634 12.3314 21.7261C14.1782 19.804 16.4532 19.0823 19.0711 19.5485C21.1914 19.9258 22.9469 20.9477 24.164 22.7621C24.3386 23.0225 24.4644 23.3151 24.6149 23.5916C24.7485 23.8359 24.9697 23.9738 25.227 23.8667C25.4157 23.7883 25.5556 23.5944 25.7245 23.446V23.4467ZM26.5415 28.0092C26.5027 27.5269 26.4454 26.7135 26.3698 25.9023C26.3408 25.5873 26.0793 25.3857 25.7895 25.4137C25.5033 25.4417 25.3061 25.6545 25.3075 25.9604C25.3089 26.1697 25.3316 26.379 25.3542 26.5875C25.5945 28.8072 25.4121 30.9877 24.6792 33.1037C24.0014 35.0609 22.812 36.6072 20.8302 37.4122C20.1425 37.6915 19.3912 37.8217 18.6654 38.0051C18.3961 38.073 18.2166 38.2095 18.1848 38.486C18.1544 38.7485 18.2774 38.9536 18.5269 39.0327C18.676 39.0802 18.8555 39.0698 19.0145 39.0446C21.8027 38.605 23.9025 37.2008 25.1796 34.6752C26.1867 32.6838 26.4963 30.5404 26.5415 28.0092V28.0092ZM15.9543 36.9551C16.6752 36.8613 17.4095 36.8249 18.1141 36.6639C20.8931 36.0304 22.7943 34.4281 23.5837 31.6527C23.7074 31.2173 23.576 30.9338 23.224 30.8386C22.9017 30.7518 22.6692 30.9317 22.5455 31.3671C22.2536 32.3968 21.7624 33.3123 20.9687 34.0515C19.6061 35.3199 17.936 35.7868 16.1211 35.8281C14.7768 35.8589 13.4813 35.5873 12.236 35.0819C11.884 34.9391 11.6204 35.0119 11.4671 35.2723C11.2889 35.5761 11.4133 35.8974 11.7929 36.0563C13.1195 36.6114 14.5047 36.8907 15.9543 36.9544V36.9551ZM17.7042 15.6229C17.0858 15.6901 16.4603 15.7195 15.8504 15.8315C14.275 16.1206 12.8502 16.7604 11.5801 17.7327C11.3469 17.9112 11.2536 18.1275 11.3617 18.4047C11.5031 18.7652 11.9052 18.8338 12.265 18.565C13.8135 17.4058 15.5564 16.7737 17.4985 16.7359C19.4315 16.6981 21.2203 17.1916 22.8438 18.2472C23.1597 18.4523 23.477 18.4089 23.6544 18.1569C23.8495 17.8797 23.7724 17.585 23.441 17.3533C23.3639 17.2994 23.2841 17.2497 23.2042 17.2007C21.52 16.1717 19.6874 15.6642 17.7042 15.6229Z" fill="white"/>
<path d="M18.4626 27.9644C18.5086 28.6847 18.4259 29.3847 18.052 30.0224C17.2314 31.421 15.244 31.8172 13.7662 30.8841C13.0255 30.4165 12.5499 29.7508 12.3159 28.9283C11.935 27.5892 11.8799 26.2445 12.34 24.9041C12.9994 22.9847 14.3733 21.8199 16.3141 21.3348C18.5382 20.779 20.5398 21.2578 22.212 22.8517C23.0587 23.6588 23.4446 24.7277 23.6644 25.8302C23.8432 26.7275 23.8877 27.6529 23.9591 28.5685C23.9951 29.0284 23.7768 29.272 23.4227 29.2755C23.0615 29.279 22.8728 29.0424 22.8749 28.5783C22.8785 27.5003 22.7406 26.4461 22.4353 25.406C21.9477 23.7414 20.819 22.7775 19.1687 22.3477C17.1035 21.8094 14.7776 22.6564 13.7704 24.3756C12.9054 25.8519 12.8835 27.424 13.5012 28.9892C13.8652 29.9125 14.791 30.4004 15.7776 30.301C16.7233 30.2058 17.3537 29.5121 17.3975 28.4936C17.4159 28.0743 17.394 27.6536 17.3947 27.2343C17.3954 26.8633 17.6082 26.619 17.9212 26.6211C18.2336 26.6232 18.4499 26.8612 18.4612 27.2301C18.469 27.4744 18.4626 27.7194 18.4626 27.9644Z" fill="#236AC9"/>
<path d="M20.1369 28.3208C20.0245 27.6355 19.9779 26.9313 19.7835 26.2698C19.4944 25.2863 18.6018 24.7872 17.5883 24.93C16.5861 25.0714 15.9069 25.805 15.8504 26.8312C15.8292 27.2148 15.8603 27.6012 15.8461 27.9848C15.8348 28.2816 15.6589 28.4601 15.3585 28.4839C15.0772 28.5056 14.8362 28.3677 14.8065 28.0996C14.7005 27.1427 14.6814 26.183 15.2087 25.3157C15.9303 24.1278 17.042 23.712 18.3735 23.8814C19.6556 24.0445 20.474 24.8201 20.8578 26.0227C21.2755 27.331 21.1829 28.6729 21.0288 30.0091C20.9454 30.7336 20.7087 31.4161 20.303 32.0314C19.5262 33.2081 18.4004 33.8283 17.0208 34.0446C15.3995 34.298 13.858 34.0971 12.4261 33.2634C10.7539 32.2897 9.90725 30.7721 9.56164 28.9396C9.4733 28.472 9.43937 27.9932 9.4111 27.5172C9.39061 27.1686 9.61253 26.9467 9.92562 26.9439C10.2465 26.9411 10.4515 27.1427 10.4748 27.4962C10.5525 28.6946 10.7681 29.8572 11.4473 30.882C12.3364 32.2225 13.6326 32.8938 15.2171 33.0359C15.9684 33.1031 16.7197 33.0702 17.454 32.8497C18.9206 32.4087 19.7079 31.3958 19.9397 29.9363C20.0238 29.4093 20.0288 28.8696 20.069 28.3355L20.1369 28.3208V28.3208Z" fill="#236AC9"/>
<path d="M25.7245 23.4467C25.5556 23.5951 25.4157 23.7883 25.227 23.8674C24.9697 23.9745 24.7492 23.8373 24.6149 23.5923C24.4637 23.3158 24.3386 23.0232 24.164 22.7628C22.947 20.9485 21.1914 19.9272 19.0711 19.5492C16.454 19.083 14.1782 19.8047 12.3314 21.7269C11.4593 22.6347 10.9193 23.7232 10.6854 24.9573C10.6098 25.3549 10.3737 25.5649 10.0535 25.5152C9.70864 25.462 9.53902 25.1967 9.62242 24.776C10.1405 22.1622 11.6692 20.3045 14.058 19.16C18.0647 17.2399 23.2502 18.8576 25.3528 22.6431C25.4814 22.8755 25.5768 23.1261 25.7245 23.4467Z" fill="#236AC9"/>
<path d="M26.5409 28.0093C26.4957 30.5411 26.1868 32.6838 25.179 34.6753C23.9019 37.2008 21.8021 38.605 19.0139 39.0446C18.8549 39.0698 18.6754 39.0796 18.5263 39.0327C18.2768 38.9536 18.1545 38.7485 18.1842 38.486C18.216 38.2095 18.3955 38.0737 18.6648 38.0051C19.3906 37.8217 20.1412 37.6915 20.8296 37.4122C22.8113 36.6072 24.0008 35.061 24.6786 33.1038C25.4115 30.9877 25.5938 28.8073 25.3536 26.5876C25.3309 26.379 25.3083 26.1697 25.3069 25.9604C25.3055 25.6545 25.5027 25.4417 25.7889 25.4137C26.0787 25.3857 26.3395 25.5873 26.3692 25.9023C26.4448 26.7136 26.5027 27.527 26.5409 28.0093V28.0093Z" fill="#236AC9"/>
<path d="M15.9537 36.9544C14.5041 36.8907 13.1196 36.6107 11.7923 36.0563C11.4127 35.8974 11.2876 35.5761 11.4664 35.2723C11.6191 35.012 11.8827 34.9392 12.2354 35.0819C13.4807 35.5873 14.7762 35.8589 16.1205 35.8281C17.9354 35.7868 19.6062 35.3199 20.9681 34.0516C21.7618 33.3124 22.253 32.3975 22.5449 31.3671C22.6679 30.9317 22.9011 30.7518 23.2234 30.8386C23.5754 30.9338 23.7068 31.2173 23.5831 31.6527C22.7937 34.4289 20.8925 36.0304 18.1135 36.6639C17.4082 36.8249 16.6746 36.8613 15.9537 36.9551V36.9544Z" fill="#236AC9"/>
<path d="M17.7042 15.6229C19.6874 15.6642 21.52 16.1717 23.2042 17.2C23.2841 17.249 23.364 17.2987 23.441 17.3526C23.7725 17.585 23.8495 17.879 23.6544 18.1562C23.477 18.4082 23.1597 18.4523 22.8438 18.2465C21.2204 17.1909 19.4315 16.6974 17.4986 16.7352C15.5557 16.773 13.8135 17.4051 12.265 18.5643C11.906 18.8331 11.5031 18.7645 11.3618 18.404C11.2529 18.1268 11.3469 17.9105 11.5802 17.732C12.8502 16.7604 14.275 16.1206 15.8504 15.8315C16.4603 15.7195 17.0858 15.6901 17.7042 15.6229Z" fill="#236AC9"/>
</g>
<circle cx="30.7214" cy="38.6885" r="5.68852" fill="white" stroke="#236AC9" stroke-width="2"/>
<path d="M28.4918 38.3169L30.7213 40.918L37.4099 33.8579" stroke="#2EA76D" stroke-width="2.5" stroke-linecap="round" stroke-linejoin="round"/>
<defs>
<clipPath id="clip0_50_509">
<rect width="17.1311" height="23.4426" fill="white" transform="translate(9.40979 15.6229)"/>
</clipPath>
</defs>
</svg>
