<?xml version="1.0" encoding="UTF-8"?>
<svg width="40" height="63" viewBox="0 0 40 63" fill="none" xmlns="http://www.w3.org/2000/svg">
<rect x="6" y="4.90161" width="27.0492" height="54.0984" rx="2" fill="white" stroke="#236AC9" stroke-width="2"/>
<rect x="6.90161" y="5.80322" width="25.2459" height="45.082" rx="1" fill="#F2FAFF"/>
<rect x="14.1147" y="4" width="10.8197" height="3.60656" rx="1" fill="#236AC9"/>
<path d="M12.9414 35.2231L17.2322 33.3024C17.3638 33.2707 17.5696 33.2059 17.7495 33.0605C18.0605 32.8092 18.1356 32.4723 18.1483 32.2423L18.1659 31.9219L17.9675 31.6698C17.7307 31.369 17.2376 30.7068 16.8075 29.9081C16.3665 29.0892 16.0481 28.2288 16.0481 27.5072C16.0481 24.8117 17.8636 22.85 19.6407 22.85C21.4263 22.85 23.2329 24.7918 23.2329 27.4403C23.2329 28.1717 22.9073 29.0415 22.4541 29.8712C22.0118 30.6808 21.5026 31.3546 21.2506 31.6697L21.0603 31.9075L21.0644 32.2121C21.0675 32.4424 21.1126 32.7794 21.3755 33.0575C21.5464 33.2383 21.7614 33.3276 21.8659 33.3641L24.9668 35.0003C25.4432 35.3364 25.7421 35.7275 25.922 36.0648C26.0149 36.2389 26.0745 36.3957 26.1098 36.5186C26.1426 36.6324 26.1487 36.6965 26.1498 36.7077C26.15 36.7095 26.15 36.7099 26.15 36.709V37C26.15 38.1874 25.1874 39.15 24 39.15H14C12.8126 39.15 11.85 38.1874 11.85 37V36.709C11.85 36.4466 11.9595 36.1468 12.1787 35.856C12.3975 35.5658 12.6847 35.3411 12.9414 35.2231Z" stroke="#236AC9" stroke-width="1.7"/>
<circle cx="31.623" cy="39.6885" r="5.68853" fill="white" stroke="#236AC9" stroke-width="2"/>
<path d="M29.3934 39.3169L31.6229 41.918L38.3115 34.8579" stroke="#2EA76D" stroke-width="2.5" stroke-linecap="round" stroke-linejoin="round"/>
</svg>
