<?xml version="1.0" encoding="UTF-8"?>
<svg width="40" height="63" viewBox="0 0 40 63" fill="none" xmlns="http://www.w3.org/2000/svg">
<rect x="5" y="4.16968" width="26.4153" height="52.8306" rx="2" fill="white" stroke="#236AC9" stroke-width="2"/>
<rect x="5.88049" y="5.05005" width="24.6543" height="44.0255" rx="1" fill="#F2FAFF"/>
<rect x="12.9246" y="3.28906" width="10.5661" height="3.52204" rx="1" fill="#236AC9"/>
<path d="M34.6588 31.7002C34.1065 31.7002 33.6588 31.2525 33.6588 30.7002L33.6588 25.3039C33.6588 24.7516 34.1065 24.3039 34.6588 24.3039L37.623 24.3039L37.623 31.7002L34.6588 31.7002Z" fill="white" stroke="#236AC9" stroke-width="2"/>
<path d="M23.3602 32.9329C19.4942 32.9329 16.3602 29.7989 16.3602 25.9329L16.3602 24.0712C16.3602 23.5189 16.8079 23.0712 17.3602 23.0712L32.2983 23.0712C32.8505 23.0712 33.2983 23.5189 33.2983 24.0712L33.2983 31.9329C33.2983 32.4851 32.8505 32.9329 32.2983 32.9329L23.3602 32.9329Z" fill="white"/>
<path d="M22 33.344C18.6863 33.344 16 30.6577 16 27.344L16 24.6605C16 23.5559 16.8954 22.6605 18 22.6605L31.6588 22.6605C32.7634 22.6605 33.6588 23.5559 33.6588 24.6605L33.6588 31.344C33.6588 32.4486 32.7634 33.344 31.6588 33.344L22 33.344Z" stroke="#236AC9" stroke-width="2"/>
<path d="M22 29.0002C22 29.5525 21.5523 30.0002 21 30.0002C20.4477 30.0002 20 29.5525 20 29.0002C20 28.448 20.4477 28.0002 21 28.0002C21.5523 28.0002 22 28.448 22 29.0002Z" fill="#236AC9"/>
<path d="M9.16357 34.6665V34.6665C9.16357 39.2863 12.9086 43.0313 17.5284 43.0313H17.9687" stroke="#2EA76D" stroke-width="2" stroke-linecap="round" stroke-linejoin="round"/>
<path d="M13.4467 33.7861V33.7861C13.4467 36.4607 15.6148 38.6289 18.2895 38.6289V38.6289" stroke="#2EA76D" stroke-width="2" stroke-linecap="round" stroke-linejoin="round"/>
</svg>
