<svg width="537" height="656" viewBox="0 0 537 656" fill="none" xmlns="http://www.w3.org/2000/svg">
<g opacity="0.08">
<path d="M180.008 475.998C180.008 499.637 175.352 523.045 166.306 544.884C157.259 566.724 144 586.568 127.285 603.283C110.57 619.998 90.7256 633.257 68.8861 642.304C47.0465 651.35 23.639 656.006 0 656.006L7.8684e-06 475.998H180.008Z" fill="#DEE6FC"/>
<path d="M357.98 119.056C381.49 119.056 404.768 114.425 426.488 105.429C448.208 96.4321 467.943 83.2457 484.566 66.6222C501.189 49.9988 514.376 30.2639 523.372 8.54433C532.369 -13.1752 536.999 -36.4541 536.999 -59.9632L357.98 -59.9632L357.98 119.056Z" fill="#EEF2FD"/>
<path d="M179.02 475.998C202.529 475.998 225.808 480.654 247.527 489.7C269.247 498.746 288.982 512.006 305.605 528.721C322.228 545.436 335.415 565.28 344.411 587.12C353.408 608.959 358.038 632.367 358.038 656.006L179.02 656.006L179.02 475.998Z" fill="url(#paint0_linear_3066_167299)"/>
<path d="M355.867 475.998C379.376 475.998 402.655 480.654 424.375 489.7C446.094 498.746 465.829 512.006 482.453 528.721C499.076 545.436 512.263 565.28 521.259 587.12C530.256 608.959 534.886 632.367 534.886 656.006L355.867 656.006L355.867 475.998Z" fill="url(#paint1_linear_3066_167299)"/>
<path d="M355.867 296.422C379.376 296.422 402.655 301.078 424.375 310.124C446.094 319.17 465.829 332.43 482.453 349.145C499.076 365.86 512.263 385.704 521.259 407.544C530.256 429.383 534.886 452.791 534.886 476.43L355.867 476.43L355.867 296.422Z" fill="url(#paint2_linear_3066_167299)"/>
<path d="M358.042 297.969C358.042 321.348 353.437 344.498 344.49 366.098C335.543 387.697 322.429 407.323 305.898 423.855C289.366 440.386 269.74 453.5 248.141 462.447C226.541 471.394 203.391 475.999 180.012 475.999L180.012 297.969L358.042 297.969Z" fill="#DEE6FC"/>
<path d="M535.46 118.492C535.46 141.871 530.855 165.022 521.908 186.621C512.961 208.221 499.847 227.847 483.316 244.378C466.784 260.91 447.158 274.023 425.559 282.97C403.959 291.917 380.809 296.522 357.43 296.522L357.43 118.492L535.46 118.492Z" fill="#DEE6FC"/>
</g>
<defs>
<linearGradient id="paint0_linear_3066_167299" x1="190.792" y1="651.712" x2="410.851" y2="496.367" gradientUnits="userSpaceOnUse">
<stop offset="0.296875" stop-color="#DEE6FC"/>
<stop offset="1" stop-color="white" stop-opacity="0.2"/>
</linearGradient>
<linearGradient id="paint1_linear_3066_167299" x1="367.64" y1="651.712" x2="587.699" y2="496.367" gradientUnits="userSpaceOnUse">
<stop offset="0.296875" stop-color="#DEE6FC"/>
<stop offset="1" stop-color="white" stop-opacity="0.2"/>
</linearGradient>
<linearGradient id="paint2_linear_3066_167299" x1="367.64" y1="472.136" x2="587.699" y2="316.791" gradientUnits="userSpaceOnUse">
<stop offset="0.296875" stop-color="#DEE6FC"/>
<stop offset="1" stop-color="white" stop-opacity="0.2"/>
</linearGradient>
</defs>
</svg>
