<svg width="472" height="357" viewBox="0 0 472 357" fill="none" xmlns="http://www.w3.org/2000/svg">
<path d="M162.773 355.754C141.397 355.754 120.23 351.544 100.482 343.364C80.7325 335.184 62.7882 323.194 47.673 308.08C32.5578 292.965 20.5677 275.021 12.3874 255.273C4.20717 235.524 -0.00317476 214.358 -0.00317383 192.983L162.773 192.983L162.773 355.754Z" fill="#E5EBFC"/>
<path d="M471.873 0.956811C459.152 0.95681 446.555 3.44684 434.802 8.28475C423.048 13.1227 412.369 20.2137 403.374 29.1531C394.378 38.0924 387.242 48.7048 382.374 60.3846C377.506 72.0644 375 84.5826 375 97.2247C375 109.867 377.506 122.385 382.374 134.065C387.242 145.745 394.378 156.357 403.374 165.296C412.369 174.236 423.048 181.327 434.802 186.165C446.555 191.003 459.152 193.493 471.873 193.493L471.873 0.956811Z" fill="url(#paint0_linear_941_10309)"/>
<path opacity="0.6" d="M320.893 198.317L320.893 356.966L162.227 356.966C162.227 336.132 166.33 315.501 174.304 296.254C182.279 277.007 193.966 259.518 208.7 244.785C223.434 230.053 240.925 218.367 260.174 210.394C279.424 202.42 300.057 198.317 320.893 198.317Z" fill="url(#paint1_linear_941_10309)"/>
<path opacity="0.6" d="M313.664 198.3L472.313 198.3L472.312 356.966C451.479 356.966 430.848 352.863 411.601 344.888C392.354 336.914 374.864 325.226 360.132 310.493C345.4 295.759 333.714 278.267 325.74 259.018C317.767 239.769 313.664 219.136 313.664 198.3Z" fill="url(#paint2_linear_941_10309)"/>
<defs>
<linearGradient id="paint0_linear_941_10309" x1="377.311" y1="180.831" x2="544.614" y2="62.2418" gradientUnits="userSpaceOnUse">
<stop offset="0.296875" stop-color="#DEE6FC"/>
<stop offset="1" stop-color="white" stop-opacity="0.2"/>
</linearGradient>
<linearGradient id="paint1_linear_941_10309" x1="172.661" y1="353.181" x2="366.97" y2="215.24" gradientUnits="userSpaceOnUse">
<stop stop-color="#D4DEFF"/>
<stop offset="1" stop-color="white" stop-opacity="0"/>
</linearGradient>
<linearGradient id="paint2_linear_941_10309" x1="546.233" y1="470.792" x2="305.621" y2="114.897" gradientUnits="userSpaceOnUse">
<stop stop-color="white" stop-opacity="0"/>
<stop offset="0.807292" stop-color="#D4DEFF"/>
</linearGradient>
</defs>
</svg>
