<svg width="309" height="205" viewBox="0 0 309 205" fill="none" xmlns="http://www.w3.org/2000/svg">
<path d="M0.11377 0C0.11377 13.5248 2.77679 26.9171 7.95247 39.4124C13.1281 51.9077 20.7135 63.2611 30.2761 72.8245C39.8386 82.3881 51.1909 89.9741 63.6842 95.1499C76.1775 100.326 89.5687 102.989 103.092 102.989V0H0.11377Z" fill="#E5EBFC"/>
<path d="M0.11377 102.01C0.11377 115.535 2.77679 128.928 7.95247 141.423C13.1281 153.918 20.7135 165.272 30.2761 174.835C39.8386 184.399 51.1909 191.985 63.6842 197.16C76.1775 202.336 89.5687 205 103.092 205V102.01H0.11377Z" fill="url(#paint0_linear_3816_74136)"/>
<path d="M103.067 102.01C103.067 115.535 105.73 128.928 110.906 141.423C116.081 153.918 123.667 165.272 133.229 174.835C142.792 184.399 154.144 191.985 166.637 197.16C179.131 202.336 192.522 205 206.045 205V102.01H103.067Z" fill="#E5EBFC"/>
<path d="M103.092 0.0350557C103.092 13.5552 105.755 26.943 110.929 39.434C116.102 51.9248 123.686 63.2745 133.246 72.8346C142.806 82.3949 154.156 89.9783 166.647 95.1524C179.138 100.326 192.526 102.989 206.046 102.989C219.566 102.989 232.954 100.326 245.445 95.1524C257.936 89.9783 269.285 82.3949 278.845 72.8346C288.406 63.2745 295.989 51.9248 301.163 39.434C306.337 26.943 309 13.5552 309 0.0350647L103.092 0.0350557Z" fill="url(#paint1_linear_3816_74136)"/>
<defs>
<linearGradient id="paint0_linear_3816_74136" x1="100.635" y1="108.783" x2="11.0984" y2="234.909" gradientUnits="userSpaceOnUse">
<stop stop-color="#D4DEFF"/>
<stop offset="1" stop-color="white" stop-opacity="0"/>
</linearGradient>
<linearGradient id="paint1_linear_3816_74136" x1="295.459" y1="100.533" x2="169.689" y2="-78.0152" gradientUnits="userSpaceOnUse">
<stop stop-color="#D4DEFF"/>
<stop offset="1" stop-color="white" stop-opacity="0"/>
</linearGradient>
</defs>
</svg>
