<?xml version="1.0" encoding="UTF-8"?>
<svg width="38" height="38" viewBox="0 0 38 38" fill="none" xmlns="http://www.w3.org/2000/svg">
  <path d="M12.5274 1.925C13.0382 1.925 13.4524 1.51086 13.4524 1C13.4524 0.489137 13.0382 0.075 12.5274 0.075V1.925ZM0.075 12.6471C0.075 13.1579 0.489137 13.5721 1 13.5721C1.51086 13.5721 1.925 13.1579 1.925 12.6471H0.075ZM3 1.925H12.5274V0.075H3V1.925ZM1.925 12.6471V3H0.075V12.6471H1.925ZM3 0.075C1.38457 0.075 0.075 1.38457 0.075 3H1.925C1.925 2.40629 2.40629 1.925 3 1.925V0.075Z" fill="#2E3F51"/>
  <path d="M12.5274 36.075C13.0382 36.075 13.4524 36.4891 13.4524 37C13.4524 37.5109 13.0382 37.925 12.5274 37.925V36.075ZM0.075 25.3529C0.075 24.8421 0.489137 24.4279 1 24.4279C1.51086 24.4279 1.925 24.8421 1.925 25.3529H0.075ZM3 36.075H12.5274V37.925H3V36.075ZM1.925 25.3529V35H0.075V25.3529H1.925ZM3 37.925C1.38457 37.925 0.075 36.6154 0.075 35H1.925C1.925 35.5937 2.40629 36.075 3 36.075V37.925Z" fill="#2E3F51"/>
  <path d="M36.075 12.6471C36.075 13.1579 36.4891 13.5721 37 13.5721C37.5109 13.5721 37.925 13.1579 37.925 12.6471L36.075 12.6471ZM25.4726 0.0749995C24.9618 0.0749995 24.5476 0.489136 24.5476 0.999999C24.5476 1.51086 24.9618 1.925 25.4726 1.925L25.4726 0.0749995ZM36.075 3L36.075 12.6471L37.925 12.6471L37.925 3L36.075 3ZM25.4726 1.925L35 1.925L35 0.0749999L25.4726 0.0749995L25.4726 1.925ZM37.925 3C37.925 1.38457 36.6154 0.075 35 0.0749999L35 1.925C35.5937 1.925 36.075 2.40629 36.075 3L37.925 3Z" fill="#2E3F51"/>
  <path d="M36.075 25.3529C36.075 24.8421 36.4891 24.4279 37 24.4279C37.5109 24.4279 37.925 24.8421 37.925 25.3529L36.075 25.3529ZM25.4726 37.925C24.9618 37.925 24.5476 37.5109 24.5476 37C24.5476 36.4891 24.9618 36.075 25.4726 36.075L25.4726 37.925ZM36.075 35L36.075 25.3529L37.925 25.3529L37.925 35L36.075 35ZM25.4726 36.075L35 36.075L35 37.925L25.4726 37.925L25.4726 36.075ZM37.925 35C37.925 36.6154 36.6154 37.925 35 37.925L35 36.075C35.5937 36.075 36.075 35.5937 36.075 35L37.925 35Z" fill="#2E3F51"/>
  <rect x="21.1177" y="6.29419" width="10.5882" height="10.5882" rx="2" stroke="#2E3F51" stroke-width="1.85"/>
  <rect x="6.29395" y="6.29419" width="10.5882" height="10.5882" rx="2" stroke="#2E3F51" stroke-width="1.85"/>
  <rect x="8.94043" y="8.94116" width="5.29412" height="5.29412" rx="0.5" fill="#2E3F51"/>
  <rect x="8.94043" y="23.7649" width="5.29412" height="5.29412" rx="0.5" fill="#2E3F51"/>
  <rect x="23.7642" y="8.94116" width="5.29412" height="5.29412" rx="0.5" fill="#2E3F51"/>
  <rect x="6.29395" y="21.1177" width="10.5882" height="10.5882" rx="2" stroke="#2E3F51" stroke-width="1.85"/>
  <path d="M30.2432 22.1765L30.7474 22.1765" stroke="#2E3F51" stroke-width="1.85" stroke-linecap="round"/>
  <path d="M30.2437 26.5176L30.7479 26.5176" stroke="#2E3F51" stroke-width="1.85" stroke-linecap="round"/>
  <path d="M30.2437 30.8589L30.7479 30.8589" stroke="#2E3F51" stroke-width="1.85" stroke-linecap="round"/>
  <path d="M26.2095 22.1765L26.7137 22.1765" stroke="#2E3F51" stroke-width="1.85" stroke-linecap="round"/>
  <path d="M22.1758 22.1765L22.68 22.1765" stroke="#2E3F51" stroke-width="1.85" stroke-linecap="round"/>
  <path d="M28.2271 24.3472L28.7313 24.3472" stroke="#2E3F51" stroke-width="1.85" stroke-linecap="round"/>
  <path d="M24.1934 24.3472L24.6976 24.3472" stroke="#2E3F51" stroke-width="1.85" stroke-linecap="round"/>
  <path d="M26.21 26.5176L26.7142 26.5176" stroke="#2E3F51" stroke-width="1.85" stroke-linecap="round"/>
  <path d="M22.1763 26.5176L22.6805 26.5176" stroke="#2E3F51" stroke-width="1.85" stroke-linecap="round"/>
  <path d="M28.2271 28.6882L28.7313 28.6882" stroke="#2E3F51" stroke-width="1.85" stroke-linecap="round"/>
  <path d="M24.1934 28.6882L24.6976 28.6882" stroke="#2E3F51" stroke-width="1.85" stroke-linecap="round"/>
  <path d="M26.21 30.8589L26.7142 30.8589" stroke="#2E3F51" stroke-width="1.85" stroke-linecap="round"/>
  <path d="M22.1763 30.8589L22.6805 30.8589" stroke="#2E3F51" stroke-width="1.85" stroke-linecap="round"/>
</svg>
