<?xml version="1.0" encoding="UTF-8"?>
<svg width="41px" height="41px" viewBox="0 0 41 20" version="1.1" xmlns="http://www.w3.org/2000/svg" xmlns:xlink="http://www.w3.org/1999/xlink">
  <!-- Generator: Sketch 51.2 (57519) - http://www.bohemiancoding.com/sketch -->
  <defs>
    <polygon id="path-1" points="0 0.291093982 40.6981002 0.291093982 40.6981002 19.954023 0 19.954023"></polygon>
  </defs>
  <g stroke="none" stroke-width="1" fill="#2D3E51" fill-rule="evenodd">
    <g id="07-copy-3" transform="translate(-224.000000, -664.000000)">
      <g id="Group-4" transform="translate(203.000000, 647.000000)">
        <g id="Page-1" transform="translate(21.000000, 17.000000)">
          <g id="Group-3">
            <mask id="mask-2" fill="white">
              <use xlink:href="#path-1"></use>
            </mask>
            <g id="Clip-2"></g>
            <path d="M2.14179104,5.06615037 C2.21216418,3.52264801 3.59820896,2.30721325 5.19537313,2.34594753 L35.8798955,2.34594753 C36.5842388,2.33714429 37.2537015,2.5924384 37.7591642,3.06429236 C38.2652388,3.53732008 38.5485672,4.17056687 38.5583582,4.84782989 C38.5595821,4.91590832 38.5577463,4.98398675 38.5522388,5.06321596 L38.5522388,15.2955216 C38.6403582,16.6459394 37.565791,17.812076 36.1577164,17.8960003 C36.0671493,17.902456 35.9765821,17.902456 35.8780597,17.8983478 L5.19537313,17.8983478 C3.69428358,17.8983478 2.14179104,16.9211876 2.14179104,15.2867183 L2.14179104,5.06615037 Z M40.6940299,15.2867183 L40.6940299,5.06908479 C40.7460448,3.84425991 40.2981045,2.67284138 39.432209,1.77138905 C38.5657015,0.869936714 37.3858806,0.345850169 36.1087612,0.295378229 C36.0322687,0.292443813 35.9594478,0.29185693 35.8780597,0.29185693 L5.19843284,0.29185693 C2.41410448,0.244319405 0.075880597,2.38292116 0,5.06321596 L0,15.2867183 C0,17.8590266 2.3308806,19.9524384 5.19537313,19.9524384 L35.8737761,19.9524384 C35.9178358,19.9536122 35.9618955,19.9541991 36.0053433,19.9541991 C38.5332687,19.9541991 40.6248806,18.0157244 40.6958657,15.5766385 C40.6983134,15.4786291 40.6977015,15.3800327 40.6940299,15.2867183 Z" id="Fill-1" mask="url(#mask-2)"></path>
          </g>
          <path d="M7.50150468,10.8118182 L6.14563117,11.4481818 C6.02491085,11.5029091 5.96782144,11.6518182 6.01896404,11.7816364 C6.02312681,11.7918182 6.02728958,11.8013636 6.03264171,11.8109091 L6.56190812,12.7209091 C6.62672839,12.8430909 6.77183064,12.8857273 6.88600947,12.8157273 C6.89552437,12.8106364 6.90444459,12.8042727 6.91277013,12.7972727 L8.10213286,11.8427273 C8.21095955,11.7644545 8.35903521,11.7956364 8.43218101,11.9120909 C8.46369913,11.963 8.47797148,12.0240909 8.4708353,12.0845455 L8.28053727,13.6690909 C8.25972342,13.8294545 8.36438734,13.9770909 8.51365236,13.9993636 C8.5154364,14 8.51662577,14 8.51840981,14 L9.53531494,14 C9.68517465,13.9802727 9.79221729,13.8345455 9.77378217,13.6741818 C9.77318749,13.6722727 9.77318749,13.671 9.77318749,13.6690909 L9.56504901,12.0845455 C9.54720857,11.9413636 9.64176291,11.8109091 9.77497153,11.7924545 C9.83503435,11.7835455 9.89569185,11.7994545 9.94564509,11.8363636 L11.1350078,12.7909091 C11.2396717,12.8545455 11.3722857,12.8246364 11.4442421,12.7209091 L11.9675617,11.7536364 C12.0335714,11.6320909 11.9955117,11.4761818 11.8819276,11.4055455 C11.8730074,11.3998182 11.8640872,11.3953636 11.8545723,11.3909091 L10.4986988,10.7545455 C10.3767891,10.7010909 10.319105,10.5521818 10.3690582,10.4223636 C10.3928455,10.3593636 10.4398253,10.3090909 10.4986988,10.2836364 L11.8545723,9.64727273 C11.9752926,9.59254545 12.032382,9.44363636 11.9812394,9.31381818 C11.9770766,9.30363636 11.9729139,9.29409091 11.9675617,9.28454545 L11.4442421,8.38090909 C11.3794219,8.25872727 11.2337249,8.21609091 11.1195461,8.28609091 C11.1106259,8.29181818 11.1017057,8.29754545 11.0933801,8.30454545 L9.90401739,9.26545455 C9.79994815,9.35136364 9.65008845,9.32972727 9.57040114,9.21836364 C9.53234154,9.16490909 9.51509578,9.09681818 9.52342132,9.03 L9.71371935,7.38818182 C9.71371935,7.23545455 9.62451715,7 9.47584681,7 L8.50651618,7 C8.36379266,7 8.2508032,7.23545455 8.26864364,7.38818182 L8.4708353,8.97909091 C8.48867574,9.12545455 8.39233736,9.25972727 8.25556065,9.27881818 C8.19787656,9.28709091 8.13959778,9.27309091 8.09023923,9.24 L6.91277013,8.26636364 C6.80751153,8.18236364 6.6582465,8.20590909 6.57974856,8.31918182 C6.57320707,8.32872727 6.56726026,8.33827273 6.56190812,8.34909091 L6.03264171,9.34181818 C5.9660374,9.46336364 6.00469168,9.61927273 6.11827583,9.68990909 C6.12719605,9.69563636 6.13611627,9.70009091 6.14563117,9.70454545 L7.50150468,10.3409091 C7.62281968,10.3943636 7.68109845,10.5432727 7.63114522,10.6730909 C7.60676328,10.7360909 7.56037813,10.7857273 7.50150468,10.8118182" id="Fill-4"></path>
          <path d="M13.1363392,9.69627273 C13.1466447,9.70136364 13.1569503,9.70645455 13.1679429,9.71027273 L14.7343889,10.3466364 C14.8772927,10.395 14.9508058,10.5407273 14.8992779,10.6730909 C14.8738575,10.7373636 14.8223297,10.7895455 14.755,10.8181818 L13.188554,11.4545455 C13.0483983,11.5092727 12.9831298,11.6581818 13.042215,11.788 C13.0470243,11.7981818 13.0518335,11.8077273 13.0580169,11.8172727 L13.6626101,12.7272727 C13.7374972,12.8494545 13.9058214,12.8914545 14.0377327,12.8220909 C14.0480382,12.8163636 14.0583438,12.8106364 14.0679623,12.8036364 L15.4420377,11.8490909 C15.5622693,11.7631818 15.7347158,11.7841818 15.8274659,11.8961818 C15.8714363,11.9496364 15.8913604,12.0170909 15.8817419,12.0845455 L15.6618898,13.6690909 C15.6378435,13.8288182 15.7580751,13.9770909 15.9312086,13.9993636 C15.9332697,13.9993636 15.9346438,13.9993636 15.9367049,14 L17.0840578,14 C17.2571914,13.9802727 17.3808581,13.8339091 17.35956,13.6735455 C17.3588729,13.6722727 17.3588729,13.6703636 17.3588729,13.6690909 L17.1390209,12.0909091 C17.1184097,11.9477273 17.2276487,11.8172727 17.3815452,11.7981818 C17.450936,11.7899091 17.5210138,11.8058182 17.578725,11.8427273 L18.9528004,12.7972727 C19.0737191,12.8825455 19.2461655,12.8609091 19.3375415,12.7489091 C19.3450989,12.74 19.3519693,12.7304545 19.3581527,12.7209091 L19.9627458,11.753 C20.039007,11.6320909 19.9943496,11.4761818 19.8638124,11.4055455 C19.8535069,11.3998182 19.8432013,11.3947273 19.8322087,11.3909091 L18.252022,10.8181818 C18.1118663,10.7647273 18.0445366,10.6158182 18.1022477,10.486 C18.1304163,10.423 18.1840052,10.3727273 18.252022,10.3466364 L19.8184679,9.71027273 C19.9579366,9.65618182 20.0238922,9.50663636 19.964807,9.37745455 C19.9599977,9.36727273 19.9545014,9.35772727 19.9490051,9.34818182 L19.3444119,8.38090909 C19.2688378,8.25872727 19.1012006,8.21609091 18.9692893,8.28545455 C18.9589838,8.29118182 18.9486782,8.29754545 18.9390597,8.30390909 L17.5649842,9.26545455 C17.4447526,9.35072727 17.2723062,9.32972727 17.1795561,9.21836364 C17.1348986,9.16490909 17.1156616,9.09681818 17.1252801,9.03 L17.3451322,7.38818182 C17.3451322,7.23545455 17.2420765,7 17.0703171,7 L15.9160937,7 C15.7512047,7 15.6206675,7.23545455 15.6412787,7.38818182 L15.8611307,8.98545455 C15.8817419,9.13181818 15.7704418,9.26609091 15.6124231,9.28518182 C15.5457804,9.29281818 15.4784507,9.27945455 15.4214266,9.24636364 L14.0473512,8.29818182 C13.9250585,8.21418182 13.753299,8.23772727 13.6626101,8.35036364 C13.6550526,8.35990909 13.6481823,8.37009091 13.6419989,8.38090909 L13.0374057,9.34818182 C12.9611446,9.46972727 13.005115,9.62563636 13.1363392,9.69627273" id="Fill-6"></path>
          <path d="M22.4954256,10.8411552 L21.1448586,11.4729242 C21.0246107,11.5272563 20.9677447,11.6750903 21.0186872,11.8039711 C21.0228337,11.8140794 21.0269801,11.823556 21.0323113,11.8330325 L21.5535828,12.7364621 C21.6187417,12.8577617 21.7632761,12.9000903 21.8764157,12.8305957 C21.8858934,12.8255415 21.8941863,12.8192238 21.9030716,12.8122744 L23.0877795,11.8646209 C23.1914414,11.7793321 23.3401223,11.8008123 23.4200901,11.9113718 C23.4580007,11.9644404 23.4745866,12.0320397 23.466886,12.0983755 L23.2767404,13.6714801 C23.2566004,13.8300542 23.3602623,13.9772563 23.5095355,13.9993682 C23.5113126,14 23.5124973,14 23.5142743,14 L24.5271996,14 C24.6764728,13.9804152 24.7825041,13.8357401 24.7647335,13.6765343 C24.7641412,13.674639 24.7641412,13.6727437 24.7641412,13.6714801 L24.5508937,12.1046931 C24.5331231,11.9625451 24.6273074,11.8330325 24.7599947,11.8147112 C24.8198224,11.8058664 24.8802425,11.8216606 24.9294079,11.8583032 L26.1141158,12.8059567 C26.2183701,12.8906137 26.3670509,12.8691336 26.4470187,12.7579422 C26.4535346,12.7497292 26.4588658,12.7396209 26.464197,12.7301444 L26.9676978,11.782491 C27.0334491,11.6618231 26.9955385,11.5070397 26.8818065,11.4369134 C26.8735135,11.4318592 26.8646282,11.4268051 26.8545582,11.4223827 L25.5045836,10.7906137 C25.3837434,10.7375451 25.3256927,10.590343 25.3754504,10.4608303 C25.3991446,10.3982852 25.4453482,10.3490072 25.5045836,10.3231047 L26.8545582,9.69133574 C26.9753984,9.63700361 27.0322644,9.48853791 26.981322,9.36028881 C26.9771755,9.35018051 26.973029,9.34070397 26.9676978,9.33122744 L26.4464263,8.37093863 C26.3818598,8.24963899 26.2367331,8.20731047 26.1230011,8.27617329 C26.1135234,8.28185921 26.1052305,8.2881769 26.0969375,8.29512635 L24.9122296,9.24909747 C24.8079753,9.33375451 24.6592945,9.31353791 24.5799191,9.20234657 C24.5414161,9.14927798 24.5248302,9.0816787 24.5325308,9.01534296 L24.7226764,7.38537906 C24.7226764,7.23375451 24.6332309,7 24.4851424,7 L23.4959114,7 C23.3543388,7 23.2417915,7.23375451 23.2595621,7.38537906 L23.448523,8.97111913 C23.466886,9.11642599 23.3709247,9.24972924 23.2346833,9.26868231 C23.1772249,9.27626354 23.1191743,9.26299639 23.0700089,9.2301444 L21.885301,8.28880866 C21.779862,8.20541516 21.6317735,8.22879061 21.5535828,8.34061372 C21.5470669,8.35072202 21.5411434,8.36019856 21.5358122,8.37093863 L21.0441584,9.38176895 C20.9760377,9.50054152 21.0109866,9.65658845 21.1229415,9.72924188 C21.1294574,9.73366426 21.137158,9.73808664 21.1448586,9.74187726 L22.4954256,10.3736462 C22.6162658,10.4267148 22.6743164,10.5745487 22.6245587,10.7034296 C22.6002722,10.7659747 22.5540686,10.8152527 22.4954256,10.8411552" id="Fill-8"></path>
          <path d="M29.1519192,9.74954955 L30.4981316,10.3801802 C30.6191726,10.4318919 30.6788075,10.5775676 30.6309815,10.7074775 C30.6079542,10.7705405 30.56249,10.8203604 30.5040361,10.8468468 L29.1578237,11.4774775 C29.0379636,11.5317117 28.9812809,11.6799099 29.0320591,11.8079279 C29.0361922,11.818018 29.0409158,11.8274775 29.0456393,11.8369369 L29.5593256,12.7387387 C29.6242745,12.8598198 29.7683428,12.9020721 29.8811176,12.8333333 C29.8905647,12.8276577 29.8994214,12.8213514 29.9076876,12.8144144 L31.0885756,11.8684685 C31.1919033,11.783964 31.3401048,11.8047748 31.4198147,11.9151351 C31.4576032,11.9687387 31.474726,12.0355856 31.4664598,12.1018018 L31.2775177,13.6720721 C31.2568522,13.830991 31.3601799,13.9772973 31.5089718,13.9993694 C31.5107431,14 31.511924,14 31.5136953,14 L32.5233546,14 C32.6721465,13.9804505 32.7784264,13.836036 32.7601227,13.6771171 C32.7595322,13.6758559 32.7595322,13.673964 32.7595322,13.6720721 L32.5410679,12.1081081 C32.5239451,11.9668468 32.6172352,11.8369369 32.7500851,11.8186486 C32.8091295,11.8104505 32.8699453,11.8255856 32.9189521,11.8621622 L34.0998401,12.8081081 C34.2037583,12.8926126 34.3519597,12.8711712 34.4304888,12.7601802 C34.4369837,12.751982 34.4428881,12.7425225 34.4482021,12.7324324 L34.9677929,11.7738739 C35.0333321,11.6540541 34.9949533,11.4989189 34.8827689,11.4289189 C34.8739123,11.4232432 34.8650556,11.4188288 34.8556085,11.4144144 L33.5093961,10.7837838 C33.3889455,10.7308108 33.331082,10.5838739 33.3806793,10.4545946 C33.4042971,10.3927928 33.4509422,10.342973 33.5093961,10.3171171 L34.8556085,9.68648649 C34.9754686,9.63225225 35.0321513,9.48468468 34.9813731,9.35603604 C34.97724,9.34594595 34.9725164,9.33648649 34.9677929,9.32702703 L34.4482021,8.36846847 C34.3832533,8.24738739 34.2391849,8.20513514 34.1264101,8.2745045 C34.116963,8.27954955 34.1086968,8.28648649 34.0998401,8.29279279 L32.9189521,9.24504505 C32.8156244,9.33018018 32.667423,9.30936937 32.587713,9.19837838 C32.5499246,9.14540541 32.5328017,9.07855856 32.5410679,9.01171171 L32.73001,7.38468468 C32.73001,7.23333333 32.6414434,7 32.4938324,7 L31.4900776,7 C31.348371,7 31.2361866,7.23333333 31.2539,7.38468468 L31.4428421,8.96756757 C31.4605554,9.11261261 31.3649034,9.24567568 31.2291013,9.26459459 C31.1718282,9.27279279 31.1139647,9.25891892 31.0649579,9.22612613 L29.913592,8.32432432 C29.808493,8.24108108 29.660882,8.26504505 29.5829434,8.37666667 C29.5764485,8.38612613 29.5705441,8.39621622 29.5652301,8.40630631 L29.0456393,9.36486486 C28.9682912,9.47711712 28.9919089,9.63540541 29.0964175,9.71738739 C29.1141308,9.73063063 29.1324346,9.74135135 29.1519192,9.74954955" id="Fill-10"></path>
        </g>
      </g>
    </g>
  </g>
</svg>
