<?xml version="1.0" encoding="UTF-8"?>
<svg width="6px" height="10px" viewBox="0 0 6 10" version="1.1" xmlns="http://www.w3.org/2000/svg" xmlns:xlink="http://www.w3.org/1999/xlink">
    <title>np_arrow_2284437_000000 copy</title>
    <g id="Page-1" stroke="none" stroke-width="1" fill="none" fill-rule="evenodd">
        <g id="Customer-Referral-Program---Referral-landing-page-open" transform="translate(-709.000000, -2900.000000)" fill="#000000" fill-rule="nonzero">
            <g id="Group-23" transform="translate(490.000000, 2839.000000)">
                <g id="np_arrow_2284437_000000-copy" transform="translate(222.000000, 66.000000) rotate(90.000000) translate(-222.000000, -66.000000) translate(217.000000, 63.000000)">
                    <path d="M4.93,0.1794375 C4.82224138,0.197015625 4.72256897,0.24975 4.64444828,0.33178125 L0.334103448,4.83178125 C0.224998276,4.93212375 0.159,5.0764125 0.151586207,5.23095 C0.14350431,5.38549125 0.194689655,5.5371 0.292346552,5.64916875 C0.390675862,5.76196125 0.527398276,5.82495 0.669501724,5.8242232 C0.812282759,5.8242232 0.947656897,5.75976375 1.04531207,5.64623812 L5.00013966,1.51542562 L8.95496724,5.64623812 C9.05262414,5.75976375 9.18800172,5.8242232 9.33077759,5.8242232 C9.47288448,5.82494925 9.60960517,5.76196125 9.70793276,5.64916875 C9.80558966,5.5371075 9.85677414,5.38550625 9.8486931,5.23095 C9.84128466,5.07640875 9.77528276,4.9321125 9.66617586,4.83178125 L5.35583103,0.33253125 C5.24268448,0.213879375 5.08576207,0.158214375 4.93017586,0.1801875 L4.93,0.1794375 Z" id="Path"></path>
                </g>
            </g>
        </g>
    </g>
</svg>